<?xml version="1.0" encoding="UTF-8"?>
<svg id="Layer_1" xmlns="http://www.w3.org/2000/svg" version="1.1" viewBox="0 0 584.5 680.5">
  <!-- Generator: Adobe Illustrator 29.7.0, SVG Export Plug-In . SVG Version: 2.1.1 Build 138)  -->
  <defs>
    <style>
      .st0 {
        fill: #fff200;
      }
    </style>
  </defs>
  <path class="st0" d="M585.6,340.2c0,27.7-3.1,55.2-9.2,82.6-6.1,27.4-15,53.7-26.7,78.9-11.6,25.2-25.9,48.6-42.7,70.4-16.8,21.7-36.1,40.6-57.8,56.7-21.7,16.1-45.6,28.6-71.5,37.8-26,9.1-53.9,13.7-83.8,13.7s-58.4-4.6-84.5-13.7c-26.1-9.1-50-21.7-71.5-37.8-21.6-16.1-40.8-34.9-57.8-56.7s-31.3-45.2-43-70.4c-11.6-25.2-20.5-51.5-26.7-79.1-6.1-27.5-9.2-55-9.2-82.4s3.1-54.9,9.2-82.6c6.1-27.7,15-54.1,26.7-79.3,11.6-25.2,26-48.7,43-70.6,17-21.9,36.3-40.8,57.8-56.9,21.6-16.1,45.5-28.6,71.8-37.8C235.7,3.9,263.8-.7,293.7-.7s57.8,4.6,83.8,13.7c26,9.1,49.8,21.7,71.5,37.8,21.7,16.1,41,35,57.8,56.9,16.8,21.9,31.1,45.4,42.7,70.6,11.6,25.2,20.5,51.6,26.7,79.3,6.1,27.7,9.2,55.2,9.2,82.6ZM386.3,354.4c0-13.8-1.9-29.3-5.7-46.3-3.8-17-9.6-32.9-17.5-47.7-7.9-14.8-17.9-27.2-30.2-37.3-12.3-10.1-26.9-15.1-43.9-15.1s-32.1,5-44.4,15.1c-12.3,10.1-22.4,22.5-30.5,37.3-8,14.8-13.9,30.7-17.7,47.7-3.8,17-5.7,32.4-5.7,46.3s1.9,29.3,5.7,46.3c3.8,17,9.7,32.9,17.7,47.7,8,14.8,18.2,27.2,30.5,37.3,12.3,10.1,27.1,15.1,44.4,15.1s31.6-5,43.9-15.1c12.3-10.1,22.3-22.5,30.2-37.3,7.9-14.8,13.7-30.7,17.5-47.7,3.8-17,5.7-32.4,5.7-46.3Z"/>
</svg>