<?xml version="1.0" encoding="UTF-8"?>
<svg id="Layer_1" xmlns="http://www.w3.org/2000/svg" version="1.1" viewBox="0 0 469.3 704.2">
  <!-- Generator: Adobe Illustrator 29.7.0, SVG Export Plug-In . SVG Version: 2.1.1 Build 138)  -->
  <defs>
    <style>
      .st0 {
        fill: #fff200;
      }
    </style>
  </defs>
  <path class="st0" d="M468.1,265.7c0,25.5-4.6,49.7-13.8,72.8-9.2,23.1-21.4,44.7-36.5,64.9-15.1,20.2-32.3,38.8-51.5,55.8-19.3,17-38.7,32.4-58.5,46h150.8l-11.5,198.5L.5,688.5v-173.7c16.9-5.7,34.6-12.6,53.2-20.8s36.9-17.4,54.9-27.9c18-10.5,35-22.3,51.1-35.3,16.1-13,30.2-27.3,42.5-42.7,12.2-15.4,22-32.2,29.1-50.3,7.2-18.1,10.7-37.7,10.7-58.7s-2.1-22.7-6.4-32c-4.3-9.2-10.3-16.9-17.9-23.1-7.6-6.2-16.5-10.8-26.5-13.8-10-3-20.8-4.5-32.2-4.5s-19.3,1-29.1,3.1c-9.9,2.1-19.6,5-29.1,8.8-9.5,3.8-18.5,8.5-27,14.1-8.4,5.6-16,11.9-22.7,18.8L9.1,63.4c11.8-11.8,25.3-21.6,40.6-29.6,15.3-7.9,31.3-14.4,48.2-19.3,16.9-4.9,34-8.5,51.5-10.7,17.5-2.2,34.7-3.3,51.5-3.3,37.5,0,72.5,6.8,105,20.3,32.4,13.5,60.7,32.1,84.7,55.8,24,23.7,42.9,51.8,56.8,84.2,13.8,32.4,20.8,67.4,20.8,105Z"/>
</svg>