<?xml version="1.0" encoding="UTF-8"?>
<svg id="Layer_1" xmlns="http://www.w3.org/2000/svg" version="1.1" viewBox="0 0 484 720">
  <!-- Generator: Adobe Illustrator 29.7.0, SVG Export Plug-In . SVG Version: 2.1.1 Build 138)  -->
  <defs>
    <style>
      .st0 {
        fill: #fff200;
      }
    </style>
  </defs>
  <path class="st0" d="M483.7,477.2c0,41.3-6.6,77.1-19.8,107.4-13.2,30.3-31.6,55.5-55.2,75.5-23.6,20-51.8,35-84.6,44.7-32.8,9.8-68.7,14.7-107.9,14.7s-35.9-1.7-54.5-5.1c-18.6-3.4-37.1-8.1-55.5-14-18.3-5.9-36.1-12.9-53.4-21-17.2-8.1-33.3-16.8-48.2-26.1l17.7-187.4c11.8,8.1,25,15.8,39.6,23.1,14.6,7.3,29.7,13.8,45.4,19.6,15.7,5.8,31.5,10.3,47.5,13.7,16,3.4,31.5,5.1,46.4,5.1s17.6-.7,26.8-2.1c9.2-1.4,17.5-4,24.9-7.7,7.5-3.7,13.6-9,18.4-15.8,4.8-6.8,7.2-15.7,7.2-26.6s-3.1-13.2-9.3-19.1c-6.2-5.9-13.7-11-22.4-15.1-8.7-4.2-17.7-7.5-27-9.8-9.3-2.3-17.1-3.5-23.3-3.5s-9.6.2-15.6.7c-6.1.5-12.2,1.2-18.4,2.1-6.2.9-12.2,2.3-17.9,4-5.8,1.7-10.2,3.8-13.3,6.3l2.8-133.3c5.3.6,10.3,1.1,14.9,1.4,4.7.3,9.6.5,14.9.5,10.9,0,22.7-1,35.4-3,12.7-2,24.5-5.6,35.4-10.7,10.9-5.1,20-12.2,27.3-21.2,7.3-9,11-20.7,11-35s-2.8-18.6-8.4-24.9c-5.6-6.4-12.5-11.3-20.7-14.7-8.2-3.4-17.2-5.7-26.8-7-9.6-1.2-18.3-1.9-26.1-1.9-25.2,0-49.9,4.4-74.3,13-24.4,8.7-45.9,21.4-64.6,38.2L13,72.7c28.6-23.3,61.1-41.1,97.6-53.4C147.1,7,183.9.9,220.9.9s66.3,4.9,97.2,14.7c30.9,9.8,58.2,24.2,81.8,43.3,23.6,19.1,42.4,42.6,56.4,70.6,14,28,21,60.3,21,96.9s-1.6,21.3-4.7,32.2c-3.1,10.9-7.3,21.4-12.6,31.7-5.3,10.3-11.5,19.8-18.6,28.7-7.2,8.9-14.8,16.5-22.8,23.1,13,5.9,23.8,13.8,32.2,23.8,8.4,9.9,15.1,21,20,33.1,5,12.1,8.4,24.9,10.3,38.5,1.9,13.5,2.8,26.8,2.8,39.8Z"/>
</svg>