<?xml version="1.0" encoding="UTF-8"?>
<svg id="Layer_1" xmlns="http://www.w3.org/2000/svg" version="1.1" viewBox="0 0 499.8 708.7">
  <!-- Generator: Adobe Illustrator 29.7.0, SVG Export Plug-In . SVG Version: 2.1.1 Build 138)  -->
  <defs>
    <style>
      .st0 {
        fill: #fff200;
      }
    </style>
  </defs>
  <path class="st0" d="M499.3,463.7c0,41.4-7.4,77.3-22.2,107.8-14.8,30.5-34.9,55.8-60.4,75.9-25.5,20-55.4,35-89.7,44.9-34.4,9.9-71.1,14.8-110.2,14.8s-37.2-1.4-55.4-4.1c-18.1-2.7-36-6.4-53.7-11-17.7-4.6-35.2-9.9-52.5-16-17.3-6-34.8-12.6-52.3-19.6l18.1-189.9c11.5,6.4,23.7,12.2,36.7,17.7,13,5.4,26.5,10,40.3,13.8,13.8,3.8,27.8,6.8,42,9.1,14.2,2.2,27.9,3.3,41.3,3.3s17.7-.7,29.1-2.1c11.5-1.4,22.4-4.1,32.9-8.1,10.5-4,19.5-9.4,27-16.2,7.5-6.8,11.2-15.8,11.2-27s-2.9-19.6-8.8-27.2c-5.9-7.6-13.5-13.9-22.9-18.8-9.4-4.9-20-8.8-31.7-11.7-11.8-2.9-23.6-5.1-35.6-6.7-11.9-1.6-23.2-2.5-33.9-2.9-10.7-.3-19.5-.5-26.5-.5-14.3,0-28.9.6-43.7,1.9-14.8,1.3-29.2,3.8-43.2,7.6L54.6,13.2,441.1,2.7l10.5,199.5-239.6-13.4-4.8,84.9c14.3-3.5,28.6-6.1,42.9-7.9,14.3-1.7,28.6-2.6,42.9-2.6,28.9,0,55.9,4.7,80.9,14.1,25,9.4,46.8,22.8,65.4,40.3,18.6,17.5,33.2,38.6,43.9,63.2,10.7,24.7,16,52.3,16,82.8Z"/>
</svg>