<?xml version="1.0" encoding="UTF-8"?>
<svg id="Layer_1" xmlns="http://www.w3.org/2000/svg" version="1.1" viewBox="0 0 541.6 715.5">
  <!-- Generator: Adobe Illustrator 29.7.0, SVG Export Plug-In . SVG Version: 2.1.1 Build 138)  -->
  <defs>
    <style>
      .st0 {
        fill: #fff200;
      }
    </style>
  </defs>
  <path class="st0" d="M538.1,459c0,38.4-6.8,73.3-20.3,104.6-13.5,31.3-32.2,58.1-56,80.3-23.8,22.2-52,39.4-84.8,51.7-32.7,12.3-68.2,18.4-106.2,18.4s-59.3-4.2-84.3-12.7c-25-8.5-47.4-20.3-67.1-35.4-19.7-15.1-36.6-33.1-50.8-53.8-14.2-20.8-25.9-43.3-35.2-67.5-9.3-24.2-16.1-49.9-20.5-77-4.4-27.1-6.6-54.5-6.6-82.2s2.5-67.1,7.6-99.4c5-32.3,12.8-62.6,23.4-90.9,10.5-28.3,24.2-54.5,40.8-78.4,16.7-23.9,36.5-44.4,59.5-61.4,23-17,49.3-30.3,79.1-39.9C246.5,5.7,280,.9,317.1.9s27.4.6,41.6,1.7c14.2,1.1,28.3,3.1,42.5,5.9,14.2,2.8,27.9,6.6,41.3,11.3,13.4,4.7,26,10.7,38,17.9l-14.2,186c-22.4-11-46.5-19.4-72.5-25.3-26-5.8-51.2-8.7-75.8-8.7s-36.4,2.9-50.5,8.7c-14.2,5.8-26.1,14.1-35.9,24.8-9.8,10.7-17.4,23.5-22.9,38.5-5.5,15-9.1,31.6-10.6,49.8,20.8-12,43-21.4,66.6-28.3,23.6-6.9,47.7-10.4,72.2-10.4s53.8,4.2,78.4,12.7c24.6,8.5,45.9,20.8,64,36.8,18.1,16.1,32.4,35.6,43,58.6,10.5,23,15.8,49,15.8,77.9ZM358.7,473.1c0-9.8-2.1-18.5-6.4-26.2-4.2-7.7-9.8-14.3-16.5-19.8-6.8-5.5-14.6-9.8-23.4-12.7-8.8-3-17.6-4.5-26.4-4.5s-17.5,1.5-26,4.5c-8.5,3-16.1,7.2-22.9,12.7-6.8,5.5-12.3,12.1-16.5,19.8-4.2,7.7-6.4,16.5-6.4,26.2s2.1,18,6.4,25.7c4.2,7.7,9.8,14.2,16.5,19.6,6.8,5.4,14.4,9.5,22.9,12.5,8.5,3,17.2,4.5,26,4.5s17.6-1.5,26.4-4.5c8.8-3,16.6-7.2,23.4-12.5,6.8-5.3,12.3-11.9,16.5-19.6,4.2-7.7,6.4-16.3,6.4-25.7Z"/>
</svg>