<?xml version="1.0" encoding="UTF-8"?>
<svg id="Layer_1" xmlns="http://www.w3.org/2000/svg" version="1.1" viewBox="0 0 508.8 687.2">
  <!-- Generator: Adobe Illustrator 29.7.0, SVG Export Plug-In . SVG Version: 2.1.1 Build 138)  -->
  <defs>
    <style>
      .st0 {
        fill: #fff200;
      }
    </style>
  </defs>
  <path class="st0" d="M508.1,302.2c0,29.9-2.4,60-7.1,90.4-4.7,30.4-12,59.8-22,88.3-9.9,28.5-22.6,55.2-38,80-15.4,24.9-33.8,46.5-55.2,64.9-21.4,18.4-46,33-73.9,43.7-27.9,10.7-59.1,16.1-93.7,16.1s-30.9-.7-47.5-2.1c-16.5-1.4-32.9-3.8-49.1-7.1-16.2-3.3-32-7.9-47.5-13.7-15.4-5.8-29.4-13.3-42-22.4l24.6-178.5c9.8,5.7,20.8,10.9,33.1,15.8,12.3,4.9,24.9,9.2,37.8,13,12.9,3.8,25.8,6.7,38.7,8.7,12.9,2.1,25.2,3.1,36.8,3.1,18.3,0,34.1-2.6,47.5-7.8,13.4-5.2,24.7-12.7,34-22.4,9.3-9.8,16.8-21.5,22.4-35.2s9.8-29,12.3-46c-18.9,10.1-38.7,17.8-59.5,23.1-20.8,5.4-41.9,8-63.3,8s-51.6-4.1-75.6-12.3c-23.9-8.2-44.9-19.9-62.8-35.2-17.9-15.3-32.3-33.9-43-56C4.4,296.7-1,271.7-1,243.7s6.5-68.8,19.6-98.7c13.1-29.9,30.9-55.6,53.6-77,22.7-21.4,49.5-38.1,80.5-50.1C183.8,6,217.2,0,253.1,0s81.6,8.1,113.6,24.3c31.9,16.2,58.4,38.1,79.3,65.6,20.9,27.5,36.5,59.6,46.7,96.1,10.2,36.5,15.3,75.2,15.3,116.2ZM312.6,233.3c0-9.4-2.1-17.9-6.4-25.5-4.2-7.6-9.7-14-16.3-19.4-6.6-5.3-14.2-9.4-22.7-12.3-8.5-2.8-17-4.2-25.5-4.2s-16.8,1.3-25,4c-8.2,2.7-15.6,6.6-22.2,11.8-6.6,5.2-11.9,11.5-15.8,18.9-3.9,7.4-5.9,15.7-5.9,24.8s2.1,17.5,6.4,25c4.2,7.6,9.7,14,16.3,19.4,6.6,5.4,14.2,9.5,22.7,12.5,8.5,3,17,4.5,25.5,4.5s16.8-1.4,25-4.2c8.2-2.8,15.6-6.8,22.2-12,6.6-5.2,11.9-11.4,15.8-18.7,3.9-7.2,5.9-15.4,5.9-24.6Z"/>
</svg>