<?xml version="1.0" encoding="UTF-8"?>
<svg id="Layer_1" xmlns="http://www.w3.org/2000/svg" version="1.1" viewBox="0 0 670.3 720">
  <!-- Generator: Adobe Illustrator 29.7.0, SVG Export Plug-In . SVG Version: 2.1.1 Build 138)  -->
  <defs>
    <style>
      .st0 {
        fill: #fff;
      }

      .st1 {
        fill: #ffd702;
      }
    </style>
  </defs>
  <path class="st0" d="M551.2,75.8c7.4-4.2,13.6-10.1,20.6-14.8,20.9-14.2,44.9-26.2,68.6-35,6.2-2.3,15.7-4.2,21.2-6.8,6.6-3.2,4.2-9.9-2.3-12.1-28.3-9.6-77.4-2.8-106.6,3.7-123.3,27.5-263,114.2-342.7,211.9-45.4,55.7-77.1,120.2-102.8,187-29.2-11.3-55-29.9-79.4-49.2-1.8-.6-3.8-.5-5.7-.2s-17,5.8-19.5,7-3.8,5.2-3.8,8c.4,19.3,6.4,46.6,10.4,66,16.9,81.8,44.1,175,73,253.4,1.8,4.8,7.6,22.7,11,24.9s6.7,1.5,10,.7c104.4-37.2,209.3-76.9,307-129.1,3.6-1.9,22.4-11.8,23.7-13.7s1.4-4.7,1-7.2-3.5-15.4-4.9-18.5-1-2-2-2.7c-36.6-10.7-72.6-24.9-105.7-43.9-1.9-1.1-9.5-5-10.4-6s-1-1.7-.6-2.9c35.1-146.9,124.2-263.4,230.8-365.9,30.3-29.1,63.1-55.4,93.5-84.1.5-.5,4.2-1.7.8-2.3-27.9,12.1-56.1,23.8-85,33.4l-.4-1.5Z"/>
  <path d="M551.2,75.8l.4,1.5c28.9-9.6,57.1-21.3,85-33.4,3.4.6-.3,1.7-.8,2.3-30.4,28.8-63.3,55-93.5,84.1-106.6,102.5-195.7,219-230.8,365.9-.4,1.2-.3,2,.6,2.9s8.5,4.9,10.4,6c33.1,19,69,33.2,105.7,43.9,1,.7,1.5,1.6,2,2.7,1.4,3.1,4.3,15,4.9,18.5s.6,5.1-1,7.2-20.1,11.7-23.7,13.7c-97.8,52.2-202.7,92-307,129.1-3.2.8-7.1,1.2-10-.7s-9.2-20-11-24.9c-28.9-78.4-56.1-171.6-73-253.4-4-19.3-10-46.7-10.4-66s1-6.7,3.8-8,17-6.5,19.5-7,3.9-.4,5.7.2c24.5,19.2,50.2,37.9,79.4,49.2,25.7-66.8,57.4-131.3,102.8-187C289.7,124.9,429.5,38.3,552.8,10.8c29.1-6.5,78.3-13.3,106.6-3.7,6.5,2.2,8.9,8.9,2.3,12.1-5.5,2.7-15,4.5-21.2,6.8-23.6,8.9-47.7,20.9-68.6,35-7,4.7-13.2,10.6-20.6,14.8ZM30.2,406.1c9.1,47.5,21.6,94.4,34.7,141,11.5,40.9,23.5,83.5,37.8,123.5.9,2.5,6.5,18.8,7.5,19,95.1-33.2,188.4-71.6,278.4-116.8l-50.8-18.1-66.8-27.9c22.7-82.3,53.8-162.8,99.4-235.1,38.7-61.4,89.1-117.8,142.9-166.4,12.8-11.6,26.2-22.7,39.7-33.5l-17.1,6.2c-29,12-57,25.9-84.5,40.9l-1.1-1.1c34-32.2,70.6-61.8,108.8-89.1l31.4-19.6c-86.5,13.7-169.1,53-240.5,102.6-38.4,26.7-73.4,56.1-103,92.5-56.8,69.9-94.6,155-119.7,241.1-.9.5-1.4.4-2.4.1-3.2-1-10.1-5-13.5-6.8-28.6-14.9-55.5-33-81-52.6Z"/>
  <path class="st1" d="M30.2,406.1c25.5,19.6,52.4,37.7,81,52.6,3.4,1.8,10.3,5.8,13.5,6.8s1.5.4,2.4-.1c25.1-86.2,62.9-171.2,119.7-241.1,29.6-36.4,64.6-65.8,103-92.5,71.4-49.6,154-88.9,240.5-102.6l-31.4,19.6c-38.2,27.3-74.8,56.8-108.8,89.1l1.1,1.1c27.5-15,55.6-28.9,84.5-40.9l17.1-6.2c-13.6,10.8-26.9,21.9-39.7,33.5-53.8,48.6-104.1,104.9-142.9,166.4-45.6,72.3-76.6,152.8-99.4,235.1l66.8,27.9,50.8,18.1c-90,45.2-183.3,83.6-278.4,116.8-1-.2-6.6-16.5-7.5-19-14.3-40-26.3-82.6-37.8-123.5-13-46.6-25.6-93.5-34.7-141ZM238.3,625.1l.2,2.2c18.2-6.5,36.1-13.9,53.6-21.9,11.6-5.3,31.3-13.5,41.3-20.3s6.1-5.9,1.9-7.9-6,.7-8.7,1.9c-12.9,5.5-25.9,12.8-38.4,19.2-16.8,8.6-33.2,18-49.9,26.8ZM321.5,353.1c-19.7,35.1-40.3,72.2-52.4,110.8-1.3,4.1-4.1,12-4.4,15.9,0,1.1-.2,3,1.2,3.4,2.6.8,4.3-3.9,5.2-5.7,11.6-23.5,20.1-53.3,30.9-78.2,6.7-15.4,14.4-30.4,21.2-45.8l-1.6-.4ZM41.8,426.3c-.1,1.3,0,2.5.6,3.7,3.4,7.6,34.4,30.4,42.6,34.5,1.8.9,4.3,2.6,5.8.4-13.9-11.2-27.4-24-41.7-34.6-1.1-.8-6.2-5.1-7.4-3.9ZM210.2,311.7c2.2.4,4.8.3,6.5-1.5,24.7-39.2,49.6-77.4,79.5-112.9,11.2-13.3,23.3-25.8,34.7-38.9-3.1.4-6.4,3.5-8.9,5.5-37.3,29.3-92.6,92.1-109.8,136.3-.8,2-4.1,10.1-1.8,11.6Z"/>
  <path d="M210.2,311.7c-2.3-1.4,1.1-9.6,1.8-11.6,17.2-44.2,72.5-107,109.8-136.3,2.5-2,5.8-5.1,8.9-5.5-11.4,13.1-23.5,25.6-34.7,38.9-29.9,35.5-54.8,73.7-79.5,112.9-1.6,1.8-4.2,1.9-6.5,1.5Z"/>
  <path d="M321.5,353.1l1.6.4c-6.8,15.4-14.5,30.4-21.2,45.8-10.8,24.8-19.3,54.7-30.9,78.2-.9,1.8-2.5,6.5-5.2,5.7s-1.2-2.3-1.2-3.4c.3-3.8,3.1-11.8,4.4-15.9,12.1-38.6,32.7-75.7,52.4-110.8Z"/>
  <path d="M238.3,625.1c16.7-8.7,33.2-18.1,49.9-26.8,12.5-6.4,25.5-13.7,38.4-19.2s5.9-3.2,8.7-1.9c4.2,2,.8,6-1.9,7.9-9.9,6.8-29.7,15-41.3,20.3-17.6,8-35.4,15.4-53.6,21.9l-.2-2.2Z"/>
  <path d="M41.8,426.3c1.2-1.2,6.3,3.1,7.4,3.9,14.3,10.7,27.8,23.4,41.7,34.6-1.5,2.2-4,.5-5.8-.4-8.2-4.1-39.3-26.9-42.6-34.5-.5-1.2-.7-2.4-.6-3.7Z"/>
</svg>