<?xml version="1.0" encoding="UTF-8"?>
<svg id="Layer_1" xmlns="http://www.w3.org/2000/svg" version="1.1" viewBox="0 0 167.2 265.2">
  <!-- Generator: Adobe Illustrator 29.7.0, SVG Export Plug-In . SVG Version: 2.1.1 Build 138)  -->
  <defs>
    <style>
      .st0 {
        fill: #1e1d49;
      }
    </style>
  </defs>
  <g>
    <path class="st0" d="M41.8,260.4c-.6,3.5-6.5,3.9-6.9-.9s-.3-11.9,0-16.1c1-12.8,18.7-13.9,21.6-1.6v18.9c-1,2.7-4.5,3.2-6.2.8s-.7-1.5-.7-1.8v-4h-7.8c-.2,1.4.2,3.3,0,4.7ZM49.7,248.8v-6.1c0,0-.6-1-.7-1.1-1.2-1.5-3.5-2-5.1-1s-2,1.9-2,2.8v5.4h7.8Z"/>
    <path class="st0" d="M118.1,233.3c12.6-1.5,13.2,11.4,12.5,20.5-1,12.4-18,13.8-21.3,2.6-.7-2.3-.6-11.4-.4-14.1.4-4.4,4.8-8.5,9.1-9ZM118.8,240.2c-1.2.2-2.6,1.5-2.9,2.6s-.3,9.4,0,11.2c.5,3.8,6.2,4.2,7.5.6s.5-8.9.3-10.7c-.3-2.6-2.3-4.2-4.9-3.7Z"/>
    <path class="st0" d="M66.8,235.1c.6.6.9,1.7,1,2.6.5,5-.7,11.7,0,16.5s7,3.9,7.7-.2-.4-11.5,0-16.5,5.5-4.5,6.8-.8c-.7,8.6,3.6,23.2-7.2,26.8s-13.7-2.2-14.3-9,.3-12.1,0-17.9c.7-2.5,4-3.4,5.8-1.5Z"/>
    <path class="st0" d="M99.1,241v19.4c-1.1,3.9-6.2,3.5-6.9-.5v-18.9h-4.5c-.5,0-1.9-1-2.2-1.5-1.7-2.4-.1-5.1,2.6-5.4s11.5-.4,15.2,0,4.4,4.6,1.6,6.3c-.2.1-1.3.6-1.4.6h-4.5Z"/>
  </g>
  <g>
    <polygon class="st0" points="74.7 1.1 74.7 1.1 74.7 1.1 74.7 1.1"/>
    <polygon class="st0" points="156.5 77.3 156.5 77.3 156.5 77.4 156.5 77.3"/>
    <polygon class="st0" points="17.1 79.8 17.1 79.8 17.1 79.8 17.1 79.8"/>
    <path class="st0" d="M153.7,164.7c-.6-.3-7.2-3-6.9-3.4,7-2.6,13.2-5.7,15.6-13.3,3-9.7-1.5-17.7-10.1-22.1-5.1-2.6-10.3-5-15.5-7.4l15.5-21.2c3.2-4.3,4.7-9.6,4.7-15.1,0-1.6-.1-3.2-.4-4.9-1.1-7.1-4.7-14.2-10.4-19.5L93.8,9c-5.6-5.2-12.3-7.9-18.7-7.9-.1,0-.2,0-.3,0-6.5,0-12.7,3-16.8,8.6L21.3,59.8c-3.2,4.3-4.7,9.6-4.7,15.1,0,1.6.1,3.2.4,4.9,1.1,7.1,4.7,14.2,10.4,19.5l14.4,13.5c-10.1,4.8-20.2,9.7-30.4,14.1-9.7,5.2-12.2,18.4-5.2,26.9,3.2,4,8.1,5.7,12.6,7.7-7.6,3.1-15.4,7.3-16.4,16.5-1.3,11.8,6.1,18.1,16.4,21.6l12.8,5.9,37.6,17.2c8.2,3.7,16.8,3.8,25.3.8l39.6-18,12.8-6.1c5.1-2.1,10-3.9,13.2-8.6,6.2-9.1,3.1-20.8-6.3-26ZM143.3,89.4l-36.6,50.2c-2.3,3.1-5.6,4.7-9.3,4.7h-.2c-3.6,0-7.5-1.5-10.9-4.6l-52.3-48.9c-3.4-3.2-5.5-7.4-6.2-11.6-.2-1-.2-1.9-.2-2.9,0-3.2.9-6.2,2.6-8.6l36.6-50.2c2.3-3.1,5.6-4.7,9.3-4.7h.2c3.6,0,7.5,1.5,10.9,4.6l52.3,48.9c3.4,3.2,5.5,7.4,6.2,11.6.2,1,.2,1.9.2,2.9,0,3.2-.9,6.2-2.6,8.6ZM16.5,148.8c-3.1-2-4.5-5.6-3.1-9.2,1.1-3,4.7-4.3,7.4-5.6,9.7-4.7,19.6-9.1,29.5-13.4l29.6,27.6c5.6,5.2,12.3,7.9,18.7,7.9.1,0,.2,0,.3,0h0c6.5,0,12.7-3,16.8-8.6l14.6-20c6.3,3,12.5,5.9,18.9,8.6,5.4,3.6,4.5,10.7-1.2,13.3-18.7,7.5-36.9,17.9-55.5,25.3-7.5,3-12.7,2.7-20.2-.2-18.7-7.5-37.1-17.9-55.8-25.6ZM147.3,187.8c-18.9,7.3-37.6,18.8-56.4,25.7-7.3,2.7-11.9,1.7-18.8-1.2-16.9-7-35.6-15.7-52.1-23.8-2.6-1.3-5.1-2-6.4-4.8-4.7-10.4,11.7-12.7,17.7-16.5.7-.1,1.4.3,2.1.6,19.2,7.3,39.9,24.5,60.9,17.4l39.7-18c4.5,2,9.2,3.7,13.6,6,1.4.7,2.7,1.3,3.7,2.6,3.2,4.5,1,10.2-4,12Z"/>
  </g>
</svg>