<?xml version="1.0" encoding="UTF-8"?>
<svg id="Layer_1" xmlns="http://www.w3.org/2000/svg" version="1.1" viewBox="0 0 720 451">
  <!-- Generator: Adobe Illustrator 29.7.0, SVG Export Plug-In . SVG Version: 2.1.1 Build 138)  -->
  <defs>
    <style>
      .st0 {
        fill: #fff;
      }
    </style>
  </defs>
  <path class="st0" d="M654.5,1.6c6.7,2,13,2.1,19.9,4.5,22.4,7.8,38.5,30,42.9,52.7v332.2c-7.8,34.3-31.1,54.7-66.4,57.2H69.6c-35-.5-64.2-25.9-67.7-60.7V62.3C5.2,29.4,31.9,4.5,64.8,1.6h589.8ZM65.8,43.8c-12,1.7-19.7,9.5-22.1,21.2v319.7c2.6,13.8,13.3,21.7,27.2,21.7h578.7c14.9-.9,24.5-9.4,25.9-24.4V67.8c-1.4-15.6-11.7-24.2-27.2-24.4l-582.5.4Z"/>
  <path class="st0" d="M110.9,296.8c-3.5,21.1-39.4,23.6-42-5.5-2.2-25.2-2-72.4,0-97.7,6.4-77.8,113.9-84.2,131-9.5l-.3,114.9c-6,16.2-27.2,19.3-37.1,4.8-1.5-2.2-4.2-9-4.2-11.2v-24.4h-47.5c-1,8.7,1.4,20.3,0,28.6ZM158.4,226.3v-37c0-.4-3.4-5.9-4.2-7-7.1-9.4-21-12.3-31.2-6.1s-12.1,11.7-12.1,17.2v32.8h47.5Z"/>
  <path class="st0" d="M574.6,131.8c76.8-9.3,80.3,69.5,75.8,124.5-6.1,75.2-109.6,83.9-129.2,16-4.1-14.1-3.8-69.5-2.1-85.8,2.7-26.9,29.2-51.6,55.6-54.8ZM578.7,173.6c-7.2,1.2-16,8.9-17.5,16-2,9.9-1.7,57.1-.4,68.1,2.8,22.9,37.8,25.6,45.8,3.8,3.1-8.6,2.8-54.3,1.7-65.2-1.6-15.7-13.9-25.4-29.7-22.7Z"/>
  <path class="st0" d="M262.7,143.1c3.6,3.8,5.5,10.4,6.1,15.6,3.1,30.5-4.5,71.1.4,100.2,4,23.9,42.5,24,46.8-1.4,4.9-28.7-2.4-69.8.3-100.2,2.2-25.1,33.5-27.4,41.4-4.9-4.4,52.1,22,141.1-43.8,163-39.1,13-83.4-13.3-87-54.7-3-34.5,2.1-73.6.4-108.6,4.4-15.3,24.6-20.6,35.5-8.9Z"/>
  <path class="st0" d="M458.9,178.9v117.9c-6.8,23.4-37.9,21.1-41.8-2.8v-115h-27.4c-3.2,0-11.2-6.2-13.3-9.1-10.1-14.3-.8-31.3,16-32.9,22.3-2.1,70.1-2.2,92.4,0,19.5,1.9,26.6,27.7,10,38.1-1.1.7-8.2,3.9-8.7,3.9h-27.3Z"/>
</svg>