<?xml version="1.0" encoding="UTF-8"?>
<svg id="Layer_1" xmlns="http://www.w3.org/2000/svg" version="1.1" viewBox="0 0 400.2 195">
  <!-- Generator: Adobe Illustrator 29.7.0, SVG Export Plug-In . SVG Version: 2.1.1 Build 138)  -->
  <defs>
    <style>
      .st0 {
        fill: #ebebec;
      }
    </style>
  </defs>
  <path d="M345.5.8c-29.2,0-53.2,22.4-55.7,51.3H112.4C110,23.4,85.9.8,56.6.8S.7,25.9.7,56.8s6.4,30.2,17.7,40.8C7.1,108.1.7,122.6.7,138.3c0,30.8,25.1,55.9,55.9,55.9s53.2-22.4,55.7-50.9h177.5c2.5,28.5,26.6,50.9,55.7,50.9s55.9-25.1,55.9-55.9-6.4-30.2-17.7-40.8c11.3-10.6,17.7-25.1,17.7-40.8,0-30.8-25.1-55.9-55.9-55.9h0ZM372.9,101.6c11.8,8.8,18.5,22.2,18.5,36.8,0,25.3-20.6,45.9-45.9,45.9s-45.9-20.6-45.9-45.9-2.2-5-5-5H107.6c-2.8,0-5,2.2-5,5,0,25.3-20.6,45.9-45.9,45.9s-45.9-20.6-45.9-45.9,6.7-28,18.5-36.8c1.3-.9,2-2.4,2-4s-.7-3.1-2-4c-11.8-8.8-18.5-22.2-18.5-36.8,0-25.3,20.6-45.9,45.9-45.9s45.9,20.6,45.9,45.9v.4c0,2.8,2.2,5,5,5h187.1c2.8,0,5-2.6,5-5.4,0-25.3,20.6-45.9,45.9-45.9s45.9,20.6,45.9,45.9-6.7,28-18.5,36.8c-1.3,1-2,2.4-2,4s.7,3.1,2,4c0,0-.1,0-.1,0Z"/>
  <path class="st0" d="M372.9,101.6c11.8,8.8,18.5,22.2,18.5,36.8,0,25.3-20.6,45.9-45.9,45.9s-45.9-20.6-45.9-45.9-2.2-5-5-5H107.6c-2.8,0-5,2.2-5,5,0,25.3-20.6,45.9-45.9,45.9s-45.9-20.6-45.9-45.9,6.7-28,18.5-36.8c1.3-.9,2-2.4,2-4s-.7-3.1-2-4c-11.8-8.8-18.5-22.2-18.5-36.8,0-25.3,20.6-45.9,45.9-45.9s45.9,20.6,45.9,45.9v.4c0,2.8,2.2,5,5,5h187.1c2.8,0,5-2.6,5-5.4,0-25.3,20.6-45.9,45.9-45.9s45.9,20.6,45.9,45.9-6.7,28-18.5,36.8c-1.3,1-2,2.4-2,4s.7,3.1,2,4c0,0-.1,0-.1,0Z"/>
  <g>
    <path d="M119.8,96.5c0,1.6-.2,3.1-.6,4.6s-.9,2.9-1.6,4.2c-.7,1.3-1.5,2.5-2.5,3.6-1,1.1-2.1,2-3.3,2.8s-2.6,1.4-4,1.8c-1.5.4-3,.6-4.6.6s-3.1-.2-4.5-.6c-1.4-.4-2.8-1-4-1.7-1.2-.7-2.4-1.6-3.4-2.6s-1.9-2.2-2.6-3.4c-.7-1.3-1.3-2.6-1.7-4s-.6-2.9-.6-4.5.2-3,.6-4.5c.4-1.5.9-2.8,1.6-4.1.7-1.3,1.5-2.5,2.5-3.6,1-1.1,2.1-2,3.3-2.8,1.2-.8,2.5-1.4,4-1.8,1.4-.4,2.9-.7,4.5-.7,2.5,0,4.9.4,6.9,1.2,2.1.8,3.9,1.9,5.4,3.4,1.5,1.5,2.6,3.2,3.4,5.3.8,2.1,1.2,4.4,1.2,6.9ZM108.1,97.2c0-.8-.1-1.5-.3-2.2-.2-.7-.5-1.3-1-1.9s-.9-1-1.6-1.3c-.6-.3-1.3-.5-2.1-.5s-1.6.1-2.2.4c-.6.3-1.2.7-1.7,1.2-.5.5-.8,1.1-1.1,1.8-.2.7-.4,1.4-.4,2.2s.1,1.5.3,2.2.5,1.4.9,2c.4.6.9,1.1,1.6,1.4.6.4,1.3.6,2.2.6s1.6-.2,2.2-.5c.7-.3,1.2-.8,1.7-1.3.5-.6.8-1.2,1.1-1.9.2-.7.4-1.5.4-2.2Z"/>
    <path d="M154.1,96.5c0,1.6-.2,3.1-.6,4.6s-.9,2.9-1.6,4.2c-.7,1.3-1.5,2.5-2.5,3.6-1,1.1-2.1,2-3.3,2.8s-2.6,1.4-4,1.8c-1.5.4-3,.6-4.6.6s-3.1-.2-4.5-.6c-1.4-.4-2.8-1-4-1.7-1.2-.7-2.4-1.6-3.4-2.6s-1.9-2.2-2.6-3.4c-.7-1.3-1.3-2.6-1.7-4s-.6-2.9-.6-4.5.2-3,.6-4.5c.4-1.5.9-2.8,1.6-4.1.7-1.3,1.5-2.5,2.5-3.6,1-1.1,2.1-2,3.3-2.8,1.2-.8,2.5-1.4,4-1.8,1.4-.4,2.9-.7,4.5-.7,2.5,0,4.9.4,6.9,1.2,2.1.8,3.9,1.9,5.4,3.4,1.5,1.5,2.6,3.2,3.4,5.3.8,2.1,1.2,4.4,1.2,6.9ZM142.4,97.2c0-.8-.1-1.5-.3-2.2-.2-.7-.5-1.3-1-1.9s-.9-1-1.6-1.3c-.6-.3-1.3-.5-2.1-.5s-1.6.1-2.2.4c-.6.3-1.2.7-1.7,1.2-.5.5-.8,1.1-1.1,1.8-.2.7-.4,1.4-.4,2.2s.1,1.5.3,2.2.5,1.4.9,2c.4.6.9,1.1,1.6,1.4.6.4,1.3.6,2.2.6s1.6-.2,2.2-.5c.7-.3,1.2-.8,1.7-1.3.5-.6.8-1.2,1.1-1.9.2-.7.4-1.5.4-2.2Z"/>
    <path d="M188.4,96.5c0,1.6-.2,3.1-.6,4.6s-.9,2.9-1.6,4.2c-.7,1.3-1.5,2.5-2.5,3.6-1,1.1-2.1,2-3.3,2.8s-2.6,1.4-4,1.8c-1.5.4-3,.6-4.6.6s-3.1-.2-4.5-.6c-1.4-.4-2.8-1-4-1.7-1.2-.7-2.4-1.6-3.4-2.6s-1.9-2.2-2.6-3.4c-.7-1.3-1.3-2.6-1.7-4s-.6-2.9-.6-4.5.2-3,.6-4.5c.4-1.5.9-2.8,1.6-4.1.7-1.3,1.5-2.5,2.5-3.6,1-1.1,2.1-2,3.3-2.8,1.2-.8,2.5-1.4,4-1.8,1.4-.4,2.9-.7,4.5-.7,2.5,0,4.9.4,6.9,1.2,2.1.8,3.9,1.9,5.4,3.4,1.5,1.5,2.6,3.2,3.4,5.3.8,2.1,1.2,4.4,1.2,6.9ZM176.7,97.2c0-.8-.1-1.5-.3-2.2-.2-.7-.5-1.3-1-1.9s-.9-1-1.6-1.3c-.6-.3-1.3-.5-2.1-.5s-1.6.1-2.2.4c-.6.3-1.2.7-1.7,1.2-.5.5-.8,1.1-1.1,1.8-.2.7-.4,1.4-.4,2.2s.1,1.5.3,2.2.5,1.4.9,2c.4.6.9,1.1,1.6,1.4.6.4,1.3.6,2.2.6s1.6-.2,2.2-.5c.7-.3,1.2-.8,1.7-1.3.5-.6.8-1.2,1.1-1.9.2-.7.4-1.5.4-2.2Z"/>
    <path d="M221.2,115.5l-13.1.6v-11.1h-6.1l-.4,11.5h-11.8l1-36.9,12.5.6-.8,18.9h5.8v-19.8c0,0,12,.3,12,.3l.8,35.9Z"/>
    <path d="M266.5,81l-12.3,20.2.4,14.9h-13.5l.3-14.8-9.6-19.5,13.4-1.7,4.2,11.3,4.6-11.3,12.6.9Z"/>
    <path d="M293.5,95.4c0,1.5-.1,3-.3,4.6-3,.2-6,.5-8.9.9-3,.4-5.9.9-8.9,1.3.5,1.3,1.2,2.3,2.1,3,1,.8,2.1,1.1,3.5,1.1s1.5-.1,2.3-.4c.8-.3,1.7-.6,2.5-1,.8-.4,1.6-.8,2.4-1.3s1.4-.9,1.9-1.2l-1.3,11.9c-.7.5-1.4,1-2.2,1.3-.8.4-1.6.7-2.5.9-.9.2-1.7.4-2.6.5s-1.7.2-2.6.2c-1.7,0-3.3-.2-4.8-.7-1.4-.5-2.7-1.1-3.9-2-1.2-.8-2.2-1.9-3.1-3-.9-1.2-1.6-2.4-2.2-3.8-.6-1.4-1-2.8-1.3-4.3s-.4-3.1-.4-4.6.1-3.3.4-4.9.7-3.2,1.4-4.7c.6-1.5,1.4-2.9,2.3-4.2.9-1.3,2-2.4,3.2-3.4,1.2-1,2.6-1.7,4.2-2.3,1.5-.5,3.3-.8,5.1-.8s3,.2,4.3.6,2.4,1,3.4,1.8c1,.8,1.9,1.7,2.6,2.7s1.4,2.2,1.8,3.5.8,2.6,1.1,4,.4,2.8.4,4.2ZM283,94c0-.5,0-1-.2-1.5-.1-.5-.3-1-.5-1.4-.2-.4-.5-.8-.9-1-.4-.3-.9-.4-1.4-.4s-1.3.2-1.9.6-1,.8-1.4,1.4c-.4.6-.7,1.2-.9,1.9s-.4,1.3-.6,1.8l7.8-.7v-.6Z"/>
    <path d="M326.9,114.3l-13,1.7-1.6-5.9h-6l-1.3,5.9-13.4-1.3,10.5-35,14.6-.7,10.2,35.4ZM311.3,102l-2-9.1-1.9,9.1h3.9Z"/>
  </g>
</svg>