<?xml version="1.0" encoding="UTF-8"?>
<svg id="Layer_1" xmlns="http://www.w3.org/2000/svg" version="1.1" viewBox="0 0 400.2 195">
  <!-- Generator: Adobe Illustrator 29.7.0, SVG Export Plug-In . SVG Version: 2.1.1 Build 138)  -->
  <defs>
    <style>
      .st0 {
        fill: #ebebec;
      }
    </style>
  </defs>
  <path d="M345.5.8c-29.2,0-53.2,22.4-55.7,51.3H112.4C110,23.4,85.9.8,56.6.8S.7,25.9.7,56.8s6.4,30.2,17.7,40.8C7.1,108.1.7,122.6.7,138.3c0,30.8,25.1,55.9,55.9,55.9s53.2-22.4,55.7-50.9h177.5c2.5,28.5,26.6,50.9,55.7,50.9s55.9-25.1,55.9-55.9-6.4-30.2-17.7-40.8c11.3-10.6,17.7-25.1,17.7-40.8,0-30.8-25.1-55.9-55.9-55.9h0ZM372.9,101.6c11.8,8.8,18.5,22.2,18.5,36.8,0,25.3-20.6,45.9-45.9,45.9s-45.9-20.6-45.9-45.9-2.2-5-5-5H107.6c-2.8,0-5,2.2-5,5,0,25.3-20.6,45.9-45.9,45.9s-45.9-20.6-45.9-45.9,6.7-28,18.5-36.8c1.3-.9,2-2.4,2-4s-.7-3.1-2-4c-11.8-8.8-18.5-22.2-18.5-36.8,0-25.3,20.6-45.9,45.9-45.9s45.9,20.6,45.9,45.9v.4c0,2.8,2.2,5,5,5h187.1c2.8,0,5-2.6,5-5.4,0-25.3,20.6-45.9,45.9-45.9s45.9,20.6,45.9,45.9-6.7,28-18.5,36.8c-1.3,1-2,2.4-2,4s.7,3.1,2,4c0,0-.1,0-.1,0Z"/>
  <path class="st0" d="M372.9,101.6c11.8,8.8,18.5,22.2,18.5,36.8,0,25.3-20.6,45.9-45.9,45.9s-45.9-20.6-45.9-45.9-2.2-5-5-5H107.6c-2.8,0-5,2.2-5,5,0,25.3-20.6,45.9-45.9,45.9s-45.9-20.6-45.9-45.9,6.7-28,18.5-36.8c1.3-.9,2-2.4,2-4s-.7-3.1-2-4c-11.8-8.8-18.5-22.2-18.5-36.8,0-25.3,20.6-45.9,45.9-45.9s45.9,20.6,45.9,45.9v.4c0,2.8,2.2,5,5,5h187.1c2.8,0,5-2.6,5-5.4,0-25.3,20.6-45.9,45.9-45.9s45.9,20.6,45.9,45.9-6.7,28-18.5,36.8c-1.3,1-2,2.4-2,4s.7,3.1,2,4c0,0-.1,0-.1,0Z"/>
  <g>
    <path d="M125.1,95.7c0,2.5-.3,4.7-.9,6.6-.6,2-1.5,3.7-2.6,5.3-1.1,1.5-2.5,2.8-4,4-1.6,1.1-3.3,2-5.1,2.7-1.9.7-3.8,1.2-5.9,1.6-2.1.3-4.2.5-6.4.5s-1.6,0-2.4,0c-.8,0-1.6-.1-2.4-.2l.7-35.2c1.9-.6,3.9-1,5.9-1.3,2-.3,4.1-.4,6.1-.4s4.8.4,6.9,1.1c2.1.8,3.9,1.8,5.4,3.3s2.7,3.2,3.6,5.2c.8,2,1.3,4.4,1.3,7ZM114.3,97.4c0-.9,0-1.9-.3-2.7-.2-.9-.6-1.7-1.1-2.3-.5-.7-1.1-1.2-1.9-1.6-.8-.4-1.7-.6-2.8-.7l-1.1,16.3c1.1-.2,2-.5,2.9-1,.9-.5,1.6-1.2,2.2-2s1.1-1.6,1.4-2.6c.3-1,.5-1.9.6-3v-.4Z"/>
    <path d="M157.5,91.3c0,1.4-.1,2.6-.4,3.7-.2,1.1-.6,2.1-1.1,3.1-.5.9-1.2,1.8-2,2.6-.8.8-1.8,1.5-2.9,2.3l6.3,11.1-11.8,2.3-4-11.2h-3.3c0,.1-.5,11-.5,11h-11.3c0-4,.2-8,.2-11.9s.2-7.9.3-11.9c0-2,0-4,.1-6,0-2,.1-4,.2-6,1.2-.5,2.4-.8,3.6-1.1,1.2-.3,2.4-.5,3.6-.7,1.2-.2,2.4-.3,3.7-.3,1.2,0,2.5,0,3.8,0,2,0,3.9.3,5.8.8,1.9.6,3.5,1.4,5,2.5,1.4,1.1,2.6,2.5,3.5,4.1.9,1.6,1.3,3.6,1.3,5.8ZM145.7,92.1c0-.7-.1-1.4-.3-2-.2-.6-.5-1.1-.9-1.6-.4-.4-.9-.8-1.5-1.1-.6-.3-1.3-.4-2.1-.4s-.7,0-1,0c-.3,0-.7.1-1,.2l-.4,9.8h.6c.8,0,1.5,0,2.3-.3.8-.2,1.5-.5,2.1-.9.6-.4,1.1-.9,1.5-1.5s.6-1.4.6-2.3Z"/>
    <path d="M192.4,114.3l-13,1.7-1.6-5.9h-6l-1.3,5.9-13.4-1.3,10.5-35,14.6-.7,10.2,35.4ZM176.8,102l-2-9.1-1.9,9.1h3.9Z"/>
    <path d="M224,110.7c-.8,1-1.8,1.9-3,2.7-1.2.8-2.5,1.4-3.9,1.9-1.4.5-2.8.9-4.3,1.1-1.5.3-2.8.4-4.1.4-2.5,0-4.9-.4-7-1.3-2.1-.9-4-2.1-5.5-3.6s-2.8-3.4-3.6-5.5c-.9-2.1-1.3-4.4-1.3-6.9s.2-3.8.7-5.6c.4-1.8,1.1-3.5,1.9-5.1.8-1.6,1.8-3,3-4.3,1.2-1.3,2.5-2.4,4-3.4,1.5-.9,3.1-1.7,4.9-2.2,1.8-.5,3.7-.8,5.7-.8s1.6,0,2.4,0c.9,0,1.7.2,2.6.3.8.1,1.7.4,2.5.6s1.5.6,2.2,1l-.7,10c-1-.4-2-.6-3-.7-1-.1-2.1-.2-3.1-.2s-2.7.2-3.9.6c-1.2.4-2.3.9-3.2,1.7-.9.7-1.6,1.7-2.1,2.8s-.8,2.4-.8,3.8.1,1.8.4,2.6c.2.8.6,1.6,1.1,2.3s1.1,1.2,1.9,1.6c.7.4,1.6.6,2.6.6s1.4,0,2.1-.3c.7-.2,1.3-.5,1.8-.9v-2c.1,0-6.2-.1-6.2-.1l.3-7.9c2.6,0,5.2-.2,7.8-.2,2.6,0,5.2-.1,7.9-.2l.3,17.1Z"/>
    <path d="M282.4,98.8c0,2.5,0,5-.2,7.5-.2,2.5-.3,5-.6,7.5l-13.5.6c.4-3,.8-6.1,1.1-9.2.3-3.1.5-6.1.5-9.2s0-.5,0-1c0-.5,0-1,0-1.6,0-.6-.1-1.2-.2-1.9,0-.7-.2-1.3-.3-1.8-.1-.6-.3-1-.5-1.4-.2-.4-.4-.5-.7-.5-.6,0-1.1.2-1.4.7-.4.5-.6,1-.8,1.7-.2.6-.3,1.3-.3,2,0,.7,0,1.2,0,1.6,0,.7,0,1.5,0,2.2,0,.7,0,1.5,0,2.3,0,2.7,0,5.4-.2,8.1-.1,2.7-.3,5.4-.5,8.1l-12.5.5c.4-3,.8-6.1,1.1-9.1.3-3,.5-6.1.5-9.2s0-.5,0-1.1,0-1.1,0-1.7-.1-1.3-.2-2c0-.7-.2-1.3-.3-1.9-.1-.6-.3-1-.5-1.4-.2-.4-.4-.6-.7-.6-.4,0-.8.2-1.1.5s-.5.8-.7,1.3c-.2.5-.3,1.1-.4,1.8,0,.7-.2,1.3-.2,1.9,0,.6,0,1.2,0,1.7,0,.5,0,.9,0,1.2l-.6,19.2h-13.2c.3-3,.6-5.9.9-8.9.3-3,.5-5.9.8-8.9.2-3,.4-5.9.5-8.9.1-3,.2-6,.2-8.9l12.5-.5v3c.3-.5.8-1,1.3-1.5.5-.5,1-.9,1.6-1.3.6-.4,1.1-.7,1.8-1,.6-.2,1.3-.4,1.9-.4s1.6,0,2.3.2c.7.1,1.3.4,1.9.7.6.3,1,.7,1.5,1.3.4.6.8,1.2,1.1,2.1.6-.6,1.1-1.2,1.7-1.7.6-.5,1.2-1,1.8-1.4.6-.4,1.3-.7,2-.9.7-.2,1.5-.3,2.4-.3,1.7,0,3.1.3,4.3,1,1.2.7,2.2,1.5,3,2.6s1.4,2.3,1.9,3.7c.4,1.4.8,2.9,1,4.4s.4,3,.4,4.5c0,1.5,0,2.9,0,4.1Z"/>
    <path d="M314.2,95.4c0,1.5-.1,3-.3,4.6-3,.2-6,.5-8.9.9-3,.4-5.9.9-8.9,1.3.5,1.3,1.2,2.3,2.1,3,1,.8,2.1,1.1,3.5,1.1s1.5-.1,2.3-.4c.8-.3,1.7-.6,2.5-1,.8-.4,1.6-.8,2.4-1.3s1.4-.9,1.9-1.2l-1.3,11.9c-.7.5-1.4,1-2.2,1.3-.8.4-1.6.7-2.5.9-.9.2-1.7.4-2.6.5s-1.7.2-2.6.2c-1.7,0-3.3-.2-4.8-.7-1.4-.5-2.7-1.1-3.9-2-1.2-.8-2.2-1.9-3.1-3-.9-1.2-1.6-2.4-2.2-3.8-.6-1.4-1-2.8-1.3-4.3s-.4-3.1-.4-4.6.1-3.3.4-4.9.7-3.2,1.4-4.7c.6-1.5,1.4-2.9,2.3-4.2.9-1.3,2-2.4,3.2-3.4,1.2-1,2.6-1.7,4.2-2.3,1.5-.5,3.3-.8,5.1-.8s3,.2,4.3.6,2.4,1,3.4,1.8c1,.8,1.9,1.7,2.6,2.7s1.4,2.2,1.8,3.5.8,2.6,1.1,4,.4,2.8.4,4.2ZM303.6,94c0-.5,0-1-.2-1.5-.1-.5-.3-1-.5-1.4-.2-.4-.5-.8-.9-1-.4-.3-.9-.4-1.4-.4s-1.3.2-1.9.6-1,.8-1.4,1.4c-.4.6-.7,1.2-.9,1.9s-.4,1.3-.6,1.8l7.8-.7v-.6Z"/>
  </g>
</svg>