<?xml version="1.0" encoding="UTF-8"?>
<svg id="Layer_1" xmlns="http://www.w3.org/2000/svg" version="1.1" viewBox="0 0 400.2 195">
  <!-- Generator: Adobe Illustrator 29.7.0, SVG Export Plug-In . SVG Version: 2.1.1 Build 138)  -->
  <defs>
    <style>
      .st0 {
        fill: #ebebec;
      }
    </style>
  </defs>
  <path d="M345.5.8c-29.2,0-53.2,22.4-55.7,51.3H112.4C110,23.4,85.9.8,56.6.8S.7,25.9.7,56.8s6.4,30.2,17.7,40.8C7.1,108.1.7,122.6.7,138.3c0,30.8,25.1,55.9,55.9,55.9s53.2-22.4,55.7-50.9h177.5c2.5,28.5,26.6,50.9,55.7,50.9s55.9-25.1,55.9-55.9-6.4-30.2-17.7-40.8c11.3-10.6,17.7-25.1,17.7-40.8,0-30.8-25.1-55.9-55.9-55.9h0ZM372.9,101.6c11.8,8.8,18.5,22.2,18.5,36.8,0,25.3-20.6,45.9-45.9,45.9s-45.9-20.6-45.9-45.9-2.2-5-5-5H107.6c-2.8,0-5,2.2-5,5,0,25.3-20.6,45.9-45.9,45.9s-45.9-20.6-45.9-45.9,6.7-28,18.5-36.8c1.3-.9,2-2.4,2-4s-.7-3.1-2-4c-11.8-8.8-18.5-22.2-18.5-36.8,0-25.3,20.6-45.9,45.9-45.9s45.9,20.6,45.9,45.9v.4c0,2.8,2.2,5,5,5h187.1c2.8,0,5-2.6,5-5.4,0-25.3,20.6-45.9,45.9-45.9s45.9,20.6,45.9,45.9-6.7,28-18.5,36.8c-1.3,1-2,2.4-2,4s.7,3.1,2,4h-.1Z"/>
  <path class="st0" d="M372.9,101.6c11.8,8.8,18.5,22.2,18.5,36.8,0,25.3-20.6,45.9-45.9,45.9s-45.9-20.6-45.9-45.9-2.2-5-5-5H107.6c-2.8,0-5,2.2-5,5,0,25.3-20.6,45.9-45.9,45.9s-45.9-20.6-45.9-45.9,6.7-28,18.5-36.8c1.3-.9,2-2.4,2-4s-.7-3.1-2-4c-11.8-8.8-18.5-22.2-18.5-36.8,0-25.3,20.6-45.9,45.9-45.9s45.9,20.6,45.9,45.9v.4c0,2.8,2.2,5,5,5h187.1c2.8,0,5-2.6,5-5.4,0-25.3,20.6-45.9,45.9-45.9s45.9,20.6,45.9,45.9-6.7,28-18.5,36.8c-1.3,1-2,2.4-2,4s.7,3.1,2,4h-.1Z"/>
</svg>