<?xml version="1.0" encoding="UTF-8"?>
<svg xmlns="http://www.w3.org/2000/svg" version="1.1" viewBox="0 0 3255 3444.7">
  <!-- Generator: Adobe Illustrator 29.7.0, SVG Export Plug-In . SVG Version: 2.1.1 Build 138)  -->
  <defs>
    <style>
      .st0 {
        mix-blend-mode: multiply;
      }

      .st0, .st1 {
        opacity: .5;
      }

      .st2 {
        fill: #515254;
      }

      .st3 {
        isolation: isolate;
      }

      .st4 {
        fill: #18141c;
      }

      .st5 {
        fill: #fff;
      }

      .st6 {
        fill: #ccab7f;
      }

      .st7 {
        fill: #302d2e;
      }

      .st8 {
        fill: #403b3a;
      }

      .st9 {
        fill: #adafb2;
      }
    </style>
  </defs>
  <g class="st3">
    <g id="Layer_1">
      <path class="st2" d="M58.8,1889.8c0,835.2,677.1,1512.3,1512.3,1512.3,318.4,0,613.9-98.4,857.6-266.5-150.9,50.5-312.4,77.9-480.3,77.9-835.2,0-1512.3-677.1-1512.3-1512.3,0-516.8,259.2-973,654.7-1245.8C491,656.1,58.8,1222.5,58.8,1889.8Z"/>
      <g>
        <g class="st1">
          <path class="st9" d="M455.6,868.6c269.1-246.4,627.6-396.8,1021.2-396.8,835.2,0,1512.3,677.1,1512.3,1512.3,0,393.6-150.4,752.1-396.8,1021.2,301.9-276.5,491.1-673.9,491.1-1115.5,0-835.2-677.1-1512.3-1512.3-1512.3-441.6,0-839,189.3-1115.5,491.1Z"/>
        </g>
        <g>
          <path class="st4" d="M1948.3,3213.5c-835.2,0-1512.3-677.1-1512.3-1512.3,0-451.8,198.1-857.3,512.2-1134.4,164.5-61.4,342.6-94.9,528.5-94.9,835.2,0,1512.3,677.1,1512.3,1512.3,0,393.6-150.3,752-396.7,1021.1-51.4,47.1-106.2,90.7-163.8,130.5-150.9,50.5-312.4,77.8-480.2,77.8Z"/>
          <path class="st4" d="M2063.4,3320.2c-.3,0-.5.2-.8.3.3,0,.5-.2.8-.3Z"/>
          <path class="st4" d="M1928.6,3359.6c-.5.1-1,.2-1.5.4.5-.1,1-.2,1.5-.4Z"/>
          <path class="st4" d="M2128.6,3296c-.2,0-.3.1-.5.2.2,0,.3-.1.5-.2Z"/>
          <path class="st4" d="M2192.4,3269h-.2c0,0,.1,0,.2,0Z"/>
          <path class="st4" d="M2047,3325.7c-.3.1-.6.2-.9.3.3-.1.6-.2.9-.3Z"/>
          <path class="st4" d="M1962.4,3351s0,0,0,0c0,0,0,0,0,0Z"/>
          <path class="st4" d="M1980.3,3346.1c-.6.2-1.2.3-1.8.5.6-.2,1.2-.3,1.8-.5Z"/>
          <path class="st4" d="M2112.2,3302.4s0,0,0,0c0,0,0,0,0,0Z"/>
          <path class="st4" d="M2389.2,3161.9s0,0-.1,0c0,0,0,0,.1,0Z"/>
          <path class="st4" d="M237.3,1176.4c.3-.6.6-1.1.9-1.7-.3.6-.6,1.1-.9,1.7Z"/>
          <path class="st4" d="M245.9,1160.6c0-.1.1-.3.2-.4,0,.1-.1.3-.2.4Z"/>
          <path class="st4" d="M221.8,1206.1c0,0,0-.2.1-.3,0,0,0,.2-.1.3Z"/>
          <path class="st4" d="M229.4,1191.4c.3-.6.6-1.2.9-1.7-.3.6-.6,1.2-.9,1.7Z"/>
          <path class="st4" d="M58.8,1879.5c0,3.4,0,6.9,0,10.3,0,547.5,291,1027.1,726.7,1292.5C349.7,2916.9,58.8,2437.3,58.8,1889.8c0-3.4,0-6.9,0-10.3Z"/>
          <path class="st4" d="M280.5,1101.1c.1-.2.3-.4.4-.7-.1.2-.3.4-.4.7Z"/>
          <path class="st4" d="M289.7,1086.3h0c0,0,0,0,0,0Z"/>
          <path class="st4" d="M1996.7,3341.4c-.4.1-.8.2-1.2.3.4-.1.8-.2,1.2-.3Z"/>
          <path class="st4" d="M1700.4,3396.7c-1.3.1-2.7.2-4.1.3,1.4-.1,2.7-.2,4.1-.3Z"/>
          <path class="st4" d="M1736,3393.2c-.4,0-.9.1-1.3.1.4,0,.9-.1,1.3-.1Z"/>
          <path class="st4" d="M1683.3,3398c-1.5.1-2.9.2-4.4.3,1.5-.1,2.9-.2,4.4-.3Z"/>
          <path class="st4" d="M1717.2,3395.2c-.4,0-.8,0-1.1.1.4,0,.8,0,1.1-.1Z"/>
          <path class="st4" d="M1664.9,3399.2c-1,0-1.9.1-2.9.2,1,0,1.9-.1,2.9-.2Z"/>
          <path class="st4" d="M1592.2,3402c-1.3,0-2.5,0-3.8,0,1.3,0,2.5,0,3.8,0Z"/>
          <path class="st4" d="M1627.6,3401.1c-1.4,0-2.8,0-4.1.1,1.4,0,2.8,0,4.1-.1Z"/>
          <path class="st4" d="M1610.3,3401.6c-1.6,0-3.2,0-4.7.1,1.6,0,3.2,0,4.7-.1Z"/>
          <path class="st4" d="M1842.9,3377.8c-1.1.2-2.1.4-3.2.6,1.1-.2,2.1-.4,3.2-.6Z"/>
          <path class="st4" d="M1912.3,3363.5c-.8.2-1.7.4-2.5.6.8-.2,1.7-.4,2.5-.6Z"/>
          <path class="st4" d="M1755.1,3391c-1.2.2-2.5.3-3.7.4,1.2-.1,2.5-.3,3.7-.4Z"/>
          <path class="st4" d="M206.4,1237.3c0,0,0-.2.1-.2,0,0,0,.2-.1.2Z"/>
          <path class="st4" d="M1859.3,3374.7c-.5.1-1.1.2-1.6.3.5-.1,1.1-.2,1.6-.3Z"/>
          <path class="st4" d="M1825.6,3380.8c-.9.2-1.9.3-2.8.5.9-.2,1.9-.3,2.8-.5Z"/>
          <path class="st4" d="M1772.2,3388.8c-1.2.2-2.5.3-3.7.5,1.2-.2,2.5-.3,3.7-.5Z"/>
          <path class="st4" d="M1788.8,3386.6c-.5,0-1.1.1-1.6.2.5,0,1.1-.1,1.6-.2Z"/>
          <path class="st4" d="M1894.8,3367.4c-.5.1-1.1.2-1.6.4.5-.1,1.1-.2,1.6-.4Z"/>
          <path class="st4" d="M79.1,1641.3c.5-2.8.9-5.5,1.4-8.2-.5,2.7-.9,5.5-1.4,8.2Z"/>
          <path class="st4" d="M74,1674.2c.4-2.8.8-5.6,1.2-8.3-.4,2.8-.8,5.6-1.2,8.3Z"/>
          <path class="st4" d="M76.5,1657.7c.4-2.8.9-5.6,1.3-8.3-.4,2.8-.9,5.6-1.3,8.3Z"/>
          <path class="st4" d="M68.8,1714.7c.3-3,.7-5.9,1-8.9-.4,3-.7,5.9-1,8.9Z"/>
          <path class="st4" d="M92.8,1569.2c.5-2.4,1-4.8,1.6-7.1-.5,2.4-1.1,4.8-1.6,7.1Z"/>
          <path class="st4" d="M89.4,1585.3c.4-2.1.9-4.2,1.3-6.3-.4,2.1-.9,4.2-1.3,6.3Z"/>
          <path class="st4" d="M81.9,1624.8c.5-2.7.9-5.3,1.4-8-.5,2.7-1,5.3-1.4,8Z"/>
          <path class="st4" d="M85,1608c.5-2.5.9-4.9,1.4-7.4-.5,2.5-.9,4.9-1.4,7.4Z"/>
          <path class="st4" d="M70.8,1697.9c.6-5,1.3-10.1,2-15.1-.7,5-1.3,10-2,15.1Z"/>
          <path class="st4" d="M59.1,1856.7c0-3.2.2-6.5.2-9.7,0,3.2-.2,6.5-.2,9.7Z"/>
          <path class="st4" d="M59.6,1839.8c.1-3.2.2-6.4.3-9.6-.1,3.2-.2,6.4-.3,9.6Z"/>
          <path class="st4" d="M67,1731.4c.3-3,.6-6,1-9-.3,3-.6,6-1,9Z"/>
          <path class="st4" d="M60.2,1823c.1-3.2.3-6.4.4-9.6-.2,3.2-.3,6.4-.4,9.6Z"/>
          <path class="st4" d="M58.9,1873.7c0-3.3,0-6.6.2-10,0,3.3-.1,6.6-.2,10Z"/>
          <path class="st4" d="M65.3,1748c.3-3,.6-6.1.9-9.1-.3,3-.6,6.1-.9,9.1Z"/>
          <path class="st4" d="M61,1806.4c.6-11.6,1.4-23.1,2.3-34.6-.9,11.5-1.6,23-2.3,34.6Z"/>
          <path class="st4" d="M63.9,1764.7c.3-3.1.5-6.2.8-9.2-.3,3.1-.5,6.2-.8,9.2Z"/>
          <path class="st4" d="M109,1502c.3-1.3.7-2.6,1-3.9-.3,1.3-.7,2.6-1,3.9Z"/>
          <path class="st4" d="M151.6,1366.8c.6-1.5,1.1-3.1,1.7-4.6-.6,1.5-1.1,3.1-1.7,4.6Z"/>
          <path class="st4" d="M157.5,1351.1c.6-1.5,1.1-3,1.7-4.4-.6,1.5-1.1,2.9-1.7,4.4Z"/>
          <path class="st4" d="M146,1382.4c.5-1.3,1-2.6,1.4-4-.5,1.3-1,2.6-1.4,4Z"/>
          <path class="st4" d="M163.9,1334.8c.4-1.1.9-2.2,1.3-3.3-.4,1.1-.9,2.2-1.3,3.3Z"/>
          <path class="st4" d="M178,1300.3c0-.2.2-.4.2-.5,0,.2-.2.4-.2.5Z"/>
          <path class="st4" d="M191.2,1270c.5-1.1,1-2.1,1.4-3.2-.5,1.1-1,2.1-1.4,3.2Z"/>
          <path class="st4" d="M140.6,1397.8c0-.1,0-.2.1-.3,0,.1,0,.2-.1.3Z"/>
          <path class="st4" d="M184.5,1285.2c.4-.9.8-1.9,1.2-2.8-.4.9-.8,1.9-1.2,2.8Z"/>
          <path class="st4" d="M114.3,1482.5c.5-1.7,1-3.4,1.5-5.1-.5,1.7-1,3.4-1.5,5.1Z"/>
          <path class="st4" d="M104.3,1520.3c.5-2.1,1.1-4.3,1.6-6.4-.5,2.1-1.1,4.3-1.6,6.4Z"/>
          <path class="st4" d="M134,1417.5c.4-1.3.8-2.6,1.3-3.8-.4,1.3-.8,2.6-1.3,3.8Z"/>
          <path class="st4" d="M100.2,1536.8c.6-2.4,1.1-4.7,1.7-7.1-.6,2.3-1.1,4.7-1.7,7.1Z"/>
          <path class="st4" d="M96.4,1553c.5-2.4,1.1-4.8,1.7-7.2-.6,2.4-1.1,4.8-1.7,7.2Z"/>
          <path class="st4" d="M198.4,1254.4c.4-.9.8-1.7,1.2-2.6-.4.9-.8,1.7-1.2,2.6Z"/>
          <path class="st4" d="M128.5,1434.6c.6-1.8,1.1-3.7,1.7-5.5-.6,1.8-1.2,3.6-1.7,5.5Z"/>
          <path class="st4" d="M118.8,1466.6c.6-2,1.2-3.9,1.7-5.9-.6,2-1.2,3.9-1.7,5.9Z"/>
          <path class="st4" d="M123.5,1450.7c.6-2,1.2-4,1.8-6-.6,2-1.2,4-1.8,6Z"/>
        </g>
        <path d="M964,3326.7c-185.7-78.5-352.5-191-495.7-334.2-143.2-143.2-255.6-310-334.2-495.7-81.3-192.3-122.6-396.5-122.6-607s41.2-414.7,122.6-607c78.5-185.7,191-352.5,334.2-495.7,143.2-143.2,310-255.6,495.7-334.2,192.3-81.3,396.5-122.6,607-122.6,210.5,0,414.7,41.2,607,122.6,185.7,78.5,352.5,191,495.7,334.2,143.2,143.2,255.6,310,334.2,495.7,81.3,192.3,122.6,396.5,122.6,607,0,210.5-41.2,414.7-122.6,607-78.5,185.7-191,352.5-334.2,495.7-143.2,143.2-310,255.6-495.7,334.2-192.3,81.3-396.5,122.6-607,122.6-210.5,0-414.7-41.2-607-122.6ZM105.9,1889.8c0,807.9,657.3,1465.2,1465.2,1465.2,807.9,0,1465.2-657.3,1465.2-1465.2,0-807.9-657.3-1465.2-1465.2-1465.2-807.9,0-1465.2,657.3-1465.2,1465.2Z"/>
        <path class="st8" d="M2011.8,591.8c24,115.5,119.1,246,262.7,343,110.6,74.8,229,115.5,330.6,120.7,71.5,3.7,134.6-10.2,181.1-42l47.7-47.7c89-131.6-17.2-358.8-237.2-507.5-220-148.7-470.4-162.5-559.4-31-30.9,45.7-38.3,103-25.4,164.5Z"/>
        <g class="st0">
          <path class="st7" d="M2011.8,591.8c24,115.5,119.1,246,262.7,343,110.6,74.8,229,115.5,330.6,120.7,71.5,3.7,134.6-10.2,181.1-42l47.7-47.7c36.5-54,40.1-124.1,16.5-198.2-5.2,17.9-13,34.8-23.5,50.3l-47.7,47.7c-46.4,31.9-109.6,45.7-181.1,42-101.6-5.2-220-45.9-330.6-120.7-129.7-87.7-219.9-202.7-253.8-309.3-10.1,34.8-10.4,73.6-2,114.2Z"/>
        </g>
        <g class="st1">
          <path class="st5" d="M2037.3,521.6c89-131.6,339.4-117.7,559.4,31,146.3,98.9,187.8,32.6,0-94.3-220-148.7-470.4-162.5-559.4-31-29.8,44-13,113.6,0,94.3Z"/>
        </g>
        <path class="st4" d="M1946.1,1132.4c23,19.8,47.8,38.8,74.2,56.6,220,148.7,470.4,162.5,559.4,31l206.5-206.6c-46.4,31.9-109.6,45.7-181.1,42-101.6-5.2-220-45.9-330.6-120.7-20-13.5-39-27.6-57-42.3-111.6-90.7-185-201.3-205.7-300.7-12.8-61.5-5.5-118.8,25.4-164.5l-206.5,206.5-47.7,47.7c-78.3,115.8-5.5,305.7,163.1,450.9Z"/>
        <g class="st0">
          <path class="st7" d="M1946.1,1132.4c23,19.8,47.8,38.8,74.2,56.6,220,148.7,470.4,162.5,559.4,31l206.5-206.6c-46.4,31.9-109.6,45.7-181.1,42-101.6-5.2-220-45.9-330.6-120.7-20-13.5-39-27.6-57-42.3-31.5,40.9-71,85.2-119.9,129-51.6,46.1-103.3,82.4-151.5,110.9Z"/>
        </g>
        <g class="st1">
          <path class="st5" d="M1766.2,878.8c4.2-27.1,13.7-52.4,28.9-74.8l47.7-47.7,168.3-168.3c-11.7-60.1-4.1-115.9,26.2-160.7l-206.5,206.5-47.7,47.7c-36.4,53.8-40.1,123.5-16.8,197.3Z"/>
        </g>
        <path class="st7" d="M2020.4,624.5c4.2-27.1,13.7-52.3,28.9-74.8l-38.2,38.2c.2,1.3.5,2.5.8,3.8,2.2,10.8,5.1,21.7,8.6,32.7Z"/>
        <path d="M2602.7,1102.6c-114.5-5.9-240.5-51.6-354.6-128.7-149.3-100.9-254.9-240.2-282.5-372.5-15.9-76.2-4.6-145.6,32.5-200.5,27.3-40.4,66.5-70.4,116.4-89.3,45.4-17.1,97.9-24.2,155.8-21,114,6.3,239.3,52,352.6,128.6,113.4,76.6,202.4,175.8,250.8,279.3,24.6,52.6,37.6,103.9,38.6,152.4,1.1,53.4-12.2,100.9-39.5,141.3l-2.5,3.7-54,54-3.6,2.5c-48.8,33.5-112.6,50.9-185.7,50.9-8.1,0-16.2-.2-24.5-.6ZM2797.1,935.9c31-49.2,27.9-119.1-8.7-197.5-41.2-88.3-118.7-173.9-218.2-241.1-194.7-131.6-420.9-151.6-493.9-43.6-28.5,42.1-25.7,93.1-18.3,128.5h0c22.3,107.2,115.4,227.4,242.9,313.6,100.1,67.7,209,107.7,306.6,112.7,60.6,3.1,111.9-7.8,148.6-31.6l41-41Z"/>
        <path d="M2812.9,1052.4c24-16.5,44.2-36.7,60.1-60.2l-72.4-59.8-47.7,47.7,60,72.2Z"/>
        <path d="M2346.5,1356.8c-114-6.3-239.3-52-352.6-128.6-113.4-76.6-202.4-175.8-250.8-279.3-24.6-52.6-37.6-103.9-38.6-152.4-1.1-53.4,12.2-100.9,39.5-141.3l2.5-3.7,257.4-257.4,72.4,59.8c-28.5,42.1-25.7,93.1-18.3,128.5,22.3,107.2,115.4,227.4,242.9,313.6,100.1,67.7,209,107.7,306.6,112.7,62.5,3.2,115-8.5,152-33.8l60,72.2-203.5,203.6c-27.2,38.4-65.4,67.1-113.7,85.4-38.3,14.5-81.6,21.8-129.1,21.8-8.8,0-17.7-.3-26.8-.8ZM2602.7,1102.6c-114.5-5.9-240.5-51.6-354.6-128.7-149.3-100.9-254.9-240.2-282.5-372.5-2.2-10.4-3.8-20.7-5-30.8l-140.8,140.8c-68.5,108.8,34.2,308.4,226.8,438.6,110.2,74.5,230.5,113.2,327.4,113.2,74.3,0,134.8-22.8,166.5-69.6l2.5-3.7,86.6-86.6c-8.9,0-17.9-.2-27-.6Z"/>
        <path class="st6" d="M2529.5,784.4c74.6-91.6,175.5-195.8,308.7-292.5,130.8-95,263.5-161.5,387.5-208.3,2.9-81.3-56.3-273.1-56.3-273.1,0,0-337.9,136.6-501.6,255.4-155.7,113-274,234.6-361.9,341.7,74.5,58.9,149,117.8,223.5,176.8Z"/>
        <g class="st1">
          <path class="st5" d="M2306,607.6c17.4,13.8,34.8,27.5,52.2,41.3,85.2-100.2,196.5-210.9,339.2-314.4,120.8-87.7,243-154.8,360.5-206.3,247.6-108.5,118.1-129.4-29.7-68.4-118.5,48.8-239.5,118.5-360.2,206.2-155.7,113-274,234.6-361.9,341.7Z"/>
        </g>
        <g class="st0">
          <path class="st7" d="M2540.3,790c239.1-302.6,540.4-454.5,703.1-523.1L3136.6,4.9c-24,10.2-50.3,21.9-78.4,35.2l68.7,168.4c-156.5,66-453.3,224.2-688.7,505.5-.6.9,100,77,102.3,76Z"/>
        </g>
        <g>
          <path d="M2853.6,453.4l93.9-9.2c-3.9-40.1-5.8-80.7-5.5-120.7.5-67.3,7.1-134.9,19.5-201.2l-92.7-17.3c-13.4,71.7-20.5,144.9-21.1,217.7-.4,43.4,1.6,87.4,5.9,130.7Z"/>
          <path d="M2593.4,679.8l88.8-31.8c-20.7-57.7-37-117.4-48.5-177.3-8.3-43.4-14.3-87.6-17.7-131.6l-94,7.4c3.7,47.5,10.1,95.2,19.1,142,12.4,64.7,30,129.1,52.3,191.4Z"/>
        </g>
        <path class="st5" d="M2451.9,1932.6c-2.9,72.2-4.5,138.8.5,196.8,5.4,57.3,17.4,105.8,52,125.8,33.2,19.4,87.1,3.7,136.5-51.7,49-54.3,93.3-148.3,97.1-258.5,5.8-110.1-30.3-207.6-74.4-265.9-44.4-59.5-96.8-79.8-131.6-63.3-36.1,16.9-52.3,64.2-62.6,120.8-10,57.3-14.2,123.9-17.5,196Z"/>
        <path class="st5" d="M2360.6,2439.3c-15.1,36.2-28.5,69.8-37,100.2-8.1,30.2-11.2,57.1,2.6,73.8,13.2,16.1,43.6,18.4,79.2-.5,35.2-18.3,75.5-57.8,98.3-113.1,23.8-54.9,23.8-111.3,12.4-149.3-11.3-38.7-34.2-58.9-54.9-57.1-21.6,1.7-38.7,22.8-54.7,49.6-15.9,27.3-30.6,60.3-46,96.4Z"/>
      </g>
      <g>
        <path class="st4" d="M1091.9,455c-3.3,1.1-6.6,2.2-9.9,3.3,3.3-1.1,6.6-2.2,9.9-3.3Z"/>
        <path class="st4" d="M1073.7,461.2c-3.3,1.1-6.5,2.3-9.8,3.4,3.3-1.2,6.5-2.3,9.8-3.4Z"/>
        <path class="st4" d="M1110.2,449c-3.3,1.1-6.7,2.1-10,3.2,3.3-1.1,6.7-2.2,10-3.2Z"/>
        <path class="st4" d="M1166.1,432.4c-3.7,1-7.3,2-11,3.1,3.6-1,7.3-2.1,11-3.1Z"/>
        <path class="st4" d="M1128.6,443.3c-3.4,1-6.8,2.1-10.2,3.2,3.4-1.1,6.8-2.1,10.2-3.2Z"/>
        <path class="st4" d="M1055.7,467.6c-3.2,1.2-6.5,2.4-9.7,3.6,3.2-1.2,6.5-2.4,9.7-3.6Z"/>
        <path class="st4" d="M950.1,510.5c-3.5,1.6-6.9,3.2-10.4,4.8,3.5-1.6,6.9-3.2,10.4-4.8Z"/>
        <path class="st4" d="M915.8,526.4c-5.7,2.7-11.3,5.5-16.9,8.3,5.6-2.8,11.3-5.6,16.9-8.3Z"/>
        <path class="st4" d="M1482.8,380c-4,.2-8,.5-11.9.7,4-.3,7.9-.5,11.9-.7Z"/>
        <path class="st4" d="M932.9,518.3c-3.9,1.8-7.7,3.6-11.6,5.5,3.9-1.8,7.7-3.7,11.6-5.5Z"/>
        <path class="st4" d="M984.8,495.3c-3.3,1.4-6.5,2.8-9.7,4.2,3.2-1.4,6.5-2.8,9.7-4.2Z"/>
        <path class="st4" d="M1020,481c-3.2,1.3-6.4,2.5-9.6,3.8,3.2-1.3,6.4-2.6,9.6-3.8Z"/>
        <path class="st4" d="M1002.4,488.1c-3.2,1.3-6.4,2.6-9.6,4,3.2-1.3,6.4-2.7,9.6-4Z"/>
        <path class="st4" d="M1037.8,474.2c-3.2,1.2-6.4,2.4-9.7,3.7,3.2-1.2,6.4-2.5,9.7-3.7Z"/>
        <path class="st4" d="M1185.5,427.1c-4,1-7.9,2.1-11.9,3.2,4-1.1,7.9-2.1,11.9-3.2Z"/>
        <path class="st4" d="M1403.1,386.7c-3.7.4-7.4.8-11.1,1.3,3.7-.4,7.4-.9,11.1-1.3Z"/>
        <path class="st4" d="M1383.5,389c-3.7.5-7.4.9-11.1,1.4,3.7-.5,7.4-1,11.1-1.4Z"/>
        <path class="st4" d="M1344.5,394.4c-3.7.6-7.4,1.1-11.1,1.7,3.7-.6,7.4-1.2,11.1-1.7Z"/>
        <path class="st4" d="M1364,391.6c-3.7.5-7.4,1-11,1.6,3.7-.5,7.4-1.1,11-1.6Z"/>
        <path class="st4" d="M1462.6,381.3c-3.9.3-7.7.6-11.6.9,3.9-.3,7.7-.6,11.6-.9Z"/>
        <path class="st4" d="M1422.8,384.7c-3.7.4-7.5.7-11.2,1.1,3.7-.4,7.5-.8,11.2-1.1Z"/>
        <path class="st4" d="M1442.7,382.9c-3.8.3-7.6.6-11.4,1,3.8-.3,7.6-.7,11.4-1Z"/>
        <path class="st4" d="M1325.2,397.4c-3.7.6-7.4,1.2-11.2,1.9,3.7-.6,7.4-1.3,11.2-1.9Z"/>
        <path class="st4" d="M1206.6,421.7c-4.8,1.2-9.6,2.4-14.4,3.6,4.8-1.2,9.6-2.4,14.4-3.6Z"/>
        <path class="st4" d="M1248.7,411.9c-5.2,1.1-10.5,2.3-15.7,3.5,5.2-1.2,10.4-2.4,15.7-3.5Z"/>
        <path class="st4" d="M1229.8,416.2c-6.3,1.5-12.6,3-18.9,4.5,6.3-1.5,12.6-3,18.9-4.5Z"/>
        <path class="st4" d="M1267.7,407.9c-4.2.9-8.4,1.8-12.6,2.7,4.2-.9,8.4-1.8,12.6-2.7Z"/>
        <path class="st4" d="M1305.9,400.7c-3.8.7-7.6,1.4-11.3,2.1,3.8-.7,7.6-1.4,11.3-2.1Z"/>
        <path class="st4" d="M1286.7,404.2c-3.9.7-7.8,1.5-11.7,2.3,3.9-.8,7.8-1.6,11.7-2.3Z"/>
        <path class="st4" d="M967.4,502.8c-3.3,1.4-6.6,2.9-9.9,4.4,3.3-1.5,6.6-2.9,9.9-4.4Z"/>
        <path class="st4" d="M574.9,752c-2.9,2.6-5.9,5.1-8.8,7.7,2.9-2.6,5.8-5.2,8.8-7.7Z"/>
        <path class="st4" d="M560.6,764.7c-2.8,2.5-5.6,5-8.4,7.6,2.8-2.5,5.6-5.1,8.4-7.6Z"/>
        <path class="st4" d="M589.6,739.2c-3.2,2.7-6.3,5.4-9.5,8.1,3.1-2.7,6.3-5.4,9.5-8.1Z"/>
        <path class="st4" d="M546.5,777.4c-2.7,2.5-5.4,5-8.1,7.5,2.7-2.5,5.4-5,8.1-7.5Z"/>
        <path class="st4" d="M652.8,688.1c-3.5,2.7-6.9,5.3-10.4,8,3.5-2.7,6.9-5.4,10.4-8Z"/>
        <path class="st4" d="M605.6,725.7c-3.8,3.1-7.5,6.3-11.3,9.4,3.7-3.2,7.5-6.3,11.3-9.4Z"/>
        <path class="st4" d="M623.3,711.2c-4.9,4-9.8,7.9-14.7,12,4.9-4,9.7-8,14.7-12Z"/>
        <path class="st4" d="M638,699.6c-4.8,3.8-9.7,7.6-14.5,11.5,4.8-3.9,9.6-7.7,14.5-11.5Z"/>
        <path class="st4" d="M479.5,843.2c-2.5,2.6-5,5.3-7.5,7.9,2.5-2.6,5-5.3,7.5-7.9Z"/>
        <path class="st4" d="M492.5,829.7c-2.5,2.6-5.1,5.2-7.6,7.8,2.5-2.6,5-5.2,7.6-7.8Z"/>
        <path class="st4" d="M466.6,856.8c-2.5,2.7-5,5.4-7.5,8.1,2.5-2.7,5-5.4,7.5-8.1Z"/>
        <path class="st4" d="M519.1,803.3c-2.6,2.5-5.2,5-7.8,7.6,2.6-2.5,5.2-5,7.8-7.6Z"/>
        <path class="st4" d="M532.7,790.3c-2.6,2.5-5.3,5-7.9,7.5,2.6-2.5,5.3-5,7.9-7.5Z"/>
        <path class="st4" d="M498.1,824.1c2.5-2.6,5.1-5.1,7.7-7.7-2.6,2.5-5.1,5.1-7.7,7.7Z"/>
        <path class="st4" d="M825,574.1c-3.1,1.7-6.1,3.5-9.1,5.2,3-1.8,6.1-3.5,9.1-5.2Z"/>
        <path class="st4" d="M896.3,536c-4.8,2.4-9.5,4.8-14.3,7.2,4.7-2.4,9.5-4.8,14.3-7.2Z"/>
        <path class="st4" d="M808.6,583.5c-3,1.8-6,3.5-9,5.3,3-1.8,6-3.5,9-5.3Z"/>
        <path class="st4" d="M792.3,593.2c-3,1.8-5.9,3.6-8.8,5.4,2.9-1.8,5.9-3.6,8.8-5.4Z"/>
        <path class="st4" d="M776.2,603c-2.9,1.8-5.8,3.6-8.7,5.4,2.9-1.8,5.8-3.6,8.7-5.4Z"/>
        <path class="st4" d="M841.6,564.8c-3.1,1.7-6.3,3.5-9.4,5.2,3.1-1.8,6.3-3.5,9.4-5.2Z"/>
        <path class="st4" d="M876.1,546.3c-3.6,1.9-7.2,3.7-10.8,5.6,3.6-1.9,7.2-3.8,10.8-5.6Z"/>
        <path class="st4" d="M858.6,555.5c-3.3,1.8-6.6,3.5-9.9,5.3,3.3-1.8,6.6-3.5,9.9-5.3Z"/>
        <path class="st4" d="M728.9,633.5c-2.9,1.9-5.8,3.9-8.6,5.8,2.9-2,5.7-3.9,8.6-5.8Z"/>
        <path class="st4" d="M698,654.8c-2.9,2.1-5.8,4.2-8.8,6.3,2.9-2.1,5.8-4.2,8.8-6.3Z"/>
        <path class="st4" d="M760.3,613c-2.9,1.8-5.8,3.7-8.7,5.6,2.9-1.9,5.8-3.7,8.7-5.6Z"/>
        <path class="st4" d="M682.8,665.7c-3,2.2-6,4.4-9,6.6,3-2.2,6-4.4,9-6.6Z"/>
        <path class="st4" d="M713.4,644.1c-2.9,2-5.8,4-8.7,6,2.9-2,5.8-4,8.7-6Z"/>
        <path class="st4" d="M667.7,676.8c-3.1,2.3-6.3,4.7-9.4,7.1,3.1-2.4,6.2-4.7,9.4-7.1Z"/>
        <path class="st4" d="M744.5,623.2c-2.9,1.9-5.8,3.8-8.6,5.7,2.9-1.9,5.8-3.8,8.6-5.7Z"/>
        <path class="st4" d="M1147.2,437.7c-3.5,1-7,2-10.5,3.1,3.5-1,7-2.1,10.5-3.1Z"/>
        <path class="st4" d="M2852.1,2694c2.1-3.3,4.2-6.7,6.3-10.1-2.1,3.4-4.2,6.7-6.3,10.1Z"/>
        <path class="st4" d="M2862,2677.9c2.1-3.4,4.1-6.8,6.2-10.2-2.1,3.4-4.1,6.8-6.2,10.2Z"/>
        <path class="st4" d="M2841.9,2709.9c2.1-3.3,4.3-6.6,6.4-9.9-2.1,3.3-4.2,6.6-6.4,9.9Z"/>
        <path class="st4" d="M2820.9,2741.5c2.3-3.3,4.5-6.6,6.7-9.9-2.2,3.3-4.5,6.6-6.7,9.9Z"/>
        <path class="st4" d="M2810.1,2757.1c2.3-3.3,4.7-6.7,7-10.1-2.3,3.4-4.7,6.7-7,10.1Z"/>
        <path class="st4" d="M2831.5,2725.7c2.2-3.3,4.4-6.6,6.5-9.9-2.2,3.3-4.3,6.6-6.5,9.9Z"/>
        <path class="st4" d="M2871.8,2661.8c2.1-3.5,4.1-7,6.2-10.5-2.1,3.5-4.1,7-6.2,10.5Z"/>
        <path class="st4" d="M2960.6,2487.6c1.7-4,3.5-8.1,5.2-12.1-1.7,4.1-3.4,8.1-5.2,12.1Z"/>
        <path class="st4" d="M2944.2,2524.3c2.2-4.7,4.3-9.3,6.4-14-2.1,4.7-4.3,9.4-6.4,14Z"/>
        <path class="st4" d="M2952.7,2505.7c1.9-4.2,3.8-8.5,5.6-12.7-1.9,4.3-3.7,8.5-5.6,12.7Z"/>
        <path class="st4" d="M2917.4,2579.3c8.7-17.1,17.2-34.3,25.3-51.7-8.1,17.4-16.5,34.7-25.3,51.7Z"/>
        <path class="st4" d="M1503.2,379c-4.1.2-8.3.4-12.4.6,4.1-.2,8.3-.4,12.4-.6Z"/>
        <path class="st4" d="M2908.7,2596c2.7-5,5.3-10,7.9-15.1-2.6,5-5.2,10.1-7.9,15.1Z"/>
        <path class="st4" d="M2799,2772.7c2.5-3.4,4.9-6.8,7.4-10.3-2.4,3.4-4.9,6.9-7.4,10.3Z"/>
        <path class="st4" d="M2881.3,2645.5c2.1-3.6,4.2-7.3,6.2-10.9-2.1,3.6-4.1,7.3-6.2,10.9Z"/>
        <path class="st4" d="M2890.7,2629.1c2.2-3.8,4.3-7.7,6.4-11.5-2.1,3.9-4.2,7.7-6.4,11.5Z"/>
        <path class="st4" d="M2622.3,2976.9c3.2-3.1,6.4-6.3,9.6-9.4-3.2,3.2-6.4,6.3-9.6,9.4Z"/>
        <path class="st4" d="M2675.4,2923c3.1-3.3,6.1-6.6,9.2-9.9-3,3.3-6.1,6.6-9.2,9.9Z"/>
        <path class="st4" d="M2662.4,2936.7c3.1-3.2,6.1-6.4,9.1-9.6-3,3.2-6.1,6.4-9.1,9.6Z"/>
        <path class="st4" d="M2649.3,2950.2c3.1-3.1,6.2-6.3,9.2-9.5-3.1,3.2-6.1,6.3-9.2,9.5Z"/>
        <path class="st4" d="M2608.5,2990.2c3.4-3.2,6.7-6.3,10-9.5-3.3,3.2-6.7,6.4-10,9.5Z"/>
        <path class="st4" d="M2594.4,3003.3c3.5-3.2,7-6.5,10.5-9.8-3.5,3.3-7,6.5-10.5,9.8Z"/>
        <path class="st4" d="M2713.2,2881.1c3.6-4.1,7.1-8.3,10.7-12.4-3.5,4.2-7.1,8.3-10.7,12.4Z"/>
        <path class="st4" d="M2762.3,2821.6c3.6-4.6,7.2-9.2,10.7-13.8-3.5,4.6-7.1,9.2-10.7,13.8Z"/>
        <path class="st4" d="M2725.4,2866.9c12.3-14.5,24.4-29.3,36.1-44.3-11.8,15-23.8,29.8-36.1,44.3Z"/>
        <path class="st4" d="M2775.5,2804.5c3-3.9,5.9-7.8,8.8-11.7-2.9,3.9-5.9,7.8-8.8,11.7Z"/>
        <path class="st4" d="M2688.2,2909.2c3.1-3.4,6.2-6.9,9.3-10.3-3.1,3.4-6.2,6.9-9.3,10.3Z"/>
        <path class="st4" d="M2787.5,2788.5c2.6-3.6,5.3-7.2,7.9-10.7-2.6,3.6-5.3,7.2-7.9,10.7Z"/>
        <path class="st4" d="M2700.8,2895.2c3.3-3.7,6.5-7.3,9.7-11-3.2,3.7-6.5,7.4-9.7,11Z"/>
        <path class="st4" d="M2899.8,2612.6c2.3-4.2,4.6-8.4,6.8-12.6-2.3,4.2-4.5,8.4-6.8,12.6Z"/>
        <path class="st4" d="M3075,2050.2c.5-4.5.9-9,1.4-13.5-.4,4.5-.9,9-1.4,13.5Z"/>
        <path class="st4" d="M3072.7,2070c.5-4.5,1-8.9,1.5-13.4-.5,4.5-1,8.9-1.5,13.4Z"/>
        <path class="st4" d="M3076.9,2030.5c.4-4.6.8-9.1,1.2-13.7-.4,4.6-.8,9.2-1.2,13.7Z"/>
        <path class="st4" d="M3064.5,2129.1c.7-4.5,1.4-9,2.1-13.6-.7,4.5-1.4,9.1-2.1,13.6Z"/>
        <path class="st4" d="M3078.6,2010.6c.4-4.7.7-9.4,1-14.1-.3,4.7-.7,9.4-1,14.1Z"/>
        <path class="st4" d="M3070.3,2089.7c.6-4.4,1.2-8.9,1.7-13.3-.5,4.5-1.1,8.9-1.7,13.3Z"/>
        <path class="st4" d="M3067.5,2109.4c.6-4.5,1.3-8.9,1.9-13.4-.6,4.5-1.2,8.9-1.9,13.4Z"/>
        <path class="st4" d="M3082.2,1950.8c.2-5.9.4-11.7.6-17.6-.2,5.9-.4,11.8-.6,17.6Z"/>
        <path class="st4" d="M3080.1,1990.7c.3-4.9.6-9.8.9-14.8-.3,4.9-.6,9.8-.9,14.8Z"/>
        <path class="st4" d="M1546.2,377.7c-5.2,0-10.3.2-15.5.3,5.1-.1,10.3-.2,15.5-.3Z"/>
        <path class="st4" d="M1524,378.2c-4.4.1-8.9.3-13.3.4,4.4-.2,8.9-.3,13.3-.4Z"/>
        <path class="st4" d="M2645.3,2954.2c-3.1,3.1-6.2,6.3-9.4,9.4,3.1-3.1,6.3-6.3,9.4-9.4Z"/>
        <path class="st4" d="M3081.2,1970.8c.3-5.2.5-10.5.7-15.8-.2,5.3-.5,10.5-.7,15.8Z"/>
        <path class="st4" d="M3061.3,2148.9c.8-4.6,1.6-9.3,2.4-14-.8,4.7-1.5,9.3-2.4,14Z"/>
        <path class="st4" d="M2968.2,2469.6c1.6-3.9,3.3-7.9,4.9-11.8-1.6,3.9-3.2,7.9-4.9,11.8Z"/>
        <path class="st4" d="M3002.2,2379.7c1.4-4,2.7-8,4-12-1.3,4-2.7,8-4,12Z"/>
        <path class="st4" d="M2995.9,2397.8c1.4-3.9,2.8-7.8,4.1-11.8-1.4,3.9-2.7,7.9-4.1,11.8Z"/>
        <path class="st4" d="M3008.3,2361.5c1.3-4.1,2.7-8.2,4-12.3-1.3,4.1-2.6,8.2-4,12.3Z"/>
        <path class="st4" d="M3057.7,2168.8c.9-4.9,1.8-9.7,2.7-14.6-.9,4.9-1.8,9.7-2.7,14.6Z"/>
        <path class="st4" d="M2975.5,2451.7c1.6-3.9,3.1-7.8,4.6-11.7-1.5,3.9-3.1,7.8-4.6,11.7Z"/>
        <path class="st4" d="M2982.6,2433.8c1.5-3.9,3-7.7,4.4-11.6-1.5,3.9-2.9,7.8-4.4,11.6Z"/>
        <path class="st4" d="M3014.2,2343.2c1.3-4.2,2.6-8.5,3.9-12.8-1.3,4.3-2.6,8.5-3.9,12.8Z"/>
        <path class="st4" d="M2989.4,2415.9c1.4-3.9,2.9-7.8,4.3-11.7-1.4,3.9-2.8,7.8-4.3,11.7Z"/>
        <path class="st4" d="M3019.9,2324.9c1.3-4.5,2.7-9,4-13.5-1.3,4.5-2.6,9-4,13.5Z"/>
        <path class="st4" d="M3049.2,2210.9c1.3-6.1,2.6-12.2,3.9-18.4-1.2,6.1-2.5,12.3-3.9,18.4Z"/>
        <path class="st4" d="M3053.7,2189.2c1.1-5.3,2.1-10.5,3.1-15.8-1,5.3-2,10.5-3.1,15.8Z"/>
        <path class="st4" d="M3035.4,2269.2c4.9-19.1,9.5-38.3,13.7-57.6-4.2,19.4-8.8,38.6-13.7,57.6Z"/>
        <path class="st4" d="M3030.4,2287.9c1.5-5.7,3-11.3,4.5-17-1.5,5.7-3,11.4-4.5,17Z"/>
        <path class="st4" d="M3025.3,2306.4c1.4-4.9,2.8-9.8,4.1-14.7-1.3,4.9-2.7,9.8-4.1,14.7Z"/>
      </g>
      <path d="M2481.5,763.6c100.8-127.2,220.3-240,356.1-335.7,93.4-65.9,194.2-123.5,300.3-171.6,0,0,41.1-66.4,19.9-117.7-21.2-51.4-91.5-56.7-91.5-56.7-216.8,98.8-502.7,273.9-737.7,571.4l-76.6-55.2c118.7-150.9,259.6-284.7,419.9-398.3,123.8-87.7,333.8-174,368.5-189.4,34.8-15.4,165.7-7.5,203.5,81.1,37.8,88.5,7.9,201.8-60.4,232.8s-413.3,228.2-625.5,494.5l-76.6-55.2Z"/>
    </g>
  </g>
</svg>