<?xml version="1.0" encoding="UTF-8"?>
<svg id="Layer_1" xmlns="http://www.w3.org/2000/svg" version="1.1" viewBox="0 0 217.1 211.5">
  <!-- Generator: Adobe Illustrator 29.7.0, SVG Export Plug-In . SVG Version: 2.1.1 Build 138)  -->
  <defs>
    <style>
      .st0 {
        fill: #fff;
      }
    </style>
  </defs>
  <polygon class="st0" points="72 49.1 32 58 30 49.2 73.1 39.6 72 49.1"/>
  <path class="st0" d="M171,200l.4-2.8-103.4-16.4c-3.8-.6-7-2.7-9.1-5.6-2.1-2.9-3.1-6.6-2.5-10.4L79.1,21.9c.6-3.8,2.7-7,5.6-9.1s6.6-3.1,10.4-2.5l103.4,16.4c3.8.6,7,2.7,9.1,5.6,2.1,2.9,3.1,6.6,2.5,10.4l-22.6,142.9c-.6,3.8-2.7,7-5.6,9.1-2.9,2.1-6.6,3.1-10.4,2.5l-.4,2.8-.4,2.8c10.7,1.7,20.8-5.6,22.4-16.3l22.6-142.9c1.7-10.7-5.6-20.7-16.3-22.4L96,4.7c-10.7-1.7-20.8,5.6-22.4,16.3l-22.6,142.9c-1.7,10.7,5.6,20.7,16.3,22.4l103.4,16.4.4-2.8Z"/>
  <rect class="st0" x="137.8" y=".6" width="9" height="85.5" transform="translate(77.2 177.2) rotate(-81)"/>
  <g>
    <path class="st0" d="M157.4,114.5c2.3.4,5.3,0,6.5-2.2.6-1.1.7-2.4,1.4-3.6.4-.7,1.2-1.3,1.4-1.9,1.2-3.2-1.2-5.5-4.3-5.9-3.1-.3-4.9-.2-4.7,1.8.3,2.3,4.4.4,5.7,1.9,1.4,1.6-.9,1.8-1.4,2.8-.7,1.5-.4,4.1-2.3,5.3l-2.4,1.8h0ZM162,92.8c-1.2.2-1.6,2.3-.5,2.9,3,1.4,3.4-3.2.5-2.9M148.1,90.6c-2.5-.3-7,2.6-5.5,5.1,1.5,2.4,2.9-1.6,4.2-1.9,3.1-.7,2.6,2.6,3.6,3.3,1.1.7,2.2-.2,2.3-1.5.1-2.4-2.3-4.7-4.6-5ZM109.3,152.3s-.2-.3-.5-.3c-7-1.3-10.5-.1-14.8-6.5-.4-.6-1-2.3-1.5-2.7-.5-.3-2.7-.6-3.6-1-3.7-1.5-6.7-6.1-7.3-10-.5-3.4.8-13.1,6-11.4,3,1,.7,5.3.6,7.4-.1,2,1.2,5.5,3.7,5.1.8-.1,1.2-3,1.6-3.9,3.5-9.1,11.9-15.9,20.7-19.6,3.7-1.6,7.2-1.6,8.2-6.3,3.4,2.4,5.7,7.1,10.3,7.4,2.6.2,5.8-1.6,6.6-4.2,1.5-4.8.7-10.5-.6-15.3h-.6c-2.5,4-.3,10.3-1.9,14.3-.8,2.1-3.6,2.2-5.4,1.2-1.8-1.1-10-9.9-11.4-11.8-3.5-5-.8-7.7,3.2-10.5,2.6-1.9,4.2-3.5,6.7-5.5,8.4-6.8,20-8.9,29.9-3.8,8.5,4.4,16.1,11.9,14.7,22.3-.2,1.7-1.4,3.9-2.8,1.6-1.4-2.2-.7-4.7-.8-7-.2-2.8-1.5-5.1-3.5-7,0,1.6.3,3.2.3,4.9,0,3.2-1,6.1.4,9.2,1.6,3.7,4.9,5.9,4.4,10.6-.6,7.9-8.1,9.2-14.6,8.9-2,0-4.7-.8-6.6-.7-1.5,0-1.6,1.1-.3,1.5,2.9.9,6.3.6,9.2,1,.6,6.4-2.9,12.2-4.5,18.2-.7,2.5-2.3,9.2-.8,11.4.9,1.4,3.2,1.4,4.1,3.8.7,1.7,0,4.8-1.9,5.3-1.7.5-7.9-.5-9.8-1-2.4-.6-1.4-2.6-1.6-4.5-.1-1.2-.5-2.4-1.1-3.4-.8-1.3-2.6-2.5-2.5-4,.1-3.5.9-6.5,4.1-8.2,1.8-1,5.9-1.2,5.9-3.5,0-2.5-4.9-.7-6.2-.2-3.5,1.4-5.8,4-6.6,7.7-.2.9-1.1,5.9-1,6.6.1.6,1.6,1.1,2.1,1.5,2.2,1.6,3.7,6.3.2,7.2l-11.3-1.8c-1.9-1.1-1.2-3.2-1.5-5.1-.4-2.6-1.9-3.9-3.3-5.9,0-.4,0-.9.2-1.3.7-3.2,1.7-4.7,1.5-8.3-.4-6.8-6.9-14.2-14.2-13-.8.1-3,.7-3.1,1.7l5.3.8c.4,0,2.1,1,2.6,1.3,7.3,4.5,7.5,13.8,2.5,20.1,0,.5,2.1,1.2,2.6,1.5,1.7,1.1,3.1,3.5,2.7,5.6-.6,2.7-3.2.4-4.9,1-3.2-.6-6.5-1-9.8-1.5h0Z"/>
    <path class="st0" d="M156.1,115.5c2.3.4,5.3,0,6.5-2.2.6-1.1.7-2.4,1.4-3.6.4-.7,1.2-1.3,1.4-1.9,1.2-3.2-1.2-5.5-4.3-5.9-3.1-.3-4.9-.2-4.7,1.8.3,2.3,4.4.4,5.7,1.9,1.4,1.6-.9,1.8-1.4,2.8-.7,1.5-.4,4.1-2.3,5.3l-2.4,1.8h0ZM160.7,93.7c-1.2.2-1.6,2.3-.5,2.9,3,1.4,3.4-3.2.5-2.9M146.8,91.5c-2.5-.3-7,2.6-5.5,5.1,1.5,2.4,2.9-1.6,4.2-1.9,3.1-.7,2.6,2.6,3.6,3.3,1.1.7,2.2-.2,2.3-1.5.1-2.4-2.3-4.7-4.6-5ZM108.1,153.2s-.2-.3-.5-.3c-7-1.3-10.5-.1-14.8-6.5-.4-.6-1-2.3-1.5-2.7-.5-.3-2.7-.6-3.6-1-3.7-1.5-6.7-6.1-7.3-10-.5-3.4.8-13.1,6-11.4,3,1,.7,5.3.6,7.4-.1,2,1.2,5.5,3.7,5.1.8-.1,1.2-3,1.6-3.9,3.5-9.1,11.9-15.9,20.7-19.6,3.7-1.6,7.2-1.6,8.2-6.3,3.4,2.4,5.7,7.1,10.3,7.4,2.6.2,5.8-1.6,6.6-4.2,1.5-4.8.7-10.5-.6-15.3h-.6c-2.5,4-.3,10.3-1.9,14.3-.8,2.1-3.6,2.2-5.4,1.2-1.8-1.1-10-9.9-11.4-11.8-3.5-5-.8-7.7,3.2-10.5,2.6-1.9,4.2-3.5,6.7-5.5,8.4-6.8,20-8.9,29.9-3.8,8.5,4.4,16.1,11.9,14.7,22.3-.2,1.7-1.4,3.9-2.8,1.6-1.4-2.2-.7-4.7-.8-7-.2-2.8-1.5-5.1-3.5-7,0,1.6.3,3.2.3,4.9,0,3.2-1,6.1.4,9.2,1.6,3.7,4.9,5.9,4.4,10.6-.6,7.9-8.1,9.2-14.6,8.9-2,0-4.7-.8-6.6-.7-1.5,0-1.6,1.1-.3,1.5,2.9.9,6.3.6,9.2,1,.6,6.4-2.9,12.2-4.5,18.2-.7,2.5-2.3,9.2-.8,11.4.9,1.4,3.2,1.4,4.1,3.8.7,1.7,0,4.8-1.9,5.3-1.7.5-7.9-.5-9.8-1-2.4-.6-1.4-2.6-1.6-4.5-.1-1.2-.5-2.4-1.1-3.4-.8-1.3-2.6-2.5-2.5-4,.1-3.5.9-6.5,4.1-8.2,1.8-1,5.9-1.2,5.9-3.5,0-2.5-4.9-.7-6.2-.2-3.5,1.4-5.8,4-6.6,7.7-.2.9-1.1,5.9-1,6.6.1.6,1.6,1.1,2.1,1.5,2.2,1.6,3.7,6.3.2,7.2l-11.3-1.8c-1.9-1.1-1.2-3.2-1.5-5.1-.4-2.6-1.9-3.9-3.3-5.9,0-.4,0-.9.2-1.3.7-3.2,1.7-4.7,1.5-8.3-.4-6.8-6.9-14.2-14.2-13-.8.1-3,.7-3.1,1.7l5.3.8c.4,0,2.1,1,2.6,1.3,7.3,4.5,7.5,13.8,2.5,20.1,0,.5,2.1,1.2,2.6,1.5,1.7,1.1,3.1,3.5,2.7,5.6-.6,2.7-3.2.4-4.9,1-3.2-.6-6.5-1-9.8-1.5h0Z"/>
  </g>
  <path class="st0" d="M103,188.5l-48.8,10.9c-3.8.8-7.5,0-10.5-1.9s-5.3-5-6.2-8.8L6,47.6c-.8-3.8,0-7.5,1.9-10.5,1.9-3,5-5.3,8.8-6.1l62.6-13.9,11.9-10.1,16.5,3.8,11.2-2.5c3.8-.8,7.5,0,10.5,1.9.2.1.3.2.5.3l9.7,2.2-1.7-2.2c-4.4-6.2-12.3-9.4-20.2-7.7L15.4,25.4C4.8,27.7-1.8,38.2.5,48.8l31.5,141.2c2.4,10.6,12.8,17.2,23.4,14.9l56.1-12.5-8.5-3.9Z"/>
</svg>