<?xml version="1.0" encoding="UTF-8"?>
<svg id="Layer_1" xmlns="http://www.w3.org/2000/svg" xmlns:xlink="http://www.w3.org/1999/xlink" version="1.1" viewBox="0 0 720 720">
  <!-- Generator: Adobe Illustrator 29.7.0, SVG Export Plug-In . SVG Version: 2.1.1 Build 138)  -->
  <defs>
    <style>
      .st0 {
        fill: none;
      }

      .st1 {
        fill: #009fe0;
      }

      .st2 {
        fill: #ebebec;
      }

      .st3 {
        clip-path: url(#clippath-11);
      }

      .st4 {
        clip-path: url(#clippath-10);
      }

      .st5 {
        clip-path: url(#clippath-12);
      }

      .st6 {
        clip-path: url(#clippath-1);
      }

      .st7 {
        clip-path: url(#clippath-3);
      }

      .st8 {
        clip-path: url(#clippath-4);
      }

      .st9 {
        clip-path: url(#clippath-2);
      }

      .st10 {
        clip-path: url(#clippath-7);
      }

      .st11 {
        clip-path: url(#clippath-6);
      }

      .st12 {
        clip-path: url(#clippath-9);
      }

      .st13 {
        clip-path: url(#clippath-8);
      }

      .st14 {
        clip-path: url(#clippath-5);
      }

      .st15 {
        fill: #fff;
      }

      .st16 {
        fill: #cfd1d2;
      }

      .st17 {
        fill: #f9ed25;
      }

      .st18 {
        clip-path: url(#clippath);
      }

      .st19 {
        fill: #fff200;
      }
    </style>
    <clipPath id="clippath">
      <polygon class="st0" points="302.9 418.9 556.9 330.1 568.5 485.6 314.5 574.4 302.9 418.9"/>
    </clipPath>
    <clipPath id="clippath-1">
      <polygon class="st0" points="302.9 418.9 556.9 330.1 568.5 485.6 314.5 574.4 302.9 418.9"/>
    </clipPath>
    <clipPath id="clippath-2">
      <polygon class="st0" points="302.9 418.9 556.9 330.1 568.5 485.6 314.5 574.4 302.9 418.9"/>
    </clipPath>
    <clipPath id="clippath-3">
      <polygon class="st0" points="302.9 418.9 556.9 330.1 568.5 485.6 314.5 574.4 302.9 418.9"/>
    </clipPath>
    <clipPath id="clippath-4">
      <polygon class="st0" points="302.9 418.9 556.9 330.1 568.5 485.6 314.5 574.4 302.9 418.9"/>
    </clipPath>
    <clipPath id="clippath-5">
      <polygon class="st0" points="302.9 418.9 556.9 330.1 568.5 485.6 314.5 574.4 302.9 418.9"/>
    </clipPath>
    <clipPath id="clippath-6">
      <polygon class="st0" points="302.9 418.9 556.9 330.1 568.5 485.6 314.5 574.4 302.9 418.9"/>
    </clipPath>
    <clipPath id="clippath-7">
      <polygon class="st0" points="302.9 418.9 556.9 330.1 568.5 485.6 314.5 574.4 302.9 418.9"/>
    </clipPath>
    <clipPath id="clippath-8">
      <polygon class="st0" points="302.9 418.9 556.9 330.1 568.5 485.6 314.5 574.4 302.9 418.9"/>
    </clipPath>
    <clipPath id="clippath-9">
      <polygon class="st0" points="302.9 418.9 556.9 330.1 568.5 485.6 314.5 574.4 302.9 418.9"/>
    </clipPath>
    <clipPath id="clippath-10">
      <polygon class="st0" points="302.9 418.9 556.9 330.1 568.5 485.6 314.5 574.4 302.9 418.9"/>
    </clipPath>
    <clipPath id="clippath-11">
      <polygon class="st0" points="302.9 418.9 556.9 330.1 568.5 485.6 314.5 574.4 302.9 418.9"/>
    </clipPath>
    <clipPath id="clippath-12">
      <polygon class="st0" points="302.9 418.9 556.9 330.1 568.5 485.6 314.5 574.4 302.9 418.9"/>
    </clipPath>
  </defs>
  <polygon points="437.3 683.1 438.3 676.8 436.8 676.8 437.3 683.1"/>
  <path d="M478.1,720.3c3.3-1.7,86.6-51,86.6-51,15.7-8.3,9.8-17,10.8-29.6,6.5-81.2,6.1-173.8,9.3-257.4,1.5-39.9,1.6-80,2.5-119.9,1.7-9.1,39.5-32.2,48.7-41.2,17-16.7,5.7-19.4-10.4-27.2-11.4-5.5-38-17.3-49.5-17.9-21.2-1.2-89.2,29.4-96.1,26.4l-50-43.2-13.1-69.9-6-2.5L110.1,214.8c-2.2,2.5-5.4,5.6-6.3,8.8-4,13.7,13.4,59.4,13.3,76.9l60.5,46.8c0,4.5-67.8,39.4-76.2,48.6-5.4,5.9-4.8,12.1.6,17.7,27.8,10.4,51.9,38.4,83.1,34.8,5,55.3,4.9,110.7,7.5,166,1.1,23,3.8,46.8,5.1,69.8.7,12.7,2.2,29.9,1.9,36.1"/>
  <polygon points="413.2 318.2 267.6 388.5 405.7 315.7 552.1 243.7 413.2 318.2"/>
  <polygon class="st15" points="557.1 249.7 564.6 253.6 277.5 393.5 557.1 249.7"/>
  <path class="st2" d="M537.2,244.9c-85.8,50.3-185.9,87.3-273,136.7l-9.2-1.8,287.1-141c4.6,3.9-3.5,5.4-4.9,6.2Z"/>
  <path d="M527.3,239.9c-75.2,44.1-179.4,93.6-259.6,129.9-4.6,2.1-19.7,12-22.5,4.9l287.1-141c4.6,3.9-3.5,5.4-4.9,6.2Z"/>
  <path class="st16" d="M235.1,371c.6-3.8,4.7-4.6,7.4-6.3,63.8-38.1,156.6-78.8,225.6-111.5,13.7-6.5,34.4-18,47.4-22.5,4.2-1.4,4.8-2.4,6.6,2.9l-287.1,137.3Z"/>
  <path d="M225.1,366c.6-3.7,4.7-4.7,7.4-6.3,67.7-40.1,162.8-82.5,235.6-116.5,10.9-5.1,27.1-14,37.5-17.5,4.2-1.4,4.8-2.4,6.6,2.9l-287.1,137.3Z"/>
  <path class="st2" d="M215.1,361c.7-3.4,4.1-5.2,6.9-6.8,67.4-39.2,157.5-78.6,229.4-112.6,13-6.1,31.6-16.5,44.2-20.8,4.2-1.4,4.8-2.4,6.6,2.9l-287.1,137.3Z"/>
  <polygon points="214.4 354.1 205.1 352.3 492.2 216.2 214.4 354.1"/>
  <path class="st16" d="M482.2,211.3l-251.2,124.5c-9.9,2.7-18,9.3-27.6,12.4-4,1.3-4,5-8.3-.9,82-37.7,162.1-79.9,243.8-118.2,13.6-6.4,28.9-14,43.3-17.8Z"/>
  <path d="M287.6,397.2l287.1-143.5-7.4,6.3c-77.1,38.1-153,78.4-229.7,117.3-12.4,6.3-29.3,16.4-41.7,20.7-4,1.4-4,5-8.2-.8Z"/>
  <polyline points="305 719.8 295.4 406.4 579.6 263.7 567.1 590.7 564.9 660.2 467.3 715.5"/>
  <polyline class="st1" points="305 719.8 295.4 406.4 579.6 263.7 567.1 590.7 564.9 660.2 463.7 720.3"/>
  <polyline class="st1" points="290.8 720.7 283.4 414.9 194.7 446.7 210.7 720.3"/>
  <path class="st2" d="M112.7,222.9l293.6-126.5c3.5-.3,4.4,1.5,5.6,4.3,2.1,4.8,9.3,57.7,7.7,60.3L122.8,293.6l-10.1-70.7Z"/>
  <polygon class="st2" points="130.3 303.6 424.1 166.7 469.8 201.3 464 209.2 187.8 342.4 130.3 303.6"/>
  <path class="st2" d="M185.8,440.3c-7.7,1.4-15,1.3-22.5-1.3-7.6-2.7-46.7-25.5-54-30.9-2.1-1.5-5-2.4-4.1-5.8l81.1-48.6c31.1,17.3,65.5,30.4,93.6,52.3l-94.2,34.4Z"/>
  <path class="st2" d="M583.4,248.9c-4.8,0-60.4-26.1-69.6-30.5-6.3-3.1-15.2-6.1-19.1-12.1,23.8-2.2,56-23.2,78.6-22.7,7.9.2,63.6,22.7,63.6,26.4-10.8,6.4-44.2,38.8-53.6,38.9Z"/>
  <g class="st18">
    <path class="st15" d="M547.2,437.3c-2.1-3.3-5.3-5.8-9.1-6.8-.9-.2-1.6-.8-1.9-1.8-.8-2,.3-4.9,2.5-6.3,4.1-2.7,7.6-6.4,10.2-10.7,2.5-4.2,4.1-8.9,4.4-13.6.4-6.5-1.7-12-5.5-15.5-3.8-3.5-9.2-5-15.5-3.8-5.5,1.1-9.9,4.3-13.5,8.7-3.9,4.8-7,11.1-9.6,17.8-2,5.2-5,8.2-8.7,10.3-3,1.7-6.1,2.4-9.4,3.2l-.5.2-104.8,21.1h0c-3.4.6-6.7,1.2-9.6.7-3.5-.6-6.2-2.6-7.6-7-1.8-5.8-4.2-11-7.6-14.3-3.1-3-7.2-4.6-12.7-3.4-6.2,1.3-12,5-16.3,10.2-4.3,5.1-7.2,11.6-7.6,18.2-.3,4.8.8,8.9,2.8,12.2,2.1,3.3,5.3,5.8,9.1,6.8.9.2,1.6.8,1.9,1.8.8,2-.3,4.9-2.5,6.3-4.1,2.7-7.6,6.4-10.2,10.7-2.5,4.2-4.1,8.9-4.4,13.6-.4,6.5,1.7,12,5.5,15.5,3.8,3.5,9.2,5,15.5,3.8,5.5-1.1,9.9-4.3,13.5-8.7,3.9-4.8,7-11.1,9.6-17.8,2-5.2,5-8.2,8.7-10.3,3-1.7,6.1-2.4,9.4-3.2.2,0,.3-.1.5-.2l104.8-21.1h0c3.4-.6,6.7-1.2,9.6-.7,3.5.6,6.2,2.6,7.6,7,1.8,5.8,4.2,11,7.6,14.3,3.1,3,7.2,4.6,12.7,3.4,6.2-1.3,12-5,16.3-10.2,4.3-5.1,7.2-11.6,7.6-18.2.3-4.8-.8-8.9-2.8-12.2h0ZM548.1,424.4c2.6,1.7,4.8,3.9,6.5,6.7,2.8,4.5,4.2,10.2,3.8,16.7-.6,9-4.5,17.9-10.5,24.9-5.9,7-13.9,12.2-22.4,14-8.1,1.6-14.1-.5-18.6-5-4.2-4.2-7-10.3-9.2-17-.6-1.8-1.6-2.5-2.9-2.8-1.8-.3-4.3.1-7,.6h0l-101.4,17.2c0,0-3.6,4-3.6,4.1-2.6.6-5,1.2-6.9,2.2-1.3.7-2.5,1.9-3.3,4-3,7.7-6.7,15.1-11.5,21.1-5.2,6.4-11.6,11.1-19.7,12.7-8.5,1.7-16-.4-21.2-5.2-5.2-4.8-8.2-12.2-7.6-21.3.4-6.5,2.6-13,6-18.7,2.1-3.5,4.6-6.7,7.5-9.5-2.6-1.7-4.8-3.9-6.5-6.7-2.8-4.5-4.2-10.2-3.8-16.7.6-9,4.5-17.9,10.5-24.9,5.9-7,13.9-12.2,22.4-14,8.1-1.6,14.1.5,18.6,5,4.2,4.2,7,10.3,9.2,17,.6,1.8,1.6,2.5,2.9,2.8,1.8.3,4.3-.1,7-.6h0l104.8-21.1h.3c2.6-.7,5-1.3,6.9-2.3,1.3-.7,2.5-1.9,3.3-4,3-7.7,6.7-15.1,11.5-21.1,5.2-6.4,11.6-11.1,19.7-12.7,8.5-1.7,16,.4,21.2,5.2,5.2,4.8,8.2,12.2,7.6,21.3-.4,6.5-2.6,13-6,18.7-2.1,3.5-4.6,6.7-7.5,9.5"/>
  </g>
  <polygon class="st17" points="400.3 503.9 403.8 502.4 403.9 503 402.4 503.6 403 507.4 402.4 507.6 401.8 503.9 400.3 504.5 400.3 503.9"/>
  <polygon class="st17" points="407.7 500.7 408.4 500.5 409 504.8 408.4 505 408.1 503.2 405.7 504.2 406 506.1 405.4 506.3 404.7 502 405.4 501.8 405.6 503.6 408.1 502.6 407.7 500.7"/>
  <polygon class="st17" points="409.6 499.9 412.1 498.9 412.2 499.4 410.3 500.2 410.5 501.5 412.3 500.8 412.4 501.3 410.6 502.1 410.8 503.4 412.7 502.6 412.8 503.1 410.3 504.2 409.6 499.9"/>
  <g class="st6">
    <g>
      <path class="st17" d="M416.6,497.5l-.8.3s.5,3.2.5,3.2l.8-.3c.3-.2.5-.3.7-.4s.3-.2.4-.4c.1-.1.2-.2.3-.4.3-.5.3-.9.3-1.4s-.3-.8-.6-.9c-.1,0-.3,0-.4-.1-.2,0-.3,0-.4,0l-.6.2M415.8,501.8l-.7-4.3,1.4-.6c.6-.3,1.1-.4,1.4-.3.4,0,.7.2.9.4.2.3.4.6.5,1,0,.3,0,.6,0,.9,0,.3-.2.6-.4.9s-.4.5-.6.8c-.2.1-.3.2-.4.3-.1,0-.4.2-.8.4l-1.4.6h0Z"/>
      <path class="st17" d="M422.4,495c-.5.2-.9.5-1.2,1-.3.5-.4.9-.3,1.4,0,.5.3.8.6.9.4.2.8.2,1.3,0,.5-.2.8-.5,1.1-1s.4-.9.3-1.4c0-.5-.3-.8-.6-.9s-.8-.2-1.3,0M422.3,494.4c.7-.3,1.3-.3,1.8,0,.5.2.8.7.9,1.3,0,.6,0,1.3-.4,1.9-.4.6-.9,1-1.6,1.4-.6.3-1.2.3-1.7,0-.5-.2-.8-.7-.9-1.3s0-1.3.4-1.9c.3-.6.9-1.1,1.6-1.4"/>
      <path class="st17" d="M428.3,494.2l1.4-.6.3,1.8c-.5.4-1,.8-1.5,1-.7.3-1.3.3-1.8,0-.5-.2-.8-.7-.9-1.3,0-.6,0-1.3.4-1.9s.9-1.1,1.6-1.4c.3,0,.5-.2.7-.2s.5,0,.9,0v.7c-.4,0-1,0-1.5.2-.5.2-.8.5-1.1,1s-.4.9-.3,1.4c0,.5.3.8.6,1,.4.2.8.2,1.3,0,.3,0,.5-.3.8-.6h0s-.2-.9-.2-.9l-.8.3s0-.5,0-.5h0Z"/>
      <path class="st17" d="M434.3,491.8l-.6.2s.2,1.4.2,1.4l.6-.2c.3-.2.5-.3.7-.4.1,0,.2-.2.2-.4,0-.2,0-.3,0-.4s0-.2-.2-.3-.2,0-.4,0c-.1,0-.4,0-.7.2M433.9,490l-.5.2.2,1.3h.4c.3-.3.5-.5.7-.7s.1-.4.1-.6c0-.4-.3-.5-.9-.3M434.8,493.6l-1.4.6-.7-4.3,1.1-.5c.3-.1.6-.2.9-.2s.4,0,.5.2c.1.1.2.3.3.5,0,.4-.1.8-.5,1.2.3-.1.6,0,.8,0,.2,0,.3.3.4.6,0,.2,0,.4,0,.7,0,.2-.2.4-.4.6-.2.2-.5.4-.8.5"/>
    </g>
  </g>
  <polygon class="st17" points="436.6 488.3 437.2 488.1 437.8 492.4 437.2 492.6 436.6 488.3"/>
  <polygon class="st17" points="441.9 486 442.5 485.8 443.1 490.1 442.6 490.3 439.2 488.2 439.7 491.5 439.2 491.8 438.5 487.5 439 487.3 442.4 489.3 441.9 486"/>
  <g class="st9">
    <g>
      <path class="st17" d="M446.4,486.4l1.4-.6.3,1.8c-.5.4-1,.8-1.5,1-.7.3-1.3.3-1.8,0-.5-.2-.8-.7-.9-1.3,0-.6,0-1.3.4-1.9.4-.6.9-1.1,1.6-1.4.3,0,.5-.2.7-.2s.5,0,.9,0v.7c-.4,0-1,0-1.5.2-.5.2-.8.5-1.1,1-.3.5-.4.9-.3,1.4,0,.5.3.8.7,1s.8.2,1.3,0c.3,0,.5-.3.8-.6h0s-.2-.9-.2-.9l-.8.3s0-.5,0-.5h0Z"/>
      <path class="st17" d="M450.9,482.7c-.5.2-.9.5-1.2,1-.3.5-.4.9-.3,1.4,0,.5.3.8.6.9.4.2.8.2,1.3,0,.5-.2.8-.5,1.1-1s.4-.9.3-1.4c0-.5-.3-.8-.6-.9-.4-.2-.8-.2-1.3,0M450.8,482.1c.7-.3,1.3-.3,1.8,0,.5.2.8.7.9,1.3,0,.6,0,1.3-.4,1.9-.4.6-.9,1-1.6,1.4-.6.3-1.2.3-1.7,0-.5-.2-.8-.7-.9-1.3,0-.6,0-1.3.4-1.9.3-.6.9-1.1,1.6-1.4"/>
      <path class="st17" d="M458.9,481l1.4-.6.3,1.8c-.5.4-1,.8-1.5,1-.7.3-1.3.3-1.8,0-.5-.2-.8-.7-.9-1.3,0-.6,0-1.3.4-1.9s.9-1.1,1.6-1.4c.3,0,.5-.2.7-.2.2,0,.5,0,.9,0v.7c-.4,0-1,0-1.5.2-.5.2-.8.5-1.1,1s-.4.9-.3,1.4c0,.5.3.8.7,1,.4.2.8.2,1.3,0,.3,0,.5-.3.8-.6h0s-.2-.9-.2-.9l-.8.3s0-.5,0-.5h0Z"/>
    </g>
  </g>
  <path class="st17" d="M463.9,479.2l-.9-1.2-.4,1.8,1.3-.6h0ZM462.6,477.1h.4c0-.1,2.6,3.3,2.6,3.3l-.6.2s-.8-1-.8-1l-1.8.8-.3,1.5-.6.2s1.2-5.1,1.2-5.1h0Z"/>
  <polygon class="st17" points="469.2 474.3 469.7 474.1 470.4 478.3 469.8 478.6 469.2 475.3 468.2 477.5 468.1 477.5 466.5 476.4 467 479.8 466.4 480.1 465.7 475.8 466.3 475.5 468 476.7 469.2 474.3"/>
  <polygon class="st17" points="471 473.5 473.4 472.5 473.5 473 471.7 473.8 471.9 475.1 473.6 474.4 473.7 474.9 472 475.7 472.1 477 474.1 476.2 474.1 476.7 471.6 477.8 471 473.5"/>
  <g class="st7">
    <g>
      <path class="st17" d="M325.7,499.6c-.3.1-.7,0-.8-.4l-.7-2.6c-.6-2.3-1.2-4.5-1.8-6.6-.6-2.2-1.2-4.5-1.8-6.7-.3-1.1-.6-2.3-.9-3.5-.4-1.2-.7-2.5-.9-3.8l-.4-1.9c0-.3,0-.7.3-.9l1.7-1.5c1.3-1.2,2.7-2.3,4.1-3.3,1.4-1,2.8-1.9,4.4-2.7.7-.4,1.4-.7,2-1,.3-.1.6-.2.9-.3h.3c.9-.4,1.8-.7,2.8-.8,1-.2,2-.2,3-.1,1.1,0,2,.4,2.9.8.4-1.1,1-2.3,1.6-3.3.8-1.3,1.7-2.5,2.8-3.6,1.1-1.1,2.4-2.1,3.9-2.8.5-.3.9-.5,1.4-.7.3,0,.6-.2.8-.3.5-.2,1-.3,1.5-.4,1.2-.2,2.3-.3,3.3-.1.1,0,.3,0,.4,0,0-.2.1-.5.3-.7l1.7-1.6c1.2-1.1,2.4-2.1,3.8-3,1.3-.9,2.6-1.7,3.8-2.4.7-.4,1.4-.7,2-1,.4-.1.8-.3,1.2-.4.7-.2,1.4-.4,2.1-.6,1.3-.3,2.4-.3,3.5-.2l-.3-1.1c-.1-.4.1-.8.5-1.1l13.4-8.1h.2c.1-.1.3-.1.4,0,.2,0,.3.2.3.4l.4,1.9c.4-.7.8-1.3,1.3-2,.9-1.3,2-2.5,3.2-3.6,1.2-1.1,2.6-2.1,4-2.8.5-.3,1.1-.5,1.6-.8.3,0,.5-.2.8-.4.4-.1.7-.3,1.1-.4h.1c.6-.3,1.2-.5,1.9-.6.7-.2,1.5-.2,2.1-.2h0s1.2-1.2,1.2-1.2c.7-.7,1.5-1.4,2.2-2.1.7-.6,1.5-1.2,2.3-1.8.8-.5,1.5-1,2.3-1.5.8-.4,1.5-.9,2.3-1.3.6-.3,1.2-.6,1.7-.8.3-.1.7-.3,1.1-.4.5-.2,1.1-.4,1.6-.5,1.6-.4,3.1-.5,4.5-.2.8.2,1.6.4,2.3.8.4-1,.9-2.1,1.5-3.1.8-1.3,1.7-2.5,2.8-3.6,1.1-1.1,2.4-2.1,3.9-2.8.5-.3.9-.5,1.4-.7l.8-.3c.5-.2,1-.3,1.5-.4,1.2-.2,2.3-.3,3.3-.1,1,.2,2,.5,2.8,1,.1,0,.3.2.5.3.4-1.2,1-2.4,1.6-3.4.8-1.3,1.7-2.5,2.8-3.6,1.1-1.1,2.4-2.1,3.9-2.8.5-.3.9-.5,1.4-.7.3,0,.6-.2.8-.3.5-.2,1-.3,1.5-.4,1.2-.2,2.3-.3,3.3-.1,1,.2,2,.5,2.8,1,.8.5,1.5,1.1,2.2,1.8.6.7,1.1,1.5,1.6,2.4.4.8.8,1.8,1,2.8.2,1,.5,2,.6,3.1l.3,2.3c0,.3-.2.7-.5.9l-1,.6,1,6.6c0,.2,0,.4-.1.6l-.7,1.2c-.5.7-1,1.5-1.6,2.2-.6.6-1.1,1.2-1.8,1.7-.6.5-1.2,1-1.9,1.4-.6.4-1.2.8-1.8,1.1-.5.3-1,.5-1.5.8l-.9.3h0c-.5.2-1,.4-1.5.5-1.3.3-2.5.3-3.6.2-1.1-.2-2.1-.5-3.1-1,0,0-.2-.1-.3-.2l.2,1.3c0,.2,0,.4-.1.6l-.7,1.2c-.5.7-1,1.5-1.6,2.2-.6.6-1.1,1.2-1.8,1.7-.6.5-1.2,1-1.9,1.4-.6.4-1.2.8-1.8,1.1-.5.3-1,.5-1.5.8-.3.1-.6.2-.9.3-.5.2-1,.4-1.5.5-1.2.2-2.4.3-3.5.2l-11.1,8.6c0,0-.2.1-.3.1-.3,0-.5,0-.7-.1h0l-11.2,6.1h-.1c-.1,0-.3.1-.4,0-.2,0-.3-.2-.3-.4v-.3c-.5.5-.9.9-1.3,1.3-.9.9-1.8,1.7-2.8,2.4-1,.7-1.9,1.3-2.9,1.9-.6.3-1.2.6-1.7.8-.3.1-.7.2-1,.4-.9.3-1.8.6-2.8.7-1.6.2-3.1.2-4.4-.2l.4,1.8c0,.4-.1.8-.5,1l-11.3,6.9h-.2c-.1.1-.3.1-.4,0-.2,0-.3-.2-.4-.4l-1.1-3.5c-.3.6-.7,1.2-1.1,1.8-.9,1.3-2,2.6-3.2,3.8-1.1,1.1-2.4,2.2-3.8,3.2-1.3.9-2.7,1.8-4.1,2.6-.5.3-1.1.5-1.6.8-.5.3-1.1.5-1.6.7l-2.6,1.1h0c-.1,0-.3.1-.4,0-.3.4-.7.9-1,1.3-.6.6-1.1,1.2-1.8,1.7-.6.5-1.2,1-1.9,1.4-.6.4-1.2.8-1.8,1.1-.5.3-1,.5-1.5.8l-.9.3c-.5.2-1,.4-1.5.5-1.3.3-2.5.3-3.6.2s-2.1-.5-3.1-1c-.9-.5-1.7-1.1-2.4-1.9-.3-.4-.7-.8-1-1.2-.1.1-.2.3-.3.4-.8,1-1.6,1.9-2.5,2.8-.7.7-1.5,1.3-2.3,1.9l1.7,6.4c.1.4-.1.8-.5,1.1l-12.4,6.7h-.1"/>
      <path class="st17" d="M456.5,393.8l-.9.3c-.5.2-1,.4-1.5.7-1.5.8-2.9,1.9-4.1,3-1.2,1.2-2.2,2.4-3.1,3.8-.5.8-.9,1.7-1.3,2.6-.9-.5-1.8-.8-2.7-.9-1.1-.2-2.3-.1-3.6.1-.5,0-1,.3-1.5.5l-.9.3c-.5.2-1,.4-1.5.7-1.5.8-2.9,1.9-4.1,3-1.2,1.2-2.2,2.4-3.1,3.8-.5.7-.9,1.5-1.2,2.3-.6-.2-1.2-.4-1.8-.5-1.5-.2-3-.1-4.7.3-.6.2-1.1.3-1.7.5l-1.2.4c-.6.2-1.2.6-1.8.9-.8.4-1.6.9-2.4,1.4-.8.5-1.6,1-2.4,1.6-.8.5-1.6,1.2-2.4,1.8-.8.6-1.5,1.3-2.3,2.1l-.9,1c-.7,0-1.3,0-2,.3-.6.1-1.3.3-2,.6h-.1c-.4.2-.8.3-1.2.5-.3,0-.5.2-.8.4-.6.3-1.1.5-1.7.9-1.5.8-2.9,1.8-4.2,3s-2.4,2.4-3.4,3.8c-.1.2-.2.3-.3.5v-.4c-.1-.4-.4-.7-.8-.8-.3,0-.5,0-.8,0h-.3c0,.1-2.9,1.9-2.9,1.9l-7.9,4.8-2.6,1.6c-.7.4-1.1,1.3-1,2-.8,0-1.6.1-2.4.3-.7.2-1.5.4-2.2.6s-.8.3-1.2.4c-.7.3-1.4.6-2.1,1-1.3.7-2.6,1.5-3.9,2.4-1.4.9-2.7,2-3.9,3.2l-1.7,1.6c-.1,0-.2.2-.3.3-1.1-.1-2.2,0-3.3.1-.5,0-1,.3-1.5.5l-.9.3c-.5.2-1,.4-1.5.7-1.5.8-2.9,1.9-4.1,3-1.2,1.2-2.2,2.4-3.1,3.8-.5.8-1,1.7-1.3,2.6-.7-.3-1.5-.5-2.3-.5-1,0-2.1,0-3.2.1-1,.2-1.9.4-2.9.7-1,.3-.3,0-.3.1-.3.1-.6.2-.9.4-.7.3-1.4.6-2.1,1-1.6.9-3.1,1.8-4.5,2.8-1.4,1-2.8,2.1-4.1,3.4l-1.7,1.5c-.5.5-.8,1.2-.7,1.8l.4,1.9c.3,1.3.6,2.6.9,3.8.3,1.1.7,2.3.9,3.4.6,2.3,1.2,4.5,1.8,6.7.6,2.1,1.2,4.4,1.8,6.6l.7,2.6c.1.4.4.6.7.8.3,0,.5,0,.8,0s.2,0,.3,0l2.7-1.5,7-3.8,2.7-1.5c.8-.4,1.3-1.4,1-2.2l-.7-2.6-.9-3.2c.6-.5,1.2-1,1.9-1.6.8-.8,1.6-1.6,2.3-2.5.1.2.3.4.5.6.8.8,1.6,1.5,2.6,2,1,.5,2.1.9,3.3,1,1.2.2,2.5.1,3.8-.2.5,0,1.1-.2,1.6-.4.6-.2.6-.2.9-.3.5-.2,1.1-.5,1.6-.8.6-.4,1.3-.8,1.9-1.2.7-.5,1.3-1,2-1.5.7-.6,1.3-1.2,1.9-1.9.3-.3.6-.6.8-1h.2c0,0,0,0,.1-.1l2.6-1.1c.6-.2,1.1-.5,1.6-.7.5-.3,1.1-.5,1.6-.8,1.4-.8,2.9-1.7,4.2-2.6,1.4-1,2.7-2.1,3.9-3.3,1.2-1.2,2.4-2.6,3.3-4l.3-.4.7,2.2c.1.4.4.6.7.7.2,0,.5,0,.8,0h.3c0-.1,2.7-1.7,2.7-1.7l6.2-3.8,2.4-1.5c.7-.4,1.1-1.3,1-2v-.4c.9.2,2.1.1,3.2,0,1-.2,1.9-.4,2.9-.7l1.1-.4c.6-.2,1.2-.6,1.8-.9,1-.5,2-1.2,3-2,1-.8,2-1.6,2.9-2.5.2-.2.4-.4.5-.5,0,0,.2.1.3.1.3,0,.6,0,.9,0s.2,0,.3,0l2.7-1.5,6.5-3.5,1.6-.9c.3.1.6.1.9,0s.3-.1.5-.3l2.2-1.7,6.4-5,2.3-1.8c1.1.1,2.2,0,3.4-.2.5,0,1.1-.2,1.6-.4.6-.2.6-.2.9-.3.5-.2,1.1-.5,1.6-.8.6-.4,1.3-.8,1.9-1.2.7-.5,1.3-1,2-1.5.7-.6,1.3-1.2,1.9-1.9.6-.7,1.2-1.5,1.7-2.3l.7-1.2c.2-.3.3-.5.3-.9.7.3,1.4.5,2.2.6,1.2.2,2.5.1,3.8-.2.5,0,1.1-.2,1.6-.4l.9-.3c.5-.2,1.1-.5,1.6-.8.6-.4,1.3-.8,1.9-1.2.7-.5,1.3-.9,2-1.5.7-.6,1.3-1.2,1.9-1.9.6-.7,1.2-1.5,1.7-2.3l.7-1.2c.2-.4.3-.8.3-1.2l-.2-1.2-.8-4.8.4-.2c.7-.4,1.1-1.2,1-1.9l-.3-2.3c-.1-1.1-.3-2.2-.6-3.2-.3-1-.6-2-1.1-2.9-.5-.9-1-1.8-1.6-2.5-.7-.8-1.4-1.4-2.3-1.9-.9-.5-1.9-.9-3-1.1-1.1-.2-2.3-.1-3.6.1-.5,0-1,.3-1.5.5M456.6,395.3c.5-.2.9-.3,1.4-.4,1.1-.2,2.1-.3,3.1-.1.9.2,1.8.5,2.7,1,.7.5,1.4,1,2.1,1.7.6.7,1.1,1.4,1.5,2.3.4.8.7,1.7,1,2.7.2.9.5,1.9.6,3l.3,2.3-1.5.9.9,6,.2,1.2-.7,1.2c-.4.7-.9,1.4-1.5,2-.5.6-1.1,1.1-1.7,1.7s-1.2.9-1.7,1.4c-.6.4-1.2.8-1.8,1.1-.5.3-1,.5-1.4.7-.3,0-.6.2-.8.3-.5.2-1,.3-1.5.4-1.2.2-2.3.3-3.4.1-1.1-.1-2-.5-2.9-.9-.7-.3-1.3-.8-1.9-1.3l.3,2.3.2,1.2-.7,1.2c-.4.7-.9,1.4-1.5,2-.5.6-1.1,1.1-1.7,1.7-.6.5-1.2.9-1.7,1.4-.6.4-1.2.8-1.8,1.1-.5.3-1,.5-1.4.7l-.8.3c-.5.2-1,.3-1.5.4-1.2.2-2.3.3-3.4.1,0,0-.1,0-.2,0l-2.9,2.2-6.4,5-2.2,1.7-.3-.4-2.5,1.4-6.5,3.5-2.7,1.5-.4-1.4c-.6.9-1.3,1.6-2.1,2.4-.9.8-1.8,1.6-2.7,2.3s-1.9,1.3-2.8,1.8c-.5.3-1.1.6-1.7.8l-1,.3c-.9.3-1.8.5-2.6.6-1.7.2-3.3.1-4.7-.4-.3,0-.5-.2-.8-.3l.2,1,.5,2.4-2.4,1.5-6.2,3.8-2.7,1.6-.8-2.6-.8-2.5c-.5,1.2-1.1,2.4-1.9,3.4-.9,1.3-1.9,2.5-3,3.6-1.1,1.1-2.3,2.1-3.6,3.1-1.2.9-2.6,1.8-4,2.5-.5.3-1,.5-1.5.8-.5.2-1,.5-1.5.7l-2.6,1.1-.2-.7-.2.2c-.4.7-.9,1.4-1.5,2-.5.6-1.1,1.1-1.7,1.7-.6.5-1.2.9-1.7,1.4-.6.4-1.2.8-1.8,1.1-.5.3-1,.5-1.4.7s-.6.2-.8.3c-.5.2-1,.3-1.5.4-1.2.2-2.3.3-3.4.1-1-.1-2-.5-2.9-.9-.9-.5-1.6-1-2.3-1.8-.5-.6-1-1.2-1.4-1.9-.3.5-.6.9-1,1.4-.7.9-1.5,1.8-2.4,2.6-.8.8-1.7,1.5-2.7,2.2h-.1s1.2,4.4,1.2,4.4l.7,2.6-2.7,1.5-7,3.8-2.7,1.5-.7-2.6c-.6-2.3-1.2-4.5-1.8-6.6-.6-2.2-1.2-4.5-1.8-6.7-.3-1.1-.6-2.3-.9-3.5-.4-1.2-.7-2.5-.9-3.7l-.4-1.9,1.7-1.5c1.3-1.2,2.6-2.3,4-3.2,1.3-1,2.8-1.9,4.3-2.7.6-.4,1.3-.7,1.9-.9l.9-.3h.3c.9-.4,1.8-.6,2.6-.8,1-.2,1.9-.2,2.8,0,1,.1,1.9.3,2.7.7.2.1.5.3.7.4,0-.2.1-.4.2-.6.4-1.3,1-2.5,1.7-3.7.7-1.2,1.6-2.4,2.7-3.4,1.1-1,2.3-1.9,3.7-2.7.4-.2.9-.4,1.3-.6l.8-.3c.5-.2.9-.3,1.4-.4,1.1-.2,2.1-.3,3.1-.1.6,0,1.2.3,1.7.5l-.3-1.3,1.7-1.6c1.1-1.1,2.4-2,3.6-2.9,1.2-.8,2.5-1.6,3.7-2.3.6-.4,1.3-.7,1.9-.9l1.1-.4c.7-.2,1.3-.4,2-.6,1.7-.4,3.2-.3,4.7,0h0s-.8-2.6-.8-2.6l2.6-1.6,7.9-4.8,2.9-1.8.6,3v.7c.7-1.3,1.4-2.5,2.2-3.7.9-1.2,1.9-2.4,3.1-3.4,1.2-1,2.4-1.9,3.8-2.7.5-.3,1-.5,1.6-.8.3,0,.5-.2.7-.3.3-.1.7-.3,1.1-.4h.1c.6-.3,1.2-.5,1.8-.5.7-.2,1.3-.2,2-.2h.4s1.5-1.5,1.5-1.5c.7-.7,1.4-1.4,2.2-2,.7-.6,1.4-1.2,2.2-1.7.7-.5,1.5-1,2.3-1.5.8-.4,1.5-.9,2.3-1.3.5-.3,1.1-.6,1.7-.8.3-.1.7-.2,1-.4.5-.2,1-.4,1.5-.4,1.5-.3,2.9-.4,4.2-.2,1.1.2,2.1.6,2.9,1.2,0,0,0-.1,0-.2.4-1.3,1-2.5,1.7-3.7.7-1.2,1.6-2.4,2.7-3.4,1.1-1,2.3-1.9,3.7-2.7.4-.2.9-.4,1.3-.6.3,0,.5-.2.8-.3.5-.2.9-.3,1.4-.4,1.1-.2,2.1-.3,3.1-.1.9.2,1.8.5,2.7,1,.4.3.8.6,1.2.9,0-.2.1-.5.3-.8.4-1.3,1-2.5,1.7-3.7.7-1.2,1.6-2.4,2.7-3.4,1.1-1,2.3-1.9,3.7-2.7.4-.2.9-.4,1.3-.6h0l.8-.3"/>
      <path class="st1" d="M334.7,476.4c0,.4-.2.7-.4,1.1-.2.3-.4.7-.8,1-.3.3-.6.5-1,.8-.1,0-.3.1-.4.2-.1,0-.3,0-.4.2l-1-4.3c.2-.2.4-.3.6-.5.2-.2.4-.3.6-.4.6-.4,1.2-.4,1.7-.3.5.1.8.5,1,1.1.1.4,0,.7,0,1.1M340.1,469c-.4-.6-1-1-1.5-1.3-.6-.3-1.2-.5-1.9-.5-.7,0-1.5,0-2.2.1-.8.1-1.6.3-2.4.6-.8.3-1.6.6-2.3,1.1-1.3.7-2.7,1.6-3.9,2.4-1.2.9-2.5,1.8-3.6,2.9.3,1.3.6,2.4.9,3.6.4,1.2.7,2.4,1,3.6.6,2.3,1.2,4.5,1.8,6.7.6,2.2,1.2,4.4,1.8,6.6l7-3.8-1.9-6.7c.8-.5,1.6-1,2.4-1.5.8-.5,1.5-1.2,2.3-1.8.7-.6,1.3-1.4,1.9-2.1.6-.7,1-1.5,1.4-2.4.4-.8.6-1.7.7-2.6.1-.9,0-1.8-.2-2.7-.2-.9-.6-1.6-1-2.1"/>
      <path class="st1" d="M349.8,468.4c0-.3,0-.8,0-1.2,0-.5.1-.9.3-1.3.1-.5.3-.8.6-1.2.2-.4.6-.7,1-.9.3-.2.6-.2.9-.2.3,0,.5.1.7.3s.4.4.5.6c.2.3.3.5.3.8v.3c0,0-4.2,2.8-4.2,2.8h0ZM360.7,465.3c0-.9-.3-1.8-.5-2.6-.2-.8-.5-1.5-.8-2.2-.4-.7-.8-1.3-1.2-1.9-.5-.5-1-1-1.6-1.3-.6-.3-1.2-.6-1.9-.7s-1.5,0-2.2,0c-.8.1-1.6.5-2.5,1-1.1.6-2,1.3-2.8,2.1-.8.8-1.5,1.6-2,2.6-.5.9-1,1.9-1.3,2.9-.3,1-.6,2-.7,3s-.2,2,0,3c0,1,.2,1.9.5,2.8.2.9.6,1.7,1,2.4.4.8.9,1.4,1.4,2,.5.6,1.1,1,1.8,1.4.7.3,1.4.6,2.2.7.8.1,1.6,0,2.5-.1.9-.2,1.8-.6,2.8-1.1.5-.3,1-.6,1.4-.9.5-.4,1-.7,1.4-1.1s.9-.8,1.3-1.2c.4-.5.8-.9,1.1-1.5l-1.1-7c-.2.4-.6.8-.9,1.3-.4.5-.8,1-1.2,1.4s-.9.9-1.3,1.3c-.5.4-.9.7-1.2.9-.8.4-1.5.6-2.2.4-.7-.1-1.2-.5-1.7-1,1.6-1.2,3.3-2.3,4.9-3.5,1.6-1.2,3.3-2.3,4.9-3.3"/>
      <path class="st1" d="M373.5,458.3c0,.6-.2,1.2-.5,1.8-.3.6-.6,1.1-1,1.7-.4.6-.9,1-1.5,1.4l-1.7-8.8c.6-.3,1.2-.5,1.7-.6s.9,0,1.3.3c.4.2.7.5.9.9.2.4.5.9.6,1.5.2.6.2,1.1.1,1.7M377.3,448.7c-.8-.9-1.7-1.4-2.8-1.7-1.1-.3-2.3-.3-3.6,0s-2.7.8-4.1,1.6c-1.1.6-2.3,1.3-3.4,2.1s-2.2,1.6-3.2,2.5l4.8,19.1c.5-.2.9-.4,1.4-.6s.9-.5,1.4-.7c1.3-.7,2.4-1.4,3.6-2.3,1.1-.8,2.2-1.7,3.1-2.7.9-1,1.8-2,2.5-3,.7-1.1,1.3-2.2,1.7-3.4.4-1.2.7-2.4.7-3.7,0-1.3-.1-2.6-.5-3.9-.4-1.4-1-2.6-1.7-3.4"/>
    </g>
  </g>
  <polygon class="st1" points="378.6 442.5 384.5 461.9 390.8 458.1 386.4 437.8 378.6 442.5"/>
  <g class="st8">
    <g>
      <path class="st1" d="M404,437.1c-1.5.8-2.9,1.7-4.4,2.6l1,4.4,3.6-1.9.3,1.2c-.2.4-.5.8-.9,1.1-.4.3-.7.6-1.1.8-.5.3-1.1.5-1.5.5s-.9,0-1.3-.3c-.4-.2-.7-.5-1-.9-.2-.4-.5-.8-.6-1.3-.2-.8-.3-1.6-.1-2.4.1-.8.4-1.5.8-2.2.4-.7.9-1.3,1.6-1.9.6-.6,1.4-1.1,2.2-1.5.5-.3,1.1-.6,1.8-.8.6-.2,1.2-.4,1.8-.5l-1.1-5.8c-.4,0-.9,0-1.4.1-.5,0-1,.3-1.5.4s-1,.4-1.5.6c-.5.2-1,.5-1.4.7-1.1.6-2.2,1.3-3.1,2.2-.9.8-1.8,1.7-2.5,2.7s-1.3,2-1.7,3.1c-.5,1.1-.8,2.2-1,3.3-.2,1.1-.3,2.3-.3,3.4,0,1.1.2,2.2.5,3.3.4,1.4,1,2.5,1.8,3.4.8.9,1.8,1.5,2.9,1.9s2.4.4,3.7.3c1.3-.2,2.8-.7,4.2-1.5.8-.4,1.5-.9,2.3-1.5.8-.6,1.5-1.3,2.3-2,.7-.7,1.3-1.5,1.9-2.3.6-.8,1-1.6,1.3-2.4l-2.8-9.4c-1.5.9-3,1.8-4.5,2.6"/>
      <path class="st1" d="M421.3,427.7c-.1.5-.3.9-.6,1.3s-.6.8-1.1,1.1c-.4.4-.8.6-1.3.9l-.4.2-1.2-5.5c.2-.1.3-.3.5-.4.2-.1.4-.3.6-.3.5-.3.8-.4,1.2-.4s.7,0,1,.1c.3.1.5.3.7.6s.4.6.5,1c.1.5.1,1,0,1.4M427.4,428.3c.3-.7.6-1.4.7-2,.2-.7.2-1.4.2-2s-.2-1.4-.4-2.2c-.3-1.2-.9-2.1-1.6-2.8s-1.6-1-2.6-1.2c-1-.2-2.1,0-3.2.2-1.2.3-2.3.7-3.4,1.3-.8.4-1.5.8-2.1,1.2-.7.4-1.4.9-2,1.3-.7.5-1.3.9-2,1.5-.6.5-1.3,1.1-1.9,1.7.3,1.1.5,2.3.8,3.4.3,1.1.6,2.2.9,3.3.6,2.2,1.1,4.5,1.6,6.7.6,2.2,1.1,4.4,1.7,6.7l6.5-3.5-1.4-6.2,1.9-1.1,4,4.9,6.4-5-5.2-4.2c.6-.8,1-1.5,1.3-2.2"/>
      <path class="st1" d="M436.4,419.7c0-.3,0-.8,0-1.2,0-.5.1-.9.3-1.3.1-.5.3-.8.6-1.2.2-.4.6-.7,1-.9.3-.2.6-.2.9-.2.3,0,.5.1.7.3s.4.4.5.6c.2.3.3.5.3.8v.3c0,0-4.2,2.8-4.2,2.8h0ZM447.4,416.6c0-.9-.3-1.8-.5-2.6-.2-.8-.5-1.5-.8-2.2-.4-.7-.8-1.3-1.2-1.9-.5-.5-1-1-1.6-1.3s-1.2-.6-1.9-.7-1.5,0-2.2,0c-.8.1-1.6.5-2.5,1-1.1.6-2,1.3-2.8,2.1-.8.8-1.5,1.6-2,2.6-.5.9-1,1.9-1.3,2.9-.3,1-.6,2-.7,3,0,1-.2,2,0,3,0,1,.2,1.9.5,2.8.2.9.6,1.7,1,2.4.4.8.9,1.4,1.4,2,.5.6,1.1,1,1.8,1.4.7.3,1.4.6,2.2.7.8.1,1.6,0,2.5-.1.9-.2,1.8-.6,2.8-1.1.5-.3,1-.6,1.4-.9.5-.4,1-.7,1.4-1.1.5-.4.9-.8,1.3-1.2.4-.5.8-.9,1.1-1.5l-1.1-7c-.2.4-.6.8-.9,1.3-.4.5-.8,1-1.2,1.4-.4.5-.9.9-1.3,1.3-.5.4-.9.7-1.2.9-.8.4-1.5.6-2.2.4-.7-.1-1.2-.5-1.7-1,1.6-1.2,3.3-2.3,4.9-3.5,1.6-1.2,3.3-2.3,4.9-3.3"/>
      <path class="st1" d="M455.2,408.4c0-.5.1-.9.3-1.3.1-.5.3-.8.6-1.2.2-.4.6-.7,1-.9.3-.2.6-.2.9-.2.3,0,.5.1.7.3s.4.4.5.6c.2.3.3.5.3.8v.3c0,0-4.2,2.8-4.2,2.8,0-.3,0-.8,0-1.2M463.8,410.1c-.4.5-.8,1-1.2,1.4-.4.5-.9.9-1.3,1.3-.5.4-.9.7-1.2.9-.8.4-1.5.6-2.2.4-.7-.1-1.2-.5-1.7-1,1.6-1.2,3.3-2.3,4.9-3.5,1.6-1.2,3.3-2.3,4.9-3.3,0-.9-.3-1.8-.5-2.6-.2-.8-.5-1.5-.8-2.2-.4-.7-.8-1.3-1.2-1.9-.5-.5-1-1-1.6-1.3s-1.2-.6-1.9-.7c-.7-.1-1.5,0-2.2,0-.8.1-1.6.5-2.5,1-1.1.6-2,1.3-2.8,2.1-.8.8-1.5,1.6-2,2.6-.5.9-1,1.9-1.3,2.9-.3,1-.6,2-.7,3,0,1-.2,2,0,3s.2,1.9.5,2.8c.2.9.6,1.7,1,2.4.4.8.9,1.4,1.4,2,.5.6,1.1,1,1.8,1.4.7.4,1.4.6,2.2.7.8.1,1.6,0,2.5-.1.9-.2,1.8-.6,2.8-1.1.5-.3,1-.6,1.4-.9.5-.3,1-.7,1.4-1.1.5-.4.9-.8,1.3-1.2.4-.5.8-.9,1.1-1.5l-1.1-7c-.2.4-.6.8-.9,1.3"/>
      <path class="st17" d="M387.5,483.9s0,0,.2,0c.2,0,.4,0,.6-.1h.3c0-.1.1-.1.1-.1.3,0,.5-.3.8-.5.4-.3.8-.6,1.3-.9s.8-.7,1.2-1.1c.4-.4.7-.7,1.1-1.1l1.9-2.1-2.4.4c-.2,0-.5,0-.7.2h-.3c-.2.2-.4.2-.6.3h-.3c-.6.4-1.2.7-1.7,1.1-.5.4-.9.7-1.2,1.1-.2.3-.4.6-.5,1,0,.2-.1.6,0,1.2,0,.5.2.7.2.7h0M388,504.7c-2.4.8-4.6,1.2-6.7,1.1-2.5-.1-4.8-.7-6.8-1.9-1.9-1.2-3.6-2.7-4.8-4.8-1.2-2-2.1-4.4-2.5-7.1-.4-3-.5-6.1,0-9.2.5-3.2,1.5-6.2,3-9.1,1.5-2.9,3.6-5.6,6.1-7.9,2.3-2.1,4.9-3.9,8-5.2h0c.3,0,.6-.2.8-.4.6-.2,1.2-.4,1.7-.6s1.5-.5,2.3-.7c1.4-.4,2.8-.5,4.2-.5v-.7c0-.2,0-.4,0-.6.1-.2.3-.3.5-.4l15.1-5.6v-.2c0-.2,0-.4.1-.6.1-.2.3-.3.5-.4,0,0,18-7.1,18.1-7.1.4-.1.7,0,.8.4h.2c0,0,3-1.1,3-1.1,1.9-.8,3.9-1.5,5.8-2.2,1.8-.7,3.5-1.4,5.3-2.2l-.2-.7c0-.2,0-.4.1-.7.1-.2.3-.4.5-.5l4.1-1.6c1-.4,2-.8,3-1.2s2-.8,3-1.2c.8-.3,1.5-.7,2.3-1,.3-.1.6-.3.9-.4.4-.1.8-.4,1.3-.6l4.3-2.1h0c.2,0,.3,0,.5,0,.1,0,.2.2.2.3l12.2-5.7c.2-.2.4-.4.6-.6.9-.8,1.9-1.4,3-1.9h.3c.4-.2.8-.4,1.2-.5.6-.2,1.2-.4,1.7-.5,1.1-.3,2.2-.3,3.1-.2.3,0,.6.1.8.2,0-.1.2-.2.2-.3.8-.9,1.7-1.7,2.7-2.5.9-.7,1.9-1.2,2.9-1.7h.4c.3-.3.7-.4,1-.5,1.9-.7,3.6-.9,5.2-.7,1.8.2,3.3.9,4.6,1.9.7.6,1.4,1.3,2,2.1.7-2.4,1.8-4.7,3.4-6.8,1.5-2.1,3.2-3.9,5.2-5.6,1.8-1.4,3.7-2.6,5.7-3.5.2,0,.4-.1.6-.3.9-.3,1.8-.7,2.7-1s2-.6,3-.9c1-.3,1.9-.4,2.9-.5,1-.1,2.1-.2,3-.1h2.5c.3.1.5.4.5.7l.7,14.3c1.1.7,2,1.7,2.7,2.9.8,1.3,1.3,2.8,1.5,4.6.4,2.8.2,5.6-.4,8.1-.7,2.6-1.9,5.1-3.5,7.3-1.6,2.1-3.5,4-5.6,5.6-1.8,1.3-3.7,2.4-5.8,3.4-.3.1-.6.2-.8.4l-.9.3c-.8.3-1.7.5-2.6.7-1.1.2-2.2.4-3.3.5-1.1.1-2.1.2-3.2.2-.7,0-1.4,0-2.1,0v1.2c.1.4-.2.8-.5,1l-19.6,9.2h0c0,0-.1,0-.2.1l-8.7,4h0c0,.5-.2.9-.6,1.1l-16.6,7c0,.2-.3.5-.5.6l-17,8.5h0c-.2,0-.3,0-.5,0-.2,0-.3-.3-.3-.5v-1.1c-.1,0-.3,0-.4.1-.2,0-.4.1-.6.2-1.4.5-2.8.8-4.1.7-1.4,0-2.8-.2-4.1-.7-1.1-.4-2.1-1-3-1.7l.9,5.3c0,.4-.2.8-.6,1l-17.3,8.1c-.1.2-.3.4-.5.5,0,0-17.9,7.5-17.9,7.6-.2,0-.3,0-.5,0-.1,0-.2-.2-.3-.4v-.3c-.3.2-.6.5-.8.7-.8.6-1.6,1.2-2.5,1.9-.9.6-1.8,1.2-2.6,1.6-.7.4-1.4.8-2.1,1-.2,0-.4.1-.6.3-.5.2-1,.4-1.5.6"/>
      <path class="st17" d="M388,483v-.2c0-.6,0-.8,0-.9,0-.2.2-.5.3-.7.2-.3.6-.6.9-.9.5-.4,1-.7,1.6-.9h.3c.2-.1.3-.2.6-.3h.3c.2-.2.3-.2.6-.2h.7c0,0-.6.6-.6.6-.3.3-.6.7-1,1.1-.4.4-.7.7-1.2,1-.4.3-.8.6-1.2.8-.3.2-.5.3-.7.4h-.1c0,0-.2.1-.3.1h-.2M522.8,399.1h0c-.9.3-1.9.7-2.8,1.1-.2,0-.4.1-.6.3-2,.9-4.1,2.2-5.9,3.6-2.1,1.7-3.9,3.6-5.5,5.8-1.2,1.8-2.2,3.6-3,5.6-.4-.4-.9-.8-1.3-1.2-1.4-1.1-3-1.8-4.9-2-1.7-.2-3.5,0-5.5.7-2,.7-.7.3-1.1.4s-.3.1-.5.2c-1.1.5-2.2,1.1-3.1,1.8-1,.8-1.9,1.6-2.8,2.5-.2,0-.3,0-.5,0-1.1-.2-2.2,0-3.4.2-.6.1-1.2.3-1.8.6s-.8.3-1.2.5h-.3c-1.1.6-2.2,1.3-3.2,2.2-.2.1-.3.3-.5.5l-1.9.9-9.6,4.5s0-.1-.1-.1c-.3-.2-.7-.2-1,0-.3.1-.1,0-.2,0l-4.3,2.1c-.4.2-.8.4-1.3.6-.3.1-.6.2-.8.4-.8.3-1.6.7-2.3,1-1,.4-2,.8-3,1.2-1,.4-2,.8-3,1.2l-4.1,1.6c-.4.1-.8.5-1,.9s-.3.8-.2,1.2c-1.5.7-3,1.2-4.5,1.8-2,.7-3.9,1.5-5.8,2.2l-2.7.9c-.3-.3-.7-.3-1.2-.1-.5.2,0,0,0,0l-3.5,1.3-10.8,4.3-3.7,1.5c-.4.1-.8.4-1,.8-.1.2-.2.4-.3.6l-10.8,4-3.7,1.4c-.4.1-.8.4-1,.8-.2.3-.3.6-.3.9-1.1,0-2.2.2-3.4.6-.8.2-1.6.5-2.4.7-.8.3-1.2.4-1.8.7-.3.1-.6.2-.8.4-3.1,1.4-5.9,3.2-8.2,5.4-2.6,2.4-4.8,5.2-6.3,8.2-1.5,3-2.6,6.1-3.1,9.4-.5,3.1-.5,6.3,0,9.4.4,2.8,1.3,5.2,2.6,7.3,1.3,2.1,3,3.8,5,5,2.1,1.2,4.4,1.9,7,1.9,2.2,0,4.5-.3,7-1.2,2.4-.9,1-.4,1.5-.6.2,0,.4-.1.6-.3.7-.3,1.4-.7,2.2-1.1.9-.5,1.9-1.1,2.7-1.7.9-.6,1.7-1.2,2.5-1.9h0c0,.1.2.2.3.3.3.2.6.2,1,0s0,0,0,0l3.7-1.6,10.6-4.5,3.5-1.5c.3-.1.6-.4.8-.7l1.7-.8,11.8-5.6,3.5-1.7c.8-.4,1.3-1.3,1.2-2.1l-.5-3.2c.5.3,1,.5,1.5.7,1.3.5,2.8.8,4.3.8,1.4,0,2.9-.2,4.4-.8,1.5-.5.2,0,.2,0v.3c0,.4.2.8.6,1,.3.2.6.2,1,0,.4-.1.1,0,.2,0l4.3-2.1,9.6-4.8,3-1.5c.3-.2.6-.4.8-.7l.8-.3s12-5.1,12-5.1l3.5-1.5c.6-.2,1-.8,1.2-1.4l8-3.7h.3c0-.1.1-.1.2-.1l4.3-2,12.1-5.7,3.1-1.5c.7-.3,1.2-1.1,1.2-1.9v-.2c.3,0,.7,0,1.1,0,1.1,0,2.1,0,3.2-.2,1.1,0,2.3-.3,3.4-.5,1-.2,1.9-.4,2.7-.7l1-.3c.3-.1.6-.3.9-.4,2.1-1,4.1-2.1,6-3.5,2.3-1.7,4.3-3.7,5.9-5.8,1.7-2.3,3-4.9,3.7-7.6.8-2.7.9-5.6.5-8.5-.3-1.8-.8-3.4-1.6-4.8-.7-1.2-1.6-2.2-2.6-2.9v-1.3c0,0-.5-10.1-.5-10.1v-2.6c-.2-.6-.5-1.1-1.1-1.1h-2.5c-1-.2-2.1-.1-3.2,0-1,.1-2,.3-3,.6-1,.3-2,.5-3,.9M388.4,484.5h.3c0-.1.2-.2.2-.2.3-.1.6-.3.9-.5.5-.3.9-.6,1.3-1,.5-.3.9-.8,1.3-1.1.4-.4.8-.8,1.1-1.2l2.8-3.1v-.4s-3.7.5-3.7.5c-.3,0-.6.1-.8.2h-.3c-.2.2-.4.3-.6.3h-.3c-.7.4-1.3.8-1.9,1.2-.6.4-1,.9-1.4,1.3-.3.4-.6.9-.7,1.4-.1.5-.1,1,0,1.6,0,.6.2.8.3.9,0,.1.2.2.2.2,0,0,.3,0,.5,0,.3,0,.5,0,.8-.2M522.9,400.6c.9-.3,1.9-.6,2.9-.9.9-.2,1.9-.4,2.9-.6,1-.1,2-.1,2.9-.1h2.4c0,.1.1,2.8.1,2.8l.5,10v1.9c1.2.7,2.2,1.7,2.9,2.9.7,1.2,1.2,2.7,1.4,4.4.4,2.7.2,5.3-.4,7.8-.7,2.5-1.8,4.9-3.4,6.9-1.5,2-3.3,3.8-5.4,5.4-1.7,1.3-3.6,2.3-5.6,3.3-.3.1-.6.2-.8.4-.3.1-.6.2-.9.3-.8.3-1.6.5-2.5.6-1.1.2-2.2.4-3.3.5-1,0-2.1.2-3.1.2-1,0-1.9,0-2.7,0h-.4s.2,2.3.2,2.3l-3.2,1.5-12.1,5.7-4.3,2h0s-9.6,4.4-9.6,4.4v.8c0,0-3.4,1.5-3.4,1.5l-12,5-1.7.7v.4s-3.1,1.5-3.1,1.5l-9.6,4.8-4.3,2.2v-2c-.2,0-.4.1-.5.2-.2,0-.5.2-.7.3-.2,0-.4.1-.6.2-1.3.5-2.6.7-3.9.7-1.4,0-2.7-.2-3.9-.7-1.1-.5-2.2-1.1-3.2-1.8-.5-.4-.9-.8-1.4-1.3l.7,4.3.6,3.5-3.5,1.7-11.8,5.6-2.5,1.2v.3s-3.5,1.5-3.5,1.5l-10.6,4.5-3.7,1.6v-1.5c-.7.5-1.3,1-1.9,1.5-.8.6-1.6,1.2-2.4,1.8s-1.7,1.1-2.6,1.6c-.7.4-1.3.7-2,1-.2,0-.4.1-.6.2-.5.2-.9.4-1.4.5-2.3.8-4.4,1.1-6.5,1.1-2.4,0-4.6-.7-6.5-1.8-1.9-1.1-3.4-2.6-4.7-4.6-1.2-2-2-4.3-2.4-6.9-.4-3-.4-6,0-8.9.5-3.1,1.5-6,2.9-8.8,1.5-2.8,3.5-5.4,5.9-7.6,2.2-2,4.8-3.7,7.7-5.1h0c.3,0,.5-.2.8-.4.6-.2,1.1-.4,1.7-.6.6-.2,1.5-.5,2.2-.7,1.5-.4,2.9-.5,4.4-.5h.7s-.2-1.8-.2-1.8l3.7-1.4,11.4-4.2.8-.3v-1c-.1,0,3.6-1.5,3.6-1.5l10.8-4.3,3.5-1.3.6,3.4v.3c0-.1,0-.2,0-.2l.3-3.2,3-1c1.9-.8,3.9-1.5,5.8-2.2,1.9-.7,3.8-1.5,5.6-2.3l.5-.2s-.4-1.5-.4-1.5l4.1-1.6c1-.4,2-.8,3-1.2,1-.4,2-.8,3-1.2.8-.3,1.6-.7,2.3-1,.3-.1.6-.3.9-.4.4-.1.9-.4,1.3-.6l4.3-2.1v.7c0,0,11-5.1,11-5.1l2.2-1c.2-.2.5-.4.7-.6.9-.8,1.8-1.3,2.7-1.8h.3c.4-.2.8-.4,1.2-.5.6-.2,1.1-.4,1.6-.5,1-.2,2-.3,2.9-.2s.8.2,1.2.3c.2-.2.4-.5.6-.8.8-.9,1.6-1.6,2.5-2.3.8-.6,1.8-1.2,2.7-1.6h.4c.3-.3.7-.4,1-.5,1.8-.6,3.4-.8,4.9-.7,1.6.2,3.1.8,4.3,1.8,1.1.9,2,2,2.7,3.3,0-.6.3-1.2.4-1.7.7-2.4,1.8-4.6,3.2-6.6,1.4-2,3.1-3.8,5-5.3,1.7-1.4,3.5-2.5,5.5-3.4.2,0,.4-.1.6-.3.9-.3,1.7-.7,2.6-1h0"/>
      <path class="st1" d="M392.5,463.1l.6,10.4c-.5,0-1,.2-1.4.3-.5.2-.9.3-1.4.5-1.1.5-2.2,1.1-3.2,1.8-1,.7-1.8,1.5-2.5,2.4-.7.9-1.2,1.9-1.5,3-.3,1.1-.4,2.2-.2,3.4.1.9.4,1.6.7,2.2.3.6.8.9,1.4,1.2.5.2,1.2.3,1.9.2s1.5-.3,2.3-.6c.6-.2,1.2-.5,1.8-.9.6-.4,1.2-.8,1.8-1.3.6-.5,1.2-.9,1.7-1.5.5-.5,1-1,1.5-1.5l1.2,11.3c-.6.6-1.2,1.1-1.9,1.7-.7.5-1.4,1.1-2.1,1.6-.7.5-1.5,1-2.2,1.3-.7.4-1.4.8-2.1,1.1-2.3,1-4.3,1.4-6.3,1.3s-3.7-.5-5.2-1.4c-1.5-.9-2.8-2.2-3.8-3.7-1-1.6-1.7-3.5-2-5.7-.4-2.6-.4-5.2,0-7.7.4-2.6,1.2-4.9,2.4-7.2,1.2-2.3,2.8-4.3,4.8-6.1,2-1.8,4.3-3.3,7-4.5,1.1-.5,2.2-.8,3.3-1.2,1.2-.3,2.3-.4,3.4-.4"/>
    </g>
  </g>
  <polygon class="st1" points="430.3 480.6 418.5 486.1 416.9 476.2 411.5 478.5 412.7 489 402 493.5 398.1 459.7 409.5 455.5 411.2 472.8 416.5 470.6 414 452.7 424.8 448.5 430.3 480.6"/>
  <g class="st14">
    <g>
      <path class="st1" d="M458.8,434c0,5.9.3,11.7.6,17.4.3,5.7.6,11.5,1,17.3l-9.6,4.8v-3.8c-.4.5-.7,1-1.1,1.4s-.8.9-1.2,1.2c-.5.4-.9.7-1.4,1-.5.3-1,.5-1.4.7-1.1.4-2.1.6-3.1.6-1,0-1.9-.2-2.8-.5-.9-.4-1.7-.8-2.5-1.5-.7-.6-1.4-1.3-2-2.2-.6-.8-1-1.7-1.4-2.6-.4-.9-.6-1.9-.8-2.9-.2-1.4-.4-2.9-.6-4.5-.2-1.6-.3-3.1-.4-4.7-.1-1.6-.1-3.2,0-4.8,0-1.6,0-3.2.2-4.7,1.9-.7,3.9-1.4,5.9-2.2,2-.7,3.9-1.5,5.8-2.4-.1,1.5-.3,3.1-.5,4.6-.1,1.5-.3,3-.4,4.6,0,1.5-.1,3,0,4.5,0,1.5.1,3,.3,4.4,0,.3.1.8.2,1.4.1.6.3,1.2.5,1.7.2.6.5,1,.8,1.3.3.3.8.4,1.3.2.6-.2,1.1-.7,1.5-1.5.4-.7.7-1.6.9-2.6s.4-2.2.5-3.4c0-1.2.2-2.5.2-3.9,0-1.3,0-2.6-.1-3.9s-.2-2.5-.3-3.7c0-1.1-.2-2.2-.3-3.1,0-.9-.2-1.6-.2-2.1s0-.6-.2-.9c0-.3-.1-.6-.2-.9,1-.4,2-.8,3.1-1.2,1-.4,2-.8,3.1-1.3.8-.3,1.6-.7,2.4-1,.8-.3,1.6-.7,2.4-1.1"/>
      <path class="st1" d="M505.4,432.7c.3,2.3.6,4.5.8,6.9.2,2.3.3,4.6.5,7l-12.1,5.7c0-2.9-.1-5.8-.2-8.7,0-2.9-.4-5.7-.8-8.5,0-.2,0-.5-.2-.9,0-.4-.2-.9-.3-1.5-.1-.5-.3-1.1-.4-1.6-.2-.6-.3-1-.5-1.5-.2-.5-.4-.8-.6-1-.2-.2-.5-.3-.7-.2-.6.2-1,.6-1.2,1.2s-.4,1.2-.5,1.8c0,.7,0,1.3,0,1.9,0,.6,0,1.1.2,1.5,0,.7.2,1.3.3,2,.1.7.2,1.3.3,2,.4,2.5.6,4.9.9,7.4.2,2.5.5,5,.6,7.5l-11.2,5.2c0-2.9-.1-5.8-.3-8.6-.1-2.9-.4-5.7-.8-8.5,0-.2,0-.5-.2-.9,0-.5-.2-1-.3-1.5-.1-.5-.3-1.1-.4-1.7-.2-.6-.3-1.1-.6-1.6s-.4-.8-.6-1.1c-.2-.3-.5-.3-.7-.2-.4.1-.7.5-.9.9-.2.4-.4.9-.5,1.5s-.1,1.2-.1,1.8c0,.6,0,1.3,0,1.8v1.6c.2.5.2.9.2,1.1l2,17.5-12,5c-.1-2.8-.3-5.5-.4-8.4s-.3-5.6-.5-8.3c-.2-2.8-.4-5.5-.7-8.3-.2-2.7-.6-5.5-1-8.2l11.2-5.2.3,2.8c.3-.6.6-1.2,1-1.8s.8-1.3,1.2-1.8c.4-.6.9-1.1,1.5-1.5.5-.5,1.1-.8,1.7-1.1.8-.3,1.5-.5,2.1-.7.6-.1,1.2-.2,1.8,0,.5,0,1,.3,1.5.6s.9.8,1.3,1.5c.4-.8.9-1.5,1.3-2.2.4-.7.9-1.3,1.4-1.9.5-.6,1.1-1.1,1.7-1.6.6-.5,1.3-.9,2.1-1.2,1.5-.6,2.9-.9,4-.7,1.2.1,2.2.5,3,1.2.8.7,1.6,1.6,2.2,2.6.6,1.1,1.1,2.3,1.5,3.6.4,1.3.7,2.6,1,3.9.2,1.3.5,2.5.6,3.7"/>
      <path class="st1" d="M535.3,422.6c.3,2.2.2,4.2-.3,6.1-.5,1.9-1.4,3.6-2.5,5.2-1.2,1.6-2.6,3-4.3,4.2-1.7,1.2-3.5,2.3-5.5,3.1-.8.3-1.6.6-2.6.8s-1.9.3-2.9.4c-1,0-2,.1-2.9.2-.9,0-1.8,0-2.5,0l-.3-9.8c1.5.2,3,.2,4.7,0,1.7-.3,3.3-.7,4.9-1.4.3-.1.7-.3,1.1-.5.4-.2.8-.5,1.2-.7.4-.3.7-.6.9-.9.2-.4.3-.7.3-1.2,0-.3-.2-.5-.4-.7s-.5-.2-.8-.2c-.3,0-.7,0-1,0s-.8.2-1.1.3c-.4.1-.7.3-1,.4s-.6.2-.8.3c-1.4.6-2.6.9-3.8.9-1.2,0-2.2-.2-3.1-.6-.9-.4-1.7-1.1-2.3-2.1-.6-.9-1-2.1-1.2-3.4-.3-1.9-.1-3.7.4-5.5.5-1.8,1.4-3.5,2.5-5s2.4-2.9,4-4.2c1.5-1.3,3.2-2.2,4.9-3,.8-.3,1.6-.6,2.4-.9.8-.3,1.7-.6,2.5-.7.8-.2,1.6-.4,2.5-.5s1.6-.1,2.3,0l.5,10c-1.1,0-2.3.3-3.5.5-1.2.2-2.4.6-3.5,1.1-.2,0-.5.2-.8.4-.3.1-.7.3-1,.5s-.7.4-1.1.6c-.3.2-.7.5-.9.7s-.5.5-.6.8c-.2.3-.2.6-.1.9,0,.3.2.6.5.6.3,0,.6,0,1,0s.8-.2,1.3-.4c.5-.2.9-.4,1.4-.6.5-.2.9-.4,1.3-.6.4-.2.7-.3,1-.4,1.3-.4,2.5-.7,3.5-.6,1.1,0,2,.3,2.8.8.8.5,1.5,1.1,2,2,.5.9.9,2,1.1,3.3"/>
    </g>
  </g>
  <polygon class="st19" points="474.4 404.8 502.1 385.8 497.6 379.5 474.4 404.8"/>
  <polygon class="st19" points="469 398.4 493 360.6 498.8 365.8 469 398.4"/>
  <polygon class="st19" points="369.4 443.3 350.2 424.7 344.7 433 369.4 443.3"/>
  <polygon class="st19" points="363.8 448.3 327.7 444.2 332 435.1 363.8 448.3"/>
  <g class="st11">
    <g>
      <path class="st15" d="M308.8,441.2c2.3-.8,4.1-3.4,3.9-5.7-.2-2.4-2.2-3.6-4.5-2.8-2.3.8-4.1,3.4-3.9,5.7.2,2.4,2.2,3.6,4.5,2.8"/>
      <path class="st19" d="M543.6,414.7c2.3-.8,4.1-3.4,3.9-5.7-.2-2.4-2.2-3.6-4.5-2.8-2.3.8-4.1,3.4-3.9,5.7s2.2,3.6,4.5,2.8"/>
      <path class="st15" d="M382.9,416.1c.2.3,14.6,9.7,14.6,9.7l-13.9-11.8-.7,2.1h0Z"/>
      <path class="st15" d="M391.3,407.4c.2-.3,9.4,12.6,9.4,12.6l-7.9-14-1.5,1.5h0Z"/>
    </g>
  </g>
  <polygon class="st15" points="387.4 411.5 401.1 425.7 389.5 410 387.4 411.5"/>
  <g class="st10">
    <g>
      <path class="st15" d="M393.9,406.3c-1.2,1.9-3.4,2.6-4.9,1.7-1.5-.9-1.6-3.1-.4-5,1.2-1.9,3.4-2.6,4.9-1.7,1.5.9,1.6,3.1.4,5"/>
      <path class="st15" d="M378.5,415c0-2.4,1.7-4.9,4.1-5.5,2.3-.7,4.2.7,4.3,3.1,0,2.4-1.8,4.8-4.1,5.5-2.3.7-4.2-.7-4.3-3.1"/>
      <path class="st15" d="M381.6,404.5c2.3-.9,4.3.3,4.6,2.7.3,2.3-1.4,4.9-3.7,5.8-2.3.9-4.3-.3-4.6-2.7-.2-2.3,1.4-4.9,3.7-5.7"/>
      <path class="st15" d="M390.2,400.6c1.2,1.3.8,3.8-.8,5.4-1.6,1.6-3.9,1.8-5,.5-1.2-1.3-.8-3.8.8-5.4,1.6-1.6,3.8-1.9,5-.5"/>
      <path class="st15" d="M387.4,415.5c-2.5.8-4.6-.8-4.7-3.4,0-2.6,2-5.3,4.5-6.1,2.5-.7,4.6.8,4.7,3.4,0,2.6-2,5.3-4.5,6.1"/>
      <path class="st15" d="M464.4,373.9c-.2.3-5.5,18.1-5.5,18.1l7.2-18.6-1.6.6h0Z"/>
      <path class="st15" d="M471.7,376.9c.2,0-8.2,14.9-8.2,14.9l9.5-14.3s-1.2-.6-1.2-.6Z"/>
    </g>
  </g>
  <polygon class="st15" points="468.3 375.5 459.3 395.1 469.6 376.6 468.3 375.5"/>
  <g class="st13">
    <g>
      <path class="st15" d="M472.9,378.5c-1.5-.1-2.4-1.7-1.9-3.5.5-1.8,2.1-3.1,3.6-3,1.5.1,2.4,1.7,1.9,3.5-.5,1.8-2.1,3.1-3.6,3"/>
      <path class="st15" d="M464.6,369.3c1.7-1.3,3.8-1,4.6.7.8,1.7,0,4.1-1.8,5.4-1.7,1.3-3.8,1-4.6-.7-.7-1.7,0-4.1,1.8-5.4"/>
      <path class="st15" d="M472.8,366.6c.9,1.6.3,4-1.4,5.5-1.7,1.4-3.8,1.3-4.7-.3-.9-1.6-.3-4,1.4-5.5,1.7-1.4,3.8-1.3,4.7.3"/>
      <path class="st15" d="M476.7,372.2c-.9,1.7-2.7,2.7-4.1,2.1-1.4-.6-1.8-2.5-1-4.2.9-1.7,2.7-2.7,4.1-2.1,1.4.6,1.8,2.5,1,4.2"/>
      <path class="st15" d="M465.3,377.6c-.8-1.9,0-4.5,2-6,2-1.4,4.2-1.1,5,.8.8,1.9,0,4.5-2,6s-4.2,1.1-5-.8"/>
      <path class="st15" d="M493.7,476.9c-.2-.3-14.3-8.5-14.3-8.5l13.8,10.5.6-2Z"/>
      <path class="st15" d="M486,485.4c-.2.3-9.5-11.4-9.5-11.4l8.1,12.8,1.4-1.4h0Z"/>
    </g>
  </g>
  <polygon class="st15" points="489.7 481.3 476 468.6 487.7 482.8 489.7 481.3"/>
  <g class="st12">
    <g>
      <path class="st15" d="M483.6,486.5c1.1-1.8,3.2-2.6,4.6-1.8,1.5.8,1.7,2.9.6,4.7-1.1,1.8-3.2,2.6-4.6,1.8-1.5-.8-1.7-2.9-.6-4.7"/>
      <path class="st15" d="M498.1,477.7c.2,2.2-1.5,4.6-3.7,5.4-2.2.8-4.1-.5-4.2-2.7-.2-2.2,1.5-4.6,3.7-5.4,2.2-.8,4.1.5,4.2,2.7"/>
      <path class="st15" d="M495.5,487.6c-2.2.9-4.1-.1-4.5-2.3-.3-2.2,1.2-4.7,3.4-5.6,2.2-.9,4.1.1,4.5,2.3.3,2.2-1.2,4.7-3.4,5.6"/>
      <path class="st15" d="M487.4,491.7c-1.2-1.2-.9-3.5.5-5.1,1.5-1.6,3.6-1.9,4.8-.7,1.2,1.2.9,3.5-.5,5.1s-3.6,1.9-4.8.7"/>
      <path class="st15" d="M489.4,477.6c2.4-.8,4.5.5,4.6,3,.2,2.4-1.6,5.1-4.1,5.9-2.4.8-4.5-.5-4.6-3-.2-2.4,1.7-5.1,4.1-5.9"/>
      <path class="st15" d="M395.1,514.8c.2-.3,4.9-18.4,4.9-18.4l-6.7,19.1,1.8-.6h0Z"/>
      <path class="st15" d="M387,512.5c-.3,0,7.9-15.5,7.9-15.5l-9.3,15,1.4.5Z"/>
    </g>
  </g>
  <polygon class="st15" points="390.8 513.6 399.3 493.3 389.4 512.5 390.8 513.6"/>
  <g class="st4">
    <g>
      <path class="st15" d="M385.8,510.9c1.6,0,2.6,1.5,2.2,3.3-.4,1.8-2.1,3.3-3.8,3.3-1.6,0-2.6-1.5-2.2-3.3.4-1.8,2.1-3.3,3.8-3.3"/>
      <path class="st15" d="M395,519.3c-1.8,1.4-4,1.3-4.9-.3-.9-1.6-.2-4.1,1.6-5.5,1.8-1.4,4-1.3,4.9.3.9,1.6.2,4.1-1.6,5.5"/>
      <path class="st15" d="M386.5,522.7c-1-1.5-.5-4,1.3-5.5s4-1.6,5,0c1,1.5.5,4-1.2,5.5-1.7,1.5-4,1.6-5,0"/>
      <path class="st15" d="M382,517.4c.8-1.8,2.7-2.9,4.3-2.4,1.5.5,2.1,2.3,1.2,4.1-.8,1.8-2.7,2.9-4.3,2.4-1.5-.5-2.1-2.3-1.2-4.1"/>
      <path class="st15" d="M393.8,511.2c1,1.8.2,4.5-1.8,6.1-2,1.5-4.4,1.4-5.4-.4-1-1.8-.2-4.5,1.8-6.1,2-1.5,4.4-1.4,5.4.4"/>
    </g>
  </g>
  <polygon class="st19" points="523.8 445.6 536.7 462.6 541.6 456.4 523.8 445.6"/>
  <polygon class="st19" points="375.5 506.1 348.9 527.4 354 533.1 375.5 506.1"/>
  <polygon class="st19" points="377 511.1 355.9 550.3 349.5 545.8 377 511.1"/>
  <g class="st3">
    <g>
      <path class="st19" d="M342.9,507.9c2.3-.8,4.1-3.4,3.9-5.7-.2-2.4-2.2-3.6-4.5-2.8-2.3.8-4.1,3.4-3.9,5.7.2,2.4,2.2,3.6,4.5,2.8"/>
      <path class="st15" d="M347.7,562.7c2.2-1.1,3.8-3.8,3.3-6-.4-2.2-2.7-3.2-4.9-2.1-2.2,1.1-3.8,3.8-3.3,6,.4,2.2,2.7,3.2,4.9,2.1"/>
      <path class="st15" d="M525.7,398c1.8-.6,3.1-2.6,3-4.5-.1-1.8-1.7-2.8-3.5-2.2-1.8.6-3.1,2.6-3,4.5.1,1.8,1.7,2.8,3.5,2.2"/>
      <path class="st15" d="M342,459.1c1.8-.6,3.1-2.6,3-4.5s-1.7-2.8-3.5-2.2c-1.8.6-3.1,2.6-3,4.5s1.7,2.8,3.5,2.2"/>
      <path class="st15" d="M347.1,538.1c1.7-.8,2.9-2.9,2.6-4.7-.4-1.8-2.1-2.5-3.8-1.6-1.7.8-2.9,2.9-2.6,4.7.3,1.7,2.1,2.5,3.8,1.6"/>
      <path class="st15" d="M541,464.5c1.4,0,2.8-1.2,3.2-2.7.4-1.5-.4-2.8-1.8-2.8s-2.8,1.2-3.1,2.7c-.4,1.5.4,2.8,1.7,2.8"/>
      <path class="st15" d="M504.2,355.3c1.8-.6,3.1-2.6,3-4.5-.1-1.8-1.7-2.8-3.5-2.2-1.8.6-3.1,2.6-3,4.5s1.7,2.8,3.5,2.2"/>
    </g>
  </g>
  <polygon class="st19" points="521.3 448 531.7 474.7 525 477.9 521.3 448"/>
  <g class="st5">
    <path class="st19" d="M529.4,489.1c-.6,1.5-.1,3,1.1,3.3s2.8-.6,3.4-2.1.1-3-1.1-3.3-2.8.6-3.4,2.1"/>
  </g>
</svg>