<?xml version="1.0" encoding="UTF-8"?>
<svg id="Layer_1" xmlns="http://www.w3.org/2000/svg" xmlns:xlink="http://www.w3.org/1999/xlink" version="1.1" viewBox="0 0 52.3 54.9">
  <!-- Generator: Adobe Illustrator 29.7.0, SVG Export Plug-In . SVG Version: 2.1.1 Build 138)  -->
  <defs>
    <style>
      .st0 {
        fill: none;
      }

      .st1 {
        fill: #009fe0;
      }

      .st2 {
        fill: #ebebec;
      }

      .st3 {
        clip-path: url(#clippath-11);
      }

      .st4 {
        clip-path: url(#clippath-10);
      }

      .st5 {
        clip-path: url(#clippath-12);
      }

      .st6 {
        clip-path: url(#clippath-1);
      }

      .st7 {
        clip-path: url(#clippath-3);
      }

      .st8 {
        clip-path: url(#clippath-4);
      }

      .st9 {
        clip-path: url(#clippath-2);
      }

      .st10 {
        clip-path: url(#clippath-7);
      }

      .st11 {
        clip-path: url(#clippath-6);
      }

      .st12 {
        clip-path: url(#clippath-9);
      }

      .st13 {
        clip-path: url(#clippath-8);
      }

      .st14 {
        clip-path: url(#clippath-5);
      }

      .st15 {
        fill: #fff;
      }

      .st16 {
        fill: #f9ed25;
      }

      .st17 {
        clip-path: url(#clippath);
      }

      .st18 {
        fill: #fff200;
      }
    </style>
    <clipPath id="clippath">
      <polygon class="st0" points="19.7 32.1 44.1 23.5 45.3 38.5 20.8 47 19.7 32.1"/>
    </clipPath>
    <clipPath id="clippath-1">
      <polygon class="st0" points="19.7 32.1 44.1 23.5 45.3 38.5 20.8 47 19.7 32.1"/>
    </clipPath>
    <clipPath id="clippath-2">
      <polygon class="st0" points="19.7 32.1 44.1 23.5 45.3 38.5 20.8 47 19.7 32.1"/>
    </clipPath>
    <clipPath id="clippath-3">
      <polygon class="st0" points="19.7 32.1 44.1 23.5 45.3 38.5 20.8 47 19.7 32.1"/>
    </clipPath>
    <clipPath id="clippath-4">
      <polygon class="st0" points="19.7 32.1 44.1 23.5 45.3 38.5 20.8 47 19.7 32.1"/>
    </clipPath>
    <clipPath id="clippath-5">
      <polygon class="st0" points="19.7 32.1 44.1 23.5 45.3 38.5 20.8 47 19.7 32.1"/>
    </clipPath>
    <clipPath id="clippath-6">
      <polygon class="st0" points="19.7 32.1 44.1 23.5 45.3 38.5 20.8 47 19.7 32.1"/>
    </clipPath>
    <clipPath id="clippath-7">
      <polygon class="st0" points="19.7 32.1 44.1 23.5 45.3 38.5 20.8 47 19.7 32.1"/>
    </clipPath>
    <clipPath id="clippath-8">
      <polygon class="st0" points="19.7 32.1 44.1 23.5 45.3 38.5 20.8 47 19.7 32.1"/>
    </clipPath>
    <clipPath id="clippath-9">
      <polygon class="st0" points="19.7 32.1 44.1 23.5 45.3 38.5 20.8 47 19.7 32.1"/>
    </clipPath>
    <clipPath id="clippath-10">
      <polygon class="st0" points="19.7 32.1 44.1 23.5 45.3 38.5 20.8 47 19.7 32.1"/>
    </clipPath>
    <clipPath id="clippath-11">
      <polygon class="st0" points="19.7 32.1 44.1 23.5 45.3 38.5 20.8 47 19.7 32.1"/>
    </clipPath>
    <clipPath id="clippath-12">
      <polygon class="st0" points="19.7 32.1 44.1 23.5 45.3 38.5 20.8 47 19.7 32.1"/>
    </clipPath>
  </defs>
  <g>
    <polygon points="32.6 57.4 32.7 56.8 32.6 56.8 32.6 57.4"/>
    <path d="M50.7,10.4c-1.1-.5-3.7-1.7-4.8-1.7-2-.1-8.6,2.8-9.2,2.5l-4.8-4.2-1.3-6.7-.6-.2L1.2,12.4c-.2.2-.5.5-.6.8-.4,1.3,1.3,5.7,1.3,7.4l5.8,4.5c0,.4-6.5,3.8-7.3,4.7-.5.6-.5,1.2,0,1.7,2.7,1,5,3.7,8,3.3.5,5.3.5,10.6.7,16,.1,2.2.4,4.5.5,6.7,0,1.2,0,7.1.5,7.7l9,5.7h.7c5.8-2.9,11.3-7.2,17.1-10.2.3-.2,8.1-4.6,8.1-4.6,1.5-.8.9-1.6,1-2.8.6-7.8.6-16.7.9-24.7.1-3.8.2-7.7.2-11.5.2-.9,3.8-3.1,4.7-4,1.6-1.6.6-1.9-1-2.6ZM30.3,22.4l-14,6.8,13.3-7,14.1-6.9-13.4,7.2ZM44.2,15.8l.7.4-27.6,13.4,26.9-13.8ZM42.2,15.3c-8.2,4.8-17.9,8.4-26.2,13.1l-.9-.2,27.6-13.6c.4.4-.3.5-.5.6ZM41.3,14.8c-7.2,4.2-17.2,9-25,12.5-.4.2-1.9,1.1-2.2.5l27.6-13.6c.4.4-.3.5-.5.6ZM13.2,27.4c0-.4.5-.4.7-.6,6.1-3.7,15.1-7.6,21.7-10.7,1.3-.6,3.3-1.7,4.6-2.2.4-.1.5-.2.6.3l-27.6,13.2ZM12.2,27c0-.4.5-.4.7-.6,6.5-3.9,15.7-7.9,22.6-11.2,1-.5,2.6-1.3,3.6-1.7.4-.1.5-.2.6.3l-27.6,13.2ZM11.3,26.5c0-.3.4-.5.7-.7,6.5-3.8,15.1-7.6,22.1-10.8,1.2-.6,3-1.6,4.2-2,.4-.1.5-.2.6.3l-27.6,13.2ZM11.2,25.8l-.9-.2,27.6-13.1-26.7,13.3ZM37,12.1l-24.2,12c-.9.3-1.7.9-2.6,1.2-.4.1-.4.5-.8,0,7.9-3.6,15.6-7.7,23.4-11.4,1.3-.6,2.8-1.3,4.2-1.7ZM18.2,30l27.6-13.8-.7.6c-7.4,3.7-14.7,7.5-22.1,11.3-1.2.6-2.8,1.6-4,2-.4.1-.4.5-.8,0ZM45.1,48.6l-.2,6.7-9.4,5.3-15.6,9.4-.9-39.1,27.3-13.7-1.2,31.4Z"/>
  </g>
  <polygon class="st1" points="45.1 48.6 44.9 55.2 35.5 60.6 19.9 69.9 19 30.8 46.3 17.1 45.1 48.6"/>
  <polygon class="st1" points="10.7 64.6 18.5 69.6 17.8 31.7 9.3 34.7 10.7 64.6"/>
  <path class="st2" d="M1.4,13.2L29.6,1c.3,0,.4.1.5.4.2.5.9,5.5.7,5.8L2.4,20l-1-6.8Z"/>
  <polygon class="st2" points="3.1 21 31.4 7.8 35.8 11.1 35.2 11.9 8.7 24.7 3.1 21"/>
  <path class="st2" d="M8.5,34.1c-.7.1-1.4.1-2.2-.1-.7-.3-4.5-2.5-5.2-3-.2-.1-.5-.2-.4-.6l7.8-4.7c3,1.7,6.3,2.9,9,5l-9.1,3.3Z"/>
  <path class="st2" d="M46.7,15.7c-.5,0-5.8-2.5-6.7-2.9-.6-.3-1.5-.6-1.8-1.2,2.3-.2,5.4-2.2,7.6-2.2.8,0,6.1,2.2,6.1,2.5-1,.6-4.2,3.7-5.1,3.7Z"/>
  <g class="st17">
    <path class="st15" d="M43.2,33.8c-.2-.3-.5-.6-.9-.7,0,0-.2,0-.2-.2,0-.2,0-.5.2-.6.4-.3.7-.6,1-1,.2-.4.4-.9.4-1.3,0-.6-.2-1.2-.5-1.5-.4-.3-.9-.5-1.5-.4-.5.1-1,.4-1.3.8-.4.5-.7,1.1-.9,1.7-.2.5-.5.8-.8,1-.3.2-.6.2-.9.3h0s-10.1,2-10.1,2h0c-.3,0-.6.1-.9,0-.3,0-.6-.2-.7-.7-.2-.6-.4-1.1-.7-1.4-.3-.3-.7-.4-1.2-.3-.6.1-1.2.5-1.6,1-.4.5-.7,1.1-.7,1.7,0,.5,0,.9.3,1.2.2.3.5.6.9.7,0,0,.2,0,.2.2,0,.2,0,.5-.2.6-.4.3-.7.6-1,1-.2.4-.4.9-.4,1.3,0,.6.2,1.2.5,1.5.4.3.9.5,1.5.4.5-.1,1-.4,1.3-.8.4-.5.7-1.1.9-1.7.2-.5.5-.8.8-1,.3-.2.6-.2.9-.3h0s10.1-2,10.1-2h0c.3,0,.6-.1.9,0,.3,0,.6.2.7.7.2.6.4,1.1.7,1.4.3.3.7.4,1.2.3.6-.1,1.2-.5,1.6-1s.7-1.1.7-1.7c0-.5,0-.9-.3-1.2h0ZM43.3,32.6c.2.2.5.4.6.6.3.4.4,1,.4,1.6,0,.9-.4,1.7-1,2.4-.6.7-1.3,1.2-2.2,1.3-.8.2-1.4,0-1.8-.5-.4-.4-.7-1-.9-1.6,0-.2-.2-.2-.3-.3-.2,0-.4,0-.7,0h0l-9.7,1.7s-.3.4-.4.4c-.2,0-.5.1-.7.2-.1,0-.2.2-.3.4-.3.7-.6,1.5-1.1,2-.5.6-1.1,1.1-1.9,1.2-.8.2-1.5,0-2-.5-.5-.5-.8-1.2-.7-2,0-.6.2-1.2.6-1.8.2-.3.4-.6.7-.9-.2-.2-.5-.4-.6-.6-.3-.4-.4-1-.4-1.6,0-.9.4-1.7,1-2.4.6-.7,1.3-1.2,2.2-1.3.8-.2,1.4,0,1.8.5.4.4.7,1,.9,1.6,0,.2.2.2.3.3.2,0,.4,0,.7,0h0l10.1-2h0c.2,0,.5-.1.7-.2.1,0,.2-.2.3-.4.3-.7.6-1.5,1.1-2,.5-.6,1.1-1.1,1.9-1.2.8-.2,1.5,0,2,.5.5.5.8,1.2.7,2,0,.6-.2,1.2-.6,1.8-.2.3-.4.6-.7.9"/>
  </g>
  <polygon class="st16" points="29.1 40.2 29.4 40.1 29.4 40.1 29.3 40.2 29.3 40.6 29.3 40.6 29.2 40.2 29.1 40.3 29.1 40.2"/>
  <polygon class="st16" points="29.8 39.9 29.9 39.9 29.9 40.3 29.9 40.3 29.8 40.1 29.6 40.2 29.6 40.4 29.6 40.5 29.5 40 29.6 40 29.6 40.2 29.8 40.1 29.8 39.9"/>
  <polygon class="st16" points="30 39.8 30.2 39.7 30.2 39.8 30 39.9 30.1 40 30.2 39.9 30.2 40 30.1 40 30.1 40.2 30.3 40.1 30.3 40.1 30 40.2 30 39.8"/>
  <g class="st6">
    <g>
      <path class="st16" d="M30.6,39.6h0s0,.3,0,.3h0s0,0,0,0,0,0,0,0,0,0,0,0c0,0,0,0,0-.1s0,0,0,0c0,0,0,0,0,0,0,0,0,0,0,0h0M30.6,40v-.4c0,0,0,0,0,0,0,0,.1,0,.1,0,0,0,0,0,0,0,0,0,0,0,0,0,0,0,0,0,0,0,0,0,0,0,0,0s0,0,0,0c0,0,0,0,0,0,0,0,0,0,0,0h-.1q0,0,0,0Z"/>
      <path class="st16" d="M31.2,39.4s0,0-.1,0c0,0,0,0,0,.1,0,0,0,0,0,0,0,0,0,0,.1,0,0,0,0,0,.1,0s0,0,0-.1c0,0,0,0,0,0s0,0-.1,0M31.2,39.3c0,0,.1,0,.2,0,0,0,0,0,0,.1,0,0,0,.1,0,.2,0,0,0,.1-.2.1,0,0-.1,0-.2,0,0,0,0,0,0-.1s0-.1,0-.2,0-.1.2-.1"/>
      <path class="st16" d="M31.8,39.3h.1c0,0,0,.1,0,.1,0,0,0,0-.1,0,0,0-.1,0-.2,0s0,0,0-.1c0,0,0-.1,0-.2s0-.1.2-.1h0s0,0,0,0h0c0,0-.1,0-.2,0,0,0,0,0-.1,0s0,0,0,.1c0,0,0,0,0,0,0,0,0,0,.1,0,0,0,0,0,0,0h0s0,0,0,0h0s0,0,0,0h0Z"/>
      <path class="st16" d="M32.3,39.1h0s0,.2,0,.2h0s0,0,0,0c0,0,0,0,0,0,0,0,0,0,0,0s0,0,0,0,0,0,0,0c0,0,0,0,0,0M32.3,38.9h0s0,.1,0,.1h0s0,0,0,0,0,0,0,0c0,0,0,0,0,0M32.4,39.2h-.1c0,0,0-.4,0-.4h.1c0,0,0,0,0,0s0,0,0,0c0,0,0,0,0,0,0,0,0,0,0,.1,0,0,0,0,0,0,0,0,0,0,0,0,0,0,0,0,0,0,0,0,0,0,0,0,0,0,0,0,0,0"/>
    </g>
  </g>
  <polygon class="st16" points="32.6 38.7 32.6 38.7 32.7 39.1 32.6 39.1 32.6 38.7"/>
  <polygon class="st16" points="33.1 38.5 33.1 38.5 33.2 38.9 33.1 38.9 32.8 38.7 32.9 39 32.8 39.1 32.8 38.6 32.8 38.6 33.1 38.8 33.1 38.5"/>
  <g class="st9">
    <g>
      <path class="st16" d="M33.5,38.5h.1c0,0,0,.1,0,.1,0,0,0,0-.1,0,0,0-.1,0-.2,0,0,0,0,0,0-.1,0,0,0-.1,0-.2s0-.1.2-.1h0s0,0,0,0h0c0,0-.1,0-.2,0,0,0,0,0-.1,0s0,0,0,.1c0,0,0,0,0,0s0,0,.1,0c0,0,0,0,0,0h0s0,0,0,0h0s0,0,0,0h0Z"/>
      <path class="st16" d="M33.9,38.2s0,0-.1,0c0,0,0,0,0,.1,0,0,0,0,0,0,0,0,0,0,.1,0,0,0,0,0,.1,0s0,0,0-.1c0,0,0,0,0,0s0,0-.1,0M33.9,38.1c0,0,.1,0,.2,0,0,0,0,0,0,.1,0,0,0,.1,0,.2,0,0,0,.1-.2.1,0,0-.1,0-.2,0,0,0,0,0,0-.1,0,0,0-.1,0-.2,0,0,0-.1.2-.1"/>
      <path class="st16" d="M34.7,38h.1c0,0,0,.1,0,.1,0,0,0,0-.1,0,0,0-.1,0-.2,0,0,0,0,0,0-.1,0,0,0-.1,0-.2s0-.1.2-.1h0s0,0,0,0h0c0,0-.1,0-.2,0,0,0,0,0-.1,0s0,0,0,.1c0,0,0,0,0,0,0,0,0,0,.1,0,0,0,0,0,0,0h0s0,0,0,0h0s0,0,0,0h0Z"/>
    </g>
  </g>
  <path class="st16" d="M35.2,37.8h0c0-.1,0,0,0,0h.1c0,0,0,0,0,0ZM35.1,37.6h0s.2.3.2.3h0s0,0,0,0h-.2c0,0,0,.2,0,.2h0s.1-.5.1-.5h0Z"/>
  <polygon class="st16" points="35.7 37.4 35.8 37.4 35.8 37.8 35.8 37.8 35.7 37.5 35.6 37.7 35.6 37.7 35.4 37.6 35.5 37.9 35.4 37.9 35.4 37.5 35.4 37.5 35.6 37.6 35.7 37.4"/>
  <polygon class="st16" points="35.9 37.3 36.1 37.2 36.1 37.3 35.9 37.3 36 37.5 36.1 37.4 36.1 37.4 36 37.5 36 37.6 36.2 37.6 36.2 37.6 35.9 37.7 35.9 37.3"/>
  <g class="st7">
    <g>
      <path class="st16" d="M21.9,39.8s0,0,0,0v-.3c-.1-.2-.2-.4-.2-.6,0-.2-.1-.4-.2-.6,0-.1,0-.2,0-.3,0-.1,0-.2,0-.4v-.2s0,0,0,0h.2c.1-.3.3-.4.4-.5.1,0,.3-.2.4-.3,0,0,.1,0,.2,0h0s0,0,0,0c0,0,.2,0,.3,0,0,0,.2,0,.3,0,.1,0,.2,0,.3,0,0-.1,0-.2.2-.3,0-.1.2-.2.3-.3.1-.1.2-.2.4-.3,0,0,0,0,.1,0h0s0,0,.1,0c.1,0,.2,0,.3,0,0,0,0,0,0,0,0,0,0,0,0,0l.2-.2c.1-.1.2-.2.4-.3.1,0,.2-.2.4-.2,0,0,.1,0,.2,0h.1c0,0,.1,0,.2,0,.1,0,.2,0,.3,0h0c0-.1,0-.2,0-.2l1.3-.8h0s0,0,0,0c0,0,0,0,0,0v.2c0,0,.1-.1.2-.2,0-.1.2-.2.3-.3s.2-.2.4-.3c0,0,.1,0,.2,0,0,0,0,0,0,0,0,0,0,0,.1,0h0c0,0,.1,0,.2,0,0,0,.1,0,.2,0h0s.1-.1.1-.1c0,0,.1-.1.2-.2,0,0,.1-.1.2-.2,0,0,.1,0,.2-.1,0,0,.1,0,.2-.1,0,0,.1,0,.2,0h.1c0,0,.1,0,.2,0,.1,0,.3,0,.4,0,0,0,.2,0,.2,0,0,0,0-.2.1-.3,0-.1.2-.2.3-.3.1-.1.2-.2.4-.3,0,0,0,0,.1,0h0s0,0,.1,0c.1,0,.2,0,.3,0,0,0,.2,0,.3,0,0,0,0,0,0,0,0-.1,0-.2.2-.3,0-.1.2-.2.3-.3.1-.1.2-.2.4-.3,0,0,0,0,.1,0h0s0,0,.1,0c.1,0,.2,0,.3,0,0,0,.2,0,.3,0,0,0,.1.1.2.2,0,0,.1.1.2.2,0,0,0,.2.1.3s0,.2,0,.3v.2s0,0,0,0h0c0,0,0,.7,0,.7,0,0,0,0,0,0h0c0,.2,0,.3-.2.3,0,0-.1.1-.2.2,0,0-.1,0-.2.1,0,0-.1,0-.2.1,0,0,0,0-.1,0h0s0,0-.1,0c-.1,0-.2,0-.3,0s-.2,0-.3,0c0,0,0,0,0,0h0c0,.1,0,.2,0,.2h0c0,.2,0,.3-.2.3,0,0-.1.1-.2.2,0,0-.1,0-.2.1,0,0-.1,0-.2.1,0,0,0,0-.1,0h0s0,0-.1,0c-.1,0-.2,0-.3,0l-1.1.8s0,0,0,0c0,0,0,0,0,0h0l-1.1.6h0s0,0,0,0c0,0,0,0,0,0h0s0,0-.1.1c0,0-.2.2-.3.2,0,0-.2.1-.3.2,0,0-.1,0-.2,0h0c0,0-.2,0-.3.1-.2,0-.3,0-.4,0v.2s0,0,0,0l-1.1.7h0s0,0,0,0c0,0,0,0,0,0v-.3c-.1,0-.2.1-.2.2,0,.1-.2.3-.3.4-.1.1-.2.2-.4.3-.1,0-.3.2-.4.3,0,0-.1,0-.2,0,0,0-.1,0-.2,0h-.2q0,.1,0,.1s0,0,0,0c0,0,0,0-.1.1,0,0-.1.1-.2.2,0,0-.1,0-.2.1,0,0-.1,0-.2.1,0,0,0,0-.1,0h0s0,0-.1,0c-.1,0-.2,0-.3,0s-.2,0-.3,0c0,0-.2-.1-.2-.2,0,0,0,0,0-.1,0,0,0,0,0,0,0,0-.2.2-.2.3,0,0-.1.1-.2.2l.2.6s0,0,0,.1l-1.2.6h0"/>
      <path class="st16" d="M34.5,29.6h0s0,0-.1,0c-.1,0-.3.2-.4.3-.1.1-.2.2-.3.4,0,0,0,.2-.1.2,0,0-.2,0-.3,0-.1,0-.2,0-.3,0,0,0,0,0-.1,0h0s0,0-.1,0c-.1,0-.3.2-.4.3-.1.1-.2.2-.3.4,0,0,0,.1-.1.2,0,0-.1,0-.2,0-.1,0-.3,0-.5,0,0,0-.1,0-.2,0h-.1c0,0-.1,0-.2.1,0,0-.2,0-.2.1,0,0-.2,0-.2.1,0,0-.2.1-.2.2,0,0-.1.1-.2.2h0c0,0-.1.1-.2.1,0,0-.1,0-.2,0h0s0,0-.1,0c0,0,0,0,0,0,0,0-.1,0-.2,0-.1,0-.3.2-.4.3s-.2.2-.3.4h0s0,0,0,0c0,0,0,0,0,0,0,0,0,0,0,0h0s-.3.2-.3.2l-.8.5-.3.2c0,0-.1.1,0,.2,0,0-.2,0-.2,0,0,0-.1,0-.2,0h-.1c0,0-.1,0-.2.1-.1,0-.3.1-.4.2-.1,0-.3.2-.4.3l-.2.2s0,0,0,0c-.1,0-.2,0-.3,0,0,0,0,0-.1,0h0s0,0-.1,0c-.1,0-.3.2-.4.3-.1.1-.2.2-.3.4,0,0,0,.2-.1.3,0,0-.1,0-.2,0,0,0-.2,0-.3,0,0,0-.2,0-.3,0s0,0,0,0c0,0,0,0,0,0,0,0-.1,0-.2,0-.2,0-.3.2-.4.3-.1,0-.3.2-.4.3h-.2c0,.2,0,.3,0,.3v.2c0,.1,0,.3.1.4,0,.1,0,.2,0,.3,0,.2.1.4.2.6,0,.2.1.4.2.6v.3c0,0,.1,0,.1,0,0,0,0,0,0,0s0,0,0,0h.3c0-.1.7-.5.7-.5h.3c0-.2.1-.3,0-.3v-.3c0,0-.2-.3-.2-.3,0,0,.1,0,.2-.2,0,0,.2-.2.2-.2,0,0,0,0,0,0,0,0,.2.1.2.2,0,0,.2,0,.3.1.1,0,.2,0,.4,0,0,0,.1,0,.2,0h0s.1,0,.2-.1c0,0,.1,0,.2-.1,0,0,.1,0,.2-.1,0,0,.1-.1.2-.2,0,0,0,0,0,0h0s0,0,0,0h.2c0-.1.1-.2.2-.2,0,0,.1,0,.2,0,.1,0,.3-.2.4-.3.1,0,.3-.2.4-.3.1-.1.2-.2.3-.4h0s0,.2,0,.2c0,0,0,0,0,0,0,0,0,0,0,0h0s.3-.2.3-.2l.6-.4h.2c0-.2.1-.3,0-.3h0c0,0,.2,0,.3,0,0,0,.2,0,.3,0h.1c0,0,.1,0,.2-.1,0,0,.2-.1.3-.2,0,0,.2-.2.3-.2,0,0,0,0,0,0,0,0,0,0,0,0,0,0,0,0,0,0s0,0,0,0h.3c0-.1.6-.5.6-.5h.2c0,0,0,0,0,0s0,0,0,0l.2-.2.6-.5.2-.2c.1,0,.2,0,.3,0,0,0,.1,0,.2,0h0s.1,0,.2-.1c0,0,.1,0,.2-.1,0,0,.1,0,.2-.1,0,0,.1-.1.2-.2,0,0,.1-.1.2-.2h0c0-.1,0-.2,0-.2,0,0,.1,0,.2,0,.1,0,.2,0,.4,0,0,0,.1,0,.2,0h0s.1,0,.2-.1c0,0,.1,0,.2-.1,0,0,.1,0,.2-.1,0,0,.1-.1.2-.2,0,0,.1-.1.2-.2h0c0-.2,0-.2,0-.2h0c0-.1,0-.6,0-.6h0c0,0,.1-.1,0-.2v-.2c0-.1,0-.2,0-.3s0-.2-.1-.3,0-.2-.2-.2c0,0-.1-.1-.2-.2,0,0-.2,0-.3-.1s-.2,0-.3,0c0,0,0,0-.1,0M34.5,29.8s0,0,.1,0c.1,0,.2,0,.3,0,0,0,.2,0,.3,0,0,0,.1,0,.2.2,0,0,.1.1.1.2,0,0,0,.2,0,.3,0,0,0,.2,0,.3v.2s-.1,0-.1,0v.6c0,0,.1.1.1.1h0c0,.2,0,.3-.1.3,0,0-.1.1-.2.2s-.1,0-.2.1c0,0-.1,0-.2.1,0,0,0,0-.1,0h0s0,0-.1,0c-.1,0-.2,0-.3,0-.1,0-.2,0-.3,0,0,0-.1,0-.2-.1v.2s0,.1,0,.1h0c0,.2,0,.3-.1.3,0,0-.1.1-.2.2s-.1,0-.2.1c0,0-.1,0-.2.1,0,0,0,0-.1,0h0s0,0-.1,0c-.1,0-.2,0-.3,0,0,0,0,0,0,0l-.3.2-.6.5-.2.2h0s-.2,0-.2,0l-.6.3h-.3c0,.1,0,0,0,0,0,0-.1.2-.2.2,0,0-.2.2-.3.2s-.2.1-.3.2c0,0-.1,0-.2,0h0c0,0-.2,0-.2,0-.2,0-.3,0-.5,0,0,0,0,0,0,0h0c0,0,0,.3,0,.3h-.2c0,.1-.6.5-.6.5l-.3.2v-.3c0,0-.2-.2-.2-.2,0,.1-.1.2-.2.3,0,.1-.2.2-.3.3-.1.1-.2.2-.3.3-.1,0-.3.2-.4.2,0,0,0,0-.1,0,0,0,0,0-.1,0h-.2c0,.1,0,0,0,0h0c0,0,0,.2-.1.2,0,0-.1.1-.2.2s-.1,0-.2.1c0,0-.1,0-.2.1,0,0,0,0-.1,0h0s0,0-.1,0c-.1,0-.2,0-.3,0,0,0-.2,0-.3,0,0,0-.2-.1-.2-.2,0,0,0-.1-.1-.2,0,0,0,0,0,.1,0,0-.1.2-.2.3,0,0-.2.1-.3.2h0s.1.4.1.4v.3c0,0-.2.1-.2.1l-.7.4h-.3c0,.1,0-.1,0-.1,0-.2-.1-.4-.2-.6,0-.2-.1-.4-.2-.6,0-.1,0-.2,0-.3,0-.1,0-.2,0-.4v-.2s.1-.1.1-.1c.1-.1.2-.2.4-.3.1,0,.3-.2.4-.3,0,0,.1,0,.2,0h0s0,0,0,0c0,0,.2,0,.3,0,0,0,.2,0,.3,0,0,0,.2,0,.3,0,0,0,0,0,0,0,0,0,0,0,0,0,0-.1,0-.2.2-.4,0-.1.2-.2.3-.3.1-.1.2-.2.4-.3,0,0,0,0,.1,0h0s0,0,.1,0c.1,0,.2,0,.3,0,0,0,.1,0,.2,0h0c0-.1.2-.3.2-.3.1-.1.2-.2.4-.3.1,0,.2-.2.4-.2,0,0,.1,0,.2,0h.1c0,0,.1,0,.2,0,.2,0,.3,0,.4,0h0s0-.2,0-.2l.3-.2.8-.5.3-.2v.3c0,0,0,0,0,0,0-.1.1-.2.2-.4,0-.1.2-.2.3-.3.1,0,.2-.2.4-.3,0,0,0,0,.2,0,0,0,0,0,0,0,0,0,0,0,.1,0h0c0,0,.1,0,.2,0,0,0,.1,0,.2,0h0s.1-.1.1-.1c0,0,.1-.1.2-.2,0,0,.1-.1.2-.2,0,0,.1,0,.2-.1,0,0,.1,0,.2-.1,0,0,.1,0,.2,0h0c0,0,0,0,.1,0,.1,0,.3,0,.4,0,.1,0,.2,0,.3.1,0,0,0,0,0,0,0-.1,0-.2.2-.4,0-.1.2-.2.3-.3.1-.1.2-.2.4-.3,0,0,0,0,.1,0h0s0,0,.1,0c.1,0,.2,0,.3,0,0,0,.2,0,.3,0,0,0,0,0,.1,0,0,0,0,0,0,0,0-.1,0-.2.2-.4,0-.1.2-.2.3-.3.1-.1.2-.2.4-.3,0,0,0,0,.1,0h0"/>
      <path class="st1" d="M22.8,37.6s0,0,0,.1c0,0,0,0,0,0,0,0,0,0,0,0,0,0,0,0,0,0,0,0,0,0,0,0v-.4c0,0,0,0,0,0,0,0,0,0,0,0,0,0,.1,0,.2,0,0,0,0,0,0,.1,0,0,0,0,0,.1M23.3,36.9c0,0,0,0-.1-.1,0,0-.1,0-.2,0,0,0-.1,0-.2,0,0,0-.1,0-.2,0,0,0-.2,0-.2.1-.1,0-.3.1-.4.2s-.2.2-.3.3c0,.1,0,.2,0,.3,0,.1,0,.2,0,.3,0,.2.1.4.2.6,0,.2.1.4.2.6l.7-.4-.2-.6c0,0,.2,0,.2-.1,0,0,.1-.1.2-.2,0,0,.1-.1.2-.2,0,0,0-.1.1-.2,0,0,0-.2,0-.2s0-.2,0-.3c0,0,0-.2,0-.2"/>
      <path class="st1" d="M24.2,36.8s0,0,0-.1c0,0,0,0,0-.1,0,0,0,0,0-.1,0,0,0,0,0,0,0,0,0,0,0,0,0,0,0,0,0,0s0,0,0,0c0,0,0,0,0,0h0s-.4.3-.4.3h0ZM25.3,36.5c0,0,0-.2,0-.3,0,0,0-.1,0-.2,0,0,0-.1-.1-.2,0,0,0,0-.2-.1s-.1,0-.2,0-.1,0-.2,0c0,0-.2,0-.2,0-.1,0-.2.1-.3.2,0,0-.1.2-.2.2,0,0,0,.2-.1.3s0,.2,0,.3,0,.2,0,.3c0,0,0,.2,0,.3,0,0,0,.2,0,.2,0,0,0,.1.1.2,0,0,.1,0,.2.1,0,0,.1,0,.2,0,0,0,.2,0,.2,0,0,0,.2,0,.3-.1,0,0,0,0,.1,0,0,0,0,0,.1-.1s0,0,.1-.1,0,0,.1-.1v-.7c-.1,0-.2,0-.2.1,0,0,0,0-.1.1s0,0-.1.1c0,0,0,0-.1,0,0,0-.1,0-.2,0s-.1,0-.2,0c.2-.1.3-.2.5-.3.2-.1.3-.2.5-.3"/>
      <path class="st1" d="M26.5,35.8c0,0,0,.1,0,.2s0,.1,0,.2,0,0-.1.1l-.2-.8c0,0,.1,0,.2,0s0,0,.1,0c0,0,0,0,0,0,0,0,0,0,0,.1,0,0,0,.1,0,.2M26.9,34.9c0,0-.2-.1-.3-.2-.1,0-.2,0-.3,0s-.3,0-.4.2c-.1,0-.2.1-.3.2s-.2.2-.3.2l.5,1.8s0,0,.1,0,0,0,.1,0c.1,0,.2-.1.3-.2.1,0,.2-.2.3-.3s.2-.2.2-.3c0-.1.1-.2.2-.3s0-.2,0-.4c0-.1,0-.2,0-.4,0-.1,0-.2-.2-.3"/>
    </g>
  </g>
  <polygon class="st1" points="27 34.3 27.6 36.2 28.2 35.8 27.7 33.9 27 34.3"/>
  <g class="st8">
    <g>
      <path class="st1" d="M29.4,33.8c-.1,0-.3.2-.4.2v.4c0,0,.4-.2.4-.2h0c0,.1,0,.2,0,.2s0,0-.1,0c0,0-.1,0-.1,0s0,0-.1,0c0,0,0,0,0,0,0,0,0,0,0-.1,0,0,0-.2,0-.2,0,0,0-.1,0-.2,0,0,0-.1.2-.2,0,0,.1-.1.2-.1,0,0,.1,0,.2,0,0,0,.1,0,.2,0v-.6c-.1,0-.2,0-.2,0,0,0,0,0-.1,0s0,0-.1,0c0,0,0,0-.1,0-.1,0-.2.1-.3.2,0,0-.2.2-.2.3s-.1.2-.2.3c0,.1,0,.2,0,.3,0,.1,0,.2,0,.3,0,.1,0,.2,0,.3,0,.1,0,.2.2.3s.2.1.3.2.2,0,.4,0c.1,0,.3,0,.4-.1,0,0,.1,0,.2-.1,0,0,.1-.1.2-.2,0,0,.1-.1.2-.2s0-.2.1-.2l-.3-.9c-.1,0-.3.2-.4.2"/>
      <path class="st1" d="M31.1,32.9s0,0,0,.1,0,0-.1.1c0,0,0,0-.1,0h0s-.1-.5-.1-.5c0,0,0,0,0,0,0,0,0,0,0,0,0,0,0,0,.1,0s0,0,0,0c0,0,0,0,0,0s0,0,0,.1c0,0,0,0,0,.1M31.7,33c0,0,0-.1,0-.2,0,0,0-.1,0-.2s0-.1,0-.2c0-.1,0-.2-.2-.3s-.2-.1-.2-.1-.2,0-.3,0c-.1,0-.2,0-.3.1,0,0-.1,0-.2.1,0,0-.1,0-.2.1,0,0-.1,0-.2.1,0,0-.1.1-.2.2,0,.1,0,.2,0,.3,0,.1,0,.2,0,.3,0,.2.1.4.2.6,0,.2.1.4.2.6l.6-.3v-.6c-.1,0,0-.1,0-.1l.4.5.6-.5-.5-.4c0,0,0-.1.1-.2"/>
      <path class="st1" d="M32.6,32.1s0,0,0-.1c0,0,0,0,0-.1,0,0,0,0,0-.1,0,0,0,0,0,0,0,0,0,0,0,0,0,0,0,0,0,0s0,0,0,0c0,0,0,0,0,0h0s-.4.3-.4.3h0ZM33.6,31.8c0,0,0-.2,0-.3,0,0,0-.1,0-.2,0,0,0-.1-.1-.2,0,0,0,0-.2-.1s-.1,0-.2,0-.1,0-.2,0c0,0-.2,0-.2,0-.1,0-.2.1-.3.2,0,0-.1.2-.2.2,0,0,0,.2-.1.3s0,.2,0,.3,0,.2,0,.3c0,0,0,.2,0,.3,0,0,0,.2,0,.2,0,0,0,.1.1.2,0,0,.1,0,.2.1,0,0,.1,0,.2,0,0,0,.2,0,.2,0,0,0,.2,0,.3-.1,0,0,0,0,.1,0,0,0,0,0,.1-.1s0,0,.1-.1,0,0,.1-.1v-.7c-.1,0-.2,0-.2.1,0,0,0,0-.1.1,0,0,0,0-.1.1,0,0,0,0-.1,0,0,0-.1,0-.2,0,0,0-.1,0-.2,0,.2-.1.3-.2.5-.3.2-.1.3-.2.5-.3"/>
      <path class="st1" d="M34.4,31s0,0,0-.1c0,0,0,0,0-.1,0,0,0,0,0,0,0,0,0,0,0,0,0,0,0,0,0,0s0,0,0,0c0,0,0,0,0,0h0s-.4.3-.4.3c0,0,0,0,0-.1M35.2,31.2s0,0-.1.1c0,0,0,0-.1.1,0,0,0,0-.1,0,0,0-.1,0-.2,0,0,0-.1,0-.2,0,.2-.1.3-.2.5-.3.2-.1.3-.2.5-.3,0,0,0-.2,0-.3,0,0,0-.1,0-.2,0,0,0-.1-.1-.2s0,0-.2-.1-.1,0-.2,0-.1,0-.2,0c0,0-.2,0-.2,0-.1,0-.2.1-.3.2,0,0-.1.2-.2.2,0,0,0,.2-.1.3s0,.2,0,.3,0,.2,0,.3,0,.2,0,.3c0,0,0,.2,0,.2,0,0,0,.1.1.2,0,0,.1,0,.2.1s.1,0,.2,0,.2,0,.2,0c0,0,.2,0,.3-.1,0,0,0,0,.1,0s0,0,.1-.1,0,0,.1-.1c0,0,0,0,.1-.1v-.7c-.1,0-.2,0-.2.1"/>
      <path class="st16" d="M27.8,38.3s0,0,0,0c0,0,0,0,0,0h0s0,0,0,0c0,0,0,0,0,0,0,0,0,0,.1,0s0,0,.1-.1,0,0,.1-.1l.2-.2h-.2s0,0,0,0h0s0,0,0,0h0c0,0-.1,0-.2.1,0,0,0,0-.1.1,0,0,0,0,0,0,0,0,0,0,0,.1,0,0,0,0,0,0h0M27.9,40.3c-.2,0-.4.1-.6.1-.2,0-.5,0-.7-.2-.2-.1-.3-.3-.5-.5-.1-.2-.2-.4-.2-.7,0-.3,0-.6,0-.9,0-.3.1-.6.3-.9.1-.3.3-.5.6-.8.2-.2.5-.4.8-.5h0s0,0,0,0c0,0,.1,0,.2,0s.1,0,.2,0c.1,0,.3,0,.4,0h0c0,0,0-.1,0-.1,0,0,0,0,0,0l1.5-.5h0s0,0,0,0c0,0,0,0,0,0,0,0,1.7-.7,1.7-.7,0,0,0,0,0,0h0s.3-.1.3-.1c.2,0,.4-.1.6-.2.2,0,.3-.1.5-.2h0c0,0,0-.1,0-.1,0,0,0,0,0,0l.4-.2c0,0,.2,0,.3-.1s.2,0,.3-.1c0,0,.1,0,.2,0,0,0,0,0,0,0,0,0,0,0,.1,0l.4-.2h0s0,0,0,0c0,0,0,0,0,0l1.2-.5s0,0,0,0c0,0,.2-.1.3-.2h0s0,0,.1,0c0,0,.1,0,.2,0,.1,0,.2,0,.3,0,0,0,0,0,0,0,0,0,0,0,0,0,0,0,.2-.2.3-.2,0,0,.2-.1.3-.2h0s0,0,0,0c.2,0,.3,0,.5,0,.2,0,.3,0,.4.2,0,0,.1.1.2.2,0-.2.2-.4.3-.7.1-.2.3-.4.5-.5.2-.1.4-.2.5-.3,0,0,0,0,0,0,0,0,.2,0,.3,0s.2,0,.3,0c0,0,.2,0,.3,0,.1,0,.2,0,.3,0h.2s0,0,0,0v1.4c.2,0,.3.2.3.3,0,.1.1.3.1.4,0,.3,0,.5,0,.8,0,.3-.2.5-.3.7-.1.2-.3.4-.5.5-.2.1-.4.2-.6.3,0,0,0,0,0,0h0c0,0-.2,0-.3,0-.1,0-.2,0-.3,0-.1,0-.2,0-.3,0,0,0-.1,0-.2,0h0c0,.2,0,.2,0,.2l-1.9.9h0s0,0,0,0l-.8.4h0s0,0,0,.1l-1.6.7s0,0,0,0l-1.6.8h0s0,0,0,0c0,0,0,0,0,0h0c0-.1,0-.1,0,0h0c-.1,0-.3,0-.4,0-.1,0-.3,0-.4,0-.1,0-.2,0-.3-.2v.5c0,0,0,0,0,0l-1.7.8s0,0,0,0c0,0-1.7.7-1.7.7,0,0,0,0,0,0,0,0,0,0,0,0h0s0,0,0,0c0,0-.2.1-.2.2s-.2.1-.3.2c0,0-.1,0-.2,0,0,0,0,0,0,0,0,0,0,0-.1,0"/>
      <path class="st16" d="M27.9,38.2h0c0,0,0,0,0,0,0,0,0,0,0,0,0,0,0,0,0,0,0,0,0,0,.1,0h0s0,0,0,0h0s0,0,0,0h0s0,0,0,0c0,0,0,0,0,.1s0,0-.1,0c0,0,0,0-.1,0,0,0,0,0,0,0h0s0,0,0,0h0M40.9,30.1h0c0,0-.2,0-.3.1,0,0,0,0,0,0-.2,0-.4.2-.6.3-.2.2-.4.3-.5.6-.1.2-.2.4-.3.5,0,0,0,0-.1-.1-.1-.1-.3-.2-.5-.2-.2,0-.3,0-.5,0s0,0-.1,0h0c-.1,0-.2.1-.3.2,0,0-.2.2-.3.2,0,0,0,0,0,0-.1,0-.2,0-.3,0,0,0-.1,0-.2,0s0,0-.1,0h0c-.1,0-.2.1-.3.2,0,0,0,0,0,0h-.2c0,0-.9.5-.9.5,0,0,0,0,0,0,0,0,0,0,0,0s0,0,0,0l-.4.2s0,0-.1,0c0,0,0,0,0,0,0,0-.2,0-.2,0,0,0-.2,0-.3.1,0,0-.2,0-.3.1l-.4.2s0,0,0,0,0,0,0,.1c-.1,0-.3.1-.4.2-.2,0-.4.1-.6.2h-.3c0,0,0,0-.1,0s0,0,0,0h-.3c0,.1-1,.5-1,.5h-.4c0,.2,0,.2,0,.2,0,0,0,0,0,0l-1,.4h-.4c0,.1,0,.2,0,.2,0,0,0,0,0,0-.1,0-.2,0-.3,0,0,0-.2,0-.2,0s-.1,0-.2,0c0,0,0,0,0,0-.3.1-.6.3-.8.5-.2.2-.5.5-.6.8-.1.3-.3.6-.3.9,0,.3,0,.6,0,.9,0,.3.1.5.2.7s.3.4.5.5c.2.1.4.2.7.2.2,0,.4,0,.7-.1s0,0,.1,0c0,0,0,0,0,0,0,0,.1,0,.2-.1,0,0,.2-.1.3-.2s.2-.1.2-.2h0s0,0,0,0c0,0,0,0,0,0s0,0,0,0l.4-.2,1-.4h.3c0-.2,0-.2,0-.2h.2c0,0,1.1-.6,1.1-.6l.3-.2c0,0,.1-.1.1-.2v-.3s0,0,0,0c.1,0,.3,0,.4,0,.1,0,.3,0,.4,0s0,0,0,0h0c0,0,0,.1,0,.1,0,0,0,0,0,0s0,0,0,0l.4-.2.9-.5h.3c0-.2,0-.2,0-.2h0s1.1-.5,1.1-.5h.3c0-.2,0-.2.1-.3l.8-.4h0s0,0,0,0l.4-.2,1.2-.5h.3c0-.2.1-.3.1-.3h0s0,0,.1,0c.1,0,.2,0,.3,0,.1,0,.2,0,.3,0,0,0,.2,0,.3,0h0s0,0,0,0c.2,0,.4-.2.6-.3.2-.2.4-.4.6-.6.2-.2.3-.5.4-.7,0-.3,0-.5,0-.8,0-.2,0-.3-.2-.5,0-.1-.2-.2-.3-.3h0c0-.1,0-1.1,0-1.1v-.3c0,0,0-.1-.1-.1h-.2c0,0-.2,0-.3,0,0,0-.2,0-.3,0,0,0-.2,0-.3,0M27.9,38.4h0s0,0,0,0c0,0,0,0,0,0,0,0,0,0,.1,0,0,0,0,0,.1-.1,0,0,0,0,.1-.1l.3-.3h0s-.4,0-.4,0c0,0,0,0,0,0h0s0,0,0,0h0c0,0-.1,0-.2.1s0,0-.1.1c0,0,0,0,0,.1,0,0,0,0,0,.2,0,0,0,0,0,0,0,0,0,0,0,0,0,0,0,0,0,0,0,0,0,0,0,0M40.9,30.3c0,0,.2,0,.3,0,0,0,.2,0,.3,0,0,0,.2,0,.3,0h.2s0,.3,0,.3v1s0,.2,0,.2c.1,0,.2.2.3.3s.1.3.1.4c0,.3,0,.5,0,.8,0,.2-.2.5-.3.7-.1.2-.3.4-.5.5-.2.1-.4.2-.5.3,0,0,0,0,0,0h0c0,0-.2,0-.2,0-.1,0-.2,0-.3,0-.1,0-.2,0-.3,0,0,0-.2,0-.3,0h0s0,.2,0,.2h-.3c0,.1-1.2.7-1.2.7l-.4.2h0s-.9.4-.9.4h0c0,0-.3.2-.3.2l-1.1.5h-.2c0,0,0,.1,0,.1h-.3c0,.1-.9.6-.9.6l-.4.2v-.2s0,0,0,0c0,0,0,0,0,0h0c-.1,0-.3,0-.4,0-.1,0-.3,0-.4,0-.1,0-.2-.1-.3-.2,0,0,0,0-.1-.1v.4c0,0,.1.3.1.3l-.3.2-1.1.5h-.2c0,.1,0,.1,0,.1h-.3c0,.1-1,.6-1,.6l-.4.2h0c0,0-.1,0-.2,0,0,0-.2.1-.2.2s-.2.1-.2.2c0,0-.1,0-.2,0,0,0,0,0,0,0,0,0,0,0-.1,0-.2,0-.4.1-.6.1-.2,0-.4,0-.6-.2-.2-.1-.3-.3-.5-.4-.1-.2-.2-.4-.2-.7,0-.3,0-.6,0-.9,0-.3.1-.6.3-.8.1-.3.3-.5.6-.7.2-.2.5-.4.7-.5h0s0,0,0,0c0,0,.1,0,.2,0s.1,0,.2,0c.1,0,.3,0,.4,0h0s0-.2,0-.2h.4c0-.1,1.1-.5,1.1-.5h0s0-.1,0-.1h.4c0-.1,1-.6,1-.6h.3c0-.1,0,.2,0,.2h0s0,0,0,0v-.3s.3-.1.3-.1c.2,0,.4-.1.6-.2.2,0,.4-.1.5-.2h0s0-.2,0-.2l.4-.2c0,0,.2,0,.3-.1,0,0,.2,0,.3-.1,0,0,.2,0,.2,0,0,0,0,0,0,0,0,0,0,0,.1,0l.4-.2h0c0,0,1-.4,1-.4h.2c0-.1,0-.1,0-.2,0,0,.2-.1.3-.2h0s0,0,.1,0c0,0,.1,0,.2,0,0,0,.2,0,.3,0s0,0,.1,0c0,0,0,0,0,0,0,0,.2-.2.2-.2,0,0,.2-.1.3-.2h0s0,0,0,0c.2,0,.3,0,.5,0,.2,0,.3,0,.4.2.1,0,.2.2.3.3,0,0,0-.1,0-.2,0-.2.2-.4.3-.6.1-.2.3-.4.5-.5.2-.1.3-.2.5-.3,0,0,0,0,0,0,0,0,.2,0,.3,0h0"/>
      <path class="st1" d="M28.3,36.3v1s0,0,0,0h-.1c-.1,0-.2.1-.3.2,0,0-.2.1-.2.2,0,0-.1.2-.1.3s0,.2,0,.3c0,0,0,.2,0,.2s0,0,.1.1c0,0,.1,0,.2,0s.1,0,.2,0c0,0,.1,0,.2,0s.1,0,.2-.1c0,0,.1,0,.2-.1,0,0,0,0,.1-.1v1.1c0,0,0,.1,0,.2s-.1.1-.2.2c0,0-.1,0-.2.1s-.1,0-.2.1c-.2,0-.4.1-.6.1s-.4,0-.5-.1-.3-.2-.4-.4c0-.2-.2-.3-.2-.5,0-.3,0-.5,0-.7s.1-.5.2-.7c.1-.2.3-.4.5-.6.2-.2.4-.3.7-.4.1,0,.2,0,.3-.1.1,0,.2,0,.3,0"/>
    </g>
  </g>
  <polygon class="st1" points="32 38 30.8 38.5 30.7 37.6 30.2 37.8 30.3 38.8 29.2 39.2 28.9 36 30 35.6 30.1 37.2 30.6 37 30.4 35.3 31.4 34.9 32 38"/>
  <g class="st14">
    <g>
      <path class="st1" d="M34.7,33.5c0,.6,0,1.1,0,1.7,0,.5,0,1.1,0,1.7l-.9.5v-.4s0,0-.1.1,0,0-.1.1c0,0,0,0-.1,0,0,0,0,0-.1,0-.1,0-.2,0-.3,0,0,0-.2,0-.3,0s-.2,0-.2-.1-.1-.1-.2-.2c0,0-.1-.2-.1-.2,0,0,0-.2,0-.3,0-.1,0-.3,0-.4,0-.1,0-.3,0-.5,0-.2,0-.3,0-.5,0-.2,0-.3,0-.5.2,0,.4-.1.6-.2s.4-.1.6-.2c0,.1,0,.3,0,.4,0,.1,0,.3,0,.4,0,.1,0,.3,0,.4,0,.1,0,.3,0,.4,0,0,0,0,0,.1,0,0,0,.1,0,.2,0,0,0,0,0,.1s0,0,.1,0c0,0,.1,0,.1-.1,0,0,0-.2,0-.3s0-.2,0-.3c0-.1,0-.2,0-.4,0-.1,0-.3,0-.4v-.4c0-.1,0-.2,0-.3,0,0,0-.2,0-.2s0,0,0,0c0,0,0,0,0,0,0,0,.2,0,.3-.1,0,0,.2,0,.3-.1,0,0,.2,0,.2,0,0,0,.2,0,.2-.1"/>
      <path class="st1" d="M39.2,33.4c0,.2,0,.4,0,.7v.7c0,0-1.1.5-1.1.5,0-.3,0-.6,0-.8s0-.5,0-.8c0,0,0,0,0,0,0,0,0,0,0-.1,0,0,0-.1,0-.2,0,0,0-.1,0-.1,0,0,0,0,0-.1,0,0,0,0,0,0,0,0,0,0-.1.1s0,.1,0,.2c0,0,0,.1,0,.2s0,.1,0,.1c0,0,0,.1,0,.2,0,0,0,.1,0,.2,0,.2,0,.5,0,.7,0,.2,0,.5,0,.7l-1.1.5c0-.3,0-.6,0-.8,0-.3,0-.5,0-.8,0,0,0,0,0,0,0,0,0,0,0-.1,0,0,0-.1,0-.2,0,0,0-.1,0-.1s0,0,0-.1c0,0,0,0,0,0,0,0,0,0,0,0,0,0,0,0,0,.1s0,.1,0,.2,0,.1,0,.2v.2s0,0,0,.1l.2,1.7-1.1.5c0-.3,0-.5,0-.8s0-.5,0-.8,0-.5,0-.8,0-.5,0-.8l1.1-.5v.3c0,0,0-.1.1-.2s0-.1.1-.2c0,0,0-.1.1-.1,0,0,.1,0,.2-.1,0,0,.1,0,.2,0,0,0,.1,0,.2,0,0,0,0,0,.1,0s0,0,.1.1c0,0,0-.1.1-.2,0,0,0-.1.1-.2,0,0,.1-.1.2-.2,0,0,.1,0,.2-.1.1,0,.3,0,.4,0,.1,0,.2,0,.3.1,0,0,.2.1.2.3,0,.1.1.2.1.3,0,.1,0,.2,0,.4,0,.1,0,.2,0,.4"/>
      <path class="st1" d="M42.1,32.4c0,.2,0,.4,0,.6,0,.2-.1.3-.2.5-.1.2-.2.3-.4.4-.2.1-.3.2-.5.3,0,0-.2,0-.2,0s-.2,0-.3,0c0,0-.2,0-.3,0s-.2,0-.2,0v-.9c.1,0,.3,0,.4,0,.2,0,.3,0,.5-.1,0,0,0,0,.1,0,0,0,0,0,.1,0s0,0,0,0c0,0,0,0,0-.1,0,0,0,0,0,0s0,0,0,0c0,0,0,0-.1,0s0,0-.1,0h0s0,0,0,0c-.1,0-.3,0-.4,0-.1,0-.2,0-.3,0s-.2-.1-.2-.2c0,0,0-.2-.1-.3,0-.2,0-.4,0-.5s.1-.3.2-.5.2-.3.4-.4c.1-.1.3-.2.5-.3,0,0,.2,0,.2,0s.2,0,.2,0c0,0,.2,0,.2,0s.2,0,.2,0v1c0,0-.2,0-.3,0-.1,0-.2,0-.3.1,0,0,0,0,0,0,0,0,0,0,0,0s0,0-.1,0c0,0,0,0,0,0s0,0,0,0c0,0,0,0,0,0,0,0,0,0,0,0,0,0,0,0,0,0s0,0,.1,0c0,0,0,0,.1,0,0,0,0,0,.1,0,0,0,0,0,0,0,.1,0,.2,0,.3,0,.1,0,.2,0,.3,0,0,0,.1.1.2.2,0,0,0,.2.1.3"/>
    </g>
  </g>
  <polygon class="st18" points="36.2 30.7 38.9 28.9 38.4 28.3 36.2 30.7"/>
  <polygon class="st18" points="35.7 30.1 38 26.4 38.6 26.9 35.7 30.1"/>
  <polygon class="st18" points="26.1 34.4 24.3 32.6 23.7 33.4 26.1 34.4"/>
  <polygon class="st18" points="25.6 34.9 22.1 34.5 22.5 33.6 25.6 34.9"/>
  <g class="st11">
    <g>
      <path class="st15" d="M20.3,34.2c.2,0,.4-.3.4-.6s-.2-.3-.4-.3-.4.3-.4.6.2.3.4.3"/>
      <path class="st18" d="M42.9,31.6c.2,0,.4-.3.4-.6s-.2-.3-.4-.3-.4.3-.4.6.2.3.4.3"/>
      <path class="st15" d="M27.4,31.8s1.4.9,1.4.9l-1.3-1.1v.2c0,0,0,0,0,0Z"/>
      <path class="st15" d="M28.2,30.9s.9,1.2.9,1.2l-.8-1.3h-.1c0,.1,0,.1,0,.1Z"/>
    </g>
  </g>
  <polygon class="st15" points="27.8 31.3 29.2 32.7 28 31.2 27.8 31.3"/>
  <g class="st10">
    <g>
      <path class="st15" d="M28.5,30.8c-.1.2-.3.3-.5.2-.1,0-.2-.3,0-.5.1-.2.3-.3.5-.2s.2.3,0,.5"/>
      <path class="st15" d="M27,31.7c0-.2.2-.5.4-.5s.4,0,.4.3c0,.2-.2.5-.4.5-.2,0-.4,0-.4-.3"/>
      <path class="st15" d="M27.3,30.7c.2,0,.4,0,.4.3,0,.2-.1.5-.4.6-.2,0-.4,0-.4-.3,0-.2.1-.5.4-.6"/>
      <path class="st15" d="M28.1,30.3c.1.1,0,.4,0,.5-.2.2-.4.2-.5,0-.1-.1,0-.4,0-.5s.4-.2.5,0"/>
      <path class="st15" d="M27.8,31.7c-.2,0-.4,0-.5-.3,0-.3.2-.5.4-.6.2,0,.4,0,.5.3,0,.3-.2.5-.4.6"/>
      <path class="st15" d="M35.2,27.7s-.5,1.7-.5,1.7l.7-1.8h-.2c0,0,0,0,0,0Z"/>
      <path class="st15" d="M35.9,28s-.8,1.4-.8,1.4l.9-1.4s-.1,0-.1,0Z"/>
    </g>
  </g>
  <polygon class="st15" points="35.6 27.9 34.8 29.8 35.7 28 35.6 27.9"/>
  <g class="st13">
    <g>
      <path class="st15" d="M36.1,28.2c-.1,0-.2-.2-.2-.3,0-.2.2-.3.4-.3.1,0,.2.2.2.3s-.2.3-.4.3"/>
      <path class="st15" d="M35.3,27.3c.2-.1.4,0,.4,0,0,.2,0,.4-.2.5s-.4,0-.4,0c0-.2,0-.4.2-.5"/>
      <path class="st15" d="M36,27c0,.2,0,.4-.1.5-.2.1-.4.1-.4,0,0-.2,0-.4.1-.5.2-.1.4-.1.4,0"/>
      <path class="st15" d="M36.4,27.6c0,.2-.3.3-.4.2-.1,0-.2-.2,0-.4,0-.2.3-.3.4-.2s.2.2,0,.4"/>
      <path class="st15" d="M35.3,28.1c0-.2,0-.4.2-.6.2-.1.4-.1.5,0,0,.2,0,.4-.2.6s-.4.1-.5,0"/>
      <path class="st15" d="M38.1,37.6s-1.4-.8-1.4-.8l1.3,1v-.2Z"/>
      <path class="st15" d="M37.3,38.4s-.9-1.1-.9-1.1l.8,1.2h.1c0-.1,0-.1,0-.1Z"/>
    </g>
  </g>
  <polygon class="st15" points="37.7 38.1 36.4 36.8 37.5 38.2 37.7 38.1"/>
  <g class="st12">
    <g>
      <path class="st15" d="M37.1,38.6c.1-.2.3-.3.4-.2.1,0,.2.3,0,.5-.1.2-.3.3-.4.2-.1,0-.2-.3,0-.5"/>
      <path class="st15" d="M38.5,37.7c0,.2-.1.4-.4.5-.2,0-.4,0-.4-.3,0-.2.1-.4.4-.5.2,0,.4,0,.4.3"/>
      <path class="st15" d="M38.2,38.7c-.2,0-.4,0-.4-.2,0-.2.1-.4.3-.5s.4,0,.4.2c0,.2-.1.4-.3.5"/>
      <path class="st15" d="M37.5,39.1c-.1-.1,0-.3,0-.5s.3-.2.5,0,0,.3,0,.5-.3.2-.5,0"/>
      <path class="st15" d="M37.6,37.7c.2,0,.4,0,.4.3,0,.2-.2.5-.4.6-.2,0-.4,0-.4-.3,0-.2.2-.5.4-.6"/>
      <path class="st15" d="M28.6,41.3s.5-1.8.5-1.8l-.6,1.8h.2c0,0,0,0,0,0Z"/>
      <path class="st15" d="M27.8,41s.8-1.5.8-1.5l-.9,1.4h.1Z"/>
    </g>
  </g>
  <polygon class="st15" points="28.2 41.1 29 39.2 28 41.1 28.2 41.1"/>
  <g class="st4">
    <g>
      <path class="st15" d="M27.7,40.9c.2,0,.3.1.2.3,0,.2-.2.3-.4.3-.2,0-.3-.1-.2-.3,0-.2.2-.3.4-.3"/>
      <path class="st15" d="M28.6,41.7c-.2.1-.4.1-.5,0,0-.2,0-.4.2-.5.2-.1.4-.1.5,0,0,.2,0,.4-.2.5"/>
      <path class="st15" d="M27.8,42c0-.1,0-.4.1-.5s.4-.2.5,0,0,.4-.1.5c-.2.1-.4.2-.5,0"/>
      <path class="st15" d="M27.3,41.5c0-.2.3-.3.4-.2.1,0,.2.2.1.4s-.3.3-.4.2c-.1,0-.2-.2-.1-.4"/>
      <path class="st15" d="M28.5,40.9c0,.2,0,.4-.2.6-.2.1-.4.1-.5,0,0-.2,0-.4.2-.6.2-.1.4-.1.5,0"/>
    </g>
  </g>
  <polygon class="st18" points="41 34.6 42.2 36.2 42.7 35.7 41 34.6"/>
  <polygon class="st18" points="26.7 40.4 24.1 42.5 24.6 43 26.7 40.4"/>
  <polygon class="st18" points="26.8 40.9 24.8 44.7 24.2 44.3 26.8 40.9"/>
  <g class="st3">
    <g>
      <path class="st18" d="M23.6,40.6c.2,0,.4-.3.4-.6s-.2-.3-.4-.3-.4.3-.4.6.2.3.4.3"/>
      <path class="st15" d="M24,45.9c.2-.1.4-.4.3-.6,0-.2-.3-.3-.5-.2-.2.1-.4.4-.3.6,0,.2.3.3.5.2"/>
      <path class="st15" d="M41.1,30c.2,0,.3-.3.3-.4s-.2-.3-.3-.2-.3.3-.3.4.2.3.3.2"/>
      <path class="st15" d="M23.5,35.9c.2,0,.3-.3.3-.4s-.2-.3-.3-.2-.3.3-.3.4.2.3.3.2"/>
      <path class="st15" d="M24,43.5c.2,0,.3-.3.2-.4,0-.2-.2-.2-.4-.2s-.3.3-.2.4.2.2.4.2"/>
      <path class="st15" d="M42.6,36.4c.1,0,.3-.1.3-.3,0-.1,0-.3-.2-.3s-.3.1-.3.3c0,.1,0,.3.2.3"/>
      <path class="st15" d="M39.1,25.9c.2,0,.3-.3.3-.4s-.2-.3-.3-.2-.3.3-.3.4.2.3.3.2"/>
    </g>
  </g>
  <polygon class="st18" points="40.7 34.8 41.7 37.4 41.1 37.7 40.7 34.8"/>
  <g class="st5">
    <path class="st18" d="M41.5,38.8c0,.1,0,.3.1.3s.3,0,.3-.2,0-.3-.1-.3-.3,0-.3.2"/>
  </g>
</svg>