<?xml version="1.0" encoding="UTF-8"?>
<svg id="Layer_1" xmlns="http://www.w3.org/2000/svg" version="1.1" viewBox="0 0 512 512">
  <!-- Generator: Adobe Illustrator 29.7.0, SVG Export Plug-In . SVG Version: 2.1.1 Build 138)  -->
  <g>
    <path d="M361,64l73.2.3c8.9,1.5,16,8,18.5,16.5,3,125.3.4,251.2,1.3,376.8-.5,15-9.6,24.3-24.5,25.5H81.5c-12.2-.6-22.7-10.1-23.5-22.5V86.5c.7-11.6,9.1-20.7,20.5-22.5h72.5c-1.7-17.5,4-33.4,23.5-35l165.8.3c17.4,2.6,22.5,19.1,20.8,34.7ZM337,52h-161.5l-1.6,3.4,1.1,43.6h162v-47ZM151,87h-70v371.5l1.5,1.5h347.5V87h-69v14.5c0,.6-2.3,7.1-2.8,8.2-3.4,7.1-11.7,12.2-19.6,12.4h-168c-7.3-1.8-14-6.1-17.1-13s-2.5-7.1-2.5-7.5v-14.5Z"/>
    <path d="M202.7,192.2l132.8-.3c12.3,1.5,14.5,16.3,4.2,22.3h-139.5c-9.6-5.6-8.5-18.9,2.5-22Z"/>
    <path d="M203.7,285.2l130.8-.2c12.5.7,16.1,16,5.2,22.2l-136.3.8c-12.9-2.2-12.9-20.6.3-22.8Z"/>
    <path d="M203.7,378.2l38.7-.2c13.6,1.9,14.7,20.2,1.1,22.9h-41c-12.2-3.4-11.5-20.7,1.2-22.8Z"/>
  </g>
  <path d="M162.7,192.2l2.8-.3c12.3,1.5,14.5,16.3,4.2,22.3h-9.5c-9.6-5.6-8.5-18.9,2.5-22Z"/>
  <path d="M163.7,285.2l.8-.2c12.5.7,16.1,16,5.2,22.2l-6.3.8c-12.9-2.2-12.9-20.6.3-22.8Z"/>
  <path d="M163.7,378.2l.7-.2c13.6,1.9,14.7,20.2,1.1,22.9h-3c-12.2-3.4-11.5-20.7,1.2-22.8Z"/>
</svg>