<?xml version="1.0" encoding="UTF-8"?>
<svg id="Layer_1" xmlns="http://www.w3.org/2000/svg" version="1.1" viewBox="0 0 217.1 211.5">
  <!-- Generator: Adobe Illustrator 29.7.0, SVG Export Plug-In . SVG Version: 2.1.1 Build 138)  -->
  <defs>
    <style>
      .st0 {
        fill: #fff;
      }
    </style>
  </defs>
  <path class="st0" d="M28.3,211.3c-12.3-1.2-23-10.2-25.4-22.3-1.3-55.3-1.3-111.2,0-166.5C5.7,9.2,16.7,1,30.1,0c25.3-1.6,52.4,1.3,77.8,0,2.8.3,4.8,1.6,5.7,4.3v202.7c-.7,2.5-2.3,3.1-4.3,4.3-25.9-1.9-55.4,2.5-80.9,0ZM102.4,11.6H26.4c-4.6,0-13.2,9.2-12.8,14.3v159.7c-.2,5.6,8,14.3,13.3,14.3h75.5V11.6Z"/>
  <path class="st0" d="M214.2,140.1c-3.3,7.2-10.9,5.8-11.5-2.3-1.7-21.2,1.2-44.6.1-66,1.6-6.5,9.1-6.5,11.4-.4v68.7Z"/>
  <path class="st0" d="M214.2,26.1v25c-2.4,6.7-10.7,6.2-11.5-1.3-1.3-12,4.6-29.3-8.4-36.4-4.7-2.5-13.4-.7-13.6-7.3-.3-9.9,15.1-4.7,20-1.7s9.3,8.2,11.3,13.7l2.1,8.1Z"/>
  <path class="st0" d="M214.2,160.3v25c-.8,3.1-1.3,6.2-2.5,9.2-2.6,6.1-8.2,11.8-14.4,14.3-3,1.3-6.1,1.7-9.2,2.5h-2.6c-3.9-1.3-6.3-4.9-3.9-8.8s9.3-2.3,13.7-5.1c11.8-7.7,6.1-23.9,7.4-35.8.8-7.5,9.1-8,11.5-1.3Z"/>
  <path class="st0" d="M164.6,211.3h-35c-7.1-2.7-6.1-10.8,1.8-11.5,8.1-.7,22.7-.6,30.9,0s9.9,8.3,2.3,11.5Z"/>
  <path class="st0" d="M146.7,120.9c5.1-.6,12.5,10.5,16.6,13.4,1,0,11.2-12.8,14.8-13.4s8,4.2,5.8,8.4-12.2,11.2-12.4,12.6c2.6,4.9,19.1,14.5,10.7,20.5s-14-8.8-18.9-11.9c-1.4-.3-10.9,11.5-13.4,12.6s-5.2.3-6.7-1.4c-5.6-6.4,9-14.6,12-19.3.2-1.4-11.7-11-12.9-13.6s1-7.4,4.4-7.8Z"/>
  <path class="st0" d="M146.1,48.1c.8-.2,1.6-.2,2.5,0,3.3.5,10.9,10.8,14.2,12.9,1.2.2,10.5-10.9,13.2-12.2,5.4-2.6,10.4,2.6,7.6,7.5s-12.7,11.9-12.7,12.8c2.6,3.5,12.7,10.9,13.5,14.7s-1.9,6.8-5.4,6.9-12.2-11-15.6-13.5c-.9,0-10.4,11.2-13,12.6-5.3,2.8-10.4-2.6-7.7-7.7l12.5-12.5c.2-1.3-11.3-10.8-12.6-13.3s0-7.3,3.6-8.1Z"/>
  <path class="st0" d="M130,.2c5.5-.9,28.1-.9,33.8,0s7.6,10.3,0,11.4-27.2.8-33.3,0-7.3-10.1-.4-11.3Z"/>
  <path class="st0" d="M84,52.8c5.2-1.2,9.5,3.7,6.4,8.5-9.3,7.9-17.8,19.6-27.2,27.1s-10.6,5.1-16.6,3-16-12.8-19.5-17-4.2-6.3-.5-9.4,5.6-1.1,8.4,1c4.6,3.6,9.9,11.4,14.4,14.3s4.7,1.1,7.1-.8c8.7-6.7,16.9-19.1,25.6-25.5s1.1-1,1.9-1.2Z"/>
  <path class="st0" d="M84,119.4c5.2-1.2,9.5,3.7,6.4,8.5-9.3,7.9-17.8,19.6-27.2,27.1s-10.6,5.1-16.6,3-16-12.8-19.5-17-4.3-6.5-.5-9.4,5.3-1.4,7.9.5c4.8,3.7,10.2,11.8,14.9,14.8s4.7,1.1,7.1-.8c8.7-6.7,16.9-19.1,25.6-25.5.7-.5,1.1-1,1.9-1.2Z"/>
</svg>