<?xml version="1.0" encoding="UTF-8"?>
<svg id="Layer_1" xmlns="http://www.w3.org/2000/svg" version="1.1" viewBox="0 0 720 254.5">
  <!-- Generator: Adobe Illustrator 29.7.0, SVG Export Plug-In . SVG Version: 2.1.1 Build 138)  -->
  <defs>
    <style>
      .st0 {
        fill: #ffed00;
      }
    </style>
  </defs>
  <path class="st0" d="M679.7,195c-.7,2-1.6,3.7-2.9,5.3-1.3,1.5-2.8,2.7-4.6,3.6-1.8.9-3.9,1.3-6.1,1.3s-4.3-.5-6-1.5c-1.7-1-3.2-2.4-4.3-4-1.2-1.6-2-3.5-2.6-5.5-.6-2-.9-4.1-.9-6.1s.3-4.2,1-6.1c.7-1.9,1.7-3.6,2.9-5,1.3-1.4,2.8-2.6,4.6-3.4,1.8-.8,3.8-1.2,6.1-1.2s4.2.5,5.9,1.4c1.7.9,3.2,2.2,4.3,3.7,1.2,1.5,2,3.3,2.6,5.2.6,2,.9,4,.9,6.1s-.3,4.2-1,6.2M709.6,167.7c-2.3-5.7-5.4-10.6-9.5-14.7-4.1-4-9-7.2-14.8-9.3-5.8-2.2-12.2-3.3-19.2-3.3s-8.5.6-12.4,1.8c-3.9,1.2-7.6,2.9-10.9,5.1-3.4,2.2-6.4,4.8-9.1,7.8-2.7,3-5,6.3-6.9,9.9-1.9,3.6-3.4,7.4-4.4,11.4-1,4.1-1.5,8.2-1.5,12.4s.5,8.5,1.6,12.4c1.1,4,2.6,7.7,4.6,11.2s4.3,6.6,7.1,9.4c2.8,2.8,5.9,5.3,9.3,7.3,3.4,2,7.1,3.6,11.1,4.7,3.9,1.1,8.1,1.7,12.5,1.7s8.8-.6,12.8-1.8c4-1.2,7.7-2.8,11.2-5,3.4-2.1,6.5-4.7,9.2-7.7,2.7-3,5.1-6.3,7-9.8,1.9-3.6,3.4-7.4,4.4-11.5,1-4.1,1.5-8.3,1.5-12.8,0-7.1-1.1-13.5-3.4-19.2M584.8,195c-.7,2-1.7,3.7-2.9,5.3-1.3,1.5-2.8,2.7-4.6,3.6-1.8.9-3.9,1.3-6.1,1.3s-4.3-.5-6-1.5c-1.7-1-3.2-2.4-4.3-4-1.2-1.6-2-3.5-2.6-5.5-.6-2-.9-4.1-.9-6.1s.3-4.2,1-6.1c.7-1.9,1.7-3.6,2.9-5,1.3-1.4,2.8-2.6,4.6-3.4,1.8-.8,3.8-1.2,6.1-1.2s4.2.5,5.9,1.4c1.7.9,3.2,2.2,4.3,3.7,1.2,1.5,2.1,3.3,2.7,5.2.6,2,.9,4,.9,6.1s-.3,4.2-1,6.2M614.7,167.7c-2.2-5.7-5.4-10.6-9.5-14.7-4.1-4-9-7.2-14.8-9.3-5.8-2.2-12.2-3.3-19.2-3.3s-8.5.6-12.4,1.8c-3.9,1.2-7.6,2.9-10.9,5.1-3.4,2.2-6.4,4.8-9.1,7.8-2.7,3-5,6.3-6.9,9.9-1.9,3.6-3.4,7.4-4.4,11.4-1,4.1-1.5,8.2-1.5,12.4s.5,8.5,1.6,12.4c1.1,4,2.6,7.7,4.6,11.2,2,3.5,4.3,6.6,7.1,9.4,2.8,2.8,5.9,5.3,9.3,7.3,3.4,2,7.1,3.6,11.1,4.7,4,1.1,8.1,1.7,12.5,1.7s8.8-.6,12.8-1.8c4-1.2,7.7-2.8,11.2-5,3.4-2.1,6.5-4.7,9.2-7.7,2.7-3,5.1-6.3,7-9.8,1.9-3.6,3.4-7.4,4.4-11.5,1-4.1,1.5-8.3,1.5-12.8,0-7.1-1.1-13.5-3.4-19.2M490.7,183.1c-.8,1.5-1.8,2.8-3,3.9-1.3,1.1-2.7,1.9-4.3,2.5-1.6.6-3.3.9-5.1.9h-2c-.6,0-1.3,0-2-.1l.9-21.2c1-.2,2-.4,3.1-.6s2.1-.3,3.2-.3c3.1,0,5.5.9,7.5,2.7,1.9,1.8,2.9,4.2,2.9,7.4s-.4,3.5-1.1,5M522.2,164c-1.2-3.5-2.9-6.6-5.1-9.3s-4.7-5.1-7.6-7c-2.9-2-6.1-3.6-9.5-4.9-3.4-1.3-7-2.3-10.7-2.9-3.7-.6-7.5-.9-11.2-.9-6.6,0-13,.5-19.2,1.4-6.2.9-12.4,2.3-18.6,4.1-.3,6-.4,12-.4,17.9,0,5.9,0,11.8,0,17.7,0,5.6,0,11-.1,16.2,0,5.2,0,10.4,0,15.6,0,5.2,0,10.4,0,15.6,0,5.2,0,10.6,0,16.1h33.9v-31c3.9,0,7.8-.4,11.8-.9,4-.6,7.9-1.4,11.7-2.6,3.8-1.2,7.3-2.7,10.6-4.6,3.3-1.9,6.2-4.2,8.6-6.9s4.4-5.9,5.8-9.6c1.4-3.6,2.1-7.8,2.1-12.5s-.6-8.1-1.9-11.6M384,202.4l5.4-25.3,5.5,25.3h-10.9ZM409.6,138.5l-40.4,2-28.9,96.8,37.1,3.6,3.6-16.4h16.6l4.4,16.4,36-4.6-28.3-97.8ZM310.7,140l-21.1,30.4,2.6-29.9-33.9-1.9-2.3,104.1,30.2-1.2,1.2-28.5,22.1,29.9,33.7-6-29.5-50,32.1-38.2-35.2-8.7ZM239.7,140.4c-3.4-.5-6.8-.8-10.2-.8-8.4,0-15.8,1.4-22.3,4.3-6.5,2.9-11.9,6.9-16.3,11.9-4.4,5.1-7.7,11-10,17.9-2.2,6.9-3.4,14.3-3.4,22.2s1.1,12.9,3.3,18.8c2.2,5.9,5.4,11,9.4,15.4,4,4.4,8.9,7.9,14.5,10.5,5.6,2.6,11.9,3.9,18.8,3.9s4.3-.1,6.6-.4c2.3-.3,4.6-.7,6.9-1.3,2.3-.6,4.5-1.2,6.7-2,2.2-.7,4.2-1.6,6.1-2.6l1.2-34.2c-1.5.9-3.1,1.8-4.9,2.6-1.7.8-3.6,1.6-5.4,2.2-1.9.6-3.8,1.1-5.7,1.5-1.9.4-3.7.5-5.5.5-2.6,0-4.9-.3-7-1-2.1-.7-3.9-1.7-5.4-3-1.5-1.3-2.6-3-3.4-5-.8-2-1.2-4.4-1.2-7.1s.7-7,2.1-9.7c1.4-2.7,3.3-5,5.7-6.8,2.4-1.8,5.2-3.1,8.3-4,3.1-.9,6.4-1.3,9.8-1.3s2.8,0,4.1.2c1.4.1,2.7.4,4.1.8l2.6-30.7c-3.1-1.5-6.4-2.4-9.9-3M141.9,195c-.7,2-1.6,3.7-2.9,5.3-1.3,1.5-2.8,2.7-4.6,3.6-1.8.9-3.9,1.3-6.1,1.3s-4.3-.5-6-1.5c-1.7-1-3.2-2.4-4.3-4-1.2-1.6-2-3.5-2.6-5.5-.6-2-.9-4.1-.9-6.1s.3-4.2,1-6.1c.7-1.9,1.7-3.6,2.9-5,1.3-1.4,2.8-2.6,4.6-3.4,1.8-.8,3.8-1.2,6.1-1.2s4.2.5,5.9,1.4c1.7.9,3.2,2.2,4.3,3.7,1.2,1.5,2.1,3.3,2.7,5.2s.9,4,.9,6.1-.3,4.2-1,6.2M171.8,167.7c-2.3-5.7-5.4-10.6-9.5-14.7-4.1-4-9-7.2-14.8-9.3-5.8-2.2-12.2-3.3-19.2-3.3s-8.5.6-12.4,1.8c-3.9,1.2-7.6,2.9-10.9,5.1-3.4,2.2-6.4,4.8-9.1,7.8s-5,6.3-6.9,9.9c-1.9,3.6-3.4,7.4-4.4,11.4-1,4.1-1.5,8.2-1.5,12.4s.5,8.5,1.6,12.4c1.1,4,2.6,7.7,4.6,11.2,2,3.5,4.3,6.6,7.1,9.4,2.8,2.8,5.9,5.3,9.3,7.3,3.4,2,7.1,3.6,11.1,4.7,3.9,1.1,8.1,1.7,12.5,1.7s8.8-.6,12.8-1.8c4-1.2,7.7-2.8,11.2-5,3.4-2.1,6.5-4.7,9.2-7.7,2.7-3,5.1-6.3,7-9.8,1.9-3.6,3.4-7.4,4.4-11.5,1-4.1,1.5-8.3,1.5-12.8,0-7.1-1.1-13.5-3.4-19.2M72.2,137.5c-3.5-.5-6.9-.8-10.3-.8-8.9,0-16.7,1.6-23.5,4.8-6.8,3.2-12.5,7.6-17.1,13.1-4.6,5.5-8.1,12-10.5,19.3-2.4,7.3-3.6,15.1-3.6,23.4s1.1,12.1,3.4,17.5c2.2,5.4,5.3,10.1,9.3,14.1,3.9,4,8.6,7.1,13.9,9.4,5.3,2.3,11.1,3.4,17.2,3.4s4.4-.1,6.7-.4c2.3-.3,4.6-.7,7-1.3,2.3-.6,4.6-1.2,6.8-2s4.3-1.6,6.1-2.6l2.9-34.2c-1.5.9-3.2,1.7-4.9,2.5-1.8.8-3.6,1.5-5.5,2.2-1.9.6-3.8,1.1-5.7,1.5-1.9.4-3.8.6-5.6.6s-4.6-.3-6.5-.9c-2-.6-3.7-1.5-5.2-2.7-1.5-1.2-2.6-2.7-3.4-4.6-.8-1.8-1.2-4-1.2-6.5,0-3.9.7-7.3,2.2-10.2,1.5-2.9,3.5-5.3,6-7.3,2.5-1.9,5.4-3.4,8.6-4.3,3.2-1,6.7-1.4,10.2-1.4s2.8,0,4.2.2c1.4.1,2.8.4,4.2.8l4.1-30.7c-3-1.4-6.3-2.4-9.8-3"/>
</svg>