<?xml version="1.0" encoding="UTF-8"?>
<svg id="Layer_1" xmlns="http://www.w3.org/2000/svg" version="1.1" viewBox="0 0 217.1 215.6">
  <!-- Generator: Adobe Illustrator 29.7.0, SVG Export Plug-In . SVG Version: 2.1.1 Build 138)  -->
  <defs>
    <style>
      .st0 {
        fill: #141544;
      }
    </style>
  </defs>
  <path class="st0" d="M20.9,215.4v-37h28.4v-106.7c0-14.4,2.9-27,8.8-37.7,5.9-10.7,14.3-19.1,25.3-25C94.5,3.1,107.7,0,123,0s22.1,2.2,32.1,6.5c10.1,4.4,18.5,10.4,25.3,18.2,6.8,7.8,10.9,16.9,12.2,27.3l-38.4,12.5c-1.3-8.2-4.9-14.3-10.8-18.5-5.9-4.2-12.7-6.3-20.5-6.3s-16.8,2.8-21.9,8.2c-5.1,5.5-7.7,13.4-7.7,23.6v106.7h90.5v37H20.9ZM20.9,120.4v-25.6h126.3v25.6H20.9Z"/>
</svg>