<?xml version="1.0" encoding="UTF-8"?>
<svg id="Layer_1" xmlns="http://www.w3.org/2000/svg" version="1.1" viewBox="0 0 217.1 173.9">
  <!-- Generator: Adobe Illustrator 29.7.0, SVG Export Plug-In . SVG Version: 2.1.1 Build 138)  -->
  <defs>
    <style>
      .st0 {
        fill: #fff;
      }
    </style>
  </defs>
  <path class="st0" d="M42.2,173.2c-3.2-.5-9.1-4.3-9.1-7.9v-24.1c-6.8,2.8-15.5,10.9-23.1,10.1-10.9-1.1-12.6-14.9-4.3-20.5l27.3-15.3.2-107.7C34.9,0,45.5-2.5,51.3,2.7s3.1,4.1,3.1,5v96l21.8-12V10.2c0-11.6,17.1-14.2,20.9-3.6.2.5.9,2.9.9,3.1v69.7l21.3-11.5V11.3c-.3-9.2,10-14.5,17.5-9.4s4.3,4.9,4.3,6.8v46.9l21.6-12.2.2-34.7c.9-8.8,13-11.6,18.8-5.6s2.5,3.9,2.5,4.6v24.1c6.6-2.6,15.4-10.6,22.6-10.1,10.5.7,13,12.6,6.3,19.5l-28.9,16.4v106.8c-.4,4.6-4.7,8.2-9.1,8.9h-3c-3.2-.3-9.1-4.4-9.1-7.9v-96l-21.8,12v82c-.5,5.5-4,8.5-9.1,9.9h-3c-3.5-1-6.9-2.3-8.5-6s-1.1-3.6-1.1-3.9v-69.7l-21.2,12-.2,57.1c-.7,6-3.8,9.1-9.6,10.5h-3c-3.7-.6-9.1-4.9-9.1-8.9v-46.9l-21.6,12.2-.4,35.6c-1.1,4.7-4.6,6.9-9,8-1,0-2.1.1-3,0Z"/>
</svg>