<svg id="Group_1636" data-name="Group 1636" xmlns="http://www.w3.org/2000/svg" xmlns:xlink="http://www.w3.org/1999/xlink" width="195.371" height="174.151" viewBox="0 0 195.371 174.151">
  <defs>
    <clipPath id="clip-path">
      <rect id="Rectangle_844" data-name="Rectangle 844" width="195.371" height="174.151" fill="#fff"/>
    </clipPath>
  </defs>
  <g id="Group_1635" data-name="Group 1635" clip-path="url(#clip-path)">
    <path id="Path_77703" data-name="Path 77703" d="M0,19.747C1.538,15.79,4.206,13.863,8.6,14.4c4.27.521,6.442,6.882,8.566,10.125,2.288,3.489,9.3,13.384,13.26,14.21,5.494,1.148,13.411-5.143,18.679-6.706L52.4,34.195c1.781-1.106,3.946-3.426,6.2-3.338,2.2.087,10.035,7.1,13.478,6.87l.066,36.017A69.605,69.605,0,0,0,70.577,89c.421,22.942.553,45.989.348,68.985-.04,7.387-8.2,11.78-14.077,6.924-1.3-1.071-3.045-4.091-3.045-5.73V89.943H52.658v70.385a17.839,17.839,0,0,1-1.36,2.836,8.442,8.442,0,0,1-15.331-3.317L35.89,82.1l-1.542-6.471-.424-19.6C17.648,52.451,7,36.814,0,22.8Z" transform="translate(0 7.073)" fill="#fff"/>
    <path id="Path_77704" data-name="Path 77704" d="M104.443,160.839c-1.224,8.214-14.343,9.215-16.463.438l-.312-79.04a62.91,62.91,0,0,1-1.555-9.889c-.593-10.974.462-22.491.03-33.523L70.484,29.989c3.724-2.5,7.5-5.352,9.188-9.7,3.387.938,4.466,3.332,7.792-.021a23.458,23.458,0,0,0,9.721,9.721c-1.987,1.2-2.365,1.179-2.282,3.62.444.388,4.566-2.51,5.763-2.479,2.382.06,3.855,2.606,5.493,4l3.051-2.528c4.6,1.343,12.526,7.178,17.071,7.012,3.925-.143,8.666-5.039,11.172-7.906C141.743,26.8,144,21.148,147.628,16.32a7.124,7.124,0,0,1,12.644,6.158c-.747,2.969-5.827,10.428-7.821,13.163-6.684,9.17-15.887,18.454-27.77,19.73-1.113,8.9.684,18.158-1.942,26.862-1.164,24.744,1.615,51.007.037,75.575-.378,5.911-3.561,10.566-10.1,9.675-3.577-.489-7.092-4.607-7.092-8.167V90.454h-1.145Z" transform="translate(34.835 6.561)" fill="#fff"/>
    <path id="Path_77705" data-name="Path 77705" d="M74.819,158.529c-1.442,8.69-15.477,8.98-16.756-.415l-.019-77.8c-.034-1.691-.926-3.359-1.121-4.985-1.491-12.481.226-26.192-.4-38.826L40.861,27.861l.23-.781c3.979-1.621,7.133-5.26,8.97-9.085l.819.025c3.03,2.315,4.2,2.131,7.141-.07,1.805,4.36,5.479,7.5,9.541,9.727-1.682,1.145-2.725,1.145-2.28,3.622.4.457,4.723-2.57,5.452-2.575,2.474-.015,4.146,2.628,5.8,4.1,1.76-2.132,3.582-3.353,6.46-3.428l11.437,6.144.613.913-.813,38.485c-1.491,4.009-.9,7.785-1.082,11.89-1.044,23.8-.016,47.808-.43,71.672A8.4,8.4,0,0,1,77.1,160.83a18.962,18.962,0,0,1-1.133-3.065V88.144H74.819Z" transform="translate(20.194 8.871)" fill="#fff"/>
    <path id="Path_77706" data-name="Path 77706" d="M68.214.193a18.376,18.376,0,1,1-9.83,31.761C47,21.635,53.106,2.106,68.214.193" transform="translate(25.943 0.02)" fill="#fff"/>
    <path id="Path_77707" data-name="Path 77707" d="M38.551.2c24.623-3.118,28.284,33.858,4.822,36.486C18.987,39.422,15.286,3.151,38.551.2" transform="translate(11.343 0.009)" fill="#fff"/>
    <path id="Path_77708" data-name="Path 77708" d="M97.753.214c24.619-3.352,28.435,33.738,5.2,36.483-24.547,2.9-28.4-33.324-5.2-36.483" transform="translate(40.668 0)" fill="#fff"/>
    <path id="Path_77709" data-name="Path 77709" d="M98.329,28.5c-.387-.513,2.685-1.482,3.068-1.7a20.76,20.76,0,0,0,8.031-7.821c4.861,1.925,11.954,4.747,9.2,11.313-3.774,9-14.694-.073-20.3-1.8" transform="translate(48.58 9.381)" fill="#fff"/>
    <path id="Path_77710" data-name="Path 77710" d="M26.621,19.269c.87,2.21,2.875,3.615,4.453,5.282L38.12,28.37,25.842,33.837c-6.994,2.123-11.961-6.548-6.385-11.344.819-.705,6.573-3.573,7.163-3.225" transform="translate(8.429 9.509)" fill="#fff"/>
  </g>
</svg>
