<?xml version="1.0" encoding="UTF-8"?>
<svg id="Group_1636" xmlns="http://www.w3.org/2000/svg" version="1.1" viewBox="0 0 195.4 174.2">
  <!-- Generator: Adobe Illustrator 29.7.0, SVG Export Plug-In . SVG Version: 2.1.1 Build 138)  -->
  <defs>
    <style>
      .st0 {
        fill: #fff;
      }
    </style>
  </defs>
  <g id="Group_1630">
    <g id="Group_1629">
      <path id="Path_77691" class="st0" d="M185.2,35.5c-1.6-2.4-4.1-4.1-7.1-5.7s-6.7-3.2-10.6-5.3c-13.4-7-27-14.2-40.3-21.7h0c-1.8-.6-3.7-.9-5.6-.9s-4.1.5-5.9,1.4c-2,1.1-3.6,2.7-4.8,4.6,0,.2-.2.3-.3.5l-.4-.6c-.4-.6-.9-1.1-1.5-1.4-.5-.3-1.1-.6-1.7-.8-3.2-1.1-6.6-2-9.9-2.7-3.3-.8-6.7-1.4-10.1-1.8h-1.8c-3.2-.1-6.3,1.1-8.6,3.3-2.2,2.3-3.7,5.2-4.5,8.3-8.8,29.8-12.4,63.4-19.7,93.6h0v.5c0,1.9.3,3.8.9,5.6.6,1.9,1.8,3.5,3.5,4.6.5.2,1,.4,1.5.5.8.2,1.6.3,2.1.5.2,0,.3,0,.5.2-.3.7-.7,1.3-1.1,1.9-1,1.5-2,2.9-3.2,4.3-.5.6-1,1.1-1.6,1.5-.2.2-.5.4-.9.5-.3,0-.6-.2-.9-.3-.8-.4-1.5-.9-2.1-1.5-.3-.3-.6-.5-.9-.8-.2-.2-.3-.3-.4-.5-.7-1.9-1.1-3.8-1.1-5.8-.2-2.4-.2-5.1-.2-7.6v-5.6c-1.7-26.2-3.8-52.6-4.8-78.8v-1.7c0-2.3.3-4.3,1.6-6.1.2-.3.5-.5.7-.7.6-.5,1.4-1.1,2.1-1.6.3-.2.7-.5.9-.6l.3-.2h0c2-.3,4-.4,5.9-.4,5,0,11.3.4,14.8.4s.7-.2,1-.4c.3-.3.6-.7.7-1.1.2-.5.2-.9.3-1.4,0-.5,0-1.1-.4-1.5-.3-.5-.8-.9-1.4-1.1-1-.3-2.1-.4-3.2-.4-3.4,0-7.5.9-9.8.9h0c-.5,0-.9-.1-1.4-.3-.6-.2-1.2-.3-1.9-.4h0c-5,0-9,1.5-11.8,4.2s-4.2,6.7-4.2,11.6v.9c.9,25.3,3.5,50.9,4.7,76.2v2.8c0,3.2-.2,6.5-.2,9.7s.3,6.9,1.1,10.3c.2.7.6,1.3,1.1,1.8,0,.2.3.3.4.5v.2h0c-1.3-1.6-2.3-3.5-2.9-5.5-.7-2.4-1.2-4.9-2.1-7.3-6.3-17.5-12.1-35.1-17.9-52.9-1.2-3.6-2.9-7.4-4.4-11.3s-2.7-7.6-2.7-10.8.6-4.2,1.9-5.9c1.3-1.7,3.5-3.2,7-4.2.9-.2,1.9-.4,2.9-.6,2-.3,3.9-.7,5.8-1.3.9-.3,1.7-.7,2.4-1.3.7-.6,1.1-1.4,1.1-2.3s0-.7-.2-1v-.4c0,0-3-1.3-3-1.3l-.4.2c-2.5,1.1-6.5,1.9-10.4,2.9s-7.8,2.2-10.1,4.6c-1.1,1.4-1.9,3-2.2,4.7-.4,1.9-.6,3.8-.6,5.8s0,2.2.3,3.3h0c9.4,26.9,18,54.1,26.8,81.2.3.9.8,1.8,1.4,2.7.5.7.8,1.4,1.1,2.2,0,.4,0,.9,0,1.3,0,1.7-.4,3.3-.8,4.9-.5,1.8-.8,3.5-1.1,5.4v2.1c0,11,5.9,20.6,8.3,30.7v.3l.3.2c.7.5,1.5.9,2.4.9s1.1-.2,1.5-.6c.4-.5.6-1.1.7-1.7h0v-.3c-.8-5.1-2.7-10.1-4.5-15-1.7-4.9-3.2-9.8-3.2-14.7s0-2.8.4-4.2c.5-2.6,1.1-4,1.6-4.7.2-.3.5-.5.8-.6s.7-.2,1.1-.2c1.1,0,2.7.4,4.8.4s1.7,0,2.5-.2c3.5-.5,6.6-2.4,8.5-5.4,1.8-2.6,3-5.7,4.7-8.5,3-4.8,6.7-11.9,9.7-15.9,2.6-3.3,5.1-4.6,7.2-4.6s3.2.8,4.2,2.1c1.2,1.5,1.8,3.4,1.8,5.3,0,2.7-1,5.3-2.7,7.4h0l-14.1,24.7h0c0,.6,0,1,0,1.5,0,2.1.9,4.1,1.7,6.1s1.6,4,1.6,5.8h0c0,2.6-.7,5-1.8,7.3-1.1,2.4-2.1,4.8-2.9,7.3v.4c0,.5.3,1,.7,1.4.3.4.8.6,1.3.6s1-.2,1.4-.5c.8-.6,1.4-1.2,2-2,1-1.3,1.8-2.7,2.6-4.1.4-.7.7-1.3.9-1.8.2-.4.4-.8.5-1.2.7-2.4,1.1-5,1.1-7.5s0-1.7,0-2.5c-.3-1.8-.9-3.5-1.8-5-.4-.8-.7-1.5-1-2.1s-.3-.8-.4-1.3h0s.2-.5.4-.9c.9-1.8,2.9-5.5,4.8-8.9,1-1.7,1.9-3.4,2.6-4.7s1.3-2.3,1.6-2.7c.3-.5.6-.9.9-1.3h.3l29.9,15c-.2,7.5-.6,17.2-3.8,23.6s-.3.5-.4.7c-.8,1.1-2.5,3.2-3.9,5.3-.7,1-1.3,2.1-1.9,3.2-.5.9-.8,1.9-.9,2.9,0,.7.3,1.3.8,1.8.6.4,1.3.7,2,.6h0c.7,0,1.3-.3,1.7-.8,1.1-1,2-2.2,2.8-3.4,1.6-2.3,3-4.8,4.3-7.3,1-1.8,1.8-3.6,2.6-5.5.8-3,1.3-6,1.5-9.1.2-2.8.7-5.5,1.6-8.1,1.8.2,3.4.4,4.9.4,2.4,0,4.7-.8,6.6-2.2,3.9-2.6,6.1-6.8,8.3-10.5,12.8-22.7,26.3-50.1,37.8-73.5,2.6-5.4,3.8-9.5,3.9-12.8,0-2-.5-4-1.6-5.7M136.7,131.1c-2.4,2.6-4.5,3.5-6.6,3.5s-5.5-1.4-9-3.1c-4.1-2-8.6-5-12.6-7.5h0l-16.7-7.6c0-.2,0-.3,0-.5,0-.7.4-1.3.8-1.8.6-.7,1-1.5,1.4-2.3,1-2.6,1.7-4.8,1.7-7.2s-.5-3.7-1.3-5.4c-.9-2.2-2.5-4-4.4-5.3-1.7-1.1-3.7-1.7-5.8-1.7-4.8,0-9.8,2.9-13.1,7.1v-.2c.8-3.3,3.6-9.2,6.5-15s6.1-11.7,8-15.4c6.7-13.4,14.3-26.6,21.3-40,1.2-2.3,2.9-6.3,4.7-10.2.9-1.9,1.8-3.8,2.7-5.4.6-1.2,1.4-2.3,2.3-3.3,1.3-1.3,3-2,4.8-2.1,2,0,4,.7,5.8,1.6,8.9,3.7,19.9,10.8,28.9,15.5,2.7,1.4,7.8,3.6,12.7,6,2.4,1.2,4.8,2.4,6.7,3.5,1.5.8,2.8,1.8,4,3,1,1.3,1.6,3,1.6,4.7,0,4-2.6,8.8-4.5,12.5-12.7,25.6-27.3,50.7-39.7,76.8M110.2,8.6c-4.2,6.3-7.5,14.1-10.9,21.8-3.6,8-7.3,15.8-12.1,21.7h0v.3c-2.2,7.3-6.3,14.7-10.5,22.1s-8.5,14.9-10.8,22.3c-.6,1.6-.9,3.2-.9,4.9s.3,2.1.9,3c.6.7,1.4,1.2,2.3,1.3-.3.5-.7,1-1.1,1.6-.7,1.3-1.5,2.5-2.4,3.8-.4.5-.8.9-1.2,1.3-.2.2-.5.4-.9.4h0c0,0-.4-.3-.7-.6-.6-.5-1.4-1.1-2-1.6-.3-.3-.6-.5-.8-.7l-.2-.2v-1.1c.2-3.6.6-7.1,1.2-10.7.6-4.1,1.3-8,1.5-9.3,2.8-15,6.5-30,9.7-44.8.9-4.3,2-10.8,3.2-17.2,1.2-6.3,2.5-12.4,4-15.8,0-.1.3-.4.6-.8.5-.6,1.1-1.3,1.6-1.9.3-.3.5-.6.7-.8l.2-.2h0c1.3-.6,2.6-.8,4-.7,1.3,0,2.6,0,3.9.3l18.6,3.8,2.6-2.2h-.4Z"/>
    </g>
  </g>
</svg>