<?xml version="1.0" encoding="UTF-8"?>
<svg id="Layer_1" xmlns="http://www.w3.org/2000/svg" version="1.1" viewBox="0 0 1023.2 317.9">
  <!-- Generator: Adobe Illustrator 29.7.0, SVG Export Plug-In . SVG Version: 2.1.1 Build 138)  -->
  <defs>
    <style>
      .st0 {
        fill: #df5e5e;
      }

      .st1 {
        fill: #850608;
      }

      .st2 {
        fill: #d12139;
      }

      .st3 {
        fill: #fff;
      }

      .st4 {
        fill: #abb14f;
      }

      .st5 {
        fill: #942419;
      }

      .st6 {
        fill: #6d7e0e;
      }
    </style>
  </defs>
  <g>
    <path class="st2" d="M185.4,7.2h119.5c0,0,606.2,1.4,606.2,1.4l96.5,244c.6,4.3,11.8,8.9,11.8,10.4v44.3s-4.1,4.2-4.1,4.2l-1003.4.5c-.9,0-4.2-3.7-7-2.8v-45.7c0-3,9.2-3.3,11.3-6L110.3,16.8l7-9.6h68.1ZM110.5,303.6h140.4c7.2-15.3,10.5-36.9-11-39-29.5-2.9-84-2-114.2.1-6.1.4-11.8,1.9-17.7,3.2l2.5,35.7Z"/>
    <path d="M185.4,7.2v5.6s119.5,0,119.5,0h0s602.5,1.4,602.5,1.4l95.1,240.5,5.2-2-5.5.7c.2,1.7.9,2.9,1.6,4,1.2,1.8,2.6,3,4,4.1,2.1,1.6,4.3,3,5.9,4,.8.5,1.4.9,1.6,1.1h0s.7-.8.7-.8l-.8.8h0c0,0,.7-.8.7-.8l-.8.8,2.7-2.7-3.2,2c.3.4.5.6.5.7l2.7-2.7-3.2,2,4.3-2.7h-5c0,1.4.5,2.2.7,2.7l4.3-2.7h-5s0,42,0,42l-.9.9-1001.1.5v4.9s1.7-4.6,1.7-4.6c-.3-.1-.8-.3-1.7-.3v4.9s1.7-4.6,1.7-4.6l-1.2,3.3,1.7-3c0,0-.2-.1-.5-.2l-1.2,3.3,1.7-3-.6,1,.6-1h0s-.6,1-.6,1l.6-1s-.4-.3-.9-.6c-.5-.4-1.2-.8-2-1.3-.9-.5-1.9-1-3.2-1.3-1.3-.3-3-.4-4.8.2l1.7,5.3h5.6s0-45.7,0-45.7h-4.1s3.6,2,3.6,2c.3-.5.5-1.3.5-2h-4.1s3.6,2,3.6,2l-2.7-1.5,1.8,2.5c0,0,.5-.3.9-1l-2.7-1.5,1.8,2.5-.5-.7.4.7h0s-.5-.7-.5-.7l.4.7h0c.2-.2.9-.4,1.7-.7,1.2-.4,2.8-.8,4.4-1.4.8-.3,1.7-.7,2.6-1.2.9-.5,1.9-1.2,2.9-2.4l.5-.6L115.2,19.5l4.9-6.7h65.3s0-5.6,0-5.6V1.6s-70.9,0-70.9,0l-9.1,12.5L11,255.5l5.2,2-4.4-3.4,2,1.6-1.7-1.9-.4.4,2,1.6-1.7-1.9.6.7-.5-.8h-.1c0,0,.6.8.6.8l-.5-.8s-.6.3-1.4.6c-1.2.4-2.9.9-4.7,1.5-.9.3-1.8.7-2.8,1.3-.5.3-1,.6-1.6,1.1-.5.5-1.1,1.1-1.6,2-.5.9-.9,2.2-.9,3.4v53.4s7.3-2.4,7.3-2.4l-.7-2.1-.5,2.2c0,0,.6.1,1.2,0l-.7-2.1-.5,2.2v-.4c0,0,0,.4,0,.4h0s0-.4,0-.4v.4c-.1,0,0,0,.3.2.3.2.7.4,1.1.7.5.3.9.7,1.7,1.1.3.1.6.3,1,.5.5.2,1.1.4,2.2.4l1005.7-.5,7.4-7.4v-46.6c0-.9-.2-1.6-.4-2.2-.4-1.1-.9-1.6-1.3-2-.7-.8-1.3-1.2-1.8-1.6-1-.7-2-1.3-3.1-2-1.6-1-3.3-2.1-4.3-3-.5-.4-.9-.8-1-1h0c0,0-1.6.9-1.6.9l1.8-.2c0-.5-.2-.7-.2-.7l-1.6,1,1.8-.2v-.7c0,0-98.2-248.1-98.2-248.1L304.9,1.6h-119.5c0,0,0,5.6,0,5.6ZM110.5,303.6v5.6s143.9,0,143.9,0l1.5-3.2c3.2-6.9,5.8-14.9,6-22.8,0-3.9-.5-7.9-2.2-11.6-1.6-3.7-4.5-7-8.5-9.2-3.1-1.7-6.7-2.8-10.8-3.2-15.1-1.5-36.2-2-57.4-1.8-21.2.1-42.5.9-57.7,1.9-6.7.5-12.8,2.1-18.5,3.3l-4.7,1,3.2,45.7h5.2s0-5.6,0-5.6l5.6-.4-2.5-35.7-5.6.4,1.2,5.4c6-1.3,11.5-2.7,16.9-3.1,14.9-1,36-1.8,57-1.9,21-.1,41.9.4,56.3,1.8,2.9.3,5,1,6.5,1.8,1.9,1.1,2.9,2.3,3.8,4.1,1.2,2.6,1.5,6.6.8,11.2-.7,4.6-2.4,9.5-4.5,13.9l5,2.4v-5.6s-140.4,0-140.4,0v5.6s5.6-.4,5.6-.4l-5.6.4Z"/>
    <path class="st4" d="M110.5,303.6h140.4c7.2-15.3,10.5-36.9-11-39-29.5-2.9-84-2-114.2.1-6.1.4-11.8,1.9-17.7,3.2l2.5,35.7Z"/>
    <path class="st6" d="M1007.6,252.5l-123.6.2,16.2,58.8h115c0,0,4.2-4.2,4.2-4.2v-44.3c0-1.5-11.2-6.1-11.8-10.4Z"/>
    <path class="st5" d="M1007.6,252.5L911.2,8.6l-94.5-.2,83.5,303.2h115c0,0,4.2-4.2,4.2-4.2v-44.3c0-1.5-11.2-6.1-11.8-10.4Z"/>
    <polygon class="st4" points="185.4 7.2 107.7 253.7 257.8 253.7 304.9 7.1 185.4 7.2"/>
    <polygon class="st0" points="185.4 7.2 107.7 253.7 257.8 253.7 304.9 7.1 185.4 7.2"/>
    <path class="st1" d="M107.7,253.7h150.1c0,0,749.8-1.2,749.8-1.2.6,4.3,11.8,8.9,11.8,10.4v44.3s-4.1,4.2-4.1,4.2l-1003.4.5c-.9,0-4.2-3.7-7-2.8v-45.7c0-3,9.2-3.3,11.3-6l91.5-3.8ZM110.5,303.6h140.4c7.2-15.3,10.5-36.9-11-39-29.5-2.9-84-2-114.2.1-6.1.4-11.8,1.9-17.7,3.2l2.5,35.7Z"/>
    <rect class="st6" x="138.3" y="298" width="111.2" height="2.8"/>
    <path class="st0" d="M110.5,303.6h140.4c7.2-15.3,10.5-36.9-11-39-29.5-2.9-84-2-114.2.1-6.1.4-11.8,1.9-17.7,3.2l2.5,35.7Z"/>
    <path d="M185.4,7.2v5.6s119.5,0,119.5,0h0s602.5,1.4,602.5,1.4l95.1,240.5,5.2-2-5.5.7c.2,1.7.9,2.9,1.6,4,1.2,1.8,2.6,3,4,4.1,2.1,1.6,4.3,3,5.9,4,.8.5,1.4.9,1.6,1.1h0s.7-.8.7-.8l-.8.8h0c0,0,.7-.8.7-.8l-.8.8,2.7-2.7-3.2,2c.3.4.5.6.5.7l2.7-2.7-3.2,2,4.3-2.7h-5c0,1.4.5,2.2.7,2.7l4.3-2.7h-5s0,42,0,42l-.9.9-1001.1.5v4.9s1.7-4.6,1.7-4.6c-.3-.1-.8-.3-1.7-.3v4.9s1.7-4.6,1.7-4.6l-1.2,3.3,1.7-3c0,0-.2-.1-.5-.2l-1.2,3.3,1.7-3-.6,1,.6-1h0s-.6,1-.6,1l.6-1s-.4-.3-.9-.6c-.5-.4-1.2-.8-2-1.3-.9-.5-1.9-1-3.2-1.3-1.3-.3-3-.4-4.8.2l1.7,5.3h5.6s0-45.7,0-45.7h-4.1s3.6,2,3.6,2c.3-.5.5-1.3.5-2h-4.1s3.6,2,3.6,2l-2.7-1.5,1.8,2.5c0,0,.5-.3.9-1l-2.7-1.5,1.8,2.5-.5-.7.4.7h0s-.5-.7-.5-.7l.4.7h0c.2-.2.9-.4,1.7-.7,1.2-.4,2.8-.8,4.4-1.4.8-.3,1.7-.7,2.6-1.2.9-.5,1.9-1.2,2.9-2.4l.5-.6L115.2,19.5l4.9-6.7h65.3s0-5.6,0-5.6V1.6s-70.9,0-70.9,0l-9.1,12.5L11,255.5l5.2,2-4.4-3.4,2,1.6-1.7-1.9-.4.4,2,1.6-1.7-1.9.6.7-.5-.8h-.1c0,0,.6.8.6.8l-.5-.8s-.6.3-1.4.6c-1.2.4-2.9.9-4.7,1.5-.9.3-1.8.7-2.8,1.3-.5.3-1,.6-1.6,1.1-.5.5-1.1,1.1-1.6,2-.5.9-.9,2.2-.9,3.4v53.4s7.3-2.4,7.3-2.4l-.7-2.1-.5,2.2c0,0,.6.1,1.2,0l-.7-2.1-.5,2.2v-.4c0,0,0,.4,0,.4h0s0-.4,0-.4v.4c-.1,0,0,0,.3.2.3.2.7.4,1.1.7.5.3.9.7,1.7,1.1.3.1.6.3,1,.5.5.2,1.1.4,2.2.4l1005.7-.5,7.4-7.4v-46.6c0-.9-.2-1.6-.4-2.2-.4-1.1-.9-1.6-1.3-2-.7-.8-1.3-1.2-1.8-1.6-1-.7-2-1.3-3.1-2-1.6-1-3.3-2.1-4.3-3-.5-.4-.9-.8-1-1h0c0,0-1.6.9-1.6.9l1.8-.2c0-.5-.2-.7-.2-.7l-1.6,1,1.8-.2v-.7c0,0-98.2-248.1-98.2-248.1L304.9,1.6h-119.5c0,0,0,5.6,0,5.6Z"/>
  </g>
  <path class="st3" d="M602.9,64.8c-15.8,4.4-25.3,20.2-22.3,36.2l-95.9,27c-5.6-15.1-22.1-23.7-37.9-19.2-16.7,4.7-26.4,22.1-21.7,38.7s8,15.4,15.8,19.3c-4.5,7.4-5.8,16.3-3.4,24.7,4.7,16.7,22.1,26.4,38.7,21.7,15.7-4.4,25.3-20.2,22.4-36l95.9-27c5.7,15,22.1,23.5,37.8,19,16.7-4.7,26.4-22.1,21.7-38.7-2.4-8.5-8-15.4-15.8-19.3,4.5-7.4,5.8-16.3,3.4-24.7-4.7-16.7-22.1-26.4-38.7-21.7ZM633,115c7.7,3,13.4,9.2,15.6,17,3.8,13.7-4.1,27.9-17.8,31.8s-27.9-4.1-31.8-17.8-2-2.4-3.5-1.9l-101.1,28.4c-1.5.4-2.4,2-1.9,3.5,3.8,13.7-4.1,27.9-17.8,31.8-13.7,3.8-27.9-4.1-31.8-17.8-2.2-7.9-.6-16.1,4.4-22.7.5-.7.7-1.6.5-2.5s-.9-1.5-1.7-1.9c-7.7-3-13.4-9.2-15.6-17-3.8-13.7,4.1-27.9,17.8-31.8,13.7-3.8,27.9,4.1,31.8,17.8v.2c.5,1.5,2,2.4,3.5,1.9l101.1-28.4c1.5-.4,2.3-2.2,1.9-3.7-3.8-13.7,4.1-27.9,17.8-31.8,13.7-3.8,27.9,4.1,31.8,17.8s.6,16.1-4.4,22.7c-.5.7-.7,1.6-.5,2.5s.9,1.5,1.7,1.9Z"/>
</svg>