<?xml version="1.0" encoding="UTF-8"?>
<svg id="Layer_1" xmlns="http://www.w3.org/2000/svg" version="1.1" viewBox="0 0 1031.7 316.8">
  <!-- Generator: Adobe Illustrator 29.7.0, SVG Export Plug-In . SVG Version: 2.1.1 Build 138)  -->
  <defs>
    <style>
      .st0 {
        fill: #df5e5e;
      }

      .st1 {
        fill: #850608;
      }

      .st2 {
        fill: #d12139;
      }

      .st3 {
        fill: #910000;
      }

      .st4 {
        fill: #abb14f;
      }

      .st5 {
        fill: #6d7e0e;
      }

      .st6 {
        fill: #570000;
      }
    </style>
  </defs>
  <path class="st2" d="M186.2,4.7h119.5l606.2,1.4,96.5,244c.6,4.3,11.8,8.9,11.8,10.4v44.3l-4.1,4.2-1003.4.5c-.9,0-4.2-3.7-7-2.8v-45.7c0-3,9.2-3.3,11.3-6L111.1,14.3l7-9.6h68.1ZM111.3,301.1h140.4c7.2-15.3,10.5-36.9-11-39-29.5-2.9-84-2-114.2.1-6.1.4-11.8,1.9-17.7,3.2l2.5,35.7h0Z"/>
  <path class="st3" d="M856.4,262.1L781.9,9.6l136.1,1.4s95.7,242.1,96.4,243.2c1.2,1.8,2.6,3,4,4.1,2.1,1.6,4.3,3,5.9,4h-167.9Z"/>
  <g>
    <path d="M186.2,4.7v5.6h119.5l602.5,1.4,95.1,240.5,5.2-2-5.5.7c.2,1.7.9,2.9,1.6,4,1.2,1.8,2.6,3,4,4.1,2.1,1.6,4.3,3,5.9,4,.8.5,1.4.9,1.6,1.1h0l.7-.8-.8.8h0l.7-.8-.8.8,2.7-2.7-3.2,2c.3.4.5.6.5.7l2.7-2.7-3.2,2,4.3-2.7h-5c0,1.4.5,2.2.7,2.7l4.3-2.7h-5v42l-.9.9-1001.1.5v4.9l1.7-4.6c-.3-.1-.8-.3-1.7-.3v4.9l1.7-4.6-1.2,3.3,1.7-3s-.2-.1-.5-.2l-1.2,3.3,1.7-3-.6,1,.6-1h0l-.6,1,.6-1s-.4-.3-.9-.6c-.5-.4-1.2-.8-2-1.3-.9-.5-1.9-1-3.2-1.3s-3-.4-4.8.2l1.7,5.3h5.6v-45.7h-4.1l3.6,2c.3-.5.5-1.3.5-2h-4.1l3.6,2-2.7-1.5,1.8,2.5s.5-.3.9-1l-2.7-1.5,1.8,2.5-.5-.7.4.7h0l-.5-.7.4.7h0c.2-.2.9-.4,1.7-.7,1.2-.4,2.8-.8,4.4-1.4.8-.3,1.7-.7,2.6-1.2s1.9-1.2,2.9-2.4l.5-.6L116,17l4.9-6.7h65.3V-.9h-70.9l-9.1,12.5L11.9,253l5.2,2-4.4-3.4,2,1.6-1.7-1.9-.4.4,2,1.6-1.7-1.9.6.7-.5-.8h-.1l.6.8-.5-.8s-.6.3-1.4.6c-1.2.4-2.9.9-4.7,1.5s-1.8.7-2.8,1.3-1,.6-1.6,1.1c-.5.5-1.1,1.1-1.6,2C.4,258.7,0,260,0,261.2v53.4l7.3-2.4-.7-2.1-.5,2.2s.6.1,1.2,0l-.7-2.1-.5,2.2v-.4.4h0v-.4.4c0,0,0,0,.3.2s.7.4,1.1.7c.5.3.9.7,1.7,1.1.3.1.6.3,1,.5.5.2,1.1.4,2.2.4l1005.7-.5,7.4-7.4v-46.6c0-.9-.2-1.6-.4-2.2-.4-1.1-.9-1.6-1.3-2-.7-.8-1.3-1.2-1.8-1.6-1-.7-2-1.3-3.1-2-1.6-1-3.3-2.1-4.3-3-.5-.4-.9-.8-1-1h0l-1.6.9,1.8-.2c0-.5-.2-.7-.2-.7l-1.6,1,1.8-.2v-.7L915.6,1,305.8-1h-119.5v5.6h0Z"/>
    <path class="st4" d="M111.3,301.1h140.4c7.2-15.3,10.5-36.9-11-39-29.5-2.9-84-2-114.2.1-6.1.4-11.8,1.9-17.7,3.2l2.5,35.7h0Z"/>
    <polygon class="st4" points="186.2 4.7 108.5 251.2 258.6 251.1 305.8 4.6 186.2 4.7"/>
    <polygon class="st0" points="186.2 4.7 108.5 251.2 258.6 251.1 305.8 4.6 186.2 4.7"/>
    <rect class="st5" x="139.1" y="295.5" width="111.2" height="2.8"/>
    <path class="st0" d="M111.3,301.1h140.4c7.2-15.3,10.5-36.9-11-39-29.5-2.9-84-2-114.2.1-6.1.4-11.8,1.9-17.7,3.2l2.5,35.7h0Z"/>
    <path d="M186.2,4.7v5.6h119.5l602.5,1.4s95.7,242.1,96.4,243.2c1.2,1.8,2.6,3,4,4.1,2.1,1.6,4.3,3,5.9,4,.4.2.9.4.9.4,0,0-.2-.5,0,0l-.7,39.3-.9.9-1001.1.5v4.9l1.7-4.6c-.3-.1-.8-.3-1.7-.3v4.9l1.7-4.6-1.2,3.3,1.7-3s-.2-.1-.5-.2l-1.2,3.3,1.7-3-.6,1,.6-1h0l-.6,1,.6-1s-.4-.3-.9-.6c-.5-.4-1.2-.8-2-1.3-.9-.5-1.9-1-3.2-1.3s-3-.4-4.8.2l1.7,5.3h5.6v-45.7h-4.1l3.6,2c.3-.5.5-1.3.5-2h-4.1l3.6,2-2.7-1.5,1.8,2.5s.5-.3.9-1l-2.7-1.5,1.8,2.5-.5-.7.4.7h0l-.5-.7.4.7h0c.2-.2.9-.4,1.7-.7,1.2-.4,2.8-.8,4.4-1.4.8-.3,1.7-.7,2.6-1.2s1.9-1.2,2.9-2.4l.5-.6L116,17l4.9-6.7h65.3V-.9h-70.9l-9.1,12.5L11.9,253l5.2,2-4.4-3.4,2,1.6-1.7-1.9-.4.4,2,1.6-1.7-1.9.6.7-.5-.8h-.1l.6.8-.5-.8s-.6.3-1.4.6c-1.2.4-2.9.9-4.7,1.5s-1.8.7-2.8,1.3-1,.6-1.6,1.1c-.5.5-1.1,1.1-1.6,2C.4,258.7,0,260,0,261.2v53.4l7.3-2.4-.7-2.1-.5,2.2s.6.1,1.2,0l-.7-2.1-.5,2.2v-.4.4h0v-.4.4c0,0,0,0,.3.2s.7.4,1.1.7c.5.3.9.7,1.7,1.1.3.1.6.3,1,.5.5.2,1.1.4,2.2.4l1005.7-.5,7.4-7.4v-46.6c0-.9-.2-1.6-.4-2.2-.4-1.1-.9-1.6-1.3-2-.7-.8-1.3-1.2-1.8-1.6-1-.7-2-1.3-3.1-2-1.6-1-3.3-2.1-4.3-3-.5-.4-.9-.8-1-1h.2c0,.1-98.2-248-98.2-248L305.8-1h-119.5v5.6h0Z"/>
  </g>
  <g>
    <path class="st1" d="M451.2,99.8c-.3,4.2-.5,8.3-.7,12.4s-.5,8.2-.9,12.4l-28.2,1.5v8.4h24.4l-1.3,20.6-23.2.7v39.3c.1,0-33.5.7-33.5.7l2.1-95.8h61.2v-.2Z"/>
    <path class="st1" d="M534.9,148.7c0,4-.5,7.9-1.4,11.7-.9,3.7-2.3,7.3-4,10.5-1.8,3.3-3.9,6.3-6.4,9s-5.3,5.1-8.4,7c-3.1,1.9-6.5,3.5-10.2,4.5-3.7,1.1-7.6,1.6-11.7,1.6s-7.8-.5-11.4-1.5-7-2.4-10.1-4.3c-3.1-1.8-6-4.1-8.5-6.6-2.5-2.6-4.7-5.5-6.5-8.6-1.8-3.2-3.2-6.6-4.2-10.2-1-3.6-1.5-7.4-1.5-11.4s.5-7.6,1.4-11.3,2.3-7.2,4-10.5,3.9-6.3,6.3-9c2.5-2.7,5.3-5.1,8.3-7.1,3.1-2,6.4-3.5,10-4.6s7.4-1.7,11.4-1.7c6.4,0,12.3,1,17.6,3s9.8,4.8,13.5,8.5c3.7,3.7,6.6,8.2,8.7,13.4,2.1,5.2,3.1,11.1,3.1,17.6h0ZM505.4,150.4c0-1.9-.3-3.8-.8-5.5-.6-1.8-1.4-3.4-2.4-4.8-1.1-1.4-2.4-2.5-4-3.4s-3.4-1.3-5.4-1.3-3.9.4-5.6,1.1c-1.6.8-3,1.8-4.2,3.1s-2.1,2.8-2.7,4.6-.9,3.6-.9,5.5.3,3.7.8,5.6c.5,1.9,1.3,3.5,2.4,5s2.4,2.7,4,3.7c1.6.9,3.4,1.4,5.5,1.4s4-.4,5.6-1.2c1.7-.8,3.1-1.9,4.2-3.3,1.2-1.4,2-3,2.7-4.8.6-1.8.9-3.7.9-5.6h-.1Z"/>
    <path class="st1" d="M621.7,148.7c0,4-.5,7.9-1.4,11.7-.9,3.7-2.3,7.3-4,10.5-1.8,3.3-3.9,6.3-6.4,9s-5.3,5.1-8.4,7c-3.1,1.9-6.5,3.5-10.2,4.5-3.7,1.1-7.6,1.6-11.7,1.6s-7.8-.5-11.4-1.5c-3.6-1-7-2.4-10.1-4.3-3.1-1.8-6-4.1-8.5-6.6-2.5-2.6-4.7-5.5-6.5-8.6-1.8-3.2-3.2-6.6-4.2-10.2-1-3.6-1.5-7.4-1.5-11.4s.5-7.6,1.4-11.3,2.3-7.2,4-10.5,3.9-6.3,6.3-9c2.5-2.7,5.3-5.1,8.3-7.1,3.1-2,6.4-3.5,10-4.6s7.4-1.7,11.4-1.7c6.4,0,12.3,1,17.6,3s9.8,4.8,13.5,8.5,6.6,8.2,8.7,13.4c2.1,5.2,3.1,11.1,3.1,17.6h0ZM592.2,150.4c0-1.9-.3-3.8-.8-5.5-.6-1.8-1.4-3.4-2.4-4.8-1.1-1.4-2.4-2.5-4-3.4s-3.4-1.3-5.4-1.3-3.9.4-5.6,1.1c-1.6.8-3,1.8-4.2,3.1s-2.1,2.8-2.7,4.6c-.6,1.8-.9,3.6-.9,5.5s.3,3.7.8,5.6c.5,1.9,1.3,3.5,2.4,5,1.1,1.5,2.4,2.7,4,3.7,1.6.9,3.4,1.4,5.5,1.4s4-.4,5.6-1.2c1.7-.8,3.1-1.9,4.2-3.3,1.2-1.4,2-3,2.7-4.8.6-1.8.9-3.7.9-5.6h0Z"/>
    <path class="st1" d="M701.6,142.9c0,6.2-.8,11.8-2.4,16.8s-3.8,9.4-6.7,13.3c-2.9,3.9-6.3,7.2-10.2,10s-8.3,5.1-13,6.9c-4.7,1.8-9.7,3.1-15,4s-10.7,1.3-16.3,1.3-4.1,0-6.1-.2c-2-.1-4-.3-6.1-.5l1.9-89.1c4.9-1.5,9.9-2.6,15-3.3,5.2-.6,10.3-1,15.4-1s12.2,1,17.5,2.9,9.9,4.6,13.7,8.2c3.9,3.6,6.9,8,9,13.2s3.2,11,3.2,17.6h0ZM674.3,147.1c0-2.4-.2-4.7-.8-6.9s-1.5-4.2-2.7-5.9c-1.3-1.7-2.9-3.1-4.8-4.1-1.9-1-4.3-1.6-7-1.7l-2.7,41.2c2.7-.4,5.1-1.3,7.2-2.6,2.2-1.4,4-3,5.6-5s2.8-4.2,3.7-6.6c.9-2.4,1.3-4.9,1.4-7.5v-.9h0Z"/>
  </g>
  <path class="st6" d="M1020.2,260.5v44.3l-4.1,4.2-1003.4.5c-.9,0-4.2-3.7-7-2.8v-45.7c0-3,9.2-3.3,11.3-6,0,0,1003.2,4,1003.2,5.5ZM111.3,301.1h140.4c7.2-15.3,10.5-36.9-11-39-29.5-2.9-84-2-114.2.1-6.1.4-11.8,1.9-17.7,3.2l2.5,35.7h0Z"/>
</svg>