<?xml version="1.0" encoding="UTF-8"?>
<svg id="Layer_1" xmlns="http://www.w3.org/2000/svg" version="1.1" viewBox="0 0 720 720">
  <!-- Generator: Adobe Illustrator 29.7.0, SVG Export Plug-In . SVG Version: 2.1.1 Build 138)  -->
  <path d="M669.5.9h48.3v1.4c-70,141.3-238.3,224.7-383.6,276.8l-41.8-27.6c-1.7-1.1-1.8-1.7,0-2.8,5.3-3.5,27.8-9.3,35.9-12.4C452.8,188.3,604.8,121.3,669.5.9Z"/>
  <path d="M184.3,554.3c-1.3-6.5-16.7-32.2-20.6-41.9-16.6-41.4-25.7-87.8-24.9-132.6l135.7-88.7,68.2,46.4c55,2.7,113.1-3.5,167.6,0,53,3.4,91.2,39.5,94.6,93,2.1,32.3-1.6,66.7,0,99.3l49.8,41.5v147.1h-88.1v-76c-42-25.7-70.4-71.4-69.6-121.5h-224.5v197.6h-88.1v-164.2Z"/>
  <path d="M11,265.2l63.2-34.2,1.8-2.5c0-36,27.3-60,60.7-67.2l51.1-44,58.6,140-125.4,81.8c-14.8-.2-28.9.9-43.5-2.1-34.4-7.1-62.1-36.8-66.6-71.7Z"/>
</svg>