<?xml version="1.0" encoding="UTF-8"?>
<svg id="Layer_1" xmlns="http://www.w3.org/2000/svg" version="1.1" viewBox="0 0 720 720">
  <!-- Generator: Adobe Illustrator 29.7.0, SVG Export Plug-In . SVG Version: 2.1.1 Build 138)  -->
  <path d="M216.8,720H43v-175.1h127.9c3.1,0,17.1-4.6,20.9-6,16.2-6.1,28.4-16.8,39.9-29.3,12.8,18.3,32.7,26.7,52.8,34.5l-67.6,175.9Z"/>
  <path d="M505,720l-67.6-175.9c20-7.8,40-16.3,52.8-34.5,11.5,12.5,23.7,23.2,39.9,29.3,3.8,1.4,17.8,6,20.9,6h127.9v175.1h-173.8Z"/>
  <path d="M459.8,720h-197.8l67.1-173.7c1.1-1.4,2.6-1.3,4.2-1.4,6.1-.7,56.2-.8,58.7.8l67.8,174.4Z"/>
  <path d="M-.8,422h210.5v38.8c0,15.4-26.1,40.1-42,41.3-39.1-1.9-82.7,3.7-121.2.4-24.7-2.1-41.4-20.9-47.3-43.8v-36.7Z"/>
  <polygon points="269.1 379.6 360.2 141 452.7 379.6 269.1 379.6"/>
  <polygon points="498.6 379.6 424.5 184.8 683 379.6 498.6 379.6"/>
  <polygon points="38.8 379.6 296.6 186.2 223.1 379.6 38.8 379.6"/>
  <path d="M469.7,422v31.8c0,23.1-24.8,46.8-47.3,48.8-31.9,2.8-89.4,2.4-121.6,0-23.1-1.7-48.7-24.7-48.7-48.8v-31.8h217.6Z"/>
  <path d="M722.6,422v36c0,21.1-27,42.8-47.3,44.5-38.6,3.3-82.1-2.3-121.2-.4-15.9-1.2-42-26-42-41.3v-38.8h210.5Z"/>
</svg>