<?xml version='1.0' encoding='UTF-8'?>
<svg xmlns="http://www.w3.org/2000/svg" id="Layer_1" version="1.1" viewBox="0 0 1031.7 316.8">
  <!-- Generator: Adobe Illustrator 29.7.0, SVG Export Plug-In . SVG Version: 2.1.1 Build 138)  -->
  <defs>
    <style>
      .st0 {
        fill: #df5e5e;
      }

      .st1 {
        fill: #850608;
      }

      .st2 {
        fill: #d12139;
      }

      .st3 {
        fill: #abb14f;
      }

      .st4 {
        fill: #942419;
      }

      .st5 {
        fill: #6d7e0e;
      }
    </style>
  </defs>
  <g>
    <path class="st2" d="M186.2,4.7h119.5c0,0,606.2,1.4,606.2,1.4l96.5,244c.6,4.3,11.8,8.9,11.8,10.4v44.3s-4.1,4.2-4.1,4.2l-1003.4.5c-.9,0-4.2-3.7-7-2.8v-45.7c0-3,9.2-3.3,11.3-6L111.1,14.3l7-9.6h68.1ZM111.3,301.1h140.4c7.2-15.3,10.5-36.9-11-39-29.5-2.9-84-2-114.2.1-6.1.4-11.8,1.9-17.7,3.2l2.5,35.7Z"/>
    <path d="M186.2,4.7v5.6s119.5,0,119.5,0h0s602.5,1.4,602.5,1.4l95.1,240.5,5.2-2-5.5.7c.2,1.7.9,2.9,1.6,4,1.2,1.8,2.6,3,4,4.1,2.1,1.6,4.3,3,5.9,4,.8.5,1.4.9,1.6,1.1h0s.7-.8.7-.8l-.8.8h0c0,0,.7-.8.7-.8l-.8.8,2.7-2.7-3.2,2c.3.4.5.6.5.7l2.7-2.7-3.2,2,4.3-2.7h-5c0,1.4.5,2.2.7,2.7l4.3-2.7h-5s0,42,0,42l-.9.9-1001.1.5v4.9s1.7-4.6,1.7-4.6c-.3-.1-.8-.3-1.7-.3v4.9s1.7-4.6,1.7-4.6l-1.2,3.3,1.7-3c0,0-.2-.1-.5-.2l-1.2,3.3,1.7-3-.6,1,.6-1h0s-.6,1-.6,1l.6-1s-.4-.3-.9-.6c-.5-.4-1.2-.8-2-1.3-.9-.5-1.9-1-3.2-1.3-1.3-.3-3-.4-4.8.2l1.7,5.3h5.6s0-45.7,0-45.7h-4.1s3.6,2,3.6,2c.3-.5.5-1.3.5-2h-4.1s3.6,2,3.6,2l-2.7-1.5,1.8,2.5c0,0,.5-.3.9-1l-2.7-1.5,1.8,2.5-.5-.7.4.7h0s-.5-.7-.5-.7l.4.7h0c.2-.2.9-.4,1.7-.7,1.2-.4,2.8-.8,4.4-1.4.8-.3,1.7-.7,2.6-1.2.9-.5,1.9-1.2,2.9-2.4l.5-.6L116,17l4.9-6.7h65.3s0-5.6,0-5.6V-.9s-70.9,0-70.9,0l-9.1,12.5L11.9,253l5.2,2-4.4-3.4,2,1.6-1.7-1.9-.4.4,2,1.6-1.7-1.9.6.7-.5-.8h-.1c0,0,.6.8.6.8l-.5-.8s-.6.3-1.4.6c-1.2.4-2.9.9-4.7,1.5-.9.3-1.8.7-2.8,1.3-.5.3-1,.6-1.6,1.1-.5.5-1.1,1.1-1.6,2-.5.9-.9,2.2-.9,3.4v53.4s7.3-2.4,7.3-2.4l-.7-2.1-.5,2.2c0,0,.6.1,1.2,0l-.7-2.1-.5,2.2v-.4c0,0,0,.4,0,.4h0s0-.4,0-.4v.4c-.1,0,0,0,.3.2.3.2.7.4,1.1.7.5.3.9.7,1.7,1.1.3.1.6.3,1,.5.5.2,1.1.4,2.2.4l1005.7-.5,7.4-7.4v-46.6c0-.9-.2-1.6-.4-2.2-.4-1.1-.9-1.6-1.3-2-.7-.8-1.3-1.2-1.8-1.6-1-.7-2-1.3-3.1-2-1.6-1-3.3-2.1-4.3-3-.5-.4-.9-.8-1-1h0c0,0-1.6.9-1.6.9l1.8-.2c0-.5-.2-.7-.2-.7l-1.6,1,1.8-.2v-.7c0,0-98.2-248.1-98.2-248.1L305.8-1h-119.5c0,0,0,5.6,0,5.6ZM111.3,301.1v5.6s143.9,0,143.9,0l1.5-3.2c3.2-6.9,5.8-14.9,6-22.8,0-3.9-.5-7.9-2.2-11.6-1.6-3.7-4.5-7-8.5-9.2-3.1-1.7-6.7-2.8-10.8-3.2-15.1-1.5-36.2-2-57.4-1.8-21.2.1-42.5.9-57.7,1.9-6.7.5-12.8,2.1-18.5,3.3l-4.7,1,3.2,45.7h5.2s0-5.6,0-5.6l5.6-.4-2.5-35.7-5.6.4,1.2,5.4c6-1.3,11.5-2.7,16.9-3.1,14.9-1,36-1.8,57-1.9,21-.1,41.9.4,56.3,1.8,2.9.3,5,1,6.5,1.8,1.9,1.1,2.9,2.3,3.8,4.1,1.2,2.6,1.5,6.6.8,11.2-.7,4.6-2.4,9.5-4.5,13.9l5,2.4v-5.6s-140.4,0-140.4,0v5.6s5.6-.4,5.6-.4l-5.6.4Z"/>
    <path class="st3" d="M111.3,301.1h140.4c7.2-15.3,10.5-36.9-11-39-29.5-2.9-84-2-114.2.1-6.1.4-11.8,1.9-17.7,3.2l2.5,35.7Z"/>
    <polygon class="st3" points="186.2 4.7 108.5 251.2 258.6 251.1 305.8 4.6 186.2 4.7"/>
    <polygon class="st0" points="186.2 4.7 108.5 251.2 258.6 251.1 305.8 4.6 186.2 4.7"/>
    <rect class="st5" x="139.1" y="295.5" width="111.2" height="2.8"/>
    <path class="st0" d="M111.3,301.1h140.4c7.2-15.3,10.5-36.9-11-39-29.5-2.9-84-2-114.2.1-6.1.4-11.8,1.9-17.7,3.2l2.5,35.7Z"/>
    <path d="M186.2,4.7v5.6s119.5,0,119.5,0h0s602.5,1.4,602.5,1.4l95.1,240.5,5.2-2-5.5.7c.2,1.7.9,2.9,1.6,4,1.2,1.8,2.6,3,4,4.1,2.1,1.6,4.3,3,5.9,4,.8.5,1.4.9,1.6,1.1h0s.7-.8.7-.8l-.8.8h0c0,0,.7-.8.7-.8l-.8.8,2.7-2.7-3.2,2c.3.4.5.6.5.7l2.7-2.7-3.2,2,4.3-2.7h-5c0,1.4.5,2.2.7,2.7l4.3-2.7h-5s0,42,0,42l-.9.9-1001.1.5v4.9s1.7-4.6,1.7-4.6c-.3-.1-.8-.3-1.7-.3v4.9s1.7-4.6,1.7-4.6l-1.2,3.3,1.7-3c0,0-.2-.1-.5-.2l-1.2,3.3,1.7-3-.6,1,.6-1h0s-.6,1-.6,1l.6-1s-.4-.3-.9-.6c-.5-.4-1.2-.8-2-1.3-.9-.5-1.9-1-3.2-1.3-1.3-.3-3-.4-4.8.2l1.7,5.3h5.6s0-45.7,0-45.7h-4.1s3.6,2,3.6,2c.3-.5.5-1.3.5-2h-4.1s3.6,2,3.6,2l-2.7-1.5,1.8,2.5c0,0,.5-.3.9-1l-2.7-1.5,1.8,2.5-.5-.7.4.7h0s-.5-.7-.5-.7l.4.7h0c.2-.2.9-.4,1.7-.7,1.2-.4,2.8-.8,4.4-1.4.8-.3,1.7-.7,2.6-1.2.9-.5,1.9-1.2,2.9-2.4l.5-.6L116,17l4.9-6.7h65.3s0-5.6,0-5.6V-.9s-70.9,0-70.9,0l-9.1,12.5L11.9,253l5.2,2-4.4-3.4,2,1.6-1.7-1.9-.4.4,2,1.6-1.7-1.9.6.7-.5-.8h-.1c0,0,.6.8.6.8l-.5-.8s-.6.3-1.4.6c-1.2.4-2.9.9-4.7,1.5-.9.3-1.8.7-2.8,1.3-.5.3-1,.6-1.6,1.1-.5.5-1.1,1.1-1.6,2-.5.9-.9,2.2-.9,3.4v53.4s7.3-2.4,7.3-2.4l-.7-2.1-.5,2.2c0,0,.6.1,1.2,0l-.7-2.1-.5,2.2v-.4c0,0,0,.4,0,.4h0s0-.4,0-.4v.4c-.1,0,0,0,.3.2.3.2.7.4,1.1.7.5.3.9.7,1.7,1.1.3.1.6.3,1,.5.5.2,1.1.4,2.2.4l1005.7-.5,7.4-7.4v-46.6c0-.9-.2-1.6-.4-2.2-.4-1.1-.9-1.6-1.3-2-.7-.8-1.3-1.2-1.8-1.6-1-.7-2-1.3-3.1-2-1.6-1-3.3-2.1-4.3-3-.5-.4-.9-.8-1-1h0c0,0-1.6.9-1.6.9l1.8-.2c0-.5-.2-.7-.2-.7l-1.6,1,1.8-.2v-.7c0,0-98.2-248.1-98.2-248.1L305.8-1h-119.5c0,0,0,5.6,0,5.6Z"/>
  </g>
  <g>
    <path class="st1" d="M451.2,99.8c-.3,4.2-.5,8.3-.7,12.4-.2,4.1-.5,8.2-.9,12.4l-28.2,1.5v8.4h24.4l-1.3,20.6-23.2.7v39.3c.1,0-33.5.7-33.5.7l2.1-95.8h61.2Z"/>
    <path class="st1" d="M534.9,148.7c0,4-.5,7.9-1.4,11.7-.9,3.7-2.3,7.3-4,10.5-1.8,3.3-3.9,6.3-6.4,9-2.5,2.7-5.3,5.1-8.4,7-3.1,1.9-6.5,3.5-10.2,4.5-3.7,1.1-7.6,1.6-11.7,1.6s-7.8-.5-11.4-1.5c-3.6-1-7-2.4-10.1-4.3-3.1-1.8-6-4.1-8.5-6.6-2.5-2.6-4.7-5.5-6.5-8.6-1.8-3.2-3.2-6.6-4.2-10.2-1-3.6-1.5-7.4-1.5-11.4s.5-7.6,1.4-11.3c.9-3.7,2.3-7.2,4-10.5,1.7-3.3,3.9-6.3,6.3-9,2.5-2.7,5.3-5.1,8.3-7.1,3.1-2,6.4-3.5,10-4.6,3.6-1.1,7.4-1.7,11.4-1.7,6.4,0,12.3,1,17.6,3,5.3,2,9.8,4.8,13.5,8.5,3.7,3.7,6.6,8.2,8.7,13.4,2.1,5.2,3.1,11.1,3.1,17.6ZM505.4,150.4c0-1.9-.3-3.8-.8-5.5-.6-1.8-1.4-3.4-2.4-4.8-1.1-1.4-2.4-2.5-4-3.4-1.6-.9-3.4-1.3-5.4-1.3s-3.9.4-5.6,1.1c-1.6.8-3,1.8-4.2,3.1-1.2,1.3-2.1,2.8-2.7,4.6-.6,1.8-.9,3.6-.9,5.5s.3,3.7.8,5.6c.5,1.9,1.3,3.5,2.4,5,1.1,1.5,2.4,2.7,4,3.7,1.6.9,3.4,1.4,5.5,1.4s4-.4,5.6-1.2c1.7-.8,3.1-1.9,4.2-3.3,1.2-1.4,2-3,2.7-4.8.6-1.8.9-3.7.9-5.6Z"/>
    <path class="st1" d="M621.7,148.7c0,4-.5,7.9-1.4,11.7-.9,3.7-2.3,7.3-4,10.5-1.8,3.3-3.9,6.3-6.4,9-2.5,2.7-5.3,5.1-8.4,7-3.1,1.9-6.5,3.5-10.2,4.5-3.7,1.1-7.6,1.6-11.7,1.6s-7.8-.5-11.4-1.5c-3.6-1-7-2.4-10.1-4.3-3.1-1.8-6-4.1-8.5-6.6-2.5-2.6-4.7-5.5-6.5-8.6-1.8-3.2-3.2-6.6-4.2-10.2-1-3.6-1.5-7.4-1.5-11.4s.5-7.6,1.4-11.3c.9-3.7,2.3-7.2,4-10.5,1.7-3.3,3.9-6.3,6.3-9,2.5-2.7,5.3-5.1,8.3-7.1,3.1-2,6.4-3.5,10-4.6,3.6-1.1,7.4-1.7,11.4-1.7,6.4,0,12.3,1,17.6,3,5.3,2,9.8,4.8,13.5,8.5,3.7,3.7,6.6,8.2,8.7,13.4,2.1,5.2,3.1,11.1,3.1,17.6ZM592.2,150.4c0-1.9-.3-3.8-.8-5.5-.6-1.8-1.4-3.4-2.4-4.8-1.1-1.4-2.4-2.5-4-3.4-1.6-.9-3.4-1.3-5.4-1.3s-3.9.4-5.6,1.1c-1.6.8-3,1.8-4.2,3.1-1.2,1.3-2.1,2.8-2.7,4.6-.6,1.8-.9,3.6-.9,5.5s.3,3.7.8,5.6c.5,1.9,1.3,3.5,2.4,5,1.1,1.5,2.4,2.7,4,3.7,1.6.9,3.4,1.4,5.5,1.4s4-.4,5.6-1.2c1.7-.8,3.1-1.9,4.2-3.3,1.2-1.4,2-3,2.7-4.8.6-1.8.9-3.7.9-5.6Z"/>
    <path class="st1" d="M701.6,142.9c0,6.2-.8,11.8-2.4,16.8s-3.8,9.4-6.7,13.3c-2.9,3.9-6.3,7.2-10.2,10s-8.3,5.1-13,6.9c-4.7,1.8-9.7,3.1-15,4-5.3.9-10.7,1.3-16.3,1.3s-4.1,0-6.1-.2c-2-.1-4-.3-6.1-.5l1.9-89.1c4.9-1.5,9.9-2.6,15-3.3,5.2-.6,10.3-1,15.4-1s12.2,1,17.5,2.9c5.3,1.9,9.9,4.6,13.7,8.2,3.9,3.6,6.9,8,9,13.2,2.1,5.2,3.2,11,3.2,17.6ZM674.3,147.1c0-2.4-.2-4.7-.8-6.9-.6-2.2-1.5-4.2-2.7-5.9-1.3-1.7-2.9-3.1-4.8-4.1-1.9-1-4.3-1.6-7-1.7l-2.7,41.2c2.7-.4,5.1-1.3,7.2-2.6,2.2-1.4,4-3,5.6-5,1.6-2,2.8-4.2,3.7-6.6.9-2.4,1.3-4.9,1.4-7.5v-.9Z"/>
  </g>
</svg>