<svg xmlns="http://www.w3.org/2000/svg" xmlns:xlink="http://www.w3.org/1999/xlink" width="863.461" height="517.665" viewBox="0 0 863.461 517.665">
  <defs>
    <clipPath id="clip-path">
      <path id="Path_5955" data-name="Path 5955" d="M0,396.37H863.461V-121.3H0Z" transform="translate(0 121.295)" fill="none"/>
    </clipPath>
  </defs>
  <g id="Group_197" data-name="Group 197" transform="translate(0 121.295)">
    <g id="Group_102" data-name="Group 102" transform="translate(0 -121.295)" clip-path="url(#clip-path)">
      <g id="Group_101" data-name="Group 101" transform="translate(12.107 12.331)">
        <path id="Path_5954" data-name="Path 5954" d="M611.579,217.3A105.411,105.411,0,0,1,631.3,246.219,104.7,104.7,0,0,1,521.37,393.557c-27.271-3.892-46.485-17.746-60.334-37.279-12.944-18.262-20.793-41.3-26.111-65.447-1.425-6.47-4.6-10.093-8.817-12.3-5.838-3.064-14.272-4.549-23.243-6.082l-.009.047L50.421,222.2c-.269-.043-.538-.085-.8-.141-8.741-1-16.939-1.839-23.208-.568-4.66.943-8.728,3.529-11.9,9.347-11.865,21.693-25.842,41.615-43.378,55.529-18.761,14.882-41.082,22.8-68.353,18.911a104.38,104.38,0,0,1-68.964-40.822,104.376,104.376,0,0,1-19.9-77.627,104.189,104.189,0,0,1,24.531-53.757,105.45,105.45,0,0,1,27.028-22.244A105.41,105.41,0,0,1-154.255,81.9a104.165,104.165,0,0,1-8.514-58.473,104.369,104.369,0,0,1,40.822-68.964,104.385,104.385,0,0,1,77.627-19.9c27.271,3.892,46.485,17.746,60.334,37.279,12.949,18.262,20.793,41.3,26.111,65.447,1.425,6.47,4.6,10.093,8.817,12.3,5.838,3.064,14.272,4.549,23.243,6.082l.008-.047,352.436,50.3c.273.038.538.085.8.141,8.74,1,16.939,1.839,23.208.568,4.66-.943,8.728-3.529,11.907-9.347,11.86-21.693,25.837-41.62,43.374-55.529,18.761-14.882,41.086-22.8,68.353-18.915a104.689,104.689,0,0,1,37.3,194.455M605.536,258a76.615,76.615,0,0,0-28.449-32.572,14.174,14.174,0,0,1,3.649-25.586A76.339,76.339,0,0,0,570.262,50.958c-18.6-2.655-33.886,2.8-46.784,13.03-14.126,11.2-25.863,28.129-36.084,46.822-7.93,14.506-18.655,21.083-31.2,23.622-10.273,2.078-20.84,1.02-31.983-.256a14.472,14.472,0,0,1-1.6-.137L70.181,83.743l.009-.051-.329-.051c-11.519-1.963-22.4-3.862-32.03-8.915C26.5,68.78,18.045,59.468,14.486,43.319,9.906,22.513,3.368,2.979-7.058-11.728c-9.521-13.427-22.671-22.94-41.274-25.594a76.074,76.074,0,0,0-56.578,14.5,76.067,76.067,0,0,0-29.747,50.262,75.977,75.977,0,0,0,6.176,42.678,76.63,76.63,0,0,0,28.445,32.572,14.114,14.114,0,0,1,6.026,8.028,14.176,14.176,0,0,1-9.675,17.558,76.613,76.613,0,0,0-36.426,23.311,76,76,0,0,0-17.865,39.247,76.069,76.069,0,0,0,14.5,56.578,76.088,76.088,0,0,0,50.262,29.751c18.6,2.655,33.891-2.8,46.788-13.03,14.122-11.2,25.863-28.129,36.08-46.822,7.934-14.506,18.659-21.083,31.2-23.622,10.273-2.083,20.844-1.02,31.983.256a14.471,14.471,0,0,1,1.6.137l352.436,50.3,0,.051.329.051c11.515,1.963,22.393,3.858,32.026,8.915C450.55,259.343,459,268.655,462.564,284.8c4.584,20.806,11.118,40.339,21.544,55.042,9.522,13.431,22.675,22.944,41.274,25.6A76.37,76.37,0,0,0,605.536,258Z" transform="translate(187.152 66.497)" fill="#fff"/>
      </g>
    </g>
    <g id="Group_103" data-name="Group 103" transform="translate(301.552 264.192)">
      <path id="Path_5956" data-name="Path 5956" d="M0,.722,12.266-.221l.145,1.869-5.121.4.99,12.829-2.113.162L5.177,2.207.145,2.6Z" transform="translate(0 0.221)" fill="#fff"/>
    </g>
    <g id="Group_104" data-name="Group 104" transform="translate(316.879 263.017)">
      <path id="Path_5957" data-name="Path 5957" d="M7.928.124l2.1-.162,1.131,14.681-2.1.162L8.568,8.417.314,9.052l.5,6.389-2.1.162L-2.426.922-.322.76.165,7.106,8.419,6.47Z" transform="translate(2.426 0.038)" fill="#fff"/>
    </g>
    <g id="Group_105" data-name="Group 105" transform="translate(333.646 262.045)">
      <path id="Path_5958" data-name="Path 5958" d="M0,.49,8.322-.15l.145,1.869L2.245,2.2l.346,4.473L8.6,6.213,8.749,8.1l-6.013.461.35,4.562,6.423-.5.145,1.869-8.523.657Z" transform="translate(0 0.15)" fill="#fff"/>
    </g>
    <g id="Group_110" data-name="Group 110" transform="translate(0 -121.295)" clip-path="url(#clip-path)">
      <g id="Group_106" data-name="Group 106" transform="translate(352.558 382.087)">
        <path id="Path_5959" data-name="Path 5959" d="M.866,11.56-.265-3.1l4.951-.384a10.445,10.445,0,0,1,4.81.538A6.768,6.768,0,0,1,12.47-.518,7.338,7.338,0,0,1,13.8,3.208a7.28,7.28,0,0,1-.35,2.859,7.168,7.168,0,0,1-1.438,2.488,7.16,7.16,0,0,1-2.369,1.78,7.5,7.5,0,0,1-1.489.551,19.743,19.743,0,0,1-2.638.316ZM4.609-1.594l-2.625.2L2.825,9.528l2.689-.209a10.614,10.614,0,0,0,2.433-.405,5.741,5.741,0,0,0,1.413-.657,4.872,4.872,0,0,0,1-.9,5.45,5.45,0,0,0,1.25-4.1A5.059,5.059,0,0,0,9.717-.475,5.188,5.188,0,0,0,8.3-1.286a5.622,5.622,0,0,0-1.481-.363,14.845,14.845,0,0,0-2.206.055" transform="translate(0.265 3.537)" fill="#fff"/>
      </g>
      <g id="Group_107" data-name="Group 107" transform="translate(369.647 380.401)">
        <path id="Path_5960" data-name="Path 5960" d="M5.587.024a7.91,7.91,0,0,1,5.834,1.72A7.175,7.175,0,0,1,14.1,6.972a7.053,7.053,0,0,1-1.874,5.552,8.121,8.121,0,0,1-5.6,2.569,7.693,7.693,0,0,1-5.693-1.7,7.139,7.139,0,0,1-2.62-5.168A7.261,7.261,0,0,1,.124,2.614,7.786,7.786,0,0,1,5.587.024m.239,1.993a5.7,5.7,0,0,0-4.02,1.895A5.38,5.38,0,0,0,.491,8.06a5.29,5.29,0,0,0,1.933,3.824,5.622,5.622,0,0,0,4.2,1.263A5.638,5.638,0,0,0,10.6,11.227,5.414,5.414,0,0,0,11.933,7.1,5.288,5.288,0,0,0,9.987,3.3a5.6,5.6,0,0,0-4.161-1.28" transform="translate(1.71 0.007)" fill="#fff"/>
      </g>
      <g id="Group_108" data-name="Group 108" transform="translate(388.574 378.967)">
        <path id="Path_5961" data-name="Path 5961" d="M6.5,5.839l4.929-.38.478,6.218A13.407,13.407,0,0,1,6.617,13.27,8.008,8.008,0,0,1,.625,11.592,7.076,7.076,0,0,1-1.962,6.509,7.329,7.329,0,0,1-.122.863a7.845,7.845,0,0,1,5.5-2.616,9.917,9.917,0,0,1,2.373.085A19.775,19.775,0,0,1,10.641-.9L10.8,1.239A10.328,10.328,0,0,0,5.477.121a5.547,5.547,0,0,0-3.931,1.95A5.45,5.45,0,0,0,.207,6.219,5.419,5.419,0,0,0,2.17,10.176a5.876,5.876,0,0,0,4.366,1.263,9.973,9.973,0,0,0,2.975-.811l.192-.077-.235-3.06-2.825.218Z" transform="translate(1.988 1.787)" fill="#fff"/>
      </g>
      <g id="Group_109" data-name="Group 109" transform="translate(412.615 377.564)">
        <path id="Path_5962" data-name="Path 5962" d="M4.673,11.2-.3,11.588-1.43-3.094l3.845-.3a6.645,6.645,0,0,1,2.877.273,3.592,3.592,0,0,1,1.66,1.225A3.644,3.644,0,0,1,7.639.043a3.209,3.209,0,0,1-2,3.273A4.574,4.574,0,0,1,8.3,4.443,3.462,3.462,0,0,1,9.44,6.808,3.636,3.636,0,0,1,9.018,8.86,4.247,4.247,0,0,1,7.43,10.431a6.3,6.3,0,0,1-2.757.772M2.624-1.523l-1.81.137.341,4.413,1.4-.107A3.541,3.541,0,0,0,4.895,2.1,2.135,2.135,0,0,0,5.475.38q-.16-2.113-2.851-1.9m.64,6.269L1.3,4.9,1.66,9.552l2.07-.158a6.724,6.724,0,0,0,2.317-.448,2.187,2.187,0,0,0,.922-.913,2.152,2.152,0,0,0,.277-1.246,2.059,2.059,0,0,0-.487-1.2A2.386,2.386,0,0,0,5.578,4.84a7.152,7.152,0,0,0-2.313-.094" transform="translate(1.43 3.428)" fill="#fff"/>
      </g>
    </g>
    <g id="Group_111" data-name="Group 111" transform="translate(425.829 255.418)">
      <path id="Path_5964" data-name="Path 5964" d="M0,.127,1.131,14.809l2.1-.162L2.1-.039Z" transform="translate(0 0.039)" fill="#fff"/>
    </g>
    <g id="Group_112" data-name="Group 112" transform="translate(432.33 254.035)">
      <path id="Path_5965" data-name="Path 5965" d="M8.882.118l2-.154L12.01,14.645l-1.81.141L-.486,4.236.385,15.542l-1.972.154L-2.718,1.014l1.7-.132L9.761,11.521Z" transform="translate(2.718 0.036)" fill="#fff"/>
    </g>
    <g id="Group_116" data-name="Group 116" transform="translate(0 -121.295)" clip-path="url(#clip-path)">
      <g id="Group_113" data-name="Group 113" transform="translate(450.169 374.214)">
        <path id="Path_5966" data-name="Path 5966" d="M6.5,5.844l4.925-.38.482,6.222a13.518,13.518,0,0,1-5.292,1.592A7.986,7.986,0,0,1,.625,11.6,7.044,7.044,0,0,1-1.962,6.518,7.333,7.333,0,0,1-.122.867a7.853,7.853,0,0,1,5.5-2.625,10.138,10.138,0,0,1,2.373.09A19.243,19.243,0,0,1,10.641-.9L10.8,1.243A10.341,10.341,0,0,0,5.473.12a5.547,5.547,0,0,0-3.931,1.95A5.482,5.482,0,0,0,.2,6.223,5.455,5.455,0,0,0,2.17,10.184a5.892,5.892,0,0,0,4.366,1.259,9.846,9.846,0,0,0,2.975-.811l.192-.077L9.468,7.5l-2.825.218Z" transform="translate(1.988 1.788)" fill="#fff"/>
      </g>
      <g id="Group_114" data-name="Group 114" transform="translate(467.043 372.898)">
        <path id="Path_5967" data-name="Path 5967" d="M5.587.024a7.916,7.916,0,0,1,5.834,1.72A7.171,7.171,0,0,1,14.1,6.972a7.066,7.066,0,0,1-1.869,5.552,8.121,8.121,0,0,1-5.6,2.569,7.688,7.688,0,0,1-5.693-1.7,7.139,7.139,0,0,1-2.62-5.168A7.261,7.261,0,0,1,.124,2.614,7.786,7.786,0,0,1,5.587.024m.239,1.993a5.7,5.7,0,0,0-4.02,1.895A5.38,5.38,0,0,0,.491,8.06a5.29,5.29,0,0,0,1.933,3.824,5.622,5.622,0,0,0,4.2,1.263A5.638,5.638,0,0,0,10.6,11.227,5.394,5.394,0,0,0,11.929,7.1,5.258,5.258,0,0,0,9.983,3.3a5.579,5.579,0,0,0-4.157-1.28" transform="translate(1.71 0.007)" fill="#fff"/>
      </g>
      <g id="Group_115" data-name="Group 115" transform="translate(493.026 370.913)">
        <path id="Path_5968" data-name="Path 5968" d="M6.5,5.829l4.929-.38.478,6.21a13.509,13.509,0,0,1-5.292,1.588A8.019,8.019,0,0,1,.625,11.573,7.043,7.043,0,0,1-1.962,6.5,7.3,7.3,0,0,1-.122.865a7.845,7.845,0,0,1,5.5-2.616,10.143,10.143,0,0,1,2.373.085A19.775,19.775,0,0,1,10.641-.9L10.8,1.237A10.378,10.378,0,0,0,5.473.119,5.559,5.559,0,0,0,1.542,2.065,5.462,5.462,0,0,0,.2,6.209,5.444,5.444,0,0,0,2.17,10.161a5.89,5.89,0,0,0,4.366,1.255,9.949,9.949,0,0,0,2.975-.807l.192-.081L9.468,7.48l-2.825.213Z" transform="translate(1.988 1.784)" fill="#fff"/>
      </g>
    </g>
    <g id="Group_117" data-name="Group 117" transform="translate(509.524 248.542)">
      <path id="Path_5970" data-name="Path 5970" d="M3.957.085,5.434-.026l7.72,14.255L11,14.395,8.712,10.2l-6.265.482-1.5,4.494-2.16.166ZM7.7,8.39,4.926,3.256,3.138,8.744Z" transform="translate(1.211 0.026)" fill="#fff"/>
    </g>
    <g id="Group_118" data-name="Group 118" transform="translate(525.402 246.861)">
      <path id="Path_5971" data-name="Path 5971" d="M8.97.114l1.967-.149,1.131,14.681-2.113.162L9.073,3.384,5,9.405l-.388.034-5-5.326L.486,15.538l-2.1.162L-2.745,1.015-.756.866,4.583,6.52Z" transform="translate(2.745 0.035)" fill="#fff"/>
    </g>
    <g id="Group_119" data-name="Group 119" transform="translate(543.323 245.893)">
      <path id="Path_5972" data-name="Path 5972" d="M0,.49,8.322-.15l.145,1.869L2.245,2.2l.346,4.473L8.6,6.213,8.745,8.1l-6.009.461.35,4.562,6.423-.5.141,1.869-8.519.657Z" transform="translate(0 0.15)" fill="#fff"/>
    </g>
    <g id="Group_125" data-name="Group 125" transform="translate(0 -121.295)" clip-path="url(#clip-path)">
      <g id="Group_120" data-name="Group 120" transform="translate(37.601 95.286)">
        <path id="Path_5973" data-name="Path 5973" d="M13.843,147.385a2.466,2.466,0,0,1-2.424-2.019l-1.724-9.3c-1.5-8.088-2.953-16.03-4.319-23.605-1.421-7.857-2.847-15.842-4.251-23.8C.43,84.542-.322,80.4-1.107,76.326c-.849-4.375-1.592-8.89-2.206-13.414l-.9-6.641a2.473,2.473,0,0,1,1.323-2.535L3.08,50.689A110.684,110.684,0,0,1,17.3,44.637a106.985,106.985,0,0,1,15.142-3.952,62.983,62.983,0,0,1,6.935-.883c1.007-.068,2.027-.119,3.047-.141.388-.009.777-.013,1.161-.013a51.353,51.353,0,0,1,9.265.836,46.677,46.677,0,0,1,9.957,3,35.732,35.732,0,0,1,9.338,5.855A44.693,44.693,0,0,1,78.317,40.3a40.755,40.755,0,0,1,10.392-8.429,44.66,44.66,0,0,1,18.322-5.463q1.37-.1,2.723-.1a36.239,36.239,0,0,1,4.946.337A35.827,35.827,0,0,1,125.81,30.05c.423.213.845.435,1.263.67a2.469,2.469,0,0,1,1.276-1.805l5.958-3.188a78.166,78.166,0,0,1,13.247-5.574,110.393,110.393,0,0,1,13.239-3.32,61.29,61.29,0,0,1,6.829-.879c1.3-.094,2.608-.141,3.892-.141a51.165,51.165,0,0,1,7.063.482,43.74,43.74,0,0,1,11.711,3.286l-.862-3.982a2.476,2.476,0,0,1,1.839-2.928L237.643,1.528a2.45,2.45,0,0,1,.58-.068,2.469,2.469,0,0,1,2.45,2.147l.871,6.568a49.212,49.212,0,0,1,4.6-4.912,49.877,49.877,0,0,1,11.591-8.015,52.653,52.653,0,0,1,14.028-4.656c1.784-.329,3.675-.606,5.625-.824q1.28-.147,2.573-.235c1.246-.09,2.522-.141,3.794-.154l.457,0a48.143,48.143,0,0,1,6.338.418,35.276,35.276,0,0,1,7.106,1.686l.218.081,4.3-2.569a81.028,81.028,0,0,1,7.883-4.153,81.8,81.8,0,0,1,7.985-3.145c2.612-.866,5.326-1.635,8.066-2.288,2.612-.619,5.3-1.186,8-1.686a54.488,54.488,0,0,1,6-.768c1.221-.085,2.463-.128,3.687-.128a51.926,51.926,0,0,1,5.412.282,42.145,42.145,0,0,1,14.814,4.311,36.272,36.272,0,0,1,7.622,5.232,44.836,44.836,0,0,1,5.727-8.22A40.9,40.9,0,0,1,387.772-28a44.9,44.9,0,0,1,18.322-5.463q1.37-.1,2.723-.094a35.526,35.526,0,0,1,4.946.337,35.678,35.678,0,0,1,11.109,3.406,36.676,36.676,0,0,1,9.129,6.5c.5.482.994.994,1.481,1.524a44.75,44.75,0,0,1,6.308-9.321,40.8,40.8,0,0,1,10.392-8.433,42.851,42.851,0,0,1,13.546-4.844A42.161,42.161,0,0,1,470.5-45c.913-.068,1.822-.1,2.719-.1a35.587,35.587,0,0,1,4.951.337,35.678,35.678,0,0,1,11.109,3.406,36.608,36.608,0,0,1,9.125,6.5,43.551,43.551,0,0,1,6.722,8.429,53.121,53.121,0,0,1,4.592,9.534A62.805,62.805,0,0,1,512.5-6.751a79.116,79.116,0,0,1,1.233,10.725l.354,7.712a2.475,2.475,0,0,1-1.865,2.509l-3.282.828,1.754,22.5a2.457,2.457,0,0,1-.623,1.844l-2.71,3.013a35.23,35.23,0,0,1-5.864,5.211,42.871,42.871,0,0,1-6.329,3.7,49.987,49.987,0,0,1-6.479,2.531,54.71,54.71,0,0,1-6.385,1.592,46.672,46.672,0,0,1-5.2.67q-1.485.109-2.953.107h0a38.911,38.911,0,0,1-5.224-.346A40.19,40.19,0,0,1,456.984,52.3a41.371,41.371,0,0,1-10-6.743c-.354-.324-.708-.657-1.054-.994l.35,4.5a2.477,2.477,0,0,1-.627,1.844l-2.71,3.013a34.971,34.971,0,0,1-5.864,5.207,42.368,42.368,0,0,1-6.329,3.7,50.118,50.118,0,0,1-6.479,2.531,54.931,54.931,0,0,1-6.385,1.592,47.118,47.118,0,0,1-5.2.67c-.994.068-1.98.107-2.962.107a38.908,38.908,0,0,1-5.224-.35,40.194,40.194,0,0,1-11.54-3.35l-38.876,15.36a2.439,2.439,0,0,1-.909.175,2.467,2.467,0,0,1-2.13-1.225l-.038-.055-38.641,7.161a2.319,2.319,0,0,1-.452.043,2.475,2.475,0,0,1-2.437-2.074l-.154-.93q-2.113,1.556-4.332,2.872a61.044,61.044,0,0,1-9.871,4.716,60.407,60.407,0,0,1-10,2.808,54.277,54.277,0,0,1-6.018.777c-1.169.081-2.347.124-3.508.124a47.122,47.122,0,0,1-9.257-.909,45.373,45.373,0,0,1-14.57-5.612l.819,6.193a2.468,2.468,0,0,1-1.874,2.727l-39.268,9.415a2.365,2.365,0,0,1-.576.068,2.467,2.467,0,0,1-2.411-1.95l-2.731-12.646a45.113,45.113,0,0,1-4.1,4.631,59.067,59.067,0,0,1-11.442,8.723,73.63,73.63,0,0,1-13.252,6.065,99.124,99.124,0,0,1-14.229,3.734c-1.831.337-3.653.627-5.424.854s-3.585.414-5.424.555l-8.655.666a1.446,1.446,0,0,1-.192.009,2.484,2.484,0,0,1-1.259-.341A35.248,35.248,0,0,1,138.02,119a42.452,42.452,0,0,1-6.333,3.7,49.851,49.851,0,0,1-6.474,2.535,55.119,55.119,0,0,1-6.385,1.588,46.547,46.547,0,0,1-5.2.67q-1.492.109-2.962.107a38.912,38.912,0,0,1-5.224-.346,40.164,40.164,0,0,1-11.929-3.538,41.37,41.37,0,0,1-9.991-6.739,47.117,47.117,0,0,1-7.584-8.886,53.12,53.12,0,0,1-2.881-4.929c-.384.358-.777.7-1.174,1.041a50.58,50.58,0,0,1-9.014,6.1,62.649,62.649,0,0,1-8.139,3.615l4.2,22.649a2.474,2.474,0,0,1-1.98,2.881l-42.648,7.9a2.351,2.351,0,0,1-.452.043" transform="translate(4.236 45.102)" fill="#ffe84b"/>
      </g>
      <g id="Group_121" data-name="Group 121" transform="translate(35.129 92.814)">
        <path id="Path_5974" data-name="Path 5974" d="M367.481,3.784a33.685,33.685,0,0,1,14.95,3.483,34.2,34.2,0,0,1,8.51,6.06,41.265,41.265,0,0,1,6.338,7.951,51.1,51.1,0,0,1,4.379,9.095,60.472,60.472,0,0,1,2.663,9.743A76.03,76.03,0,0,1,405.511,50.5l.358,7.708-5.3,1.34,1.6,20.532.316,4.042-2.706,3.013a32.834,32.834,0,0,1-5.454,4.844,40.125,40.125,0,0,1-5.966,3.483,47.035,47.035,0,0,1-6.15,2.407,52.591,52.591,0,0,1-6.1,1.519,44.991,44.991,0,0,1-4.925.636q-1.4.1-2.787.1A36.117,36.117,0,0,1,363.5,99.8a37.565,37.565,0,0,1-11.194-3.316,38.974,38.974,0,0,1-9.4-6.338,44.84,44.84,0,0,1-5.766-6.41l.619,7.891.316,4.042-2.714,3.013a32.782,32.782,0,0,1-5.45,4.844,40.518,40.518,0,0,1-5.962,3.483,47.2,47.2,0,0,1-6.154,2.4,52.842,52.842,0,0,1-6.1,1.524,43.946,43.946,0,0,1-4.925.632c-.935.068-1.865.1-2.783.1a36.885,36.885,0,0,1-4.9-.324,37.7,37.7,0,0,1-11.194-3.32c-.188-.09-.367-.2-.555-.29l-9.982,3.943-22.393,8.847-7.533,2.979-.909-1.553-8.651,1.6-22.2,4.114-9.5,1.763-.832-5.113a49.806,49.806,0,0,1-7.349,5.326,58.964,58.964,0,0,1-9.475,4.524,57.682,57.682,0,0,1-9.594,2.7,51.038,51.038,0,0,1-5.74.738q-1.677.122-3.333.12a44.516,44.516,0,0,1-8.77-.862,42.554,42.554,0,0,1-15.616-6.479c-.913-.619-1.775-1.3-2.633-1.993l.444,3.355,1.118,8.446-8.284,1.989-21.582,5.173-9.4,2.253-2.044-9.449-1.916-8.869a42.978,42.978,0,0,1-7.016,9.061,56.583,56.583,0,0,1-10.96,8.356,71.083,71.083,0,0,1-12.812,5.86,96.466,96.466,0,0,1-13.866,3.64c-1.784.329-3.559.61-5.292.832-1.707.218-3.491.4-5.3.542l-8.659.666-.38-2.343-.585.649a32.834,32.834,0,0,1-5.454,4.844,39.97,39.97,0,0,1-5.966,3.483,47.536,47.536,0,0,1-6.15,2.407,52.877,52.877,0,0,1-6.1,1.519,44.859,44.859,0,0,1-4.925.636c-.935.068-1.861.1-2.783.1a36.181,36.181,0,0,1-4.9-.324,37.566,37.566,0,0,1-11.194-3.316,38.925,38.925,0,0,1-9.393-6.338,44.66,44.66,0,0,1-7.187-8.42,53.052,53.052,0,0,1-4.234-7.823,35.535,35.535,0,0,1-3.478,3.414,48.2,48.2,0,0,1-8.578,5.8,60.385,60.385,0,0,1-9.406,4.025l-.388.128,2.859,15.45,1.724,9.291-9.3,1.724-24.058,4.46-9.3,1.72-1.724-9.291c-1.494-8.083-2.949-16.021-4.319-23.6-1.417-7.853-2.842-15.834-4.246-23.789-.7-4.127-1.451-8.292-2.241-12.381-.845-4.345-1.579-8.813-2.181-13.277l-.9-6.641,5.971-3.047a107.429,107.429,0,0,1,13.9-5.915,104.506,104.506,0,0,1,14.792-3.862,60.771,60.771,0,0,1,6.658-.845c.965-.068,1.95-.115,2.928-.137.371-.009.738-.013,1.11-.013a48.7,48.7,0,0,1,8.813.794,44.254,44.254,0,0,1,9.428,2.847,33.144,33.144,0,0,1,8.826,5.57,30.211,30.211,0,0,1,2.266,2.232c.226-.529.44-1.063.683-1.583a42.212,42.212,0,0,1,6.564-10.046,38.2,38.2,0,0,1,9.765-7.921A40.426,40.426,0,0,1-3.038,75.863a40.985,40.985,0,0,1,4.494-.576q1.287-.1,2.552-.094a33.333,33.333,0,0,1,4.605.316,33.189,33.189,0,0,1,10.345,3.167,33.863,33.863,0,0,1,5.578,3.547l-.768-4.712,5.958-3.188a75.763,75.763,0,0,1,12.829-5.4A108.334,108.334,0,0,1,55.5,65.676a59.476,59.476,0,0,1,6.551-.845c1.246-.085,2.488-.132,3.717-.132a48.978,48.978,0,0,1,6.722.457,40.259,40.259,0,0,1,15.4,5.365c.06.034.119.077.179.115l-.026-.115L86.1,61.489l8.979-2.155,27.2-6.538,10.2-2.45,1.378,10.4.312,2.356a46.8,46.8,0,0,1,18.941-17.229,50.029,50.029,0,0,1,13.367-4.43c1.716-.32,3.555-.589,5.446-.8q1.236-.141,2.471-.226h0c1.2-.085,2.424-.137,3.649-.149.145,0,.29,0,.435,0a45.45,45.45,0,0,1,6.009.4,32.515,32.515,0,0,1,6.6,1.566l1.319.469,5.3-3.167a77.232,77.232,0,0,1,15.381-7.076c2.531-.841,5.173-1.588,7.853-2.224,2.561-.61,5.215-1.169,7.883-1.66a50.654,50.654,0,0,1,5.727-.734c1.169-.085,2.339-.124,3.512-.124a50.466,50.466,0,0,1,5.151.265,39.67,39.67,0,0,1,13.951,4.059,34.163,34.163,0,0,1,9.466,7.191c.1-.23.192-.469.3-.7a42.2,42.2,0,0,1,6.56-10.046,38.165,38.165,0,0,1,9.765-7.917A40.359,40.359,0,0,1,296.025,16a39.948,39.948,0,0,1,4.5-.58q1.28-.09,2.548-.09a33.737,33.737,0,0,1,14.95,3.478,34.213,34.213,0,0,1,8.51,6.065,39.794,39.794,0,0,1,3.841,4.349c.307-.751.623-1.5.965-2.241A42.388,42.388,0,0,1,337.9,16.933a38.2,38.2,0,0,1,9.765-7.917,40.493,40.493,0,0,1,12.769-4.562,41.014,41.014,0,0,1,4.494-.58h0q1.28-.09,2.548-.09m0-4.942c-.956,0-1.929.034-2.9.1a47.342,47.342,0,0,0-19.376,5.783,43.288,43.288,0,0,0-11.02,8.945,47.336,47.336,0,0,0-5.027,6.884,39.145,39.145,0,0,0-8.924-6.167,38.649,38.649,0,0,0-17.165-4c-.956,0-1.929.034-2.9.1A47.268,47.268,0,0,0,280.8,16.272a43.256,43.256,0,0,0-11.02,8.941,46.978,46.978,0,0,0-4.541,6.094,38.367,38.367,0,0,0-5.834-3.675,44.509,44.509,0,0,0-15.68-4.571,54.491,54.491,0,0,0-5.668-.294c-1.285,0-2.582.047-3.858.137a56.312,56.312,0,0,0-6.282.8c-2.744.508-5.48,1.084-8.122,1.711-2.821.67-5.6,1.46-8.271,2.343a82.594,82.594,0,0,0-16.363,7.524l-3.312,1.98a38.3,38.3,0,0,0-6.709-1.507,51.033,51.033,0,0,0-6.666-.435h-.482c-1.327.013-2.655.068-3.952.162-.892.06-1.792.145-2.672.243-2.01.222-3.961.508-5.8.849a55.03,55.03,0,0,0-14.686,4.874,52.492,52.492,0,0,0-12.168,8.416c-.4.371-.79.747-1.174,1.127l-.171-1.3a4.942,4.942,0,0,0-4.9-4.293,5.1,5.1,0,0,0-1.157.137l-10.2,2.45-27.2,6.538-8.979,2.16a4.935,4.935,0,0,0-3.751,5.395,47.633,47.633,0,0,0-8.019-1.818,53.491,53.491,0,0,0-7.4-.508c-1.34,0-2.71.051-4.067.145a64.208,64.208,0,0,0-7.1.918,113.134,113.134,0,0,0-13.538,3.393A80.877,80.877,0,0,0,27.4,69.965l-5.958,3.188a4.686,4.686,0,0,0-1.029.734A38.311,38.311,0,0,0,9.3,70.614a38.468,38.468,0,0,0-5.288-.363c-.956,0-1.933.034-2.9.107a44.791,44.791,0,0,0-5.049.649,45.449,45.449,0,0,0-14.327,5.13,43.362,43.362,0,0,0-11.02,8.945A46.881,46.881,0,0,0-34.334,92a38.671,38.671,0,0,0-7.622-4.37,49.087,49.087,0,0,0-10.482-3.162,53.644,53.644,0,0,0-9.714-.879c-.405,0-.811,0-1.221.013-1.058.026-2.121.073-3.167.149a64.353,64.353,0,0,0-7.208.918,109.53,109.53,0,0,0-15.5,4.046,112.407,112.407,0,0,0-14.545,6.188l-5.971,3.047a4.939,4.939,0,0,0-2.65,5.066l.9,6.641c.619,4.554,1.37,9.116,2.228,13.55.785,4.05,1.532,8.177,2.224,12.266,1.408,8,2.834,15.983,4.255,23.844,1.37,7.58,2.825,15.526,4.323,23.618l1.72,9.291A4.953,4.953,0,0,0-94.7,195.4a4.951,4.951,0,0,0,2.8.866,4.941,4.941,0,0,0,.9-.081l9.3-1.724,24.058-4.46,9.3-1.72a4.941,4.941,0,0,0,3.956-5.762l-1.72-9.291-2.1-11.327a65.4,65.4,0,0,0,6.5-3.013,53.707,53.707,0,0,0,8.327-5.471c.487.836.994,1.647,1.515,2.441a49.929,49.929,0,0,0,7.981,9.347A43.815,43.815,0,0,0-13.3,172.35,42.6,42.6,0,0,0-.64,176.11a41.868,41.868,0,0,0,5.561.367c1.033,0,2.087-.038,3.133-.111a49.69,49.69,0,0,0,5.476-.7A57.769,57.769,0,0,0,20.2,174,52.671,52.671,0,0,0,27,171.343a45.424,45.424,0,0,0,6.7-3.914c1.011-.717,1.989-1.481,2.919-2.288a4.626,4.626,0,0,0,.644.043c.128,0,.256,0,.388-.013l8.655-.67c1.891-.145,3.756-.337,5.548-.568,1.818-.235,3.687-.529,5.561-.875a101.6,101.6,0,0,0,14.579-3.824,76.205,76.205,0,0,0,13.7-6.274,61.4,61.4,0,0,0,11.916-9.09c.337-.333.67-.67,1-1.016l1.682,7.793a4.943,4.943,0,0,0,4.831,3.9,4.831,4.831,0,0,0,1.152-.137l9.4-2.253,21.582-5.173,8.284-1.989a4.94,4.94,0,0,0,3.747-5.454l-.188-1.425a48.649,48.649,0,0,0,11,3.589,49.4,49.4,0,0,0,9.743.96c1.216,0,2.454-.047,3.683-.132a56.882,56.882,0,0,0,6.291-.807,64.729,64.729,0,0,0,20.69-7.836q.979-.576,1.942-1.2a4.8,4.8,0,0,0,.875.785,4.959,4.959,0,0,0,3.743.819l9.5-1.763,22.2-4.114,5.587-1.037a4.975,4.975,0,0,0,3.077,1.071,4.921,4.921,0,0,0,1.814-.346l7.533-2.979,22.393-8.847,7.981-3.154a42.839,42.839,0,0,0,11.263,3.12,41.272,41.272,0,0,0,5.565.371c1.033,0,2.087-.038,3.133-.111a49.719,49.719,0,0,0,5.476-.708,57.892,57.892,0,0,0,6.671-1.66,52.673,52.673,0,0,0,6.794-2.655,45.227,45.227,0,0,0,6.7-3.918,37.726,37.726,0,0,0,6.274-5.57l2.714-3.017a4.922,4.922,0,0,0,1.182-2.407,43.866,43.866,0,0,0,7.242,4.375,42.474,42.474,0,0,0,12.663,3.76,41.76,41.76,0,0,0,5.557.367c1.033,0,2.087-.038,3.133-.111a48.656,48.656,0,0,0,5.48-.708,57.3,57.3,0,0,0,6.675-1.66,52.719,52.719,0,0,0,6.79-2.655,45.576,45.576,0,0,0,6.7-3.914,37.826,37.826,0,0,0,6.278-5.578l2.71-3.013a4.968,4.968,0,0,0,1.25-3.687l-.316-4.042-1.28-16.376,1.263-.32a4.936,4.936,0,0,0,3.726-5.019l-.354-7.712a81.141,81.141,0,0,0-1.272-11.058A64.769,64.769,0,0,0,406.3,28.67a55.867,55.867,0,0,0-4.806-9.974,46.029,46.029,0,0,0-7.106-8.911,39.111,39.111,0,0,0-9.739-6.935,38.784,38.784,0,0,0-17.165-4.007" transform="translate(112.455 1.158)" fill="#ffe84b"/>
      </g>
      <g id="Group_122" data-name="Group 122" transform="translate(50.336 191.959)">
        <path id="Path_5975" data-name="Path 5975" d="M46.5,9.778a23.255,23.255,0,0,0-11.126-9.9,34.725,34.725,0,0,0-7.409-2.232,39.36,39.36,0,0,0-8-.627,50.327,50.327,0,0,0-8.07.828A93.888,93.888,0,0,0-1.554,1.354a97.759,97.759,0,0,0-12.675,5.39q.877,6.466,2.1,12.752T-9.85,32.1q2.106,11.946,4.229,23.678t4.31,23.554l24.062-4.46-4.46-24.062a67.816,67.816,0,0,0,8.3-2.2,51.1,51.1,0,0,0,7.947-3.4,38.968,38.968,0,0,0,6.905-4.669A25.148,25.148,0,0,0,46.647,34.5a21.941,21.941,0,0,0,2.851-7.52,24.9,24.9,0,0,0-.149-9.159A24.9,24.9,0,0,0,46.5,9.778M26.605,27.511a9.134,9.134,0,0,1-1.635,3.133A9.809,9.809,0,0,1,22.227,33a10.715,10.715,0,0,1-3.474,1.285l-1.391.256a9.853,9.853,0,0,1-1.417.158L13.772,19.5q.986-.448,2.113-.845a14.508,14.508,0,0,1,2.215-.6,7.632,7.632,0,0,1,5.642.9,6.89,6.89,0,0,1,3.009,4.865,7.83,7.83,0,0,1-.145,3.683" transform="translate(14.229 2.992)" fill="#00a9e4"/>
      </g>
      <g id="Group_123" data-name="Group 123" transform="translate(120.1 178.617)">
        <path id="Path_5976" data-name="Path 5976" d="M46,28.868a67.4,67.4,0,0,0-1.046-9.1,50.7,50.7,0,0,0-2.245-8.211,41.329,41.329,0,0,0-3.559-7.4,31.494,31.494,0,0,0-4.874-6.12,24.59,24.59,0,0,0-6.154-4.387,23.785,23.785,0,0,0-7.413-2.258,26.958,26.958,0,0,0-8.625.29,30.951,30.951,0,0,0-9.8,3.474A28.72,28.72,0,0,0-5.073,1.11a32.724,32.724,0,0,0-5.1,7.806,40.037,40.037,0,0,0-2.966,9.069,48.862,48.862,0,0,0-.943,9.735,53.869,53.869,0,0,0,.9,9.765,48.2,48.2,0,0,0,2.561,8.928,43.619,43.619,0,0,0,4.161,8.041A35.325,35.325,0,0,0-.792,61.094a29.462,29.462,0,0,0,7.11,4.8,28.189,28.189,0,0,0,8.391,2.48,30.3,30.3,0,0,0,9.607-.341,43.673,43.673,0,0,0,5-1.246,37.924,37.924,0,0,0,4.929-1.929A30.594,30.594,0,0,0,38.8,62.2a23.35,23.35,0,0,0,3.875-3.444l-1.865-23.9c-.935.922-2.057,1.963-3.372,3.137s-2.71,2.288-4.182,3.363a38.521,38.521,0,0,1-4.524,2.842A15.187,15.187,0,0,1,24.358,45.8a10.991,10.991,0,0,1-7.251-.952,13,13,0,0,1-5.309-5.16q8.5-2.855,16.99-5.74T46,28.868M9,26.324a27.187,27.187,0,0,1,.414-3.815A17.1,17.1,0,0,1,10.6,18.527a10.989,10.989,0,0,1,2.194-3.29,6.274,6.274,0,0,1,3.436-1.788,4.935,4.935,0,0,1,2.987.273,6.225,6.225,0,0,1,2.211,1.7A9.532,9.532,0,0,1,22.945,18a15.051,15.051,0,0,1,.862,2.915l.209,1.135Z" transform="translate(14.078 8.834)" fill="#00a9e4"/>
      </g>
      <g id="Group_124" data-name="Group 124" transform="translate(181.767 168.122)">
        <path id="Path_5977" data-name="Path 5977" d="M44.132,9.969A27.972,27.972,0,0,0,35.31,1.4,30.74,30.74,0,0,0,23.5-2.681a43.339,43.339,0,0,0-13.964.452A98.387,98.387,0,0,0-2.281.733,65.961,65.961,0,0,0-13.505,5.457L-2.49,72.949q2.471-.186,4.823-.491T7.1,71.707a86.622,86.622,0,0,0,12.5-3.278,61.523,61.523,0,0,0,11.1-5.074A46.856,46.856,0,0,0,39.838,56.4a33.37,33.37,0,0,0,6.534-8.984A34.787,34.787,0,0,0,49.684,36.31a42.725,42.725,0,0,0-.546-13.3A34.652,34.652,0,0,0,44.132,9.969M28.755,36.8A15.4,15.4,0,0,1,26.77,42.08,16.921,16.921,0,0,1,17.7,49.343L14.219,19.012a13.787,13.787,0,0,1,5.8.179A10.06,10.06,0,0,1,24.24,21.5a12.468,12.468,0,0,1,2.838,4.067,23.861,23.861,0,0,1,1.639,5.386,15.994,15.994,0,0,1,.038,5.838" transform="translate(13.505 3.051)" fill="#00a9e4"/>
      </g>
    </g>
    <g id="Group_126" data-name="Group 126" transform="translate(244.868 34.662)">
      <path id="Path_5979" data-name="Path 5979" d="M0,5.006,15.04,74.64l21.582-5.173-9.419-71Z" transform="translate(0 1.532)" fill="#00a9e4"/>
    </g>
    <g id="Group_134" data-name="Group 134" transform="translate(0 -121.295)" clip-path="url(#clip-path)">
      <g id="Group_127" data-name="Group 127" transform="translate(283.296 143.686)">
        <path id="Path_5980" data-name="Path 5980" d="M36.1,22.967q-7.656,1.607-15.3,3.29l2.249,15.607,12.432-2.091.538,4.067a9.037,9.037,0,0,1-3.261,2.42,17.264,17.264,0,0,1-3.961,1.268,10.73,10.73,0,0,1-5.3-.248,11.389,11.389,0,0,1-4.242-2.445A13.59,13.59,0,0,1,16.225,40.8a18.874,18.874,0,0,1-1.682-5.053,17.707,17.707,0,0,1,.149-7.827,15.726,15.726,0,0,1,3.205-6.2,18.636,18.636,0,0,1,5.642-4.439,26.5,26.5,0,0,1,7.511-2.539,48.721,48.721,0,0,1,6.086-.726,26.563,26.563,0,0,1,6.24.367L41.167-5.61a22.85,22.85,0,0,0-4.69-1.105,36.841,36.841,0,0,0-5.1-.312q-2.586.032-5.151.316t-4.784.7A40.44,40.44,0,0,0,10.592-2.426,37.595,37.595,0,0,0-4.853,11.785a41.6,41.6,0,0,0-4.281,9.6A45.245,45.245,0,0,0-10.978,32.04a46.946,46.946,0,0,0,.738,11.186A35.867,35.867,0,0,0-5.131,56.38,32.376,32.376,0,0,0,16.187,70.852a37.245,37.245,0,0,0,14.255-.026,48,48,0,0,0,8.019-2.258,49.229,49.229,0,0,0,7.951-3.8,39.922,39.922,0,0,0,6.944-5.185,24.609,24.609,0,0,0,5-6.427L51.5,19.608q-7.74,1.754-15.4,3.359" transform="translate(11.047 7.028)" fill="#00a9e4"/>
      </g>
      <g id="Group_128" data-name="Group 128" transform="translate(350.133 131.132)">
        <path id="Path_5981" data-name="Path 5981" d="M45.867,31.094A21.751,21.751,0,0,0,48.8,25.32,22.326,22.326,0,0,0,49.883,18.9a36.327,36.327,0,0,0-.657-7.439A24.321,24.321,0,0,0,44.574.626a24.933,24.933,0,0,0-8.292-6.85A30.071,30.071,0,0,0,25.642-9.3a40.487,40.487,0,0,0-11.685.482q-3.822.7-7.43,1.562t-7.05,2A68,68,0,0,0-14.036.963q.794,6,1.771,11.852t1.976,11.809q1.869,11.83,3.8,23.546T-2.632,71.7l22.2-4.114L16.517,45.933l6.368-1.391,12.027,20.52L57.3,56.214,40.959,36.6a35.041,35.041,0,0,0,4.908-5.505M26.06,22.055a9.936,9.936,0,0,1-2.433,3.6,13.765,13.765,0,0,1-3.8,2.522,19.322,19.322,0,0,1-4.413,1.4l-1.242.226L11.439,10.45a14.525,14.525,0,0,1,1.839-.743,16.128,16.128,0,0,1,1.989-.5,10.246,10.246,0,0,1,4.191,0,8.186,8.186,0,0,1,3.273,1.528,9,9,0,0,1,2.334,2.8A12.92,12.92,0,0,1,26.4,17.4a8.328,8.328,0,0,1-.337,4.656" transform="translate(14.036 9.515)" fill="#00a9e4"/>
      </g>
      <g id="Group_129" data-name="Group 129" transform="translate(419.165 118.751)">
        <path id="Path_5982" data-name="Path 5982" d="M46,28.868a67.4,67.4,0,0,0-1.046-9.1,50.7,50.7,0,0,0-2.245-8.211,41.329,41.329,0,0,0-3.559-7.4,31.494,31.494,0,0,0-4.874-6.12,24.59,24.59,0,0,0-6.154-4.387,23.785,23.785,0,0,0-7.413-2.258,26.961,26.961,0,0,0-8.625.29,30.951,30.951,0,0,0-9.8,3.474A28.72,28.72,0,0,0-5.073,1.11a32.724,32.724,0,0,0-5.1,7.806,40.037,40.037,0,0,0-2.966,9.069,48.862,48.862,0,0,0-.943,9.735,53.869,53.869,0,0,0,.9,9.765,48.2,48.2,0,0,0,2.561,8.928,43.619,43.619,0,0,0,4.161,8.041A35.325,35.325,0,0,0-.792,61.094a29.462,29.462,0,0,0,7.11,4.8,28.189,28.189,0,0,0,8.391,2.48,30.428,30.428,0,0,0,9.607-.341,42.834,42.834,0,0,0,5-1.25,37.3,37.3,0,0,0,4.929-1.925A30.594,30.594,0,0,0,38.8,62.2a23.35,23.35,0,0,0,3.875-3.444l-1.865-23.9q-1.4,1.376-3.372,3.133t-4.182,3.367a38.83,38.83,0,0,1-4.52,2.842A15.278,15.278,0,0,1,24.362,45.8a11.026,11.026,0,0,1-7.255-.952,13.056,13.056,0,0,1-5.309-5.16q8.5-2.855,16.99-5.74T46,28.868M9,26.324a27.842,27.842,0,0,1,.414-3.815A17.1,17.1,0,0,1,10.6,18.527a11.064,11.064,0,0,1,2.194-3.295,6.283,6.283,0,0,1,3.436-1.784,4.935,4.935,0,0,1,2.987.273,6.278,6.278,0,0,1,2.215,1.7A9.633,9.633,0,0,1,22.945,18a15.051,15.051,0,0,1,.862,2.915l.209,1.135Z" transform="translate(14.078 8.834)" fill="#00a9e4"/>
      </g>
      <g id="Group_130" data-name="Group 130" transform="translate(483.573 107.208)">
        <path id="Path_5983" data-name="Path 5983" d="M39.446,35.849q-1.972,1.754-4.182,3.363a38.267,38.267,0,0,1-4.52,2.842,15.426,15.426,0,0,1-4.375,1.613,11.031,11.031,0,0,1-7.255-.956A13.018,13.018,0,0,1,13.8,37.556q8.5-2.855,16.99-5.74t17.216-5.083a66.57,66.57,0,0,0-1.046-9.1,50.568,50.568,0,0,0-2.241-8.211,41.2,41.2,0,0,0-3.564-7.4A31.24,31.24,0,0,0,36.288-4.1a24.482,24.482,0,0,0-6.154-4.387,23.785,23.785,0,0,0-7.413-2.258,26.836,26.836,0,0,0-8.625.29,30.947,30.947,0,0,0-9.8,3.47A28.9,28.9,0,0,0-3.066-1.029a32.81,32.81,0,0,0-5.1,7.806,39.886,39.886,0,0,0-2.962,9.069,48.581,48.581,0,0,0-.947,9.735,54.3,54.3,0,0,0,.9,9.769A48.161,48.161,0,0,0-8.61,44.274a44.149,44.149,0,0,0,4.161,8.041,35.191,35.191,0,0,0,5.663,6.641,29.218,29.218,0,0,0,7.11,4.8,28.091,28.091,0,0,0,8.395,2.48,30.28,30.28,0,0,0,9.6-.341,42.592,42.592,0,0,0,5-1.246,37.923,37.923,0,0,0,4.929-1.929,30.379,30.379,0,0,0,4.554-2.659,23.135,23.135,0,0,0,3.875-3.44l-1.865-23.9q-1.4,1.383-3.372,3.137M11.423,20.374a17.281,17.281,0,0,1,1.182-3.986,10.921,10.921,0,0,1,2.2-3.29,6.27,6.27,0,0,1,3.431-1.784,4.868,4.868,0,0,1,2.987.273,6.217,6.217,0,0,1,2.215,1.7,9.592,9.592,0,0,1,1.515,2.578,15.013,15.013,0,0,1,.862,2.911l.209,1.135L11.009,24.19a27.7,27.7,0,0,1,.414-3.815" transform="translate(12.071 10.97)" fill="#00a9e4"/>
      </g>
      <g id="Group_131" data-name="Group 131" transform="translate(194.767 187.581)">
        <path id="Path_5984" data-name="Path 5984" d="M50.657,143.457a63.774,63.774,0,0,1-22.5-3.956A64.462,64.462,0,0,1,6.1,125.716,68.63,68.63,0,0,1-8.785,104.68a73.358,73.358,0,0,1-6.474-25.854,94.57,94.57,0,0,1,2.5-29.713A72.54,72.54,0,0,1-.471,23.092,66.335,66.335,0,0,1,21.683,4.382,74.2,74.2,0,0,1,49.3-3.586a.145.145,0,0,1,.043,0c.922-.09,1.852-.166,2.8-.235,1.921-.128,3.892-.2,5.86-.2,2.582,0,5.22.115,7.831.341A56.488,56.488,0,0,1,79.845-.65l-.1-2.518a2.462,2.462,0,0,1,.67-1.792,2.468,2.468,0,0,1,1.746-.781l51.53-1.114-.043-.653a2.46,2.46,0,0,1,.632-1.81,2.473,2.473,0,0,1,1.733-.819s61.585-2.556,61.619-2.556a2.472,2.472,0,0,1,2.454,2.206,2.283,2.283,0,0,1,.619-.09l10.174-.188q9.846-.186,19.773-.457c6.026-.162,12.1-.5,18.087-.982l-.405-2.428a2.481,2.481,0,0,1,.525-1.967,2.465,2.465,0,0,1,1.822-.9L264.8-18.02q5.147-.192,10.226-.461t10.221-.61c2.646-.179,5.3-.371,8-.585q1.5-.115,3-.265c1.485-.145,2.979-.312,4.473-.5l14.856-1.886a1.913,1.913,0,0,1,.312-.021,2.464,2.464,0,0,1,1.686.666,2.464,2.464,0,0,1,.747,1.379l41.726-4.6q1.05-.583,2.134-1.1a31.007,31.007,0,0,1,10.311-2.868c.316-.03.632-.055.943-.077,1.4-.094,2.774-.145,4.1-.145a47.827,47.827,0,0,1,5.885.346,33.315,33.315,0,0,1,10.537,3.056,30.029,30.029,0,0,1,2.825,1.571c.312-.226.619-.448.93-.662a41.516,41.516,0,0,1,9.564-4.912,41.563,41.563,0,0,1,10.055-2.215c.482-.047.969-.09,1.46-.12,1.195-.081,2.39-.124,3.555-.124a40.66,40.66,0,0,1,17.31,3.611,43.114,43.114,0,0,1,14.835,11.327,52.477,52.477,0,0,1,6.086,9.009A54.923,54.923,0,0,1,473.3-26.41a61.771,61.771,0,0,1,18.719-12.061A68.308,68.308,0,0,1,511.7-43.418c.7-.068,1.4-.128,2.1-.175,2.966-.2,6.06-.3,9.2-.307a95.82,95.82,0,0,1,10.025.525,94.5,94.5,0,0,1,9.825,1.558,63.826,63.826,0,0,1,10.081,3.034l8.075,3.192a2.46,2.46,0,0,1,1.558,2.36l-1.2,47.053a41.689,41.689,0,0,1,8.245,12.5,50.591,50.591,0,0,1,3.892,16.623c.649,9.594-.546,18.309-3.559,25.91a51.479,51.479,0,0,1-13.52,19.594A59.252,59.252,0,0,1,536.3,100.182a85.988,85.988,0,0,1-20.046,4.336q-1.46.141-2.936.243c-1.033.073-2.1.107-3.188.107a59.4,59.4,0,0,1-8.843-.7c-3.653-.555-7.409-1.314-11.16-2.258-3.606-.909-7.174-1.938-10.606-3.064-2.492-.819-4.818-1.622-6.939-2.407l-.068,4.131a2.471,2.471,0,0,1-2.189,2.416L403.243,110.7c-.09.009-.188.017-.282.017a2.452,2.452,0,0,1-.726-.111l-29.764,3.162.013.333a2.471,2.471,0,0,1-2.3,2.561L313.632,120.5a2.468,2.468,0,0,1-1.882,1.387L253.3,130.18a2.357,2.357,0,0,1-.346.026,2.469,2.469,0,0,1-2.467-2.591l.184-3.832c-.393.026-.785.043-1.178.06-.713.034-1.46.055-2.2.055a42.038,42.038,0,0,1-13.819-2.309,49.859,49.859,0,0,1-13.26-6.995,58.243,58.243,0,0,1-9.492-8.86l1.66,18.113a2.477,2.477,0,0,1-2.177,2.68L151,133.415a2.473,2.473,0,0,1-1.908,1.118s-61.132,4.153-61.188,4.153a2.472,2.472,0,0,1-2.471-2.373l-.043-1.029c-.93.448-1.831.858-2.731,1.238-2.791,1.182-5.706,2.253-8.668,3.184a85.91,85.91,0,0,1-9.206,2.352c-2.437.478-4.853.836-7.174,1.067-.666.064-1.327.115-1.98.162-1.669.115-3.342.171-4.976.171M53.9,75.33a2.82,2.82,0,0,0,.529.171,9.182,9.182,0,0,0,2.224.235c.341,0,.7-.013,1.067-.034l.491-.043a18.468,18.468,0,0,0,2.83-.525,35.314,35.314,0,0,0,4.353-1.472,39.455,39.455,0,0,0,4.31-2.07,43.621,43.621,0,0,0,3.875-2.428l6.79-4.81L72.231,62.7a14.65,14.65,0,0,0-2.288-.29c-.346-.013-.7-.021-1.046-.021-.657,0-1.327.026-2,.073-.307.017-.606.043-.9.073a25.383,25.383,0,0,0-6.009,1.31,12.984,12.984,0,0,0-4.2,2.339,7.326,7.326,0,0,0-1.946,2.693,8.563,8.563,0,0,0-.435,3.986,7.083,7.083,0,0,0,.452,2.394.642.642,0,0,0,.038.077" transform="translate(15.502 43.9)" fill="#ffe84b"/>
      </g>
      <g id="Group_132" data-name="Group 132" transform="translate(192.295 185.111)">
        <path id="Path_5985" data-name="Path 5985" d="M414.293,3.784a92.208,92.208,0,0,1,19.235,2.027,61.284,61.284,0,0,1,9.692,2.915l8.07,3.192-.222,8.676-.841,33.093-.162,6.338a39.027,39.027,0,0,1,8.476,12.488,48.164,48.164,0,0,1,3.692,15.812c.627,9.223-.512,17.579-3.389,24.83a49.058,49.058,0,0,1-12.876,18.667,56.8,56.8,0,0,1-19.295,11.237,83.55,83.55,0,0,1-19.47,4.212c-.947.09-1.9.171-2.864.235q-1.472.1-3.022.1a56.855,56.855,0,0,1-8.472-.674c-3.585-.546-7.268-1.289-10.93-2.215-3.559-.892-7.072-1.9-10.435-3.009-3.265-1.071-6.231-2.121-8.8-3.111l-1.323-.508-.119,7.652-10.827,1.246-41.5,4.771-14.754,1.694.013-.2-33.063,3.512.1,2.642-12.027.815L208.366,163l-5.753.393-.017,1.268-10.529,1.489-33.041,4.686-14.878,2.113.324-6.7c-.521.073-1.033.132-1.545.184-.785.077-1.562.128-2.326.158-.708.034-1.413.055-2.117.055a39.569,39.569,0,0,1-13.008-2.172,47.205,47.205,0,0,1-12.6-6.654,55.933,55.933,0,0,1-10.064-9.65,66.664,66.664,0,0,1-4.148-5.68l1.344,14.728,1.105,12.074-12.04,1.4L48.707,175.38l-8.621,1,.034.9-12,.815L-8.17,180.561l-12.731.866-.2-4.908a65.2,65.2,0,0,1-6,2.936c-2.723,1.152-5.565,2.2-8.45,3.107a83.67,83.67,0,0,1-8.937,2.279c-2.364.465-4.7.815-6.944,1.033-.644.064-1.28.115-1.908.158-1.622.111-3.222.166-4.81.166a61.279,61.279,0,0,1-21.625-3.8,61.95,61.95,0,0,1-21.22-13.26,66.151,66.151,0,0,1-14.353-20.281,71.119,71.119,0,0,1-6.257-24.992,92.09,92.09,0,0,1,2.437-28.936A70,70,0,0,1-107.3,69.79,63.814,63.814,0,0,1-85.964,51.78a71.643,71.643,0,0,1,26.738-7.7h0c.9-.09,1.81-.162,2.731-.226,1.874-.128,3.777-.192,5.693-.192,2.518,0,5.066.111,7.618.329a54.163,54.163,0,0,1,14.592,3.342l2.249.858-.256-6.248,12.658-.277,38.671-.836,2.783-.06L27.3,37.543l12.71-.525,37-1.541,11.809-.491L89.9,46.757,90,47.9c.043-.252.073-.525.119-.777L91.94,37.1l10.174-.188q9.859-.179,19.794-.452c6.393-.175,12.838-.533,19.154-1.067l1.741-.149-.841-5.07,14.114-.516q5.173-.192,10.268-.461t10.26-.615c2.655-.179,5.322-.371,8.023-.585,1.016-.081,2.031-.166,3.047-.269,1.511-.145,3.026-.32,4.545-.512l14.852-1.886-.137,2.343,37.48-4.136L252,22.7c.79-.452,1.6-.875,2.424-1.268A28.681,28.681,0,0,1,263.92,18.8c.29-.026.585-.051.866-.073q2.023-.134,3.939-.137a45.491,45.491,0,0,1,5.582.324,30.9,30.9,0,0,1,9.756,2.83,26.44,26.44,0,0,1,3.99,2.386c.738-.585,1.494-1.144,2.258-1.673a38.532,38.532,0,0,1,18.445-6.7c.461-.047.922-.085,1.387-.115,1.148-.077,2.275-.115,3.389-.115a38.114,38.114,0,0,1,16.269,3.38,40.6,40.6,0,0,1,13.99,10.682,52.068,52.068,0,0,1,8.284,13.862,45.38,45.38,0,0,1,1.805-5.113A52.53,52.53,0,0,1,366.194,20.6,59.294,59.294,0,0,1,384.166,9.021a65.769,65.769,0,0,1,18.966-4.767c.679-.068,1.353-.124,2.031-.166,2.906-.2,5.949-.3,9.031-.3h.1M-52.158,123.42c.393,0,.807-.013,1.233-.043l.529-.043a20.431,20.431,0,0,0,3.256-.6,36.983,36.983,0,0,0,4.66-1.575,41.584,41.584,0,0,0,4.579-2.2,45.922,45.922,0,0,0,4.1-2.569l9.961-7.05-.06-1.37-12.185-2.484a17.169,17.169,0,0,0-2.68-.337c-.38-.013-.764-.021-1.148-.021q-1.069,0-2.164.077c-.324.021-.649.047-.969.077a27.888,27.888,0,0,0-6.6,1.443,15.208,15.208,0,0,0-4.981,2.8,9.779,9.779,0,0,0-2.608,3.576,11.191,11.191,0,0,0-.636,5.143,9.272,9.272,0,0,0,.691,3.295,2.3,2.3,0,0,0,.657.918,4.213,4.213,0,0,0,1.541.662,11.75,11.75,0,0,0,2.821.307M414.293-1.158h-.055c-3.244,0-6.393.107-9.411.312-.721.051-1.451.111-2.177.184a70.7,70.7,0,0,0-20.387,5.121A64.218,64.218,0,0,0,362.8,17a57.288,57.288,0,0,0-11.259,14.771A52.276,52.276,0,0,0,347.57,26.4a45.619,45.619,0,0,0-15.68-11.975,43.112,43.112,0,0,0-18.356-3.841c-1.221,0-2.471.043-3.722.128q-.775.051-1.536.128a43.434,43.434,0,0,0-20.417,7.307c-.542-.3-1.088-.589-1.639-.854a35.76,35.76,0,0,0-11.31-3.286,51.014,51.014,0,0,0-6.184-.363c-1.383,0-2.821.051-4.276.149-.324.021-.67.051-1.011.085a33.542,33.542,0,0,0-11.126,3.09c-.615.294-1.229.6-1.831.926l-6.607.73L210.948,22.26a5.4,5.4,0,0,0-.5-.538,4.939,4.939,0,0,0-3.376-1.332,5.14,5.14,0,0,0-.623.038L191.6,22.315c-1.489.192-2.97.358-4.4.5-.982.094-1.963.184-2.945.256-2.693.213-5.343.405-7.981.585-3.342.226-6.764.431-10.179.61-3.389.179-6.816.333-10.192.457l-14.118.516a4.936,4.936,0,0,0-4.724,5.514c-5.066.371-10.187.632-15.279.768-6.76.184-13.405.337-19.751.452l-9.163.171a4.947,4.947,0,0,0-4.042-2.1c-.068,0-.137,0-.2,0l-11.809.491-37,1.541-12.71.529a4.938,4.938,0,0,0-4.464,3.325l-36.678.794L-26.7,37a4.942,4.942,0,0,0-3.5,1.558,4.921,4.921,0,0,0-1.276,2.6,59.312,59.312,0,0,0-11.28-2.091c-2.684-.23-5.39-.35-8.045-.35-2.023,0-4.05.068-6.03.2-.969.064-1.929.145-2.877.235a76.66,76.66,0,0,0-28.573,8.254,68.793,68.793,0,0,0-22.974,19.4,75,75,0,0,0-12.705,26.9,97.089,97.089,0,0,0-2.578,30.489,75.99,75.99,0,0,0,6.7,26.721,71.03,71.03,0,0,0,15.424,21.787,66.992,66.992,0,0,0,22.9,14.314,66.263,66.263,0,0,0,23.362,4.114c1.69,0,3.423-.06,5.143-.179.679-.043,1.366-.1,2.057-.171,2.4-.235,4.9-.606,7.413-1.1a87.055,87.055,0,0,0,9.47-2.416c3.034-.956,6.026-2.053,8.89-3.269.017,0,.034-.013.047-.017a5.047,5.047,0,0,0,.93,1.118,4.947,4.947,0,0,0,3.3,1.263q.166,0,.333-.013l12.735-.866,36.285-2.463,12-.815a4.91,4.91,0,0,0,2.953-1.242l5.872-.683,40.365-4.695,12.04-1.4a4.941,4.941,0,0,0,4.349-5.36l-1.016-11.118a59.066,59.066,0,0,0,4.917,4.072,52.4,52.4,0,0,0,13.922,7.349,44.545,44.545,0,0,0,14.63,2.445c.26,0,.521,0,.781-.009l-.051,1.135a4.944,4.944,0,0,0,4.934,5.181,4.813,4.813,0,0,0,.7-.051l14.878-2.108,33.041-4.686,10.524-1.494a4.917,4.917,0,0,0,2.847-1.447l2.565-.171,40.822-2.774,12.022-.819a4.95,4.95,0,0,0,4.259-3.1l27.476-2.919a5.166,5.166,0,0,0,1.443.047l14.758-1.7,41.492-4.771,10.827-1.246a4.944,4.944,0,0,0,4.379-4.831l.009-.683c1.2.418,2.458.841,3.756,1.268,3.474,1.14,7.1,2.189,10.776,3.111,3.811.96,7.644,1.737,11.391,2.3a62.009,62.009,0,0,0,9.21.73c1.139,0,2.27-.038,3.359-.115,1.007-.068,2.014-.149,3.009-.248a88.6,88.6,0,0,0,20.622-4.464A61.63,61.63,0,0,0,449.272,135.5a53.941,53.941,0,0,0,14.169-20.524c3.145-7.938,4.4-17.02,3.722-26.981a52.88,52.88,0,0,0-4.084-17.434,44.346,44.346,0,0,0-8.019-12.479l.107-4.264.845-33.1.222-8.676a4.943,4.943,0,0,0-3.124-4.72L445.034,4.13A66.217,66.217,0,0,0,434.565.98a97.574,97.574,0,0,0-20.272-2.138M-52.888,118.452c-.017-.162-.034-.341-.047-.546a6.379,6.379,0,0,1,.23-2.825,4.851,4.851,0,0,1,1.3-1.814A10.482,10.482,0,0,1-48,111.38a22.986,22.986,0,0,1,5.433-1.178c.269-.026.546-.051.819-.068.619-.043,1.233-.064,1.831-.064.32,0,.64.009.956.017a12.345,12.345,0,0,1,1.891.243l2.539.516-2.13,1.511a41.912,41.912,0,0,1-3.645,2.283,37.369,37.369,0,0,1-4.05,1.946,31.788,31.788,0,0,1-4.046,1.366,15.66,15.66,0,0,1-2.48.461l-.452.038c-.243.017-.542.026-.828.026s-.516-.009-.73-.026" transform="translate(126.78 1.158)" fill="#ffe84b"/>
      </g>
      <g id="Group_133" data-name="Group 133" transform="translate(209.655 242.352)">
        <path id="Path_5986" data-name="Path 5986" d="M58.5,2.187l-.593,34.377a29.243,29.243,0,0,0-4.673-.58,44.443,44.443,0,0,0-4.639.073,40.778,40.778,0,0,0-10.874,2.2A27.794,27.794,0,0,0,28.8,43.342a22.094,22.094,0,0,0-5.89,8.011,23.046,23.046,0,0,0-1.652,10.973,21.2,21.2,0,0,0,1.874,7.806,14.657,14.657,0,0,0,4.187,5.331,16.28,16.28,0,0,0,6.222,2.953,25.367,25.367,0,0,0,7.891.6,32.478,32.478,0,0,0,6.112-1.024A50.287,50.287,0,0,0,53.75,75.9a53.857,53.857,0,0,0,5.907-2.842,57.886,57.886,0,0,0,5.232-3.282l1.289,38.154a51.908,51.908,0,0,1-6.607,3.333c-2.369,1-4.823,1.9-7.341,2.7a69.908,69.908,0,0,1-7.6,1.942,58.478,58.478,0,0,1-7.3.986,50.093,50.093,0,0,1-21.224-2.872,49.433,49.433,0,0,1-17-10.6,53.559,53.559,0,0,1-11.655-16.5,58.44,58.44,0,0,1-5.147-20.643,79.279,79.279,0,0,1,2.083-25.039A57.414,57.414,0,0,1-5.867,20.517,51.241,51.241,0,0,1,11.366,6a60.553,60.553,0,0,1,24.5-6.508,74.45,74.45,0,0,1,11.4.119A41.429,41.429,0,0,1,58.5,2.187" transform="translate(17.903 0.669)" fill="#00a9e4"/>
      </g>
    </g>
    <g id="Group_135" data-name="Group 135" transform="translate(305.408 112.861)">
      <path id="Path_5988" data-name="Path 5988" d="M77.568,84.578,37.2,89.272l-2.65-34.155L15.928,56.384,17.2,91.935-19.081,94.4-23.737-19.685l38.671-.836L16.453,37.8l17.98-1.225L30.46-24.341l37-1.541Z" transform="translate(23.737 25.882)" fill="#00a9e4"/>
    </g>
    <g id="Group_139" data-name="Group 139" transform="translate(0 -121.295)" clip-path="url(#clip-path)">
      <g id="Group_136" data-name="Group 136" transform="translate(418.533 225.81)">
        <path id="Path_5989" data-name="Path 5989" d="M72.226,0q-1.709,28.757-2.381,57.159t-1.08,57.15L35.723,119l.606-12.569a17.524,17.524,0,0,1-3.542,3.5,21.742,21.742,0,0,1-4.426,2.535,26.37,26.37,0,0,1-4.938,1.558,28.568,28.568,0,0,1-4.925.619,27.306,27.306,0,0,1-10.507-1.443,34.713,34.713,0,0,1-9.287-4.9,43.389,43.389,0,0,1-7.831-7.524A55,55,0,0,1-15.252,91.5a56.014,56.014,0,0,1-4.1-10.093,46.968,46.968,0,0,1-1.869-10.128q-.493-7.285-.738-15.125t-.055-15.74q.192-7.906.845-15.68t1.955-14.942q9.91-.186,19.905-.457T20.547,8.233Q19.158,15.4,17.82,22.615T15.511,37.092q-.967,7.266-1.37,14.536a118.9,118.9,0,0,0,.1,14.639q.115,1.7.5,4.848a36.678,36.678,0,0,0,1.272,6.18,17.6,17.6,0,0,0,2.471,5.245,4.478,4.478,0,0,0,4.165,2.036,7.367,7.367,0,0,0,5.331-3.009,24.09,24.09,0,0,0,3.807-7.379,63.168,63.168,0,0,0,2.5-10.5q.941-5.922,1.443-12.343t.623-12.94q.128-6.517.026-12.249t-.294-10.268c-.124-3.03-.243-5.386-.358-7.055Q35.61,7.2,35.425,5.676c-.124-1.024-.277-2.07-.457-3.145q5.281-.192,10.465-.465t10.452-.627q4.052-.275,8.139-.6T72.226,0" transform="translate(22.102)" fill="#00a9e4"/>
      </g>
      <g id="Group_137" data-name="Group 137" transform="translate(526.412 214.218)">
        <path id="Path_5990" data-name="Path 5990" d="M107.92,46.224q.787,11.581.841,23.132t-.132,23.2l-41.5,4.771q.9-14.218,1.443-28.454a269.542,269.542,0,0,0-.427-28.411c-.043-.589-.137-1.63-.294-3.111s-.363-3.158-.623-5.04-.589-3.828-.973-5.834a47.832,47.832,0,0,0-1.349-5.523,16.88,16.88,0,0,0-1.78-4.067q-1.005-1.562-2.215-1.477a5.277,5.277,0,0,0-4.31,2.445,14.374,14.374,0,0,0-2.04,5.3,31.15,31.15,0,0,0-.516,6.18q.051,3.13.179,5.074c.158,2.266.363,4.528.627,6.79s.478,4.579.636,6.957q.858,12.554,1.093,25.065t.2,25.129l-38.3,4.067Q19.4,88.2,19.858,74.054a281.324,281.324,0,0,0-.5-28.321q-.064-.89-.3-3.235t-.644-5.245q-.4-2.9-1.02-6.03T16,25.5A18.674,18.674,0,0,0,14.2,21.266q-1.011-1.639-2.3-1.549A4.344,4.344,0,0,0,8.6,21.526a12.055,12.055,0,0,0-1.95,4.242A31.576,31.576,0,0,0,5.735,31.4q-.243,3.066-.243,6t.124,5.4c.081,1.647.128,2.881.132,3.7L7.98,105.739l-40.822,2.774q.365-13.77.768-27.634t.478-27.655q.077-13.8-.209-27.609T-33.025-1.964L5.415-6.206l.478,9.4A56.026,56.026,0,0,1,9.632-1.653a36.1,36.1,0,0,1,4.541-4.46,25.435,25.435,0,0,1,5.22-3.325,16.159,16.159,0,0,1,5.881-1.536,37.858,37.858,0,0,1,7.17.124A18.406,18.406,0,0,1,38.29-9.172a15.013,15.013,0,0,1,4.767,3.7A25.1,25.1,0,0,1,46.9.737q2.4-3.009,4.865-5.621a33.788,33.788,0,0,1,5.262-4.545,26.256,26.256,0,0,1,6.137-3.141,27.12,27.12,0,0,1,7.464-1.485,27.283,27.283,0,0,1,13.567,2.13,28.185,28.185,0,0,1,9.743,7.43,39.812,39.812,0,0,1,6.53,11.113,87.291,87.291,0,0,1,4.033,13.23,129.312,129.312,0,0,1,2.279,13.759q.749,6.863,1.14,12.616" transform="translate(33.025 14.145)" fill="#00a9e4"/>
      </g>
      <g id="Group_138" data-name="Group 138" transform="translate(681.598 202.475)">
        <path id="Path_5991" data-name="Path 5991" d="M66.858,55.867q.755,11.094-2.548,19.414a36.534,36.534,0,0,1-9.624,14,44.208,44.208,0,0,1-15.108,8.758,72.165,72.165,0,0,1-19.069,3.777,40.561,40.561,0,0,1-8.779-.461q-4.808-.73-9.773-1.98T-7.628,96.6q-4.622-1.511-8.211-2.9l1.4-31.992A57.038,57.038,0,0,0,1.258,66.954a66.5,66.5,0,0,0,16.627,1.029q1.543-.109,3.717-.376a17.3,17.3,0,0,0,4.123-1.016,8.938,8.938,0,0,0,3.239-2.049,4.412,4.412,0,0,0,1.14-3.576A3.814,3.814,0,0,0,28.952,58.4a7.342,7.342,0,0,0-2.629-1.613,15.638,15.638,0,0,0-3.555-.815c-1.314-.158-2.595-.243-3.845-.269s-2.411,0-3.491.077l-2.591.175A35.262,35.262,0,0,1,.016,54.629,28.206,28.206,0,0,1-10.206,49.1a27.8,27.8,0,0,1-7.021-9.287,34.14,34.14,0,0,1-3.128-12.522A37.373,37.373,0,0,1-17.67,9.9,39.978,39.978,0,0,1-8.259-3.678,46.785,46.785,0,0,1,5.97-12.82a53.286,53.286,0,0,1,17.058-4Q27-17.1,31.226-17.1a80.026,80.026,0,0,1,16.717,1.75,48.7,48.7,0,0,1,7.725,2.322l-.841,33.093A100.36,100.36,0,0,0,43.07,17.734,57.906,57.906,0,0,0,31.2,17.281c-.7.047-1.6.124-2.71.222s-2.258.265-3.465.482a36.163,36.163,0,0,0-3.64.858,15.529,15.529,0,0,0-3.248,1.319,6.455,6.455,0,0,0-2.228,1.98,3.866,3.866,0,0,0-.627,2.727,3.5,3.5,0,0,0,1.528,2.667,8.1,8.1,0,0,0,3.333,1.195,20.01,20.01,0,0,0,4.4.145q2.388-.16,4.729-.44c1.558-.188,3.013-.367,4.357-.542a28.509,28.509,0,0,1,3.32-.265A33.252,33.252,0,0,1,48.8,29.59a27.116,27.116,0,0,1,9.21,5.642,26.386,26.386,0,0,1,6.137,8.9,35.453,35.453,0,0,1,2.71,11.736" transform="translate(20.46 17.096)" fill="#00a9e4"/>
      </g>
    </g>
    <g id="Group_140" data-name="Group 140" transform="translate(571.633 -28.48)">
      <path id="Path_5993" data-name="Path 5993" d="M0,42.867,96.508,12.6,83.022-13.118Z" transform="translate(0 13.118)" fill="#ffea3d"/>
    </g>
    <g id="Group_141" data-name="Group 141" transform="translate(555.549 -94.908)">
      <path id="Path_5994" data-name="Path 5994" d="M0,73.2,88.643-22.4,106.687,1.085Z" transform="translate(0 22.401)" fill="#ffea3d"/>
    </g>
    <g id="Group_142" data-name="Group 142" transform="translate(135.298 -48.98)">
      <path id="Path_5995" data-name="Path 5995" d="M60.647,62.892,1.606-19.246-18.559,1.607Z" transform="translate(18.559 19.246)" fill="#ffea3d"/>
    </g>
    <g id="Group_143" data-name="Group 143" transform="translate(76.064 -35.71)">
      <path id="Path_5996" data-name="Path 5996" d="M90.793,60.255-27.784,6.075l16.627-24.514Z" transform="translate(27.784 18.439)" fill="#ffea3d"/>
    </g>
    <g id="Group_148" data-name="Group 148" transform="translate(0 -121.295)" clip-path="url(#clip-path)">
      <g id="Group_144" data-name="Group 144" transform="translate(0.001 50.6)">
        <path id="Path_5997" data-name="Path 5997" d="M10.892,21.787A14.227,14.227,0,1,0-3.333,7.562,14.248,14.248,0,0,0,10.892,21.787" transform="translate(3.333 6.667)" fill="#fff"/>
      </g>
      <g id="Group_145" data-name="Group 145" transform="translate(784.351 230.81)">
        <path id="Path_5998" data-name="Path 5998" d="M10.892,21.77A14.216,14.216,0,1,0-3.333,7.546,14.251,14.251,0,0,0,10.892,21.77" transform="translate(3.333 6.662)" fill="#ffea3d"/>
      </g>
      <g id="Group_146" data-name="Group 146" transform="translate(266.036 75.458)">
        <path id="Path_5999" data-name="Path 5999" d="M0,4.7c.5,1.063,45.862,48.12,45.862,48.12L2.736-1.439Z" transform="translate(0 1.439)" fill="#fff"/>
      </g>
      <g id="Group_147" data-name="Group 147" transform="translate(295.755 59.834)">
        <path id="Path_6000" data-name="Path 6000" d="M0,2.317c.935-.585,27.929,51.427,27.929,51.427L5.365-.709Z" transform="translate(0 0.709)" fill="#fff"/>
      </g>
    </g>
    <g id="Group_149" data-name="Group 149" transform="translate(281.628 -51.855)">
      <path id="Path_6002" data-name="Path 6002" d="M0,1.817,41.906,63.431,7.4-.556Z" transform="translate(0 0.556)" fill="#fff"/>
    </g>
    <g id="Group_157" data-name="Group 157" transform="translate(0 -121.295)" clip-path="url(#clip-path)">
      <g id="Group_150" data-name="Group 150" transform="translate(284.203 42.013)">
        <path id="Path_6003" data-name="Path 6003" d="M15.5,15.411A11.83,11.83,0,0,1-1.343-1.208,11.83,11.83,0,1,1,15.5,15.411" transform="translate(4.743 4.716)" fill="#fff"/>
      </g>
      <g id="Group_151" data-name="Group 151" transform="translate(251.378 59.514)">
        <path id="Path_6004" data-name="Path 6004" d="M.017,10.281A14.137,14.137,0,1,1,13.38,25.108,14.142,14.142,0,0,1,.017,10.281" transform="translate(0.005 3.146)" fill="#fff"/>
      </g>
      <g id="Group_152" data-name="Group 152" transform="translate(250.508 42.503)">
        <path id="Path_6005" data-name="Path 6005" d="M10.551,0A14.139,14.139,0,1,1-3.225,14.442,14.1,14.1,0,0,1,10.551,0" transform="translate(3.229 0.001)" fill="#fff"/>
      </g>
      <g id="Group_153" data-name="Group 153" transform="translate(271.335 33.613)">
        <path id="Path_6006" data-name="Path 6006" d="M17.192,4.421A12.129,12.129,0,1,1,.509.435,12.147,12.147,0,0,1,17.192,4.421" transform="translate(5.261 1.353)" fill="#fff"/>
      </g>
      <g id="Group_154" data-name="Group 154" transform="translate(266.306 53.575)">
        <path id="Path_6007" data-name="Path 6007" d="M11.233,23.764A15.53,15.53,0,1,1,27.6,9.134a15.469,15.469,0,0,1-16.371,14.63" transform="translate(3.437 7.272)" fill="#fff"/>
      </g>
      <g id="Group_155" data-name="Group 155" transform="translate(523.306 37.111)">
        <path id="Path_6008" data-name="Path 6008" d="M17.411,0C16.754.73-5.328,52.507-5.328,52.507L23.006.218Z" transform="translate(5.328)" fill="#fff"/>
      </g>
      <g id="Group_156" data-name="Group 156" transform="translate(538.911 54.968)">
        <path id="Path_6009" data-name="Path 6009" d="M23.669,0C24.416.533-7.243,39.144-7.243,39.144L27.668,3.312Z" transform="translate(7.243)" fill="#fff"/>
      </g>
    </g>
    <g id="Group_158" data-name="Group 158" transform="translate(524.096 -74.818)">
      <path id="Path_6011" data-name="Path 6011" d="M26.348,0-8.063,53.706,30.458,5.185Z" transform="translate(8.063)" fill="#fff"/>
    </g>
    <g id="Group_166" data-name="Group 166" transform="translate(0 -121.295)" clip-path="url(#clip-path)">
      <g id="Group_159" data-name="Group 159" transform="translate(567.013 41.965)">
        <path id="Path_6012" data-name="Path 6012" d="M4.668,15.112A10.44,10.44,0,0,1-.688,1.706,9.689,9.689,0,0,1,12.149-3.842,10.518,10.518,0,0,1,17.51,9.615a9.642,9.642,0,0,1-12.842,5.5" transform="translate(1.428 4.624)" fill="#fff"/>
      </g>
      <g id="Group_160" data-name="Group 160" transform="translate(540.232 21.833)">
        <path id="Path_6013" data-name="Path 6013" d="M6.05.507a11.688,11.688,0,0,1,14.98,7.61,12.335,12.335,0,0,1-7.255,15.6,11.71,11.71,0,0,1-14.98-7.61A12.4,12.4,0,0,1,6.05.507" transform="translate(1.851 0.155)" fill="#fff"/>
      </g>
      <g id="Group_161" data-name="Group 161" transform="translate(553.086 15.614)">
        <path id="Path_6014" data-name="Path 6014" d="M17.283,5.691a12.439,12.439,0,0,1-6.12,16.12A11.608,11.608,0,0,1-4.312,15.383,12.439,12.439,0,0,1,1.808-.736,11.608,11.608,0,0,1,17.283,5.691" transform="translate(5.289 1.742)" fill="#fff"/>
      </g>
      <g id="Group_162" data-name="Group 162" transform="translate(569.079 28.979)">
        <path id="Path_6015" data-name="Path 6015" d="M13.953,12.817A9.787,9.787,0,0,1-.165,15.011,10.784,10.784,0,0,1-2.308.334,9.832,9.832,0,0,1,11.81-1.86a10.835,10.835,0,0,1,2.142,14.677" transform="translate(4.27 3.922)" fill="#fff"/>
      </g>
      <g id="Group_163" data-name="Group 163" transform="translate(547.666 32.289)">
        <path id="Path_6016" data-name="Path 6016" d="M.543,13.645A13.549,13.549,0,0,1,8.575-3.448a12.8,12.8,0,0,1,16.414,8.42,13.576,13.576,0,0,1-8.032,17.1A12.83,12.83,0,0,1,.543,13.645" transform="translate(0.166 4.175)" fill="#fff"/>
      </g>
      <g id="Group_164" data-name="Group 164" transform="translate(572.306 360.689)">
        <path id="Path_6017" data-name="Path 6017" d="M34.753,33.554c-.474-1-45.388-43.822-45.388-43.822L32.44,39.456Z" transform="translate(10.635 10.268)" fill="#fff"/>
      </g>
      <g id="Group_165" data-name="Group 165" transform="translate(561.686 375.798)">
        <path id="Path_6018" data-name="Path 6018" d="M21.862,36.485c-.854.593-28.552-47.65-28.552-47.65L16.958,39.6Z" transform="translate(6.69 11.165)" fill="#fff"/>
      </g>
    </g>
    <g id="Group_167" data-name="Group 167" transform="translate(561.093 236.331)">
      <path id="Path_6020" data-name="Path 6020" d="M32.315,43.482l-42.2-56.788L25.44,46.017Z" transform="translate(9.889 13.306)" fill="#fff"/>
    </g>
    <g id="Group_175" data-name="Group 175" transform="translate(0 -121.295)" clip-path="url(#clip-path)">
      <g id="Group_168" data-name="Group 168" transform="translate(579.135 420.795)">
        <path id="Path_6021" data-name="Path 6021" d="M2.226,2.823A11.232,11.232,0,1,1,3,18.69,11.242,11.242,0,0,1,2.226,2.823" transform="translate(0.681 0.864)" fill="#fff"/>
      </g>
      <g id="Group_169" data-name="Group 169" transform="translate(605.112 398.576)">
        <path id="Path_6022" data-name="Path 6022" d="M20.552,10.382A13.421,13.421,0,1,1,7.271-3.177,13.427,13.427,0,0,1,20.552,10.382" transform="translate(6.289 3.177)" fill="#fff"/>
      </g>
      <g id="Group_170" data-name="Group 170" transform="translate(606.617 414.69)">
        <path id="Path_6023" data-name="Path 6023" d="M10.927,20.539A13.425,13.425,0,1,1,23.44,6.241a13.42,13.42,0,0,1-12.513,14.3" transform="translate(3.344 6.285)" fill="#fff"/>
      </g>
      <g id="Group_171" data-name="Group 171" transform="translate(591.133 427.725)">
        <path id="Path_6024" data-name="Path 6024" d="M1.51,13.722a11.488,11.488,0,1,1,15.949,3.1,11.479,11.479,0,0,1-15.949-3.1" transform="translate(0.462 4.199)" fill="#fff"/>
      </g>
      <g id="Group_172" data-name="Group 172" transform="translate(588.464 402.214)">
        <path id="Path_6025" data-name="Path 6025" d="M11.471,0A14.747,14.747,0,1,1-3.509,14.567,14.741,14.741,0,0,1,11.471,0" transform="translate(3.51 0)" fill="#fff"/>
      </g>
      <g id="Group_173" data-name="Group 173" transform="translate(275.74 361.333)">
        <path id="Path_6026" data-name="Path 6026" d="M4.519,41.554c.644-.811,20.827-54.27,20.827-54.27L-1.383,41.669Z" transform="translate(1.383 12.716)" fill="#fff"/>
      </g>
      <g id="Group_174" data-name="Group 174" transform="translate(251.351 357.76)">
        <path id="Path_6027" data-name="Path 6027" d="M3.333,31.675C2.5,31.154,33.451-9.693,33.451-9.693L-1.02,28.6Z" transform="translate(1.02 9.693)" fill="#fff"/>
      </g>
    </g>
    <g id="Group_176" data-name="Group 176" transform="translate(263.397 229.433)">
      <path id="Path_6029" data-name="Path 6029" d="M3.552,43.037,36.525-13.17-1.087,38.082Z" transform="translate(1.087 13.17)" fill="#fff"/>
    </g>
    <g id="Group_182" data-name="Group 182" transform="translate(0 -121.295)" clip-path="url(#clip-path)">
      <g id="Group_177" data-name="Group 177" transform="translate(238.128 391.943)">
        <path id="Path_6030" data-name="Path 6030" d="M10.528.435A10.352,10.352,0,1,1-2.655,6.807,10.355,10.355,0,0,1,10.528.435" transform="translate(3.222 0.133)" fill="#fff"/>
      </g>
      <g id="Group_178" data-name="Group 178" transform="translate(263.208 406.613)">
        <path id="Path_6031" data-name="Path 6031" d="M13.062,18.2A12.351,12.351,0,1,1,19.776,2.077,12.337,12.337,0,0,1,13.062,18.2" transform="translate(3.997 5.57)" fill="#fff"/>
      </g>
      <g id="Group_179" data-name="Group 179" transform="translate(250.078 413.658)">
        <path id="Path_6032" data-name="Path 6032" d="M1,13.736a12.393,12.393,0,0,1,5.488-16.6,12.31,12.31,0,0,1,16.6,5.488,12.339,12.339,0,0,1-5.437,16.58A12.445,12.445,0,0,1,1,13.736" transform="translate(0.307 4.203)" fill="#fff"/>
      </g>
      <g id="Group_180" data-name="Group 180" transform="translate(236.177 404.653)">
        <path id="Path_6033" data-name="Path 6033" d="M1.322,3.688A10.59,10.59,0,1,1,4.407,18.343,10.566,10.566,0,0,1,1.322,3.688" transform="translate(0.404 1.128)" fill="#fff"/>
      </g>
      <g id="Group_181" data-name="Group 181" transform="translate(252.302 394.209)">
        <path id="Path_6034" data-name="Path 6034" d="M20.019,6.462a13.578,13.578,0,1,1-17.7-7.43,13.574,13.574,0,0,1,17.7,7.43" transform="translate(6.126 1.977)" fill="#fff"/>
      </g>
    </g>
    <g id="Group_183" data-name="Group 183" transform="translate(725.323 215.892)">
      <path id="Path_6036" data-name="Path 6036" d="M0,0,38.483,69.668,56.19,55.251Z" fill="#ffea3d"/>
    </g>
    <g id="Group_184" data-name="Group 184" transform="translate(125.654 244.093)">
      <path id="Path_6037" data-name="Path 6037" d="M71.506,0-21.882,38.841-6.151,63.219Z" transform="translate(21.882)" fill="#ffea3d"/>
    </g>
    <g id="Group_185" data-name="Group 185" transform="translate(122.96 262.022)">
      <path id="Path_6038" data-name="Path 6038" d="M76.4,0-3.294,103.174-23.378,81.4Z" transform="translate(23.378)" fill="#ffea3d"/>
    </g>
    <g id="Group_193" data-name="Group 193" transform="translate(0 -121.295)" clip-path="url(#clip-path)">
      <g id="Group_186" data-name="Group 186" transform="translate(96.524 305.72)">
        <path id="Path_6039" data-name="Path 6039" d="M10.892,21.787A14.227,14.227,0,1,0-3.333,7.562,14.262,14.262,0,0,0,10.892,21.787" transform="translate(3.333 6.667)" fill="#ffea3d"/>
      </g>
      <g id="Group_187" data-name="Group 187" transform="translate(97.304 489.212)">
        <path id="Path_6040" data-name="Path 6040" d="M12.166,21.711A14.226,14.226,0,1,0-3.625,9.245,14.258,14.258,0,0,0,12.166,21.711" transform="translate(3.723 6.644)" fill="#fff"/>
      </g>
      <g id="Group_188" data-name="Group 188" transform="translate(732.44 162.799)">
        <path id="Path_6041" data-name="Path 6041" d="M8.444,16.859A11.009,11.009,0,1,0-2.584,5.848,11.035,11.035,0,0,0,8.444,16.859" transform="translate(2.584 5.159)" fill="#fff"/>
      </g>
      <g id="Group_189" data-name="Group 189" transform="translate(108.876 152.812)">
        <path id="Path_6042" data-name="Path 6042" d="M8.431,16.875A11.02,11.02,0,1,0-2.58,5.847,11.042,11.042,0,0,0,8.431,16.875" transform="translate(2.58 5.164)" fill="#fff"/>
      </g>
      <g id="Group_190" data-name="Group 190" transform="translate(104.956 415.085)">
        <path id="Path_6043" data-name="Path 6043" d="M9.427,16.815A11.018,11.018,0,1,0-2.808,7.17,11.033,11.033,0,0,0,9.427,16.815" transform="translate(2.885 5.146)" fill="#fff"/>
      </g>
      <g id="Group_191" data-name="Group 191" transform="translate(771.959 401.119)">
        <path id="Path_6044" data-name="Path 6044" d="M4.347,12.869A8.668,8.668,0,1,0-.8,1.742,8.693,8.693,0,0,0,4.347,12.869" transform="translate(1.33 3.938)" fill="#fff"/>
      </g>
      <g id="Group_192" data-name="Group 192" transform="translate(671.658 0)">
        <path id="Path_6045" data-name="Path 6045" d="M8.444,16.859A11.009,11.009,0,1,0-2.584,5.848,11.035,11.035,0,0,0,8.444,16.859" transform="translate(2.584 5.159)" fill="#fff"/>
      </g>
    </g>
    <g id="Group_194" data-name="Group 194" transform="translate(716.386 220.824)">
      <path id="Path_6047" data-name="Path 6047" d="M0,0,27.941,98.7,4.776,101.207Z" fill="#ffea3d"/>
    </g>
    <g id="Group_196" data-name="Group 196" transform="translate(0 -121.295)" clip-path="url(#clip-path)">
      <g id="Group_195" data-name="Group 195" transform="translate(731.827 480.725)">
        <path id="Path_6048" data-name="Path 6048" d="M.965,3.186A8.661,8.661,0,1,0,12.877.284,8.678,8.678,0,0,0,.965,3.186" transform="translate(0.295 0.975)" fill="#ffea3d"/>
      </g>
    </g>
  </g>
</svg>
