<?xml version="1.0" encoding="UTF-8"?>
<svg id="Layer_1" xmlns="http://www.w3.org/2000/svg" version="1.1" viewBox="0 0 217.1 211.5">
  <!-- Generator: Adobe Illustrator 29.7.0, SVG Export Plug-In . SVG Version: 2.1.1 Build 138)  -->
  <defs>
    <style>
      .st0 {
        fill: #fff;
      }
    </style>
  </defs>
  <path class="st0" d="M215.7,87.1c.1,1.5.2,4.4,0,5.9-.3,2.5-1.8,6.2-3,8.5-4.6,8.6-13.6,14-23.3,14.5,7.5,31.7,2.6,63.6-29.4,78.3s-76.6,12-102.8-.1c-31.8-14.7-36.5-46.6-29.1-78.1-14.2-.6-26.8-12.5-26.4-27,.4-13,10.4-28.6,18.2-38.6,12.2-15.4,30.5-33.3,51.7-23.1,21.3-14.7,52.8-14.7,74.1,0,10.9-5.6,22.8-2.6,32.5,3.9,14.6,9.9,35.9,38.1,37.5,55.9ZM115.3,190c15.6-1,32.1-2.6,45.5-11.1,23.8-15.2,20.4-46.5,12.6-69.8s-16.9-52.7-29.9-66.3c-17.3-18-52.6-18-69.8,0-13,13.5-23.7,47.9-29.9,66.3-7.8,23.3-11.2,54.6,12.6,69.8,13.4,8.6,30,10.1,45.5,11.1v-27.2c-12.7-4.2-28.5-25.8-15.1-37,8.1-6.7,34.7-6.7,43-.4,14.2,10.9-1.7,33.2-14.6,37.4v27.2ZM61,37.4c-3.4-.3-6.5.6-9.6,1.9-13.3,5.7-37.3,36.6-36.6,51.3.4,8.1,10.3,13.9,17.6,12,8.7-22.1,13.9-46.1,28.6-65.2ZM156.3,37.4c14.7,19.1,19.9,43.2,28.6,65.2,7.4,1.9,17.3-3.9,17.6-12,.7-14.8-23.3-45.7-36.6-51.3s-6.2-2.2-9.6-1.9ZM121.9,135.7c-2-2-15.7-2-18.9-1.8s-8.3.6-8.1,3.5c.3,4.8,9.4,14.1,14.4,13.6s7.2-4.1,9-6.1,5.5-7.4,3.7-9.3Z"/>
  <path class="st0" d="M129,86c11.5-1.9,13.6,16,2.8,17.4s-13.8-15.6-2.8-17.4Z"/>
  <path class="st0" d="M93,88.5c7.9,8.3-4.7,20.6-12.4,12.2s4.8-20.2,12.4-12.2Z"/>
</svg>