<?xml version="1.0" encoding="UTF-8"?>
<svg id="Layer_1" xmlns="http://www.w3.org/2000/svg" version="1.1" viewBox="0 0 720 720">
  <!-- Generator: Adobe Illustrator 29.7.0, SVG Export Plug-In . SVG Version: 2.1.1 Build 138)  -->
  <defs>
    <style>
      .st0 {
        fill: #fff;
      }
    </style>
  </defs>
  <g>
    <path class="st0" d="M590.6,94.2C476-14.1,305.4-27.1,176.6,65.2c-11.9,8.5-62.8,52.5-65.5,64-3.6,15.3,7.3,25.5,22.3,20.8s25.6-26.2,32.2-32.5c106.2-101.2,278.6-107.4,389.3-9.8,8.6,7.6,38.2,41.4,45.9,42.9,13.9,2.7,22.3-6.6,20.2-20.2-1-6.6-24.2-30.2-30.7-36.3ZM593.2,340.1c7.2,7.8,22.9,5.7,27-4.4,5.4-13.4-3.1-59.6-7.2-74.9C565,80.5,339.3,11.3,198.1,135c-48.8,42.8-96.6,129-87.2,195.7s30,19.8,32.8-4.5c3.1-26.5,3.1-44.4,12.2-70.6,75.4-217.3,391.6-192,430.5,45.4,1.5,9,1.1,33.2,6.7,39.3ZM503.6,545.1c.4-66.7.5-136.2-12.2-201.9-15.8-81.4-49.5-142.1-143.2-133.5-121.5,11.1-117.4,207.9-119.9,295.8-.3,12.1-3.2,25.4-1.3,38,34.7,20.9,73.8,37.3,114.8,39.5,27.3,1.5,58.4.9,84.9-5.6,27.3-6.7,52.4-19.1,76.8-32.4Z"/>
    <path d="M503.6,545.1c-24.5,13.3-49.6,25.6-76.8,32.4-26.5,6.5-57.6,7.1-84.9,5.6-41-2.2-80.2-18.6-114.8-39.5-2-12.6.9-25.9,1.3-38,2.5-87.9-1.6-284.6,119.9-295.8,93.7-8.6,127.4,52.2,143.2,133.5,12.7,65.6,12.6,135.1,12.2,201.9ZM340.9,250.6c-18.4,2.2-60.5,20.2-63,41-5.4,45.2,12,107.7,62,118.8,74.3,16.4,117.6-35.9,115.8-106.7-1.3-50.2-77.6-57.5-114.9-53Z"/>
    <path d="M593.2,340.1c-5.6-6-5.2-30.2-6.7-39.3C547.5,63.4,231.3,38.1,156,255.4c-9.1,26.3-9.1,44.1-12.2,70.6-2.9,24.3-29.9,25.1-32.8,4.5-9.4-66.6,38.4-152.9,87.2-195.7,141.1-123.7,366.8-54.5,414.9,125.8,4.1,15.3,12.5,61.5,7.2,74.9-4.1,10.1-19.8,12.2-27,4.4Z"/>
    <path d="M590.6,94.2c6.5,6.1,29.6,29.8,30.7,36.3,2.1,13.6-6.3,22.9-20.2,20.2-7.7-1.5-37.4-35.3-45.9-42.9C444.3,10.2,271.9,16.4,165.7,117.6c-6.6,6.3-25.2,30.3-32.2,32.5-15.1,4.7-25.9-5.5-22.3-20.8,2.7-11.5,53.5-55.5,65.5-64C305.4-27.1,476-14.1,590.6,94.2Z"/>
    <path class="st0" d="M340.9,250.6c37.3-4.5,113.6,2.9,114.9,53,1.8,70.8-41.5,123.1-115.8,106.7-50.1-11-67.4-73.6-62-118.8,2.5-20.7,44.6-38.7,63-41Z"/>
  </g>
  <g>
    <path d="M98.4,667.6c0,5.7-.7,10.8-2.2,15.3-1.5,4.5-3.5,8.5-6.1,12-2.6,3.5-5.7,6.4-9.4,8.9-3.6,2.4-7.6,4.4-11.9,6-4.3,1.6-8.9,2.7-13.7,3.4-4.9.7-9.8,1.1-15,1.1s-3.8,0-5.6-.2c-1.8-.1-3.7-.3-5.6-.5l1.7-79.3c4.5-1.4,9.1-2.4,13.8-3,4.7-.6,9.4-.9,14.1-.9s11.1.8,16,2.4c4.9,1.6,9.1,4,12.6,7.2,3.5,3.1,6.3,7,8.3,11.6,2,4.6,3,9.9,3,15.9ZM57,691c2.4-.4,4.7-1.1,6.7-2.2,2-1.1,3.7-2.5,5.2-4.1s2.6-3.5,3.4-5.6c.8-2.1,1.2-4.3,1.2-6.7s-.2-4.5-.7-6.5-1.3-3.8-2.4-5.2c-1.1-1.5-2.5-2.7-4.3-3.5-1.8-.9-4-1.3-6.6-1.4l-2.4,35.3Z"/>
    <path d="M177.5,669.3c0,3.7-.4,7.3-1.3,10.7-.9,3.4-2.1,6.6-3.7,9.7-1.6,3-3.6,5.8-5.8,8.3-2.3,2.5-4.9,4.6-7.7,6.4-2.9,1.8-6,3.2-9.3,4.2-3.4,1-6.9,1.5-10.7,1.5s-7.1-.5-10.4-1.4c-3.3-.9-6.4-2.2-9.3-3.9-2.9-1.7-5.5-3.7-7.8-6.1-2.3-2.4-4.3-5-6-7.9-1.6-2.9-2.9-6-3.8-9.3-.9-3.3-1.4-6.8-1.4-10.4s.4-7,1.3-10.4c.9-3.4,2.1-6.6,3.7-9.6,1.6-3,3.5-5.8,5.8-8.3,2.3-2.5,4.8-4.7,7.6-6.5,2.8-1.8,5.9-3.2,9.2-4.3s6.8-1.5,10.4-1.5c5.9,0,11.3.9,16.1,2.7,4.9,1.8,9,4.4,12.4,7.8,3.4,3.4,6.1,7.5,8,12.3,1.9,4.8,2.8,10.2,2.8,16.1ZM150.4,670.9c0-1.7-.3-3.4-.8-5.1-.5-1.6-1.2-3.1-2.2-4.4s-2.2-2.3-3.6-3.1c-1.4-.8-3.1-1.2-5-1.2s-3.6.3-5.1,1c-1.5.7-2.8,1.6-3.9,2.8-1.1,1.2-1.9,2.6-2.5,4.2-.6,1.6-.9,3.3-.9,5.1s.2,3.4.7,5.1c.5,1.7,1.2,3.2,2.2,4.6,1,1.4,2.2,2.5,3.6,3.3,1.4.9,3.1,1.3,5,1.3s3.6-.4,5.1-1.1c1.5-.8,2.8-1.8,3.9-3,1.1-1.3,1.9-2.8,2.4-4.4.6-1.7.9-3.4.9-5.2Z"/>
    <path d="M254.3,630.2c-1.8,14.3-3.4,28.5-4.7,42.7-1.3,14.2-2.5,28.4-3.7,42.7l-25,1.8,1.1-9.4c-.8.9-1.8,1.7-2.8,2.4-1.1.7-2.2,1.2-3.4,1.7-1.2.4-2.5.7-3.8.9-1.3.2-2.5.3-3.7.2-2.8,0-5.4-.6-7.8-1.6-2.4-1-4.7-2.4-6.7-4.1-2-1.7-3.9-3.7-5.5-6-1.6-2.3-3-4.7-4.1-7.2-1.1-2.5-2-5.1-2.6-7.8-.6-2.6-.9-5.2-.9-7.7,0-3.7,0-7.4.2-11.4.1-3.9.4-7.8.8-11.8.4-3.9.8-7.8,1.4-11.7.6-3.9,1.3-7.6,2.2-11.1,5,.2,9.9.5,14.9.7,5,.2,10,.3,14.9.2-.9,3.5-1.9,7.1-2.8,10.6-.9,3.6-1.7,7.1-2.5,10.7s-1.3,7.2-1.8,10.8c-.4,3.6-.7,7.3-.7,11s0,2.1.1,3.7c0,1.6.3,3.1.6,4.7.3,1.5.9,2.9,1.6,4,.7,1.2,1.7,1.7,3,1.7s2.9-.7,4.1-2c1.2-1.3,2.3-3.1,3.2-5.3.9-2.2,1.7-4.8,2.4-7.7s1.2-6,1.7-9.2c.5-3.2.8-6.4,1.1-9.7.3-3.2.5-6.3.6-9.2.1-2.9.2-5.4.3-7.7,0-2.3,0-4,0-5.3s0-1.6,0-2.4c0-.8-.1-1.6-.2-2.4,2.6,0,5.3.1,7.9.2,2.6,0,5.2,0,7.9,0s4.1,0,6.1,0c2.1,0,4.1,0,6.2-.2Z"/>
    <path d="M328.9,694.2c0,3.4-.6,6.3-1.9,8.7-1.2,2.4-2.9,4.5-5,6.2-2.1,1.7-4.5,3.1-7.2,4.2-2.7,1.1-5.5,1.9-8.4,2.5-2.9.6-5.9,1-8.8,1.2-2.9.2-5.7.3-8.3.3s-5.1,0-7.8-.3c-2.7-.2-5.4-.5-8.1-.9-2.7-.4-5.3-1-7.9-1.8-2.6-.8-5.1-1.7-7.4-2.8v-78.5c2.2-.9,4.6-1.8,7.1-2.5,2.6-.8,5.2-1.4,7.8-1.9,2.7-.5,5.3-.9,7.9-1.2,2.6-.3,5.2-.4,7.7-.4s5.8.2,8.7.5c2.9.4,5.8,1,8.5,1.8,2.7.9,5.3,2,7.6,3.3,2.4,1.4,4.4,3,6.2,5s3.1,4.3,4.1,6.9c1,2.6,1.5,5.7,1.5,9.1s-.3,4.4-1,6.4c-.6,2-1.6,3.8-2.8,5.4s-2.7,2.9-4.4,4.1c-1.7,1.1-3.7,1.9-5.9,2.5,2.6.7,5,1.7,7.2,3,2.2,1.3,4,3,5.5,4.9,1.5,1.9,2.7,4.1,3.5,6.5.8,2.4,1.2,5,1.2,7.7ZM289.3,679.4c-1.2,0-2.3.1-3.4.4l-.2,13.9c.6.1,1.2.2,1.8.3.6.1,1.2.2,1.7.2.9,0,1.8,0,2.8-.3,1-.2,2-.5,2.9-1.1.9-.5,1.6-1.3,2.2-2.2.6-.9.9-2.2.9-3.7s-.3-2.8-.9-3.8c-.6-1-1.3-1.7-2.2-2.3-.9-.5-1.8-.9-2.8-1.1-1-.2-1.9-.3-2.8-.3ZM298,659.5c0-1.2-.2-2.2-.7-3-.5-.8-1.1-1.5-1.8-2-.7-.5-1.5-.9-2.3-1.2-.8-.2-1.6-.4-2.2-.4s-1.6.1-2.4.4c-.8.2-1.5.5-2.3.9l-.4,13.5c.9,0,2.1,0,3.5-.2,1.4-.2,2.7-.5,4-1.1,1.3-.5,2.4-1.4,3.3-2.4.9-1.1,1.3-2.5,1.3-4.4Z"/>
    <path d="M385.5,683.7l-2.6,27-51.3,4,1.9-87h31.7l-4.5,55.9h24.7Z"/>
    <path d="M456.4,666.7c0,3.5-.2,7.1-.7,10.6-6.9.4-13.8,1.2-20.7,2.2-6.9,1-13.7,2-20.6,3,1.1,2.9,2.7,5.3,5,7,2.3,1.7,4.9,2.6,8.1,2.6s3.4-.3,5.3-.9c1.9-.6,3.8-1.4,5.8-2.3,1.9-.9,3.7-1.9,5.5-3,1.7-1.1,3.2-2,4.5-2.9l-2.9,27.7c-1.6,1.2-3.3,2.3-5.1,3.1-1.8.9-3.8,1.5-5.8,2.1-2,.5-4,.9-6,1.2-2,.2-4,.4-6,.4-4,0-7.7-.5-11-1.6-3.3-1.1-6.3-2.6-9-4.6-2.7-2-5.1-4.3-7.1-7s-3.7-5.6-5.1-8.8c-1.3-3.2-2.4-6.5-3-10-.7-3.5-1-7.1-1-10.7s.3-7.6,1-11.3c.7-3.8,1.7-7.4,3.1-10.9,1.4-3.5,3.2-6.7,5.3-9.7s4.6-5.6,7.5-7.8c2.8-2.2,6.1-4,9.7-5.2,3.6-1.3,7.6-1.9,11.9-1.9s6.9.5,9.9,1.5,5.6,2.4,8,4.1c2.3,1.8,4.4,3.9,6.1,6.3,1.7,2.4,3.1,5.1,4.3,8,1.1,2.9,1.9,6,2.5,9.2.5,3.2.8,6.5.8,9.8ZM432,663.6c0-1.1-.1-2.3-.4-3.5-.2-1.2-.6-2.3-1.2-3.3-.5-1-1.3-1.8-2.2-2.4-.9-.6-2-.9-3.4-.9s-3.1.4-4.3,1.3c-1.2.9-2.3,2-3.2,3.3-.9,1.3-1.6,2.8-2.2,4.3-.6,1.5-1,3-1.3,4.3l18-1.7v-1.3Z"/>
    <path d="M549.2,630l-.6,25.8-18.2.7-2.2,56.5-25.7,1.3-2.3-56.5-18.2,1,.7-28.8h66.4Z"/>
    <path d="M621.6,710.7l-30.2,3.9-3.7-13.8h-13.9l-3,13.8-31.1-3,24.2-81.1,33.9-1.7,23.8,82ZM585.5,682.2l-4.6-21.2-4.5,21.2h9.1Z"/>
    <path d="M693.8,659.8c0,3.9-.6,7.4-1.8,10.5s-2.8,5.7-4.8,8c-2.1,2.3-4.5,4.2-7.2,5.8-2.8,1.6-5.7,2.8-8.9,3.8-3.1,1-6.4,1.7-9.8,2.2-3.4.5-6.7.7-9.9.8v25.9h-28.4c0-4.6,0-9.1,0-13.5s0-8.7,0-13.1c0-4.3,0-8.7,0-13.1s0-8.9,0-13.6c0-5,.1-9.9,0-14.9,0-5,0-9.9.3-15,5.2-1.5,10.4-2.7,15.6-3.5s10.6-1.2,16.1-1.2,6.3.3,9.4.8c3.1.5,6.1,1.3,9,2.4,2.9,1.1,5.5,2.5,8,4.1s4.6,3.6,6.4,5.9c1.8,2.3,3.2,4.9,4.2,7.8,1,2.9,1.6,6.2,1.6,9.7ZM666.8,661.8c0-2.6-.8-4.7-2.4-6.2s-3.7-2.2-6.2-2.2-1.7,0-2.6.2c-.9.1-1.8.3-2.6.5l-.7,17.8c.6,0,1.1.1,1.6.1h1.6c1.5,0,2.9-.2,4.2-.7,1.4-.5,2.6-1.2,3.6-2.1,1.1-.9,1.9-2,2.5-3.2.6-1.2.9-2.6.9-4.2Z"/>
  </g>
</svg>