<?xml version="1.0" encoding="UTF-8"?>
<svg id="Layer_1" xmlns="http://www.w3.org/2000/svg" version="1.1" viewBox="0 0 635 720">
  <!-- Generator: Adobe Illustrator 29.7.0, SVG Export Plug-In . SVG Version: 2.1.1 Build 138)  -->
  <defs>
    <style>
      .st0 {
        fill: #00003e;
      }
    </style>
  </defs>
  <path class="st0" d="M486.4,671.1c-30.3,16.5-61.4,31.7-95.1,40.1-32.8,8-71.3,8.8-105.1,6.9-50.8-2.7-99.3-23-142.2-48.9-2.5-15.6,1.1-32.1,1.6-47.1,3.1-108.8-2-352.4,148.5-366.3,116-10.6,157.8,64.6,177.3,165.3,15.7,81.2,15.6,167.3,15.1,250h-.1ZM284.9,306.4c-22.8,2.7-74.9,25-78,50.8-6.7,56,14.9,133.4,76.8,147.1,92,20.3,145.6-44.5,143.4-132.1-1.6-62.2-96.1-71.2-142.3-65.6h.1Z"/>
  <path class="st0" d="M597.4,417.3c-6.9-7.4-6.4-37.4-8.3-48.7C540.8,74.6,149.2,43.3,56,312.4c-11.3,32.6-11.3,54.6-15.1,87.4-3.6,30.1-37,31.1-40.6,5.6-11.6-82.5,47.5-189.3,108-242.3C283,9.9,562.4,95.6,622,318.8c5.1,18.9,15.5,76.2,8.9,92.7-5.1,12.5-24.5,15.1-33.4,5.4v.2Z"/>
  <path class="st0" d="M594.1,112.8c8,7.6,36.7,36.9,38,44.9,2.6,16.8-7.8,28.4-25,25-9.5-1.9-46.3-43.7-56.8-53.1C413,8.8,199.5,16.4,68,141.7c-8.2,7.8-31.2,37.5-39.9,40.2-18.7,5.8-32.1-6.8-27.6-25.8,3.3-14.2,66.2-68.7,81.1-79.2C241-37.4,452.2-21.3,594.1,112.8Z"/>
</svg>