<?xml version="1.0" encoding="UTF-8"?>
<svg id="Layer_1" xmlns="http://www.w3.org/2000/svg" version="1.1" viewBox="0 0 86.9 45.9">
  <!-- Generator: Adobe Illustrator 29.7.0, SVG Export Plug-In . SVG Version: 2.1.1 Build 138)  -->
  <defs>
    <style>
      .st0 {
        fill: #fff;
      }
    </style>
  </defs>
  <path d="M55.5,24.1v5.9c-.1,0-4.2.2-4.2.2l-.5,12.8-5.8.3-.5-12.8-4.1.2.2-6.5h15M55.5,22.1h0s-15,0-15,0c-1.1,0-2,.9-2,1.9l-.2,6.5c0,.6.2,1.1.6,1.5.4.4.9.6,1.4.6h.1s2.1-.1,2.1-.1l.4,10.8c0,.5.3,1,.7,1.4.4.3.8.5,1.3.5h.1s5.8-.3,5.8-.3c1,0,1.9-.9,1.9-1.9l.4-11h2.3c1.1-.1,1.9-1,1.9-2v-5.9c.2-.5,0-1.1-.4-1.4-.4-.4-.9-.6-1.4-.6ZM55.5,26.1h0,0Z"/>
  <path d="M60.6,2.3c.8,0,1.6.1,2.2.3.7.2,1.3.5,1.8.9.5.4,1,.9,1.4,1.4.4.6.7,1.2,1,1.8.3.7.4,1.4.6,2.1.1.7.2,1.5.2,2.2s0,1.6-.2,2.4c-1.6.1-3.1.3-4.7.5-1.6.2-3.1.4-4.7.7.2.7.6,1.2,1.1,1.6.5.4,1.1.6,1.8.6s.8,0,1.2-.2c.4-.1.9-.3,1.3-.5.4-.2.8-.4,1.2-.7.4-.2.7-.5,1-.6l-.7,6.3c-.4.3-.7.5-1.2.7-.4.2-.9.3-1.3.5s-.9.2-1.4.3c-.5,0-.9,0-1.4,0-.9,0-1.7-.1-2.5-.4-.8-.2-1.4-.6-2-1-.6-.4-1.1-1-1.6-1.6-.5-.6-.8-1.3-1.1-2-.3-.7-.5-1.5-.7-2.3-.2-.8-.2-1.6-.2-2.4s0-1.7.2-2.6c.2-.9.4-1.7.7-2.5.3-.8.7-1.5,1.2-2.2.5-.7,1-1.3,1.7-1.8.6-.5,1.4-.9,2.2-1.2.8-.3,1.7-.4,2.7-.4M58.1,11.1l4.1-.4v-.3c0-.3,0-.5,0-.8,0-.3-.1-.5-.3-.7-.1-.2-.3-.4-.5-.5-.2-.1-.5-.2-.8-.2s-.7,0-1,.3c-.3.2-.5.4-.7.7-.2.3-.4.6-.5,1-.1.3-.2.7-.3,1M65.9,14.8h0M60.6.3c-1.2,0-2.3.2-3.4.5-1,.4-1.9.9-2.8,1.5-.8.6-1.5,1.4-2.1,2.2-.6.8-1.1,1.7-1.4,2.6-.4.9-.6,1.9-.8,2.9-.2,1-.3,2-.3,2.9s0,1.9.3,2.8c.2.9.5,1.8.8,2.7.4.9.8,1.7,1.4,2.4.6.8,1.3,1.4,2,2,.8.6,1.7,1,2.6,1.3,1,.3,2,.5,3.1.5s1.1,0,1.6,0c.6,0,1.1-.2,1.6-.3.6-.1,1.1-.3,1.6-.6.6-.3,1.1-.6,1.5-.9.4-.3.7-.8.8-1.4l.6-5.8c.9-.1,1.5-.8,1.7-1.7.1-.9.2-1.8.2-2.7s0-1.7-.2-2.6c-.1-.9-.4-1.7-.7-2.5-.3-.8-.7-1.6-1.2-2.3-.5-.7-1.1-1.3-1.8-1.9-.7-.5-1.5-.9-2.4-1.2-.9-.3-1.8-.4-2.9-.4Z"/>
  <path d="M51.8,2.8v5.9c-.1,0-4.2.2-4.2.2l-.5,12.8-5.8.3-.5-12.8-4.1.2.2-6.5h15M51.8.8h0s-15,0-15,0c-1.1,0-2,.9-2,1.9l-.2,6.5c0,.6.2,1.1.6,1.5.4.4.9.6,1.4.6h.1s2.1-.1,2.1-.1l.4,10.8c0,.5.3,1,.7,1.4.4.3.8.5,1.3.5h.1s5.8-.3,5.8-.3c1,0,1.9-.9,1.9-1.9l.4-11h2.3c1.1-.1,1.9-1,1.9-2V2.9c.2-.5,0-1.1-.4-1.4-.4-.4-.9-.6-1.4-.6ZM51.8,4.8h0,0Z"/>
  <path d="M10.7,2.3c.8,0,1.6.1,2.2.3.7.2,1.3.5,1.8.9.5.4,1,.9,1.4,1.4.4.6.7,1.2,1,1.8.3.7.4,1.4.6,2.1.1.7.2,1.5.2,2.2s0,1.6-.2,2.4c-1.6.1-3.1.3-4.7.5-1.6.2-3.1.4-4.7.7.2.7.6,1.2,1.1,1.6.5.4,1.1.6,1.8.6s.8,0,1.2-.2c.4-.1.9-.3,1.3-.5.4-.2.8-.4,1.2-.7.4-.2.7-.5,1-.6l-.7,6.3c-.4.3-.7.5-1.2.7-.4.2-.9.3-1.3.5-.5.1-.9.2-1.4.3-.5,0-.9,0-1.4,0-.9,0-1.7-.1-2.5-.4-.8-.2-1.4-.6-2-1-.6-.4-1.1-1-1.6-1.6s-.8-1.3-1.1-2c-.3-.7-.5-1.5-.7-2.3-.2-.8-.2-1.6-.2-2.4s0-1.7.2-2.6c.2-.9.4-1.7.7-2.5s.7-1.5,1.2-2.2c.5-.7,1-1.3,1.7-1.8.6-.5,1.4-.9,2.2-1.2.8-.3,1.7-.4,2.7-.4M8.3,11.1l4.1-.4v-.3c0-.3,0-.5,0-.8,0-.3-.1-.5-.3-.7-.1-.2-.3-.4-.5-.5-.2-.1-.5-.2-.8-.2s-.7,0-1,.3c-.3.2-.5.4-.7.7-.2.3-.4.6-.5,1-.1.3-.2.7-.3,1M16.1,14.8h0M10.7.3c-1.2,0-2.3.2-3.4.5-1,.4-1.9.9-2.8,1.5-.8.6-1.5,1.4-2.1,2.2-.6.8-1.1,1.7-1.4,2.6-.4.9-.6,1.9-.8,2.9C0,11,0,11.9,0,12.9s0,1.9.3,2.8c.2.9.5,1.8.8,2.7.4.9.8,1.7,1.4,2.4.6.8,1.3,1.4,2,2,.8.6,1.7,1,2.6,1.3,1,.3,2,.5,3.1.5s1.1,0,1.6,0c.6,0,1.1-.2,1.6-.3.6-.1,1.1-.3,1.6-.6.6-.3,1.1-.6,1.5-.9.4-.3.7-.8.8-1.4l.6-5.8c.9-.1,1.5-.8,1.7-1.7.1-.9.2-1.8.2-2.7s0-1.7-.2-2.6c-.1-.9-.4-1.7-.7-2.5-.3-.8-.7-1.6-1.2-2.3-.5-.7-1.1-1.3-1.8-1.9-.7-.5-1.5-.9-2.4-1.2-.9-.3-1.8-.4-2.9-.4Z"/>
  <g>
    <path class="st0" d="M18.4,22.9c-.3,0-.5-.1-.7-.3-.2-.2-.3-.5-.3-.8.2-3.2.4-6.5.5-9.7.2-3.2.3-6.4.4-9.7,0-.5.4-.9.9-1,0,0,6.5-.3,6.6-.3.3,0,.5.1.7.3.2.2.3.4.3.6,0,0,.2-.1.2-.1.4-.2.8-.4,1.3-.6.5-.1,1-.2,1.5-.2.9,0,1.7.2,2.5.5.7.3,1.3.7,1.8,1.3.5.5.9,1.1,1.2,1.8.3.7.6,1.4.8,2.1.2.7.3,1.5.4,2.3,0,.8.2,1.5.2,2.3,0,.7,0,1.4,0,2.1v1.8c0,1,0,2.1,0,3.1,0,1,0,2.1-.1,3.1,0,.5-.5,1-1,1s-8-.1-8-.1c-.3,0-.6-.1-.8-.4s-.3-.5-.2-.8c.3-1.6.5-3.2.7-4.8.2-1.6.3-3.2.3-4.8s0-.3,0-.5c0-.2,0-.5,0-.9,0-.3,0-.6-.1-1,0-.3-.1-.6-.2-.8,0,0,0-.1,0-.2,0,0-.1.2-.2.3-.1.2-.2.5-.3.8,0,.3-.1.6-.2,1,0,.3,0,.6,0,.9,0,.3,0,.5,0,.7,0,1.7,0,3.3-.1,4.9,0,1.6,0,3.2-.1,4.9,0,.5-.4.9-1,1,0,0-7.1.3-7.1.3Z"/>
    <path d="M29.9,2.1c.8,0,1.5.1,2.1.4.6.3,1.1.6,1.5,1,.4.4.8,1,1.1,1.6.3.6.5,1.2.7,1.9.2.7.3,1.4.4,2.1s.2,1.5.2,2.2c0,.7,0,1.4,0,2.1v1.8c0,1,0,2.1,0,3.1s0,2-.1,3.1h-7.9c.3-1.8.5-3.4.7-5,.2-1.6.3-3.3.3-4.9s0-.3,0-.6c0-.3,0-.6,0-.9,0-.3,0-.7-.1-1s-.1-.7-.2-1c0-.3-.2-.5-.3-.7-.1-.2-.3-.3-.4-.3-.3,0-.6,0-.8.3-.2.2-.4.4-.5.7-.1.3-.3.6-.3,1,0,.4-.1.7-.2,1.1,0,.4,0,.7,0,1,0,.3,0,.6,0,.8,0,1.6,0,3.2-.1,4.8,0,1.6,0,3.2-.1,4.9l-7,.3c.2-3.2.4-6.5.5-9.7.2-3.2.3-6.4.4-9.7l6.5-.3v2.2c.2-.3.5-.6.8-.9.3-.3.6-.5,1-.7.3-.2.7-.4,1.1-.5.4-.1.8-.2,1.2-.2M25.9,2.2h0M29.9.1c-.6,0-1.2,0-1.8.3-.3,0-.6.2-.9.3-.4-.3-.8-.6-1.4-.6h0s0,0,0,0c0,0,0,0,0,0,0,0,0,0,0,0l-6.5.3c-1,0-1.9.9-1.9,1.9-.1,3.2-.2,6.5-.4,9.6-.2,3.2-.3,6.4-.5,9.7,0,.6.2,1.1.6,1.5.4.4.9.6,1.4.6s0,0,0,0l7-.3c.5,0,.9-.2,1.2-.5.3.2.6.3,1,.3h7.9c0,.1,0,.1,0,.1,1.1,0,1.9-.8,2-1.9,0-1,0-2.1.1-3.1,0-1,0-2.1,0-3.1v-1.8c0-.7,0-1.4,0-2.2,0-.8-.1-1.6-.2-2.3-.1-.8-.3-1.6-.4-2.4-.2-.8-.5-1.6-.8-2.3-.4-.8-.9-1.5-1.4-2.1-.6-.6-1.3-1.1-2.2-1.5-.8-.4-1.8-.6-2.9-.6h0Z"/>
  </g>
  <g>
    <path class="st0" d="M78.5,23.1c-.4,0-.8-.3-.9-.7l-1.9-5.2h0s-.2,4.8-.2,4.8c0,.5-.5,1-1,1h-5.9c-.3,0-.5-.1-.7-.3s-.3-.5-.3-.7c0-2.1,0-4.2.1-6.3,0-2.1,0-4.2.1-6.3v-3.1c0-1.1.1-2.1.2-3.2,0-.4.3-.7.7-.9.7-.3,1.4-.5,2-.6s1.3-.3,2-.4c.7,0,1.3-.2,2-.2.7,0,1.3,0,2,0,1.1,0,2.3.2,3.3.5,1.1.3,2.1.8,2.9,1.5.9.7,1.6,1.5,2.1,2.5.5,1,.8,2.2.8,3.5s0,1.5-.2,2.2c-.1.7-.4,1.3-.7,1.9-.3.6-.7,1.1-1.2,1.6-.3.3-.6.5-.9.8l2.8,5.1c.2.3.2.6,0,.9-.1.3-.4.5-.7.6l-6.2,1.2c0,0-.1,0-.2,0ZM75.9,11c0,0,.2,0,.3,0,.3,0,.6-.2.8-.3.2-.1.4-.3.5-.5.1-.2.2-.4.2-.7s0-.5-.1-.8c0-.2-.2-.4-.3-.5-.1-.1-.2-.2-.4-.3-.2,0-.4-.1-.7-.1s0,0,0,0v3.2Z"/>
    <path d="M76.6,2c1,0,2.1.1,3,.4s1.8.7,2.6,1.3,1.4,1.3,1.8,2.2c.5.9.7,1.9.7,3s0,1.4-.2,2c-.1.6-.3,1.1-.6,1.6-.3.5-.6.9-1,1.4-.4.4-.9.8-1.5,1.2l3.3,5.9-6.2,1.2-2.1-5.9h-1.7c0,0-.2,5.8-.2,5.8h-5.9c0-2.1,0-4.2.1-6.3s0-4.2.1-6.3c0-1.1,0-2.1,0-3.1,0-1,0-2.1.1-3.1.6-.2,1.3-.4,1.9-.6.6-.2,1.3-.3,1.9-.4s1.3-.1,1.9-.2c.6,0,1.3,0,2,0M74.8,12h.3c.4,0,.8,0,1.2-.2.4-.1.8-.3,1.1-.5s.6-.5.8-.8c.2-.3.3-.7.3-1.2s0-.7-.2-1.1c-.1-.3-.3-.6-.5-.8-.2-.2-.5-.4-.8-.6-.3-.1-.7-.2-1.1-.2s-.4,0-.5,0c-.2,0-.3,0-.5.1l-.2,5.1M76.6,0c-.7,0-1.4,0-2.1,0-.7,0-1.4.1-2.1.2-.7,0-1.4.2-2.1.4-.7.2-1.4.4-2.1.7-.7.3-1.3,1-1.3,1.8,0,1.1,0,2.2-.1,3.2v3.1c-.1,2.1-.2,4.2-.2,6.3,0,2.1,0,4.2-.1,6.3,0,.5.2,1.1.6,1.4.4.4.9.6,1.4.6h5.9c1,0,1.9-.8,2-1.8l.2.6c.3.8,1.1,1.3,1.9,1.3s.3,0,.4,0l6.2-1.2c.6-.1,1.2-.5,1.4-1.1.3-.6.2-1.3,0-1.8l-2.4-4.3c.1-.1.2-.2.3-.3.6-.6,1-1.2,1.4-1.8.4-.7.6-1.4.8-2.2.2-.7.2-1.5.2-2.4,0-1.5-.3-2.8-.9-4-.6-1.1-1.4-2.1-2.4-2.8-.9-.7-2-1.3-3.3-1.6-1.2-.3-2.4-.5-3.6-.5h0Z"/>
  </g>
  <g>
    <g>
      <path class="st0" d="M23.3,44.8c-.5,0-1.1,0-1.7-.2-.6-.1-1.1-.3-1.7-.5-.6-.2-1.1-.4-1.7-.6-.5-.2-1-.4-1.4-.6-.4-.2-.6-.6-.6-1l.6-5.4c0-.3.2-.6.6-.8.1,0,.3-.1.4-.1s.4,0,.5.1c.5.3,1.1.6,1.7.8,0,0,0,0,0,0-.8-.3-1.5-.7-2-1.3-.6-.5-1-1.2-1.3-2-.3-.8-.5-1.6-.5-2.5s.3-2.4.8-3.4c.5-1,1.2-1.8,2-2.5.8-.7,1.8-1.2,2.8-1.6,1-.4,2.1-.5,3.3-.5s1,0,1.5,0c.5,0,1,0,1.5.2.5,0,1,.2,1.5.3.5.1,1,.3,1.4.5.4.2.6.6.6,1l-.5,5.6c0,.3-.2.6-.5.7-.2.1-.4.2-.5.2s0,0,0,0c.4.3.8.6,1.1.9.5.5.9,1.2,1.1,1.9.3.7.4,1.5.4,2.4,0,1.4-.3,2.6-.8,3.7-.5,1.1-1.2,1.9-2.1,2.6-.9.7-1.9,1.2-3,1.5-1.1.3-2.3.5-3.5.5ZM21.4,36.8c.6.1,1.3.2,1.9.2s.4,0,.6,0c0,0,0,0,0,0-.1,0-.3,0-.4,0-.2,0-.3,0-.5,0h-.4c-.4,0-.8,0-1.2,0Z"/>
      <path d="M25.1,23.7c.5,0,.9,0,1.4,0,.5,0,1,0,1.4.2.5,0,.9.2,1.4.3.5.1.9.3,1.3.5l-.5,5.6c-.6-.2-1.3-.4-2-.5-.7-.1-1.4-.2-2-.2s-.3,0-.5,0c-.2,0-.4,0-.6,0-.2,0-.4,0-.6.1-.2,0-.4.1-.6.2-.2,0-.3.2-.4.3-.1.1-.1.3-.1.5,0,.2,0,.4.2.5.1.1.3.2.6.2.2,0,.5,0,.7,0s.5,0,.8,0c.3,0,.5,0,.7,0,.1,0,.3,0,.4,0s.1,0,.2,0c.7,0,1.4.2,2,.5.6.3,1.1.6,1.5,1.1.4.4.7,1,.9,1.6.2.6.3,1.3.3,2,0,1.3-.2,2.3-.7,3.3-.4.9-1,1.7-1.8,2.3-.8.6-1.6,1-2.7,1.3-1,.3-2.1.4-3.3.4s-.9,0-1.5-.2c-.5-.1-1.1-.3-1.6-.4-.6-.2-1.1-.4-1.6-.6-.5-.2-1-.4-1.4-.6l.6-5.4c.8.5,1.6.8,2.6,1.1,1,.2,1.9.4,2.8.4s.4,0,.6,0c.2,0,.5,0,.7-.1.2,0,.4-.2.6-.3.2-.1.2-.3.2-.6s0-.3-.2-.4c-.1-.1-.3-.2-.4-.3-.2,0-.4-.1-.6-.2-.2,0-.4,0-.6,0-.2,0-.4,0-.6,0h-.4c-.8,0-1.5-.1-2.2-.4s-1.2-.6-1.7-1.1c-.5-.5-.8-1-1.1-1.7-.3-.6-.4-1.4-.4-2.2s.2-2.1.7-2.9c.4-.9,1-1.6,1.8-2.2.7-.6,1.6-1.1,2.5-1.4.9-.3,1.9-.5,2.9-.5M25.1,21.7c-1.2,0-2.4.2-3.6.6-1.2.4-2.2,1-3.1,1.7-.9.8-1.7,1.7-2.3,2.8-.6,1.1-.9,2.4-.9,3.8s.2,2,.5,2.9c.2.5.5,1,.8,1.5-.4.3-.6.8-.7,1.3l-.6,5.4c0,.9.4,1.7,1.1,2,.4.2.9.4,1.5.6.6.2,1.1.4,1.7.6.6.2,1.2.4,1.8.5.7.2,1.3.2,1.9.2,1.3,0,2.6-.2,3.8-.5,1.3-.3,2.4-.9,3.4-1.7,1-.8,1.8-1.8,2.4-3,.6-1.2.9-2.6.9-4.1s-.1-1.9-.4-2.7c-.3-.9-.8-1.6-1.4-2.3,0,0-.1-.1-.2-.2.2-.3.3-.6.3-.9l.5-5.6c0-.8-.4-1.6-1.1-2-.5-.2-1-.4-1.6-.6-.5-.1-1.1-.3-1.6-.4-.5,0-1.1-.2-1.6-.2-.5,0-1,0-1.5,0h0Z"/>
    </g>
    <g>
      <path class="st0" d="M33,44.3c-.3,0-.5,0-.7-.3-.2-.2-.3-.4-.3-.7l-.6-18.7c0-.5.4-1,.9-1,0,0,7.4-.4,7.4-.4.3,0,.5.1.7.3.2.2.3.5.3.8l-1,18.8c0,.5-.4.9-.9.9,0,0-5.9.3-5.9.3Z"/>
      <path d="M39.8,24.2l-1,18.8-5.8.3-.6-18.7,7.3-.4M39.8,22.2s0,0-.1,0l-7.3.4c-1.1,0-1.9,1-1.9,2.1l.6,18.7c0,.5.2,1,.6,1.4.4.3.9.5,1.4.5s0,0,.1,0l5.8-.3c1,0,1.8-.9,1.9-1.9l1-18.8c0-.6-.2-1.1-.6-1.5-.4-.4-.9-.6-1.4-.6h0ZM39.8,26.2h0,0Z"/>
    </g>
    <g>
      <path class="st0" d="M63.8,44.9c-1,0-2-.1-2.8-.4-.8-.3-1.6-.7-2.3-1.2-.7-.5-1.3-1.1-1.8-1.8-.5-.7-.9-1.4-1.3-2.2-.3-.8-.6-1.6-.8-2.5-.2-.9-.3-1.7-.3-2.6s0-1.8.3-2.7c.2-.9.4-1.8.8-2.7.3-.9.8-1.7,1.3-2.4.5-.7,1.2-1.4,1.9-2,.7-.6,1.6-1,2.5-1.3.9-.3,1.9-.5,3-.5s1.8.1,2.6.4c.8.3,1.5.6,2.1,1.1.6.5,1.1,1,1.6,1.6.4.6.8,1.3,1.1,2,.3.7.5,1.5.6,2.3.1.8.2,1.6.2,2.4s0,1.7-.2,2.5c0,.5-.5.8-.9.9-.2,0-.5,0-.7,0,0,.1,0,.2,0,.4l-.7,6.3c0,.3-.2.5-.4.7-.4.3-.9.6-1.4.8-.5.2-1,.4-1.5.5-.5.1-1,.2-1.5.3-.5,0-1,0-1.5,0ZM63.7,36.8c.3.3.7.4,1.2.4s.6,0,.9-.2c.4-.1.8-.3,1.2-.5.2-.1.5-.2.7-.4-.3,0-.6,0-.9.1-1,.2-2.1.3-3.1.4,0,0,0,0,0,0ZM64.3,30.4c-.2,0-.3,0-.4.1-.2.1-.3.3-.5.5,0,0,0,.2-.1.2h1.5c0-.3,0-.5-.2-.6,0,0-.1-.2-.2-.2,0,0,0,0-.2,0Z"/>
      <path d="M64.3,23.6c.8,0,1.6.1,2.2.3.7.2,1.3.5,1.8.9.5.4,1,.9,1.4,1.4.4.6.7,1.2,1,1.8.3.7.4,1.4.6,2.1.1.7.2,1.5.2,2.2s0,1.6-.2,2.4c-1.6.1-3.1.3-4.7.5-1.6.2-3.1.4-4.7.7.2.7.6,1.2,1.1,1.6.5.4,1.1.6,1.8.6s.8,0,1.2-.2c.4-.1.9-.3,1.3-.5.4-.2.8-.4,1.2-.7.4-.2.7-.5,1-.6l-.7,6.3c-.4.3-.7.5-1.2.7-.4.2-.9.3-1.3.5-.5.1-.9.2-1.4.3-.5,0-.9,0-1.4,0-.9,0-1.7-.1-2.5-.4-.8-.2-1.4-.6-2-1-.6-.4-1.1-1-1.6-1.6s-.8-1.3-1.1-2c-.3-.7-.5-1.5-.7-2.3-.2-.8-.2-1.6-.2-2.4s0-1.7.2-2.6c.2-.9.4-1.7.7-2.5.3-.8.7-1.5,1.2-2.2.5-.7,1-1.3,1.7-1.8.6-.5,1.4-.9,2.2-1.2.8-.3,1.7-.4,2.7-.4M61.9,32.4l4.1-.4v-.3c0-.3,0-.5,0-.8,0-.3-.1-.5-.3-.7-.1-.2-.3-.4-.5-.5-.2-.1-.5-.2-.8-.2s-.7,0-1,.3-.5.4-.7.7-.4.6-.5,1c-.1.3-.2.7-.3,1M69.7,36.1h0M64.3,21.6c-1.2,0-2.3.2-3.4.5-1,.4-1.9.9-2.8,1.5-.8.6-1.5,1.4-2.1,2.2-.6.8-1.1,1.7-1.4,2.6-.4.9-.6,1.9-.8,2.9-.2,1-.3,2-.3,2.9s0,1.9.3,2.8c.2.9.5,1.8.8,2.7.4.9.8,1.7,1.4,2.4.6.8,1.3,1.4,2,2,.8.6,1.7,1,2.6,1.3,1,.3,2,.5,3.1.5s1.1,0,1.6,0c.6,0,1.1-.2,1.6-.3.6-.1,1.1-.3,1.6-.6.6-.3,1.1-.6,1.5-.9.4-.3.7-.8.8-1.4l.6-5.8c.9-.1,1.5-.8,1.7-1.7.1-.9.2-1.8.2-2.7s0-1.7-.2-2.6c-.1-.9-.4-1.7-.7-2.5-.3-.8-.7-1.6-1.2-2.3-.5-.7-1.1-1.3-1.8-1.9-.7-.5-1.5-.9-2.4-1.2-.9-.3-1.8-.4-2.9-.4h0Z"/>
    </g>
  </g>
  <path class="st0" d="M67.7,11.1c0-.8,0-1.5-.2-2.2-.1-.7-.3-1.4-.6-2.1-.3-.7-.6-1.3-1-1.8-.4-.6-.9-1-1.4-1.4-.5-.4-1.1-.7-1.8-.9-.7-.2-1.4-.3-2.2-.3s-1.9.1-2.7.4c-.8.3-1.5.7-2.2,1.2-.6.5-1.2,1.1-1.7,1.8s-.9,1.4-1.2,2.2c-.3.8-.6,1.6-.7,2.5-.2.9-.2,1.7-.2,2.6s0,1.6.2,2.4.4,1.6.7,2.3c.3.7.7,1.4,1.1,2,.5.6,1,1.1,1.6,1.6.6.4,1.3.8,2,1s1.6.4,2.5.4.9,0,1.4,0,.9-.1,1.4-.3c.5-.1.9-.3,1.3-.5s.8-.4,1.2-.7l.7-6.3c-.3.2-.6.4-1,.6-.4.2-.8.5-1.2.7s-.9.4-1.3.5c-.4.1-.8.2-1.2.2-.7,0-1.3-.2-1.8-.6-.5-.4-.9-.9-1.1-1.6,1.6-.2,3.1-.4,4.7-.7,1.6-.2,3.1-.4,4.7-.5.1-.8.2-1.6.2-2.4ZM62.2,10.7l-4.1.4c0-.3.2-.6.3-1,.1-.3.3-.7.5-1,.2-.3.4-.5.7-.7.3-.2.6-.3,1-.3s.6,0,.8.2c.2.1.4.3.5.5.1.2.2.5.3.7,0,.3,0,.5,0,.8v.3Z"/>
  <polygon class="st0" points="47 21.6 47.5 8.8 51.7 8.7 51.8 2.8 36.8 2.8 36.6 9.4 40.7 9.1 41.2 21.9 47 21.6"/>
  <path class="st0" d="M17.9,11.1c0-.8,0-1.5-.2-2.2-.1-.7-.3-1.4-.6-2.1-.3-.7-.6-1.3-1-1.8-.4-.6-.9-1-1.4-1.4-.5-.4-1.1-.7-1.8-.9-.7-.2-1.4-.3-2.2-.3s-1.9.1-2.7.4c-.8.3-1.5.7-2.2,1.2-.6.5-1.2,1.1-1.7,1.8s-.9,1.4-1.2,2.2c-.3.8-.6,1.6-.7,2.5-.2.9-.2,1.7-.2,2.6s0,1.6.2,2.4.4,1.6.7,2.3c.3.7.7,1.4,1.1,2,.5.6,1,1.1,1.6,1.6.6.4,1.3.8,2,1s1.6.4,2.5.4.9,0,1.4,0,.9-.1,1.4-.3c.5-.1.9-.3,1.3-.5s.8-.4,1.2-.7l.7-6.3c-.3.2-.6.4-1,.6-.4.2-.8.5-1.2.7s-.9.4-1.3.5c-.4.1-.8.2-1.2.2-.7,0-1.3-.2-1.8-.6-.5-.4-.9-.9-1.1-1.6,1.6-.2,3.1-.4,4.7-.7,1.6-.2,3.1-.4,4.7-.5.1-.8.2-1.6.2-2.4ZM12.4,10.7l-4.1.4c0-.3.2-.6.3-1,.1-.3.3-.7.5-1,.2-.3.4-.5.7-.7.3-.2.6-.3,1-.3s.6,0,.8.2c.2.1.4.3.5.5.1.2.2.5.3.7,0,.3,0,.5,0,.8v.3Z"/>
  <polygon class="st0" points="50.8 43 51.3 30.2 55.4 30 55.5 24.1 40.5 24.2 40.3 30.7 44.5 30.5 45 43.3 50.8 43"/>
  <path class="st0" d="M31.7,36.5c0,1.3-.2,2.3-.7,3.3s-1,1.7-1.8,2.3-1.6,1-2.7,1.3-2.1.4-3.3.4-.9,0-1.5-.2-1.1-.3-1.6-.4-1.1-.4-1.6-.6-1-.4-1.4-.6l.6-5.4c.8.5,1.6.8,2.6,1.1s1.9.4,2.8.4.4,0,.6,0,.5,0,.7-.1.4-.2.6-.3.2-.3.2-.6,0-.3-.2-.4-.3-.2-.4-.3-.4-.1-.6-.2-.4,0-.6,0-.4,0-.6,0h-.4c-.8,0-1.5-.1-2.2-.4s-1.2-.6-1.7-1.1-.8-1-1.1-1.7-.4-1.4-.4-2.2.2-2.1.7-2.9,1-1.6,1.8-2.2,1.6-1.1,2.5-1.4,1.9-.5,2.9-.5.9,0,1.4,0,1,0,1.4.2.9.2,1.4.3.9.3,1.3.5l-.5,5.6c-.6-.2-1.3-.4-2-.5s-1.4-.2-2-.2-.3,0-.5,0-.4,0-.6,0-.4,0-.6.1-.4.1-.6.2-.3.2-.4.3-.1.3-.1.5c0,.2,0,.4.2.5s.3.2.6.2.5,0,.7,0,.5,0,.8,0,.5,0,.7,0,.4,0,.6,0c.7,0,1.4.2,2,.5s1.1.6,1.5,1.1.7,1,.9,1.6.3,1.3.3,2Z"/>
</svg>