<?xml version="1.0" encoding="UTF-8"?>
<svg id="Layer_1" xmlns="http://www.w3.org/2000/svg" version="1.1" viewBox="0 0 217.1 215.6">
  <!-- Generator: Adobe Illustrator 29.7.0, SVG Export Plug-In . SVG Version: 2.1.1 Build 138)  -->
  <defs>
    <style>
      .st0 {
        fill: #141544;
      }
    </style>
  </defs>
  <path class="st0" d="M187.1,18.8c-3,3.2-12.2,3.2-16.7,4-17,3.2-33,11.3-43.9,24.8-.9,1.1-5.6,7-5,8.1,4.5,3.2,8.8,7.3,11.8,11.9,3.5,5.4,5.3,6.6,9.4,11.2s9.5,12.1,12.2,18.9c2.9,7.4,6.5,19.1-2.6,23.4-14.2,2.1-29.4,6.9-43.6,8.4s-3.9,0-5.8,0l-.5.8c4.6,10.5,9.2,21,14,31.4,4.6,10,11.4,21.5,15.1,31.5,1.5,4.1,1.8,7,0,11.1-3,7.1-13,11-19.6,6.4s-9.8-17-12.1-21.8c-6.8-14.2-13-28.6-19.6-42.9-5,10.8-9.7,21.9-13.9,33-3.5,9.1-6.4,20.2-10.3,28.7-6.4,14-25.1,6.1-25.1-6.6,0-4.7,5.7-18.7,7.6-23.9,10-27.4,22.5-54.1,34.7-80.6C88.7,63,109.7,22.5,145.7,7.8c7.8-3.2,25.7-8.3,33.6-7.2s13.4,12.1,7.7,18.2ZM133.6,103.2c-.6-1.9-7.6-12.1-9-11.7l-11.5,15.5,20.6-3.8Z"/>
  <path class="st0" d="M151.1,36.7c25.4-3.7,29.2,34.1,4.9,36.3-23.8,2.2-26.8-33.2-4.9-36.3Z"/>
</svg>