<?xml version="1.0" encoding="UTF-8"?>
<svg id="Layer_1" xmlns="http://www.w3.org/2000/svg" version="1.1" viewBox="0 0 217.1 211.5">
  <!-- Generator: Adobe Illustrator 29.7.0, SVG Export Plug-In . SVG Version: 2.1.1 Build 138)  -->
  <defs>
    <style>
      .st0 {
        fill: #fff;
      }
    </style>
  </defs>
  <path class="st0" d="M161.3,208l.4-2.9-108.9-17.3c-4-.6-7.4-2.8-9.6-5.9-2.2-3.1-3.3-6.9-2.6-11L64.6,20.4c.6-4,2.8-7.4,5.9-9.6s6.9-3.3,11-2.6l108.9,17.3c4,.6,7.4,2.8,9.6,5.9,2.2,3.1,3.3,6.9,2.6,11l-23.8,150.5c-.6,4-2.8,7.4-5.9,9.6-3.1,2.2-6.9,3.3-11,2.6l-.4,2.9-.4,2.9c11.3,1.8,21.9-5.9,23.6-17.2l23.8-150.5c1.8-11.3-5.9-21.8-17.2-23.6L82.4,2.3c-11.3-1.8-21.9,5.9-23.6,17.2l-23.8,150.5c-1.8,11.3,5.9,21.8,17.2,23.6l108.9,17.3.4-2.9h-.1Z"/>
  <path class="st0" d="M79.9,161.3c5.3,1.5,11.2-1.9,16.3-3.8,13.6-4.9,26.6-11.4,40.4-15.8l2.4-3.1-38.4-45-2.3-1.2-3,1-4.3,17.8c-13.7-3.2-27.6-6.9-40.7-12-28.1-11.1-31.6-20.1-5.4-27l2.8-11.5c-25.4,4.3-62.8,17.4-34.5,45.5,18.7,18.6,46.8,28.8,70.3,39.9l-3.7,15.3Z"/>
  <path class="st0" d="M30.4.9c8.5-.4,17,3.4,22.4,10s3.5,7,7.2,8l98.8.3c4.8-1,5.7-5.6,8.5-8.9,22.5-25.9,64.7,6.4,40.6,36.5-1,1.3-2.9,2.2-3,3.9s2,3.1,3.2,4.6c22,27.9-13.7,60.1-38.3,38.8s-5.3-8.4-9.6-11c-32.9-1-66.1-.2-99.2-.4-4.7.6-5.6,4.9-8.1,8-21.5,26.8-62.6-3.6-44-32s6-6,5.9-7.9-4.6-5.5-5.9-7.5C-2.3,25.6,9.6,1.9,30.4.9ZM80.6,47.5c1.6,1.6,7.8,1,10,.4,10.5-3,9.5-21.7-1.2-23.2s-8.3-.6-9.1,1.3c0,3-.9,20.2.3,21.5ZM102.7,45.6c5.1,5.2,14.6,2.3,15.4-5.1.4-3.5.5-9.2-1.6-12.1-4.8-6.5-15.2-3.9-16.2,3.9-.5,4-.6,10.3,2.4,13.3ZM137.8,32.3c2.9-2.9-2.6-7.2-5.7-7.7-10.1-1.3-11.8,8.4-10.7,16.2,1.3,9.1,16.4,10.3,18.1-.6,1-6-2.5-6.8-7.8-6s-3.5,4.2-1.2,5.2,3.4-.3,3.2.9c-.8,3.2-6,2.6-6.8-.1s-.4-8,1-9.3c4.2-3.7,6.7,4.4,9.8,1.3ZM78.2,68.7c12.4,2,15.7-14.6,2.1-15.6s-6.9-.4-7.5,1.7v20.5c5,5.3,6-2.4,5.4-6.6ZM116.8,68.7c4.3-.4,4.6,10.5,9.6,8s-1-7.2-2.3-9.2c4.6-2.9,5.1-9.7.4-12.8s-12.7-3.3-13.3,1.3-.4,16.3.1,18.8c.8,3.7,5.4,1.8,5.4.6v-6.7ZM137.5,70.1c1.9,3.1,7.7,11.4,9.6,3.9-.1-1.8-7.8-9.1-7.8-9.7,1.7-2.3,11.6-8,6.1-10.7s-5.7,3.7-8.1,5c.1-3.7-1.3-6.6-5.3-4.3l-.3,21c4.7,4.6,5.2,0,5.4-4s-.3-1.3.5-1.1ZM107.5,76.4c.4-.4.6-1.4.6-2,0-2.1-5.7-15.6-7-18.3s-1.7-3.7-4.5-2.4-1.1,1.5-1.5,2.2c-2,4-5.7,12.5-6.8,16.6s0,4.9,3,4.4,2.2-3.4,2.6-3.6,6.2-.2,7.1,0c2.7.3,1.9,5.7,6.5,3.1Z"/>
  <polygon class="st0" points="187.5 106.4 187.5 190.4 178.3 190.4 178.3 105 187.5 106.4"/>
  <path class="st0" d="M41,105v85.4h-8.7v-83.8c2.4-1.2,5.9-.7,8.7-1.6Z"/>
  <path class="st0" d="M201.3,211.1h-36.7c1-3.3,1.8-10.5,3.6-13.2s3.1-1.8,4.9-2c5.2-.4,15.6-.5,20.7,0,3.8.4,3.9,1.6,4.9,4.7s1.9,7,2.6,10.5Z"/>
  <path class="st0" d="M55.3,211.1H18.1c1.5-2.9,2.4-13,5.1-14.4s2.4-.7,3.4-.7c5.3-.4,14.4-.4,19.8,0s2.5.1,3.5.6c3.2,1.4,3.9,11.4,5.4,14.6Z"/>
  <path class="st0" d="M121.7,62.6l-4.9.6.2-4.2c1.5-1.1,5.1-.3,5.3,1.6l-.6,1.9Z"/>
  <path class="st0" d="M85.6,43v-12.9c9.4-1.7,9.4,14.1,0,12.9Z"/>
  <path class="st0" d="M106.8,42c-1.4-1.2-1.4-7.8-.8-9.5.9-2.8,4.8-3.2,6.2-.7s.7,7.6.2,9c-.7,2-4.1,2.4-5.6,1.2Z"/>
  <polygon class="st0" points="99.8 67.8 96.6 67.8 98.2 63.7 99.8 67.8"/>
  <path class="st0" d="M78.2,63.2v-4.6c7.1-.9,7.2,5.7,0,4.6Z"/>
</svg>