<?xml version="1.0" encoding="UTF-8"?>
<svg id="Layer_1" xmlns="http://www.w3.org/2000/svg" version="1.1" viewBox="0 0 720 720">
  <!-- Generator: Adobe Illustrator 29.7.0, SVG Export Plug-In . SVG Version: 2.1.1 Build 138)  -->
  <path d="M383.8,720.7h-11.3c-7.5-1.8-21.3-14.4-21.3-22v-222c-4.2-1.2-13.9-3.6-16.3,1.4l-.8,219c-2.2,11.9-10.5,18.9-21.1,23.5h-11.3c-15-5.6-21.5-16.1-22.7-31.9v-398.6c0-2.1-1.5-3-2.7-4.4-16.6-18-45.1-31.4-59.7-52.4-9.7-31.1-33.3-67.2-41.2-97.8-8.7-33.7,31-49.4,48.1-23.9,2.1,3.2,5.9,15.5,8.2,16l59.7-33.6,96.9.3,58.8,33.3c1.1,0,6.3-13.5,8-16,17.2-25.2,56.7-9.8,48.1,23.9-7.8,30.5-31.6,66.8-41.2,97.8-8,13.6-53.9,43.8-55.3,51.1v407c-1.5,14.6-9.3,23.9-22.7,29.1ZM433.4,160.6l-56.2-31.1c-26.3.5-54.2-2.7-79.9,1.7l-52.1,31.2c6.6,11.6,10.4,31.4,17.5,41.8,7,10.4,29.7,22,38.4,32.5,2.1,1.6,4.4,1.4,6.8,1.7,15.6,1.4,47,1.4,62.5,0,3.4-.3,4.7-.3,7.7-2.3,4.3-2.7,34.8-28,37-31.1,2-2.8,19.7-42.5,18.3-44.5Z"/>
  <path d="M.9,553.3c3.1-7.6,7.1-9.8,13.8-13.9,23.8-14.6,53.3-29.3,78.4-42.1,4.9-2.5,10.3-6,15.6-6.4v73l2.1,2.1h113.5c4,0,20.1-14.6,23.4-11.3,0,8.3-1.2,21.5-7,27.7-3.1,3.3-9.1,3.3-9.9,8.5l-.6,114.2c-5.5,13.5-21.1,18.9-32.7,8.4-1.6-1.4-6.4-7.9-6.4-9.2v-41.1c0-.3-2.3-2.5-2.8-2.1-3.1,8.8-7.9,17-12.5,25.1-4.3,7.3-16.3,29.6-23.9,31.4-11.1,2.6-22.3-4.5-22.6-16.2-.4-13.9,27.1-43.5,30.7-58.6h-61c-.7,2.6-1.3,5-1.5,7.7-1.2,14.7,3.1,45.7-.6,57.6-4.6,15-28,15.1-33.5-.7-2.8-8.1-1.6-28.7-1.4-38.4,0-3.4,1.5-6.5,1.5-9.8.3-27.8-.2-55.7-.3-83.5-.9-2.8-4.9-3.5-7.5-3.8-18.4-2.1-46.9,8.1-54.6-14.2v-4.3Z"/>
  <path d="M523.5,527.8c-1.4-.4-2.6-3-1.9-4.6l26.7-103.2c-44.9-2-46.8-51.1-44-85.9.6-7.6,2-14,7.3-19.7,4.2-4.4,36.8-30.6,41.4-32.4,9.5-3.8,48.5-3.7,60-2.6,10.5,1,10.7,12.8,18.4,14.2,12.7,2.4,33-1.4,46.8,0,14.5,1.4,20.9,14.1,24.3,26.7,7,25.3,10.1,54.2,15.7,80-3,18.7-22.4,20.8-38,19.5l17,106.4-28.4,1.4v167.1c0,.5-2.1,7.7-2.5,8.8-8.1,19.8-38.6,20.2-45-1l-.7-170-1.6-6.2-11.9,1.1-1.2,173.6c-9.5,27.3-46.9,20.2-47.7-7.8v-165.7c0,0-34.7,0-34.7,0Z"/>
  <path d="M606.1,176.3c70.6-11.9,71.8,95,5.3,89-51.6-4.7-52.5-81-5.3-89Z"/>
  <path d="M369.1,13.4c35.7,37.7-20.3,92.9-56.8,56.1-37.2-37.5,21-93.9,56.8-56.1Z"/>
  <path d="M508.3,237.3c38.6-6.5,45.4,51.7,9.5,56.3-37.7,4.8-43.8-50.5-9.5-56.3Z"/>
  <path d="M338.1,138.1c59.7-1.5,60.7,90.5,1,90.5-58.3,0-59.6-89-1-90.5Z"/>
</svg>