<svg xmlns="http://www.w3.org/2000/svg" xmlns:xlink="http://www.w3.org/1999/xlink" width="217.12" height="211.491" viewBox="0 0 217.12 211.491">
  <defs>
    <clipPath id="clip-path">
      <rect id="Rectangle_841" data-name="Rectangle 841" width="217.12" height="211.491" fill="#fff"/>
    </clipPath>
  </defs>
  <g id="Group_1630" data-name="Group 1630" transform="translate(0 0)">
    <g id="Group_1629" data-name="Group 1629" transform="translate(0 0)" clip-path="url(#clip-path)">
      <path id="Path_77691" data-name="Path 77691" d="M215.155,42.178c-1.914-2.908-4.984-4.967-8.714-6.962s-8.189-3.924-12.986-6.446C177.083,20.164,160.4,11.418,144.2,2.26l-.109-.062-.119-.034a24.776,24.776,0,0,0-6.864-1.084,14.636,14.636,0,0,0-7.184,1.76,17.287,17.287,0,0,0-5.9,5.61c-.13.186-.248.384-.369.572l-.5-.717A5.955,5.955,0,0,0,121.3,6.557a13,13,0,0,0-2.08-.95,98.879,98.879,0,0,0-12.126-3.3,125.644,125.644,0,0,0-12.38-2.2Q93.582,0,92.521,0A14.419,14.419,0,0,0,82.046,4.026a22.925,22.925,0,0,0-5.537,10.088C65.7,50.561,61.381,91.605,52.407,128.508l-.028.115,0,.122,0,.316a20.946,20.946,0,0,0,1.095,6.8,10.192,10.192,0,0,0,4.24,5.588,7.124,7.124,0,0,0,1.8.655c.939.233,1.937.42,2.6.659a2.209,2.209,0,0,1,.6.3,22.223,22.223,0,0,1-1.342,2.354,43.489,43.489,0,0,1-3.9,5.249,15.3,15.3,0,0,1-1.929,1.878,2.523,2.523,0,0,1-1.05.576,3.017,3.017,0,0,1-1.048-.395,15.041,15.041,0,0,1-2.6-1.844,12.387,12.387,0,0,1-1.046-1.018,3.319,3.319,0,0,1-.5-.668,21.84,21.84,0,0,1-1.376-7.095c-.211-2.968-.222-6.294-.222-9.339v-.781c0-2.351,0-4.492-.115-6.16-2.125-31.974-4.634-64.36-5.827-96.3-.028-.725-.051-1.438-.051-2.136,0-2.81.352-5.281,2-7.442a7.916,7.916,0,0,1,.913-.86c.713-.606,1.688-1.349,2.541-1.944.427-.3.828-.557,1.139-.74l.386-.211.1-.045.006,0a39.4,39.4,0,0,1,7.261-.472c6.13,0,13.795.5,18.036.5a1.756,1.756,0,0,0,1.2-.51,3.56,3.56,0,0,0,.864-1.4,5.16,5.16,0,0,0,.307-1.735A3.79,3.79,0,0,0,76,10.635,2.986,2.986,0,0,0,74.29,9.258,12.975,12.975,0,0,0,70.4,8.768c-4.116.006-9.141,1.05-12,1.139l-.073,0a6.244,6.244,0,0,1-1.7-.369,7.99,7.99,0,0,0-2.3-.461h-.032c-6.1.045-11.038,1.786-14.439,5.138S34.69,22.443,34.7,28.441c0,.363,0,.73.019,1.1,1.056,30.948,4.308,62.209,5.793,93.1.051,1.127.075,2.275.075,3.435,0,3.862-.237,7.888-.237,11.906a47.1,47.1,0,0,0,1.383,12.546,5.953,5.953,0,0,0,1.329,2.142,5.228,5.228,0,0,1,.493.659l.111.267-.009.011a17.687,17.687,0,0,1-3.5-6.743c-.877-2.874-1.453-6-2.531-8.974C29.872,116.508,22.78,95.034,15.777,73.27c-1.406-4.361-3.591-9.1-5.407-13.79s-3.258-9.3-3.252-13.263a11.269,11.269,0,0,1,2.289-7.229c1.632-2.072,4.312-3.866,8.539-5.17a32.223,32.223,0,0,1,3.523-.7,43.95,43.95,0,0,0,7.071-1.583,9.135,9.135,0,0,0,2.887-1.547A3.655,3.655,0,0,0,32.8,27.2a3.954,3.954,0,0,0-.2-1.22l-.141-.448-3.48-1.583-.442.2c-3.017,1.37-7.972,2.328-12.773,3.546C10.952,28.94,6.243,30.4,3.45,33.259a12.543,12.543,0,0,0-2.682,5.8A32.235,32.235,0,0,0,0,46.112a22.744,22.744,0,0,0,.312,4l.015.081.03.077c11.5,32.815,21.988,66.018,32.712,99.1a15.689,15.689,0,0,0,1.666,3.271,9.818,9.818,0,0,1,1.3,2.729,7.086,7.086,0,0,1,.169,1.611,26.629,26.629,0,0,1-1.02,6,40.87,40.87,0,0,0-1.289,6.551q-.09,1.277-.087,2.535c.03,13.46,7.259,25.182,10.2,37.524l.092.388.324.23a5.281,5.281,0,0,0,2.9,1.142,2.47,2.47,0,0,0,1.841-.792,3.86,3.86,0,0,0,.875-2.055l.021-.16-.021-.162c-.945-6.228-3.331-12.307-5.443-18.337s-3.96-12-3.958-17.947a26.662,26.662,0,0,1,.5-5.194c.621-3.143,1.319-4.927,1.984-5.774a2.311,2.311,0,0,1,.967-.783,3.352,3.352,0,0,1,1.3-.207c1.317-.011,3.277.437,5.827.444a19.723,19.723,0,0,0,3.068-.237,14.593,14.593,0,0,0,10.413-6.6c2.193-3.2,3.632-6.939,5.791-10.372,3.636-5.808,8.149-14.518,11.917-19.434,3.134-4.082,6.267-5.567,8.817-5.565a6.641,6.641,0,0,1,5.157,2.524,10.072,10.072,0,0,1,2.164,6.455,14.849,14.849,0,0,1-3.3,8.994l-.043.055L77.93,166.29l-.034.164a7.841,7.841,0,0,0-.164,1.63c.013,2.573,1.09,5.029,2.083,7.464s1.931,4.833,1.922,7.105l0,.107a23.456,23.456,0,0,1-2.2,8.808,80.008,80.008,0,0,0-3.553,8.966l-.077.282.073.284a4.11,4.11,0,0,0,.834,1.7,2.158,2.158,0,0,0,1.615.74,3.054,3.054,0,0,0,1.681-.587,11.045,11.045,0,0,0,2.422-2.464,40.051,40.051,0,0,0,3.177-5.029c.444-.817.828-1.579,1.124-2.213a13.766,13.766,0,0,0,.632-1.5,31.662,31.662,0,0,0,1.355-9.218,27.25,27.25,0,0,0-.166-3.079A20.353,20.353,0,0,0,86.44,173.3c-.465-.947-.9-1.829-1.218-2.565a4.87,4.87,0,0,1-.465-1.547v-.028c.03-.087.22-.531.5-1.1,1.084-2.2,3.546-6.711,5.885-10.886,1.167-2.089,2.309-4.1,3.233-5.7s1.639-2.814,1.92-3.241a19.044,19.044,0,0,1,1.073-1.639l.329-.079,36.6,18.459c-.3,9.117-.764,21.083-4.688,28.886a9.194,9.194,0,0,1-.533.813c-1,1.4-3,3.9-4.765,6.48a34.041,34.041,0,0,0-2.324,3.86,8.485,8.485,0,0,0-1.063,3.563,2.747,2.747,0,0,0,.92,2.159,3.786,3.786,0,0,0,2.5.755h0a3.451,3.451,0,0,0,2.129-.975,21.911,21.911,0,0,0,3.469-4.184,93.8,93.8,0,0,0,5.236-8.906,57.777,57.777,0,0,0,3.122-6.74,51.493,51.493,0,0,0,1.826-11.177,38.348,38.348,0,0,1,1.937-9.911c2.245.237,4.112.525,5.96.529a13.737,13.737,0,0,0,8.1-2.665c4.824-3.218,7.5-8.283,10.093-12.858,15.659-27.717,32.177-61.208,46.2-89.845,3.228-6.6,4.7-11.576,4.711-15.625a12.372,12.372,0,0,0-1.967-6.956m-59.2,116.848c-2.994,3.2-5.5,4.235-8.112,4.25-3.145.017-6.679-1.671-10.987-3.794-4.969-2.43-10.541-6.158-15.444-9.145l-.055-.032-20.384-9.25a1.654,1.654,0,0,1-.16-.649,4.277,4.277,0,0,1,.994-2.238,13.6,13.6,0,0,0,1.752-2.763c1.176-3.173,2.089-5.9,2.1-8.849a15.5,15.5,0,0,0-1.575-6.623,15.045,15.045,0,0,0-5.381-6.527,12.826,12.826,0,0,0-7.069-2.027c-5.917.023-12.017,3.5-15.965,8.627.019-.079.034-.162.051-.226,1.037-4.09,4.342-11.209,7.94-18.335,3.6-7.144,7.489-14.349,9.755-18.884C101.632,66.139,110.869,50,119.442,33.628c1.438-2.753,3.512-7.752,5.7-12.506,1.092-2.373,2.206-4.677,3.262-6.574a17.691,17.691,0,0,1,2.814-4.06,8.293,8.293,0,0,1,5.831-2.516A19.217,19.217,0,0,1,144.132,9.9c10.908,4.556,24.329,13.161,35.326,18.93,3.282,1.718,9.546,4.427,15.478,7.31,2.959,1.438,5.829,2.917,8.168,4.314A19.579,19.579,0,0,1,208,44.162a8.941,8.941,0,0,1,1.9,5.731c.026,4.925-3.181,10.731-5.458,15.282-15.5,31.285-33.34,62.032-48.481,93.85M123.475,9.292c-5.076,7.7-9.158,17.2-13.387,26.591-4.374,9.73-8.919,19.312-14.78,26.531l-.134.164-.06.2C92.47,71.647,87.393,80.7,82.245,89.764s-10.366,18.16-13.25,27.22a20.722,20.722,0,0,0-1.161,5.932,5.725,5.725,0,0,0,1.063,3.617,4.535,4.535,0,0,0,2.791,1.579c-.414.561-.834,1.223-1.312,2.01a48.029,48.029,0,0,1-2.97,4.585,8.955,8.955,0,0,1-1.511,1.585,1.878,1.878,0,0,1-1.071.484l-.085-.011c-.147-.1-.489-.344-.911-.668-.725-.553-1.671-1.3-2.441-1.927-.382-.314-.728-.6-.973-.809l-.239-.211a6.533,6.533,0,0,1-.09-1.3A111.818,111.818,0,0,1,61.5,118.8c.751-5.023,1.585-9.77,1.893-11.43,3.418-18.316,7.967-36.722,11.908-54.8,1.156-5.307,2.435-13.259,3.9-20.977,1.451-7.662,3.111-15.113,4.918-19.283.1-.132.386-.5.755-.939.576-.691,1.344-1.592,1.989-2.328.322-.369.619-.7.836-.937l.262-.275.009-.011a10.56,10.56,0,0,1,4.918-.86,41.282,41.282,0,0,1,4.737.316l22.72,4.688Z" transform="translate(0 0.001)" fill="#fff"/>
    </g>
  </g>
</svg>
