<?xml version="1.0" encoding="UTF-8"?>
<svg id="Layer_1" xmlns="http://www.w3.org/2000/svg" version="1.1" viewBox="0 0 217.1 211.5">
  <!-- Generator: Adobe Illustrator 29.7.0, SVG Export Plug-In . SVG Version: 2.1.1 Build 138)  -->
  <defs>
    <style>
      .st0 {
        fill: #231f20;
      }
    </style>
  </defs>
  <g id="Group_1634">
    <g id="Group_1633">
      <path id="Path_77702" class="st0" d="M215.7,78.1c0-3,0-5.3.2-6.4v-.2s0-.2,0-.2c-.2-.5-.6-.9-1-1.2-.9-.5-1.8-.9-2.8-1.1-3.2-.9-7.8-1.5-9.4-1.8-26.4-4.8-53.1-7.6-79.5-12.1h-.2s-.2,0-.2,0c-30.1,8.1-60.5,16.4-90.5,25.5-1.9.6-8.5,2.6-14.9,4.6-3.2,1-6.3,2-8.7,2.8-1.2.4-2.2.8-3,1.1-.4.2-.7.3-1,.4-.3.1-.5.3-.7.4-1,.8-1.6,1.9-1.6,3.2,0,.9.3,1.9.9,2.6.2.3.4.6.5.8h0c-.2.4-.7.9-1.1,1.6-.5.7-.9,1.6-1,2.5v.2c0,1,.4,1.9.9,2.6.3.4.6.8.7,1.3h0c0,.6-.3,1.1-.6,1.5-.5.6-.9,1.4-1.1,2.2v.3c0,1,.4,1.9,1,2.7.4.5.6,1.1.7,1.7h0c0,.6-.3,1.2-.6,1.6-.2.3-.4.6-.6,1-.2.4-.4.9-.4,1.3h0c0,1,.4,1.8.9,2.6.3.5.6,1,.7,1.6h0c0,.7-.3,1.4-.7,1.9-.6,1-.9,2.1-1,3.3v.2c0,.5.2.9.4,1.3.3.4.7.7,1.2.8,0,.2.1.5.1.7,0,.8-.3,1.5-.7,2.2-.5.8-.8,1.8-.9,2.8h0c0,.9.4,1.8.9,2.5.3.4.5.9.6,1.4,0,.5-.3,1-.6,1.4-.5.7-.8,1.6-.9,2.5h.5-.5c0,1,.4,1.9.9,2.6.4.6.6,1.3.7,2.1,0,.8-.2,1.5-.6,2.2-.5.8-.8,1.7-.8,2.6,0,1.2.5,2.5,1.7,4.3,1,1.4,2.5,2.5,4.2,3.1,2.8,1,5.7,1.6,8.6,1.8,3,.3,5.8.5,7.8.8,20.5,3.5,45.3,9.3,65.8,10.9.8,0,1.6,0,2.4,0,3.9,0,7.7-.7,11.3-2,3.5-1.2,6.8-2.6,10.7-3.7,14.8-4.3,29.3-9.1,44-13.6,16.6-5.1,36.4-9,52.5-15.5.5-.2,1.3-.5,2-.9.8-.3,1.4-.8,2-1.4.2-.3.4-.6.5-1,.4-1.9.7-3.9.7-5.9.1-2.7.2-6,.2-9.6,0-13.2-.7-31.3-.7-41.4M121.6,61.1l83.2,13.2h0c-3.1,1.8-8.4,3.3-13.9,4.7s-11.1,2.7-15.1,3.9c-26.6,8.2-53.4,16.9-80.5,23.4l-82.9-12.5v-.7l109.1-32.1ZM206.4,133.2c-35.2,9.2-69.2,22.2-104.2,31.4-3.2.8-6.5,1.2-9.8,1.1-12.1,0-26.6-4-37.9-5.7-11.3-1.7-22.5-3.7-33.8-5.6-1.1-.1-2.3-.2-3.5-.2-1.8,0-3.6,0-5.3-.4-.6-.1-1.1-.4-1.5-.8-.3-.4-.5-.9-.5-1.4,0-.5.1-1,.3-1.5h0c.7.2,1.3.4,2,.6.9.3,1.8.6,2.7.8,10.1,1.9,20.5,2.6,30.5,4.2,6.3,1,14.1,2.9,21.9,4.6,7.8,1.7,15.5,3.1,21.8,3.3h.2c2.4-.1,4.8-.6,7-1.4,1.3-.4,2.4-1,3.5-1.8.5-.4.9-.8,1.2-1.3.3-.5.5-1.1.5-1.7,0-.8-.2-1.6-.8-2.2-.5-.5-1.2-.7-1.9-.7-1.1,0-2.1.3-3.1.7-.5.2-.9.3-1.3.5-.3,0-.5.2-.8.2-1,0-2,.1-3,.1s-2.5,0-3.7-.2c-25-2.3-51.9-10-77.5-12.6h0c0-.4,0-.8,0-1.2h0c0-.1,0-1.6,0-3.8.9.2,1.9.5,2.9.9,1.5.5,2.8,1,3.7,1.1,10.1,1.9,20.5,2.6,30.5,4.2,6.3,1,14.1,2.9,21.9,4.6,7.8,1.7,15.5,3.1,21.8,3.3h.2c2.4-.1,4.8-.6,7-1.4,1.3-.4,2.4-1,3.5-1.8.5-.4.9-.8,1.2-1.3.3-.5.5-1.1.5-1.7,0-.8-.2-1.6-.8-2.2-.5-.5-1.2-.7-1.9-.7-1.1,0-2.1.3-3.1.7-.5.2-.9.3-1.3.5-.3,0-.5.2-.8.2-1,0-2,.1-3,.1s-2.5,0-3.7-.2c-25.3-2.3-52.6-10.2-78.5-12.7,0-1.9,0-3.8.1-5.5.7.2,1.4.4,2,.6.9.3,1.7.6,2.6.8,10.1,1.9,20.5,2.6,30.5,4.2,6.3,1,14.1,2.9,21.9,4.6,7.8,1.7,15.5,3.1,21.8,3.3h.2c2.4-.1,4.8-.6,7-1.4,1.3-.4,2.4-1,3.5-1.8.5-.4.9-.8,1.2-1.3.3-.5.5-1.1.5-1.7,0-.8-.2-1.6-.8-2.2-.5-.5-1.2-.7-1.9-.7-1.1,0-2.1.3-3.1.7-.5.2-.9.3-1.3.5-.3,0-.5.2-.8.2-1,0-2,.1-3,.1s-2.5,0-3.7-.2c-24.7-2.2-51.3-9.8-76.6-12.5-.3-2-.5-4-.5-6,0-.3,0-.6,0-.9.3,0,.5,0,.8.2,1.1.3,2.4.7,3.6,1.1,1,.4,2,.7,3,.9,10.1,1.9,20.5,2.6,30.5,4.2,6.3,1,14.1,2.9,21.9,4.6,7.8,1.7,15.5,3.1,21.8,3.3h.2c2.4-.1,4.8-.6,7-1.4,1.3-.4,2.4-1,3.5-1.8.5-.4.9-.8,1.2-1.3.3-.5.5-1.1.5-1.7,0-.8-.2-1.6-.8-2.2-.5-.5-1.2-.7-1.9-.7-1.1,0-2.1.3-3.1.7-.5.2-.9.3-1.3.5-.3,0-.5.2-.8.2-1,0-2,.1-3,.1s-2.5,0-3.7-.2c-25.4-2.3-52.7-10.2-78.6-12.7-.3,0-.5-.2-.7-.2,0-1.5,0-2.9,0-4.1s0-1.2,0-1.8c18.7,1.7,37.4,5.5,56.1,8.5,9.4,1.5,18.9,2.8,28.2,4.7h.3c0,0,114.6-33.4,114.6-33.4l.7.4v50.4c-.1.1-.2.3-.3.4-.4.4-.9.8-1.4,1.1-.3.2-.7.5-1.1.6"/>
    </g>
  </g>
</svg>