<?xml version="1.0" encoding="UTF-8"?>
<svg id="Layer_1" xmlns="http://www.w3.org/2000/svg" version="1.1" viewBox="0 0 217.1 211.5">
  <!-- Generator: Adobe Illustrator 29.7.0, SVG Export Plug-In . SVG Version: 2.1.1 Build 138)  -->
  <defs>
    <style>
      .st0 {
        fill: #fff;
      }
    </style>
  </defs>
  <g id="QRjCPy.tif">
    <g>
      <path class="st0" d="M23.4.4c3.7,1.1,6.1,3.7,6.5,7.7s-.4,6,.1,7.7,2.5,2.6,2.7,2.7c2.7,1.1,11,2,14.4,2.5,13.8,2,28,3.1,41.9,3.8s17.6.3,21.1.6,5.1,6.3,1.8,6.3-5.3-.3-6.7-.3c-21.9-.2-49.9-2.6-71.5-6.2v51c10.7,1.9,21.5,3.5,32.3,4.5,29.3,2.7,61.5,2.6,90.9-.4s18.8-2.4,28.2-4.1V25.1c-10.2,1.4-20.4,3.2-30.6,4.1s-31,2.5-42.9,2.4c-4.5,0-6.8-6.2-3.4-6.3s17.5-.4,21.6-.6c13.9-.6,28.1-1.7,41.9-3.8s11.6-1.4,14.3-2.5c4.2-1.6,2.4-6.9,2.8-10.3s2.8-6.5,6.5-7.7h4.5c2.9,1.1,5.8,3.5,6.2,6.8s-.5,6.7,0,8.6,3.4,2.1,3.7,5.8c-1.2,18.2,1.6,38.4,0,56.4s-3.4,4.7-3.7,7v68.3c-.3,2.6-3.4,3.5-5.2,1.8s-.9-1.6-.9-1.7v-68.5h-4.9v118.6c0,1.1,4.4,2.7,4.9,0v-56.6c.8-3.2,6.1-3.3,6.2.3v57.9c-3.4,9.5-17.3,7.6-17.3-2.8v-118c0,0-2-2-2-2-14.3,2.6-28.9,4.5-43.4,5.5-36.7,2.5-74.9.9-111-5.6l-2.3,2.1v119.2c-1,9.9-15.2,10.5-17.2.9l-.2-120.3c-1.5-1.4-2.7-2.6-3.5-4.5V20.6c.7-.9.8-1.9,1.5-2.8s2.2-1.8,2.2-2c.5-1.9-.3-6.2,0-8.6.4-3.3,3.3-5.6,6.2-6.8h4.5ZM23.8,14.8v-6.8c0-1.6-4.9-2-4.9-.4v7.2h4.9ZM199.8,14.8v-7.2c0-1.6-4.9-1.2-4.9.4v6.8h4.9ZM27.1,78.6l.4-2.2V22.5c0-.4-.3-.8-.6-1.1-1.1-.9-9.8-.4-11.8,0v56.5l.6.6h11.3ZM203.5,21.4c-.4.1-.9-.4-1-.4h-10.3l-.6.6v56.9h11.3l.6-.6V21.4ZM23.8,84.7h-4.9v119c0,1.6,4.9,1.2,4.9-.4v-118.6Z"/>
      <path class="st0" d="M100.7,57.2l.8-3.9c.2-2.6-.5-9.4.3-11.2s5.3-1.8,6.5,0l-1,29.8c-1.1,1.5-5.3,1.4-6.4-.2l-8.2-15.6-.8,15.2c-3.4,2.5-7,1.7-6.8-3.1.3-8.4,1-17,.8-25.5.4-3.1,5.5-2.9,7.2-1s5.9,11.1,7.1,13.8.5,1.2.5,1.8Z"/>
      <path class="st0" d="M164,56.4l-8.6.8,1,12.3c-.6,2.1-4.9,2.6-6.5,1.1l-2.7-30.2c1.1-1.1,5.2-1.4,6.1-.3,1.3,1.6.8,11.1,1.6,11.7l8.6-.8-1.1-11.1c.6-2.4,4.6-2.6,6.4-1.4l3.2,29.1c-.3,2.5-5.3,3.2-6.5,1.4s-.8-11.8-1.7-12.5Z"/>
      <path class="st0" d="M132.7,40c3.4-.5,14.1.2,10.1,6-2.2,3.2-6.7-2.4-11,.5-5.1,3.4,5,6.1,7,7.1,9.7,5,8.2,18.2-2.8,19.3-4,.4-14.5-.9-11.8-7.3,1.7-4,5,0,6.9.7,4.3,1.7,10.3-1.2,5.5-5.1s-6.3-2.5-9-4.6c-7.4-5.7-3.7-15.3,5.2-16.5Z"/>
      <path class="st0" d="M59.2,43.6l-.6,7.4,7.4,1.2c3,6.9-4.3,4.7-8.4,4.1l-1.3,12c-.9,1.7-5.4,1.3-6.3-.1s-.3-2.3-.2-3.1c.4-7,1.5-16,2.5-23s.4-3.8.9-4.3c1.6-1.6,15.6,1.2,18.5,1.2,1.6.6,1.4,4.3.1,5.3-1.7,1.2-10.1-.6-12.6-.9Z"/>
      <path class="st0" d="M81.3,40.4c.4.4.5,1.2.5,1.7-.2,9.1-1.8,18.4-2.1,27.5-.6,3-6.9,2.3-6.9-.4l2-27.9c.5-2.4,5.2-2.3,6.5-.9Z"/>
      <path class="st0" d="M114.6,40.8c1.6-.4,4.7-.2,5,1.8.1,6.6-.1,13.2,0,19.7s1.4,8.3-.4,9.8-5.7,1-6.1-1.2c-.1-6.9.1-13.7,0-20.6,0-2.5-1.9-8.8,1.5-9.6Z"/>
    </g>
  </g>
</svg>