<?xml version="1.0" encoding="UTF-8"?>
<svg id="Layer_1" xmlns="http://www.w3.org/2000/svg" version="1.1" viewBox="0 0 247.3 221.3">
  <!-- Generator: Adobe Illustrator 29.7.0, SVG Export Plug-In . SVG Version: 2.1.1 Build 138)  -->
  <defs>
    <style>
      .st0 {
        fill: #231f20;
      }
    </style>
  </defs>
  <g id="Group_1635">
    <path id="Path_77703" class="st0" d="M-.7,34.9c1.9-5,5.3-7.4,10.9-6.8,5.4.7,8.1,8.7,10.8,12.8,2.9,4.4,11.7,16.9,16.8,18,6.9,1.5,16.9-6.5,23.6-8.5l4.2,2.7c2.2-1.4,5-4.3,7.8-4.2,2.8.1,12.7,9,17,8.7v45.5c-1.3,6.3-1.9,12.8-1.9,19.3.5,29,.7,58.1.4,87.1,0,9.3-10.4,14.9-17.8,8.7-1.6-1.4-3.8-5.2-3.8-7.2v-87.5h-1.4v88.9c-.5,1.2-1,2.4-1.7,3.6-3.3,4.9-9.9,6.2-14.8,2.9-2.4-1.6-4.1-4.2-4.6-7.1v-98.2c0,0-2-8.2-2-8.2l-.5-24.8C21.6,76.2,8.1,56.4-.7,38.7v-3.9Z"/>
    <path id="Path_77704" class="st0" d="M175.2,212.5c-1.5,10.4-18.1,11.6-20.8.6l-.4-99.8c-1-4.1-1.6-8.3-2-12.5-.7-13.9.6-28.4,0-42.3l-19.8-11.2c4.7-3.2,9.5-6.8,11.6-12.3,4.3,1.2,5.6,4.2,9.8,0,2.8,5.2,7.1,9.5,12.3,12.3-2.5,1.5-3,1.5-2.9,4.6.6.5,5.8-3.2,7.3-3.1,3,0,4.9,3.3,6.9,5.1l3.9-3.2c5.8,1.7,15.8,9.1,21.6,8.9,5-.2,10.9-6.4,14.1-10,5.4-6.2,8.3-13.3,12.9-19.4,2.9-4.1,8.5-5,12.5-2.2,3.2,2.2,4.5,6.2,3.4,9.9-.9,3.8-7.4,13.2-9.9,16.6-8.4,11.6-20.1,23.3-35.1,24.9-1.4,11.2.9,22.9-2.5,33.9-1.5,31.3,2,64.4,0,95.5-.5,7.5-4.5,13.3-12.8,12.2-4.5-.6-9-5.8-9-10.3v-87h-1.4v88.9Z"/>
    <path id="Path_77705" class="st0" d="M119.3,212.5c-1.8,11-19.6,11.3-21.2-.5v-98.3c0-2.1-1.2-4.2-1.4-6.3-1.9-15.8.3-33.1-.5-49l-19.8-10.9.3-1c5-2,9-6.6,11.3-11.5h1c3.8,3,5.3,2.7,9,0,2.3,5.5,6.9,9.5,12.1,12.3-2.1,1.4-3.4,1.4-2.9,4.6.5.6,6-3.2,6.9-3.3,3.1,0,5.2,3.3,7.3,5.2,2.2-2.7,4.5-4.2,8.2-4.3l14.4,7.8.8,1.2-1,48.6c-1.9,5.1-1.1,9.8-1.4,15-1.3,30.1,0,60.4-.5,90.5-1.2,5.7-6.8,9.5-12.5,8.3-3.1-.6-5.7-2.6-7.2-5.3-.6-1.2-1.1-2.5-1.4-3.9v-87.9h-1.5v88.9Z"/>
    <path id="Path_77706" class="st0" d="M118.2,1.3c12.7-1.8,24.4,7,26.2,19.7,1.8,12.7-7,24.4-19.7,26.2-6.9,1-13.8-1.2-18.9-5.8-14.4-13-6.7-37.7,12.4-40.1"/>
    <path id="Path_77707" class="st0" d="M62.3,1.3c31.1-3.9,35.7,42.8,6.1,46.1-30.8,3.5-35.5-42.4-6.1-46.1"/>
    <path id="Path_77708" class="st0" d="M174.1,1.3c31.1-4.2,35.9,42.6,6.6,46.1-31,3.7-35.9-42.1-6.6-46.1"/>
    <path id="Path_77709" class="st0" d="M184.9,48.9c-.5-.6,3.4-1.9,3.9-2.1,4.2-2.3,7.7-5.7,10.1-9.9,6.1,2.4,15.1,6,11.6,14.3-4.8,11.4-18.6,0-25.6-2.3"/>
    <path id="Path_77710" class="st0" d="M43.6,37.4c1.1,2.8,3.6,4.6,5.6,6.7l8.9,4.8-15.5,6.9c-8.8,2.7-15.1-8.3-8.1-14.3,1-.9,8.3-4.5,9-4.1"/>
  </g>
</svg>