<svg xmlns="http://www.w3.org/2000/svg" xmlns:xlink="http://www.w3.org/1999/xlink" width="217.319" height="221.305" viewBox="0 0 217.319 221.305">
  <defs>
    <clipPath id="clip-path">
      <rect id="Rectangle_842" data-name="Rectangle 842" width="217.319" height="221.305" fill="#fff"/>
    </clipPath>
  </defs>
  <g id="Group_1632" data-name="Group 1632" transform="translate(0 0)">
    <g id="Group_1631" data-name="Group 1631" transform="translate(0 0)" clip-path="url(#clip-path)">
      <path id="Path_77692" data-name="Path 77692" d="M123.326,20.084c2.6-.589,6.667-.338,9.406-.085,24.184,2.232,51.136,12.023,75.7,14.752,6.909,1.267,9.916,7.744,6.811,14.031-1.7,3.443-9.191,8.358-9.737,11.635-.338,2.013,3.387,5.04,1.012,10.765L182.468,97.7c-1.388,6.173.972,12.867-2.984,18.413-22.711,23.3-43.186,51.15-66.076,73.977-6.117,6.1-7.879,7.641-17.083,6.356-27.355-3.822-57.81-16.852-85.557-21.424a12.883,12.883,0,0,1-9.62-10.8c-.766-5.4-.739-30.464,1.453-34.362,1.316-2.344,7.724-6.808,8.042-8.49.36-1.9-3.887-5.393-.875-10.61l76.42-74.324c10.276-7.838,16.776-.907,20.938-2.5,3.331-1.276,9.755-9.809,13.077-12.11a8.509,8.509,0,0,1,3.123-1.74m86.622,20.423L128.9,24.709c-5.7-.13-11.116,6.609-15.016,10.25,7.191,5.27,8.725-6.383,15.892-5.29L200.4,43.742l1.887,2.1-.36,2.228c-3.954,5.942-17.645,16.245-20.09,21.869-1.084,2.5.262,3.909.128,6.358l28.7-30.182c.878-1.218.264-4.887-.725-5.6m-25.058,17.3,8.72-9.244L131.735,35.53l-5.2,1.384c-.461,2.358,1.708,1.256,3.258,1.572q24.721,5.024,49.479,9.858a10.508,10.508,0,0,1,5.617,9.466m-5.976-3.764L94.429,37.8l-4.883,2.967C66.048,64.6,40.921,86.838,17.089,110.309c-1.357,1.334-3.97,3.217-3.372,5.329l2.431,1.491c26.7,4.211,56.588,16.926,82.906,20.181,2.4.3,4.74.654,7.1-.186L178.125,60.3Zm3.054,34.882c1.986.251,3.146-1.663,4.39-2.893,2.234-2.2,15.641-16.785,15.86-18.2.271-1.746.121-2.125-1.292-3.193-2.369,3.746-22.006,20.781-18.959,24.29M112.575,139.17c-3.365,2.411-7.335,4.632-11.687,4.167L17.3,123.126c-3.553,3.842-10.068,6.849-11.154,12.227-.9,4.462-.815,23.148.009,27.751.842,4.713,2.785,5.337,6.788,6.826C33.6,177.612,68.867,184.74,91.31,189.8c3.575.806,9.509,2.828,12.585,1.509,1.939-.833,5.839-5.259,7.57-7.048,22.125-22.832,41.894-48.315,63.716-71.472a12.91,12.91,0,0,0,1.921-5.861c.71-6.231.862-24.14.047-30.2-.282-2.082-.9-4.046-3.316-4.249Z" transform="translate(0.858 24.434)" fill="#fff"/>
      <path id="Path_77693" data-name="Path 77693" d="M20.822,81.661l11.667-1.937c3.262,6.217-17.105,9.164-18.484,8.3-1.426-.889-7.357-15.737-6.383-17.11l4.328-.795,3.513,8.62C38.252,37.154,73.758,4.487,124.386,7.76c15.558,1.005,34.586,6.45,46.665,16.552,2.463,2.058,10.1,8.411,7.845,11.676-3.737,3.132-5.076-2.469-7.29-4.451C151.051,13.16,118,9.37,92.047,16.248c-24.894,6.6-45.521,25.414-59.942,46.072-1.372,1.968-12.09,18.565-11.284,19.342" transform="translate(9.309 9.334)" fill="#fff"/>
      <path id="Path_77694" data-name="Path 77694" d="M33.038,18.311C35.7,21.024,23.393,30.918,21.394,33.4c-9.715,12.063-14.6,28.181-17,43.3L0,77.607C-.09,60.455,8.048,40.525,19.4,27.519c1.726-1.977,11.009-11.888,13.637-9.209" transform="translate(0.001 22.119)" fill="#fff"/>
      <path id="Path_77695" data-name="Path 77695" d="M105.695,5.548l.139,4.729c-8.094-.983-15.493-4.3-23.79-4.9a107.551,107.551,0,0,0-15.475.161c-4.561.423-21.3,5.915-22.425,5.66-1.834-.414-2.252-3.918-.56-5.306.8-.654,7.122-2.454,8.763-2.9a87.929,87.929,0,0,1,53.348,2.561" transform="translate(52.672 0)" fill="#fff"/>
      <path id="Path_77696" data-name="Path 77696" d="M6.515,97.332l91.557,20.15,61.3-65.671c2.261-1.946,4.077-1.14,5.49,1.272.114.634-5.279,7.041-6.253,8.158-15.289,17.582-33.339,36.7-49.6,53.491-2.183,2.255-7.256,8.033-9.97,8.577l-93.216-22.2Z" transform="translate(7.209 62.838)" fill="#fff"/>
      <path id="Path_77697" data-name="Path 77697" d="M9.063,77.621,82.615,94.24c2.846,1.706,3.2,4.108.007,5.476l-71.3-16.85c-3.275-.372-5.866-2.937-2.259-5.246" transform="translate(9.065 96.164)" fill="#fff"/>
      <path id="Path_77698" data-name="Path 77698" d="M51.788,116.284c-.712-.956.911-4.384,1.93-5.317l48.317-51.9c2.364-.712,4.818.338,4.057,3.1-14.215,15.22-27.787,31.268-42.151,46.376-2.031,2.136-9.526,11.264-12.153,7.735" transform="translate(63.942 72.915)" fill="#fff"/>
      <path id="Path_77699" data-name="Path 77699" d="M58.612,97.51c-.358.524-2.92.712-3.844.627-5.042-.455-27.957-6.146-32.867-8.022-5.611-2.143-3.67-5.617,2.134-5.1,10.07.9,22.456,7.055,33,7.892,1.715.21,2.243,3.627,1.574,4.6" transform="translate(22.986 105.261)" fill="#fff"/>
      <path id="Path_77700" data-name="Path 77700" d="M51.008,86.721c-.291,2.937,1.91,14.486-2.29,14.477-5.27-.41-4.021-13.664-1.46-15.191Z" transform="translate(55.812 106.553)" fill="#fff"/>
      <path id="Path_77701" data-name="Path 77701" d="M11.319,101.6l1.328-4.845L81.969,29.848,152.46,43.613c5.476.958,5.779,2.729,2.716,7L90.293,119.976ZM149.346,48.2,83.915,35.683C61.687,55.526,41.2,77.55,19.025,97.3L88.35,114.142Z" transform="translate(14.023 36.978)" fill="#fff"/>
    </g>
  </g>
</svg>
