<?xml version="1.0" encoding="UTF-8"?>
<svg id="Layer_1" xmlns="http://www.w3.org/2000/svg" version="1.1" viewBox="0 0 217.1 211.5">
  <!-- Generator: Adobe Illustrator 29.7.0, SVG Export Plug-In . SVG Version: 2.1.1 Build 138)  -->
  <defs>
    <style>
      .st0 {
        fill: #fff;
      }
    </style>
  </defs>
  <g id="L4Ndim.tif">
    <g>
      <path class="st0" d="M217.1,103.7v9.3c-.7,3.2-1.1,6.5-2,9.6-5.7,19.8-24,35-44.7,36.5v17.8c4,.4,6.8-2.8,10.4-3.8,17.8-5.3,33,11.9,26.1,28.8h7c1.1,0,2.7,2.1,3.2,3v5.5H-.3v-5.5c.5-.9,2.1-3,3.2-3h22.3v-8.5h-9.1c-2.2,0-3.5-3-3.6-4.9-.4-4.4-.6-17,0-21.2s1.6-3.6,2.7-3.6h14.2v-8.9c-3.5,0-7.3,1-8.4-3.3.7-6.5-1.4-17,0-23s5.2-3.5,8.3-3.4c-.6-3.8.5-9.6,5.5-8.3s2.8,5.2,3,8.3h55.6c-.4-3.5-.1-9.1,4.8-8.4s3.9,5.2,3.7,8.4c3.4-.1,7-.5,8.4,3.3-.3,7,.8,15,.1,22-.5,5.5-4.1,4.4-8.5,4.4v8.9h14.2c.7,0,2.9,2.2,2.7,3.2-.6,7.1.8,15.5,0,22.4s-2.1,4-3.6,4h-9.1v8.5h55.6v-42.8c-42.7-3.1-62.7-55.5-32.8-86.3-5.6-18.7,4-39.3,22-46.7,30.3-12.4,60.7,15.7,51.6,46.7,6.2,6.4,10.6,14.5,12.9,23.2l1.5,7.6ZM170.4,150.7c32.8-3.6,49.8-41.6,29.5-68.2-1.6-2.1-6-5.9-6.4-8.1s2.1-7.7,2.3-10.4c1.2-15-9.6-29.2-24.5-31.8-20.5-3.6-38.4,14.2-34.8,34.7.4,2.2,2.2,6.2,1.8,8s-5.1,6-6.6,7.9c-20,27.1-2.9,64.5,30.1,67.9v-14.2c-2.8-3.3-17.6-8.5-11.7-14.2s7.9,2.5,11.7,3.4v-10.4c-2.8-3.7-17.3-8.1-11.7-14.2,3.6-3.9,8.2,2.3,11.7,3.4v-10.4c0-1.7,3.2-3,4.9-2.7s3.6,2.6,3.6,4v17.6c3.4-1.6,7.2-6.6,11.1-3.6,6.7,5.3-8.1,11.1-11.1,14v27.3ZM102,133.8H29.4v12.7h72.6v-12.7ZM93.6,155h-55l-.6.6v7.6l.6.6h55v-8.9ZM110.5,172.3H20.9v12.7h89.6v-12.7ZM197.2,202c.5-1.6,1.7-2.6,2.2-4.3,3.2-9.3-4.3-17.8-13.9-16.9s-9.3,5.9-15.1,4.7v16.5h26.8ZM97.8,193.5H33.7v8.5h64.1v-8.5Z"/>
      <path class="st0" d="M68.1,10.8c6,1.3,11.2,4.4,15.4,8.9,2.5-1.6,7.3-4.8,9.5-.9,2.5,4.5-2.5,6.6-5.4,8.5,2.1,5.8,2.1,11.9,0,17.7,3.2,1.5,8.1,4,5.3,8.3s-6.7.4-9.7-.8c-4.1,4.3-9,8-15.1,8.4.2,3.4.3,9.3-4.5,9.3-6,0-3.2-8.2-4.4-9.1-6-.9-11-4.3-15.2-8.6-2.9,1.4-7.7,4.8-9.9.5s2.4-6.4,5.5-8c-2.1-5.8-2.1-11.8,0-17.7-3.2-1.6-9-5.5-4.6-9.3s6.1.6,9.1,1.9c3.7-4.9,9.5-7.8,15.5-8.9.3-3.1-1.1-7.8,3-8.7s5.9,4.9,5.6,8.7ZM61.6,19.1c-22.1,2.5-18.6,37.3,4.9,33.7,21.2-3.2,17.2-36.3-4.9-33.7Z"/>
    </g>
  </g>
</svg>