<?xml version="1.0" encoding="UTF-8"?>
<svg id="Layer_1" xmlns="http://www.w3.org/2000/svg" version="1.1" viewBox="0 0 704.2 720">
  <!-- Generator: Adobe Illustrator 29.7.0, SVG Export Plug-In . SVG Version: 2.1.1 Build 138)  -->
  <defs>
    <style>
      .st0 {
        fill: #fff;
      }

      .st1 {
        fill: #3bd702;
      }
    </style>
  </defs>
  <path class="st0" d="M238.3,264.2c-17.9-30.9-37.7-84.4-76.2-93.4-86-20.1-107.9,97.5-121.9,157.5C21.3,409.4,4.1,506.6.5,589.7c-3.5,79.7,9,133.1,100.7,126.8,44.3-3,97.5-17.6,141.2-28.2,79.5-19.2,162.4-41,240.1-66.1,27.3-8.8,61-19.2,85.8-33.2,60-33.8,41-82.7-4-119.5-29.7-24.3-66.1-43.1-99.5-61.7.7-2.8,38.3-32.8,43.8-37.2,49.7-39.4,105.5-74.8,153.6-115.2,75.3-63.2,40.8-108.3-19.1-163.9-29.3-27.3-84.9-75.4-123.4-84.5-49.8-11.8-80.2,19.4-112.5,51-62.9,61.5-117,131.5-165.9,204.4l-2.9,1.7Z"/>
  <path d="M238.3,264.2l2.9-1.7c48.8-73,102.9-143,165.9-204.4,32.3-31.6,62.8-62.7,112.5-51,38.5,9.1,94.1,57.3,123.4,84.5,59.8,55.6,94.4,100.7,19.1,163.9-48.1,40.4-103.9,75.8-153.6,115.2-5.5,4.4-43.1,34.4-43.8,37.2,33.4,18.6,69.8,37.4,99.5,61.7,45,36.8,64,85.7,4,119.5-24.8,14-58.5,24.3-85.8,33.2-77.7,25.1-160.6,46.9-240.1,66.1-43.7,10.6-96.9,25.2-141.2,28.2C9.5,722.8-3,669.4.5,589.7c3.6-83.1,20.9-180.3,39.7-261.3,14-60,35.9-177.7,121.9-157.5s58.2,62.5,76.2,93.4ZM175.4,653.3c87.7-16.3,183.3-39.2,268.5-65.3,25.6-7.8,74.2-22.3,94.9-37.5,19.3-14.2,12-25.3-3.1-38.2-37.6-32.2-91.8-53.1-134.1-78.8-6.8-5.1-7.6-13.7-2.7-20.5,10.8-15,38.6-38,53.2-51.1,55.5-49.7,118.2-90.3,172.9-138.3,19.6-17.2,33.4-31,17.2-56.7-17-27-80.4-79-108.5-96.2-43.7-26.7-63-2.5-93,28-46.9,47.7-93.2,104.5-133.4,158-18.1,24-37.9,58.7-57.3,79.8-6.2,6.8-15.5,11-22.9,3-6-6.5-16.1-25.5-21.2-34.2-13.3-22.3-25.4-49.6-41.5-69.6-26.6-33-42.9-2.6-52.9,23-32.6,83.5-55.2,233.3-59.3,323.5-.9,19.2-4.1,59.6,11,73.2,19.3,17.4,87.6,2.4,112.1-2.2Z"/>
  <path class="st1" d="M175.4,653.3c-24.5,4.6-92.7,19.6-112.1,2.2-15.1-13.6-11.9-54-11-73.2,4.2-90.3,26.7-240.1,59.3-323.5,10-25.7,26.3-56.1,52.9-23,16.1,20,28.2,47.4,41.5,69.6,5.1,8.6,15.2,27.6,21.2,34.2,7.4,8,16.7,3.8,22.9-3,19.4-21.1,39.2-55.8,57.3-79.8,40.3-53.5,86.6-110.3,133.4-158,30-30.5,49.2-54.7,93-28,28.1,17.2,91.5,69.2,108.5,96.2,16.2,25.7,2.4,39.5-17.2,56.7-54.7,48-117.5,88.6-172.9,138.3-14.6,13.1-42.4,36.1-53.2,51.1-4.9,6.8-4.1,15.4,2.7,20.5,42.3,25.7,96.5,46.6,134.1,78.8,15.1,13,22.4,24.1,3.1,38.2-20.7,15.2-69.3,29.7-94.9,37.5-85.3,26.1-180.8,48.9-268.5,65.3ZM406.1,575.1c3.9,2.7,22-2.9,27.4-4.3,19.1-5.1,44.2-13.4,61.9-22,9.9-4.8,21.8-9.4,16.3-22.7-4.9-12-23.2-7.9-13.1,4.4.2,2.4-15.3,8.4-18.3,9.6-23.6,9.4-48.6,15.4-72.4,24.2-4,1.7-5.2,8.3-1.7,10.8ZM483.2,519.3c8.6,5.9,16.4-9.4,5.2-12.6-8.2-2.3-11.5,8.3-5.2,12.6ZM97.7,455.4c7.6-1.3,12.1-30.8,1.2-29.9-8.4.7-12.3,31.8-1.2,29.9ZM109.7,410.5c6.9-27.7,11.8-55.8,17.7-83.7,1.6-7.4,9-28.6,6.2-34.4-.7-1.4-2.1-2.3-3.6-2.7-8.1-.9-10.5,13.1-12.3,19.1-7.6,25.5-16.6,64.6-19.2,90.8-.9,9.6.8,19.2,11.2,10.8ZM549.6,257.4c7.7-2,6.3-16.8-4.4-13-6.6,2.3-3,14.9,4.4,13ZM601.1,162.1c-6.6,9.4,15.2,16.7,9.4,28-1.2,2.4-10.1,10.2-12.8,12.6-9.5,8.4-30.6,21.2-37.3,29.9-2.9,3.7-4.7,7.3.3,10,5.3,2.9,13.3-3.4,17.9-6.6,10-7,39.7-30.2,44.7-39.8s2.8-15.5-2.5-23.6c-3-4.5-14.6-17.7-19.8-10.4ZM469.5,117.2c10.2-3.4,17.3-25.6,34.8-22.1,5,1,19.8,12.9,23.4,3.9,3.6-9-20.1-18.7-27.1-18.4-13.4.5-32.3,15.4-38.1,27.2-3,6.1,1.2,11.4,7,9.4Z"/>
  <path d="M109.7,410.5c-10.4,8.5-12.1-1.2-11.2-10.8,2.6-26.3,11.6-65.3,19.2-90.8,1.8-6,4.2-20,12.3-19.1,1.5.3,2.9,1.2,3.6,2.7,2.8,5.8-4.6,26.9-6.2,34.4-6,27.9-10.9,56-17.7,83.7Z"/>
  <path d="M406.1,575.1c-3.6-2.5-2.3-9.1,1.7-10.8,23.8-8.8,48.8-14.8,72.4-24.2,3-1.2,18.6-7.2,18.3-9.6-10.1-12.4,8.1-16.5,13.1-4.4,5.4,13.3-6.4,17.8-16.3,22.7-17.7,8.6-42.8,16.9-61.9,22s-23.5,7.1-27.4,4.3Z"/>
  <path d="M601.1,162.1c5.1-7.3,16.8,5.9,19.8,10.4,5.3,8.1,7.2,14.6,2.5,23.6s-34.7,32.8-44.7,39.8c-4.6,3.2-12.6,9.5-17.9,6.6-5-2.7-3.2-6.2-.3-10,6.7-8.7,27.8-21.5,37.3-29.9,2.7-2.4,11.6-10.2,12.8-12.6,5.8-11.3-16-18.6-9.4-28Z"/>
  <path d="M469.5,117.2c-5.8,2-10-3.3-7-9.4,5.8-11.8,24.6-26.7,38.1-27.2,7-.3,30.7,9.4,27.1,18.4-3.6,9-18.4-2.9-23.4-3.9-17.5-3.6-24.6,18.6-34.8,22.1Z"/>
  <path d="M97.7,455.4c-11.1,1.8-7.2-29.3,1.2-29.9,10.9-.9,6.4,28.7-1.2,29.9Z"/>
  <path d="M483.2,519.3c-6.3-4.3-3-14.8,5.2-12.6,11.2,3.1,3.4,18.4-5.2,12.6Z"/>
  <path d="M549.6,257.4c-7.4,1.9-11.1-10.7-4.4-13,10.7-3.8,12.2,11,4.4,13Z"/>
</svg>