<?xml version="1.0" encoding="UTF-8"?>
<svg id="Layer_1" xmlns="http://www.w3.org/2000/svg" version="1.1" viewBox="0 0 134.8 74.5">
  <!-- Generator: Adobe Illustrator 29.7.0, SVG Export Plug-In . SVG Version: 2.1.1 Build 138)  -->
  <defs>
    <style>
      .st0 {
        fill: none;
      }

      .st1 {
        fill: #231f20;
      }

      .st2 {
        fill: #fff;
      }
    </style>
  </defs>
  <path class="st2" d="M26.8,24.3c-.2,0-.4,0-.6-.3-.2-.2-.3-.4-.3-.6v-5.7c0,0-1.5,0-1.5,0l-.3,5.3c0,.5-.4.8-.9.8h-6.3c-.2-.1-.5-.2-.6-.4-.2-.2-.2-.4-.2-.6l1-19.8c0-.2.1-.5.3-.6.2-.1.4-.2.6-.2l6.8.5c.5,0,.8.4.8.9l-.6,9.2h1.3s.2-10,.2-10c0-.2.1-.5.3-.6.2-.2.4-.2.6-.2l6.5.3c.5,0,.8.4.8.9v20.1c0,.5-.4.9-.8.9l-7.1.2Z"/>
  <path class="st1" d="M27.5,2.8l6.4.3v20.1s-7.1.2-7.1.2v-6.5c0,0-3.2,0-3.2,0l-.3,6.2h-6.3c0-.1,1-20,1-20l6.7.5-.6,10.1h3.1c0,0,.3-10.8.3-10.8M27.5,1c-.5,0-.9.2-1.2.5-.2.2-.3.4-.4.6-.3-.2-.6-.4-1-.4l-6.7-.5h0c-.4,0-.9.1-1.2.4-.4.3-.6.8-.6,1.2l-1,19.8c0,.5.1.9.5,1.3.3.3.8.5,1.2.6h6.3c.9.2,1.7-.6,1.8-1.5v.3c0,.5.2.9.5,1.3.3.3.7.5,1.2.5h0s7.1-.2,7.1-.2c.9,0,1.7-.8,1.7-1.8V3.1c0-.9-.7-1.7-1.7-1.7l-6.4-.3h0Z"/>
  <g>
    <path class="st0" d="M44.4,13.2c0-.1-.2-.2-.3-.3,0,0-.2,0-.3,0-.2,0-.3,0-.5,0-.1,0-.2.1-.3.2,0,.1-.2.2-.2.4,0,.2-.1.4-.1.6,0,.2,0,.5,0,.7,0,.2.1.4.2.5,0,.1.2.2.3.3,0,0,.2,0,.3,0,.2,0,.3,0,.4,0,.1,0,.2-.1.3-.2.1-.1.2-.3.3-.5,0-.2.1-.4.1-.6,0-.2,0-.4,0-.7,0-.2-.1-.3-.2-.5Z"/>
    <path class="st1" d="M53.9,9.8c-.5-1.3-1.2-2.5-2.2-3.5-.9-1-2.1-1.7-3.4-2.3-1.3-.5-2.8-.8-4.3-.8-1,0-2,.1-2.9.4-.9.3-1.8.6-2.6,1.1-.8.5-1.5,1.1-2.2,1.8-.6.7-1.2,1.4-1.6,2.2-.5.8-.8,1.7-1.1,2.6-.3.9-.4,1.9-.4,2.8,0,1,0,2,.3,2.9.2.9.6,1.8,1,2.6.4.8,1,1.6,1.6,2.2.6.7,1.4,1.3,2.1,1.7.8.5,1.6.9,2.5,1.1.9.3,1.9.4,2.9.5,1,0,2,0,3-.4.9-.3,1.8-.6,2.6-1.1.8-.5,1.5-1.1,2.2-1.7.6-.7,1.2-1.4,1.7-2.2.5-.8.8-1.7,1.1-2.6.3-.9.4-1.9.4-2.9,0-1.6-.2-3.1-.7-4.4ZM52.8,14.1c0,.9-.1,1.7-.4,2.5-.2.8-.5,1.5-.9,2.2-.4.7-.9,1.3-1.4,1.9-.5.6-1.2,1.1-1.8,1.4-.7.4-1.4.7-2.2.9-.8.2-1.6.3-2.5.3-.8,0-1.7-.1-2.4-.4-.8-.2-1.5-.6-2.1-1-.7-.4-1.3-.9-1.8-1.5-.5-.6-1-1.2-1.3-1.9-.4-.7-.6-1.4-.8-2.2-.2-.8-.3-1.6-.3-2.4,0-.8.1-1.6.3-2.4.2-.8.5-1.5.9-2.2.4-.7.8-1.3,1.4-1.9s1.1-1.1,1.8-1.5c.7-.4,1.4-.7,2.1-.9.8-.2,1.6-.3,2.4-.3,1.4,0,2.6.3,3.7.7,1.1.4,2.1,1.1,2.8,1.9.8.8,1.4,1.8,1.8,2.9s.6,2.4.6,3.7Z"/>
    <path class="st1" d="M45.9,12.1c-.2-.3-.5-.5-.8-.7-.3-.2-.7-.3-1.1-.3-.4,0-.8,0-1.2.2-.4.2-.7.4-.9.6-.3.3-.5.6-.6,1s-.2.8-.2,1.2c0,.4,0,.8.1,1.2.1.4.3.8.5,1.1.2.3.5.6.8.8.3.2.7.3,1.2.3.4,0,.8,0,1.2-.2.4-.2.7-.4.9-.7.3-.3.4-.6.6-1,.1-.4.2-.8.2-1.2,0-.4,0-.8-.1-1.2-.1-.4-.3-.7-.5-1ZM44.6,14.9c0,.2-.2.3-.3.5,0,.1-.2.2-.3.2-.1,0-.2,0-.4,0-.1,0-.2,0-.3,0-.1,0-.2-.2-.3-.3-.1-.2-.2-.3-.2-.5,0-.2,0-.5,0-.7,0-.2,0-.4.1-.6,0-.2.1-.3.2-.4,0,0,.2-.2.3-.2.1,0,.3,0,.5,0,.1,0,.2,0,.3,0,.1,0,.2.1.3.3,0,.1.2.3.2.5,0,.2,0,.4,0,.7,0,.2,0,.4-.1.6Z"/>
  </g>
  <path class="st2" d="M68.3,25.3c-.4,0-.8-.3-.8-.8l-.7-5-1,4.2c0,.4-.4.7-.9.7h-8.1c-.4,0-.8-.3-.8-.8l-2.7-18.3c0-.2,0-.5.2-.7s.4-.3.6-.3l7-.4h0c.4,0,.8.4.8.8l.5,5.6,1-4.7c0-.4.5-.7.9-.7l5.5.2c.4,0,.8.3.8.7l.8,4.9.8-6.1c0-.5.5-.8.9-.8h0s6.9.9,6.9.9c.2,0,.5.2.6.4.1.2.2.4.1.7l-4,18.9c0,.4-.5.7-.9.7h-8Z"/>
  <path class="st1" d="M73.4,4.9l6.9.9-4,18.9h-8c0-.1-1.4-9.7-1.4-9.7l-2,8.8h-8s-2.7-18.3-2.7-18.3l7-.4,1,11.2,2.3-10.2,5.5.2,1.8,10.5,1.6-11.8M73.4,3.1c-.9,0-1.7.6-1.8,1.5v.7c-.4-.5-.9-.9-1.6-.9l-5.5-.2c-.7,0-1.3.3-1.6.9v-.2c-.1-.9-.8-1.6-1.7-1.6h-.2s-7,.4-7,.4c-.5,0-.9.3-1.3.6-.3.4-.4.9-.4,1.4l2.7,18.3c.1.8.8,1.5,1.7,1.5h0s8,0,8,0c.7,0,1.4-.4,1.6-1.1v.4c.2.8.9,1.5,1.7,1.5h0s8,.1,8,.1c.8,0,1.6-.6,1.7-1.4l4-18.9c.1-.5,0-1-.3-1.4-.3-.4-.7-.7-1.2-.7l-6.9-.9h-.2Z"/>
  <path class="st1" d="M104.6,4.9c-.3-.4-.7-.6-1.2-.6h0s-15.3-1.3-15.3-1.3c-.9,0-1.8.6-1.9,1.6l-.7,6.6c0,.5,0,1,.4,1.3.3.3.7.6,1.2.6h0s2.4,0,2.4,0l-.5,11.3c0,.5.1.9.5,1.3.3.3.7.5,1.1.6h0s6,.2,6,.2c.9,0,1.7-.6,1.8-1.5l1.4-11.4h2.6c.9.2,1.7-.5,1.8-1.4l.6-6c0-.5,0-.9-.4-1.3ZM102.6,12l-4.2-.2-1.6,13-6-.2.6-13.1h-4.2c0-.1.7-6.8.7-6.8l15.3,1.3-.6,6Z"/>
  <path class="st2" d="M111.9,26.7c-.9,0-1.8-.3-2.6-.6-.8-.3-1.6-.7-2.3-1.2-.7-.5-1.3-1.1-1.9-1.7-.5-.6-1-1.4-1.3-2.1-.4-.8-.6-1.6-.8-2.4-.2-.9-.2-1.8-.1-2.7s.3-1.8.5-2.6c.3-.8.7-1.6,1.1-2.3.5-.7,1-1.4,1.6-2,.6-.6,1.3-1.1,2.1-1.5.8-.4,1.6-.7,2.4-.9.9-.2,1.8-.2,2.7-.2,1.5.1,2.8.5,4,1,1.2.6,2.2,1.3,3,2.3.8.9,1.4,2.1,1.8,3.3.4,1.2.5,2.6.4,4.1s-.3,1.8-.6,2.7c-.3.8-.7,1.6-1.1,2.3-.5.7-1,1.4-1.7,2-.6.6-1.3,1.1-2.1,1.5-.8.4-1.6.7-2.5.9-.9.2-1.8.2-2.8.1ZM113,14.5c-.3,0-.6,0-.8,0-.2,0-.5.2-.6.4-.2.2-.3.4-.5.6-.1.3-.2.6-.2.9s0,.6,0,1c0,.3.2.6.3.8.1.2.3.4.5.6.2.1.4.2.7.2s.6,0,.8-.1c.3,0,.5-.2.6-.4.2-.2.4-.4.5-.7.1-.3.2-.6.2-.9s0-.6,0-.9c0-.3-.2-.5-.3-.8-.1-.2-.3-.4-.5-.5-.2-.1-.4-.2-.7-.2Z"/>
  <path class="st1" d="M113.4,7.4c1.4.1,2.6.4,3.7,1,1.1.5,2,1.2,2.7,2.1s1.3,1.8,1.6,3c.3,1.1.5,2.4.3,3.8s-.2,1.7-.5,2.4c-.3.8-.6,1.5-1,2.2-.4.7-.9,1.3-1.5,1.8-.6.5-1.2,1-1.9,1.3-.7.4-1.4.6-2.2.8s-1.6.2-2.5.1-1.6-.2-2.4-.5c-.7-.3-1.4-.6-2.1-1.1s-1.2-1-1.7-1.6c-.5-.6-.9-1.2-1.2-1.9-.3-.7-.6-1.4-.7-2.2s-.2-1.6-.1-2.4.2-1.6.5-2.4c.3-.8.6-1.5,1-2.1.4-.7.9-1.3,1.5-1.8.6-.5,1.2-1,1.9-1.4.7-.4,1.4-.6,2.2-.8.8-.2,1.6-.2,2.4-.1M112.3,19.9c.4,0,.8,0,1.2-.2.4-.1.7-.4,1-.6.3-.3.5-.6.6-1,.2-.4.3-.8.3-1.2s0-.8,0-1.2c0-.4-.2-.7-.4-1.1s-.5-.6-.8-.8c-.3-.2-.7-.3-1.1-.4s-.8,0-1.2.1c-.4.1-.7.3-.9.6-.3.3-.5.6-.7.9-.2.4-.3.7-.3,1.2s0,.8,0,1.2c0,.4.2.8.4,1.1.2.3.5.6.8.8.3.2.7.4,1.1.4M113.6,5.7c-1,0-2,0-3,.2-.9.2-1.8.5-2.7,1-.8.4-1.6,1-2.3,1.6-.7.6-1.3,1.3-1.8,2.1-.5.8-.9,1.6-1.2,2.5-.3.9-.5,1.8-.6,2.8s0,2,.1,2.9c.2.9.5,1.8.8,2.6.4.8.9,1.6,1.5,2.3.6.7,1.3,1.3,2,1.9.7.5,1.6,1,2.5,1.3.9.3,1.9.5,2.9.6s2,0,3-.2c.9-.2,1.9-.5,2.7-.9.8-.4,1.6-1,2.3-1.6.7-.6,1.3-1.3,1.8-2.1.5-.8.9-1.6,1.2-2.5.3-.9.5-1.9.6-2.9.1-1.6,0-3.1-.4-4.4-.4-1.4-1.1-2.6-1.9-3.6-.9-1-2-1.9-3.3-2.5-1.3-.6-2.7-1-4.3-1.1ZM112.5,18.2c-.1,0-.2,0-.3,0-.1,0-.2-.2-.3-.3,0-.2-.2-.4-.2-.6,0-.2,0-.5,0-.7s0-.4.1-.6c0-.2.2-.3.3-.4,0,0,.2-.2.3-.2.1,0,.3,0,.5,0s.2,0,.3,0c.1,0,.2.2.3.3,0,.1.2.3.2.5,0,.2,0,.4,0,.7s0,.4-.2.6c0,.2-.2.3-.3.5,0,0-.2.2-.3.2-.1,0-.3,0-.4,0Z"/>
  <g>
    <path class="st1" d="M38.5,36.6c-.6-1.7-1.4-3.2-2.5-4.6-1.1-1.3-2.3-2.5-3.8-3.5-1.4-.9-2.8-1.7-4.4-2.3-1.5-.6-3.2-1-4.9-1.3-1.6-.3-3.3-.4-4.9-.4-2.7,0-5.4.2-8,.6-2.6.4-5.2,1-7.7,1.7-1.4.4-2.4,1.7-2.5,3.2-.1,2.4-.2,4.8-.1,7.1,0,2.3,0,4.6,0,6.8,0,4.4,0,8.7,0,13,0,4.3,0,8.6,0,12.9s1.6,3.5,3.5,3.5h13.2c1.9,0,3.5-1.6,3.5-3.5v-9.9c.5,0,1.1-.1,1.6-.2,1.8-.2,3.5-.6,5.1-1.1,1.7-.5,3.3-1.2,4.8-2.1,1.6-.9,3-2.1,4.2-3.4,1.2-1.4,2.2-3,2.9-4.8.7-1.8,1.1-3.9,1.1-6.1s-.3-4-.9-5.7ZM35.1,47.2c-.5,1.4-1.3,2.6-2.2,3.7-1,1.1-2.1,1.9-3.3,2.7s-2.6,1.3-4.1,1.8c-1.5.5-3,.8-4.5,1-1.6.2-3.1.3-4.6.4v13.2H3.1c0-4.3,0-8.6,0-12.9,0-4.3,0-8.6,0-12.9,0-2.3,0-4.6,0-6.9,0-2.3,0-4.6.1-6.9,2.4-.7,4.8-1.3,7.2-1.6,2.4-.4,4.9-.5,7.5-.5s2.9.1,4.3.4c1.4.2,2.8.6,4.2,1.1,1.3.5,2.6,1.1,3.7,1.9s2.1,1.7,3,2.7c.8,1.1,1.5,2.3,2,3.6.5,1.3.7,2.9.7,4.5s-.3,3.4-.8,4.9Z"/>
    <path class="st1" d="M19.4,39.4c-.4,0-.8,0-1.2,0-.4,0-.8.1-1.2.2l-.3,8.2c.3,0,.5,0,.8,0h.8c.7,0,1.3-.1,2-.3.6-.2,1.2-.6,1.7-1,.5-.4.9-.9,1.2-1.5s.4-1.2.4-1.9c0-1.2-.4-2.2-1.1-2.9-.7-.7-1.7-1-2.9-1Z"/>
  </g>
  <path class="st0" d="M63.5,53.3c-.3-.4-.8-.6-1.3-.6h-9.6l1.9-24c0-.5-.1-1-.5-1.3-.3-.4-.8-.6-1.3-.6h-14.7c-1,0-1.7.8-1.8,1.7l-.9,40.3c0,.5.2,1,.5,1.3.3.3.8.5,1.2.5h.1s23.8-1.9,23.8-1.9c.8,0,1.5-.7,1.6-1.6l1.2-12.5c0-.5-.1-1-.4-1.3Z"/>
  <path class="st1" d="M52.8,28.6h0M52.8,28.6l-2.1,25.9h11.5l-1.2,12.5-23.8,1.9.9-40.3h14.7M52.8,25.1h-14.7c-1.9,0-3.5,1.5-3.5,3.4l-.9,40.3c0,1,.4,1.9,1.1,2.6.7.6,1.5,1,2.4,1s.2,0,.3,0l23.8-1.9c1.7-.1,3.1-1.5,3.2-3.2l1.2-12.5c0-1-.2-2-.9-2.7-.7-.7-1.6-1.1-2.6-1.1h-7.7l1.8-22c0-.1,0-.3,0-.4,0-1.9-1.6-3.5-3.5-3.5ZM52.8,32.1h0,0Z"/>
  <path class="st2" d="M85.1,70.6c-.8,0-1.5-.5-1.7-1.3l-1.3-5.1h-3.7l-1.1,5c-.2.8-.9,1.4-1.7,1.4h-.2s-14.4-1.4-14.4-1.4c-.5,0-1-.3-1.3-.8-.3-.4-.4-1-.2-1.5l11.2-37.6c.2-.7.8-1.2,1.6-1.2l15.8-.8c.8,0,1.5.5,1.7,1.3l11,38c.1.5,0,1-.2,1.4-.3.4-.7.7-1.2.8l-14,1.8h-.2Z"/>
  <path class="st1" d="M88.1,29l11,38-14,1.8-1.7-6.4h-6.4l-1.4,6.4-14.4-1.4,11.2-37.6,15.7-.8M78.2,53.8h4.2l-2.1-9.8-2.1,9.8M88.1,25.5h-.2s-15.7.8-15.7.8c-1.5,0-2.8,1.1-3.2,2.5l-11.2,37.6c-.3,1-.1,2.1.4,3,.6.9,1.5,1.4,2.6,1.5l14.4,1.4c.1,0,.2,0,.3,0,1.6,0,3.1-1.1,3.4-2.7l.8-3.6h.9l1,3.8c.4,1.5,1.8,2.6,3.4,2.6s.3,0,.5,0l14-1.8c1-.1,1.9-.7,2.5-1.6.6-.9.7-1.9.4-2.9l-11-38c-.4-1.5-1.8-2.5-3.4-2.5Z"/>
  <path class="st2" d="M103.7,70.6c-.5,0-.9-.2-1.3-.5-.3-.3-.5-.8-.5-1.3l.3-15.4-10.1-20.6c-.3-.5-.2-1.1,0-1.6s.8-.8,1.3-.9l14.4-1.8h.2c.7,0,1.4.4,1.6,1.1l2.9,7.9,3.2-8c.3-.7.9-1.1,1.6-1.1h.1s13.5,1,13.5,1c.6,0,1.2.4,1.4.9.3.5.3,1.2,0,1.7l-13,21.2.4,15.5c0,.5-.2.9-.5,1.3-.3.3-.8.5-1.3.5h-14.5Z"/>
  <path class="st1" d="M117.5,30.3l13.5,1-13.3,21.7.4,16h-14.5l.3-15.9-10.3-20.9,14.4-1.8,4.5,12.2,4.9-12.2M108.1,26.8c-.1,0-.3,0-.4,0l-14.4,1.8c-1.1.1-2.1.8-2.6,1.8-.5,1-.6,2.2,0,3.2l10,20.2-.3,15c0,.9.3,1.9,1,2.5s1.6,1.1,2.5,1.1h14.5c.9,0,1.8-.4,2.5-1.1s1-1.6,1-2.5l-.4-14.9,12.7-20.8c.6-1,.7-2.3.1-3.4-.6-1.1-1.6-1.8-2.9-1.9l-13.5-1h-.2c-1.4,0-2.7.9-3.2,2.2l-1.5,3.8-1.4-3.7c-.5-1.4-1.8-2.3-3.3-2.3Z"/>
  <path class="st2" d="M33.2,34.2c-.8-1.1-1.8-2-3-2.7s-2.4-1.4-3.7-1.9c-1.3-.5-2.7-.9-4.2-1.1-1.4-.2-2.9-.4-4.3-.4-2.6,0-5,.2-7.5.5-2.4.4-4.8.9-7.2,1.6-.1,2.3-.2,4.6-.1,6.9,0,2.3,0,4.6,0,6.9,0,4.3,0,8.7,0,12.9,0,4.3,0,8.6,0,12.9h13.2v-13.2c1.5,0,3-.1,4.6-.4,1.6-.2,3.1-.6,4.5-1,1.5-.5,2.8-1.1,4.1-1.8s2.4-1.6,3.3-2.7c1-1.1,1.7-2.3,2.2-3.7.5-1.4.8-3,.8-4.9s-.2-3.2-.7-4.5c-.5-1.3-1.1-2.5-2-3.6ZM22.9,45.2c-.3.6-.7,1.1-1.2,1.5-.5.4-1,.7-1.7,1-.6.2-1.3.3-2,.3h-.8c-.2,0-.5,0-.8,0l.3-8.2c.4,0,.8-.2,1.2-.2.4,0,.8,0,1.2,0,1.2,0,2.1.3,2.9,1,.7.7,1.1,1.6,1.1,2.9s-.1,1.4-.4,1.9Z"/>
  <polyline class="st2" points="52.8 28.6 50.7 54.5 62.2 54.5 61 67 37.2 68.9 38.2 28.6 52.8 28.6"/>
  <path class="st2" d="M50.4,7.5c-.8-.8-1.7-1.4-2.8-1.9-1.1-.4-2.4-.7-3.7-.7-.8,0-1.7,0-2.4.3-.8.2-1.5.5-2.1.9-.7.4-1.3.9-1.8,1.5s-1,1.2-1.4,1.9c-.4.7-.7,1.4-.9,2.2-.2.8-.3,1.6-.3,2.4,0,.8,0,1.6.3,2.4.2.8.5,1.5.8,2.2.4.7.8,1.3,1.3,1.9.5.6,1.1,1,1.8,1.5.7.4,1.4.7,2.1,1,.8.2,1.6.4,2.4.4.9,0,1.7,0,2.5-.3.8-.2,1.5-.5,2.2-.9.7-.4,1.3-.9,1.8-1.4.5-.6,1-1.2,1.4-1.9.4-.7.7-1.4.9-2.2.2-.8.3-1.6.4-2.5,0-1.4-.2-2.6-.6-3.7s-1-2.1-1.8-2.9ZM46.5,14.3c0,.4,0,.8-.2,1.2-.1.4-.3.7-.6,1-.3.3-.6.5-.9.7-.4.2-.8.2-1.2.2-.4,0-.8-.1-1.2-.3-.3-.2-.6-.5-.8-.8-.2-.3-.4-.7-.5-1.1-.1-.4-.2-.8-.1-1.2,0-.4,0-.8.2-1.2s.3-.7.6-1c.3-.3.6-.5.9-.6.4-.2.7-.2,1.2-.2.4,0,.8.1,1.1.3.3.2.6.4.8.7.2.3.4.6.5,1,.1.4.2.8.1,1.2Z"/>
  <polygon class="st2" points="87.9 4.7 87.2 11.4 91.4 11.5 90.8 24.6 96.8 24.8 98.4 11.8 102.6 12 103.3 6 87.9 4.7"/>
</svg>