<?xml version="1.0" encoding="UTF-8"?>
<svg id="Layer_1" xmlns="http://www.w3.org/2000/svg" version="1.1" viewBox="0 0 217.1 215.6">
  <!-- Generator: Adobe Illustrator 29.7.0, SVG Export Plug-In . SVG Version: 2.1.1 Build 138)  -->
  <defs>
    <style>
      .st0 {
        fill: #141544;
      }
    </style>
  </defs>
  <path class="st0" d="M109.1,9.7l34.6,34.2c.2.3.3.5.4.6-.3.5-1.2,1.4-3.5,2.8-2.6,1.7-5.9,3.2-9.1,4.7-3.8,1.8-7,3.3-9.4,5.1-7.2,5.5-11.7,14.5-12,23.6-.2,7.9,2.9,14.9,8.6,19.7,4.7,3.9,10.5,6,16.8,6,9.6,0,19-4.8,24.7-12.5,1.7-2.2,3.1-5.2,4.7-8.7,1.4-3,3-6.4,4.7-9,1.5-2.3,2.5-3.1,2.9-3.5,0,0,.2.1.3.2.6.4,1.7,1.6,2.5,2.4.8.8,1.5,1.7,2.4,2.5,10.2,9.5,20.2,19.7,29.9,29.6-5.5,5.6-11.2,11.2-16.7,16.6-4.5,4.4-9.1,8.9-13.6,13.4-.6.6-1.2,1.2-1.9,1.9-1.7,1.6-3.4,3.3-4.7,4.8-3.4,3.9-2.8,8.2-1.2,10.9.9,1.4,1.4,2.2,8.7,6.3,2.5,1.4,4.8,2.5,6.9,3.4,5.4,2.5,8.9,4.2,11.9,8.8,4.1,6.3,2.1,12,.6,14.9-2.9,5.4-8.7,9-14.4,9s-4.5-.5-6.7-1.6c-5.2-2.6-7.6-7.1-11.1-14.2-1.7-3.5-3.4-7.1-5.8-10.6-1.3-2.9-4.2-4.8-7.5-4.8-.7,0-1.4,0-2.2.3l-2.2.5-1.6,1.6-37.5,37.2-34.6-34.2c-.2-.3-.3-.5-.4-.7.3-.4,1.2-1.4,3.4-2.8,2.6-1.7,6-3.2,8.9-4.6,3.1-1.4,5.7-2.7,7.8-4,11-7.3,16.2-20.9,12.5-33-3.3-10.8-12.6-17.5-24.4-17.5-.8,0-1.7,0-2.5,0-10.8.8-20,7.4-25.3,18-.5,1-1,2.1-1.6,3.3-1.3,2.8-2.8,6-4.4,8.6-1.5,2.3-2.5,3.1-2.9,3.4-9.6-8.8-19-18.3-28.1-27.5-2.3-2.3-4.6-4.7-7-7.1l37.4-37,6.1-6.1-6.5-5.7c-4.3-3.7-9.2-6-13.5-8-4.4-2.1-8.2-3.8-11-6.8-5.6-6.1-4.8-11.9-3.1-15.7,2.7-6.1,9.1-10.5,15.3-10.5s8.7,2.3,12.4,6.7c1.6,1.9,3,5.2,4.5,8.4,1.9,4.3,3.9,8.8,7.1,12.4,2.3,3.2,5.6,3.6,6.9,3.6s1.5,0,2.2-.3l2.1-.5,1.5-1.5L109.1,9.7M109.1.2c-1,0-1.9.4-3,1.2l-40.2,39.8c0,0-.1,0-.2,0-.4,0-.5-.4-.7-.6-4.8-5.1-6.9-15-11.6-20.8-5.6-6.9-12.2-9.7-18.6-9.7-18,0-33.8,22.6-18.1,39.6,7,7.6,17.5,8.8,25.1,15.4L1.4,105.4c-1.1,1.3-.9,3.3-.3,4.8,13.2,13.2,26,26.9,39.9,39.4,1.5.8,2.9,1.1,4.2,1.1,8.2,0,13.1-13.8,16.1-19.9,3.7-7.4,10.2-13,18.7-13.6.7,0,1.3,0,1.9,0,20.1,0,23.4,25.3,7.5,35.9-7.2,4.8-31.7,11.1-21.3,24.1l37.8,37.4c1,.7,1.9,1,2.8,1s1.9-.4,3-1.2l40.2-39.8c.1,0,.2,0,.3,0,.3,0,.2.3.3.5,7,9.8,8.6,22.4,20.5,28.2,3.4,1.7,6.9,2.4,10.2,2.4,17.1,0,31.3-19.6,20.6-36.2-5.7-8.8-13.1-10.1-21.6-14.9-.8-.5-5.6-3.2-5.8-3.5-.3-.5.1-1.1.4-1.5,1.6-1.8,4.4-4.4,6.2-6.2,11.1-11.1,22.5-21.8,33.4-33.1,1-1.2.9-3.1.5-4.6-11-11.3-22.1-22.6-33.6-33.4-1.9-1.8-3.8-4.4-6.1-5.9-1.7-1.1-3.3-1.6-4.8-1.6-9.3,0-14.5,18.8-18.6,24.5-4.2,5.6-11.3,9.2-18.3,9.2s-8.3-1.3-11.6-4.1c-9.7-8.2-6.2-23.7,3-30.8,6.9-5.3,33.4-11.7,22.6-25L111.9,1.2c-1-.7-1.9-1-2.8-1h0Z"/>
</svg>