<?xml version="1.0" encoding="UTF-8"?>
<svg id="Layer_1" xmlns="http://www.w3.org/2000/svg" version="1.1" viewBox="0 0 217.1 211.5">
  <!-- Generator: Adobe Illustrator 29.7.0, SVG Export Plug-In . SVG Version: 2.1.1 Build 138)  -->
  <defs>
    <style>
      .st0 {
        fill: #fff;
      }
    </style>
  </defs>
  <path class="st0" d="M3.1,97.2C4.3,67.7,15.4,19,44.9,4.9c30.8-14.7,55,18.5,62.6,44.4,1,.2.6,0,.9-.6,2.6-5.8,4.4-11.7,7.5-17.4,20.3-36.9,54.5-41.3,77.7-4.1,26.5,42.5,26.2,126.7-5.9,166.4s-17.3,16.3-28.2,17.4h-7c-2.6-.6-5.2-1.1-7.7-1.9-18.6-6.2-30.8-28.5-36.7-46-.9-.2-.5.4-.7.9-6.6,17.4-17.4,38.7-36.4,45.1s-5.1,1.3-7.7,1.9h-7c-3.1-.7-6.2-1.3-9.1-2.5-26.5-10.8-38.9-50-42.4-75.9l-1.7-17.3c.2-6-.3-12,0-18ZM25.6,148.4c6.1,25.3,29.3,67.2,54.9,31,24.5-34.7,24.3-107,2.3-142.9C62.4,3.1,41,22.9,30.2,50c-7.5,18.8-9.9,40.1-9.5,60.3,2.1-.9,3.8-2.1,5.9-2.9,18.6-6.3,35.2,13.1,26.5,30.6s-17.1,14.4-27.5,10.4ZM121.8,148.4c5.6,24.8,28.9,66.8,54.3,31.6,25.5-35.2,25.7-115.5-1.6-149.7-13.4-16.9-27.4-13.9-39.2,2.5s-15.7,35.2-17.6,52.4c-.4,3.3-2,23.7-.9,25.1,17.1-11.7,39.3,3.5,33.8,23.7-3.4,12.3-17,19-28.8,14.3Z"/>
</svg>