<?xml version="1.0" encoding="UTF-8"?>
<svg id="Layer_1" xmlns="http://www.w3.org/2000/svg" version="1.1" viewBox="0 0 720 720">
  <!-- Generator: Adobe Illustrator 29.7.0, SVG Export Plug-In . SVG Version: 2.1.1 Build 138)  -->
  <path d="M168.3,719c3.2-5.7,7.7-10.5,13-14.3,8.1-5.8,25.7-10.3,30.3-14.4,2.4-2.2,3.9-6.5,4.3-9.7l-.3-156.4c-55.2-62.7-63-136.6-34.3-214,8.1-21.9,33.9-54.1,2.4-68.9-34.3-16.2-77.4-16.3-113.9-20.4-22.5-2.6-48.6-29.5-52.6-51.6h23.1c2.8,0,11.7-4.8,14-7,12.4-11.9,6.3-32.2,7.8-47.5,18.3-3.2,38.7-7.7,52.4-21.1,17.2-16.8,32.8-58.7,52.9-68.8,20.6-10.3,92.2-23.6,115-22.2,39,2.5,63.2,60.9,69.9,93.8,7.1,34.7,14.4,86.4-29.2,98.1-17.1,4.6-54.3,5.5-56.9-17.7-3.1-27.8,2.6-60.8-.3-89.2-6.6-13.3-23.2-10-24.9,5.3-2.3,20.6-1.9,67.1,0,88.2,3.5,40.6,54,43.9,85.4,39.8,3,16.2.4,39,16.3,48.8,16.3,10,29.8,11.3,46.7,26.1,51.2,44.7,116.3,183.6,135,249.7,9.1,32.2,5.5,83.7,51.8,81.2,35.8-2,84.9-28.6,107.7-56,10.7-12.9,14.3-24.6,21.5-38.6.7-1.4-.7-2.7,2.9-2,8.2,37.2,10.4,68.3-11.7,100.9-31.3,46.1-87.3,62.4-140.8,63.4-7.2,5.3-9.6,13.6-19.1,17.3l-20,7.3h-26.6c6.3-10.1,13.8-37.1-4.9-37.9-14.5-.6-11.9,9.3-14.8,18.9-2.8,9.3-9.5,15.1-18.1,19h-176.3c13.2-15.9,32.7-22.4,52.6-25,11-1.4,29.8,2.8,27-16.2-1.4-9.7-10.4-9-16.8-12.6-69.9-39.6-25-168.9,62.2-155.9,9.7,1.4,22.4,10.7,29.5-.2,14.5-22.2-31.6-26.9-44.8-26.6-90.9,1.9-139.4,124.1-80.4,190.3-25.2,4.5-48.7,22.8-58.8,46.2h-78.3ZM352.6,310.8c-6.9,1.6-10.3,9.4-8.1,15.8,1.8,5.2,23.9,28.1,29,31.2,14.1,8.8,26.9-4.7,18.7-17.3-1.5-2.2-26.8-27.7-28.6-28.7-3.3-1.9-7.3-1.9-11-1Z"/>
  <path d="M475.7,63.1c6.7-1.4,32,12.3,39.1,16.3,77.6,43.8,133.3,125.2,145.7,213.8,1.5,10.4,4.6,34.9,2.7,44.2-2.5,12.6-18.8,14.5-24.6,2.8-.7-95.2-46.7-183-127.7-233.2-13.6-8.4-28-14.6-41.9-22.5-6.2-7-2.4-19.6,6.7-21.5Z"/>
  <path d="M450.5,109.3c7.7-1.7,21.2,5.2,28.4,8.7,64.6,31.8,113.7,96.4,128.2,167,2.4,11.9,8,47.1,3.1,56.7-5,9.7-19,7.7-23-1.8.3-75-36-145.7-98.7-186.7-14-9.1-29.4-15.1-43.9-23.3-4.5-6.5-2.9-18.7,5.8-20.6Z"/>
  <path d="M539.5,345c-6.5-6.1-3.7-20.2-4.8-28.1-7.4-54.2-37.9-101.6-86.1-127.9-10.4-5.7-33.8-10.3-30.1-24.9,4.8-19.2,31.1-3.7,41.8,2,59.7,32.2,99,96.6,101.3,164.6.4,13.2-11.8,23.8-22,14.3Z"/>
  <path d="M404.4,200.2c7.5-1.4,30.7,10.2,38,14.5,33,19.8,58.6,56.2,65.2,94.2,2,11.7,7.7,41.4-12.3,39-14-1.7-10.8-21.3-12.7-32.2-6.8-40.7-32.2-69.3-68.6-86.7-6.1-2.9-13.6-2.8-17.7-8.8-5.3-7.7-1.1-18.3,8-20Z"/>
  <polygon points="36.8 121.6 36.8 144 11.7 144 11.7 127.3 36.8 121.6"/>
</svg>