<?xml version="1.0" encoding="UTF-8"?>
<svg id="Layer_1" xmlns="http://www.w3.org/2000/svg" version="1.1" viewBox="0 0 217.1 211.5">
  <!-- Generator: Adobe Illustrator 29.7.0, SVG Export Plug-In . SVG Version: 2.1.1 Build 138)  -->
  <defs>
    <style>
      .st0 {
        fill: #fff;
      }
    </style>
  </defs>
  <path class="st0" d="M72.7,9.1c6.3,1.5,10.3,5.4,13.3,10.9,10.2-.2,19.5,0,28.5,5.2,7.7,4.5,12.2,11.9,17.4,18.9h38.2c13.8,2.5,18,13.7,12.1,25.9-7.1,14.6-20.5,27.2-36.3,31.7,5.9,4.6,14.6,6,14.6,15.3,0,15.7-30.1,14.8-40.5,14.1s-6.4-1.3-7.2-.4l-20.5,65.7c-2.5,7-10.8,3.8-16.3,2.6-24.6-5.4-58-20.9-73.8-41-1.8-2.3-2.3-3.7-1.6-6.7l31.6-87.5c.2-1.5-2.4-3.7-3.3-5.3-7.2-13.3,7.2-27.1,16.4-35.4,6.2-5.6,13.9-11.5,21.9-14.1h5.5ZM69.2,21.9c-2,.3-7.2,4.2-9.1,5.6-6.1,4.6-12.4,10.5-17,16.6s-5.3,6.8.4,12.2,20.7,15.3,28.4,13.3,5.2-9.1,5.5-12.6c.5-7.4-.8-25.1-3.3-32s-2.2-3.4-4.8-3ZM97.7,32.7c-3-.3-6.4.2-9.5,0,2.3,14.1,5.3,42.9-12.1,48.7-10.9,3.6-24.4-3.3-33.1-9.6l-19,52.3c14.3,22.1,40.1,34,65.3,38.9l14-43.2c.7-1.1,2.6-2.6,3.8-2.9,3-.6,10.2,1.3,13.8,1.6,5.1.4,11.7.5,16.8,0,2.8-.3,5.6-.9,8.3-1.6l-24-14.1c-2.2-2.2-2.4-6.4-.4-8.7s8.4-2,11.9-2.5c9.3-1.2,18.8-4.9,25.5-11.5-7.6-5.1-12.6-14.1-12.2-23.3-5.9-.4-12.5.6-18.3,0-1.8-.2-3.1-.7-4.4-1.9-3.6-3.4-7-10.3-10.5-14.3s-10-7.3-15.8-7.8ZM169.7,56.7c-2.7-.6-7.3.4-10.3,0-.4,5.3,3.2,11.5,8.2,13.5,1.2-2.9,6-8.5,4.4-11.5s-1.7-1.8-2.3-1.9ZM85.7,175.3c-20.6-4.2-41.4-12.7-57.2-26.7-3.3-2.9-6-6.4-9.1-9.4s-.4-.6-1-.4l-4.4,13.5c18.3,18.7,42.6,29.8,67.9,35.3l3.8-12.2Z"/>
  <path class="st0" d="M215.8,106.3v2.9c-1.1,2.3-2.6,4.5-5.4,4.9-3.4.6-14,.5-17.6.1-7.8-.8-8-11.8-.8-12.6s15.5-.5,18.9,0c2.4.4,4,2.5,4.9,4.6Z"/>
  <path class="st0" d="M205.6,66.5c5.6-1,9.4,4,7,9.1s-11.7,12.6-13.2,13.7c-5.6,3.7-12.3-1.8-9.4-8.1s10.5-11.4,12.4-12.9,2-1.6,3.3-1.8Z"/>
  <path class="st0" d="M193.8,125.3c2-.4,3.8-.2,5.6,1s11.1,10.6,12.4,12.4c4.4,6.2-1.5,13-8,9.7s-11.7-10.9-13-12.7c-2.6-3.7-1.7-9.4,3-10.4Z"/>
  <path class="st0" d="M105.3,51.9c8.3,0,8.2,12.6,0,12.6-8.3,0-8.3-12.6,0-12.6Z"/>
</svg>