<?xml version="1.0" encoding="UTF-8"?>
<svg id="Layer_1" xmlns="http://www.w3.org/2000/svg" version="1.1" viewBox="0 0 720 430">
  <!-- Generator: Adobe Illustrator 29.7.0, SVG Export Plug-In . SVG Version: 2.1.1 Build 138)  -->
  <defs>
    <style>
      .st0 {
        stroke-width: 5.5px;
      }

      .st0, .st1, .st2 {
        fill: none;
        stroke: #fff;
        stroke-miterlimit: 10;
      }

      .st1 {
        stroke-width: 4.9px;
      }

      .st2 {
        stroke-width: 4.4px;
      }

      .st3 {
        fill: #1d1d1b;
      }

      .st4 {
        fill: #fff;
      }
    </style>
  </defs>
  <path class="st3" d="M421.5,245.1c-.3,1.6-.4,2.7-.6,3.8-3,.4-4-1.4-5-2.7-13.7-.1-76.5.7-89.7,2.7-10.1,1.5-20.3,2.6-30.5,3.2-2.1.1-4.1,0-5.3-1.7-.5-.7-.9-1.8-.6-2.4.4-.6,1.7-1,2.6-1.1,5-.4,10.1-.5,15.1-.9,6-.5,11.9-1.3,17.8-1.9,4.6-.5,58.6-1.1,63.3-1.4,5.4-.4,10.9-.6,16.3-.9,3.2-.2,6.3-.5,9.6-.7,1.2-10-1-19.5-1.7-29.2-1.1-.1-2-.2-2.9-.3-9.5-.5-18.9.8-28.3,1.5-5,.4-59.5.3-64.6.6-5.9.3-11.7.6-17.6,1-1.2,0-2.3.4-3.2.6-.9,10.1,2.2,19.8,1.6,29.6-3.2,0-5.4-1.7-5.5-4.3-.5-7.2-.9-14.4-1.4-21.6,0-1.1-.2-2.3-.3-3.5-1.8-.3-3.6-.4-5-1-.9-.4-1.5-1.5-2.2-2.4,1.4-2.5,4.1-1.4,6-2,1.6-2.8,2.6-3.1,5-1,1.2,1,2.4.9,3.6.8,6.6-.4,13.3-.9,19.9-1.3,6.9-.4,63.2-.7,70.2-1.1,6.8-.3,13.6-.6,20.3-.9,1.2,0,2.4,0,3.6-.1,3.9-.3,6.2,1.5,6.4,4.9.7,8.9,1.4,17.8,2.1,26.7,0,.5.3,1.1.6,2,2.8-.2,5.5-.4,8.2-.6,3-.3,5.2.7,5.8,3,.4,1.5-.3,2.5-2.2,2.5-3.8,0-7.7,0-11.7,0"/>
  <path class="st3" d="M363,169.1c-.4,1.2-.8,2.4-1,3.6-.4,3.7-1.5,7.2-2.9,10.6-.4,1-.6,2-.9,3.1-2.4-2.4-10.4-20.5-11.3-25.6,1.7,2.1,3.1,3.9,4.6,5.8.3.4.7.9,1,1.2.2.2.6.4.9.5.2,0,.6-.1.7-.3.2-.3.3-.6.4-1,.7.5,1.5,1.4,2,1.3.9-.3,1.9-1.1,2.5-1.9,1.9-2.5,3.5-5.2,5.3-7.7.5-.7,1.1-1.3,1.7-2,.2.1.5.3.7.4-1.2,4-2.5,8-3.7,12M347.3,96.6c.2,0,.3-.1.5-.2.7,1.9,1.4,3.8,2.2,5.6.4,1,.4,2.6,1.8,2.7,1.4.2,2.1-1.2,2.6-2.3,1.1-2.4,2.1-4.9,3.1-7.4.5-1.3,1.1-2.6,1.9-3.7-1,11.2-2.3,22.4-3,33.7-.7,11.3-.9,22.5-1.6,33.9-2.5-20.8-5-41.6-7.6-62.4M370,148.1c-.8-.6-1.5,0-2,.8-.1.1-.2.3-.2.5-.6,2.1-2.2,3.5-3.4,5.1-1.8,2.2-3.4,4.6-5.1,6.9-.3.5-.7.9-1.4,1.7,0-.9-.2-1.3-.2-1.7,0-2.5.2-5,.3-7.5.2-8,.2-16.1.7-24.1.7-10.5,1.8-21,2.8-31.6.5-5.2.9-10.3,1.4-15.5,0-.4.1-.8,0-1.1-.2-.5-.6-1.3-1-1.4-.4-.1-1.2.3-1.5.7-.5.5-.7,1.2-1,1.9-1.9,5.1-3.7,10.3-5.6,15.4-.3.8-.8,1.6-1.2,2.6-.3-.3-.4-.4-.4-.5-2-4.3-4-8.6-6-12.9-.2-.4-.9-.9-1.4-.9-.3,0-.9.6-1,1-.2.8-.1,1.6,0,2.4.7,4.7,1.5,9.4,2.1,14.1,1.1,8.5,2.1,17.1,3.1,25.6,1.1,9,2.1,18,3.1,26.9.2,2.2.5,4.3.7,6.5-3-2.7-5.3-5.7-7.3-9-.4-.6-.7-1.3-1.2-1.7-.6-.4-1.4-.4-2.2-.6-.2.7-.6,1.5-.5,2.1.4,1.7,1,3.5,1.6,5.1,3.8,9.1,7.6,18.2,11.5,27.2.8,1.9,1.8,3.7,2.7,5.5,2-.1,3-1.2,3.4-2.9.7-2.8,1.5-5.5,2.2-8.3.4-1.5.7-3,1.1-4.4.6-2.4,1.2-4.9,1.8-7.3,1.2-4.4,2.4-8.8,3.5-13.2.5-1.8.9-3.6,1.2-5.5,0-.6,0-1.5-.5-1.8"/>
  <path class="st3" d="M361.7,78.5h0c-1,0-2,.6-2.6,1.3-.6.7-1,1.6-1.3,2.4-.9,2.4-1.8,4.9-2.7,7.3-.9,2.5-1.8,5.1-2.8,7.6-.1-.3-.2-.5-.4-.8-1.5-3.2-3-6.4-4.5-9.6-.5-1-1.8-1.7-2.7-1.8h0s-.1,0-.1,0c-1.3,0-2.4,1.4-2.5,2.3-.2.8-.2,1.8,0,2.9.3,1.9.6,3.7.8,5.6.4,2.8.9,5.7,1.2,8.5,1.1,8.7,2.2,17.4,3.1,25.6.9,7.4,1.8,15,2.6,22.4l.5,4.6c0,.6.1,1.3.2,1.9-1.4-1.7-2.7-3.5-3.9-5.5,0-.1-.1-.2-.2-.3-.3-.6-.8-1.4-1.5-1.9-.7-.4-1.4-.6-2.1-.7-.2,0-.4,0-.6-.1l-1.6-.4-.4,1.6c0,.1-.1.3-.2.5-.2.6-.5,1.4-.3,2.3.4,1.8,1,3.6,1.7,5.4,3.6,8.7,7.5,17.8,11.5,27.2.6,1.3,1.2,2.6,1.9,3.9.3.6.6,1.1.9,1.7l.5.9h1.1c2.6-.2,4.2-1.6,4.9-4.2.4-1.5.8-3.1,1.2-4.6.3-1.2.7-2.4,1-3.6.2-.9.5-1.9.7-2.8.1-.6.3-1.1.4-1.7.1-.6.3-1.2.4-1.8.4-1.8.9-3.7,1.4-5.5.5-2,1.1-4.1,1.6-6.1.6-2.3,1.3-4.7,1.9-7.1.5-2,.9-3.9,1.2-5.6.1-.9,0-2.6-1.1-3.4-.5-.3-1-.5-1.6-.5-1,0-1.9.6-2.7,1.7-.2.2-.4.6-.5,1-.3,1.2-1.2,2.2-2.1,3.3-.3.4-.7.8-1,1.2-1.2,1.5-2.4,3.1-3.5,4.7,0,.1-.2.2-.3.3,0-.3,0-.6,0-.9,0-1.2,0-2.5.1-3.7,0-2.5.1-5.1.2-7.6.1-5.4.2-11,.6-16.4.5-7.3,1.2-14.7,1.9-21.8.3-3.2.6-6.5.9-9.7.4-4.9.9-9.8,1.3-14.7v-.9c0,0,0-.1,0-.2,0-.4.1-1-.2-1.7h0c-.3-.8-.9-2-2-2.3-.2,0-.3,0-.5,0M361.7,80.1c0,0,0,0,.1,0,.4,0,.7.9,1,1.4.1.3,0,.7,0,1.1-.5,5.2-.9,10.3-1.4,15.5-.9,10.5-2.1,21-2.8,31.6-.5,8-.5,16.1-.7,24.1,0,2.5-.2,5-.3,7.5,0,.4,0,.8.2,1.7.6-.8,1-1.2,1.4-1.7,1.7-2.3,3.4-4.6,5.1-6.9,1.3-1.6,2.9-3,3.4-5.1,0-.2.1-.3.2-.5.4-.5.8-1,1.4-1s.4,0,.6.2c.4.3.6,1.2.5,1.8-.3,1.8-.7,3.7-1.2,5.5-1.1,4.4-2.4,8.8-3.5,13.2-.6,2.4-1.2,4.9-1.8,7.3-.4,1.5-.7,3-1.1,4.4-.7,2.8-1.5,5.5-2.2,8.3-.4,1.8-1.4,2.8-3.4,2.9-.9-1.8-1.9-3.6-2.7-5.5-3.9-9.1-7.7-18.1-11.5-27.2-.7-1.6-1.2-3.4-1.6-5.1-.1-.6.3-1.4.5-2.1.7.2,1.6.2,2.2.6.6.4.9,1.1,1.2,1.7,2,3.3,4.3,6.3,7.3,9-.2-2.2-.4-4.3-.7-6.5-1-9-2.1-18-3.1-26.9-1-8.5-2-17.1-3.1-25.6-.6-4.7-1.4-9.4-2.1-14.1-.1-.8-.2-1.6,0-2.4,0-.4.7-1,1-1s0,0,0,0c.5,0,1.2.5,1.4.9,2,4.3,4,8.6,6,12.9,0,0,.1.1.4.5.4-.9.9-1.7,1.2-2.6,1.9-5.1,3.7-10.3,5.6-15.4.2-.7.5-1.4,1-1.9.3-.4.9-.8,1.4-.8"/>
  <path class="st3" d="M700.8,176.7c-7.9.5-7.9.8-15,1.4-9.8.7-6.9,1.7-16.8,2.4-10.9.9-14.7,1.7-25.5,2.5-10.2.7-20.4,1.2-30.6,1.7-10.7.5-21.4,1.8-32.2.8-11-1-22-1.4-33.4-2.1.1.3-.2,0-.2-.3,0-9.9,0-19.7.2-29.6,0-4,.8-4.6,5.2-5,2.5-.2,5.1,0,7.6,0,1.9,0,3.7,0,5.6,0,5.9,0,40.1-.1,46,0,1.5,0,2.7-.6,3.2-1.6.3,0,.6,0,.9,0,5.3,0,10.6-.4,15.8.3,11.6,1.7,16,.5,27.6,0,8.3-.3,9.7-.7,18,0,9,.7,12.3,1.3,21.4,0,.4,0,.6,0,.8-.1,0,0,.4,0,1.3,0v29.8ZM710.4,178.6c-3-2.7-3.4-5.8-3.3-9.4.1-4.3,0-8.6,0-12.8,0-3.1,0-6.1,0-8.6,2-.8,4-.9,4.4-1.8.4-1-.4-2.7-.9-4-.3-.7-.8-1.5-1.5-2-1.8-1.2-2.5-2.8-2.9-4.9-.4-2-1.1-4.2-3.6-5.1-3.9,2.2-.7,6.3-2.9,9.2-8.2.4-9.6,1.2-18.1,1.2-14,.1-15.2-.3-29.2-.3-7,0-6.9.4-13.9.3-5.1,0-10.2-.7-15.3-.9-3.3-.1-6.6,0-9.8,0,0-.1,0-.2-.1-.3-.4-.9-1-2.1-1.9-2.5-1.4-.6-2.6.1-3.1,1.7-.3.7-.6,1.4-.9,2-2.8.2-33.6.6-36.2.7-4.7.2-9.5.2-14.2.3-4.3,0-8.8-.6-12.7.5-3.4,1-12.5,6.9-6.7,7.3,2,.1,3.4.3,3.4,2.5,0,8.4.2,16.7.2,25.1,0,2.4-.4,4.8-.6,6.9-3.7,1.5-4.5,5.8-1.2,5.4,2.4,2.2,2.9,4.6,2.7,7.4-.3,3.6.6,4.4,4.6,5.5.6-3.4,1.1-6.7,1.7-10.1.9-.3,1.7-.8,2.5-.8,7.1.1,14.3-.2,21.4.6,10,1.1,20.1,1.7,30.1,1,10.8-.8,21.6-1.9,32.5-2.7,11.9-.9,16.7-1.2,28.6-2.4,18.5-2,17.2-3.8,35.8-3.5.8,0,1.8.1,2.3.6,2.2,2.3,4.2,3.8,6-.3.1-.3.9-.4,1.3-.6,3.5-1.7,4.1-2.8,1.4-5.3"/>
  <path class="st4" d="M267.9,10.6c-3.8,1.8-1.6,3.9-.6,6,7.5,15.6,11,31.2-.2,46.8-.1.2-.2.3-.3.5-1.7,2.1-1.4,4.1.2,6.1,2.9,3.6,6.3,6.3,12.1,5.3,2.7-.5,5.5-.6,8.2-.9,12.9-1.1,25.8-2.2,38.8-3,5.1-.3,10.2.5,15.3.3,16.6-.6,78.9-1.4,95.4-2.3,1.8,0,3.6-1,5.3-1.7,4.1-1.7,4.5-3.8,1.7-6.9-1.2-1.3-2.9-2.3-3.7-3.7-7.4-13.8-9.4-27.9-3.2-42.5,1.4-3.3-.2-7.3-3.9-8.1-4-.8-7.9-2.1-12.4-1.1-7.4,1.6-14.9,3.1-22.5,3.7-13.3,1.1-72.5,1.5-85.9,2.2-7.2.4-14.4.6-21.6,1-4.8.3-7.6-1.7-8.9-5.5-1.1-3.3-3.9-3.8-7.1-3.7-3.2,3.8,2.2,5.9,1.9,9.4-2.9-.7-5.5-1.3-8.6-2"/>
  <path class="st3" d="M276.8,67.2c2.3,0,3.5-.1,4.7-.2,14.2-1.2,28.4-3.4,42.6-3.2,18.8.2,83.1-1,101.8-1.9,2.5-.1,5-.5,8.2-.9-4.9-7.6-7.4-15.3-8.9-23.2-1.5-7.9-.6-15.9,1.1-24.4-4.1.5-7.5.8-10.8,1.4-7.3,1.4-60.2,3.3-67.8,2.5-1-.1-2.1,0-3.2.1-9.1.6-18.2,1.3-27.3,1.8-7.4.4-14.8.5-22.2.8-1.4,0-2.8,0-4.1,0v9.1c-4.5-.5-6.7-2.1-7-5.6-.3-3.2-2.6-3.8-5.1-2.9,1.4,8.1,2.4,15.8,4,23.5,1.7,8.2-3,15.2-6,23.2M267.9,10.6c3.1.7,5.7,1.3,8.6,2,.4-3.5-5-5.7-1.9-9.4,3.2-.1,6,.4,7.1,3.7,1.3,3.8,4.1,5.8,8.9,5.5,7.2-.4,14.4-.7,21.6-1,13.4-.7,72.5-1.1,85.9-2.2,7.6-.6,15.1-2.1,22.5-3.7,4.5-1,8.4.3,12.4,1.1,3.7.7,5.3,4.8,3.9,8.1-6.3,14.6-4.2,28.7,3.2,42.5.8,1.4,2.5,2.4,3.7,3.7,2.8,3.1,2.4,5.1-1.7,6.9-1.7.7-3.5,1.6-5.3,1.7-16.6.9-78.9,1.7-95.4,2.3-5.1.2-10.2-.6-15.3-.3-12.9.8-25.8,2-38.8,3-2.7.2-5.5.4-8.2.9-5.8,1-9.2-1.7-12.1-5.3-1.6-2-1.9-4-.2-6.1.1-.2.2-.3.3-.5,11.2-15.5,7.7-31.2.2-46.8-1-2.1-3.3-4.2.6-6"/>
  <path class="st4" d="M276.8,67.2c3-7.9,7.7-15,6-23.2-1.6-7.7-2.7-15.5-4-23.5,2.5-.9,4.8-.3,5.1,2.9.3,3.6,2.5,5.1,7,5.6v-9.1c1.4,0,2.7,0,4.1,0,7.4-.2,14.8-.4,22.2-.8,9.1-.5,18.2-1.2,27.3-1.8,1.1,0,2.2-.3,3.2-.1,7.6.9,60.5-1.1,67.8-2.5,3.3-.6,6.6-.9,10.8-1.4-1.7,8.5-2.6,16.4-1.1,24.4,1.5,7.9,4,15.6,8.9,23.2-3.2.4-5.7.8-8.2.9-18.7.9-83,2.1-101.8,1.9-14.2-.1-28.4,2.1-42.6,3.2-1.2,0-2.4.1-4.7.2"/>
  <path d="M299.5,38.5c.2.1.2.3.2.6s0,.5-.2.6c-.2.1-.4.2-.6.2h-.2v4c.1.3,0,.5-.1.6-.2.2-.4.2-.7.2s-.5,0-.6-.2c-.2-.1-.2-.3-.3-.6v-4.1c-.1,0-5.5,0-5.5,0l-.4,4.4c0,.4-.3.6-.9.6s-.9-.3-.9-.8l.3-4.3h-.3c-.2,0-.4,0-.5-.2-.2-.1-.2-.3-.2-.6s0-.5.2-.6c.2-.1.4-.2.6-.2h.3l.4-5.5c0-.2.1-.4.3-.6.2-.1.4-.2.6-.2s.5,0,.7.2c.1.2.2.4.2.6l-.4,5.4h5.2c0,0-.2-5.4-.2-5.4,0-.3,0-.5.2-.6.2-.2.4-.2.7-.2s.5,0,.6.2c.2.1.2.3.3.6l.2,5.6h.3c.2,0,.4,0,.6.2"/>
  <path d="M308.2,42.6c.5-.5.8-1.3.8-2.3s-.1-1.2-.4-1.7c-.2-.5-.6-.9-1-1.2-.5-.3-1-.4-1.6-.4-.9,0-1.6.3-2.1.9-.5.6-.8,1.4-.8,2.4s.3,1.8.8,2.3c.6.5,1.2.7,2.1.7s1.6-.3,2.1-.8M302.7,43.7c-.9-.7-1.3-1.8-1.3-3.3s.2-1.8.6-2.5c.4-.7.9-1.3,1.6-1.7.7-.4,1.5-.6,2.4-.6s1.7.2,2.5.6c.7.4,1.3.9,1.7,1.7.4.7.6,1.6.6,2.5,0,1.4-.4,2.5-1.3,3.3-.8.8-2,1.1-3.4,1.1s-2.5-.4-3.4-1.1"/>
  <path d="M323.5,36.9c.5.7.7,1.8.7,3.1v4.1c0,.2-.1.4-.2.5-.1.1-.3.2-.6.2s-.5,0-.6-.2c-.2-.1-.2-.3-.2-.5v-4c0-1-.1-1.8-.3-2.2-.2-.4-.6-.7-1.1-.7s-.8.3-1.1.9c-.3.6-.4,1.3-.4,2.2v3.9c0,.5-.3.7-.8.7s-.9-.2-.9-.7v-3.1s0-.8,0-.8c0-.8-.1-1.5-.4-2.1-.3-.6-.7-.9-1.2-.9-.7,0-1.3.8-1.6,2.4,0,.5-.1,1.2-.1,2.2v2.3c0,.2,0,.3-.2.5-.2.1-.3.2-.6.2s-.5,0-.6-.2c-.2-.1-.2-.3-.2-.5,0-2.6,0-4.6,0-6,0-.3,0-.5,0-.6,0-.1-.1-.3-.2-.3,0,0,0,0-.1-.1,0,0,0-.1,0-.2,0-.2,0-.4.2-.5.2-.1.3-.2.5-.2s.4.2.6.5c.2.3.3.6.3,1v.2c.2-.6.5-1,.9-1.4.4-.3.9-.5,1.4-.5,1.1,0,1.9.6,2.3,1.8.2-.6.5-1,1-1.3.4-.3,1-.5,1.6-.5,1.1,0,1.9.4,2.3,1.1"/>
  <path d="M333.5,39.4c0,0,.1,0,.2,0,0,0,0-.1,0-.2,0-.6-.3-1.1-.8-1.5-.5-.4-1.2-.6-2-.6s-1.1.1-1.6.4c-.5.3-.8.6-1.1,1-.3.4-.4.7-.4,1h5.6ZM328.5,44.2c-.7-.4-1.2-1-1.6-1.7-.4-.7-.5-1.5-.5-2.3s.2-1.6.6-2.3c.4-.7.9-1.3,1.6-1.7.7-.4,1.5-.6,2.4-.6s1.5.2,2.2.5c.6.3,1.1.8,1.5,1.4.4.6.5,1.3.5,2s0,.7-.2.9-.4.3-.7.3h-6.4c0,.5.1.9.4,1.3.2.4.6.8,1.1,1,.5.3,1,.4,1.6.4s.8,0,1.1-.2c.3-.1.6-.3.8-.4s.4-.4.7-.7c.1-.1.3-.2.5-.2s.4,0,.5.2.3.3.3.5,0,.3-.2.4c-.3.5-.8.9-1.3,1.2-.6.4-1.3.5-2.3.5s-1.9-.2-2.6-.6"/>
  <path d="M354.9,40.7c0,1.4,0,2.5,0,3.3s0,.5-.2.6c-.1.2-.4.2-.6.2s-.5,0-.7-.2c-.2-.1-.2-.3-.2-.6v-5c0-1.6,0-2.8-.2-3.6-.1-.8-.3-1.2-.5-1.2s-.4.3-.7.8c-.3.5-.5,1-.7,1.6-.3.7-.6,1.8-.9,3.1-.1.4-.4.7-1,.7s-.9-.2-1-.6c0-.2-.2-.6-.3-1-.2-.9-.5-1.7-.7-2.2-.2-.6-.4-1.1-.7-1.6-.3-.5-.5-.8-.7-.8-.3,0-.5,1.6-.6,4.7,0,.6,0,1.4,0,2.5v2.7c0,.2,0,.4-.2.5-.2.1-.4.2-.7.2s-.5,0-.7-.2c-.1-.2-.2-.4-.2-.7,0-.6,0-1.5,0-2.6v-2.4c0-2.3.2-4.1.5-5.1.3-1.1.9-1.6,1.6-1.6s1.6.5,2.1,1.6c.5,1.1,1,2.5,1.4,4.1.4-1.5.9-2.8,1.5-4,.6-1.2,1.4-1.7,2.2-1.7s.9.3,1.2.8.5,1.3.6,2.3c.1,1,.2,2.2.2,3.8v1.7Z"/>
  <path d="M363.4,39.5c0-.5-.1-.9-.3-1.2-.2-.3-.5-.5-.8-.7-.3-.1-.6-.2-.9-.2-.5,0-1,.2-1.4.5-.4.3-.6.7-.8,1.2-.2.5-.3,1-.3,1.5,0,.8.2,1.5.6,2.1.4.6,1,.9,1.7.9s1.1-.2,1.5-.5c.4-.3.6-.8.6-1.4,0-.5,0-1.3,0-2.2M366.1,43.5c.1,0,.2.3.2.5s0,.4-.2.5c-.1.1-.3.2-.4.2-.5,0-.8,0-1.1-.2-.2-.1-.5-.4-.7-.8-.5.8-1.4,1.2-2.8,1.2s-2.4-.4-3-1.2c-.6-.8-1-1.9-1-3.1s.2-1.6.5-2.3c.3-.7.8-1.2,1.5-1.7.6-.4,1.4-.6,2.2-.6s1,.1,1.4.3c.4.2.7.5.9.9v-.4c.1-.4.4-.6.8-.6s.5,0,.7.2c.1.1.2.3.2.5-.1.9-.2,1.6-.2,2,0,.4,0,1,0,1.7v1.2c0,.6,0,1,0,1.3,0,.2.2.4.5.4.2,0,.3,0,.4.2"/>
  <path d="M375.3,36.8c.5.7.8,1.8.8,3.2v4.1c0,.2,0,.4-.2.5-.2.1-.4.2-.6.2s-.5,0-.7-.2c-.2-.1-.3-.3-.3-.5v-4.1c0-1,0-1.7-.3-2.1-.2-.4-.6-.7-1.2-.7-1.1,0-1.8.8-2.1,2.5-.1.5-.2,1.1-.2,1.9v2.5c0,.2,0,.4-.2.5-.2.1-.4.2-.6.2s-.5,0-.7-.2c-.2-.1-.2-.3-.2-.5,0-1.2,0-2.5,0-4.1,0-.9,0-1.6,0-1.9,0-.3,0-.5-.1-.6,0-.1-.2-.4-.4-.7,0-.1,0-.2,0-.3,0-.2.1-.3.3-.5.2-.2.4-.2.6-.2s.4.1.6.4c.3.5.5.9.5,1.3v.2c.2-.6.5-1,1-1.4.5-.4,1.1-.5,1.8-.5s1.8.4,2.3,1.1"/>
  <path d="M384.3,39.5c0-.5-.1-.9-.3-1.2-.2-.3-.5-.5-.8-.7-.3-.1-.6-.2-.9-.2-.5,0-1,.2-1.4.5-.4.3-.6.7-.8,1.2-.2.5-.3,1-.3,1.5,0,.8.2,1.5.6,2.1.4.6,1,.9,1.7.9s1.1-.2,1.5-.5c.4-.3.6-.8.6-1.4,0-.5,0-1.3,0-2.2M387,43.5c.1,0,.2.3.2.5s0,.4-.2.5c-.1.1-.3.2-.4.2-.5,0-.8,0-1.1-.2-.2-.1-.5-.4-.7-.8-.5.8-1.4,1.2-2.8,1.2s-2.4-.4-3-1.2c-.6-.8-1-1.9-1-3.1s.2-1.6.5-2.3c.3-.7.8-1.2,1.5-1.7.6-.4,1.4-.6,2.2-.6s1,.1,1.4.3c.4.2.7.5.9.9v-.4c.1-.4.4-.6.8-.6s.5,0,.7.2c.1.1.2.3.2.5-.1.9-.2,1.6-.2,2,0,.4,0,1,0,1.7v1.2c0,.6,0,1,0,1.3,0,.2.2.4.5.4.2,0,.3,0,.4.2"/>
  <path d="M394.8,42.8c.5-.3.8-.6.9-.9,0-.7-.2-1.6-.4-2.8,0-.1,0-.4-.1-.9-.1-.2-.3-.4-.7-.6-.4-.2-.8-.3-1.2-.3s-.9.1-1.3.4-.7.6-.9,1.1c-.2.5-.3,1-.3,1.5,0,.8.2,1.5.7,2.1s1.1.8,2,.8,1-.1,1.5-.4M397.5,42.2c0,.6.2,1.1.2,1.5,0,.4,0,.7,0,1,0,.9-.2,1.6-.5,2.3-.4.7-.9,1.2-1.5,1.6-.7.4-1.4.6-2.3.6s-1.3-.1-1.8-.4c-.6-.3-1-.6-1.3-1.1-.3-.4-.5-.9-.5-1.5s.3-.7.8-.7.6.2.6.5c.1.5.4.9.7,1.2.4.3.8.4,1.4.4.8,0,1.5-.3,2-.8.5-.5.7-1.3.7-2.3s0-.7,0-1.1c-.3.3-.6.6-1.1.8s-1,.3-1.6.3c-.8,0-1.6-.2-2.3-.6-.7-.4-1.2-.9-1.5-1.6-.4-.7-.5-1.4-.5-2.2s.2-1.6.5-2.3c.3-.7.8-1.2,1.5-1.7.6-.4,1.4-.6,2.2-.6s1.6.2,2.2.7c0-.1.2-.4.3-.8.1-.2.3-.4.6-.4s.4,0,.6.2c.2.1.3.3.3.5,0,0,0,.1,0,.2-.2.6-.3,1-.4,1.2l.6,4.3v.5Z"/>
  <path d="M406.6,39.4c0,0,.1,0,.2,0,0,0,0-.1,0-.2,0-.6-.3-1.1-.8-1.5-.5-.4-1.2-.6-2-.6s-1.1.1-1.6.4c-.5.3-.8.6-1.1,1-.3.4-.4.7-.4,1h5.6ZM401.5,44.2c-.7-.4-1.2-1-1.6-1.7-.4-.7-.5-1.5-.5-2.3s.2-1.6.6-2.3c.4-.7.9-1.3,1.6-1.7.7-.4,1.5-.6,2.4-.6s1.5.2,2.2.5c.6.3,1.1.8,1.5,1.4.4.6.5,1.3.5,2s0,.7-.2.9c-.1.2-.4.3-.7.3h-6.4c0,.5.1.9.4,1.3.2.4.6.8,1.1,1,.5.3,1,.4,1.6.4s.8,0,1.1-.2c.3-.1.6-.3.8-.4s.4-.4.7-.7c.1-.1.3-.2.5-.2s.4,0,.5.2.3.3.3.5,0,.3-.2.4c-.3.5-.8.9-1.3,1.2s-1.3.5-2.3.5-1.9-.2-2.6-.6"/>
  <path d="M416.7,36.4c.4.5.7,1.1.7,1.8s-.2,1.2-.6,1.6c-.4.4-1,.6-1.6.6s-.5,0-.6-.1c-.1,0-.2-.2-.2-.5s0-.3.1-.4c0,0,.2-.1.4-.2.7,0,1.1-.4,1.1-1s0-.6-.3-.8c-.2-.2-.4-.3-.8-.3s-.8.2-1.1.6c-.3.4-.6.9-.8,1.4s-.3,1.1-.3,1.6c0,.9-.1,1.9-.1,3s0,.9-.2,1.1c-.1.2-.3.3-.7.3s-.5,0-.7-.2c-.1-.1-.2-.4-.2-.7,0-.2,0-1.3,0-3.2s0-2.1-.2-3.3v-1.4c-.1-.2,0-.4,0-.5.1-.1.4-.2.6-.2.5,0,.7.2.7.6v1.8c.3-.7.7-1.2,1.1-1.6.5-.4,1-.6,1.7-.6s1.4.2,1.8.7"/>
  <path class="st0" d="M267.9,10.6c3.1.7,5.7,1.3,8.6,2,.4-3.5-5-5.7-1.9-9.4,3.2-.1,6,.4,7.1,3.7,1.3,3.8,4.1,5.8,8.9,5.5,7.2-.4,14.4-.7,21.6-1,13.4-.7,72.5-1.1,85.9-2.2,7.6-.6,15.1-2.1,22.5-3.7,4.5-1,8.4.3,12.4,1.1,3.7.7,5.3,4.8,3.9,8.1-6.3,14.6-4.2,28.7,3.2,42.5.8,1.4,2.5,2.4,3.7,3.7,2.8,3.1,2.4,5.1-1.7,6.9-1.7.7-3.5,1.6-5.3,1.7-16.6.9-78.9,1.7-95.4,2.3-5.1.2-10.2-.6-15.3-.3-12.9.8-25.8,2-38.8,3-2.7.2-5.5.4-8.2.9-5.8,1-9.2-1.7-12.1-5.3-1.6-2-1.9-4-.2-6.1.1-.2.2-.3.3-.5,11.2-15.5,7.7-31.2.2-46.8-1-2.1-3.3-4.2.6-6Z"/>
  <path d="M316,228.6c.2.1.2.4.2.6,0,.8-.2,1.6-.7,2.2-.4.7-1.1,1.2-1.9,1.6-.8.4-1.7.6-2.8.6s-2.1-.2-3-.7c-.9-.5-1.6-1.1-2.2-2-.5-.9-.8-2-.8-3.3s.3-2.4.8-3.4c.5-1,1.2-1.8,2.1-2.4.9-.6,1.8-.9,2.9-.9s1.4.1,1.9.4c.6.2,1,.6,1.4,1v-.6c0-.2,0-.4.2-.5.1-.1.4-.2.6-.2s.5,0,.6.2c.1.1.2.3.2.6v1.9c0,.7-.3,1.1-.8,1.1s-.6-.1-.8-.4c-.4-.6-.9-1-1.3-1.3-.5-.3-1.1-.5-1.8-.5s-1.4.2-2.1.7c-.6.5-1.2,1.1-1.5,1.9-.4.8-.6,1.7-.6,2.6s.2,1.7.6,2.4c.4.6.9,1.1,1.6,1.5.7.3,1.4.5,2.1.5s1.2-.1,1.7-.3c.5-.2,1-.5,1.3-1,.3-.4.5-1,.5-1.6s0-.5.2-.6c.2-.2.4-.2.6-.2s.5,0,.7.2"/>
  <path d="M323.9,228.4c0-.5-.1-.9-.3-1.2s-.5-.5-.8-.7c-.3-.1-.6-.2-.9-.2-.5,0-1,.2-1.4.5-.4.3-.6.7-.8,1.2-.2.5-.3,1-.3,1.5,0,.8.2,1.5.6,2.1.4.6,1,.9,1.7.9s1.1-.2,1.5-.5.6-.8.6-1.4c0-.5,0-1.3,0-2.2M326.7,232.4c.1,0,.2.3.2.5s0,.4-.2.5c-.1.1-.3.2-.4.2-.5,0-.8,0-1.1-.2-.2-.1-.5-.4-.7-.8-.5.8-1.4,1.2-2.8,1.2s-2.4-.4-3-1.2c-.6-.8-1-1.9-1-3.1s.2-1.6.5-2.3c.3-.7.8-1.2,1.5-1.7.6-.4,1.4-.6,2.2-.6s1,.1,1.4.3c.4.2.7.5.9.9v-.4c.1-.4.4-.6.8-.6s.5,0,.7.2c.1.1.2.3.2.5-.1.9-.2,1.6-.2,2,0,.4,0,1,0,1.7v1.2c0,.6,0,1,0,1.3,0,.2.2.4.5.4.2,0,.3,0,.4.2"/>
  <path d="M335.1,225.2c.4.5.7,1.1.7,1.8s-.2,1.2-.6,1.6c-.4.4-1,.6-1.6.6s-.5,0-.6-.1c-.1,0-.2-.2-.2-.5s0-.3.1-.4c0,0,.2-.1.4-.2.7,0,1.1-.4,1.1-1s0-.6-.3-.8c-.2-.2-.4-.3-.8-.3s-.8.2-1.1.6c-.3.4-.6.9-.8,1.4-.2.6-.3,1.1-.3,1.6,0,.9-.1,1.9-.1,3s0,.9-.2,1.1c-.1.2-.3.3-.7.3s-.5,0-.7-.2c-.1-.1-.2-.4-.2-.7,0-.2,0-1.3,0-3.2s0-2.1-.2-3.3v-1.4c-.1-.2,0-.4,0-.5.1-.1.4-.2.6-.2.5,0,.7.2.7.6v1.8c.3-.7.7-1.2,1.1-1.6.5-.4,1-.6,1.7-.6s1.4.2,1.8.7"/>
  <path d="M344.9,228.3c0,0,.1,0,.2,0,0,0,0-.1,0-.2,0-.6-.3-1.1-.8-1.5-.5-.4-1.2-.6-2-.6s-1.1.1-1.6.4c-.5.3-.8.6-1.1,1-.3.4-.4.7-.4,1h5.6ZM339.8,233.1c-.7-.4-1.2-1-1.6-1.7-.4-.7-.5-1.5-.5-2.3s.2-1.6.6-2.3c.4-.7.9-1.3,1.6-1.7.7-.4,1.5-.6,2.4-.6s1.5.2,2.2.5c.6.3,1.1.8,1.5,1.4.4.6.5,1.3.5,2s0,.7-.2.9c-.1.2-.4.3-.7.3h-6.4c0,.5.1.9.4,1.3.2.4.6.8,1.1,1s1,.4,1.6.4.8,0,1.1-.2c.3-.1.6-.3.8-.4.2-.2.4-.4.7-.7.1-.1.3-.2.5-.2s.4,0,.5.2c.2.1.3.3.3.5s0,.3-.2.4c-.3.5-.8.9-1.3,1.2s-1.3.5-2.3.5-1.9-.2-2.6-.6"/>
  <path d="M362.7,221.7c.1.1.2.3.2.6s0,.5-.2.6c-.2.1-.4.2-.7.2-.9,0-1.8-.1-2.6-.1,0,1.2-.2,2.8-.2,4.8,0,1.9-.1,3.7-.1,5.3s0,.5-.2.7c-.1.1-.4.2-.7.2s-.6,0-.7-.2c-.1-.1-.2-.4-.2-.8,0-.9,0-2.6.2-5.1,0-2,.2-3.6.2-4.8-.5,0-1.3,0-2.2.1,0,0-.3,0-.5,0-.3,0-.5,0-.7-.2-.2-.1-.2-.4-.2-.6,0-.4.2-.7.7-.8,1.2-.1,2.5-.2,3.9-.2s2.8,0,3.4.1c.2,0,.4.1.6.2"/>
  <path d="M371.6,228.3c0,0,.1,0,.2,0,0,0,0-.1,0-.2,0-.6-.3-1.1-.8-1.5-.5-.4-1.2-.6-2-.6s-1.1.1-1.6.4c-.5.3-.8.6-1.1,1-.3.4-.4.7-.4,1h5.6ZM366.5,233.1c-.7-.4-1.2-1-1.6-1.7-.4-.7-.5-1.5-.5-2.3s.2-1.6.6-2.3c.4-.7.9-1.3,1.6-1.7.7-.4,1.5-.6,2.4-.6s1.5.2,2.2.5c.6.3,1.1.8,1.5,1.4.4.6.5,1.3.5,2s0,.7-.2.9c-.1.2-.4.3-.7.3h-6.4c0,.5.1.9.4,1.3.2.4.6.8,1.1,1s1,.4,1.6.4.8,0,1.1-.2c.3-.1.6-.3.8-.4.2-.2.4-.4.7-.7.1-.1.3-.2.5-.2s.4,0,.5.2c.2.1.3.3.3.5s0,.3-.2.4c-.3.5-.8.9-1.3,1.2s-1.3.5-2.3.5-1.9-.2-2.6-.6"/>
  <path d="M381.4,228.4c0-.5-.1-.9-.3-1.2s-.5-.5-.8-.7c-.3-.1-.6-.2-.9-.2-.5,0-1,.2-1.4.5-.4.3-.6.7-.8,1.2-.2.5-.3,1-.3,1.5,0,.8.2,1.5.6,2.1.4.6,1,.9,1.7.9s1.1-.2,1.5-.5.6-.8.6-1.4c0-.5,0-1.3,0-2.2M384.1,232.4c.1,0,.2.3.2.5s0,.4-.2.5c-.1.1-.3.2-.4.2-.5,0-.8,0-1.1-.2-.2-.1-.5-.4-.7-.8-.5.8-1.4,1.2-2.8,1.2s-2.4-.4-3-1.2c-.6-.8-1-1.9-1-3.1s.2-1.6.5-2.3c.3-.7.8-1.2,1.5-1.7.6-.4,1.4-.6,2.2-.6s1,.1,1.4.3c.4.2.7.5.9.9v-.4c.1-.4.4-.6.8-.6s.5,0,.7.2c.1.1.2.3.2.5-.1.9-.2,1.6-.2,2,0,.4,0,1,0,1.7v1.2c0,.6,0,1,0,1.3,0,.2.2.4.5.4.2,0,.3,0,.4.2"/>
  <path d="M397.4,225.8c.5.7.7,1.8.7,3.1v4.1c0,.2-.1.4-.2.5-.1.1-.3.2-.6.2s-.5,0-.6-.2c-.2-.1-.2-.3-.2-.5v-4c0-1-.1-1.8-.3-2.2-.2-.4-.6-.7-1.1-.7s-.8.3-1.1.9c-.3.6-.4,1.3-.4,2.2v3.9c0,.5-.3.7-.8.7s-.9-.2-.9-.7v-3.1s0-.8,0-.8c0-.8-.1-1.5-.4-2.1-.3-.6-.7-.9-1.2-.9-.7,0-1.3.8-1.6,2.4,0,.5-.1,1.2-.1,2.2v2.3c0,.2,0,.3-.2.5-.2.1-.3.2-.6.2s-.5,0-.6-.2c-.2-.1-.2-.3-.2-.5,0-2.6,0-4.6,0-6,0-.3,0-.5,0-.6,0-.1-.1-.3-.2-.3,0,0,0,0-.1-.1,0,0,0-.1,0-.2,0-.2,0-.4.2-.5.2-.1.3-.2.5-.2s.4.2.6.5c.2.3.3.6.3,1v.2c.2-.6.5-1,.9-1.4.4-.3.9-.5,1.4-.5,1.1,0,1.9.6,2.3,1.8.2-.6.5-1,1-1.3.4-.3,1-.5,1.6-.5,1.1,0,1.9.4,2.3,1.1"/>
  <path class="st3" d="M283.6,118.1c-15.9,13.1-41,27.7-50.4,29,6.2-3.2,12.5-6.2,18.5-9.7,11.5-6.8,22.7-14,31.8-24.1,4.1-4.6,8.8-8.8,12.9-13.4,2.8-3.1,5.2-6.7,7.9-10.3,1.2.3,2.7.7,4.9,1.3-7.7,10.3-16,19.3-25.6,27.2M205.1,161.8c-3.1-.2-6.2-.5-9.4-.6-3.3-.1-6.6,0-10,0,1.4-3.1,7-7.4,14.3-11.2-.8,1.6-1.3,2.5-1.6,3.5-1.2,3-.7,3.9,2.5,5.1,1.6.6,3,1.6,4.4,2.4,0,.3-.2.6-.2.9M313.4,86.8c-3.6.4-6.8-.5-9.9-2.2-1-.5-2.3-.3-3.4-.3-.1,2,.1,3.5-.4,4.7-1.2,2.3-2.6,4.6-4.4,6.6-4.1,4.5-8.3,8.9-12.5,13.2-5.5,5.6-11,11.1-17.4,15.5-16.1,11-33.2,20.2-51.8,26.2-3,1-6.1,2.6-9.7,1.7,1-2.7,2-5.2,3-7.9-1.6-2.1-3-2-4.7-.8-6.9,4.9-13.8,9.8-20.7,14.7-.7.5-1.4,1.2-1.9,2-1,1.5-.5,2.9,1.3,3.2,2.7.5,5.5.7,8.2.9,4.3.3,8.7.4,13,.7,2.8.2,5.5.5,8.3.9,1.2.1,2.3,0,2.5-1.3.1-.7-.3-1.7-.7-2.4-1.1-1.4-2.3-2.7-3.7-4.3,4.1-.8,8-1.3,11.6-2.3,18.2-4.9,35-12.7,50.5-23.3,8.8-6.1,17.4-12.6,24.9-20.3,5.8-6,11-12.5,16.3-18.9,1.4-1.7,2.8-3.6,2.7-6-.4-.2-.8-.6-1.1-.6"/>
  <path class="st3" d="M397.4,90.8c2.1-.6,3.6-1,4.9-1.3,2.7,3.6,5.1,7.1,7.9,10.3,4.1,4.6,8.8,8.8,12.9,13.4,9.1,10.1,20.3,17.3,31.8,24.1,6,3.5,12.3,6.5,18.5,9.7-9.4-1.2-34.5-15.9-50.4-29-9.6-7.9-17.9-17-25.6-27.2M501.2,161c1.5-.8,2.9-1.8,4.4-2.4,3.2-1.2,3.7-2.1,2.5-5.1-.4-1-.9-1.9-1.6-3.5,7.3,3.8,12.9,8.1,14.3,11.2-3.4,0-6.7,0-10,0-3.1.1-6.2.4-9.4.6,0-.3-.2-.6-.2-.9M392.1,87.4c0,2.4,1.3,4.3,2.7,6,5.3,6.4,10.6,12.9,16.3,18.9,7.5,7.7,16,14.2,24.9,20.3,15.5,10.6,32.4,18.4,50.5,23.3,3.7,1,7.5,1.5,11.7,2.3-1.4,1.6-2.6,2.9-3.7,4.3-.5.6-.9,1.6-.7,2.4.2,1.3,1.3,1.4,2.5,1.3,2.8-.3,5.5-.7,8.3-.9,4.3-.3,8.7-.4,13-.7,2.8-.2,5.5-.4,8.2-.9,1.8-.3,2.2-1.7,1.3-3.2-.5-.8-1.2-1.5-1.9-2-6.9-4.9-13.8-9.8-20.7-14.7-1.7-1.2-3.1-1.3-4.7.8,1,2.6,2,5.2,3,7.9-3.6.9-6.6-.7-9.7-1.7-18.6-6-35.7-15.3-51.8-26.2-6.5-4.4-12-10-17.4-15.5-4.3-4.3-8.5-8.7-12.5-13.2-1.7-2-3.2-4.3-4.4-6.6-.6-1.1-.3-2.7-.4-4.7-1,0-2.4-.2-3.4.3-3.1,1.6-6.3,2.6-9.9,2.2-.3,0-.7.3-1.1.6"/>
  <path d="M563.4,169c-.6-.4-1.1-.8-1.5-1.4-.3-.6-.5-1.2-.5-1.9s.3-.9.9-.9.9.3.9.8c0,.8.3,1.3.7,1.8.5.4,1.1.6,1.7.6s1.1-.1,1.6-.4c.4-.3.6-.7.6-1.2s-.1-.8-.4-1c-.2-.3-.5-.5-.9-.6-.4-.2-.9-.3-1.4-.5-.7-.2-1.2-.4-1.7-.6-.5-.2-1-.5-1.4-1-.4-.5-.6-1.1-.6-1.9s.2-1.3.5-1.9c.4-.5.9-1,1.5-1.3s1.3-.5,2-.5,1.5.2,2.1.5c.6.3,1.1.8,1.5,1.3.4.5.5,1.1.5,1.7s0,.5-.2.7c-.1.1-.4.2-.6.2s-.5,0-.6-.2c-.1-.1-.2-.3-.2-.6,0-.6-.2-1-.7-1.4-.4-.4-1-.6-1.7-.6s-1.2.2-1.7.6c-.4.4-.6.9-.6,1.5s.1.7.3.9c.2.2.5.4.8.5.3.1.9.3,1.6.5.6.2,1.2.4,1.7.6.5.2,1,.6,1.4,1.1.4.5.6,1.1.6,1.9s-.2,1.2-.5,1.7c-.3.5-.8.9-1.4,1.2-.6.3-1.3.4-2,.4s-1.6-.2-2.3-.5"/>
  <path d="M579.1,168c0,.2.1.3.2.5,0,.1.1.2.1.3,0,.2,0,.4-.2.5-.2.1-.3.2-.5.2s-.5-.2-.7-.5c-.2-.3-.3-.6-.3-.9h0c-.2.4-.6.8-1,1-.5.3-1,.4-1.7.4-1,0-1.8-.4-2.3-1.1-.5-.7-.8-1.7-.8-2.9v-4.3c0-.2,0-.4.2-.5.2-.1.4-.2.6-.2s.5,0,.6.2c.2.1.3.3.3.5v4.3c0,1.7.5,2.6,1.5,2.6s1.2-.3,1.6-1c.3-.7.5-1.6.5-2.8v-3.1c0-.2,0-.4.2-.6.2-.1.4-.2.6-.2s.5,0,.7.2c.2.1.2.3.2.5v6c0,.3.1.5.2.7"/>
  <path d="M588.2,167.3c.5-.6.8-1.3.8-2.4s-.2-1.8-.7-2.3c-.5-.5-1.1-.8-1.9-.8s-1,.1-1.4.4c-.4.2-.7.5-1,.8-.2.3-.3.6-.3.8,0,1.3,0,2.4,0,3.3,0,.1.2.3.5.4.3.2.6.3,1,.4.4.1.8.2,1.2.2.8,0,1.5-.3,2-.8M588.6,161c.7.3,1.2.9,1.6,1.6.4.7.6,1.5.6,2.5s-.2,1.8-.6,2.4c-.4.7-.9,1.2-1.6,1.6-.7.4-1.4.5-2.3.5s-1.2,0-1.7-.2c-.5-.2-.9-.3-1.2-.5v1s-.1,3-.1,3c0,.2,0,.4-.3.5-.2.1-.4.2-.6.2s-.5,0-.6-.2c-.2-.1-.2-.3-.2-.5,0-1.4.1-2.8.1-4.1v-1.2c0-1.5,0-2.8,0-4s0-.6-.1-.8c0-.2-.2-.4-.3-.6,0,0,0,0-.1-.1,0,0-.1-.2-.1-.3,0-.2.1-.4.3-.6.2-.2.4-.3.6-.2.1,0,.3,0,.4.2,0,0,.2.2.4.4.1.2.3.4.4.6.3-.4.7-.7,1.2-1,.6-.3,1.2-.4,2-.4s1.5.2,2.2.5"/>
  <path d="M599.2,167.3c.5-.6.8-1.3.8-2.4s-.2-1.8-.7-2.3c-.5-.5-1.1-.8-1.9-.8s-1,.1-1.4.4c-.4.2-.7.5-1,.8-.2.3-.3.6-.3.8,0,1.3,0,2.4,0,3.3,0,.1.2.3.5.4.3.2.6.3,1,.4.4.1.8.2,1.2.2.8,0,1.5-.3,2-.8M599.5,161c.7.3,1.2.9,1.6,1.6.4.7.6,1.5.6,2.5s-.2,1.8-.6,2.4c-.4.7-.9,1.2-1.6,1.6-.7.4-1.4.5-2.3.5s-1.2,0-1.7-.2c-.5-.2-.9-.3-1.2-.5v1s-.1,3-.1,3c0,.2,0,.4-.3.5-.2.1-.4.2-.6.2s-.5,0-.6-.2c-.2-.1-.2-.3-.2-.5,0-1.4.1-2.8.1-4.1v-1.2c0-1.5,0-2.8,0-4s0-.6-.1-.8c0-.2-.2-.4-.3-.6,0,0,0,0-.1-.1,0,0-.1-.2-.1-.3,0-.2.1-.4.3-.6.2-.2.4-.3.6-.2.1,0,.3,0,.4.2,0,0,.2.2.4.4.1.2.3.4.4.6.3-.4.7-.7,1.2-1,.6-.3,1.2-.4,2-.4s1.5.2,2.2.5"/>
  <path d="M609.9,167.4c.5-.5.8-1.3.8-2.3s-.1-1.2-.4-1.7c-.2-.5-.6-.9-1-1.2-.5-.3-1-.4-1.6-.4-.9,0-1.6.3-2.1.9-.5.6-.8,1.4-.8,2.4s.3,1.8.8,2.3c.6.5,1.2.7,2.1.7s1.6-.3,2.1-.8M604.4,168.4c-.9-.7-1.3-1.8-1.3-3.3s.2-1.8.6-2.5c.4-.7.9-1.3,1.6-1.7.7-.4,1.5-.6,2.4-.6s1.7.2,2.5.6c.7.4,1.3.9,1.7,1.7.4.7.6,1.6.6,2.5,0,1.4-.4,2.5-1.3,3.3-.8.8-2,1.1-3.4,1.1s-2.5-.4-3.4-1.1"/>
  <path d="M620.4,161.1c.4.5.7,1.1.7,1.8s-.2,1.2-.6,1.6c-.4.4-1,.6-1.6.6s-.5,0-.6-.1c-.1,0-.2-.2-.2-.5s0-.3.1-.4c0,0,.2-.1.4-.2.7,0,1.1-.4,1.1-1s0-.6-.3-.8c-.2-.2-.4-.3-.8-.3s-.8.2-1.1.6c-.3.4-.6.9-.8,1.4-.2.6-.3,1.1-.3,1.6,0,.9-.1,1.9-.1,3s0,.9-.2,1.1c-.1.2-.3.3-.7.3s-.5,0-.7-.2c-.1-.1-.2-.4-.2-.7,0-.2,0-1.3,0-3.2s0-2.1-.2-3.3v-1.4c-.1-.2,0-.4,0-.5.1-.1.4-.2.6-.2.5,0,.7.2.7.6v1.8c.3-.7.7-1.2,1.1-1.6.5-.4,1-.6,1.7-.6s1.4.2,1.8.7"/>
  <path d="M628.9,166.6c.1.1.2.3.2.6,0,.7-.2,1.2-.7,1.7-.4.4-1,.7-1.7.7s-1.6-.4-2-1.2c-.4-.8-.6-2-.6-3.7s0-1.2,0-1.8h-.8c-.5,0-.7-.3-.7-.8s0-.4.2-.5c.1-.1.3-.2.6-.2h.9c0-.7.2-1.7.4-3,0-.4.4-.6.9-.6s.5,0,.7.2c.2.2.2.3.2.5-.2,1-.3,2-.4,3,.6,0,1.1,0,1.3,0s.4,0,.5.2c.1.1.2.3.2.5s0,.4-.2.5c-.1.1-.3.2-.6.2h-1.3c0,.6,0,1.1,0,1.8,0,1.2,0,2.1.2,2.6.2.6.4.9.8.9s.7-.3.7-1c0-.2,0-.4.2-.5.1-.1.3-.2.5-.2s.5,0,.6.2"/>
  <path d="M645,157.5c.1.1.2.3.2.6s0,.5-.2.6c-.2.1-.4.2-.7.2-.9,0-1.8-.1-2.6-.1,0,1.2-.2,2.8-.2,4.8,0,1.9-.1,3.7-.1,5.3s0,.5-.2.7c-.1.1-.4.2-.7.2s-.6,0-.7-.2c-.1-.1-.2-.4-.2-.8,0-.9,0-2.6.2-5.1,0-2,.2-3.6.2-4.8-.5,0-1.3,0-2.2.1,0,0-.3,0-.5,0-.3,0-.5,0-.7-.2-.2-.1-.2-.4-.2-.6,0-.4.2-.7.7-.8,1.2-.1,2.5-.2,3.9-.2s2.8,0,3.4.1c.2,0,.4.1.6.2"/>
  <path d="M653.9,164.2c0,0,.1,0,.2,0,0,0,0-.1,0-.2,0-.6-.3-1.1-.8-1.5-.5-.4-1.2-.6-2-.6s-1.1.1-1.6.4c-.5.3-.8.6-1.1,1-.3.4-.4.7-.4,1h5.6ZM648.8,169c-.7-.4-1.2-1-1.6-1.7-.4-.7-.5-1.5-.5-2.3s.2-1.6.6-2.3c.4-.7.9-1.3,1.6-1.7.7-.4,1.5-.6,2.4-.6s1.5.2,2.2.5c.6.3,1.1.8,1.5,1.4.4.6.5,1.3.5,2s0,.7-.2.9c-.1.2-.4.3-.7.3h-6.4c0,.5.1.9.4,1.3.2.4.6.8,1.1,1s1,.4,1.6.4.8,0,1.1-.2c.3-.1.6-.3.8-.4.2-.2.4-.4.7-.7.1-.1.3-.2.5-.2s.4,0,.5.2c.2.1.3.3.3.5s0,.3-.2.4c-.3.5-.8.9-1.3,1.2s-1.3.5-2.3.5-1.9-.2-2.6-.6"/>
  <path d="M663.7,164.2c0-.5-.1-.9-.3-1.2-.2-.3-.5-.5-.8-.7-.3-.1-.6-.2-.9-.2-.5,0-1,.2-1.4.5-.4.3-.6.7-.8,1.2-.2.5-.3,1-.3,1.5,0,.8.2,1.5.6,2.1.4.6,1,.9,1.7.9s1.1-.2,1.5-.5.6-.8.6-1.4c0-.5,0-1.3,0-2.2M666.4,168.3c.1,0,.2.3.2.5s0,.4-.2.5c-.1.1-.3.2-.4.2-.5,0-.8,0-1.1-.2-.2-.1-.5-.4-.7-.8-.5.8-1.4,1.2-2.8,1.2s-2.4-.4-3-1.2c-.6-.8-1-1.9-1-3.1s.2-1.6.5-2.3c.3-.7.8-1.2,1.5-1.7.6-.4,1.4-.6,2.2-.6s1,.1,1.4.3c.4.2.7.5.9.9v-.4c.1-.4.4-.6.8-.6s.5,0,.7.2c.1.1.2.3.2.5-.1.9-.2,1.6-.2,2,0,.4,0,1,0,1.7v1.2c0,.6,0,1,0,1.3,0,.2.2.4.5.4.2,0,.3,0,.4.2"/>
  <path d="M679.7,161.6c.5.7.7,1.8.7,3.1v4.1c0,.2-.1.4-.2.5-.1.1-.3.2-.6.2s-.5,0-.6-.2c-.2-.1-.2-.3-.2-.5v-4c0-1-.1-1.8-.3-2.2-.2-.4-.6-.7-1.1-.7s-.8.3-1.1.9c-.3.6-.4,1.3-.4,2.2v3.9c0,.5-.3.7-.8.7s-.9-.2-.9-.7v-3.1s0-.8,0-.8c0-.8-.1-1.5-.4-2.1-.3-.6-.7-.9-1.2-.9-.7,0-1.3.8-1.6,2.4,0,.5-.1,1.2-.1,2.2v2.3c0,.2,0,.3-.2.5-.2.1-.3.2-.6.2s-.5,0-.6-.2c-.2-.1-.2-.3-.2-.5,0-2.6,0-4.6,0-6,0-.3,0-.5,0-.6,0-.1-.1-.3-.2-.3,0,0,0,0-.1-.1,0,0,0-.1,0-.2,0-.2,0-.4.2-.5.2-.1.3-.2.5-.2s.4.2.6.5c.2.3.3.6.3,1v.2c.2-.6.5-1,.9-1.4.4-.3.9-.5,1.4-.5,1.1,0,1.9.6,2.3,1.8.2-.6.5-1,1-1.3.4-.3,1-.5,1.6-.5,1.1,0,1.9.4,2.3,1.1"/>
  <path class="st2" d="M710.4,178.6c-3-2.7-3.4-5.8-3.3-9.4.1-4.3,0-8.6,0-12.8,0-3.1,0-6.1,0-8.6,2-.8,4-.9,4.4-1.8.4-1-.4-2.7-.9-4-.3-.7-.8-1.5-1.5-2-1.8-1.2-2.5-2.8-2.9-4.9-.4-2-1.1-4.2-3.6-5.1-3.9,2.2-.7,6.3-2.9,9.2-8.2.4-9.6,1.2-18.1,1.2-14,.1-15.2-.3-29.2-.3-7,0-6.9.4-13.9.3-5.1,0-10.2-.7-15.3-.9-3.3-.1-6.6,0-9.8,0,0-.1,0-.2-.1-.3-.4-.9-1-2.1-1.9-2.5-1.4-.6-2.6.1-3.1,1.7-.3.7-.6,1.4-.9,2-2.8.2-33.6.6-36.2.7-4.7.2-9.5.2-14.2.3-4.3,0-8.8-.6-12.7.5-3.4,1-12.5,6.9-6.7,7.3,2,.1,3.4.3,3.4,2.5,0,8.4.2,16.7.2,25.1,0,2.4-.4,4.8-.6,6.9-3.7,1.5-4.5,5.8-1.2,5.4,2.4,2.2,2.9,4.6,2.7,7.4-.3,3.6.6,4.4,4.6,5.5.6-3.4,1.1-6.7,1.7-10.1.9-.3,1.7-.8,2.5-.8,7.1.1,14.3-.2,21.4.6,10,1.1,20.1,1.7,30.1,1,10.8-.8,21.6-1.9,32.5-2.7,11.9-.9,16.7-1.2,28.6-2.4,18.5-2,17.2-3.8,35.8-3.5.8,0,1.8.1,2.3.6,2.2,2.3,4.2,3.8,6-.3.1-.3.9-.4,1.3-.6,3.5-1.7,4.1-2.8,1.4-5.3Z"/>
  <path class="st3" d="M167.7,187.3c-.3,1.6-.4,2.7-.6,3.8-3,.4-4-1.4-5-2.7-13.7-.1-76.5.7-89.7,2.7-10.1,1.5-25.9,2.6-36.1,3.2-2.1.1-4.1,0-5.3-1.7-.5-.7-.9-1.8-.6-2.4.4-.6,1.7-1,2.6-1.1,5-.4,15.7-.5,20.8-.9,6-.5,11.9-1.3,17.8-1.9,4.6-.5,58.6-1.1,63.3-1.4,5.4-.4,10.9-.6,16.3-.9,3.2-.2,6.3-.5,9.6-.7,1.2-10-1-19.5-1.7-29.2-1.1-.1-2-.2-2.9-.3-9.5-.5-18.9.8-28.3,1.5-5,.4-59.5.3-64.6.6-5.9.3-17.4.6-23.2,1-1.2,0-2.3.4-3.2.6-.9,10.1,2.2,19.8,1.6,29.6-3.2,0-5.4-1.7-5.5-4.3-.5-7.2-.9-14.4-1.4-21.6,0-1.1-.2-2.3-.3-3.5-1.8-.3-3.6-.4-5-1-.9-.4-1.5-1.5-2.2-2.4,1.4-2.5,4.1-1.4,6-2,1.6-2.8,2.6-3.1,5-1,1.2,1,2.4.9,3.6.8,6.6-.4,18.9-.9,25.6-1.3,6.9-.4,63.2-.7,70.2-1.1,6.8-.3,13.6-.6,20.3-.9,1.2,0,2.4,0,3.6-.1,3.9-.3,6.2,1.5,6.4,4.9.7,8.9,1.4,17.8,2.1,26.7,0,.5.3,1.1.6,2,2.8-.2,5.5-.4,8.2-.6,3-.3,5.2.7,5.8,3,.4,1.5-.3,2.5-2.2,2.5-3.8,0-7.7,0-11.7,0"/>
  <path d="M54.2,163.7c.2.2.3.4.3.6s0,.5-.3.6c-.4.3-.8.6-1.2.9-.5.3-.9.6-1.3.9l-.8.5c-1.2.8-1.9,1.2-2,1.3-.2.1-.4.2-.6.4-.2.1-.4.2-.6.4l1,.9c.9.8,1.5,1.3,1.8,1.6.6.5,1.1.9,1.5,1.3.4.3,1,.8,1.7,1.3.2.2.3.4.3.7s0,.5-.3.6c-.2.2-.4.2-.6.2s-.4,0-.5-.2l-.3-.3c-1.3-1-2.2-1.8-2.8-2.4-1-.8-1.9-1.6-2.5-2.3v1.6c0,1.1,0,2,0,2.6s0,.5-.2.6c-.2.2-.4.2-.7.2s-.5,0-.7-.2c-.1-.1-.2-.4-.2-.7,0-.5,0-1.3,0-2.5,0-1,0-2,0-3.2v-2.5c0-.5,0-1.4,0-2.5s0-.4.2-.5c.2-.2.4-.2.6-.2s.5,0,.6.2c.2.2.2.4.2.6v3.6c1.1-.7,2-1.3,2.7-1.9l.7-.5c1-.7,1.9-1.4,2.6-1.9.2-.1.4-.2.5-.2s.5,0,.6.2"/>
  <path d="M63.1,170.4c0,0,.1,0,.2,0,0,0,0-.1,0-.2,0-.6-.3-1.1-.8-1.5-.5-.4-1.2-.6-2-.6s-1.1.1-1.6.4c-.5.3-.8.6-1.1,1-.3.4-.4.7-.4,1h5.6ZM58,175.3c-.7-.4-1.2-1-1.6-1.7-.4-.7-.5-1.5-.5-2.3s.2-1.6.6-2.3c.4-.7.9-1.3,1.6-1.7.7-.4,1.5-.6,2.4-.6s1.5.2,2.2.5c.6.3,1.1.8,1.5,1.4.4.6.5,1.3.5,2s0,.7-.2.9c-.1.2-.4.3-.7.3h-6.4c0,.5.1.9.4,1.3.2.4.6.8,1.1,1s1,.4,1.6.4.8,0,1.1-.2c.3-.1.6-.3.8-.4.2-.2.4-.4.7-.7.1-.1.3-.2.5-.2s.4,0,.5.2c.2.1.3.3.3.5s0,.3-.2.4c-.3.5-.8.9-1.3,1.2-.6.4-1.3.5-2.3.5s-1.9-.2-2.6-.6"/>
  <path d="M69,180.2c-.2-.2-.3-.4-.3-.6s0-.2,0-.3c.5-1.4,1.1-2.8,1.6-4.2-.5-.3-1-.9-1.5-1.8-.5-.8-1-1.8-1.4-2.8-.4-1-.7-1.9-.9-2.8,0,0,0-.2,0-.3,0-.2,0-.4.2-.5s.4-.2.6-.2.4,0,.5.1c.1,0,.2.2.2.4,1,3.4,2,5.4,2.9,6,.4-1.4,1-3.5,1.6-6.1,0-.2.1-.3.2-.4.1,0,.3-.1.5-.1s.5,0,.7.2c.2.1.3.3.3.5,0,0,0,.1,0,.2-.4,1.4-.7,2.6-1,3.6-.3,1-.6,2-1,3.1-.3.8-.6,1.8-1,2.9-.4,1.1-.7,2-.9,2.6,0,.2-.2.3-.3.4-.1,0-.3.1-.5.1s-.5,0-.7-.2"/>
  <path d="M78.3,175c-.4-.5-.7-1.2-1-2.2-.3-.8-.5-1.8-.7-2.8-.2-1-.3-1.8-.3-2.4s0-.6.2-.7c.1-.1.4-.2.6-.2.5,0,.8.2.9.7,0,.9.2,1.7.2,2.2,0,.6.2,1.3.4,2.2.2.7.3,1.3.5,1.6.1.4.3.5.4.5s.3-.4.5-1.3c.2-.8.5-2,.9-3.5,0-.3.2-.5.3-.7.1-.2.3-.2.6-.2s.4,0,.6.2c.1.1.3.4.4.7.2.6.4,1.2.5,1.7.3,1,.6,1.8.7,2.2.2.5.4.7.5.7s.2-.2.3-.5c.1-.4.2-.9.4-1.7.2-1,.3-1.8.4-2.3,0-.5.1-1.1.2-1.9,0-.5.3-.7.8-.7s.6,0,.7.3c.1.2.2.4.2.8,0,.5,0,1.3-.2,2.3-.1,1-.3,1.9-.5,2.7-.6,2.1-1.2,3.1-2.1,3.1s-1.1-.5-1.6-1.4c-.5-1-.9-2.2-1.2-3.8-.2,1.6-.5,2.9-1,3.8-.4,1-.9,1.4-1.5,1.4s-.8-.3-1.2-.8"/>
  <path d="M96.2,173.6c.5-.5.8-1.3.8-2.3s-.1-1.2-.4-1.7c-.2-.5-.6-.9-1-1.2-.5-.3-1-.4-1.6-.4-.9,0-1.6.3-2.1.9-.5.6-.8,1.4-.8,2.4s.3,1.8.8,2.3c.6.5,1.2.7,2.1.7s1.6-.3,2.1-.8M90.7,174.7c-.9-.7-1.3-1.8-1.3-3.3s.2-1.8.6-2.5c.4-.7.9-1.3,1.6-1.7.7-.4,1.5-.6,2.4-.6s1.7.2,2.5.6c.7.4,1.3.9,1.7,1.7s.6,1.6.6,2.5c0,1.4-.4,2.5-1.3,3.3-.8.8-2,1.1-3.4,1.1s-2.5-.4-3.4-1.1"/>
  <path d="M106.8,167.4c.4.5.7,1.1.7,1.8s-.2,1.2-.6,1.6c-.4.4-1,.6-1.6.6s-.5,0-.6-.1c-.1,0-.2-.2-.2-.5s0-.3.1-.4c0,0,.2-.1.4-.2.7,0,1.1-.4,1.1-1s0-.6-.3-.8c-.2-.2-.4-.3-.8-.3s-.8.2-1.1.6c-.3.4-.6.9-.8,1.4-.2.6-.3,1.1-.3,1.6,0,.9-.1,1.9-.1,3s0,.9-.2,1.1c-.1.2-.3.3-.7.3s-.5,0-.7-.2c-.1-.1-.2-.4-.2-.7,0-.2,0-1.3,0-3.2s0-2.1-.2-3.3v-1.4c-.1-.2,0-.4,0-.5.1-.1.4-.2.6-.2.5,0,.7.2.7.6v1.8c.3-.7.7-1.2,1.1-1.6.5-.4,1-.6,1.7-.6s1.4.2,1.8.7"/>
  <path d="M110.1,175.7c-.2-.1-.2-.3-.2-.5v-12.1c0-.2,0-.4.2-.5.2-.1.4-.2.6-.2s.5,0,.6.2c.2.1.2.3.2.5v5.8s.8-.5.8-.5c1.9-1.1,3-1.8,3.6-2.1.2-.1.4-.2.5-.2.2,0,.4.1.5.3.1.2.2.4.2.6s0,.2-.1.3c0,0-.2.2-.4.3l-5,3,5.1,3.7c.1.1.2.3.2.5s0,.4-.3.6c-.2.2-.4.2-.6.2s-.4,0-.6-.2c-.4-.3-1.1-.8-2.1-1.5-.8-.6-1.4-1.1-2-1.5v2.7c0,.2,0,.3-.3.5-.2.1-.4.2-.6.2s-.5,0-.6-.2"/>
  <path d="M125.9,170.4c0,0,.1,0,.2,0,0,0,0-.1,0-.2,0-.6-.3-1.1-.8-1.5-.5-.4-1.2-.6-2-.6s-1.1.1-1.6.4c-.5.3-.8.6-1.1,1-.3.4-.4.7-.4,1h5.6ZM120.9,175.3c-.7-.4-1.2-1-1.6-1.7-.4-.7-.5-1.5-.5-2.3s.2-1.6.6-2.3c.4-.7.9-1.3,1.6-1.7.7-.4,1.5-.6,2.4-.6s1.5.2,2.2.5c.6.3,1.1.8,1.5,1.4.4.6.5,1.3.5,2s0,.7-.2.9c-.1.2-.4.3-.7.3h-6.4c0,.5.1.9.4,1.3.2.4.6.8,1.1,1,.5.3,1,.4,1.6.4s.8,0,1.1-.2c.3-.1.6-.3.8-.4.2-.2.4-.4.7-.7.1-.1.3-.2.5-.2s.4,0,.5.2c.2.1.3.3.3.5s0,.3-.2.4c-.3.5-.8.9-1.3,1.2s-1.3.5-2.3.5-1.9-.2-2.6-.6"/>
  <path d="M136,167.4c.4.5.7,1.1.7,1.8s-.2,1.2-.6,1.6c-.4.4-1,.6-1.6.6s-.5,0-.6-.1c-.1,0-.2-.2-.2-.5s0-.3.1-.4c0,0,.2-.1.4-.2.7,0,1.1-.4,1.1-1s0-.6-.3-.8c-.2-.2-.4-.3-.8-.3s-.8.2-1.1.6c-.3.4-.6.9-.8,1.4-.2.6-.3,1.1-.3,1.6,0,.9-.1,1.9-.1,3s0,.9-.2,1.1c-.1.2-.3.3-.7.3s-.5,0-.7-.2c-.1-.1-.2-.4-.2-.7,0-.2,0-1.3,0-3.2s0-2.1-.2-3.3v-1.4c-.1-.2,0-.4,0-.5.1-.1.4-.2.6-.2.5,0,.7.2.7.6v1.8c.3-.7.7-1.2,1.1-1.6.5-.4,1-.6,1.7-.6s1.4.2,1.8.7"/>
  <path d="M141.8,178c0,0-.2,0-.2-.1-1-.8-1.8-1.9-2.3-3.2-.5-1.3-.8-2.7-.8-4.2s.1-2.1.4-3.1c.3-1,.6-1.9,1.1-2.7.5-.8,1.1-1.4,1.8-1.8.2,0,.3-.1.4-.1.2,0,.4,0,.5.2.2.1.2.3.2.5s0,.3-.1.4c0,.1-.2.2-.3.3s-.2.1-.2.2c-.8.6-1.4,1.5-1.8,2.6-.4,1.1-.6,2.4-.6,3.7s.1,2.1.4,2.9c.3.8.6,1.5.9,1.9.3.5.8,1,1.2,1.4.2.3.4.5.4.7s0,.3-.2.5c-.2.1-.3.2-.5.2s-.3,0-.3,0"/>
  <path d="M146.1,175.3c-.6-.4-1-.9-1.3-1.5,0-.2-.1-.3-.1-.4,0-.2.1-.4.3-.5.2-.2.4-.2.6-.2.1,0,.2,0,.3.1,0,0,.2.2.3.3.3.4.6.8.9,1,.3.2.7.3,1.1.3s.8-.1,1.1-.3c.3-.2.4-.5.4-.8s-.2-.6-.5-.8c-.3-.2-.8-.4-1.5-.6-.6-.2-1.1-.4-1.5-.6-.4-.2-.7-.5-1-.8-.3-.3-.4-.8-.4-1.3s.1-.9.4-1.4c.3-.4.7-.7,1.2-1,.5-.2,1.1-.3,1.7-.3s1.2.1,1.7.4c.5.2.9.6,1.1,1,.3.4.4.8.4,1.3s0,.5-.2.6c-.1.1-.3.2-.6.2s-.5,0-.6-.2c0,0-.1-.2-.2-.4,0-.5-.2-.8-.5-1.1-.3-.2-.7-.4-1.2-.4s-.9.1-1.2.4c-.2.2-.4.5-.4.8s.2.6.5.8c.3.2.8.4,1.5.6.6.2,1.1.4,1.5.6.4.2.7.5,1,.8.3.3.4.8.4,1.3s-.2,1-.5,1.4c-.3.4-.7.7-1.2.9-.5.2-1,.3-1.6.3-.8,0-1.5-.2-2.1-.6"/>
  <path d="M153.6,177.8c-.2-.1-.2-.3-.2-.5s0-.3.1-.4c0-.1.2-.2.3-.3.1,0,.2-.1.2-.2.8-.6,1.4-1.5,1.8-2.6.4-1.1.6-2.4.6-3.7s-.1-2.1-.4-2.9c-.3-.8-.6-1.5-.9-1.9-.3-.5-.8-1-1.2-1.4-.2-.2-.4-.5-.4-.7s0-.3.2-.5c.2-.1.3-.2.5-.2s.2,0,.3,0c0,0,.1,0,.2.2,1,.9,1.8,1.9,2.3,3.3.5,1.3.8,2.7.8,4.2s-.3,3.1-.9,4.5c-.6,1.4-1.4,2.5-2.4,3.1-.2,0-.3.1-.4.1s-.4,0-.5-.2"/>
  <path class="st3" d="M103,295.6c-.4,1.2-.8,2.4-1,3.6-.4,3.7-1.5,7.2-2.9,10.6-.4,1-.6,2-.9,3.1-2.4-2.4-10.4-20.5-11.3-25.6,1.7,2.1,3.1,3.9,4.6,5.8.3.4.7.9,1,1.2.2.2.6.4.9.5.2,0,.6-.1.7-.3.2-.3.3-.6.4-1,.7.5,1.5,1.4,2,1.3.9-.3,1.9-1.1,2.5-1.9,1.9-2.5,3.5-5.2,5.3-7.7.5-.7,1.1-1.3,1.7-2,.2.1.5.3.7.4-1.2,4-2.5,8-3.7,12M87.3,223.1c.2,0,.3-.1.5-.2.7,1.9,1.4,3.8,2.2,5.6.4,1,.4,2.6,1.8,2.7,1.4.2,2.1-1.2,2.6-2.3,1.1-2.4,2.1-4.9,3.1-7.4.5-1.3,1.1-2.6,1.9-3.7-1,11.2-2.3,22.4-3,33.7-.7,11.3-.9,22.5-1.6,33.9-2.5-20.8-5-41.6-7.6-62.4M110,274.6c-.8-.6-1.5,0-2,.8-.1.1-.2.3-.2.5-.6,2.1-2.2,3.5-3.4,5.1-1.8,2.2-3.4,4.6-5.1,6.9-.3.5-.7.9-1.4,1.7,0-.9-.2-1.3-.2-1.7,0-2.5.2-5,.3-7.5.2-8,.2-16.1.7-24.1.7-10.5,1.8-21,2.8-31.6.5-5.2.9-10.3,1.4-15.5,0-.4.1-.8,0-1.1-.2-.5-.6-1.3-1-1.4-.4-.1-1.2.3-1.5.7-.5.5-.7,1.2-1,1.9-1.9,5.1-3.7,10.3-5.6,15.4-.3.8-.8,1.6-1.2,2.6-.3-.3-.4-.4-.4-.5-2-4.3-4-8.6-6-12.9-.2-.4-.9-.9-1.4-.9-.3,0-.9.6-1,1-.2.8-.1,1.6,0,2.4.7,4.7,1.5,9.4,2.1,14.1,1.1,8.5,2.1,17.1,3.1,25.6,1.1,9,2.1,18,3.1,26.9.2,2.2.5,4.3.7,6.5-3-2.7-5.3-5.7-7.3-9-.4-.6-.7-1.3-1.2-1.7-.6-.4-1.4-.4-2.2-.6-.2.7-.6,1.5-.5,2.1.4,1.7,1,3.5,1.6,5.1,3.8,9.1,7.6,18.2,11.5,27.2.8,1.9,1.8,3.7,2.7,5.5,2-.1,3-1.2,3.4-2.9.7-2.8,1.5-5.5,2.2-8.3.4-1.5.7-3,1.1-4.4.6-2.4,1.2-4.9,1.8-7.3,1.2-4.4,2.4-8.8,3.5-13.2.5-1.8.9-3.6,1.2-5.5,0-.6,0-1.5-.5-1.8"/>
  <path class="st3" d="M101.7,205h0c-1,0-2,.6-2.6,1.3-.6.7-1,1.6-1.3,2.4-.9,2.4-1.8,4.9-2.7,7.3-.9,2.5-1.8,5.1-2.8,7.6-.1-.3-.2-.5-.4-.8-1.5-3.2-3-6.4-4.5-9.6-.5-1-1.8-1.7-2.7-1.8h0s-.1,0-.1,0c-1.3,0-2.4,1.4-2.5,2.3-.2.8-.2,1.8,0,2.9.3,1.9.6,3.7.8,5.6.4,2.8.9,5.7,1.2,8.5,1.1,8.7,2.2,17.4,3.1,25.6.9,7.5,1.8,15,2.6,22.4l.5,4.6c0,.6.1,1.3.2,1.9-1.4-1.7-2.7-3.5-3.9-5.5,0-.1-.1-.2-.2-.3-.3-.6-.8-1.4-1.5-1.9-.7-.5-1.4-.6-2.1-.7-.2,0-.4,0-.6-.1l-1.6-.4-.4,1.6c0,.1-.1.3-.2.5-.2.6-.5,1.4-.3,2.3.4,1.8,1,3.6,1.7,5.4,3.7,8.8,7.4,17.7,11.5,27.2.6,1.3,1.2,2.6,1.9,3.9.3.6.6,1.1.9,1.7l.5.9h1.1c2.6-.2,4.2-1.6,4.9-4.2.4-1.5.8-3.1,1.2-4.6.3-1.2.7-2.4,1-3.6.2-.9.5-1.9.7-2.8.1-.6.3-1.1.4-1.7.1-.6.3-1.2.4-1.8.4-1.8.9-3.7,1.4-5.5.5-2,1.1-4.1,1.6-6.1.6-2.3,1.3-4.7,1.9-7.1.5-2,.9-3.9,1.2-5.6.1-.9,0-2.6-1.1-3.4-.5-.3-1-.5-1.6-.5-1,0-1.9.6-2.7,1.7-.2.2-.4.6-.5,1-.3,1.2-1.2,2.2-2.1,3.3-.3.4-.7.8-1,1.2-1.2,1.5-2.4,3.1-3.5,4.7,0,.1-.2.2-.3.3,0-.3,0-.6,0-.9,0-1.2,0-2.5.1-3.7,0-2.5.1-5.1.2-7.6.1-5.4.2-11,.6-16.4.5-7.3,1.2-14.7,1.9-21.8.3-3.2.6-6.5.9-9.7.4-4.9.9-9.8,1.3-14.6v-.9c0,0,0-.1,0-.2,0-.4.1-1-.2-1.7h0c-.3-.8-.9-2-2-2.3-.2,0-.3,0-.5,0M101.7,206.6c0,0,0,0,.1,0,.4,0,.7.9,1,1.4.1.3,0,.7,0,1.1-.5,5.2-.9,10.3-1.4,15.5-.9,10.5-2.1,21-2.8,31.6-.5,8-.5,16.1-.7,24.1,0,2.5-.2,5-.3,7.5,0,.4,0,.8.2,1.7.6-.8,1-1.2,1.4-1.7,1.7-2.3,3.4-4.6,5.1-6.9,1.3-1.6,2.9-3,3.4-5.1,0-.2.1-.3.2-.5.4-.5.8-1,1.4-1s.4,0,.6.2c.4.3.6,1.2.5,1.8-.3,1.8-.7,3.7-1.2,5.5-1.1,4.4-2.4,8.8-3.5,13.2-.6,2.4-1.2,4.9-1.8,7.3-.4,1.5-.7,3-1.1,4.4-.7,2.8-1.5,5.5-2.2,8.3-.4,1.8-1.4,2.8-3.4,2.9-.9-1.8-1.9-3.6-2.7-5.5-3.9-9.1-7.7-18.1-11.5-27.2-.7-1.6-1.2-3.4-1.6-5.1-.1-.6.3-1.4.5-2.1.7.2,1.6.2,2.2.6.6.4.9,1.1,1.2,1.7,2,3.3,4.3,6.3,7.3,9-.2-2.2-.4-4.3-.7-6.5-1-9-2.1-18-3.1-26.9-1-8.5-2-17.1-3.1-25.6-.6-4.7-1.4-9.4-2.1-14.1-.1-.8-.2-1.6,0-2.4,0-.4.7-1,1-1s0,0,0,0c.5,0,1.2.5,1.4.9,2,4.3,4,8.6,6,12.9,0,0,.1.1.4.5.4-.9.9-1.7,1.2-2.6,1.9-5.1,3.7-10.3,5.6-15.4.2-.7.5-1.4,1-1.9.3-.4.9-.8,1.4-.8"/>
  <path class="st3" d="M43,409.4c16-.1,52.1-.5,67.1-.4,15.6.1,31.1.7,46.7,1,8.3.1,11.6-1.9,13.9-8.6,5.6-16.3,4.6-45.8-7.6-59.8-3.1-3.6-7-5.7-11.8-7.4-8-2.8-16.2-2.7-24.1-1.5-14.6,2.3-29.3,2.7-44,3.2-4.1.1-29.4.7-33.2,1v12.5c-6.1-.7-7.6-1.9-8.8-7-.8-3.6-1.5-.2-2.6-5.3-2.1,2.2-3.5,3-3.8,4-.4,1.5,0,3.1.3,4.7,2.5,15.5,4.4,45,7,60.5.2,1.1.7,2.1.9,3M46.3,419c-.4,1.7-.5,2.8-.9,3.9-1,2.6-3.3,3-5.5,1.4-3.1-2.1-6.1-4.4-8.5-7-1-1.1-.8-3.2-.6-4.8.2-2.1,1.7-4.3,1.4-6.3-2.9-17.5-5.3-49.1-8.5-66.9-5.6.6-11.8,3.5-16.1-2.6.3-2.8,2.4-4.6,5.6-4.6,8.1.2,15.3-2.8,21.6-4.3,2.3-2.9,3.6-6.6,5.9-7.1,5.1-1.1,6.7,3.2,8.2,7,19.8-1.5,60.4-3,79.8-4.5.8,0,1.6-.1,2.4-.3,18.2-3,29.7,5.9,40.3,16.6.8.9,1.3,2,2.1,2.9,14.4,15,13.5,46.2,8.1,63.7-1.3,4.3-5.5,8.2-8.8,11.9-1,1.1-3.8,1.5-5.7,1.4-20.8-.5-41.6-1.3-62.5-1.5-12.1-.1-45.3.8-58.2,1.2"/>
  <path d="M47.7,370.4c-.6-.4-1.1-.8-1.5-1.4-.3-.6-.5-1.2-.5-1.9s.3-.9.9-.9.9.3.9.8c0,.8.3,1.3.7,1.8.5.4,1.1.6,1.7.6s1.1-.1,1.6-.4c.4-.3.6-.7.6-1.2s-.1-.8-.4-1c-.2-.3-.5-.5-.9-.6-.4-.2-.9-.3-1.4-.5-.7-.2-1.2-.4-1.7-.6-.5-.2-1-.5-1.4-1-.4-.5-.6-1.1-.6-1.9s.2-1.3.5-1.9c.4-.5.9-1,1.5-1.3s1.3-.5,2-.5,1.5.2,2.1.5c.6.3,1.1.8,1.5,1.3.4.5.5,1.1.5,1.7s0,.5-.2.7c-.1.1-.4.2-.6.2s-.5,0-.6-.2c-.1-.1-.2-.3-.2-.6,0-.6-.2-1-.7-1.4-.4-.4-1-.6-1.7-.6s-1.2.2-1.7.6c-.4.4-.6.9-.6,1.5s.1.7.3.9c.2.2.5.4.8.5.3.1.9.3,1.6.5.6.2,1.2.4,1.7.6.5.2,1,.6,1.4,1.1.4.5.6,1.1.6,1.9s-.2,1.2-.5,1.7c-.3.5-.8.9-1.4,1.2-.6.3-1.3.4-2,.4s-1.6-.2-2.3-.5"/>
  <path d="M62.4,368.8c.5-.5.8-1.3.8-2.3s-.1-1.2-.4-1.7c-.2-.5-.6-.9-1-1.2-.5-.3-1-.4-1.6-.4-.9,0-1.6.3-2.1.9-.5.6-.8,1.4-.8,2.4s.3,1.8.8,2.3c.6.5,1.2.7,2.1.7s1.6-.3,2.1-.8M56.9,369.9c-.9-.7-1.3-1.8-1.3-3.3s.2-1.8.6-2.5c.4-.7.9-1.3,1.6-1.7.7-.4,1.5-.6,2.4-.6s1.7.2,2.5.6c.7.4,1.3.9,1.7,1.7.4.7.6,1.6.6,2.5,0,1.4-.4,2.5-1.3,3.3-.8.8-2,1.1-3.4,1.1s-2.5-.4-3.4-1.1"/>
  <path d="M68.5,370.4c-.7-.4-1.2-.9-1.5-1.5-.4-.6-.5-1.4-.5-2.2s.2-1.6.6-2.4c.4-.7.9-1.3,1.6-1.8.7-.4,1.5-.7,2.4-.7s1.8.2,2.5.7c.7.5,1.2,1.1,1.4,1.8,0,.1.1.3.1.4,0,.3-.2.5-.6.6-.1,0-.2,0-.3,0-.2,0-.3,0-.4-.2-.1-.1-.2-.3-.3-.5-.2-.4-.5-.8-.9-1.1s-.9-.4-1.5-.4-1.1.2-1.5.5c-.4.3-.8.7-1,1.2-.2.5-.4,1.1-.4,1.7,0,.9.2,1.6.7,2.1.5.5,1.2.8,2.1.8s1.1-.1,1.5-.3c.4-.2.7-.5.9-.8.2-.3.3-.7.3-1,0-.2,0-.3.2-.4.1-.1.3-.2.5-.2s.5,0,.6.2c.1.1.2.3.2.6,0,.5-.2,1.1-.5,1.6-.3.5-.8.9-1.5,1.3-.6.3-1.5.5-2.4.5s-1.7-.2-2.4-.6"/>
  <path d="M78.1,370.7c-.2-.1-.2-.3-.2-.5l.2-7.2c0-.2,0-.4.2-.6.2-.1.4-.2.6-.2s.5,0,.6.2c.2.1.3.3.3.6l-.2,7.2c0,.2,0,.4-.3.5-.2.1-.4.2-.6.2s-.5,0-.7-.2M78.1,360.9c-.2-.2-.4-.5-.4-.9s.1-.6.4-.9c.2-.2.6-.4.9-.4s.7.1.9.3c.2.2.3.5.3.9s-.1.7-.4.9c-.2.2-.6.4-.9.4s-.7-.1-.9-.4"/>
  <path d="M88.7,365.7c0-.5-.1-.9-.3-1.2-.2-.3-.5-.5-.8-.7-.3-.1-.6-.2-.9-.2-.5,0-1,.2-1.4.5-.4.3-.6.7-.8,1.2-.2.5-.3,1-.3,1.5,0,.8.2,1.5.6,2.1.4.6,1,.9,1.7.9s1.1-.2,1.5-.5c.4-.3.6-.8.6-1.4,0-.5,0-1.3,0-2.2M91.5,369.7c.1,0,.2.3.2.5s0,.4-.2.5c-.1.1-.3.2-.4.2-.5,0-.8,0-1.1-.2-.2-.1-.5-.4-.7-.8-.5.8-1.4,1.2-2.8,1.2s-2.4-.4-3-1.2-1-1.9-1-3.1.2-1.6.5-2.3c.3-.7.8-1.2,1.5-1.7.6-.4,1.4-.6,2.2-.6s1,.1,1.4.3c.4.2.7.5.9.9v-.4c.1-.4.4-.6.8-.6s.5,0,.7.2c.1.1.2.3.2.5-.1.9-.2,1.6-.2,2,0,.4,0,1,0,1.7v1.2c0,.6,0,1,0,1.3,0,.2.2.4.5.4.2,0,.3,0,.4.2"/>
  <path d="M94.2,370.6c-.2-.1-.2-.3-.2-.5v-12.3c-.1-.2,0-.4.2-.6.2-.1.4-.2.6-.2s.5,0,.6.2c.2.1.2.3.2.5v12.3c0,.2,0,.4-.2.6-.2.1-.4.2-.6.2s-.5,0-.6-.2"/>
  <path d="M107.2,370.7c-.2-.1-.4-.3-.4-.6,0-.3-.3-1.2-.7-2.8-.2-1.1-.5-2.2-.8-3.2-.4-1.6-.8-3.1-1.3-4.6,0-.1,0-.2,0-.3,0-.2,0-.4.3-.6.2-.1.4-.2.7-.2s.4,0,.5.1c.1,0,.2.2.3.5l.3,1.1c.4,1.3.7,2.5.9,3.6l.4,1.9c.2.9.4,1.6.5,2.1.1.4.2.7.2.7s.1,0,.2-.3c0-.2.2-.4.2-.6s.1-.3.2-.4l.5-1.2c.4-.9.7-1.6.9-1.9.2-.3.4-.5.6-.5s.5.2.6.5c.2.3.5.9.9,1.7l.2.4.5,1c.2.3.3.6.4.9.1.2.2.4.3.4s.1-.3.2-.8c.1-.5.2-1.1.4-1.8l.4-2c.3-1.6.7-3.2,1.1-4.8,0-.2.1-.3.3-.4.1-.1.3-.2.5-.2s.5,0,.7.2c.2.1.3.3.3.6s0,.2,0,.2c-.2.9-.6,2.5-1.1,4.7-.2.8-.4,1.8-.7,3.1-.2,1.1-.4,2.1-.6,2.8-.1.6-.5.8-1.1.8s-.7-.2-.9-.5c-.3-.3-.6-.9-1.1-1.7-.2-.4-.4-.8-.6-1.3-.3-.7-.5-1-.5-1s0,0-.2.2c0,.1-.1.3-.2.5,0,.2-.1.3-.2.4-.2.6-.4,1-.5,1.3-.4.8-.7,1.4-.9,1.7-.3.3-.5.4-.9.4s-.5,0-.8-.2"/>
  <path d="M125.8,368.8c.5-.5.8-1.3.8-2.3s-.1-1.2-.4-1.7c-.2-.5-.6-.9-1-1.2-.5-.3-1-.4-1.6-.4-.9,0-1.6.3-2.1.9-.5.6-.8,1.4-.8,2.4s.3,1.8.8,2.3c.6.5,1.2.7,2.1.7s1.6-.3,2.1-.8M120.3,369.9c-.9-.7-1.3-1.8-1.3-3.3s.2-1.8.6-2.5c.4-.7.9-1.3,1.6-1.7.7-.4,1.5-.6,2.4-.6s1.7.2,2.5.6c.7.4,1.3.9,1.7,1.7.4.7.6,1.6.6,2.5,0,1.4-.4,2.5-1.3,3.3-.8.8-2,1.1-3.4,1.1s-2.5-.4-3.4-1.1"/>
  <path d="M136.3,362.6c.4.5.7,1.1.7,1.8s-.2,1.2-.6,1.6c-.4.4-1,.6-1.6.6s-.5,0-.6-.1c-.1,0-.2-.2-.2-.5s0-.3.1-.4c0,0,.2-.1.4-.2.7,0,1.1-.4,1.1-1s0-.6-.3-.8c-.2-.2-.4-.3-.8-.3s-.8.2-1.1.6c-.3.4-.6.9-.8,1.4-.2.6-.3,1.1-.3,1.6,0,.9-.1,1.9-.1,3s0,.9-.2,1.1c-.1.2-.3.3-.7.3s-.5,0-.7-.2c-.1-.1-.2-.4-.2-.7,0-.2,0-1.3,0-3.2s0-2.1-.2-3.3v-1.4c-.1-.2,0-.4,0-.5.1-.1.4-.2.6-.2.5,0,.7.2.7.6v1.8c.3-.7.7-1.2,1.1-1.6.5-.4,1-.6,1.7-.6s1.4.2,1.8.7"/>
  <path d="M139.6,370.9c-.2-.1-.2-.3-.2-.5v-12.1c0-.2,0-.4.2-.5.2-.1.4-.2.6-.2s.5,0,.6.2c.2.1.2.3.2.5v5.8s.8-.5.8-.5c1.9-1.1,3-1.8,3.6-2.1.2-.1.4-.2.5-.2.2,0,.4.1.5.3.1.2.2.4.2.6s0,.2-.1.3c0,0-.2.2-.4.3l-5,3,5.1,3.7c.1.1.2.3.2.5s0,.4-.3.6c-.2.2-.4.2-.6.2s-.4,0-.6-.2c-.4-.3-1.1-.8-2.1-1.5-.8-.6-1.4-1.1-2-1.5v2.7c0,.2,0,.3-.3.5-.2.1-.4.2-.6.2s-.5,0-.6-.2"/>
  <path d="M155.5,365.6c0,0,.1,0,.2,0,0,0,0-.1,0-.2,0-.6-.3-1.1-.8-1.5-.5-.4-1.2-.6-2-.6s-1.1.1-1.6.4c-.5.3-.8.6-1.1,1-.3.4-.4.7-.4,1h5.6ZM150.4,370.5c-.7-.4-1.2-1-1.6-1.7-.4-.7-.5-1.5-.5-2.3s.2-1.6.6-2.3c.4-.7.9-1.3,1.6-1.7.7-.4,1.5-.6,2.4-.6s1.5.2,2.2.5c.6.3,1.1.8,1.5,1.4.4.6.5,1.3.5,2s0,.7-.2.9c-.1.2-.4.3-.7.3h-6.4c0,.5.1.9.4,1.3.2.4.6.8,1.1,1,.5.3,1,.4,1.6.4s.8,0,1.1-.2c.3-.1.6-.3.8-.4.2-.2.4-.4.7-.7.1-.1.3-.2.5-.2s.4,0,.5.2c.2.1.3.3.3.5s0,.3-.2.4c-.3.5-.8.9-1.3,1.2s-1.3.5-2.3.5-1.9-.2-2.6-.6"/>
  <path d="M165.6,362.6c.4.5.7,1.1.7,1.8s-.2,1.2-.6,1.6c-.4.4-1,.6-1.6.6s-.5,0-.6-.1c-.1,0-.2-.2-.2-.5s0-.3.1-.4c0,0,.2-.1.4-.2.7,0,1.1-.4,1.1-1s0-.6-.3-.8c-.2-.2-.4-.3-.8-.3s-.8.2-1.1.6c-.3.4-.6.9-.8,1.4-.2.6-.3,1.1-.3,1.6,0,.9-.1,1.9-.1,3s0,.9-.2,1.1c-.1.2-.3.3-.7.3s-.5,0-.7-.2c-.1-.1-.2-.4-.2-.7,0-.2,0-1.3,0-3.2s0-2.1-.2-3.3v-1.4c-.1-.2,0-.4,0-.5.1-.1.4-.2.6-.2.5,0,.7.2.7.6v1.8c.3-.7.7-1.2,1.1-1.6.5-.4,1-.6,1.7-.6s1.4.2,1.8.7"/>
  <path d="M48.4,381.6c-.3.3-.5.7-.5,1.2s.1.8.4,1.1c.2.3.6.5,1.1.5.5,0,.9-.2,1.2-.4.3-.2.5-.6.5-1.1s-.2-.9-.5-1.2c-.3-.3-.7-.4-1.1-.4s-.8.1-1.1.4M52.2,390l-.2-.2c-.6-.5-1.1-1-1.6-1.7-.5-.7-.9-1.4-1.2-2.3-.5.3-.9.7-1.1,1.2-.2.5-.3,1-.3,1.4s.2,1.1.6,1.6c.4.4,1,.7,1.7.7s1.4-.2,2.1-.7M56.5,391.1c0,.2,0,.4-.2.5-.1.2-.3.2-.5.2s-.3,0-.5-.2c-.6-.3-1.2-.6-1.7-.8-.5.4-1,.6-1.6.8-.6.2-1.2.3-1.8.3s-1.5-.2-2.1-.5c-.6-.3-1.1-.8-1.4-1.3-.3-.5-.5-1.1-.5-1.7s.1-1.2.4-1.8c.3-.6.7-1.1,1.1-1.5-.4-.3-.8-.6-1-1-.3-.4-.4-.9-.4-1.4s.1-1,.4-1.4c.3-.4.7-.8,1.1-1,.5-.2,1-.4,1.6-.4s1.1.1,1.6.4c.5.2.9.6,1.1,1,.3.4.4,1,.4,1.6s-.2,1.2-.6,1.6c-.4.4-1,.7-1.7.9.9,1.7,1.8,2.9,2.7,3.6h0c.3-.4.5-.9.5-1.4s0-.4,0-.7-.1-.4-.2-.5c0-.1-.1-.2-.1-.3,0-.2,0-.3.3-.4.2-.1.4-.2.6-.2.3,0,.6.1.8.4.1.2.2.4.3.8,0,.3.1.7.1,1,0,.8-.2,1.5-.7,2.2.1,0,.4.2.8.4,0,0,.3.2.7.4.3.2.5.3.5.6"/>
  <path d="M71.4,387.6v-.4c-.6-1.6-.9-2.9-1.2-3.8,0-.1,0-.3-.2-.6,0-.3-.2-.5-.2-.6,0-.1-.1-.2-.2-.2s-.1,0-.2.2c0,.1-.1.4-.2.7,0,0,0,.1,0,.2,0,0,0,.1,0,.2,0,.2,0,.3-.1.4-.1.4-.3.9-.5,1.5-.2.6-.4,1.4-.7,2.3h3.6ZM74.4,391.4c0,.1,0,.2,0,.3,0,.2,0,.4-.3.5-.2.1-.4.2-.7.2s-.4,0-.5-.1-.3-.2-.3-.4c-.3-1-.5-1.8-.7-2.6h-4.6s-.8,2.5-.8,2.5c-.1.4-.4.5-.8.5s-.5,0-.7-.2c-.2-.1-.3-.3-.3-.5s0-.2,0-.3c1.2-3.5,2.1-6.2,2.7-8.1l.5-1.5c.3-.8.5-1.3.8-1.6s.6-.5,1-.5.7.1.9.4c.2.3.5.8.7,1.5.6,1.8,1.2,3.8,1.9,6.1h.5c.2,0,.4,0,.5.2.1.1.2.4.2.6,0,.6-.2.8-.6.8h-.1l.6,2.1Z"/>
  <path d="M82.5,390.5c.4-.2.7-.5,1-.8.2-.3.4-.7.4-1.1s0-1,0-1.3v-1.4c-.2-.3-.5-.6-1-.9-.5-.3-1-.4-1.6-.4-.9,0-1.6.3-2.1.8-.5.6-.8,1.3-.8,2.3s.1,1.2.4,1.7c.3.5.6.8,1.1,1,.4.2.9.3,1.4.3s.9-.1,1.3-.3M78.9,391.8c-.7-.3-1.3-.9-1.7-1.6-.4-.7-.6-1.5-.6-2.5s.2-1.7.6-2.4c.4-.7.9-1.2,1.6-1.6s1.5-.5,2.4-.5,1.1,0,1.6.2c.4.2.8.4,1.1.6,0-2.8.2-5,.3-6.5,0-.2.1-.4.3-.5.2-.1.4-.2.6-.2s.5,0,.7.2c.2.1.3.3.2.5,0,.8-.2,2.2-.2,4.3,0,2.1,0,3.9,0,5.6s0,2.5.1,2.8c.1.5.3.8.5.9,0,0,0,.1,0,.2,0,.2,0,.4-.3.6-.2.2-.4.3-.6.3s-.4,0-.5-.1c-.4-.2-.7-.6-.8-1.2-.3.4-.7.8-1.2,1-.5.3-1,.4-1.7.4s-1.6-.2-2.3-.5"/>
  <path d="M88.8,388.3c-.3-.8-.5-1.6-.7-2.4-.2-.8-.3-1.4-.3-1.7s0-.5.2-.6c.2-.1.4-.2.6-.2s.4,0,.6.2c.2.1.2.3.3.5.1,1.1.4,2.2.8,3.5.2.7.5,1.3.7,1.9.3.5.4.8.5.8s.3-.3.6-.8c.3-.5.5-1.2.8-1.9.3-.8.5-1.5.6-2.1.1-.5.2-1,.3-1.5,0-.2.1-.4.3-.5.2-.1.4-.2.6-.2s.5,0,.6.2c.2.2.2.4.2.6s-.1.9-.3,1.7c-.2.8-.5,1.6-.8,2.4-.5,1.3-1,2.2-1.4,2.9-.5.7-1,1-1.5,1-.9,0-1.9-1.3-2.8-3.8"/>
  <path d="M103.8,390.1c.5-.5.8-1.3.8-2.3s-.1-1.2-.4-1.7c-.2-.5-.6-.9-1-1.2-.5-.3-1-.4-1.6-.4-.9,0-1.6.3-2.1.9-.5.6-.8,1.4-.8,2.4s.3,1.8.8,2.3c.6.5,1.2.7,2.1.7s1.6-.3,2.1-.8M98.3,391.1c-.9-.7-1.3-1.8-1.3-3.3s.2-1.8.6-2.5c.4-.7.9-1.3,1.6-1.7.7-.4,1.5-.6,2.4-.6s1.7.2,2.5.6c.7.4,1.3.9,1.7,1.7.4.7.6,1.6.6,2.5,0,1.4-.4,2.5-1.3,3.3-.8.8-2,1.1-3.4,1.1s-2.5-.4-3.4-1.1"/>
  <path d="M109.9,391.6c-.7-.4-1.2-.9-1.5-1.5-.4-.6-.5-1.4-.5-2.2s.2-1.6.6-2.4.9-1.3,1.6-1.8c.7-.4,1.5-.7,2.4-.7s1.8.2,2.5.7c.7.5,1.2,1.1,1.4,1.8,0,.1.1.3.1.4,0,.3-.2.5-.6.6-.1,0-.2,0-.3,0-.2,0-.3,0-.4-.2-.1-.1-.2-.3-.3-.5-.2-.4-.5-.8-.9-1.1-.4-.3-.9-.4-1.5-.4s-1.1.2-1.5.5c-.4.3-.8.7-1,1.2-.2.5-.4,1.1-.4,1.7,0,.9.2,1.6.7,2.1.5.5,1.2.8,2.1.8s1.1-.1,1.5-.3c.4-.2.7-.5.9-.8.2-.3.3-.7.3-1,0-.2,0-.3.2-.4.1-.1.3-.2.5-.2s.5,0,.6.2c.1.1.2.3.2.6,0,.5-.2,1.1-.5,1.6-.3.5-.8.9-1.5,1.3-.6.3-1.5.5-2.4.5s-1.7-.2-2.4-.6"/>
  <path d="M124.5,386.9c0-.5-.1-.9-.3-1.2-.2-.3-.5-.5-.8-.7-.3-.1-.6-.2-.9-.2-.5,0-1,.2-1.4.5-.4.3-.6.7-.8,1.2-.2.5-.3,1-.3,1.5,0,.8.2,1.5.6,2.1.4.6,1,.9,1.7.9s1.1-.2,1.5-.5c.4-.3.6-.8.6-1.4,0-.5,0-1.3,0-2.2M127.3,391c.1,0,.2.3.2.5s0,.4-.2.5c-.1.1-.3.2-.4.2-.5,0-.8,0-1.1-.2-.2-.1-.5-.4-.7-.8-.5.8-1.4,1.2-2.8,1.2s-2.4-.4-3-1.2c-.6-.8-1-1.9-1-3.1s.2-1.6.5-2.3c.3-.7.8-1.2,1.5-1.7.6-.4,1.4-.6,2.2-.6s1,.1,1.4.3c.4.2.7.5.9.9v-.4c.1-.4.4-.6.8-.6s.5,0,.7.2c.1.1.2.3.2.5-.1.9-.2,1.6-.2,2,0,.4,0,1,0,1.7v1.2c0,.6,0,1,0,1.3,0,.2.2.4.5.4.2,0,.3,0,.4.2"/>
  <path d="M135.2,389.3c.1.1.2.3.2.6,0,.7-.2,1.2-.7,1.7-.4.4-1,.7-1.7.7s-1.6-.4-2-1.2c-.4-.8-.6-2-.6-3.7s0-1.2,0-1.8h-.8c-.5,0-.7-.3-.7-.8s0-.4.2-.5c.1-.1.3-.2.6-.2h.9c0-.7.2-1.7.4-3,0-.4.4-.6.9-.6s.5,0,.7.2c.2.2.2.3.2.5-.2,1-.3,2-.4,3,.6,0,1.1,0,1.3,0s.4,0,.5.2c.1.1.2.3.2.5s0,.4-.2.5c-.1.1-.3.2-.6.2h-1.3c0,.6,0,1.1,0,1.8,0,1.2,0,2.1.2,2.6.2.6.4.9.8.9s.7-.3.7-1c0-.2,0-.4.2-.5s.3-.2.5-.2.5,0,.6.2"/>
  <path d="M144.3,386.8c0,0,.1,0,.2,0,0,0,0-.1,0-.2,0-.6-.3-1.1-.8-1.5-.5-.4-1.2-.6-2-.6s-1.1.1-1.6.4c-.5.3-.8.6-1.1,1-.3.4-.4.7-.4,1h5.6ZM139.2,391.7c-.7-.4-1.2-1-1.6-1.7s-.5-1.5-.5-2.3.2-1.6.6-2.3c.4-.7.9-1.3,1.6-1.7.7-.4,1.5-.6,2.4-.6s1.5.2,2.2.5c.6.3,1.1.8,1.5,1.4.4.6.5,1.3.5,2s0,.7-.2.9c-.1.2-.4.3-.7.3h-6.4c0,.5.1.9.4,1.3.2.4.6.8,1.1,1,.5.3,1,.4,1.6.4s.8,0,1.1-.2c.3-.1.6-.3.8-.4.2-.2.4-.4.7-.7.1-.1.3-.2.5-.2s.4,0,.5.2c.2.1.3.3.3.5s0,.3-.2.4c-.3.5-.8.9-1.3,1.2s-1.3.5-2.3.5-1.9-.2-2.6-.6"/>
  <path d="M149.2,391.7c-.6-.4-1-.9-1.3-1.5,0-.2-.1-.3-.1-.4,0-.2.1-.4.3-.5.2-.2.4-.2.6-.2.1,0,.2,0,.3.1,0,0,.2.2.3.3.3.4.6.8.9,1,.3.2.7.3,1.1.3s.8-.1,1.1-.3c.3-.2.4-.5.4-.8s-.2-.6-.5-.8c-.3-.2-.8-.4-1.5-.6-.6-.2-1.1-.4-1.5-.6-.4-.2-.7-.5-1-.8-.3-.3-.4-.8-.4-1.3s.1-.9.4-1.4c.3-.4.7-.7,1.2-1,.5-.2,1.1-.3,1.7-.3s1.2.1,1.7.4c.5.2.9.6,1.1,1,.3.4.4.8.4,1.3s0,.5-.2.6c-.1.1-.3.2-.6.2s-.5,0-.6-.2c0,0-.1-.2-.2-.4,0-.5-.2-.8-.5-1.1-.3-.2-.7-.4-1.2-.4s-.9.1-1.2.4c-.2.2-.4.5-.4.8s.2.6.5.8c.3.2.8.4,1.5.6.6.2,1.1.4,1.5.6.4.2.7.5,1,.8.3.3.4.8.4,1.3s-.2,1-.5,1.4c-.3.4-.7.7-1.2.9-.5.2-1,.3-1.6.3-.8,0-1.5-.2-2.1-.6"/>
  <path class="st1" d="M46.3,419c-.4,1.7-.5,2.8-.9,3.9-1,2.6-3.3,3-5.5,1.4-3.1-2.1-6.1-4.4-8.5-7-1-1.1-.8-3.2-.6-4.8.2-2.1,1.7-4.3,1.4-6.3-2.9-17.5-5.3-49.1-8.5-66.9-5.6.6-11.8,3.5-16.1-2.6.3-2.8,2.4-4.6,5.6-4.6,8.1.2,15.3-2.8,21.6-4.3,2.3-2.9,3.6-6.6,5.9-7.1,5.1-1.1,6.7,3.2,8.2,7,19.8-1.5,60.4-3,79.8-4.5.8,0,1.6-.1,2.4-.3,18.2-3,29.7,5.9,40.3,16.6.8.9,1.3,2,2.1,2.9,14.4,15,13.5,46.2,8.1,63.7-1.3,4.3-5.5,8.2-8.8,11.9-1,1.1-3.8,1.5-5.7,1.4-20.8-.5-41.6-1.3-62.5-1.5-12.1-.1-45.3.8-58.2,1.2Z"/>
</svg>