<?xml version="1.0" encoding="UTF-8"?>
<svg id="Layer_1" xmlns="http://www.w3.org/2000/svg" version="1.1" viewBox="0 0 720 720">
  <!-- Generator: Adobe Illustrator 29.7.0, SVG Export Plug-In . SVG Version: 2.1.1 Build 138)  -->
  <path d="M719.9,355.6v10.5c-8.7,30.7-35.6,22.2-59.5,28.9-48.8,13.6-82.9,88.7-70.5,135.2,5.8,21.9,15.2,26,26.4,41.8,13.3,18.7,8.5,42.9-14.5,49.6-23.6,7-30.5-11.2-46.6-21.8-39-25.5-78.3-11.9-116.5,7.4-22.5,11.4-41.4,34.4-45.3,59.7-3.5,23,2.6,44.2-27,52.6h-10.5c-29.8-8.7-22.2-31.5-27-54.3s-24.5-48.3-50-60.2c-39.5-18.5-74.3-30.8-113.6-3.4-17.3,12.1-33.5,35.5-57.1,13-26.6-25.3,5.9-45.4,17-65.4,20.7-37.4,7.4-74-9.9-109.6-11.3-23.2-33.1-41.2-58.5-46.5-13.6-2.8-30.2.3-41.2-7.8-13.9-10.2-17.4-27.9-7.1-42,12.5-17.1,30.1-10.8,48.3-14.7,58.9-12.8,96.6-105.7,67.8-157.2-9.8-17.5-30.5-26.7-24.7-49.9,1.8-7.4,6.8-14.3,13.3-18.2,28.8-17.2,40.8,12.7,63.1,23.4,51.2,24.7,140.1-12.8,152.6-70.2,3.4-15.5-1.2-30.3,9.5-43,19.2-22.9,50.5-9.3,54.1,19.5,2.6,21.2-.1,29.3,11.7,49.5,18.6,31.8,79.6,55.8,115.4,52.7,27.3-2.4,36-16.8,55.2-30.5,24.9-17.8,55.4,4.4,47.6,33.7-2.5,9.5-9.3,11.9-14.5,18.7-32.5,42.8-23.8,75.7-2.1,121,12.3,25.7,31,44.5,59.7,50.5,22.9,4.8,45.7-2.8,54.3,27ZM269.9,203.8c-89.2,2.7-82.5,141.5,9.9,132.6,81.1-7.8,75.2-135.1-9.9-132.6ZM481.5,280.8c-48,7.3-41.3,82.2,8.2,80.1,54.9-2.3,48.3-88.7-8.2-80.1ZM329.3,448.8c-61.9,9.1-50,106.3,15.1,99.1,64.2-7.1,54.8-109.3-15.1-99.1Z"/>
</svg>