<?xml version="1.0" encoding="UTF-8"?>
<svg id="Layer_1" xmlns="http://www.w3.org/2000/svg" version="1.1" viewBox="0 0 720 720">
  <!-- Generator: Adobe Illustrator 29.7.0, SVG Export Plug-In . SVG Version: 2.1.1 Build 138)  -->
  <defs>
    <style>
      .st0 {
        fill: #009eda;
      }

      .st1 {
        fill: #f68e54;
      }

      .st2 {
        stroke: #009eda;
      }

      .st2, .st3 {
        fill: none;
        stroke-miterlimit: 10;
        stroke-width: 5px;
      }

      .st3 {
        stroke: #f68e54;
      }
    </style>
  </defs>
  <g>
    <path class="st1" d="M68.7,245.4c3.7-3.7,5.6-8.5,5.6-13.4s-2.1-9.6-5.8-13.3c-3.7-3.7-8.7-5.2-13.4-5.6h0c0-4.9-1.9-10-5.6-13.7-3.7-3.7-8.5-5.6-13.4-5.6-4.9,0-9.6,2.1-13.3,5.8-6.6,6.9-7.4,17.2-1.5,24.7L-1.5,247.6v7.4s28.5-28.7,28.5-28.7c.7-1.1,1.2-2.7,0-4-5.3-5.1-5.4-14-.2-19.3,2.5-2.5,5.8-3.9,9.8-4,3.4,0,7.1,1.3,9.6,3.8,3,3.3,4.7,7.7,4,12.2-.4.7-.1,1.9.9,2.5s1.4.9,2.6.6c4.4-.8,9,.5,12.2,3.4,2.5,2.5,3.9,5.8,4,9.8,0,3.4-1.3,7.1-3.8,9.6-5.1,5.3-14,5.4-19.3.2-1.1-.7-2.8-1.2-4,0L-1,285.3v7.4s45.9-46.3,45.9-46.3c7.5,5.5,18.2,5,24.7-1.9"/>
    <path class="st1" d="M70.5,605.9c3.7-3.7,5.6-8.5,5.6-13.4s-2.1-9.6-5.8-13.3c-3.7-3.7-8.7-5.2-13.4-5.6h0c0-4.9-1.9-10-5.6-13.7-3.7-3.7-8.5-5.6-13.4-5.6-4.9,0-9.6,2.1-13.3,5.8-6.6,6.9-7.4,17.2-1.5,24.7L.4,608.1l-.2,7.7,28.5-28.7c.7-1.1,1.2-2.7,0-4-5.3-5.1-5.4-14-.2-19.3,2.5-2.5,5.8-3.9,9.8-4,4,0,7.1,1.3,9.6,3.8,3,3.3,4.7,7.7,4,12.2-.4.7-.1,1.9.9,2.5s1.4.9,2.6.6c4.4-.8,9,.5,12.2,3.4,2.5,2.5,3.9,5.8,4,9.8,0,3.4-1.3,7.1-3.8,9.6-5.1,5.3-14,5.4-19.3.2-1.1-.7-2.8-1.2-4,0L.7,646.2v7.4s45.9-46.3,45.9-46.3c7.5,5.5,18.2,5,24.7-1.9"/>
    <path class="st0" d="M22.3,528.8c6.4,0,12.3-2.5,17.2-7.4,9.6-9.5,9.5-24.8,0-34.4l-15.6-15.8v-7.4c-.3-13.5-11-24.3-24.5-24v5.5c10.6-.2,19.2,8.5,19.3,18.9v8.9c-.1.4.2,1.5.9,2l16.7,16.4c7.4,7.4,7.6,19.3.2,26.7-7.4,7.4-19.3,7.6-26.7.2l-7.4-7.4-1.8-1.1h0v6.4c0,0,5.9,5.9,5.9,5.9,4.6,4.7,11.2,6.7,17.4,7"/>
    <path class="st0" d="M61.5,443.7c-8.3,4.9-16.1,4.6-17.9,1.1-2-3.2,1.7-10.3,10-15.1,8.3-4.9,16.1-4.6,17.9-1.1,2,3.2-1.7,10.3-10,15.1M50.4,425.2c-10.5,6-15.6,16.2-11.9,22.4,1.8,3.5,6.2,5.2,11.1,5.2,4.3.1,9.8-1.5,14.5-4.6,10.5-6,15.6-16.2,11.9-22.4-3.8-6.7-15-7-25.7-.6"/>
    <path class="st0" d="M36.9,404.3c-2.3,12.9-10.3,22.9-17.3,21.6-3.2-.4-6.2-3.7-7.9-8.2-1.9-5.1-2.3-11.7-1.5-18.1,1.9-12.2,9.2-22,16-21.9,0,0,.7.4,1.3.3,3.2.4,6.2,3.7,7.9,8.2,1.9,5.1,2.3,11.7,1.5,18.1M40.4,383.8c-2.5-6.4-7-10.6-11.8-11.5-10.6-1.9-21,9.6-23.6,26.2-1.2,7.7-.8,15.3,1.6,21.1,2.5,6.4,7,10.6,11.8,11.5.7.4,1.3.3,2.2.4,9.8,0,18.8-10.9,21.7-26.3,1.2-7.7.8-15.3-1.6-21.1"/>
    <path class="st1" d="M649.4,656.5c-3.7,3.7-5.6,8.5-5.6,13.4,0,4.9,2.1,9.6,5.8,13.3,3.7,3.7,8.7,5.2,13.4,5.6h0c0,4.9,1.9,10,5.6,13.7,3.7,3.7,8.7,5.2,13.4,5.6,4.9,0,9.6-2.1,13.3-5.8,6.6-6.9,7.4-17.2,1.5-24.7l22.8-23.2.2-7.7-28.5,28.7c-.7,1.1-1.2,2.7,0,4,5.3,5.1,5.4,14,.2,19.3-2.5,2.5-5.8,3.9-9.8,4s-7.1-1.3-9.6-3.8c-3-3.3-4.7-7.7-4-12.2.4-.7.1-1.9-.9-2.5s-1.1-.7-1.8-1.1l-.4-.2c-4.4.8-9-.5-12.2-3.4-2.5-2.5-3.9-5.8-4-9.8,0-3.4,1.3-7.1,3.8-9.6,5.1-5.3,14-5.4,19.3-.2,1.1.7,2.8,1.2,4,0l43.7-44.2v-7.4s-45.9,46.3-45.9,46.3c-7.5-5.5-18.2-5-24.7,1.9"/>
    <path class="st0" d="M695.6,464.7l.3,6.1-17.2,17.2c-9.6,9.5-9.5,24.8,0,34.4,9.5,9.6,24.8,9.5,34.4,0l6.4-6.5.7.4-.3-6.1c-.4-.2-.9,0-1.5,0-.7-.4-1.5,0-2,.8l-7.4,7.4c-7.4,7.4-19.3,7.6-26.7.2-7.4-7.4-7.6-19.3-.2-26.7l17.9-18.3c.4-.7.7-1.1,1.1-1.8v-7.4c-.2-10.4,8.4-19,18.9-19.2v-5.5c-13.6.3-24.4,11-24.1,24.5"/>
    <path class="st0" d="M647.4,425.3c.9-1.4,3-2.6,6.4-2.5,3.4,0,7.7,1.2,11.7,3.5,8.3,5,12.2,11.7,10.2,15-2,3.3-9.8,4-18.1-1-8.3-5-12.2-11.7-10.2-15M654.8,444.9c5.1,3,10.3,4.2,14.6,4.3,4.9,0,9-2,11-5.2,3.9-6.5-1.4-16.6-12.1-22.5-10.5-6.3-21.7-5.6-25.6.9-3.9,6.5,1.4,16.6,12.1,22.5"/>
    <path class="st2" d="M697.7,427.4c.7.4,1.5,0,2.1-.2,5-.9,9.5-5.1,11.9-11.6,2.2-6.1,2.7-13.6,1.4-21.3-2.9-16.5-13.4-27.7-24-25.7-5.4.7-9.5,5.1-11.9,11.6-2.2,6.1-2.7,13.6-1.4,21.3,2.6,15.3,12,25.9,21.7,26.2"/>
    <path class="st1" d="M223.1,421l-72.4,73.2c-.7,1.1-1.2,2.7,0,4,5.3,5.1,5.4,14,.2,19.3-2.5,2.5-5.8,3.9-9.8,4-3.4,0-7.1-1.3-9.6-3.8-3-3.3-4.7-7.7-4-12.2.4-.7.1-1.9-.9-2.5-.7-.4-1.1-.7-1.8-1.1l-.4-.2c-4.4.8-9-.5-12.2-3.4-2.5-2.5-3.9-5.8-4-9.8,0-3.4,1.3-7.1,3.8-9.6,5.1-5.3,14-5.4,19.3-.2,1.1.7,2.8,1.2,4,0l72.4-73.2c.7-1.1,1.2-2.7,0-4-5.3-5.1-5.4-14-.2-19.3,2.5-2.5,5.8-3.9,9.8-4,3.4,0,7.1,1.3,9.6,3.8,3,3.3,4.7,7.7,4,12.2-.4.7-.1,1.9.9,2.5.7.4,1.4.9,2.6.6,4.4-.8,9,.5,12.2,3.4,2.5,2.5,3.9,5.8,4,9.8,0,3.4-1.3,7.1-3.8,9.6-5.1,5.3-14,5.4-19.3.2-1.1-.7-2.8-1.2-4,0M249.9,424.7c3.7-3.7,5.6-8.5,5.6-13.4,0-4.9-2.1-9.6-5.8-13.3-3.7-3.7-8.7-5.2-13.4-5.6h0c0-4.9-1.9-10-5.6-13.7-3.7-3.7-8.5-5.6-13.4-5.6-4.9,0-9.6,2.1-13.3,5.8-6.6,6.9-7.4,17.2-1.5,24.7l-68.7,69.5c-7.5-5.5-18.2-5-24.7,1.9-3.7,3.7-5.6,8.5-5.6,13.4s2.1,9.6,5.8,13.3c3.7,3.7,8.7,5.2,13.4,5.6h0c0,4.9,1.9,10,5.6,13.7,3.7,3.7,8.7,5.2,13.4,5.6,4.9,0,9.6-2.1,13.3-5.8,6.6-6.9,7.4-17.2,1.5-24.7l68.7-69.5c7.5,5.5,18.2,5,24.7-1.9"/>
    <path class="st0" d="M135.9,624.9c-2,3.3-9.8,4-18.1-1-8.3-5-12.2-11.7-10.2-15s3-2.6,6.4-2.5c3.4,0,7.7,1.2,11.7,3.5,8.3,5,12.2,11.7,10.2,15M140.4,627.1c3.9-6.5-1.4-16.6-12.1-22.5-10.5-6.3-21.7-5.6-25.6.9-3.9,6.5,1.4,16.6,12.1,22.5,5.1,3,10.3,4.2,14.6,4.3,4.9,0,9-2,11-5.2"/>
    <path class="st0" d="M242.7,623c-8.3,4.9-16.1,4.6-17.9,1.1-2-3.2,1.7-10.3,10-15.1,8.3-4.9,16.1-4.6,17.9-1.1,2,3.2-1.7,10.3-10,15.1M231.9,604.2c-10.5,6-15.6,16.2-11.9,22.4,1.8,3.5,6.2,5.2,11.1,5.2,4.3.1,9.8-1.5,14.5-4.6,10.5-6,15.6-16.2,11.9-22.4-3.8-6.7-15-7-25.7-.6"/>
    <path class="st0" d="M167.3,597c-1.9,4.8-4.6,7.6-7.8,8.1-7.3,1.5-15.4-8.7-17.7-21.4-1.4-6.7-.9-13.3,1-18.1,1.9-4.8,4.6-7.6,7.8-8.1,0,0,.9,0,1.2-.3,6.8.1,14,9.4,16.5,21.7,1.4,6.7.9,13.3-1,18.1M149.9,552.2c-5,.9-9.5,5.1-11.9,11.6-2.2,6.1-2.7,13.6-1.4,21.3,2.6,15.3,12,25.9,21.7,26.2.7.4,1.5,0,2.1-.2,5-.9,9.5-5.1,11.9-11.6,2.2-6.1,2.7-13.6,1.4-21.3-2.9-16.5-13.4-27.7-24-25.7"/>
    <path class="st0" d="M218,583.1c-2.3,12.9-10.3,22.9-17.3,21.6-3.2-.4-6.2-3.7-7.9-8.2-1.9-5.1-2.3-11.7-1.5-18.1,1.9-12.2,9.2-22,16-21.9,0,0,.7.4,1.3.3,3.2.4,6.2,3.7,7.9,8.2,1.9,5.1,2.3,11.7,1.5,18.1M209.8,551.6c-10.6-1.9-21,9.6-23.6,26.2-1.2,7.7-.8,15.3,1.6,21.1,2.5,6.4,7,10.6,11.8,11.5.7.4,1.3.3,2.2.4,9.8,0,18.8-10.9,21.7-26.3,1.2-7.7.8-15.3-1.6-21.1-2.5-6.4-7-10.6-11.8-11.5"/>
    <path class="st0" d="M178.3,264.3c10.4-.2,19,8.5,19.2,18.9v8.9c-.1.4.2,1.5.9,2l16.7,16.4c7.4,7.4,7.6,19.3.2,26.7-7.4,7.4-19.3,7.6-26.7.2l-7.4-7.4-1.8-1.1h0c-.6.1-1.2.3-1.5,0-.7-.4-1.5,0-2,.8l-7.4,7.4c-7.4,7.4-19.3,7.6-26.7.2-7.4-7.4-7.6-19.3-.2-26.7l17.9-18.3,1.1-1.8v-7.4c-.2-10.4,8.4-19,18.9-19.2M154.1,283.3l.3,6.1-17.2,17.2c-9.6,9.5-9.5,24.8,0,34.4,9.5,9.6,24.8,9.5,34.4,0l6.4-6.5,6.5,6.4c4.6,4.7,11.2,6.7,17.4,7,6.4,0,12.3-2.5,17.2-7.4,9.6-9.5,9.5-24.8,0-34.4l-15.6-15.8v-7.4c-.3-13.5-11-24.3-24.5-24s-24.3,11-24,24.5"/>
    <path class="st0" d="M105.7,248.4c.9-1.4,3-2.6,6.4-2.5,3.4,0,7.7,1.2,11.7,3.5,8.3,5,12.2,11.7,10.2,15-2,3.3-9.8,4-18.1-1-8.3-5-12.2-11.7-10.2-15M113.1,268c5.1,3,10.3,4.2,14.6,4.3,4.9,0,9-2,11-5.2,3.9-6.5-1.4-16.6-12.1-22.5-10.5-6.3-21.7-5.6-25.6.9-3.9,6.5,1.4,16.6,12.1,22.5"/>
    <path class="st0" d="M240.9,262.4c-8.3,4.9-16.1,4.6-17.9,1.1-2-3.2,1.7-10.3,10-15.1,8.3-4.9,16.1-4.6,17.9-1.1,2,3.2-1.7,10.3-10,15.1M229.8,244c-10.5,6-15.6,16.2-11.9,22.4,1.8,3.5,6.2,5.2,11.1,5.2,4.3.1,9.8-1.5,14.5-4.6,10.5-6,15.6-16.2,11.9-22.4-3.8-6.7-15-7-25.7-.6"/>
    <path class="st0" d="M141,205.1c1.9-4.8,4.6-7.6,7.8-8.1,0,0,.9,0,1.2-.3,6.8.1,14,9.4,16.5,21.7,1.4,6.7.9,13.3-1,18.1-1.9,4.8-4.6,7.6-7.8,8.1-7.1,1.2-15.4-8.7-17.7-21.4-1.4-6.7-.9-13.3,1-18.1M156.3,250.1c.7.4,1.5,0,2.1-.2,5-.9,9.5-5.1,11.9-11.6,2.2-6.1,2.7-13.6,1.4-21.3-2.9-16.5-13.4-27.7-24-25.7-5.4.7-9.5,5.1-11.9,11.6-2.2,6.1-2.7,13.6-1.4,21.3,2.6,15.3,12,25.9,21.7,26.2"/>
    <path class="st0" d="M189.2,218.2c1.9-12.2,9.2-22,16-21.9,0,0,.7.4,1.3.3,3.2.4,6.2,3.7,7.9,8.2,1.9,5.1,2.3,11.7,1.5,18.1-2.3,12.9-10.3,22.9-17.3,21.6-3.2-.4-6.2-3.7-7.9-8.2-1.9-5.1-2.3-11.7-1.5-18.1M197.7,249.9c.7.4,1.3.3,2.2.4,9.8,0,18.8-10.9,21.7-26.3,1.2-7.7.8-15.3-1.6-21.1-2.5-6.4-7-10.6-11.8-11.5-10.3-1.7-21,9.6-23.6,26.2-1.2,7.7-.8,15.3,1.6,21.1,2.5,6.4,7,10.6,11.8,11.5"/>
    <path class="st1" d="M291.5,297.7c5.1-5.3,14-5.4,19.3-.2,1.1.7,2.8,1.2,4,0l72.4-73.2c.7-1.1,1.2-2.7,0-4-5.3-5.1-5.4-14-.2-19.3,2.5-2.5,5.8-3.9,9.8-4,3.4,0,7.1,1.3,9.6,3.8,3,3.3,4.7,7.7,4,12.2-.4.7-.1,1.9.9,2.5s1.4.9,2.6.6c4.4-.8,9,.5,12.2,3.4,2.5,2.5,3.9,5.8,4,9.8,0,3.4-1.3,7.1-3.8,9.6-5.1,5.3-14,5.4-19.3.2-1.1-.7-2.8-1.2-4,0l-72.4,73.2c-.7,1.1-1.2,2.7,0,4,5.3,5.1,5.4,14,.2,19.3-2.5,2.5-5.8,3.9-9.8,4-3.4,0-7.1-1.3-9.6-3.8-3-3.3-4.7-7.7-4-12.2.4-.7.1-1.9-.9-2.5l-1.8-1.1-.4-.2c-4.4.8-9-.5-12.2-3.4-2.5-2.5-3.9-5.8-4-9.8,0-3.4,1.3-7.1,3.8-9.6M301.1,326.1h0c0,4.9,1.9,10,5.6,13.7,3.7,3.7,8.5,5.6,13.4,5.6,4.9,0,9.6-2.1,13.3-5.8,6.6-6.9,7.4-17.2,1.5-24.7l68.7-69.5c7.5,5.5,18.2,5,24.7-1.9,3.7-3.7,5.6-8.5,5.6-13.4s-2.1-9.6-5.8-13.3c-3.7-3.7-8.7-5.2-13.4-5.6h0c0-4.9-1.9-10-5.6-13.7-3.7-3.7-8.7-5.2-13.4-5.6-4.9,0-9.6,2.1-13.3,5.8-6.6,6.9-7.4,17.2-1.5,24.7l-68.7,69.5c-7.5-5.5-18.2-5-24.7,1.9-3.7,3.7-5.6,8.5-5.6,13.4,0,4.9,2.1,9.6,5.8,13.3,3.7,3.7,8.7,5.2,13.4,5.6"/>
    <path class="st0" d="M396.2,516.3c-7.4,7.4-19.3,7.6-26.7.2l-7.4-7.4c-.7-.4-1.1-.7-1.8-1.1h0c-.6.1-1.2.3-1.5,0-.7-.4-1.5,0-2,.8l-7.4,7.4c-7.4,7.4-19.3,7.6-26.7.2-7.4-7.4-7.6-19.3-.2-26.7l17.9-18.3,1.1-1.8v-7.4c-.2-10.4,8.4-19,18.9-19.2,10.4-.2,19,8.5,19.2,18.9v8.9c-.1.4.2,1.5.9,2l16.7,16.4c7.4,7.4,7.6,19.3.2,26.7M383.8,469.5v-7.4c0-13.2-11-24.3-24.5-24-13.5.3-24.3,11-24,24.5l.3,6.1-17.2,17.2c-9.6,9.5-9.5,24.8,0,34.4,9.5,9.6,24.8,9.5,34.4,0l6.4-6.5,6.5,6.4c4.6,4.7,11.2,6.7,17.4,7,6.4,0,12.3-2.5,17.2-7.4,9.6-9.5,9.5-24.8,0-34.4l-15.6-15.8h-.9Z"/>
    <path class="st0" d="M314.9,443.5c-2,3.3-9.8,4-18.1-1-8.3-5-12.2-11.7-10.2-15s3-2.6,6.4-2.5c3.4,0,7.7,1.2,11.7,3.5,8.3,5,12.2,11.7,10.2,15M319.8,445.9c3.9-6.5-1.4-16.6-12.1-22.5-10.5-6.3-21.7-5.6-25.6.9s1.4,16.6,12.1,22.5c5.1,3,10.3,4.2,14.6,4.3,4.9,0,9-2,11-5.2"/>
    <path class="st0" d="M421.7,441.6c-8.3,4.9-16.1,4.6-17.9,1.1-2-3.2,1.7-10.3,10-15.1,8.3-4.9,16.1-4.6,17.9-1.1,2,3.2-1.7,10.3-10,15.1M436.3,423.8c-3.8-6.7-15-7-25.7-.6-10.5,6-15.6,16.2-11.9,22.4,1.8,3.5,6.2,5.2,11.1,5.2,4.3.1,9.8-1.5,14.5-4.6,10.5-6,15.6-16.2,11.9-22.4"/>
    <path class="st0" d="M322.2,384.4c1.9-4.8,4.6-7.6,7.8-8.1,0,0,.9,0,1.2-.3,6.8.1,14,9.4,16.5,21.7,1.4,6.7.9,13.3-1,18.1-1.9,4.8-4.6,7.6-7.8,8.1-7.1,1.2-15.4-8.7-17.7-21.4-1.4-6.7-.9-13.3,1-18.1M337.5,429.5c.7.4,1.5,0,2.1-.2,5-.9,9.5-5.1,11.9-11.6,2.2-6.1,2.7-13.6,1.4-21.3-2.9-16.5-13.4-27.7-24-25.7-5.4.7-9.5,5.1-11.9,11.6-2.2,6.1-2.7,13.6-1.4,21.3,2.6,15.3,12,25.9,21.7,26.2"/>
    <path class="st0" d="M370.4,397.6c1.9-12.2,9.2-22,16-21.9,0,0,.7.4,1.3.3,3.2.4,6.2,3.7,7.9,8.2,1.9,5.1,2.3,11.7,1.5,18.1-2.3,12.9-10.3,22.9-17.3,21.6-3.2-.4-6.2-3.7-7.9-8.2-1.9-5.1-2.3-11.7-1.5-18.1M379,429.2c.7.4,1.3.3,2.2.4,9.8,0,18.8-10.9,21.7-26.3,1.2-7.7.8-15.3-1.6-21.1-2.5-6.4-7-10.6-11.8-11.5-10.3-1.7-21,9.6-23.6,26.2-1.2,7.7-.8,15.3,1.6,21.1,2.5,6.4,7,10.6,11.8,11.5"/>
    <path class="st1" d="M583.3,418.9l-72.4,73.2c-.7,1.1-1.2,2.7,0,4,5.3,5.1,5.4,14,.2,19.3-2.5,2.5-5.8,3.9-9.8,4-4,0-7.1-1.3-9.6-3.8-3-3.3-4.7-7.7-4-12.2.4-.7.1-1.9-.9-2.5l-1.8-1.1-.4-.2c-4.4.8-9-.5-12.2-3.4-2.5-2.5-3.9-5.8-4-9.8,0-3.4,1.3-7.1,3.8-9.6,5.1-5.3,14-5.4,19.3-.2,1.1.7,2.8,1.2,4,0l72.4-73.2c.7-1.1,1.2-2.7,0-4-5.3-5.1-5.4-14-.2-19.3,2.5-2.5,5.8-3.9,9.8-4,4,0,7.1,1.3,9.6,3.8,3,3.3,4.7,7.7,4,12.2-.4.7-.1,1.9.9,2.5s1.4.9,2.6.6c4.4-.8,9,.5,12.2,3.4,2.5,2.5,3.9,5.8,4,9.8,0,3.4-1.3,7.1-3.8,9.6-5.1,5.3-14,5.4-19.3.2-1.1-.7-2.8-1.2-4,0M610.1,422.6c3.7-3.7,5.6-8.5,5.6-13.4,0-4.9-2.1-9.6-5.8-13.3-3.7-3.7-8.7-5.2-13.4-5.6h0c0-4.9-1.9-10-5.6-13.7-3.7-3.7-8.5-5.6-13.4-5.6-4.9,0-9.6,2.1-13.3,5.8-6.6,6.9-7.4,17.2-1.5,24.7l-68.7,69.5c-7.5-5.5-18.2-5-24.7,1.9-3.7,3.7-5.6,8.5-5.6,13.4,0,4.9,2.1,9.6,5.8,13.3,3.7,3.7,8.7,5.2,13.4,5.6h0c0,4.9,1.9,10,5.6,13.7,3.7,3.7,8.7,5.2,13.4,5.6,4.9,0,9.6-2.1,13.3-5.8,6.6-6.9,7.4-17.2,1.5-24.7l68.7-69.5c7.5,5.5,18.2,5,24.7-1.9"/>
    <path class="st0" d="M496.3,622.5c-2,3.3-9.8,4-18.1-1-8.3-5-12.2-11.7-10.2-15,.9-1.4,3-2.6,6.4-2.5,3.4,0,7.7,1.2,11.7,3.5,8.3,5,12.2,11.7,10.2,15M501,625.3c3.9-6.5-1.4-16.6-12.1-22.5-10.5-6.3-21.7-5.6-25.6.9s1.4,16.6,12.1,22.5c5.1,3,10.3,4.2,14.6,4.3,4.9,0,9-2,11-5.2"/>
    <path class="st0" d="M602.9,620.9c-8.3,4.9-16.1,4.6-17.9,1.1-2-3.2,1.7-10.3,10-15.1,8.3-4.9,16.1-4.6,17.9-1.1,2,3.2-1.7,10.3-10,15.1M617.8,602.8c-3.8-6.7-15-7-25.7-.6-10.5,6-15.6,16.2-11.9,22.4,1.8,3.5,6.2,5.2,11.1,5.2,4.3.1,9.8-1.5,14.5-4.6,10.5-6,15.6-16.2,11.9-22.4"/>
    <path class="st0" d="M503.6,563.4c1.9-4.8,4.6-7.6,7.8-8.1,0,0,.9,0,1.2-.3,6.8.1,14,9.4,16.5,21.7,1.4,6.7.9,13.3-1,18.1-1.9,4.8-4.6,7.6-7.8,8.1-7.1,1.2-15.4-8.7-17.7-21.4-1.4-6.7-.9-13.3,1-18.1M518.7,608.8c.7.4,1.5,0,2.1-.2,5-.9,9.5-5.1,11.9-11.6,2.2-6.1,2.7-13.6,1.4-21.3-2.9-16.5-13.4-27.7-24-25.7-5.4.7-9.5,5.1-11.9,11.6-2.2,6.1-2.7,13.6-1.4,21.3,2.6,15.3,12,25.9,21.7,26.2"/>
    <path class="st0" d="M551.8,576.5c1.9-12.2,9.2-22,16-21.9,0,0,.7.4,1.3.3,3.2.4,6.2,3.7,7.9,8.2,1.9,5.1,2.3,11.7,1.5,18.1-2.3,12.9-10.3,22.9-17.3,21.6-3.2-.4-6.2-3.7-7.9-8.2-1.9-5.1-2.3-11.7-1.5-18.1M560.4,608.2c.7.4,1.3.3,2.2.4,9.8,0,18.8-10.9,21.7-26.3,1.2-7.7.8-15.3-1.6-21.1-2.5-6.4-7-10.6-11.8-11.5-10.3-1.7-21,9.6-23.6,26.2-1.2,7.7-.8,15.3,1.6,21.1,2.5,6.4,7,10.6,11.8,11.5"/>
    <path class="st0" d="M538.5,262.2c10.4-.2,19,8.5,19.2,18.9v8.9c-.1.4.2,1.5.9,2l16.7,16.4c7.4,7.4,7.6,19.3.2,26.7-7.4,7.4-19.3,7.6-26.7.2l-7.4-7.4-1.8-1.1h0c-.6.1-1.2.3-1.5,0-.7-.4-1.5,0-2,.8l-7.4,7.4c-7.4,7.4-19.3,7.6-26.7.2-7.4-7.4-7.6-19.3-.2-26.7l17.9-18.3,1.1-1.8v-7.4c-.2-10.4,8.4-19,18.9-19.2M514.4,281.2l.3,6.1-17.2,17.2c-9.6,9.5-9.5,24.8,0,34.4,9.5,9.6,24.8,9.5,34.4,0l6.4-6.5,6.5,6.4c4.6,4.7,11.2,6.7,17.4,7,6.2.3,12.3-2.5,17.2-7.4,9.6-9.5,9.5-24.8,0-34.4l-15.6-15.8v-7.4c-.3-13.5-11-24.3-24.5-24-13.5.3-24.3,11-24,24.5"/>
    <path class="st0" d="M465.9,246.3c.9-1.4,3-2.6,6.4-2.5,3.4,0,7.7,1.2,11.7,3.5,8.3,5,12.2,11.7,10.2,15-2,3.3-9.8,4-18.1-1-8.3-5-12.2-11.7-10.2-15M473.3,266c5.1,3,10.3,4.2,14.6,4.3,4.9,0,9-2,11-5.2,3.9-6.5-1.4-16.6-12.1-22.5-10.5-6.3-21.7-5.6-25.6.9-3.9,6.5,1.4,16.6,12.1,22.5"/>
    <path class="st0" d="M601.1,260.4c-8.3,4.9-16.1,4.6-17.9,1.1-2-3.2,1.7-10.3,10-15.1,8.3-4.9,16.1-4.6,17.9-1.1,2,3.2-1.7,10.3-10,15.1M590,241.9c-10.5,6-15.6,16.2-11.9,22.4,1.8,3.5,6.2,5.2,11.1,5.2,4.3.1,9.8-1.5,14.5-4.6,10.5-6,15.6-16.2,11.9-22.4-3.8-6.7-15-7-25.7-.6"/>
    <path class="st0" d="M501.2,203c1.9-4.8,4.6-7.6,7.8-8.1,0,0,.9,0,1.2-.3,6.8.1,14,9.4,16.5,21.7,1.4,6.7.9,13.3-1,18.1-1.9,4.8-4.6,7.6-7.8,8.1-7.1,1.2-15.4-8.7-17.7-21.4-1.4-6.7-.9-13.3,1-18.1M516.9,248.3c.7.4,1.5,0,2.1-.2,5-.9,9.5-5.1,11.9-11.6,2.2-6.1,2.7-13.6,1.4-21.3-2.9-16.5-13.4-27.7-24-25.7-5.4.7-9.5,5.1-11.9,11.6-2.2,6.1-2.7,13.6-1.4,21.3,2.6,15.3,12,25.9,21.7,26.2"/>
    <path class="st0" d="M549.8,216.3c1.9-12.2,9.2-22,16-21.9,0,0,.7.4,1.3.3,3.2.4,6.2,3.7,7.9,8.2,1.9,5.1,2.3,11.7,1.5,18.1-2.3,12.9-10.3,22.9-17.3,21.6-3.2-.4-6.2-3.7-7.9-8.2-1.9-5.1-2.3-11.7-1.5-18.1M558,247.8c.7.4,1.3.3,2.2.4,9.8,0,18.8-10.9,21.7-26.3,1.2-7.7.8-15.3-1.6-21.1-2.5-6.4-7-10.6-11.8-11.5-10.3-1.7-21,9.6-23.6,26.2-1.2,7.7-.8,15.3,1.6,21.1,2.5,6.4,7,10.6,11.8,11.5"/>
  </g>
  <path class="st0" d="M22.3,169.9c6.4,0,12.3-2.5,17.2-7.4,9.6-9.5,9.5-24.8,0-34.4l-15.6-15.8v-7.4c-.3-13.5-11-24.3-24.5-24v5.5c10.6-.2,19.2,8.5,19.3,18.9v8.9c-.1.4.2,1.5.9,2l16.7,16.4c7.4,7.4,7.6,19.3.2,26.7-7.4,7.4-19.3,7.6-26.7.2l-7.4-7.4-1.8-1.1h0v6.4c0,0,5.9,5.9,5.9,5.9,4.6,4.7,11.2,6.7,17.4,7"/>
  <path class="st0" d="M61.5,84.7c-8.3,4.9-16.1,4.6-17.9,1.1-2-3.2,1.7-10.3,10-15.1,8.3-4.9,16.1-4.6,17.9-1.1,2,3.2-1.7,10.3-10,15.1M50.4,66.3c-10.5,6-15.6,16.2-11.9,22.4,1.8,3.5,6.2,5.2,11.1,5.2,4.3.1,9.8-1.5,14.5-4.6,10.5-6,15.6-16.2,11.9-22.4-3.8-6.7-15-7-25.7-.6"/>
  <path class="st0" d="M36.9,45.4c-2.3,12.9-10.3,22.9-17.3,21.6-3.2-.4-6.2-3.7-7.9-8.2-1.9-5.1-2.3-11.7-1.5-18.1,1.9-12.2,9.2-22,16-21.9,0,0,.7.4,1.3.3,3.2.4,6.2,3.7,7.9,8.2,1.9,5.1,2.3,11.7,1.5,18.1M40.4,24.9c-2.5-6.4-7-10.6-11.8-11.5-10.6-1.9-21,9.6-23.6,26.2-1.2,7.7-.8,15.3,1.6,21.1,2.5,6.4,7,10.6,11.8,11.5.7.4,1.3.3,2.2.4,9.8,0,18.8-10.9,21.7-26.3,1.2-7.7.8-15.3-1.6-21.1"/>
  <path class="st0" d="M695.6,106l.3,6.1-17.2,17.2c-9.6,9.5-9.5,24.8,0,34.4,9.5,9.6,24.8,9.5,34.4,0l6.4-6.5.7.4-.3-6.1c-.4-.2-.9,0-1.5,0-.7-.4-1.5,0-2,.8l-7.4,7.4c-7.4,7.4-19.3,7.6-26.7.2-7.4-7.4-7.6-19.3-.2-26.7l17.9-18.3c.4-.7.7-1.1,1.1-1.8v-7.4c-.2-10.4,8.4-19,18.9-19.2v-5.5c-13.6.3-24.4,11-24.1,24.5"/>
  <path class="st0" d="M647.4,66.4c.9-1.4,3-2.6,6.4-2.5,3.4,0,7.7,1.2,11.7,3.5,8.3,5,12.2,11.7,10.2,15-2,3.3-9.8,4-18.1-1s-12.2-11.7-10.2-15M654.8,86c5.1,3,10.3,4.2,14.6,4.3,4.9,0,9-2,11-5.2,3.9-6.5-1.4-16.6-12.1-22.5-10.5-6.3-21.7-5.6-25.6.9-3.9,6.5,1.4,16.6,12.1,22.5"/>
  <path class="st2" d="M697.7,68.5c.7.4,1.5,0,2.1-.2,5-.9,9.5-5.1,11.9-11.6,2.2-6.1,2.7-13.6,1.4-21.3-2.9-16.5-13.4-27.7-24-25.7-5.4.7-9.5,5.1-11.9,11.6-2.2,6.1-2.7,13.6-1.4,21.3,2.6,15.3,12,25.9,21.7,26.2"/>
  <path class="st1" d="M223.1,62.1l-72.4,73.2c-.7,1.1-1.2,2.7,0,4,5.3,5.1,5.4,14,.2,19.3-2.5,2.5-5.8,3.9-9.8,4-3.4,0-7.1-1.3-9.6-3.8-3-3.3-4.7-7.7-4-12.2.4-.7.1-1.9-.9-2.5l-1.8-1.1-.4-.2c-4.4.8-9-.5-12.2-3.4-2.5-2.5-3.9-5.8-4-9.8,0-3.4,1.3-7.1,3.8-9.6,5.1-5.3,14-5.4,19.3-.2,1.1.7,2.8,1.2,4,0l72.4-73.2c.7-1.1,1.2-2.7,0-4-5.3-5.1-5.4-14-.2-19.3,2.5-2.5,5.8-3.9,9.8-4,3.4,0,7.1,1.3,9.6,3.8,3,3.3,4.7,7.7,4,12.2-.4.7-.1,1.9.9,2.5s1.4.9,2.6.6c4.4-.8,9,.5,12.2,3.4,2.5,2.5,3.9,5.8,4,9.8,0,3.4-1.3,7.1-3.8,9.6-5.1,5.3-14,5.4-19.3.2-1.1-.7-2.8-1.2-4,0M249.9,65.8c3.7-3.7,5.6-8.5,5.6-13.4,0-4.9-2.1-9.6-5.8-13.3-3.7-3.7-8.7-5.2-13.4-5.6h0c0-4.9-1.9-10-5.6-13.7-3.7-3.7-8.5-5.6-13.4-5.6s-9.6,2.1-13.3,5.8c-6.6,6.9-7.4,17.2-1.5,24.7l-68.7,69.5c-7.5-5.5-18.2-5-24.7,1.9-3.7,3.7-5.6,8.5-5.6,13.4s2.1,9.6,5.8,13.3c3.7,3.7,8.7,5.2,13.4,5.6h0c0,4.9,1.9,10,5.6,13.7,3.7,3.7,8.7,5.2,13.4,5.6,4.9,0,9.6-2.1,13.3-5.8,6.6-6.9,7.4-17.2,1.5-24.7l68.7-69.5c7.5,5.5,18.2,5,24.7-1.9"/>
  <path class="st0" d="M396.2,157.3c-7.4,7.4-19.3,7.6-26.7.2l-7.4-7.4-1.8-1.1h0c-.6.1-1.2.3-1.5,0-.7-.4-1.5,0-2,.8l-7.4,7.4c-7.4,7.4-19.3,7.6-26.7.2-7.4-7.4-7.6-19.3-.2-26.7l17.9-18.3,1.1-1.8v-7.4c-.2-10.4,8.4-19,18.9-19.2,10.4-.2,19,8.5,19.2,18.9v8.9c-.1.4.2,1.5.9,2l16.7,16.4c7.4,7.4,7.6,19.3.2,26.7M383.8,110.6v-7.4c0-13.2-11-24.3-24.5-24-13.5.3-24.3,11-24,24.5l.3,6.1-17.2,17.2c-9.6,9.5-9.5,24.8,0,34.4s24.8,9.5,34.4,0l6.4-6.5,6.5,6.4c4.6,4.7,11.2,6.7,17.4,7,6.4,0,12.3-2.5,17.2-7.4,9.6-9.5,9.5-24.8,0-34.4l-15.6-15.8h-.9Z"/>
  <path class="st0" d="M314.9,84.6c-2,3.3-9.8,4-18.1-1-8.3-5-12.2-11.7-10.2-15s3-2.6,6.4-2.5c3.4,0,7.7,1.2,11.7,3.5,8.3,5,12.2,11.7,10.2,15M319.8,87c3.9-6.5-1.4-16.6-12.1-22.5-10.5-6.3-21.7-5.6-25.6.9-3.9,6.5,1.4,16.6,12.1,22.5,5.1,3,10.3,4.2,14.6,4.3,4.9,0,9-2,11-5.2"/>
  <path class="st0" d="M421.7,82.7c-8.3,4.9-16.1,4.6-17.9,1.1-2-3.2,1.7-10.3,10-15.1s16.1-4.6,17.9-1.1c2,3.2-1.7,10.3-10,15.1M436.3,64.9c-3.8-6.7-15-7-25.7-.6-10.5,6-15.6,16.2-11.9,22.4,1.8,3.5,6.2,5.2,11.1,5.2,4.3.1,9.8-1.5,14.5-4.6,10.5-6,15.6-16.2,11.9-22.4"/>
  <path class="st0" d="M322.2,25.5c1.9-4.8,4.6-7.6,7.8-8.1,0,0,.9,0,1.2-.3,6.8.1,14,9.4,16.5,21.7,1.4,6.7.9,13.3-1,18.1-1.9,4.8-4.6,7.6-7.8,8.1-7.1,1.2-15.4-8.7-17.7-21.4-1.4-6.7-.9-13.3,1-18.1M337.5,70.6c.7.4,1.5,0,2.1-.2,5-.9,9.5-5.1,11.9-11.6,2.2-6.1,2.7-13.6,1.4-21.3-2.9-16.5-13.4-27.7-24-25.7-5.4.7-9.5,5.1-11.9,11.6-2.2,6.1-2.7,13.6-1.4,21.3,2.6,15.3,12,25.9,21.7,26.2"/>
  <path class="st0" d="M370.4,38.6c1.9-12.2,9.2-22,16-21.9,0,0,.7.4,1.3.3,3.2.4,6.2,3.7,7.9,8.2,1.9,5.1,2.3,11.7,1.5,18.1-2.3,12.9-10.3,22.9-17.3,21.6-3.2-.4-6.2-3.7-7.9-8.2-1.9-5.1-2.3-11.7-1.5-18.1M379,70.3c.7.4,1.3.3,2.2.4,9.8,0,18.8-10.9,21.7-26.3,1.2-7.7.8-15.3-1.6-21.1-2.5-6.4-7-10.6-11.8-11.5-10.3-1.7-21,9.6-23.6,26.2-1.2,7.7-.8,15.3,1.6,21.1,2.5,6.4,7,10.6,11.8,11.5"/>
  <path class="st1" d="M583.3,60l-72.4,73.2c-.7,1.1-1.2,2.7,0,4,5.3,5.1,5.4,14,.2,19.3-2.5,2.5-5.8,3.9-9.8,4-4,0-7.1-1.3-9.6-3.8-3-3.3-4.7-7.7-4-12.2.4-.7.1-1.9-.9-2.5l-1.8-1.1-.4-.2c-4.4.8-9-.5-12.2-3.4-2.5-2.5-3.9-5.8-4-9.8,0-3.4,1.3-7.1,3.8-9.6,5.1-5.3,14-5.4,19.3-.2,1.1.7,2.8,1.2,4,0l72.4-73.2c.7-1.1,1.2-2.7,0-4-5.3-5.1-5.4-14-.2-19.3,2.5-2.5,5.8-3.9,9.8-4s7.1,1.3,9.6,3.8c3,3.3,4.7,7.7,4,12.2-.4.7-.1,1.9.9,2.5s1.4.9,2.6.6c4.4-.8,9,.5,12.2,3.4,2.5,2.5,3.9,5.8,4,9.8,0,3.4-1.3,7.1-3.8,9.6-5.1,5.3-14,5.4-19.3.2-1.1-.7-2.8-1.2-4,0M610.1,63.7c3.7-3.7,5.6-8.5,5.6-13.4,0-4.9-2.1-9.6-5.8-13.3-3.7-3.7-8.7-5.2-13.4-5.6h0c0-4.9-1.9-10-5.6-13.7-3.7-3.7-8.5-5.6-13.4-5.6-4.9,0-9.6,2.1-13.3,5.8-6.6,6.9-7.4,17.2-1.5,24.7l-68.7,69.5c-7.5-5.5-18.2-5-24.7,1.9-3.7,3.7-5.6,8.5-5.6,13.4,0,4.9,2.1,9.6,5.8,13.3,3.7,3.7,8.7,5.2,13.4,5.6h0c0,4.9,1.9,10,5.6,13.7,3.7,3.7,8.7,5.2,13.4,5.6,4.9,0,9.6-2.1,13.3-5.8,6.6-6.9,7.4-17.2,1.5-24.7l68.7-69.5c7.5,5.5,18.2,5,24.7-1.9"/>
  <path class="st3" d="M301.1,687.5h0c0,4.9,1.9,10,5.6,13.7,3.7,3.7,8.5,5.6,13.4,5.6,4.9,0,9.6-2.1,13.3-5.8,6.6-6.9,7.4-17.2,1.5-24.7l68.7-69.5c7.5,5.5,18.2,5,24.7-1.9,3.7-3.7,5.6-8.5,5.6-13.4s-2.1-9.6-5.8-13.3c-3.7-3.7-8.7-5.2-13.4-5.6h0c0-4.9-1.9-10-5.6-13.7-3.7-3.7-8.7-5.2-13.4-5.6-4.9,0-9.6,2.1-13.3,5.8-6.6,6.9-7.4,17.2-1.5,24.7l-68.7,69.5c-7.5-5.5-18.2-5-24.7,1.9-3.7,3.7-5.6,8.5-5.6,13.4,0,4.9,2.1,9.6,5.8,13.3,3.7,3.7,8.7,5.2,13.4,5.6"/>
  <path class="st2" d="M178.3,625.8c10.4-.2,19,8.5,19.2,18.9v8.9c-.1.4.2,1.5.9,2l16.7,16.4c7.4,7.4,7.6,19.3.2,26.7-7.4,7.4-19.3,7.6-26.7.2l-7.4-7.4-1.8-1.1h0c-.6.1-1.2.3-1.5,0-.7-.4-1.5,0-2,.8l-7.4,7.4c-7.4,7.4-19.3,7.6-26.7.2-7.4-7.4-7.6-19.3-.2-26.7l17.9-18.3c.4-.7.7-1.1,1.1-1.8v-7.4c-.2-10.4,8.4-19,18.9-19.2"/>
  <path class="st2" d="M514.4,642.7l.3,6.1-17.2,17.2c-9.6,9.5-9.5,24.8,0,34.4,9.5,9.6,24.8,9.5,34.4,0l6.4-6.5,6.5,6.4c4.6,4.7,11.2,6.7,17.4,7,6.2.3,12.3-2.5,17.2-7.4,9.6-9.5,9.5-24.8,0-34.4l-15.6-15.8v-7.4c-.3-13.5-11-24.3-24.5-24-13.5.3-24.3,11-24,24.5"/>
  <g>
    <path class="st1" d="M68.9,245.4c3.7-3.7,5.6-8.5,5.6-13.4s-2.1-9.6-5.8-13.3c-3.7-3.7-8.7-5.2-13.4-5.6h0c0-4.9-1.9-10-5.6-13.7-3.7-3.7-8.5-5.6-13.4-5.6-4.9,0-9.6,2.1-13.3,5.8-6.6,6.9-7.4,17.2-1.5,24.7L-1.2,247.7v7.4s28.5-28.7,28.5-28.7c.7-1.1,1.2-2.7,0-4-5.3-5.1-5.4-14-.2-19.3,2.5-2.5,5.8-3.9,9.8-4,3.4,0,7.1,1.3,9.6,3.8,3,3.3,4.7,7.7,4,12.2-.4.7-.1,1.9.9,2.5s1.4.9,2.6.6c4.4-.8,9,.5,12.2,3.4,2.5,2.5,3.9,5.8,4,9.8,0,3.4-1.3,7.1-3.8,9.6-5.1,5.3-14,5.4-19.3.2-1.1-.7-2.8-1.2-4,0L-.7,285.4v7.4s45.9-46.3,45.9-46.3c7.5,5.5,18.2,5,24.7-1.9"/>
    <path class="st1" d="M70.8,606c3.7-3.7,5.6-8.5,5.6-13.4s-2.1-9.6-5.8-13.3c-3.7-3.7-8.7-5.2-13.4-5.6h0c0-4.9-1.9-10-5.6-13.7-3.7-3.7-8.5-5.6-13.4-5.6-4.9,0-9.6,2.1-13.3,5.8-6.6,6.9-7.4,17.2-1.5,24.7l-22.8,23.2-.2,7.7,28.5-28.7c.7-1.1,1.2-2.7,0-4-5.3-5.1-5.4-14-.2-19.3,2.5-2.5,5.8-3.9,9.8-4,4,0,7.1,1.3,9.6,3.8,3,3.3,4.7,7.7,4,12.2-.4.7-.1,1.9.9,2.5s1.4.9,2.6.6c4.4-.8,9,.5,12.2,3.4,2.5,2.5,3.9,5.8,4,9.8,0,3.4-1.3,7.1-3.8,9.6-5.1,5.3-14,5.4-19.3.2-1.1-.7-2.8-1.2-4,0L1,646.3v7.4s45.9-46.3,45.9-46.3c7.5,5.5,18.2,5,24.7-1.9"/>
    <path class="st0" d="M22.6,528.9c6.4,0,12.3-2.5,17.2-7.4,9.6-9.5,9.5-24.8,0-34.4l-15.6-15.8v-7.4c-.3-13.5-11-24.3-24.5-24v5.5c10.6-.2,19.2,8.5,19.3,18.9v8.9c-.1.4.2,1.5.9,2l16.7,16.4c7.4,7.4,7.6,19.3.2,26.7-7.4,7.4-19.3,7.6-26.7.2l-7.4-7.4-1.8-1.1h0v6.4c0,0,5.9,5.9,5.9,5.9,4.6,4.7,11.2,6.7,17.4,7"/>
    <path class="st0" d="M61.8,443.7c-8.3,4.9-16.1,4.6-17.9,1.1-2-3.2,1.7-10.3,10-15.1,8.3-4.9,16.1-4.6,17.9-1.1,2,3.2-1.7,10.3-10,15.1M50.7,425.3c-10.5,6-15.6,16.2-11.9,22.4,1.8,3.5,6.2,5.2,11.1,5.2,4.3.1,9.8-1.5,14.5-4.6,10.5-6,15.6-16.2,11.9-22.4-3.8-6.7-15-7-25.7-.6"/>
    <path class="st0" d="M37.2,404.4c-2.3,12.9-10.3,22.9-17.3,21.6-3.2-.4-6.2-3.7-7.9-8.2-1.9-5.1-2.3-11.7-1.5-18.1,1.9-12.2,9.2-22,16-21.9,0,0,.7.4,1.3.3,3.2.4,6.2,3.7,7.9,8.2,1.9,5.1,2.3,11.7,1.5,18.1M40.6,383.9c-2.5-6.4-7-10.6-11.8-11.5-10.6-1.9-21,9.6-23.6,26.2-1.2,7.7-.8,15.3,1.6,21.1,2.5,6.4,7,10.6,11.8,11.5.7.4,1.3.3,2.2.4,9.8,0,18.8-10.9,21.7-26.3,1.2-7.7.8-15.3-1.6-21.1"/>
    <path class="st0" d="M647.6,425.4c.9-1.4,3-2.6,6.4-2.5,3.4,0,7.7,1.2,11.7,3.5,8.3,5,12.2,11.7,10.2,15-2,3.3-9.8,4-18.1-1-8.3-5-12.2-11.7-10.2-15M655,445c5.1,3,10.3,4.2,14.6,4.3,4.9,0,9-2,11-5.2,3.9-6.5-1.4-16.6-12.1-22.5-10.5-6.3-21.7-5.6-25.6.9-3.9,6.5,1.4,16.6,12.1,22.5"/>
    <path class="st2" d="M698,427.5c.7.4,1.5,0,2.1-.2,5-.9,9.5-5.1,11.9-11.6,2.2-6.1,2.7-13.6,1.4-21.3-2.9-16.5-13.4-27.7-24-25.7-5.4.7-9.5,5.1-11.9,11.6-2.2,6.1-2.7,13.6-1.4,21.3,2.6,15.3,12,25.9,21.7,26.2"/>
    <path class="st1" d="M223.4,421.1l-72.4,73.2c-.7,1.1-1.2,2.7,0,4,5.3,5.1,5.4,14,.2,19.3-2.5,2.5-5.8,3.9-9.8,4-3.4,0-7.1-1.3-9.6-3.8-3-3.3-4.7-7.7-4-12.2.4-.7.1-1.9-.9-2.5s-1.1-.7-1.8-1.1l-.4-.2c-4.4.8-9-.5-12.2-3.4-2.5-2.5-3.9-5.8-4-9.8,0-3.4,1.3-7.1,3.8-9.6,5.1-5.3,14-5.4,19.3-.2,1.1.7,2.8,1.2,4,0l72.4-73.2c.7-1.1,1.2-2.7,0-4-5.3-5.1-5.4-14-.2-19.3,2.5-2.5,5.8-3.9,9.8-4,3.4,0,7.1,1.3,9.6,3.8,3,3.3,4.7,7.7,4,12.2-.4.7-.1,1.9.9,2.5.7.4,1.4.9,2.6.6,4.4-.8,9,.5,12.2,3.4,2.5,2.5,3.9,5.8,4,9.8,0,3.4-1.3,7.1-3.8,9.6-5.1,5.3-14,5.4-19.3.2-1.1-.7-2.8-1.2-4,0M250.2,424.8c3.7-3.7,5.6-8.5,5.6-13.4,0-4.9-2.1-9.6-5.8-13.3-3.7-3.7-8.7-5.2-13.4-5.6h0c0-4.9-1.9-10-5.6-13.7-3.7-3.7-8.5-5.6-13.4-5.6-4.9,0-9.6,2.1-13.3,5.8-6.6,6.9-7.4,17.2-1.5,24.7l-68.7,69.5c-7.5-5.5-18.2-5-24.7,1.9-3.7,3.7-5.6,8.5-5.6,13.4s2.1,9.6,5.8,13.3,8.7,5.2,13.4,5.6h0c0,4.9,1.9,10,5.6,13.7,3.7,3.7,8.7,5.2,13.4,5.6,4.9,0,9.6-2.1,13.3-5.8,6.6-6.9,7.4-17.2,1.5-24.7l68.7-69.5c7.5,5.5,18.2,5,24.7-1.9"/>
    <path class="st0" d="M136.1,625c-2,3.3-9.8,4-18.1-1-8.3-5-12.2-11.7-10.2-15s3-2.6,6.4-2.5,7.7,1.2,11.7,3.5c8.3,5,12.2,11.7,10.2,15M140.7,627.2c3.9-6.5-1.4-16.6-12.1-22.5-10.5-6.3-21.7-5.6-25.6.9-3.9,6.5,1.4,16.6,12.1,22.5,5.1,3,10.3,4.2,14.6,4.3,4.9,0,9-2,11-5.2"/>
    <path class="st0" d="M243,623.1c-8.3,4.9-16.1,4.6-17.9,1.1-2-3.2,1.7-10.3,10-15.1,8.3-4.9,16.1-4.6,17.9-1.1,2,3.2-1.7,10.3-10,15.1M232.1,604.3c-10.5,6-15.6,16.2-11.9,22.4,1.8,3.5,6.2,5.2,11.1,5.2,4.3.1,9.8-1.5,14.5-4.6,10.5-6,15.6-16.2,11.9-22.4-3.8-6.7-15-7-25.7-.6"/>
    <path class="st0" d="M167.6,597.1c-1.9,4.8-4.6,7.6-7.8,8.1-7.3,1.5-15.4-8.7-17.7-21.4-1.4-6.7-.9-13.3,1-18.1,1.9-4.8,4.6-7.6,7.8-8.1,0,0,.9,0,1.2-.3,6.8.1,14,9.4,16.5,21.7,1.4,6.7.9,13.3-1,18.1M150.2,552.3c-5,.9-9.5,5.1-11.9,11.6-2.2,6.1-2.7,13.6-1.4,21.3,2.6,15.3,12,25.9,21.7,26.2.7.4,1.5,0,2.1-.2,5-.9,9.5-5.1,11.9-11.6,2.2-6.1,2.7-13.6,1.4-21.3-2.9-16.5-13.4-27.7-24-25.7"/>
    <path class="st0" d="M218.2,583.2c-2.3,12.9-10.3,22.9-17.3,21.6-3.2-.4-6.2-3.7-7.9-8.2-1.9-5.1-2.3-11.7-1.5-18.1,1.9-12.2,9.2-22,16-21.9,0,0,.7.4,1.3.3,3.2.4,6.2,3.7,7.9,8.2,1.9,5.1,2.3,11.7,1.5,18.1M210,551.7c-10.6-1.9-21,9.6-23.6,26.2-1.2,7.7-.8,15.3,1.6,21.1,2.5,6.4,7,10.6,11.8,11.5.7.4,1.3.3,2.2.4,9.8,0,18.8-10.9,21.7-26.3,1.2-7.7.8-15.3-1.6-21.1-2.5-6.4-7-10.6-11.8-11.5"/>
    <path class="st0" d="M178.6,264.4c10.4-.2,19,8.5,19.2,18.9v8.9c-.1.4.2,1.5.9,2l16.7,16.4c7.4,7.4,7.6,19.3.2,26.7-7.4,7.4-19.3,7.6-26.7.2l-7.4-7.4-1.8-1.1h0c-.6.1-1.2.3-1.5,0-.7-.4-1.5,0-2,.8l-7.4,7.4c-7.4,7.4-19.3,7.6-26.7.2-7.4-7.4-7.6-19.3-.2-26.7l17.9-18.3,1.1-1.8v-7.4c-.2-10.4,8.4-19,18.9-19.2M154.4,283.4l.3,6.1-17.2,17.2c-9.6,9.5-9.5,24.8,0,34.4,9.5,9.6,24.8,9.5,34.4,0l6.4-6.5,6.5,6.4c4.6,4.7,11.2,6.7,17.4,7,6.4,0,12.3-2.5,17.2-7.4,9.6-9.5,9.5-24.8,0-34.4l-15.6-15.8v-7.4c-.3-13.5-11-24.3-24.5-24s-24.3,11-24,24.5"/>
    <path class="st0" d="M106,248.5c.9-1.4,3-2.6,6.4-2.5,3.4,0,7.7,1.2,11.7,3.5,8.3,5,12.2,11.7,10.2,15-2,3.3-9.8,4-18.1-1-8.3-5-12.2-11.7-10.2-15M113.4,268.1c5.1,3,10.3,4.2,14.6,4.3,4.9,0,9-2,11-5.2,3.9-6.5-1.4-16.6-12.1-22.5-10.5-6.3-21.7-5.6-25.6.9-3.9,6.5,1.4,16.6,12.1,22.5"/>
    <path class="st0" d="M241.1,262.5c-8.3,4.9-16.1,4.6-17.9,1.1-2-3.2,1.7-10.3,10-15.1,8.3-4.9,16.1-4.6,17.9-1.1,2,3.2-1.7,10.3-10,15.1M230.1,244.1c-10.5,6-15.6,16.2-11.9,22.4,1.8,3.5,6.2,5.2,11.1,5.2,4.3.1,9.8-1.5,14.5-4.6,10.5-6,15.6-16.2,11.9-22.4-3.8-6.7-15-7-25.7-.6"/>
    <path class="st0" d="M141.3,205.2c1.9-4.8,4.6-7.6,7.8-8.1,0,0,.9,0,1.2-.3,6.8.1,14,9.4,16.5,21.7,1.4,6.7.9,13.3-1,18.1-1.9,4.8-4.6,7.6-7.8,8.1-7.1,1.2-15.4-8.7-17.7-21.4-1.4-6.7-.9-13.3,1-18.1M156.6,250.2c.7.4,1.5,0,2.1-.2,5-.9,9.5-5.1,11.9-11.6,2.2-6.1,2.7-13.6,1.4-21.3-2.9-16.5-13.4-27.7-24-25.7-5.4.7-9.5,5.1-11.9,11.6-2.2,6.1-2.7,13.6-1.4,21.3,2.6,15.3,12,25.9,21.7,26.2"/>
    <path class="st0" d="M189.5,218.3c1.9-12.2,9.2-22,16-21.9,0,0,.7.4,1.3.3,3.2.4,6.2,3.7,7.9,8.2,1.9,5.1,2.3,11.7,1.5,18.1-2.3,12.9-10.3,22.9-17.3,21.6-3.2-.4-6.2-3.7-7.9-8.2-1.9-5.1-2.3-11.7-1.5-18.1M198,250c.7.4,1.3.3,2.2.4,9.8,0,18.8-10.9,21.7-26.3,1.2-7.7.8-15.3-1.6-21.1-2.5-6.4-7-10.6-11.8-11.5-10.3-1.7-21,9.6-23.6,26.2-1.2,7.7-.8,15.3,1.6,21.1,2.5,6.4,7,10.6,11.8,11.5"/>
    <path class="st1" d="M291.8,297.8c5.1-5.3,14-5.4,19.3-.2,1.1.7,2.8,1.2,4,0l72.4-73.2c.7-1.1,1.2-2.7,0-4-5.3-5.1-5.4-14-.2-19.3,2.5-2.5,5.8-3.9,9.8-4,3.4,0,7.1,1.3,9.6,3.8,3,3.3,4.7,7.7,4,12.2-.4.7-.1,1.9.9,2.5s1.4.9,2.6.6c4.4-.8,9,.5,12.2,3.4,2.5,2.5,3.9,5.8,4,9.8,0,3.4-1.3,7.1-3.8,9.6-5.1,5.3-14,5.4-19.3.2-1.1-.7-2.8-1.2-4,0l-72.4,73.2c-.7,1.1-1.2,2.7,0,4,5.3,5.1,5.4,14,.2,19.3-2.5,2.5-5.8,3.9-9.8,4-3.4,0-7.1-1.3-9.6-3.8-3-3.3-4.7-7.7-4-12.2.4-.7.1-1.9-.9-2.5l-1.8-1.1-.4-.2c-4.4.8-9-.5-12.2-3.4-2.5-2.5-3.9-5.8-4-9.8,0-3.4,1.3-7.1,3.8-9.6M301.4,326.2h0c0,4.9,1.9,10,5.6,13.7,3.7,3.7,8.5,5.6,13.4,5.6,4.9,0,9.6-2.1,13.3-5.8,6.6-6.9,7.4-17.2,1.5-24.7l68.7-69.5c7.5,5.5,18.2,5,24.7-1.9,3.7-3.7,5.6-8.5,5.6-13.4s-2.1-9.6-5.8-13.3c-3.7-3.7-8.7-5.2-13.4-5.6h0c0-4.9-1.9-10-5.6-13.7-3.7-3.7-8.7-5.2-13.4-5.6-4.9,0-9.6,2.1-13.3,5.8-6.6,6.9-7.4,17.2-1.5,24.7l-68.7,69.5c-7.5-5.5-18.2-5-24.7,1.9-3.7,3.7-5.6,8.5-5.6,13.4,0,4.9,2.1,9.6,5.8,13.3,3.7,3.7,8.7,5.2,13.4,5.6"/>
    <path class="st0" d="M396.4,516.3c-7.4,7.4-19.3,7.6-26.7.2l-7.4-7.4c-.7-.4-1.1-.7-1.8-1.1h0c-.6.1-1.2.3-1.5,0-.7-.4-1.5,0-2,.8l-7.4,7.4c-7.4,7.4-19.3,7.6-26.7.2-7.4-7.4-7.6-19.3-.2-26.7l17.9-18.3,1.1-1.8v-7.4c-.2-10.4,8.4-19,18.9-19.2,10.4-.2,19,8.5,19.2,18.9v8.9c-.1.4.2,1.5.9,2l16.7,16.4c7.4,7.4,7.6,19.3.2,26.7M384.1,469.6v-7.4c0-13.2-11-24.3-24.5-24-13.5.3-24.3,11-24,24.5l.3,6.1-17.2,17.2c-9.6,9.5-9.5,24.8,0,34.4,9.5,9.6,24.8,9.5,34.4,0l6.4-6.5,6.5,6.4c4.6,4.7,11.2,6.7,17.4,7,6.4,0,12.3-2.5,17.2-7.4,9.6-9.5,9.5-24.8,0-34.4l-15.6-15.8h-.9Z"/>
    <path class="st0" d="M315.1,443.6c-2,3.3-9.8,4-18.1-1-8.3-5-12.2-11.7-10.2-15s3-2.6,6.4-2.5c3.4,0,7.7,1.2,11.7,3.5,8.3,5,12.2,11.7,10.2,15M320.1,446c3.9-6.5-1.4-16.6-12.1-22.5-10.5-6.3-21.7-5.6-25.6.9s1.4,16.6,12.1,22.5c5.1,3,10.3,4.2,14.6,4.3,4.9,0,9-2,11-5.2"/>
    <path class="st0" d="M422,441.7c-8.3,4.9-16.1,4.6-17.9,1.1-2-3.2,1.7-10.3,10-15.1s16.1-4.6,17.9-1.1c2,3.2-1.7,10.3-10,15.1M436.6,423.9c-3.8-6.7-15-7-25.7-.6-10.5,6-15.6,16.2-11.9,22.4,1.8,3.5,6.2,5.2,11.1,5.2,4.3.1,9.8-1.5,14.5-4.6,10.5-6,15.6-16.2,11.9-22.4"/>
    <path class="st0" d="M322.5,384.5c1.9-4.8,4.6-7.6,7.8-8.1,0,0,.9,0,1.2-.3,6.8.1,14,9.4,16.5,21.7,1.4,6.7.9,13.3-1,18.1-1.9,4.8-4.6,7.6-7.8,8.1-7.1,1.2-15.4-8.7-17.7-21.4-1.4-6.7-.9-13.3,1-18.1M337.8,429.6c.7.4,1.5,0,2.1-.2,5-.9,9.5-5.1,11.9-11.6,2.2-6.1,2.7-13.6,1.4-21.3-2.9-16.5-13.4-27.7-24-25.7-5.4.7-9.5,5.1-11.9,11.6-2.2,6.1-2.7,13.6-1.4,21.3,2.6,15.3,12,25.9,21.7,26.2"/>
    <path class="st0" d="M370.7,397.6c1.9-12.2,9.2-22,16-21.9,0,0,.7.4,1.3.3,3.2.4,6.2,3.7,7.9,8.2,1.9,5.1,2.3,11.7,1.5,18.1-2.3,12.9-10.3,22.9-17.3,21.6-3.2-.4-6.2-3.7-7.9-8.2-1.9-5.1-2.3-11.7-1.5-18.1M379.2,429.3c.7.4,1.3.3,2.2.4,9.8,0,18.8-10.9,21.7-26.3,1.2-7.7.8-15.3-1.6-21.1-2.5-6.4-7-10.6-11.8-11.5-10.3-1.7-21,9.6-23.6,26.2-1.2,7.7-.8,15.3,1.6,21.1,2.5,6.4,7,10.6,11.8,11.5"/>
    <path class="st1" d="M583.6,419l-72.4,73.2c-.7,1.1-1.2,2.7,0,4,5.3,5.1,5.4,14,.2,19.3-2.5,2.5-5.8,3.9-9.8,4-4,0-7.1-1.3-9.6-3.8-3-3.3-4.7-7.7-4-12.2.4-.7.1-1.9-.9-2.5l-1.8-1.1-.4-.2c-4.4.8-9-.5-12.2-3.4-2.5-2.5-3.9-5.8-4-9.8,0-3.4,1.3-7.1,3.8-9.6,5.1-5.3,14-5.4,19.3-.2,1.1.7,2.8,1.2,4,0l72.4-73.2c.7-1.1,1.2-2.7,0-4-5.3-5.1-5.4-14-.2-19.3,2.5-2.5,5.8-3.9,9.8-4,4,0,7.1,1.3,9.6,3.8,3,3.3,4.7,7.7,4,12.2-.4.7-.1,1.9.9,2.5s1.4.9,2.6.6c4.4-.8,9,.5,12.2,3.4,2.5,2.5,3.9,5.8,4,9.8,0,3.4-1.3,7.1-3.8,9.6-5.1,5.3-14,5.4-19.3.2-1.1-.7-2.8-1.2-4,0M610.4,422.7c3.7-3.7,5.6-8.5,5.6-13.4,0-4.9-2.1-9.6-5.8-13.3-3.7-3.7-8.7-5.2-13.4-5.6h0c0-4.9-1.9-10-5.6-13.7-3.7-3.7-8.5-5.6-13.4-5.6-4.9,0-9.6,2.1-13.3,5.8-6.6,6.9-7.4,17.2-1.5,24.7l-68.7,69.5c-7.5-5.5-18.2-5-24.7,1.9-3.7,3.7-5.6,8.5-5.6,13.4,0,4.9,2.1,9.6,5.8,13.3,3.7,3.7,8.7,5.2,13.4,5.6h0c0,4.9,1.9,10,5.6,13.7,3.7,3.7,8.7,5.2,13.4,5.6,4.9,0,9.6-2.1,13.3-5.8,6.6-6.9,7.4-17.2,1.5-24.7l68.7-69.5c7.5,5.5,18.2,5,24.7-1.9"/>
    <path class="st0" d="M496.6,622.5c-2,3.3-9.8,4-18.1-1-8.3-5-12.2-11.7-10.2-15,.9-1.4,3-2.6,6.4-2.5,3.4,0,7.7,1.2,11.7,3.5,8.3,5,12.2,11.7,10.2,15M501.3,625.4c3.9-6.5-1.4-16.6-12.1-22.5-10.5-6.3-21.7-5.6-25.6.9s1.4,16.6,12.1,22.5c5.1,3,10.3,4.2,14.6,4.3,4.9,0,9-2,11-5.2"/>
    <path class="st0" d="M603.2,621c-8.3,4.9-16.1,4.6-17.9,1.1-2-3.2,1.7-10.3,10-15.1,8.3-4.9,16.1-4.6,17.9-1.1,2,3.2-1.7,10.3-10,15.1M618,602.8c-3.8-6.7-15-7-25.7-.6-10.5,6-15.6,16.2-11.9,22.4,1.8,3.5,6.2,5.2,11.1,5.2,4.3.1,9.8-1.5,14.5-4.6,10.5-6,15.6-16.2,11.9-22.4"/>
    <path class="st0" d="M503.9,563.5c1.9-4.8,4.6-7.6,7.8-8.1,0,0,.9,0,1.2-.3,6.8.1,14,9.4,16.5,21.7,1.4,6.7.9,13.3-1,18.1-1.9,4.8-4.6,7.6-7.8,8.1-7.1,1.2-15.4-8.7-17.7-21.4-1.4-6.7-.9-13.3,1-18.1M519,608.9c.7.4,1.5,0,2.1-.2,5-.9,9.5-5.1,11.9-11.6,2.2-6.1,2.7-13.6,1.4-21.3-2.9-16.5-13.4-27.7-24-25.7-5.4.7-9.5,5.1-11.9,11.6-2.2,6.1-2.7,13.6-1.4,21.3,2.6,15.3,12,25.9,21.7,26.2"/>
    <path class="st0" d="M552.1,576.6c1.9-12.2,9.2-22,16-21.9,0,0,.7.4,1.3.3,3.2.4,6.2,3.7,7.9,8.2,1.9,5.1,2.3,11.7,1.5,18.1-2.3,12.9-10.3,22.9-17.3,21.6-3.2-.4-6.2-3.7-7.9-8.2-1.9-5.1-2.3-11.7-1.5-18.1M560.7,608.3c.7.4,1.3.3,2.2.4,9.8,0,18.8-10.9,21.7-26.3,1.2-7.7.8-15.3-1.6-21.1-2.5-6.4-7-10.6-11.8-11.5-10.3-1.7-21,9.6-23.6,26.2-1.2,7.7-.8,15.3,1.6,21.1,2.5,6.4,7,10.6,11.8,11.5"/>
    <path class="st0" d="M538.8,262.3c10.4-.2,19,8.5,19.2,18.9v8.9c-.1.4.2,1.5.9,2l16.7,16.4c7.4,7.4,7.6,19.3.2,26.7-7.4,7.4-19.3,7.6-26.7.2l-7.4-7.4-1.8-1.1h0c-.6.1-1.2.3-1.5,0-.7-.4-1.5,0-2,.8l-7.4,7.4c-7.4,7.4-19.3,7.6-26.7.2-7.4-7.4-7.6-19.3-.2-26.7l17.9-18.3,1.1-1.8v-7.4c-.2-10.4,8.4-19,18.9-19.2M514.6,281.3l.3,6.1-17.2,17.2c-9.6,9.5-9.5,24.8,0,34.4,9.5,9.6,24.8,9.5,34.4,0l6.4-6.5,6.5,6.4c4.6,4.7,11.2,6.7,17.4,7,6.2.3,12.3-2.5,17.2-7.4,9.6-9.5,9.5-24.8,0-34.4l-15.6-15.8v-7.4c-.3-13.5-11-24.3-24.5-24-13.5.3-24.3,11-24,24.5"/>
    <path class="st0" d="M466.2,246.4c.9-1.4,3-2.6,6.4-2.5,3.4,0,7.7,1.2,11.7,3.5,8.3,5,12.2,11.7,10.2,15-2,3.3-9.8,4-18.1-1-8.3-5-12.2-11.7-10.2-15M473.6,266c5.1,3,10.3,4.2,14.6,4.3,4.9,0,9-2,11-5.2,3.9-6.5-1.4-16.6-12.1-22.5-10.5-6.3-21.7-5.6-25.6.9-3.9,6.5,1.4,16.6,12.1,22.5"/>
    <path class="st0" d="M601.3,260.5c-8.3,4.9-16.1,4.6-17.9,1.1-2-3.2,1.7-10.3,10-15.1,8.3-4.9,16.1-4.6,17.9-1.1,2,3.2-1.7,10.3-10,15.1M590.3,242c-10.5,6-15.6,16.2-11.9,22.4,1.8,3.5,6.2,5.2,11.1,5.2,4.3.1,9.8-1.5,14.5-4.6,10.5-6,15.6-16.2,11.9-22.4-3.8-6.7-15-7-25.7-.6"/>
    <path class="st0" d="M501.5,203.1c1.9-4.8,4.6-7.6,7.8-8.1,0,0,.9,0,1.2-.3,6.8.1,14,9.4,16.5,21.7,1.4,6.7.9,13.3-1,18.1-1.9,4.8-4.6,7.6-7.8,8.1-7.1,1.2-15.4-8.7-17.7-21.4-1.4-6.7-.9-13.3,1-18.1M517.1,248.4c.7.4,1.5,0,2.1-.2,5-.9,9.5-5.1,11.9-11.6,2.2-6.1,2.7-13.6,1.4-21.3-2.9-16.5-13.4-27.7-24-25.7-5.4.7-9.5,5.1-11.9,11.6-2.2,6.1-2.7,13.6-1.4,21.3,2.6,15.3,12,25.9,21.7,26.2"/>
    <path class="st0" d="M550,216.4c1.9-12.2,9.2-22,16-21.9,0,0,.7.4,1.3.3,3.2.4,6.2,3.7,7.9,8.2,1.9,5.1,2.3,11.7,1.5,18.1-2.3,12.9-10.3,22.9-17.3,21.6-3.2-.4-6.2-3.7-7.9-8.2-1.9-5.1-2.3-11.7-1.5-18.1M558.2,247.9c.7.4,1.3.3,2.2.4,9.8,0,18.8-10.9,21.7-26.3,1.2-7.7.8-15.3-1.6-21.1-2.5-6.4-7-10.6-11.8-11.5-10.3-1.7-21,9.6-23.6,26.2-1.2,7.7-.8,15.3,1.6,21.1,2.5,6.4,7,10.6,11.8,11.5"/>
  </g>
  <path class="st0" d="M22.6,170c6.4,0,12.3-2.5,17.2-7.4,9.6-9.5,9.5-24.8,0-34.4l-15.6-15.8v-7.4c-.3-13.5-11-24.3-24.5-24v5.5c10.6-.2,19.2,8.5,19.3,18.9v8.9c-.1.4.2,1.5.9,2l16.7,16.4c7.4,7.4,7.6,19.3.2,26.7-7.4,7.4-19.3,7.6-26.7.2l-7.4-7.4-1.8-1.1h0v6.4c0,0,5.9,5.9,5.9,5.9,4.6,4.7,11.2,6.7,17.4,7"/>
  <path class="st0" d="M61.8,84.8c-8.3,4.9-16.1,4.6-17.9,1.1-2-3.2,1.7-10.3,10-15.1,8.3-4.9,16.1-4.6,17.9-1.1,2,3.2-1.7,10.3-10,15.1M50.7,66.4c-10.5,6-15.6,16.2-11.9,22.4,1.8,3.5,6.2,5.2,11.1,5.2,4.3.1,9.8-1.5,14.5-4.6,10.5-6,15.6-16.2,11.9-22.4-3.8-6.7-15-7-25.7-.6"/>
  <path class="st0" d="M37.2,45.5c-2.3,12.9-10.3,22.9-17.3,21.6-3.2-.4-6.2-3.7-7.9-8.2-1.9-5.1-2.3-11.7-1.5-18.1,1.9-12.2,9.2-22,16-21.9,0,0,.7.4,1.3.3,3.2.4,6.2,3.7,7.9,8.2,1.9,5.1,2.3,11.7,1.5,18.1M40.6,25c-2.5-6.4-7-10.6-11.8-11.5-10.6-1.9-21,9.6-23.6,26.2-1.2,7.7-.8,15.3,1.6,21.1,2.5,6.4,7,10.6,11.8,11.5.7.4,1.3.3,2.2.4,9.8,0,18.8-10.9,21.7-26.3,1.2-7.7.8-15.3-1.6-21.1"/>
  <path class="st0" d="M647.6,66.5c.9-1.4,3-2.6,6.4-2.5,3.4,0,7.7,1.2,11.7,3.5,8.3,5,12.2,11.7,10.2,15-2,3.3-9.8,4-18.1-1-8.3-5-12.2-11.7-10.2-15M655,86.1c5.1,3,10.3,4.2,14.6,4.3,4.9,0,9-2,11-5.2,3.9-6.5-1.4-16.6-12.1-22.5-10.5-6.3-21.7-5.6-25.6.9-3.9,6.5,1.4,16.6,12.1,22.5"/>
  <path class="st2" d="M698,68.6c.7.4,1.5,0,2.1-.2,5-.9,9.5-5.1,11.9-11.6,2.2-6.1,2.7-13.6,1.4-21.3-2.9-16.5-13.4-27.7-24-25.7-5.4.7-9.5,5.1-11.9,11.6-2.2,6.1-2.7,13.6-1.4,21.3,2.6,15.3,12,25.9,21.7,26.2"/>
  <path class="st1" d="M223.4,62.1l-72.4,73.2c-.7,1.1-1.2,2.7,0,4,5.3,5.1,5.4,14,.2,19.3-2.5,2.5-5.8,3.9-9.8,4-3.4,0-7.1-1.3-9.6-3.8-3-3.3-4.7-7.7-4-12.2.4-.7.1-1.9-.9-2.5l-1.8-1.1-.4-.2c-4.4.8-9-.5-12.2-3.4-2.5-2.5-3.9-5.8-4-9.8,0-3.4,1.3-7.1,3.8-9.6,5.1-5.3,14-5.4,19.3-.2,1.1.7,2.8,1.2,4,0l72.4-73.2c.7-1.1,1.2-2.7,0-4-5.3-5.1-5.4-14-.2-19.3,2.5-2.5,5.8-3.9,9.8-4,3.4,0,7.1,1.3,9.6,3.8,3,3.3,4.7,7.7,4,12.2-.4.7-.1,1.9.9,2.5s1.4.9,2.6.6c4.4-.8,9,.5,12.2,3.4,2.5,2.5,3.9,5.8,4,9.8,0,3.4-1.3,7.1-3.8,9.6-5.1,5.3-14,5.4-19.3.2-1.1-.7-2.8-1.2-4,0M250.2,65.9c3.7-3.7,5.6-8.5,5.6-13.4,0-4.9-2.1-9.6-5.8-13.3-3.7-3.7-8.7-5.2-13.4-5.6h0c0-4.9-1.9-10-5.6-13.7-3.7-3.7-8.5-5.6-13.4-5.6s-9.6,2.1-13.3,5.8c-6.6,6.9-7.4,17.2-1.5,24.7l-68.7,69.5c-7.5-5.5-18.2-5-24.7,1.9-3.7,3.7-5.6,8.5-5.6,13.4s2.1,9.6,5.8,13.3c3.7,3.7,8.7,5.2,13.4,5.6h0c0,4.9,1.9,10,5.6,13.7,3.7,3.7,8.7,5.2,13.4,5.6,4.9,0,9.6-2.1,13.3-5.8,6.6-6.9,7.4-17.2,1.5-24.7l68.7-69.5c7.5,5.5,18.2,5,24.7-1.9"/>
  <path class="st0" d="M396.4,157.4c-7.4,7.4-19.3,7.6-26.7.2l-7.4-7.4-1.8-1.1h0c-.6.1-1.2.3-1.5,0-.7-.4-1.5,0-2,.8l-7.4,7.4c-7.4,7.4-19.3,7.6-26.7.2-7.4-7.4-7.6-19.3-.2-26.7l17.9-18.3,1.1-1.8v-7.4c-.2-10.4,8.4-19,18.9-19.2,10.4-.2,19,8.5,19.2,18.9v8.9c-.1.4.2,1.5.9,2l16.7,16.4c7.4,7.4,7.6,19.3.2,26.7M384.1,110.7v-7.4c0-13.2-11-24.3-24.5-24-13.5.3-24.3,11-24,24.5l.3,6.1-17.2,17.2c-9.6,9.5-9.5,24.8,0,34.4,9.5,9.6,24.8,9.5,34.4,0l6.4-6.5,6.5,6.4c4.6,4.7,11.2,6.7,17.4,7,6.4,0,12.3-2.5,17.2-7.4,9.6-9.5,9.5-24.8,0-34.4l-15.6-15.8h-.9Z"/>
  <path class="st0" d="M315.1,84.6c-2,3.3-9.8,4-18.1-1-8.3-5-12.2-11.7-10.2-15s3-2.6,6.4-2.5c3.4,0,7.7,1.2,11.7,3.5,8.3,5,12.2,11.7,10.2,15M320.1,87.1c3.9-6.5-1.4-16.6-12.1-22.5-10.5-6.3-21.7-5.6-25.6.9-3.9,6.5,1.4,16.6,12.1,22.5,5.1,3,10.3,4.2,14.6,4.3,4.9,0,9-2,11-5.2"/>
  <path class="st0" d="M422,82.8c-8.3,4.9-16.1,4.6-17.9,1.1-2-3.2,1.7-10.3,10-15.1s16.1-4.6,17.9-1.1c2,3.2-1.7,10.3-10,15.1M436.6,64.9c-3.8-6.7-15-7-25.7-.6-10.5,6-15.6,16.2-11.9,22.4,1.8,3.5,6.2,5.2,11.1,5.2,4.3.1,9.8-1.5,14.5-4.6,10.5-6,15.6-16.2,11.9-22.4"/>
  <path class="st0" d="M322.5,25.6c1.9-4.8,4.6-7.6,7.8-8.1,0,0,.9,0,1.2-.3,6.8.1,14,9.4,16.5,21.7,1.4,6.7.9,13.3-1,18.1-1.9,4.8-4.6,7.6-7.8,8.1-7.1,1.2-15.4-8.7-17.7-21.4-1.4-6.7-.9-13.3,1-18.1M337.8,70.7c.7.4,1.5,0,2.1-.2,5-.9,9.5-5.1,11.9-11.6,2.2-6.1,2.7-13.6,1.4-21.3-2.9-16.5-13.4-27.7-24-25.7-5.4.7-9.5,5.1-11.9,11.6-2.2,6.1-2.7,13.6-1.4,21.3,2.6,15.3,12,25.9,21.7,26.2"/>
  <path class="st0" d="M370.7,38.7c1.9-12.2,9.2-22,16-21.9,0,0,.7.4,1.3.3,3.2.4,6.2,3.7,7.9,8.2,1.9,5.1,2.3,11.7,1.5,18.1-2.3,12.9-10.3,22.9-17.3,21.6-3.2-.4-6.2-3.7-7.9-8.2-1.9-5.1-2.3-11.7-1.5-18.1M379.2,70.4c.7.4,1.3.3,2.2.4,9.8,0,18.8-10.9,21.7-26.3,1.2-7.7.8-15.3-1.6-21.1-2.5-6.4-7-10.6-11.8-11.5-10.3-1.7-21,9.6-23.6,26.2-1.2,7.7-.8,15.3,1.6,21.1,2.5,6.4,7,10.6,11.8,11.5"/>
  <path class="st1" d="M583.6,60.1l-72.4,73.2c-.7,1.1-1.2,2.7,0,4,5.3,5.1,5.4,14,.2,19.3-2.5,2.5-5.8,3.9-9.8,4-4,0-7.1-1.3-9.6-3.8-3-3.3-4.7-7.7-4-12.2.4-.7.1-1.9-.9-2.5l-1.8-1.1-.4-.2c-4.4.8-9-.5-12.2-3.4-2.5-2.5-3.9-5.8-4-9.8,0-3.4,1.3-7.1,3.8-9.6,5.1-5.3,14-5.4,19.3-.2,1.1.7,2.8,1.2,4,0l72.4-73.2c.7-1.1,1.2-2.7,0-4-5.3-5.1-5.4-14-.2-19.3,2.5-2.5,5.8-3.9,9.8-4s7.1,1.3,9.6,3.8c3,3.3,4.7,7.7,4,12.2-.4.7-.1,1.9.9,2.5s1.4.9,2.6.6c4.4-.8,9,.5,12.2,3.4,2.5,2.5,3.9,5.8,4,9.8,0,3.4-1.3,7.1-3.8,9.6-5.1,5.3-14,5.4-19.3.2-1.1-.7-2.8-1.2-4,0M610.4,63.8c3.7-3.7,5.6-8.5,5.6-13.4,0-4.9-2.1-9.6-5.8-13.3-3.7-3.7-8.7-5.2-13.4-5.6h0c0-4.9-1.9-10-5.6-13.7-3.7-3.7-8.5-5.6-13.4-5.6-4.9,0-9.6,2.1-13.3,5.8-6.6,6.9-7.4,17.2-1.5,24.7l-68.7,69.5c-7.5-5.5-18.2-5-24.7,1.9-3.7,3.7-5.6,8.5-5.6,13.4,0,4.9,2.1,9.6,5.8,13.3,3.7,3.7,8.7,5.2,13.4,5.6h0c0,4.9,1.9,10,5.6,13.7,3.7,3.7,8.7,5.2,13.4,5.6,4.9,0,9.6-2.1,13.3-5.8,6.6-6.9,7.4-17.2,1.5-24.7l68.7-69.5c7.5,5.5,18.2,5,24.7-1.9"/>
  <path class="st3" d="M301.4,687.6h0c0,4.9,1.9,10,5.6,13.7,3.7,3.7,8.5,5.6,13.4,5.6s9.6-2.1,13.3-5.8c6.6-6.9,7.4-17.2,1.5-24.7l68.7-69.5c7.5,5.5,18.2,5,24.7-1.9,3.7-3.7,5.6-8.5,5.6-13.4s-2.1-9.6-5.8-13.3c-3.7-3.7-8.7-5.2-13.4-5.6h0c0-4.9-1.9-10-5.6-13.7-3.7-3.7-8.7-5.2-13.4-5.6-4.9,0-9.6,2.1-13.3,5.8-6.6,6.9-7.4,17.2-1.5,24.7l-68.7,69.5c-7.5-5.5-18.2-5-24.7,1.9-3.7,3.7-5.6,8.5-5.6,13.4,0,4.9,2.1,9.6,5.8,13.3,3.7,3.7,8.7,5.2,13.4,5.6"/>
  <path class="st2" d="M178.6,625.9c10.4-.2,19,8.5,19.2,18.9v8.9c-.1.4.2,1.5.9,2l16.7,16.4c7.4,7.4,7.6,19.3.2,26.7-7.4,7.4-19.3,7.6-26.7.2l-7.4-7.4-1.8-1.1h0c-.6.1-1.2.3-1.5,0-.7-.4-1.5,0-2,.8l-7.4,7.4c-7.4,7.4-19.3,7.6-26.7.2-7.4-7.4-7.6-19.3-.2-26.7l17.9-18.3c.4-.7.7-1.1,1.1-1.8v-7.4c-.2-10.4,8.4-19,18.9-19.2"/>
  <path class="st2" d="M514.6,642.8l.3,6.1-17.2,17.2c-9.6,9.5-9.5,24.8,0,34.4,9.5,9.6,24.8,9.5,34.4,0l6.4-6.5,6.5,6.4c4.6,4.7,11.2,6.7,17.4,7,6.2.3,12.3-2.5,17.2-7.4,9.6-9.5,9.5-24.8,0-34.4l-15.6-15.8v-7.4c-.3-13.5-11-24.3-24.5-24-13.5.3-24.3,11-24,24.5"/>
  <path class="st1" d="M648.5,295.5c-3.7,3.7-5.6,8.5-5.6,13.4,0,4.9,2.1,9.6,5.8,13.3,3.7,3.7,8.7,5.2,13.4,5.6h0c0,4.9,1.9,10,5.6,13.7,3.7,3.7,8.5,5.6,13.4,5.6s9.6-2.1,13.3-5.8c6.6-6.9,7.4-17.2,1.5-24.7l22.8-23.2.2-7.7-28.5,28.7c-.7,1.1-1.2,2.7,0,4,5.3,5.1,5.4,14,.2,19.3-2.5,2.5-5.8,3.9-9.8,4-4,0-7.1-1.3-9.6-3.8-3-3.3-4.7-7.7-4-12.2.4-.7.1-1.9-.9-2.5l-1.8-1.1-.4-.2c-4.4.8-9-.5-12.2-3.4-2.5-2.5-3.9-5.8-4-9.8,0-3.4,1.3-7.1,3.8-9.6,5.1-5.3,14-5.4,19.3-.2,1.1.7,2.8,1.2,4,0l43.7-44.2v-7.4s-45.9,46.3-45.9,46.3c-7.5-5.5-18.2-5-24.7,1.9"/>
</svg>