<?xml version="1.0" encoding="UTF-8"?>
<svg id="Layer_1" xmlns="http://www.w3.org/2000/svg" version="1.1" viewBox="0 0 720 720">
  <!-- Generator: Adobe Illustrator 29.7.0, SVG Export Plug-In . SVG Version: 2.1.1 Build 138)  -->
  <defs>
    <style>
      .st0 {
        fill: #fff466;
      }

      .st1 {
        fill: #00aeef;
      }
    </style>
  </defs>
  <path class="st0" d="M68.7,245.4c3.7-3.7,5.6-8.5,5.6-13.4,0-4.9-2.1-9.6-5.8-13.3-3.7-3.7-8.7-5.2-13.4-5.6,0-4.9-1.9-10-5.6-13.7s-8.5-5.6-13.4-5.6c-4.9,0-9.6,2.1-13.3,5.8-6.6,6.9-7.4,17.2-1.5,24.7L-1.5,247.6v7.4s28.5-28.7,28.5-28.7c.7-1.1,1.2-2.7,0-4-5.3-5.1-5.4-14-.2-19.3,2.5-2.5,5.8-3.9,9.8-4,3.4,0,7.1,1.3,9.6,3.8,3,3.3,4.7,7.7,4,12.2-.4.7-.1,1.9.9,2.5.7.4,1.4.9,2.6.6,4.4-.8,9,.5,12.2,3.4,2.5,2.5,3.9,5.8,4,9.8,0,3.4-1.3,7.1-3.8,9.6-5.1,5.3-14,5.4-19.3.2-1.1-.7-2.8-1.2-4,0L-1,285.3v7.4s45.9-46.3,45.9-46.3c7.5,5.5,18.2,5,24.7-1.9"/>
  <path class="st0" d="M70.5,605.9c3.7-3.7,5.6-8.5,5.6-13.4,0-4.9-2.1-9.6-5.8-13.3-3.7-3.7-8.7-5.2-13.4-5.6,0-4.9-1.9-10-5.6-13.7-3.7-3.7-8.5-5.6-13.4-5.6-4.9,0-9.6,2.1-13.3,5.8-6.6,6.9-7.4,17.2-1.5,24.7L.4,608.1l-.2,7.7,28.5-28.7c.7-1.1,1.2-2.7,0-4-5.3-5.1-5.4-14-.2-19.3,2.5-2.5,5.8-3.9,9.8-4s7.1,1.3,9.6,3.8c3,3.3,4.7,7.7,4,12.2-.4.7-.1,1.9.9,2.5.7.4,1.4.9,2.6.6,4.4-.8,9,.5,12.2,3.4,2.5,2.5,3.9,5.8,4,9.8,0,3.4-1.3,7.1-3.8,9.6-5.1,5.3-14,5.4-19.3.2-1.1-.7-2.8-1.2-4,0L.7,646.2v7.4s45.9-46.3,45.9-46.3c7.5,5.5,18.2,5,24.7-1.9"/>
  <path class="st1" d="M22.3,528.8c6.4,0,12.3-2.5,17.2-7.4,9.6-9.5,9.5-24.8,0-34.4l-15.6-15.8v-7.4c-.3-13.5-11-24.3-24.5-24v5.5c10.6-.2,19.2,8.5,19.3,18.9v8.9c-.1.4.2,1.5.9,2l16.7,16.4c7.4,7.4,7.6,19.3.2,26.7-7.4,7.4-19.3,7.6-26.7.2l-7.4-7.4c-.7-.4-1.1-.7-1.8-1.1v6.4c0,0,5.9,5.9,5.9,5.9,4.6,4.7,11.2,6.7,17.4,7"/>
  <path class="st1" d="M61.5,443.7c-8.3,4.9-16.1,4.6-17.9,1.1-2-3.2,1.7-10.3,10-15.1,8.3-4.9,16.1-4.6,17.9-1.1,2,3.2-1.7,10.3-10,15.1M50.4,425.2c-10.5,6-15.6,16.2-11.9,22.4,1.8,3.5,6.2,5.2,11.1,5.2,4.3.1,9.8-1.5,14.5-4.6,10.5-6,15.6-16.2,11.9-22.4-3.8-6.7-15-7-25.7-.6"/>
  <path class="st1" d="M36.9,404.3c-2.3,12.9-10.3,22.9-17.3,21.6-3.2-.4-6.2-3.7-7.9-8.2-1.9-5.1-2.3-11.7-1.5-18.1,1.9-12.2,9.2-22,16-21.9,0,0,.7.4,1.3.3,3.2.4,6.2,3.7,7.9,8.2,1.9,5.1,2.3,11.7,1.5,18.1M40.4,383.8c-2.5-6.4-7-10.6-11.8-11.5-10.6-1.9-21,9.6-23.6,26.2-1.2,7.7-.8,15.3,1.6,21.1,2.5,6.4,7,10.6,11.8,11.5.7.4,1.3.3,2.2.4,9.8,0,18.8-10.9,21.7-26.3,1.2-7.7.8-15.3-1.6-21.1"/>
  <path class="st0" d="M649.4,656.5c-3.7,3.7-5.6,8.5-5.6,13.4,0,4.9,2.1,9.6,5.8,13.3,3.7,3.7,8.7,5.2,13.4,5.6,0,4.9,1.9,10,5.6,13.7,3.7,3.7,8.7,5.2,13.4,5.6,4.9,0,9.6-2.1,13.3-5.8,6.6-6.9,7.4-17.2,1.5-24.7l22.8-23.2.2-7.7-28.5,28.7c-.7,1.1-1.2,2.8,0,4,5.3,5.1,5.4,14,.2,19.3-2.5,2.5-5.8,3.9-9.8,4-4,0-7.1-1.3-9.6-3.8-3-3.3-4.7-7.7-4-12.2.4-.7.1-1.9-.9-2.5-.7-.4-1.1-.7-1.8-1.1l-.4-.2c-4.4.8-9-.5-12.2-3.4-2.5-2.5-3.9-5.8-4-9.8,0-3.4,1.3-7.1,3.8-9.6,5.1-5.3,14-5.4,19.3-.2,1.1.7,2.8,1.2,4,0l43.7-44.2v-7.4s-45.9,46.3-45.9,46.3c-7.5-5.5-18.2-5-24.7,1.9"/>
  <path class="st1" d="M695.6,464.7l.3,6.1-17.2,17.2c-9.6,9.5-9.5,24.8,0,34.4,9.5,9.6,24.8,9.5,34.4,0l6.4-6.5.7.4-.3-6.1c-.4-.2-.9,0-1.5,0-.7-.4-1.5,0-2,.8l-7.4,7.4c-7.4,7.4-19.3,7.6-26.7.2-7.4-7.4-7.6-19.3-.2-26.7l17.9-18.3c.4-.7.7-1.1,1.1-1.8v-7.4c-.2-10.4,8.4-19,18.9-19.2v-5.5c-13.6.3-24.4,11-24.1,24.5"/>
  <path class="st1" d="M647.4,425.3c.9-1.4,3-2.6,6.4-2.5,3.4,0,7.7,1.2,11.7,3.5,8.3,5,12.2,11.7,10.2,15-2,3.3-9.8,4-18.1-1-8.3-5-12.2-11.7-10.2-15M654.8,444.9c5.1,3,10.3,4.2,14.6,4.3,4.9,0,9-2,11-5.2,3.9-6.5-1.4-16.6-12.1-22.5-10.5-6.3-21.7-5.6-25.6.9-3.9,6.5,1.4,16.6,12.1,22.5"/>
  <path class="st1" d="M696.4,429.6c.6.4,1.3.5,1.9.5.7,0,1.2-.2,1.6-.3.2,0,.3-.1.4-.1h0s0,0,0,0v-.4c-.1,0,0,.4,0,.4h0s-.1-.4-.1-.4v.4c0,0-.5-2.4-.5-2.4l.5,2.5c3-.6,5.8-2.1,8.2-4.4,2.3-2.3,4.3-5.3,5.6-8.8h0s0,0,0,0c1.5-4.2,2.3-9,2.3-14,0-2.8-.2-5.6-.7-8.5h0s0,0,0,0c-1.4-8-4.5-14.8-8.7-19.8-2.1-2.5-4.4-4.5-7-5.9-2.6-1.4-5.4-2.2-8.3-2.2-1,0-2,0-3,.3l.5,2.5-.3-2.5c-3.3.4-6.2,2-8.5,4.4-2.3,2.3-4.1,5.4-5.4,8.8h0s0,0,0,0c-1.5,4.2-2.3,9-2.3,14,0,2.8.2,5.6.7,8.5,1.4,8.1,4.5,14.9,8.8,19.9,2.1,2.5,4.5,4.5,7.1,6,2.6,1.4,5.4,2.3,8.2,2.4l.2-5c-2,0-4-.7-5.9-1.8-3-1.7-5.9-4.5-8.2-8.3-2.4-3.8-4.2-8.6-5.1-14.1-.4-2.6-.7-5.2-.7-7.7,0-4.5.7-8.7,2-12.3l-2.4-.8,2.3.9c1.1-3,2.6-5.4,4.2-7,1.7-1.7,3.5-2.7,5.6-2.9h0s0,0,0,0c.7-.1,1.3-.2,2-.2,2,0,3.9.5,5.9,1.6,2.9,1.6,5.7,4.4,8.1,8.2,2.3,3.8,4.1,8.6,5.1,14h0c.4,2.6.7,5.2.7,7.7,0,4.5-.7,8.7-2,12.3l2.4.8-2.3-.9c-1.1,2.9-2.6,5.2-4.3,6.9-1.7,1.7-3.7,2.7-5.6,3.1h0s0,0,0,0c-.5.1-.7.2-.9.3h-.1s.1.7.1.7v-.7c0,0-.1,0-.1,0v.7c.1,0,.1-.7.1-.7v1.3l.6-1.1c-.2-.1-.5-.2-.6-.2v1.3l.6-1.1-2.6,4.3Z"/>
  <path class="st0" d="M223.1,421l-72.4,73.2c-.7,1.1-1.2,2.7,0,4,5.3,5.1,5.4,14,.2,19.3-2.5,2.5-5.8,3.9-9.8,4-3.4,0-7.1-1.3-9.6-3.8-3-3.3-4.7-7.7-4-12.2.4-.7.1-1.9-.9-2.5-.7-.4-1.1-.7-1.8-1.1l-.4-.2c-4.4.8-9-.5-12.2-3.4-2.5-2.5-3.9-5.8-4-9.8,0-3.4,1.3-7.1,3.8-9.6,5.1-5.3,14-5.4,19.3-.2,1.1.7,2.8,1.2,4,0l72.4-73.2c.7-1.1,1.2-2.7,0-4-5.3-5.1-5.4-14-.2-19.3,2.5-2.5,5.8-3.9,9.8-4,3.4,0,7.1,1.3,9.6,3.8,3,3.3,4.7,7.7,4,12.2-.4.7-.1,1.9.9,2.5.7.4,1.4.9,2.6.6,4.4-.8,9,.5,12.2,3.4,2.5,2.5,3.9,5.8,4,9.8,0,3.4-1.3,7.1-3.8,9.6-5.1,5.3-14,5.4-19.3.2-1.1-.7-2.8-1.2-4,0M249.9,424.7c3.7-3.7,5.6-8.5,5.6-13.4,0-4.9-2.1-9.6-5.8-13.3-3.7-3.7-8.7-5.2-13.4-5.6,0-4.9-1.9-10-5.6-13.7-3.7-3.7-8.5-5.6-13.4-5.6-4.9,0-9.6,2.1-13.3,5.8-6.6,6.9-7.4,17.2-1.5,24.7l-68.7,69.5c-7.5-5.5-18.2-5-24.7,1.9-3.7,3.7-5.6,8.5-5.6,13.4,0,4.9,2.1,9.6,5.8,13.3,3.7,3.7,8.7,5.2,13.4,5.6,0,4.9,1.9,10,5.6,13.7,3.7,3.7,8.7,5.2,13.4,5.6,4.9,0,9.6-2.1,13.3-5.8,6.6-6.9,7.4-17.2,1.5-24.7l68.7-69.5c7.5,5.5,18.2,5,24.7-1.9"/>
  <path class="st1" d="M135.9,624.9c-2,3.3-9.8,4-18.1-1-8.3-5-12.2-11.7-10.2-15,.9-1.4,3-2.6,6.4-2.5s7.7,1.2,11.7,3.5c8.3,5,12.2,11.7,10.2,15M140.4,627.1c3.9-6.5-1.4-16.6-12.1-22.5-10.5-6.3-21.7-5.6-25.6.9-3.9,6.5,1.4,16.6,12.1,22.5,5.1,3,10.3,4.2,14.6,4.3,4.9,0,9-2,11-5.2"/>
  <path class="st1" d="M242.7,623c-8.3,4.9-16.1,4.6-17.9,1.1-2-3.2,1.7-10.3,10-15.1,8.3-4.9,16.1-4.6,17.9-1.1,2,3.2-1.7,10.3-10,15.1M231.9,604.2c-10.5,6-15.6,16.2-11.9,22.4,1.8,3.5,6.2,5.2,11.1,5.2,4.3.1,9.8-1.5,14.5-4.6,10.5-6,15.6-16.2,11.9-22.4-3.8-6.7-15-7-25.7-.6"/>
  <path class="st1" d="M167.3,597c-1.9,4.8-4.6,7.6-7.8,8.1-7.3,1.5-15.4-8.7-17.7-21.4-1.4-6.7-.9-13.3,1-18.1,1.9-4.8,4.6-7.6,7.8-8.1,0,0,.9,0,1.2-.3,6.8.1,14,9.4,16.5,21.7,1.4,6.7.9,13.3-1,18.1M149.9,552.2c-5,.9-9.5,5.1-11.9,11.6-2.2,6.1-2.7,13.6-1.4,21.3,2.6,15.3,12,25.9,21.7,26.2.7.4,1.5,0,2.1-.2,5-.9,9.5-5.1,11.9-11.6,2.2-6.1,2.7-13.6,1.4-21.3-2.9-16.5-13.4-27.7-24-25.7"/>
  <path class="st1" d="M218,583.1c-2.3,12.9-10.3,22.9-17.3,21.6-3.2-.4-6.2-3.7-7.9-8.2-1.9-5.1-2.3-11.7-1.5-18.1,1.9-12.2,9.2-22,16-21.9,0,0,.7.4,1.3.3,3.2.4,6.2,3.7,7.9,8.2,1.9,5.1,2.3,11.7,1.5,18.1M209.8,551.6c-10.6-1.9-21,9.6-23.6,26.2-1.2,7.7-.8,15.3,1.6,21.1,2.5,6.4,7,10.6,11.8,11.5.7.4,1.3.3,2.2.4,9.8,0,18.8-10.9,21.7-26.3,1.2-7.7.8-15.3-1.6-21.1-2.5-6.4-7-10.6-11.8-11.5"/>
  <path class="st1" d="M178.3,264.3c10.4-.2,19,8.5,19.2,18.9v8.9c-.1.4.2,1.5.9,2l16.7,16.4c7.4,7.4,7.6,19.3.2,26.7-7.4,7.4-19.3,7.6-26.7.2l-7.4-7.4c-.7-.4-1.1-.7-1.8-1.1-.6.1-1.2.3-1.5,0-.7-.4-1.5,0-2,.8l-7.4,7.4c-7.4,7.4-19.3,7.6-26.7.2-7.4-7.4-7.6-19.3-.2-26.7l17.9-18.3c.4-.7.7-1.1,1.1-1.8v-7.4c-.2-10.4,8.4-19,18.9-19.2M154.1,283.3l.3,6.1-17.2,17.2c-9.6,9.5-9.5,24.8,0,34.4,9.5,9.6,24.8,9.5,34.4,0l6.4-6.5,6.5,6.4c4.6,4.7,11.2,6.7,17.4,7,6.4,0,12.3-2.5,17.2-7.4,9.6-9.5,9.5-24.8,0-34.4l-15.6-15.8v-7.4c-.3-13.5-11-24.3-24.5-24s-24.3,11-24,24.5"/>
  <path class="st1" d="M105.7,248.4c.9-1.4,3-2.6,6.4-2.5,3.4,0,7.7,1.2,11.7,3.5,8.3,5,12.2,11.7,10.2,15-2,3.3-9.8,4-18.1-1-8.3-5-12.2-11.7-10.2-15M113.1,268c5.1,3,10.3,4.2,14.6,4.3,4.9,0,9-2,11-5.2,3.9-6.5-1.4-16.6-12.1-22.5-10.5-6.3-21.7-5.6-25.6.9-3.9,6.5,1.4,16.6,12.1,22.5"/>
  <path class="st1" d="M240.9,262.4c-8.3,4.9-16.1,4.6-17.9,1.1-2-3.2,1.7-10.3,10-15.1,8.3-4.9,16.1-4.6,17.9-1.1,2,3.2-1.7,10.3-10,15.1M229.8,244c-10.5,6-15.6,16.2-11.9,22.4,1.8,3.5,6.2,5.2,11.1,5.2,4.3.1,9.8-1.5,14.5-4.6,10.5-6,15.6-16.2,11.9-22.4-3.8-6.7-15-7-25.7-.6"/>
  <path class="st1" d="M141,205.1c1.9-4.8,4.6-7.6,7.8-8.1,0,0,.9,0,1.2-.3,6.8.1,14,9.4,16.5,21.7,1.4,6.7.9,13.3-1,18.1s-4.6,7.6-7.8,8.1c-7.1,1.2-15.4-8.7-17.7-21.4-1.4-6.7-.9-13.3,1-18.1M156.3,250.1c.7.4,1.5,0,2.1-.2,5-.9,9.5-5.1,11.9-11.6,2.2-6.1,2.7-13.6,1.4-21.3-2.9-16.5-13.4-27.7-24-25.7-5.4.7-9.5,5.1-11.9,11.6-2.2,6.1-2.7,13.6-1.4,21.3,2.6,15.3,12,25.9,21.7,26.2"/>
  <path class="st1" d="M189.2,218.2c1.9-12.2,9.2-22,16-21.9,0,0,.7.4,1.3.3,3.2.4,6.2,3.7,7.9,8.2,1.9,5.1,2.3,11.7,1.5,18.1-2.3,12.9-10.3,22.9-17.3,21.6-3.2-.4-6.2-3.7-7.9-8.2-1.9-5.1-2.3-11.7-1.5-18.1M197.7,249.9c.7.4,1.3.3,2.2.4,9.8,0,18.8-10.9,21.7-26.3,1.2-7.7.8-15.3-1.6-21.1-2.5-6.4-7-10.6-11.8-11.5-10.3-1.7-21,9.6-23.6,26.2-1.2,7.7-.8,15.3,1.6,21.1,2.5,6.4,7,10.6,11.8,11.5"/>
  <path class="st0" d="M291.5,297.7c5.1-5.3,14-5.4,19.3-.2,1.1.7,2.8,1.2,4,0l72.4-73.2c.7-1.1,1.2-2.8,0-4-5.3-5.1-5.4-14-.2-19.3,2.5-2.5,5.8-3.9,9.8-4,3.4,0,7.1,1.3,9.6,3.8,3,3.3,4.7,7.7,4,12.2-.4.7-.1,1.9.9,2.5.7.4,1.4.9,2.6.6,4.4-.8,9,.5,12.2,3.4,2.5,2.5,3.9,5.8,4,9.8,0,3.4-1.3,7.1-3.8,9.6-5.1,5.3-14,5.4-19.3.2-1.1-.7-2.8-1.2-4,0l-72.4,73.2c-.7,1.1-1.2,2.8,0,4,5.3,5.1,5.4,14,.2,19.3-2.5,2.5-5.8,3.9-9.8,4-3.4,0-7.1-1.3-9.6-3.8-3-3.3-4.7-7.7-4-12.2.4-.7.1-1.9-.9-2.5-.7-.4-1.1-.7-1.8-1.1l-.4-.2c-4.4.8-9-.5-12.2-3.4-2.5-2.5-3.9-5.8-4-9.8,0-3.4,1.3-7.1,3.8-9.6M301.1,326.1h0c0,4.9,1.9,10,5.6,13.7,3.7,3.7,8.5,5.6,13.4,5.6,4.9,0,9.6-2.1,13.3-5.8,6.6-6.9,7.4-17.2,1.5-24.7l68.7-69.5c7.5,5.5,18.2,5,24.7-1.9,3.7-3.7,5.6-8.5,5.6-13.4,0-4.9-2.1-9.6-5.8-13.3-3.7-3.7-8.7-5.2-13.4-5.6,0-4.9-1.9-10-5.6-13.7-3.7-3.7-8.7-5.2-13.4-5.6-4.9,0-9.6,2.1-13.3,5.8-6.6,6.9-7.4,17.2-1.5,24.7l-68.7,69.5c-7.5-5.5-18.2-5-24.7,1.9-3.7,3.7-5.6,8.5-5.6,13.4,0,4.9,2.1,9.6,5.8,13.3,3.7,3.7,8.7,5.2,13.4,5.6"/>
  <path class="st1" d="M396.2,516.3c-7.4,7.4-19.3,7.6-26.7.2l-7.4-7.4c-.7-.4-1.1-.7-1.8-1.1-.6.1-1.2.3-1.5,0-.7-.4-1.5,0-2,.8l-7.4,7.4c-7.4,7.4-19.3,7.6-26.7.2-7.4-7.4-7.6-19.3-.2-26.7l17.9-18.3c.4-.7.7-1.1,1.1-1.8v-7.4c-.2-10.4,8.4-19,18.9-19.2,10.4-.2,19,8.5,19.2,18.9v8.9c-.1.4.2,1.5.9,2l16.7,16.4c7.4,7.4,7.6,19.3.2,26.7M383.8,469.5v-7.4c0-13.2-11-24.3-24.5-24-13.5.3-24.3,11-24,24.5l.3,6.1-17.2,17.2c-9.6,9.5-9.5,24.8,0,34.4,9.5,9.6,24.8,9.5,34.4,0l6.4-6.5,6.5,6.4c4.6,4.7,11.2,6.7,17.4,7,6.4,0,12.3-2.5,17.2-7.4,9.6-9.5,9.5-24.8,0-34.4l-15.6-15.8h-.9Z"/>
  <path class="st1" d="M314.9,443.5c-2,3.3-9.8,4-18.1-1s-12.2-11.7-10.2-15c.9-1.4,3-2.6,6.4-2.5,3.4,0,7.7,1.2,11.7,3.5,8.3,5,12.2,11.7,10.2,15M319.8,445.9c3.9-6.5-1.4-16.6-12.1-22.5-10.5-6.3-21.7-5.6-25.6.9-3.9,6.5,1.4,16.6,12.1,22.5,5.1,3,10.3,4.2,14.6,4.3,4.9,0,9-2,11-5.2"/>
  <path class="st1" d="M421.7,441.6c-8.3,4.9-16.1,4.6-17.9,1.1-2-3.2,1.7-10.3,10-15.1s16.1-4.6,17.9-1.1c2,3.2-1.7,10.3-10,15.1M436.3,423.8c-3.8-6.7-15-7-25.7-.6-10.5,6-15.6,16.2-11.9,22.4,1.8,3.5,6.2,5.2,11.1,5.2,4.3.1,9.8-1.5,14.5-4.6,10.5-6,15.6-16.2,11.9-22.4"/>
  <path class="st1" d="M322.2,384.4c1.9-4.8,4.6-7.6,7.8-8.1,0,0,.9,0,1.2-.3,6.8.1,14,9.4,16.5,21.7,1.4,6.7.9,13.3-1,18.1s-4.6,7.6-7.8,8.1c-7.1,1.2-15.4-8.7-17.7-21.4-1.4-6.7-.9-13.3,1-18.1M337.5,429.5c.7.4,1.5,0,2.1-.2,5-.9,9.5-5.1,11.9-11.6,2.2-6.1,2.7-13.6,1.4-21.3-2.9-16.5-13.4-27.7-24-25.7-5.4.7-9.5,5.1-11.9,11.6-2.2,6.1-2.7,13.6-1.4,21.3,2.6,15.3,12,25.9,21.7,26.2"/>
  <path class="st1" d="M370.4,397.6c1.9-12.2,9.2-22,16-21.9,0,0,.7.4,1.3.3,3.2.4,6.2,3.7,7.9,8.2,1.9,5.1,2.3,11.7,1.5,18.1-2.3,12.9-10.3,22.9-17.3,21.6-3.2-.4-6.2-3.7-7.9-8.2-1.9-5.1-2.3-11.7-1.5-18.1M379,429.2c.7.4,1.3.3,2.2.4,9.8,0,18.8-10.9,21.7-26.3,1.2-7.7.8-15.3-1.6-21.1-2.5-6.4-7-10.6-11.8-11.5-10.3-1.7-21,9.6-23.6,26.2-1.2,7.7-.8,15.3,1.6,21.1,2.5,6.4,7,10.6,11.8,11.5"/>
  <path class="st0" d="M583.3,418.9l-72.4,73.2c-.7,1.1-1.2,2.8,0,4,5.3,5.1,5.4,14,.2,19.3-2.5,2.5-5.8,3.9-9.8,4-4,0-7.1-1.3-9.6-3.8-3-3.3-4.7-7.7-4-12.2.4-.7.1-1.9-.9-2.5-.7-.4-1.1-.7-1.8-1.1l-.4-.2c-4.4.8-9-.5-12.2-3.4-2.5-2.5-3.9-5.8-4-9.8,0-3.4,1.3-7.1,3.8-9.6,5.1-5.3,14-5.4,19.3-.2,1.1.7,2.8,1.2,4,0l72.4-73.2c.7-1.1,1.2-2.8,0-4-5.3-5.1-5.4-14-.2-19.3,2.5-2.5,5.8-3.9,9.8-4,4,0,7.1,1.3,9.6,3.8,3,3.3,4.7,7.7,4,12.2-.4.7-.1,1.9.9,2.5.7.4,1.4.9,2.6.6,4.4-.8,9,.5,12.2,3.4,2.5,2.5,3.9,5.8,4,9.8,0,3.4-1.3,7.1-3.8,9.6-5.1,5.3-14,5.4-19.3.2-1.1-.7-2.8-1.2-4,0M610.1,422.6c3.7-3.7,5.6-8.5,5.6-13.4,0-4.9-2.1-9.6-5.8-13.3-3.7-3.7-8.7-5.2-13.4-5.6,0-4.9-1.9-10-5.6-13.7-3.7-3.7-8.5-5.6-13.4-5.6-4.9,0-9.6,2.1-13.3,5.8-6.6,6.9-7.4,17.2-1.5,24.7l-68.7,69.5c-7.5-5.5-18.2-5-24.7,1.9-3.7,3.7-5.6,8.5-5.6,13.4,0,4.9,2.1,9.6,5.8,13.3,3.7,3.7,8.7,5.2,13.4,5.6,0,4.9,1.9,10,5.6,13.7,3.7,3.7,8.7,5.2,13.4,5.6,4.9,0,9.6-2.1,13.3-5.8,6.6-6.9,7.4-17.2,1.5-24.7l68.7-69.5c7.5,5.5,18.2,5,24.7-1.9"/>
  <path class="st1" d="M496.3,622.5c-2,3.3-9.8,4-18.1-1s-12.2-11.7-10.2-15c.9-1.4,3-2.6,6.4-2.5,3.4,0,7.7,1.2,11.7,3.5,8.3,5,12.2,11.7,10.2,15M501,625.3c3.9-6.5-1.4-16.6-12.1-22.5-10.5-6.3-21.7-5.6-25.6.9-3.9,6.5,1.4,16.6,12.1,22.5,5.1,3,10.3,4.2,14.6,4.3,4.9,0,9-2,11-5.2"/>
  <path class="st1" d="M602.9,620.9c-8.3,4.9-16.1,4.6-17.9,1.1-2-3.2,1.7-10.3,10-15.1,8.3-4.9,16.1-4.6,17.9-1.1,2,3.2-1.7,10.3-10,15.1M617.8,602.8c-3.8-6.7-15-7-25.7-.6-10.5,6-15.6,16.2-11.9,22.4,1.8,3.5,6.2,5.2,11.1,5.2,4.3.1,9.8-1.5,14.5-4.6,10.5-6,15.6-16.2,11.9-22.4"/>
  <path class="st1" d="M503.6,563.4c1.9-4.8,4.6-7.6,7.8-8.1,0,0,.9,0,1.2-.3,6.8.1,14,9.4,16.5,21.7,1.4,6.7.9,13.3-1,18.1-1.9,4.8-4.6,7.6-7.8,8.1-7.1,1.2-15.4-8.7-17.7-21.4-1.4-6.7-.9-13.3,1-18.1M518.7,608.8c.7.4,1.5,0,2.1-.2,5-.9,9.5-5.1,11.9-11.6,2.2-6.1,2.7-13.6,1.4-21.3-2.9-16.5-13.4-27.7-24-25.7-5.4.7-9.5,5.1-11.9,11.6-2.2,6.1-2.7,13.6-1.4,21.3,2.6,15.3,12,25.9,21.7,26.2"/>
  <path class="st1" d="M551.8,576.5c1.9-12.2,9.2-22,16-21.9,0,0,.7.4,1.3.3,3.2.4,6.2,3.7,7.9,8.2,1.9,5.1,2.3,11.7,1.5,18.1-2.3,12.9-10.3,22.9-17.3,21.6-3.2-.4-6.2-3.7-7.9-8.2-1.9-5.1-2.3-11.7-1.5-18.1M560.4,608.2c.7.4,1.3.3,2.2.4,9.8,0,18.8-10.9,21.7-26.3,1.2-7.7.8-15.3-1.6-21.1-2.5-6.4-7-10.6-11.8-11.5-10.3-1.7-21,9.6-23.6,26.2-1.2,7.7-.8,15.3,1.6,21.1,2.5,6.4,7,10.6,11.8,11.5"/>
  <path class="st1" d="M538.5,262.2c10.4-.2,19,8.5,19.2,18.9v8.9c-.1.4.2,1.5.9,2l16.7,16.4c7.4,7.4,7.6,19.3.2,26.7s-19.3,7.6-26.7.2l-7.4-7.4c-.7-.4-1.1-.7-1.8-1.1-.6.1-1.2.3-1.5,0-.7-.4-1.5,0-2,.8l-7.4,7.4c-7.4,7.4-19.3,7.6-26.7.2-7.4-7.4-7.6-19.3-.2-26.7l17.9-18.3c.4-.7.7-1.1,1.1-1.8v-7.4c-.2-10.4,8.4-19,18.9-19.2M514.4,281.2l.3,6.1-17.2,17.2c-9.6,9.5-9.5,24.8,0,34.4,9.5,9.6,24.8,9.5,34.4,0l6.4-6.5,6.5,6.4c4.6,4.7,11.2,6.7,17.4,7,6.2.3,12.3-2.5,17.2-7.4,9.6-9.5,9.5-24.8,0-34.4l-15.6-15.8v-7.4c-.3-13.5-11-24.3-24.5-24-13.5.3-24.3,11-24,24.5"/>
  <path class="st1" d="M465.9,246.3c.9-1.4,3-2.6,6.4-2.5,3.4,0,7.7,1.2,11.7,3.5,8.3,5,12.2,11.7,10.2,15-2,3.3-9.8,4-18.1-1s-12.2-11.7-10.2-15M473.3,266c5.1,3,10.3,4.2,14.6,4.3,4.9,0,9-2,11-5.2,3.9-6.5-1.4-16.6-12.1-22.5-10.5-6.3-21.7-5.6-25.6.9-3.9,6.5,1.4,16.6,12.1,22.5"/>
  <path class="st1" d="M601.1,260.4c-8.3,4.9-16.1,4.6-17.9,1.1-2-3.2,1.7-10.3,10-15.1,8.3-4.9,16.1-4.6,17.9-1.1,2,3.2-1.7,10.3-10,15.1M590,241.9c-10.5,6-15.6,16.2-11.9,22.4,1.8,3.5,6.2,5.2,11.1,5.2,4.3.1,9.8-1.5,14.5-4.6,10.5-6,15.6-16.2,11.9-22.4-3.8-6.7-15-7-25.7-.6"/>
  <path class="st1" d="M501.2,203c1.9-4.8,4.6-7.6,7.8-8.1,0,0,.9,0,1.2-.3,6.8.1,14,9.4,16.5,21.7,1.4,6.7.9,13.3-1,18.1-1.9,4.8-4.6,7.6-7.8,8.1-7.1,1.2-15.4-8.7-17.7-21.4-1.4-6.7-.9-13.3,1-18.1M516.9,248.3c.7.4,1.5,0,2.1-.2,5-.9,9.5-5.1,11.9-11.6,2.2-6.1,2.7-13.6,1.4-21.3-2.9-16.5-13.4-27.7-24-25.7-5.4.7-9.5,5.1-11.9,11.6-2.2,6.1-2.7,13.6-1.4,21.3,2.6,15.3,12,25.9,21.7,26.2"/>
  <path class="st1" d="M549.8,216.3c1.9-12.2,9.2-22,16-21.9,0,0,.7.4,1.3.3,3.2.4,6.2,3.7,7.9,8.2,1.9,5.1,2.3,11.7,1.5,18.1-2.3,12.9-10.3,22.9-17.3,21.6-3.2-.4-6.2-3.7-7.9-8.2-1.9-5.1-2.3-11.7-1.5-18.1M558,247.8c.7.4,1.3.3,2.2.4,9.8,0,18.8-10.9,21.7-26.3,1.2-7.7.8-15.3-1.6-21.1-2.5-6.4-7-10.6-11.8-11.5-10.3-1.7-21,9.6-23.6,26.2-1.2,7.7-.8,15.3,1.6,21.1,2.5,6.4,7,10.6,11.8,11.5"/>
  <path class="st1" d="M22.3,169.9c6.4,0,12.3-2.5,17.2-7.4,9.6-9.5,9.5-24.8,0-34.4l-15.6-15.8v-7.4c-.3-13.5-11-24.3-24.5-24v5.5c10.6-.2,19.2,8.5,19.3,18.9v8.9c-.1.4.2,1.5.9,2l16.7,16.4c7.4,7.4,7.6,19.3.2,26.7-7.4,7.4-19.3,7.6-26.7.2l-7.4-7.4c-.7-.4-1.1-.7-1.8-1.1v6.4c0,0,5.9,5.9,5.9,5.9,4.6,4.7,11.2,6.7,17.4,7"/>
  <path class="st1" d="M61.5,84.7c-8.3,4.9-16.1,4.6-17.9,1.1-2-3.2,1.7-10.3,10-15.1,8.3-4.9,16.1-4.6,17.9-1.1,2,3.2-1.7,10.3-10,15.1M50.4,66.3c-10.5,6-15.6,16.2-11.9,22.4,1.8,3.5,6.2,5.2,11.1,5.2,4.3.1,9.8-1.5,14.5-4.6,10.5-6,15.6-16.2,11.9-22.4-3.8-6.7-15-7-25.7-.6"/>
  <path class="st1" d="M36.9,45.4c-2.3,12.9-10.3,22.9-17.3,21.6-3.2-.4-6.2-3.7-7.9-8.2-1.9-5.1-2.3-11.7-1.5-18.1,1.9-12.2,9.2-22,16-21.9,0,0,.7.4,1.3.3,3.2.4,6.2,3.7,7.9,8.2,1.9,5.1,2.3,11.7,1.5,18.1M40.4,24.9c-2.5-6.4-7-10.6-11.8-11.5-10.6-1.9-21,9.6-23.6,26.2-1.2,7.7-.8,15.3,1.6,21.1,2.5,6.4,7,10.6,11.8,11.5.7.4,1.3.3,2.2.4,9.8,0,18.8-10.9,21.7-26.3,1.2-7.7.8-15.3-1.6-21.1"/>
  <path class="st1" d="M695.6,106l.3,6.1-17.2,17.2c-9.6,9.5-9.5,24.8,0,34.4,9.5,9.6,24.8,9.5,34.4,0l6.4-6.5.7.4-.3-6.1c-.4-.2-.9,0-1.5,0-.7-.4-1.5,0-2,.8l-7.4,7.4c-7.4,7.4-19.3,7.6-26.7.2-7.4-7.4-7.6-19.3-.2-26.7l17.9-18.3c.4-.7.7-1.1,1.1-1.8v-7.4c-.2-10.4,8.4-19,18.9-19.2v-5.5c-13.6.3-24.4,11-24.1,24.5"/>
  <path class="st1" d="M647.4,66.4c.9-1.4,3-2.6,6.4-2.5,3.4,0,7.7,1.2,11.7,3.5,8.3,5,12.2,11.7,10.2,15s-9.8,4-18.1-1c-8.3-5-12.2-11.7-10.2-15M654.8,86c5.1,3,10.3,4.2,14.6,4.3,4.9,0,9-2,11-5.2,3.9-6.5-1.4-16.6-12.1-22.5-10.5-6.3-21.7-5.6-25.6.9s1.4,16.6,12.1,22.5"/>
  <path class="st1" d="M696.4,70.6c.6.4,1.3.5,1.9.5.7,0,1.2-.2,1.6-.3.2,0,.3-.1.4-.1h0s0,0,0,0v-.4c-.1,0,0,.4,0,.4h0s-.1-.4-.1-.4v.4c0,0-.5-2.4-.5-2.4l.5,2.5c3-.6,5.8-2.1,8.2-4.4,2.3-2.3,4.3-5.3,5.6-8.8h0s0,0,0,0c1.5-4.2,2.3-9,2.3-14,0-2.8-.2-5.6-.7-8.5h0s0,0,0,0c-1.4-8-4.5-14.8-8.7-19.8-2.1-2.5-4.4-4.5-7-5.9-2.6-1.4-5.4-2.2-8.3-2.2-1,0-2,0-3,.3l.5,2.5-.3-2.5c-3.3.4-6.2,2-8.5,4.4-2.3,2.3-4.1,5.4-5.4,8.8h0s0,0,0,0c-1.5,4.2-2.3,9-2.3,14,0,2.8.2,5.6.7,8.5,1.4,8.1,4.5,14.9,8.8,19.9,2.1,2.5,4.5,4.5,7.1,6,2.6,1.4,5.4,2.3,8.2,2.4l.2-5c-2,0-4-.7-5.9-1.8-3-1.7-5.9-4.5-8.2-8.3-2.4-3.8-4.2-8.6-5.1-14.1-.4-2.6-.7-5.2-.7-7.7,0-4.5.7-8.7,2-12.3l-2.4-.8,2.3.9c1.1-3,2.6-5.4,4.2-7,1.7-1.7,3.5-2.7,5.6-2.9h0s0,0,0,0c.7-.1,1.3-.2,2-.2,2,0,3.9.5,5.9,1.6,2.9,1.6,5.7,4.4,8.1,8.2,2.3,3.8,4.1,8.6,5.1,14h0c.4,2.6.7,5.2.7,7.7,0,4.5-.7,8.7-2,12.3l2.4.8-2.3-.9c-1.1,2.9-2.6,5.2-4.3,6.9-1.7,1.7-3.7,2.7-5.6,3.1h0s0,0,0,0c-.5.1-.7.2-.9.3h-.1s.1.7.1.7v-.7c0,0-.1,0-.1,0v.7c.1,0,.1-.7.1-.7v1.3l.6-1.1c-.2-.1-.5-.2-.6-.2v1.3l.6-1.1-2.6,4.3Z"/>
  <path class="st0" d="M223.1,62.1l-72.4,73.2c-.7,1.1-1.2,2.7,0,4,5.3,5.1,5.4,14,.2,19.3-2.5,2.5-5.8,3.9-9.8,4-3.4,0-7.1-1.3-9.6-3.8-3-3.3-4.7-7.7-4-12.2.4-.7.1-1.9-.9-2.5-.7-.4-1.1-.7-1.8-1.1l-.4-.2c-4.4.8-9-.5-12.2-3.4-2.5-2.5-3.9-5.8-4-9.8,0-3.4,1.3-7.1,3.8-9.6,5.1-5.3,14-5.4,19.3-.2,1.1.7,2.8,1.2,4,0l72.4-73.2c.7-1.1,1.2-2.7,0-4-5.3-5.1-5.4-14-.2-19.3,2.5-2.5,5.8-3.9,9.8-4,3.4,0,7.1,1.3,9.6,3.8,3,3.3,4.7,7.7,4,12.2-.4.7-.1,1.9.9,2.5.7.4,1.4.9,2.6.6,4.4-.8,9,.5,12.2,3.4,2.5,2.5,3.9,5.8,4,9.8,0,3.4-1.3,7.1-3.8,9.6-5.1,5.3-14,5.4-19.3.2-1.1-.7-2.8-1.2-4,0M249.9,65.8c3.7-3.7,5.6-8.5,5.6-13.4,0-4.9-2.1-9.6-5.8-13.3-3.7-3.7-8.7-5.2-13.4-5.6,0-4.9-1.9-10-5.6-13.7-3.7-3.7-8.5-5.6-13.4-5.6-4.9,0-9.6,2.1-13.3,5.8-6.6,6.9-7.4,17.2-1.5,24.7l-68.7,69.5c-7.5-5.5-18.2-5-24.7,1.9-3.7,3.7-5.6,8.5-5.6,13.4,0,4.9,2.1,9.6,5.8,13.3,3.7,3.7,8.7,5.2,13.4,5.6,0,4.9,1.9,10,5.6,13.7,3.7,3.7,8.7,5.2,13.4,5.6,4.9,0,9.6-2.1,13.3-5.8,6.6-6.9,7.4-17.2,1.5-24.7l68.7-69.5c7.5,5.5,18.2,5,24.7-1.9"/>
  <path class="st1" d="M396.2,157.3c-7.4,7.4-19.3,7.6-26.7.2l-7.4-7.4c-.7-.4-1.1-.7-1.8-1.1-.6.1-1.2.3-1.5,0-.7-.4-1.5,0-2,.8l-7.4,7.4c-7.4,7.4-19.3,7.6-26.7.2-7.4-7.4-7.6-19.3-.2-26.7l17.9-18.3c.4-.7.7-1.1,1.1-1.8v-7.4c-.2-10.4,8.4-19,18.9-19.2,10.4-.2,19,8.5,19.2,18.9v8.9c-.1.4.2,1.5.9,2l16.7,16.4c7.4,7.4,7.6,19.3.2,26.7M383.8,110.6v-7.4c0-13.2-11-24.3-24.5-24-13.5.3-24.3,11-24,24.5l.3,6.1-17.2,17.2c-9.6,9.5-9.5,24.8,0,34.4s24.8,9.5,34.4,0l6.4-6.5,6.5,6.4c4.6,4.7,11.2,6.7,17.4,7,6.4,0,12.3-2.5,17.2-7.4,9.6-9.5,9.5-24.8,0-34.4l-15.6-15.8h-.9Z"/>
  <path class="st1" d="M314.9,84.6c-2,3.3-9.8,4-18.1-1s-12.2-11.7-10.2-15c.9-1.4,3-2.6,6.4-2.5,3.4,0,7.7,1.2,11.7,3.5,8.3,5,12.2,11.7,10.2,15M319.8,87c3.9-6.5-1.4-16.6-12.1-22.5-10.5-6.3-21.7-5.6-25.6.9-3.9,6.5,1.4,16.6,12.1,22.5,5.1,3,10.3,4.2,14.6,4.3,4.9,0,9-2,11-5.2"/>
  <path class="st1" d="M421.7,82.7c-8.3,4.9-16.1,4.6-17.9,1.1-2-3.2,1.7-10.3,10-15.1s16.1-4.6,17.9-1.1c2,3.2-1.7,10.3-10,15.1M436.3,64.9c-3.8-6.7-15-7-25.7-.6-10.5,6-15.6,16.2-11.9,22.4,1.8,3.5,6.2,5.2,11.1,5.2,4.3.1,9.8-1.5,14.5-4.6,10.5-6,15.6-16.2,11.9-22.4"/>
  <path class="st1" d="M322.2,25.5c1.9-4.8,4.6-7.6,7.8-8.1,0,0,.9,0,1.2-.3,6.8.1,14,9.4,16.5,21.7,1.4,6.7.9,13.3-1,18.1s-4.6,7.6-7.8,8.1c-7.1,1.2-15.4-8.7-17.7-21.4-1.4-6.7-.9-13.3,1-18.1M337.5,70.6c.7.4,1.5,0,2.1-.2,5-.9,9.5-5.1,11.9-11.6,2.2-6.1,2.7-13.6,1.4-21.3-2.9-16.5-13.4-27.7-24-25.7-5.4.7-9.5,5.1-11.9,11.6-2.2,6.1-2.7,13.6-1.4,21.3,2.6,15.3,12,25.9,21.7,26.2"/>
  <path class="st1" d="M370.4,38.6c1.9-12.2,9.2-22,16-21.9,0,0,.7.4,1.3.3,3.2.4,6.2,3.7,7.9,8.2,1.9,5.1,2.3,11.7,1.5,18.1-2.3,12.9-10.3,22.9-17.3,21.6-3.2-.4-6.2-3.7-7.9-8.2-1.9-5.1-2.3-11.7-1.5-18.1M379,70.3c.7.4,1.3.3,2.2.4,9.8,0,18.8-10.9,21.7-26.3,1.2-7.7.8-15.3-1.6-21.1-2.5-6.4-7-10.6-11.8-11.5-10.3-1.7-21,9.6-23.6,26.2-1.2,7.7-.8,15.3,1.6,21.1,2.5,6.4,7,10.6,11.8,11.5"/>
  <path class="st0" d="M583.3,60l-72.4,73.2c-.7,1.1-1.2,2.7,0,4,5.3,5.1,5.4,14,.2,19.3-2.5,2.5-5.8,3.9-9.8,4-4,0-7.1-1.3-9.6-3.8-3-3.3-4.7-7.7-4-12.2.4-.7.1-1.9-.9-2.5-.7-.4-1.1-.7-1.8-1.1l-.4-.2c-4.4.8-9-.5-12.2-3.4-2.5-2.5-3.9-5.8-4-9.8,0-3.4,1.3-7.1,3.8-9.6,5.1-5.3,14-5.4,19.3-.2,1.1.7,2.8,1.2,4,0l72.4-73.2c.7-1.1,1.2-2.7,0-4-5.3-5.1-5.4-14-.2-19.3,2.5-2.5,5.8-3.9,9.8-4,4,0,7.1,1.3,9.6,3.8,3,3.3,4.7,7.7,4,12.2-.4.7-.1,1.9.9,2.5.7.4,1.4.9,2.6.6,4.4-.8,9,.5,12.2,3.4,2.5,2.5,3.9,5.8,4,9.8,0,3.4-1.3,7.1-3.8,9.6-5.1,5.3-14,5.4-19.3.2-1.1-.7-2.8-1.2-4,0M610.1,63.7c3.7-3.7,5.6-8.5,5.6-13.4s-2.1-9.6-5.8-13.3c-3.7-3.7-8.7-5.2-13.4-5.6,0-4.9-1.9-10-5.6-13.7-3.7-3.7-8.5-5.6-13.4-5.6s-9.6,2.1-13.3,5.8c-6.6,6.9-7.4,17.2-1.5,24.7l-68.7,69.5c-7.5-5.5-18.2-5-24.7,1.9-3.7,3.7-5.6,8.5-5.6,13.4,0,4.9,2.1,9.6,5.8,13.3,3.7,3.7,8.7,5.2,13.4,5.6,0,4.9,1.9,10,5.6,13.7,3.7,3.7,8.7,5.2,13.4,5.6,4.9,0,9.6-2.1,13.3-5.8,6.6-6.9,7.4-17.2,1.5-24.7l68.7-69.5c7.5,5.5,18.2,5,24.7-1.9"/>
  <path class="st0" d="M298.6,687.5c0,5.5,2.1,11.2,6.3,15.4,4.2,4.2,9.6,6.3,15.1,6.3h0c5.6,0,11-2.4,15.1-6.5h0s0,0,0,0c4-4.2,6.2-9.6,6.1-15.1,0-4.5-1.5-9.1-4.5-12.9l-2,1.5,1.8,1.8,68.7-69.5-1.8-1.8-1.5,2c3.8,2.8,8.4,4.2,12.9,4.2,5.5,0,11-2.1,15.1-6.4l-1.8-1.7,1.8,1.8c4.2-4.2,6.3-9.6,6.3-15.1h0s0,0,0,0c0-5.6-2.4-11-6.5-15.1-2.1-2.1-4.6-3.6-7.2-4.6-2.6-1-5.2-1.5-7.8-1.7l-.2,2.5h2.5c0-5.6-2.1-11.2-6.3-15.4-2.1-2.1-4.6-3.6-7.2-4.6-2.6-1-5.2-1.5-7.8-1.7h0s0,0,0,0c-5.6,0-11,2.4-15.1,6.5h0s0,0,0,0c-4,4.2-6.2,9.6-6.1,15.1,0,4.5,1.5,9.1,4.5,12.9l2-1.5-1.8-1.8-68.7,69.5,1.8,1.8,1.5-2c-3.8-2.8-8.4-4.2-12.9-4.2-5.5,0-11,2.1-15.1,6.4l1.8,1.7-1.8-1.8c-4.2,4.2-6.3,9.6-6.3,15.1h0s0,0,0,0c0,5.6,2.4,11,6.5,15.1,2.1,2.1,4.6,3.6,7.2,4.6,2.6,1,5.2,1.5,7.8,1.7l.4-5c-2.2-.2-4.3-.6-6.4-1.4-2-.8-3.9-1.9-5.4-3.5-3.3-3.3-5.1-7.3-5.1-11.5h0s0,0,0,0h-.2s.2,0,.2,0h0s-.2,0-.2,0h.2c0-4.3,1.6-8.4,4.8-11.6h0s0,0,0,0c3.1-3.3,7.3-4.9,11.5-4.9,3.5,0,7,1.1,10,3.3l1.7,1.3,71.7-72.6-1.4-1.7c-2.3-2.9-3.4-6.4-3.4-9.8,0-4.1,1.6-8.3,4.8-11.6l-1.8-1.7,1.8,1.8c3.3-3.3,7.3-5.1,11.5-5.1v-2.5s-.2,2.5-.2,2.5c2.2.2,4.3.6,6.4,1.4,2,.8,3.9,1.9,5.4,3.5,3.2,3.2,4.8,7.6,4.8,11.9v2.3s2.3.2,2.3.2c2.2.2,4.3.6,6.4,1.4,2,.8,3.9,1.9,5.4,3.5,3.3,3.3,5.1,7.3,5.1,11.5h0s0,0,0,0h.1s-.1,0-.1,0h0s.1,0,.1,0h-.1c0,4.3-1.6,8.4-4.8,11.6h0s0,0,0,0c-3.1,3.3-7.3,4.9-11.5,4.9-3.5,0-7-1.1-10-3.3l-1.7-1.3-71.7,72.6,1.4,1.7c2.3,2.9,3.4,6.4,3.4,9.8,0,4.1-1.6,8.3-4.8,11.6l1.8,1.7-1.8-1.8c-3.3,3.3-7.3,5.1-11.5,5.1h0,0c-4.3,0-8.4-1.6-11.6-4.8-3.2-3.2-4.8-7.6-4.8-11.9h-5Z"/>
  <path class="st1" d="M178.3,628.3h.2c4.4,0,8.5,1.8,11.5,4.8,3,3,4.9,7.1,4.9,11.6h0s0,8.9,0,8.9h2.5s-2.1-1.3-2.1-1.3c-.2.4-.3.7-.4.9,0,.3,0,.5,0,.7,0,.4,0,.7.1,1,.1.5.3.9.6,1.4.3.5.7.9,1.3,1.3l1.3-2.1-1.8,1.8,16.7,16.4h0c3.3,3.3,4.9,7.5,4.9,11.8,0,4.1-1.5,8.2-4.7,11.4-3.3,3.3-7.5,4.9-11.8,4.9-4.1,0-8.2-1.5-11.4-4.7l-7.6-7.6-.3-.2c-.7-.4-1.1-.7-1.8-1.1l-.9-.5-1,.3c-.2,0-.3,0-.4,0h0s0,.2,0,.2v-.2s0,0,0,0v.2s0-.2,0-.2v.7s0-.7,0-.7h0s0,.7,0,.7v-.7,1.6l.8-1.4c-.4-.2-.7-.2-.8-.2v1.6l.8-1.4c-.5-.3-1.2-.5-1.8-.5-.9,0-1.7.3-2.2.7-.6.4-1,.9-1.3,1.4l2.1,1.3-1.8-1.8-7.4,7.4c-3.3,3.3-7.5,4.9-11.8,4.9-4.1,0-8.2-1.5-11.4-4.7-3.3-3.3-4.9-7.5-4.9-11.8,0-4.1,1.5-8.2,4.7-11.4h0s18.1-18.5,18.1-18.5l.2-.3c.4-.7.7-1.1,1.1-1.8l.4-.6v-8.1s0,0,0,0v-.2c0-4.4,1.8-8.5,4.8-11.5,3-3,7.1-4.9,11.6-4.9v-5c-5.9,0-11.2,2.5-15.1,6.4-3.9,3.9-6.3,9.2-6.3,15,0,.1,0,.2,0,.3h2.5s-2.5,0-2.5,0v7.4s2.5,0,2.5,0l-2.1-1.3c-.4.7-.7,1.1-1.1,1.8l2.1,1.3-1.8-1.7-17.9,18.3,1.8,1.7-1.8-1.8c-4.1,4.1-6.2,9.5-6.1,14.9,0,5.5,2.2,11.1,6.4,15.3,4.1,4.1,9.5,6.2,14.9,6.1,5.5,0,11.1-2.2,15.3-6.4l7.6-7.6.2-.3h0s-.3-.2-.3-.2l.2.3c0,0,.1,0,.1,0l-.3-.2.2.3-.6-1v1.2c.3,0,.5-.1.6-.2l-.6-1v1.2-1.4l-.7,1.2c.2.1.5.2.7.2v-1.4l-.7,1.2c.7.4,1.3.5,1.8.5.4,0,.7,0,1-.1.3,0,.5-.1.7-.2l-.6-2.4-1.3,2.1c.7.4,1.1.7,1.8,1.1l1.3-2.1-1.8,1.8,7.4,7.4c4.1,4.1,9.5,6.2,14.9,6.1,5.5,0,11.1-2.2,15.3-6.4,4.1-4.1,6.2-9.5,6.1-14.9,0-5.5-2.2-11.1-6.4-15.3h0s-16.9-16.6-16.9-16.6l-.3-.2-.4.6.7-.3s0-.1-.3-.3l-.4.6.7-.3h-.2c0,0,.2,0,.2,0h0s-.2,0-.2,0h.2s-.8.1-.8.1h.8c0-.1,0-.2,0-.2l-.8.2h.8-1.6l1.5.3c0-.2,0-.2,0-.3h-1.6l1.5.3-2-.4,1.7,1c.2-.3.2-.5.2-.6l-2-.4,1.7,1,.4-.6v-9.6c0,0,0,0,0,0,0-5.8-2.5-11.2-6.4-15-3.9-3.9-9.2-6.3-15-6.3-.1,0-.2,0-.3,0v5Z"/>
  <path class="st1" d="M511.9,642.8l.2,5-16.4,16.4h0c-5.3,5.2-7.9,12-7.9,18.8,0,6.9,2.7,13.8,7.9,19.1,5.2,5.3,12,7.9,18.9,7.9,6.9,0,13.8-2.7,19.1-7.9h0s4.6-4.8,4.6-4.8l4.7,4.6,1.7-1.8-1.8,1.7c2.6,2.7,5.7,4.5,9,5.8,3.3,1.2,6.8,1.8,10.1,2,.3,0,.7,0,1,0,3.3,0,6.6-.8,9.7-2.2,3.1-1.4,5.9-3.4,8.4-6h0c5.3-5.2,7.9-12,7.9-18.8,0-6.9-2.7-13.8-7.9-19.1h0s-14.9-15-14.9-15v-6.4s0,0,0,0c-.2-7.3-3.1-13.9-7.8-18.7-4.7-4.8-11.3-7.8-18.6-7.8-.2,0-.4,0-.6,0-7.3.2-13.9,3.1-18.7,7.8-4.8,4.7-7.8,11.3-7.8,18.6,0,.2,0,.4,0,.6h5c0-.3,0-.4,0-.6,0-5.9,2.4-11.2,6.3-15,3.9-3.9,9.3-6.3,15.3-6.4.2,0,.3,0,.5,0,5.9,0,11.2,2.4,15,6.3,3.9,3.9,6.3,9.3,6.4,15.3h2.5c0,0-2.5,0-2.5,0v8.4s16.4,16.5,16.4,16.5h0c4.3,4.4,6.5,10,6.5,15.6,0,5.6-2.1,11.1-6.4,15.3h0c-2.2,2.2-4.5,3.8-7,5-2.5,1.1-5,1.7-7.6,1.7-.3,0-.5,0-.8,0-2.9-.1-5.9-.7-8.6-1.7-2.7-1-5.2-2.5-7.2-4.6h0s-8.3-8.2-8.3-8.2l-8.1,8.3,1.8,1.7-1.8-1.8c-4.4,4.3-10,6.5-15.6,6.5-5.6,0-11.1-2.1-15.3-6.4-4.3-4.4-6.5-10-6.5-15.6,0-5.6,2.1-11.1,6.4-15.3l18-18-.3-7.2-5,.2Z"/>
  <path class="st0" d="M68.9,245.4c3.7-3.7,5.6-8.5,5.6-13.4,0-4.9-2.1-9.6-5.8-13.3-3.7-3.7-8.7-5.2-13.4-5.6,0-4.9-1.9-10-5.6-13.7-3.7-3.7-8.5-5.6-13.4-5.6-4.9,0-9.6,2.1-13.3,5.8-6.6,6.9-7.4,17.2-1.5,24.7L-1.2,247.7v7.4s28.5-28.7,28.5-28.7c.7-1.1,1.2-2.7,0-4-5.3-5.1-5.4-14-.2-19.3,2.5-2.5,5.8-3.9,9.8-4,3.4,0,7.1,1.3,9.6,3.8,3,3.3,4.7,7.7,4,12.2-.4.7-.1,1.9.9,2.5.7.4,1.4.9,2.6.6,4.4-.8,9,.5,12.2,3.4,2.5,2.5,3.9,5.8,4,9.8,0,3.4-1.3,7.1-3.8,9.6-5.1,5.3-14,5.4-19.3.2-1.1-.7-2.8-1.2-4,0L-.7,285.4v7.4s45.9-46.3,45.9-46.3c7.5,5.5,18.2,5,24.7-1.9"/>
  <path class="st0" d="M70.8,606c3.7-3.7,5.6-8.5,5.6-13.4,0-4.9-2.1-9.6-5.8-13.3-3.7-3.7-8.7-5.2-13.4-5.6,0-4.9-1.9-10-5.6-13.7-3.7-3.7-8.5-5.6-13.4-5.6-4.9,0-9.6,2.1-13.3,5.8-6.6,6.9-7.4,17.2-1.5,24.7l-22.8,23.2-.2,7.7,28.5-28.7c.7-1.1,1.2-2.7,0-4-5.3-5.1-5.4-14-.2-19.3,2.5-2.5,5.8-3.9,9.8-4,4,0,7.1,1.3,9.6,3.8,3,3.3,4.7,7.7,4,12.2-.4.7-.1,1.9.9,2.5.7.4,1.4.9,2.6.6,4.4-.8,9,.5,12.2,3.4,2.5,2.5,3.9,5.8,4,9.8,0,3.4-1.3,7.1-3.8,9.6-5.1,5.3-14,5.4-19.3.2-1.1-.7-2.8-1.2-4,0L1,646.3v7.4s45.9-46.3,45.9-46.3c7.5,5.5,18.2,5,24.7-1.9"/>
  <path class="st1" d="M22.6,528.9c6.4,0,12.3-2.5,17.2-7.4,9.6-9.5,9.5-24.8,0-34.4l-15.6-15.8v-7.4c-.3-13.5-11-24.3-24.5-24v5.5c10.6-.2,19.2,8.5,19.3,18.9v8.9c-.1.4.2,1.5.9,2l16.7,16.4c7.4,7.4,7.6,19.3.2,26.7-7.4,7.4-19.3,7.6-26.7.2l-7.4-7.4c-.7-.4-1.1-.7-1.8-1.1v6.4c0,0,5.9,5.9,5.9,5.9,4.6,4.7,11.2,6.7,17.4,7"/>
  <path class="st1" d="M61.8,443.7c-8.3,4.9-16.1,4.6-17.9,1.1-2-3.2,1.7-10.3,10-15.1,8.3-4.9,16.1-4.6,17.9-1.1,2,3.2-1.7,10.3-10,15.1M50.7,425.3c-10.5,6-15.6,16.2-11.9,22.4,1.8,3.5,6.2,5.2,11.1,5.2,4.3.1,9.8-1.5,14.5-4.6,10.5-6,15.6-16.2,11.9-22.4-3.8-6.7-15-7-25.7-.6"/>
  <path class="st1" d="M37.2,404.4c-2.3,12.9-10.3,22.9-17.3,21.6-3.2-.4-6.2-3.7-7.9-8.2-1.9-5.1-2.3-11.7-1.5-18.1,1.9-12.2,9.2-22,16-21.9,0,0,.7.4,1.3.3,3.2.4,6.2,3.7,7.9,8.2,1.9,5.1,2.3,11.7,1.5,18.1M40.6,383.9c-2.5-6.4-7-10.6-11.8-11.5-10.6-1.9-21,9.6-23.6,26.2-1.2,7.7-.8,15.3,1.6,21.1,2.5,6.4,7,10.6,11.8,11.5.7.4,1.3.3,2.2.4,9.8,0,18.8-10.9,21.7-26.3,1.2-7.7.8-15.3-1.6-21.1"/>
  <path class="st1" d="M647.6,425.4c.9-1.4,3-2.6,6.4-2.5,3.4,0,7.7,1.2,11.7,3.5,8.3,5,12.2,11.7,10.2,15s-9.8,4-18.1-1c-8.3-5-12.2-11.7-10.2-15M655,445c5.1,3,10.3,4.2,14.6,4.3,4.9,0,9-2,11-5.2,3.9-6.5-1.4-16.6-12.1-22.5-10.5-6.3-21.7-5.6-25.6.9-3.9,6.5,1.4,16.6,12.1,22.5"/>
  <path class="st1" d="M696.7,429.6c.6.4,1.3.5,1.9.5.7,0,1.2-.2,1.6-.3.2,0,.3-.1.4-.1h0s0,0,0,0v-.4c-.1,0,0,.4,0,.4h0s-.1-.4-.1-.4v.4c0,0-.5-2.4-.5-2.4l.5,2.5c3-.6,5.8-2.1,8.2-4.4,2.3-2.3,4.3-5.3,5.6-8.8h0s0,0,0,0c1.5-4.2,2.3-9,2.3-14,0-2.8-.2-5.6-.7-8.5h0s0,0,0,0c-1.4-8-4.5-14.8-8.7-19.8-2.1-2.5-4.4-4.5-7-5.9-2.6-1.4-5.4-2.2-8.3-2.2-1,0-2,0-3,.3l.5,2.5-.3-2.5c-3.3.4-6.2,2-8.5,4.4-2.3,2.3-4.1,5.4-5.4,8.8h0s0,0,0,0c-1.5,4.2-2.3,9-2.3,14,0,2.8.2,5.6.7,8.5,1.4,8.1,4.5,14.9,8.8,19.9,2.1,2.5,4.5,4.5,7.1,6,2.6,1.4,5.4,2.3,8.2,2.4l.2-5c-2,0-4-.7-5.9-1.8-3-1.7-5.9-4.5-8.2-8.3-2.4-3.8-4.2-8.6-5.1-14.1-.4-2.6-.7-5.2-.7-7.7,0-4.5.7-8.7,2-12.3l-2.4-.8,2.3.9c1.1-3,2.6-5.4,4.2-7,1.7-1.7,3.5-2.7,5.6-2.9h0s0,0,0,0c.7-.1,1.3-.2,2-.2,2,0,3.9.5,5.9,1.6,2.9,1.6,5.7,4.4,8.1,8.2,2.3,3.8,4.1,8.6,5.1,14h0c.4,2.6.7,5.2.7,7.7,0,4.5-.7,8.7-2,12.3l2.4.8-2.3-.9c-1.1,2.9-2.6,5.2-4.3,6.9-1.7,1.7-3.7,2.7-5.6,3.1h0s0,0,0,0c-.5.1-.7.2-.9.3h-.1s.1.7.1.7v-.7c0,0-.1,0-.1,0v.7c.1,0,.1-.7.1-.7v1.3l.6-1.1c-.2-.1-.5-.2-.6-.2v1.3l.6-1.1-2.6,4.3Z"/>
  <path class="st0" d="M223.4,421.1l-72.4,73.2c-.7,1.1-1.2,2.7,0,4,5.3,5.1,5.4,14,.2,19.3-2.5,2.5-5.8,3.9-9.8,4-3.4,0-7.1-1.3-9.6-3.8-3-3.3-4.7-7.7-4-12.2.4-.7.1-1.9-.9-2.5-.7-.4-1.1-.7-1.8-1.1l-.4-.2c-4.4.8-9-.5-12.2-3.4-2.5-2.5-3.9-5.8-4-9.8,0-3.4,1.3-7.1,3.8-9.6,5.1-5.3,14-5.4,19.3-.2,1.1.7,2.8,1.2,4,0l72.4-73.2c.7-1.1,1.2-2.7,0-4-5.3-5.1-5.4-14-.2-19.3,2.5-2.5,5.8-3.9,9.8-4,3.4,0,7.1,1.3,9.6,3.8,3,3.3,4.7,7.7,4,12.2-.4.7-.1,1.9.9,2.5.7.4,1.4.9,2.6.6,4.4-.8,9,.5,12.2,3.4,2.5,2.5,3.9,5.8,4,9.8,0,3.4-1.3,7.1-3.8,9.6-5.1,5.3-14,5.4-19.3.2-1.1-.7-2.8-1.2-4,0M250.2,424.8c3.7-3.7,5.6-8.5,5.6-13.4,0-4.9-2.1-9.6-5.8-13.3-3.7-3.7-8.7-5.2-13.4-5.6,0-4.9-1.9-10-5.6-13.7-3.7-3.7-8.5-5.6-13.4-5.6-4.9,0-9.6,2.1-13.3,5.8-6.6,6.9-7.4,17.2-1.5,24.7l-68.7,69.5c-7.5-5.5-18.2-5-24.7,1.9-3.7,3.7-5.6,8.5-5.6,13.4,0,4.9,2.1,9.6,5.8,13.3,3.7,3.7,8.7,5.2,13.4,5.6,0,4.9,1.9,10,5.6,13.7,3.7,3.7,8.7,5.2,13.4,5.6,4.9,0,9.6-2.1,13.3-5.8,6.6-6.9,7.4-17.2,1.5-24.7l68.7-69.5c7.5,5.5,18.2,5,24.7-1.9"/>
  <path class="st1" d="M136.1,625c-2,3.3-9.8,4-18.1-1-8.3-5-12.2-11.7-10.2-15,.9-1.4,3-2.6,6.4-2.5s7.7,1.2,11.7,3.5c8.3,5,12.2,11.7,10.2,15M140.7,627.2c3.9-6.5-1.4-16.6-12.1-22.5-10.5-6.3-21.7-5.6-25.6.9-3.9,6.5,1.4,16.6,12.1,22.5,5.1,3,10.3,4.2,14.6,4.3,4.9,0,9-2,11-5.2"/>
  <path class="st1" d="M243,623.1c-8.3,4.9-16.1,4.6-17.9,1.1-2-3.2,1.7-10.3,10-15.1s16.1-4.6,17.9-1.1c2,3.2-1.7,10.3-10,15.1M232.1,604.3c-10.5,6-15.6,16.2-11.9,22.4,1.8,3.5,6.2,5.2,11.1,5.2,4.3.1,9.8-1.5,14.5-4.6,10.5-6,15.6-16.2,11.9-22.4-3.8-6.7-15-7-25.7-.6"/>
  <path class="st1" d="M167.6,597.1c-1.9,4.8-4.6,7.6-7.8,8.1-7.3,1.5-15.4-8.7-17.7-21.4-1.4-6.7-.9-13.3,1-18.1,1.9-4.8,4.6-7.6,7.8-8.1,0,0,.9,0,1.2-.3,6.8.1,14,9.4,16.5,21.7,1.4,6.7.9,13.3-1,18.1M150.2,552.3c-5,.9-9.5,5.1-11.9,11.6-2.2,6.1-2.7,13.6-1.4,21.3,2.6,15.3,12,25.9,21.7,26.2.7.4,1.5,0,2.1-.2,5-.9,9.5-5.1,11.9-11.6,2.2-6.1,2.7-13.6,1.4-21.3-2.9-16.5-13.4-27.7-24-25.7"/>
  <path class="st1" d="M218.2,583.2c-2.3,12.9-10.3,22.9-17.3,21.6-3.2-.4-6.2-3.7-7.9-8.2-1.9-5.1-2.3-11.7-1.5-18.1,1.9-12.2,9.2-22,16-21.9,0,0,.7.4,1.3.3,3.2.4,6.2,3.7,7.9,8.2,1.9,5.1,2.3,11.7,1.5,18.1M210,551.7c-10.6-1.9-21,9.6-23.6,26.2-1.2,7.7-.8,15.3,1.6,21.1,2.5,6.4,7,10.6,11.8,11.5.7.4,1.3.3,2.2.4,9.8,0,18.8-10.9,21.7-26.3,1.2-7.7.8-15.3-1.6-21.1-2.5-6.4-7-10.6-11.8-11.5"/>
  <path class="st1" d="M178.6,264.4c10.4-.2,19,8.5,19.2,18.9v8.9c-.1.4.2,1.5.9,2l16.7,16.4c7.4,7.4,7.6,19.3.2,26.7-7.4,7.4-19.3,7.6-26.7.2l-7.4-7.4c-.7-.4-1.1-.7-1.8-1.1-.6.1-1.2.3-1.5,0-.7-.4-1.5,0-2,.8l-7.4,7.4c-7.4,7.4-19.3,7.6-26.7.2-7.4-7.4-7.6-19.3-.2-26.7l17.9-18.3c.4-.7.7-1.1,1.1-1.8v-7.4c-.2-10.4,8.4-19,18.9-19.2M154.4,283.4l.3,6.1-17.2,17.2c-9.6,9.5-9.5,24.8,0,34.4,9.5,9.6,24.8,9.5,34.4,0l6.4-6.5,6.5,6.4c4.6,4.7,11.2,6.7,17.4,7,6.4,0,12.3-2.5,17.2-7.4,9.6-9.5,9.5-24.8,0-34.4l-15.6-15.8v-7.4c-.3-13.5-11-24.3-24.5-24s-24.3,11-24,24.5"/>
  <path class="st1" d="M106,248.5c.9-1.4,3-2.6,6.4-2.5,3.4,0,7.7,1.2,11.7,3.5,8.3,5,12.2,11.7,10.2,15-2,3.3-9.8,4-18.1-1-8.3-5-12.2-11.7-10.2-15M113.4,268.1c5.1,3,10.3,4.2,14.6,4.3,4.9,0,9-2,11-5.2,3.9-6.5-1.4-16.6-12.1-22.5-10.5-6.3-21.7-5.6-25.6.9-3.9,6.5,1.4,16.6,12.1,22.5"/>
  <path class="st1" d="M241.1,262.5c-8.3,4.9-16.1,4.6-17.9,1.1-2-3.2,1.7-10.3,10-15.1,8.3-4.9,16.1-4.6,17.9-1.1,2,3.2-1.7,10.3-10,15.1M230.1,244.1c-10.5,6-15.6,16.2-11.9,22.4,1.8,3.5,6.2,5.2,11.1,5.2,4.3.1,9.8-1.5,14.5-4.6,10.5-6,15.6-16.2,11.9-22.4-3.8-6.7-15-7-25.7-.6"/>
  <path class="st1" d="M141.3,205.2c1.9-4.8,4.6-7.6,7.8-8.1,0,0,.9,0,1.2-.3,6.8.1,14,9.4,16.5,21.7,1.4,6.7.9,13.3-1,18.1-1.9,4.8-4.6,7.6-7.8,8.1-7.1,1.2-15.4-8.7-17.7-21.4-1.4-6.7-.9-13.3,1-18.1M156.6,250.2c.7.4,1.5,0,2.1-.2,5-.9,9.5-5.1,11.9-11.6,2.2-6.1,2.7-13.6,1.4-21.3-2.9-16.5-13.4-27.7-24-25.7-5.4.7-9.5,5.1-11.9,11.6-2.2,6.1-2.7,13.6-1.4,21.3,2.6,15.3,12,25.9,21.7,26.2"/>
  <path class="st1" d="M189.5,218.3c1.9-12.2,9.2-22,16-21.9,0,0,.7.4,1.3.3,3.2.4,6.2,3.7,7.9,8.2,1.9,5.1,2.3,11.7,1.5,18.1-2.3,12.9-10.3,22.9-17.3,21.6-3.2-.4-6.2-3.7-7.9-8.2-1.9-5.1-2.3-11.7-1.5-18.1M198,250c.7.4,1.3.3,2.2.4,9.8,0,18.8-10.9,21.7-26.3,1.2-7.7.8-15.3-1.6-21.1-2.5-6.4-7-10.6-11.8-11.5-10.3-1.7-21,9.6-23.6,26.2-1.2,7.7-.8,15.3,1.6,21.1,2.5,6.4,7,10.6,11.8,11.5"/>
  <path class="st0" d="M291.8,297.8c5.1-5.3,14-5.4,19.3-.2,1.1.7,2.8,1.2,4,0l72.4-73.2c.7-1.1,1.2-2.7,0-4-5.3-5.1-5.4-14-.2-19.3,2.5-2.5,5.8-3.9,9.8-4,3.4,0,7.1,1.3,9.6,3.8,3,3.3,4.7,7.7,4,12.2-.4.7-.1,1.9.9,2.5.7.4,1.4.9,2.6.6,4.4-.8,9,.5,12.2,3.4,2.5,2.5,3.9,5.8,4,9.8,0,3.4-1.3,7.1-3.8,9.6-5.1,5.3-14,5.4-19.3.2-1.1-.7-2.8-1.2-4,0l-72.4,73.2c-.7,1.1-1.2,2.8,0,4,5.3,5.1,5.4,14,.2,19.3-2.5,2.5-5.8,3.9-9.8,4-3.4,0-7.1-1.3-9.6-3.8-3-3.3-4.7-7.7-4-12.2.4-.7.1-1.9-.9-2.5-.7-.4-1.1-.7-1.8-1.1l-.4-.2c-4.4.8-9-.5-12.2-3.4-2.5-2.5-3.9-5.8-4-9.8,0-3.4,1.3-7.1,3.8-9.6M301.4,326.2h0c0,4.9,1.9,10,5.6,13.7,3.7,3.7,8.5,5.6,13.4,5.6,4.9,0,9.6-2.1,13.3-5.8,6.6-6.9,7.4-17.2,1.5-24.7l68.7-69.5c7.5,5.5,18.2,5,24.7-1.9,3.7-3.7,5.6-8.5,5.6-13.4,0-4.9-2.1-9.6-5.8-13.3-3.7-3.7-8.7-5.2-13.4-5.6,0-4.9-1.9-10-5.6-13.7-3.7-3.7-8.7-5.2-13.4-5.6-4.9,0-9.6,2.1-13.3,5.8-6.6,6.9-7.4,17.2-1.5,24.7l-68.7,69.5c-7.5-5.5-18.2-5-24.7,1.9-3.7,3.7-5.6,8.5-5.6,13.4,0,4.9,2.1,9.6,5.8,13.3,3.7,3.7,8.7,5.2,13.4,5.6"/>
  <path class="st1" d="M396.4,516.3c-7.4,7.4-19.3,7.6-26.7.2l-7.4-7.4c-.7-.4-1.1-.7-1.8-1.1-.6.1-1.2.3-1.5,0-.7-.4-1.5,0-2,.8l-7.4,7.4c-7.4,7.4-19.3,7.6-26.7.2s-7.6-19.3-.2-26.7l17.9-18.3c.4-.7.7-1.1,1.1-1.8v-7.4c-.2-10.4,8.4-19,18.9-19.2,10.4-.2,19,8.5,19.2,18.9v8.9c-.1.4.2,1.5.9,2l16.7,16.4c7.4,7.4,7.6,19.3.2,26.7M384.1,469.6v-7.4c0-13.2-11-24.3-24.5-24-13.5.3-24.3,11-24,24.5l.3,6.1-17.2,17.2c-9.6,9.5-9.5,24.8,0,34.4,9.5,9.6,24.8,9.5,34.4,0l6.4-6.5,6.5,6.4c4.6,4.7,11.2,6.7,17.4,7,6.4,0,12.3-2.5,17.2-7.4,9.6-9.5,9.5-24.8,0-34.4l-15.6-15.8h-.9Z"/>
  <path class="st1" d="M315.1,443.6c-2,3.3-9.8,4-18.1-1-8.3-5-12.2-11.7-10.2-15,.9-1.4,3-2.6,6.4-2.5,3.4,0,7.7,1.2,11.7,3.5,8.3,5,12.2,11.7,10.2,15M320.1,446c3.9-6.5-1.4-16.6-12.1-22.5-10.5-6.3-21.7-5.6-25.6.9-3.9,6.5,1.4,16.6,12.1,22.5,5.1,3,10.3,4.2,14.6,4.3,4.9,0,9-2,11-5.2"/>
  <path class="st1" d="M422,441.7c-8.3,4.9-16.1,4.6-17.9,1.1-2-3.2,1.7-10.3,10-15.1,8.3-4.9,16.1-4.6,17.9-1.1,2,3.2-1.7,10.3-10,15.1M436.6,423.9c-3.8-6.7-15-7-25.7-.6-10.5,6-15.6,16.2-11.9,22.4,1.8,3.5,6.2,5.2,11.1,5.2,4.3.1,9.8-1.5,14.5-4.6,10.5-6,15.6-16.2,11.9-22.4"/>
  <path class="st1" d="M322.5,384.5c1.9-4.8,4.6-7.6,7.8-8.1,0,0,.9,0,1.2-.3,6.8.1,14,9.4,16.5,21.7,1.4,6.7.9,13.3-1,18.1-1.9,4.8-4.6,7.6-7.8,8.1-7.1,1.2-15.4-8.7-17.7-21.4-1.4-6.7-.9-13.3,1-18.1M337.8,429.6c.7.4,1.5,0,2.1-.2,5-.9,9.5-5.1,11.9-11.6,2.2-6.1,2.7-13.6,1.4-21.3-2.9-16.5-13.4-27.7-24-25.7-5.4.7-9.5,5.1-11.9,11.6-2.2,6.1-2.7,13.6-1.4,21.3,2.6,15.3,12,25.9,21.7,26.2"/>
  <path class="st1" d="M370.7,397.6c1.9-12.2,9.2-22,16-21.9,0,0,.7.4,1.3.3,3.2.4,6.2,3.7,7.9,8.2,1.9,5.1,2.3,11.7,1.5,18.1-2.3,12.9-10.3,22.9-17.3,21.6-3.2-.4-6.2-3.7-7.9-8.2-1.9-5.1-2.3-11.7-1.5-18.1M379.2,429.3c.7.4,1.3.3,2.2.4,9.8,0,18.8-10.9,21.7-26.3,1.2-7.7.8-15.3-1.6-21.1-2.5-6.4-7-10.6-11.8-11.5-10.3-1.7-21,9.6-23.6,26.2-1.2,7.7-.8,15.3,1.6,21.1,2.5,6.4,7,10.6,11.8,11.5"/>
  <path class="st0" d="M583.6,419l-72.4,73.2c-.7,1.1-1.2,2.8,0,4,5.3,5.1,5.4,14,.2,19.3-2.5,2.5-5.8,3.9-9.8,4-4,0-7.1-1.3-9.6-3.8-3-3.3-4.7-7.7-4-12.2.4-.7.1-1.9-.9-2.5-.7-.4-1.1-.7-1.8-1.1l-.4-.2c-4.4.8-9-.5-12.2-3.4-2.5-2.5-3.9-5.8-4-9.8,0-3.4,1.3-7.1,3.8-9.6,5.1-5.3,14-5.4,19.3-.2,1.1.7,2.8,1.2,4,0l72.4-73.2c.7-1.1,1.2-2.8,0-4-5.3-5.1-5.4-14-.2-19.3,2.5-2.5,5.8-3.9,9.8-4,4,0,7.1,1.3,9.6,3.8,3,3.3,4.7,7.7,4,12.2-.4.7-.1,1.9.9,2.5.7.4,1.4.9,2.6.6,4.4-.8,9,.5,12.2,3.4,2.5,2.5,3.9,5.8,4,9.8,0,3.4-1.3,7.1-3.8,9.6-5.1,5.3-14,5.4-19.3.2-1.1-.7-2.8-1.2-4,0M610.4,422.7c3.7-3.7,5.6-8.5,5.6-13.4s-2.1-9.6-5.8-13.3c-3.7-3.7-8.7-5.2-13.4-5.6,0-4.9-1.9-10-5.6-13.7-3.7-3.7-8.5-5.6-13.4-5.6-4.9,0-9.6,2.1-13.3,5.8-6.6,6.9-7.4,17.2-1.5,24.7l-68.7,69.5c-7.5-5.5-18.2-5-24.7,1.9-3.7,3.7-5.6,8.5-5.6,13.4,0,4.9,2.1,9.6,5.8,13.3,3.7,3.7,8.7,5.2,13.4,5.6,0,4.9,1.9,10,5.6,13.7,3.7,3.7,8.7,5.2,13.4,5.6,4.9,0,9.6-2.1,13.3-5.8,6.6-6.9,7.4-17.2,1.5-24.7l68.7-69.5c7.5,5.5,18.2,5,24.7-1.9"/>
  <path class="st1" d="M496.6,622.5c-2,3.3-9.8,4-18.1-1-8.3-5-12.2-11.7-10.2-15,.9-1.4,3-2.6,6.4-2.5s7.7,1.2,11.7,3.5c8.3,5,12.2,11.7,10.2,15M501.3,625.4c3.9-6.5-1.4-16.6-12.1-22.5-10.5-6.3-21.7-5.6-25.6.9-3.9,6.5,1.4,16.6,12.1,22.5,5.1,3,10.3,4.2,14.6,4.3,4.9,0,9-2,11-5.2"/>
  <path class="st1" d="M603.2,621c-8.3,4.9-16.1,4.6-17.9,1.1-2-3.2,1.7-10.3,10-15.1,8.3-4.9,16.1-4.6,17.9-1.1,2,3.2-1.7,10.3-10,15.1M618,602.8c-3.8-6.7-15-7-25.7-.6-10.5,6-15.6,16.2-11.9,22.4,1.8,3.5,6.2,5.2,11.1,5.2,4.3.1,9.8-1.5,14.5-4.6,10.5-6,15.6-16.2,11.9-22.4"/>
  <path class="st1" d="M503.9,563.5c1.9-4.8,4.6-7.6,7.8-8.1,0,0,.9,0,1.2-.3,6.8.1,14,9.4,16.5,21.7,1.4,6.7.9,13.3-1,18.1-1.9,4.8-4.6,7.6-7.8,8.1-7.1,1.2-15.4-8.7-17.7-21.4-1.4-6.7-.9-13.3,1-18.1M519,608.9c.7.4,1.5,0,2.1-.2,5-.9,9.5-5.1,11.9-11.6,2.2-6.1,2.7-13.6,1.4-21.3-2.9-16.5-13.4-27.7-24-25.7-5.4.7-9.5,5.1-11.9,11.6-2.2,6.1-2.7,13.6-1.4,21.3,2.6,15.3,12,25.9,21.7,26.2"/>
  <path class="st1" d="M552.1,576.6c1.9-12.2,9.2-22,16-21.9,0,0,.7.4,1.3.3,3.2.4,6.2,3.7,7.9,8.2,1.9,5.1,2.3,11.7,1.5,18.1-2.3,12.9-10.3,22.9-17.3,21.6-3.2-.4-6.2-3.7-7.9-8.2-1.9-5.1-2.3-11.7-1.5-18.1M560.7,608.3c.7.4,1.3.3,2.2.4,9.8,0,18.8-10.9,21.7-26.3,1.2-7.7.8-15.3-1.6-21.1-2.5-6.4-7-10.6-11.8-11.5-10.3-1.7-21,9.6-23.6,26.2-1.2,7.7-.8,15.3,1.6,21.1,2.5,6.4,7,10.6,11.8,11.5"/>
  <path class="st1" d="M538.8,262.3c10.4-.2,19,8.5,19.2,18.9v8.9c-.1.4.2,1.5.9,2l16.7,16.4c7.4,7.4,7.6,19.3.2,26.7-7.4,7.4-19.3,7.6-26.7.2l-7.4-7.4c-.7-.4-1.1-.7-1.8-1.1-.6.1-1.2.3-1.5,0-.7-.4-1.5,0-2,.8l-7.4,7.4c-7.4,7.4-19.3,7.6-26.7.2-7.4-7.4-7.6-19.3-.2-26.7l17.9-18.3c.4-.7.7-1.1,1.1-1.8v-7.4c-.2-10.4,8.4-19,18.9-19.2M514.6,281.3l.3,6.1-17.2,17.2c-9.6,9.5-9.5,24.8,0,34.4s24.8,9.5,34.4,0l6.4-6.5,6.5,6.4c4.6,4.7,11.2,6.7,17.4,7s12.3-2.5,17.2-7.4c9.6-9.5,9.5-24.8,0-34.4l-15.6-15.8v-7.4c-.3-13.5-11-24.3-24.5-24-13.5.3-24.3,11-24,24.5"/>
  <path class="st1" d="M466.2,246.4c.9-1.4,3-2.6,6.4-2.5,3.4,0,7.7,1.2,11.7,3.5,8.3,5,12.2,11.7,10.2,15-2,3.3-9.8,4-18.1-1s-12.2-11.7-10.2-15M473.6,266c5.1,3,10.3,4.2,14.6,4.3,4.9,0,9-2,11-5.2,3.9-6.5-1.4-16.6-12.1-22.5-10.5-6.3-21.7-5.6-25.6.9-3.9,6.5,1.4,16.6,12.1,22.5"/>
  <path class="st1" d="M601.3,260.5c-8.3,4.9-16.1,4.6-17.9,1.1-2-3.2,1.7-10.3,10-15.1,8.3-4.9,16.1-4.6,17.9-1.1,2,3.2-1.7,10.3-10,15.1M590.3,242c-10.5,6-15.6,16.2-11.9,22.4,1.8,3.5,6.2,5.2,11.1,5.2,4.3.1,9.8-1.5,14.5-4.6,10.5-6,15.6-16.2,11.9-22.4-3.8-6.7-15-7-25.7-.6"/>
  <path class="st1" d="M501.5,203.1c1.9-4.8,4.6-7.6,7.8-8.1,0,0,.9,0,1.2-.3,6.8.1,14,9.4,16.5,21.7,1.4,6.7.9,13.3-1,18.1-1.9,4.8-4.6,7.6-7.8,8.1-7.1,1.2-15.4-8.7-17.7-21.4-1.4-6.7-.9-13.3,1-18.1M517.1,248.4c.7.4,1.5,0,2.1-.2,5-.9,9.5-5.1,11.9-11.6,2.2-6.1,2.7-13.6,1.4-21.3-2.9-16.5-13.4-27.7-24-25.7-5.4.7-9.5,5.1-11.9,11.6-2.2,6.1-2.7,13.6-1.4,21.3,2.6,15.3,12,25.9,21.7,26.2"/>
  <path class="st1" d="M550,216.4c1.9-12.2,9.2-22,16-21.9,0,0,.7.4,1.3.3,3.2.4,6.2,3.7,7.9,8.2,1.9,5.1,2.3,11.7,1.5,18.1-2.3,12.9-10.3,22.9-17.3,21.6-3.2-.4-6.2-3.7-7.9-8.2-1.9-5.1-2.3-11.7-1.5-18.1M558.2,247.9c.7.4,1.3.3,2.2.4,9.8,0,18.8-10.9,21.7-26.3,1.2-7.7.8-15.3-1.6-21.1-2.5-6.4-7-10.6-11.8-11.5-10.3-1.7-21,9.6-23.6,26.2-1.2,7.7-.8,15.3,1.6,21.1,2.5,6.4,7,10.6,11.8,11.5"/>
  <path class="st1" d="M22.6,170c6.4,0,12.3-2.5,17.2-7.4,9.6-9.5,9.5-24.8,0-34.4l-15.6-15.8v-7.4c-.3-13.5-11-24.3-24.5-24v5.5c10.6-.2,19.2,8.5,19.3,18.9v8.9c-.1.4.2,1.5.9,2l16.7,16.4c7.4,7.4,7.6,19.3.2,26.7-7.4,7.4-19.3,7.6-26.7.2l-7.4-7.4c-.7-.4-1.1-.7-1.8-1.1v6.4c0,0,5.9,5.9,5.9,5.9,4.6,4.7,11.2,6.7,17.4,7"/>
  <path class="st1" d="M61.8,84.8c-8.3,4.9-16.1,4.6-17.9,1.1-2-3.2,1.7-10.3,10-15.1,8.3-4.9,16.1-4.6,17.9-1.1,2,3.2-1.7,10.3-10,15.1M50.7,66.4c-10.5,6-15.6,16.2-11.9,22.4,1.8,3.5,6.2,5.2,11.1,5.2,4.3.1,9.8-1.5,14.5-4.6,10.5-6,15.6-16.2,11.9-22.4-3.8-6.7-15-7-25.7-.6"/>
  <path class="st1" d="M37.2,45.5c-2.3,12.9-10.3,22.9-17.3,21.6-3.2-.4-6.2-3.7-7.9-8.2-1.9-5.1-2.3-11.7-1.5-18.1,1.9-12.2,9.2-22,16-21.9,0,0,.7.4,1.3.3,3.2.4,6.2,3.7,7.9,8.2,1.9,5.1,2.3,11.7,1.5,18.1M40.6,25c-2.5-6.4-7-10.6-11.8-11.5-10.6-1.9-21,9.6-23.6,26.2-1.2,7.7-.8,15.3,1.6,21.1,2.5,6.4,7,10.6,11.8,11.5.7.4,1.3.3,2.2.4,9.8,0,18.8-10.9,21.7-26.3,1.2-7.7.8-15.3-1.6-21.1"/>
  <path class="st1" d="M647.6,66.5c.9-1.4,3-2.6,6.4-2.5s7.7,1.2,11.7,3.5c8.3,5,12.2,11.7,10.2,15s-9.8,4-18.1-1c-8.3-5-12.2-11.7-10.2-15M655,86.1c5.1,3,10.3,4.2,14.6,4.3,4.9,0,9-2,11-5.2,3.9-6.5-1.4-16.6-12.1-22.5-10.5-6.3-21.7-5.6-25.6.9-3.9,6.5,1.4,16.6,12.1,22.5"/>
  <path class="st1" d="M696.7,70.7c.6.4,1.3.5,1.9.5.7,0,1.2-.2,1.6-.3.2,0,.3-.1.4-.1h0s0,0,0,0v-.4c-.1,0,0,.4,0,.4h0s-.1-.4-.1-.4v.4c0,0-.5-2.4-.5-2.4l.5,2.5c3-.6,5.8-2.1,8.2-4.4,2.3-2.3,4.3-5.3,5.6-8.8h0s0,0,0,0c1.5-4.2,2.3-9,2.3-14,0-2.8-.2-5.6-.7-8.5h0s0,0,0,0c-1.4-8-4.5-14.8-8.7-19.8-2.1-2.5-4.4-4.5-7-5.9-2.6-1.4-5.4-2.2-8.3-2.2-1,0-2,0-3,.3l.5,2.5-.3-2.5c-3.3.4-6.2,2-8.5,4.4-2.3,2.3-4.1,5.4-5.4,8.8h0s0,0,0,0c-1.5,4.2-2.3,9-2.3,14,0,2.8.2,5.6.7,8.5,1.4,8.1,4.5,14.9,8.8,19.9,2.1,2.5,4.5,4.5,7.1,6,2.6,1.4,5.4,2.3,8.2,2.4l.2-5c-2,0-4-.7-5.9-1.8-3-1.7-5.9-4.5-8.2-8.3-2.4-3.8-4.2-8.6-5.1-14.1-.4-2.6-.7-5.2-.7-7.7,0-4.5.7-8.7,2-12.3l-2.4-.8,2.3.9c1.1-3,2.6-5.4,4.2-7,1.7-1.7,3.5-2.7,5.6-2.9h0s0,0,0,0c.7-.1,1.3-.2,2-.2,2,0,3.9.5,5.9,1.6,2.9,1.6,5.7,4.4,8.1,8.2,2.3,3.8,4.1,8.6,5.1,14h0c.4,2.6.7,5.2.7,7.7,0,4.5-.7,8.7-2,12.3l2.4.8-2.3-.9c-1.1,2.9-2.6,5.2-4.3,6.9-1.7,1.7-3.7,2.7-5.6,3.1h0s0,0,0,0c-.5.1-.7.2-.9.3h-.1s.1.7.1.7v-.7c0,0-.1,0-.1,0v.7c.1,0,.1-.7.1-.7v1.3l.6-1.1c-.2-.1-.5-.2-.6-.2v1.3l.6-1.1-2.6,4.3Z"/>
  <path class="st0" d="M223.4,62.1l-72.4,73.2c-.7,1.1-1.2,2.7,0,4,5.3,5.1,5.4,14,.2,19.3-2.5,2.5-5.8,3.9-9.8,4-3.4,0-7.1-1.3-9.6-3.8-3-3.3-4.7-7.7-4-12.2.4-.7.1-1.9-.9-2.5-.7-.4-1.1-.7-1.8-1.1l-.4-.2c-4.4.8-9-.5-12.2-3.4-2.5-2.5-3.9-5.8-4-9.8,0-3.4,1.3-7.1,3.8-9.6,5.1-5.3,14-5.4,19.3-.2,1.1.7,2.8,1.2,4,0l72.4-73.2c.7-1.1,1.2-2.7,0-4-5.3-5.1-5.4-14-.2-19.3,2.5-2.5,5.8-3.9,9.8-4,3.4,0,7.1,1.3,9.6,3.8,3,3.3,4.7,7.7,4,12.2-.4.7-.1,1.9.9,2.5.7.4,1.4.9,2.6.6,4.4-.8,9,.5,12.2,3.4,2.5,2.5,3.9,5.8,4,9.8,0,3.4-1.3,7.1-3.8,9.6-5.1,5.3-14,5.4-19.3.2-1.1-.7-2.8-1.2-4,0M250.2,65.9c3.7-3.7,5.6-8.5,5.6-13.4,0-4.9-2.1-9.6-5.8-13.3-3.7-3.7-8.7-5.2-13.4-5.6,0-4.9-1.9-10-5.6-13.7-3.7-3.7-8.5-5.6-13.4-5.6-4.9,0-9.6,2.1-13.3,5.8-6.6,6.9-7.4,17.2-1.5,24.7l-68.7,69.5c-7.5-5.5-18.2-5-24.7,1.9-3.7,3.7-5.6,8.5-5.6,13.4,0,4.9,2.1,9.6,5.8,13.3,3.7,3.7,8.7,5.2,13.4,5.6,0,4.9,1.9,10,5.6,13.7,3.7,3.7,8.7,5.2,13.4,5.6,4.9,0,9.6-2.1,13.3-5.8,6.6-6.9,7.4-17.2,1.5-24.7l68.7-69.5c7.5,5.5,18.2,5,24.7-1.9"/>
  <path class="st1" d="M396.4,157.4c-7.4,7.4-19.3,7.6-26.7.2l-7.4-7.4c-.7-.4-1.1-.7-1.8-1.1-.6.1-1.2.3-1.5,0-.7-.4-1.5,0-2,.8l-7.4,7.4c-7.4,7.4-19.3,7.6-26.7.2-7.4-7.4-7.6-19.3-.2-26.7l17.9-18.3c.4-.7.7-1.1,1.1-1.8v-7.4c-.2-10.4,8.4-19,18.9-19.2,10.4-.2,19,8.5,19.2,18.9v8.9c-.1.4.2,1.5.9,2l16.7,16.4c7.4,7.4,7.6,19.3.2,26.7M384.1,110.7v-7.4c0-13.2-11-24.3-24.5-24-13.5.3-24.3,11-24,24.5l.3,6.1-17.2,17.2c-9.6,9.5-9.5,24.8,0,34.4s24.8,9.5,34.4,0l6.4-6.5,6.5,6.4c4.6,4.7,11.2,6.7,17.4,7,6.4,0,12.3-2.5,17.2-7.4,9.6-9.5,9.5-24.8,0-34.4l-15.6-15.8h-.9Z"/>
  <path class="st1" d="M315.1,84.6c-2,3.3-9.8,4-18.1-1-8.3-5-12.2-11.7-10.2-15,.9-1.4,3-2.6,6.4-2.5,3.4,0,7.7,1.2,11.7,3.5,8.3,5,12.2,11.7,10.2,15M320.1,87.1c3.9-6.5-1.4-16.6-12.1-22.5-10.5-6.3-21.7-5.6-25.6.9-3.9,6.5,1.4,16.6,12.1,22.5,5.1,3,10.3,4.2,14.6,4.3,4.9,0,9-2,11-5.2"/>
  <path class="st1" d="M422,82.8c-8.3,4.9-16.1,4.6-17.9,1.1-2-3.2,1.7-10.3,10-15.1,8.3-4.9,16.1-4.6,17.9-1.1,2,3.2-1.7,10.3-10,15.1M436.6,64.9c-3.8-6.7-15-7-25.7-.6-10.5,6-15.6,16.2-11.9,22.4,1.8,3.5,6.2,5.2,11.1,5.2,4.3.1,9.8-1.5,14.5-4.6,10.5-6,15.6-16.2,11.9-22.4"/>
  <path class="st1" d="M322.5,25.6c1.9-4.8,4.6-7.6,7.8-8.1,0,0,.9,0,1.2-.3,6.8.1,14,9.4,16.5,21.7,1.4,6.7.9,13.3-1,18.1-1.9,4.8-4.6,7.6-7.8,8.1-7.1,1.2-15.4-8.7-17.7-21.4-1.4-6.7-.9-13.3,1-18.1M337.8,70.7c.7.4,1.5,0,2.1-.2,5-.9,9.5-5.1,11.9-11.6,2.2-6.1,2.7-13.6,1.4-21.3-2.9-16.5-13.4-27.7-24-25.7-5.4.7-9.5,5.1-11.9,11.6-2.2,6.1-2.7,13.6-1.4,21.3,2.6,15.3,12,25.9,21.7,26.2"/>
  <path class="st1" d="M370.7,38.7c1.9-12.2,9.2-22,16-21.9,0,0,.7.4,1.3.3,3.2.4,6.2,3.7,7.9,8.2,1.9,5.1,2.3,11.7,1.5,18.1-2.3,12.9-10.3,22.9-17.3,21.6-3.2-.4-6.2-3.7-7.9-8.2-1.9-5.1-2.3-11.7-1.5-18.1M379.2,70.4c.7.4,1.3.3,2.2.4,9.8,0,18.8-10.9,21.7-26.3,1.2-7.7.8-15.3-1.6-21.1-2.5-6.4-7-10.6-11.8-11.5-10.3-1.7-21,9.6-23.6,26.2-1.2,7.7-.8,15.3,1.6,21.1,2.5,6.4,7,10.6,11.8,11.5"/>
  <path class="st0" d="M583.6,60.1l-72.4,73.2c-.7,1.1-1.2,2.8,0,4,5.3,5.1,5.4,14,.2,19.3-2.5,2.5-5.8,3.9-9.8,4-4,0-7.1-1.3-9.6-3.8-3-3.3-4.7-7.7-4-12.2.4-.7.1-1.9-.9-2.5-.7-.4-1.1-.7-1.8-1.1l-.4-.2c-4.4.8-9-.5-12.2-3.4-2.5-2.5-3.9-5.8-4-9.8,0-3.4,1.3-7.1,3.8-9.6,5.1-5.3,14-5.4,19.3-.2,1.1.7,2.8,1.2,4,0l72.4-73.2c.7-1.1,1.2-2.7,0-4-5.3-5.1-5.4-14-.2-19.3,2.5-2.5,5.8-3.9,9.8-4s7.1,1.3,9.6,3.8c3,3.3,4.7,7.7,4,12.2-.4.7-.1,1.9.9,2.5.7.4,1.4.9,2.6.6,4.4-.8,9,.5,12.2,3.4,2.5,2.5,3.9,5.8,4,9.8,0,3.4-1.3,7.1-3.8,9.6-5.1,5.3-14,5.4-19.3.2-1.1-.7-2.8-1.2-4,0M610.4,63.8c3.7-3.7,5.6-8.5,5.6-13.4s-2.1-9.6-5.8-13.3c-3.7-3.7-8.7-5.2-13.4-5.6,0-4.9-1.9-10-5.6-13.7-3.7-3.7-8.5-5.6-13.4-5.6-4.9,0-9.6,2.1-13.3,5.8-6.6,6.9-7.4,17.2-1.5,24.7l-68.7,69.5c-7.5-5.5-18.2-5-24.7,1.9-3.7,3.7-5.6,8.5-5.6,13.4,0,4.9,2.1,9.6,5.8,13.3,3.7,3.7,8.7,5.2,13.4,5.6,0,4.9,1.9,10,5.6,13.7,3.7,3.7,8.7,5.2,13.4,5.6,4.9,0,9.6-2.1,13.3-5.8,6.6-6.9,7.4-17.2,1.5-24.7l68.7-69.5c7.5,5.5,18.2,5,24.7-1.9"/>
  <path class="st0" d="M298.9,687.6c0,5.5,2.1,11.2,6.3,15.4,4.2,4.2,9.6,6.3,15.1,6.3v-1.4,1.4s0,0,0,0v-1.4,1.4s0,0,0,0h0c5.6,0,11-2.4,15.1-6.5h0s0,0,0,0c4-4.2,6.2-9.6,6.1-15.1,0-4.5-1.5-9.1-4.5-12.9l-2,1.5,1.8,1.8,68.7-69.5-1.8-1.8-1.5,2c3.8,2.8,8.4,4.2,12.9,4.2,5.5,0,11-2.1,15.1-6.4l-1.8-1.7,1.8,1.8c4.2-4.2,6.3-9.6,6.3-15.1h0s0,0,0,0c0-5.6-2.4-11-6.5-15.1-2.1-2.1-4.6-3.6-7.2-4.6-2.6-1-5.2-1.5-7.8-1.7l-.2,2.5h2.5c0-5.6-2.1-11.2-6.3-15.4-2.1-2.1-4.6-3.6-7.2-4.6-2.6-1-5.2-1.5-7.8-1.7h0s0,0,0,0c-5.6,0-11,2.4-15.1,6.5h0s0,0,0,0c-4,4.2-6.2,9.6-6.1,15.1,0,4.5,1.5,9.1,4.5,12.9l2-1.5-1.8-1.8-68.7,69.5,1.8,1.8,1.5-2c-3.8-2.8-8.4-4.2-12.9-4.2-5.5,0-11,2.1-15.1,6.4l1.8,1.7-1.8-1.8c-4.2,4.2-6.3,9.6-6.3,15.1h0s0,0,0,0c0,5.6,2.4,11,6.5,15.1,2.1,2.1,4.6,3.6,7.2,4.6,2.6,1,5.2,1.5,7.8,1.7l.4-5c-2.2-.2-4.3-.6-6.4-1.4-2-.8-3.9-1.9-5.4-3.5-3.3-3.3-5.1-7.3-5.1-11.5h0s0,0,0,0h-.1s.1,0,.1,0h0s-.1,0-.1,0h.1c0-4.3,1.6-8.4,4.8-11.6h0s0,0,0,0c3.1-3.3,7.3-4.9,11.5-4.9,3.5,0,7,1.1,10,3.3l1.7,1.3,71.7-72.6-1.4-1.7c-2.3-2.9-3.4-6.4-3.4-9.8,0-4.1,1.6-8.3,4.8-11.6l-1.8-1.7,1.8,1.8c3.3-3.3,7.3-5.1,11.5-5.1v-2.5s-.2,2.5-.2,2.5c2.2.2,4.3.6,6.4,1.4,2,.8,3.9,1.9,5.4,3.5,3.2,3.2,4.8,7.6,4.8,11.9v2.3s2.3.2,2.3.2c2.2.2,4.3.6,6.4,1.4,2,.8,3.9,1.9,5.4,3.5,3.3,3.3,5.1,7.3,5.1,11.5h0s0,0,0,0h.2s-.2,0-.2,0h0s.2,0,.2,0h-.2c0,4.3-1.6,8.4-4.8,11.6h0s0,0,0,0c-3.1,3.3-7.3,4.9-11.5,4.9-3.5,0-7-1.1-10-3.3l-1.7-1.3-71.7,72.6,1.4,1.7c2.3,2.9,3.4,6.4,3.4,9.8,0,4.1-1.6,8.3-4.8,11.6l1.8,1.7-1.8-1.8c-3.3,3.3-7.3,5.1-11.5,5.1v2.5s0-2.5,0-2.5h0c-4.3,0-8.4-1.6-11.6-4.8-3.2-3.2-4.8-7.6-4.8-11.9h-5Z"/>
  <path class="st1" d="M178.6,628.4h.2c4.4,0,8.5,1.8,11.5,4.8,3,3,4.9,7.1,4.9,11.6h0s0,8.9,0,8.9h2.5s-2.1-1.3-2.1-1.3c-.2.4-.3.7-.4.9,0,.3,0,.5,0,.7,0,.4,0,.7.1,1,.1.5.3.9.6,1.4.3.5.7.9,1.3,1.3l1.3-2.1-1.8,1.8,16.7,16.4h0c3.3,3.3,4.9,7.5,4.9,11.8,0,4.1-1.5,8.2-4.7,11.4-3.3,3.3-7.5,4.9-11.8,4.9-4.1,0-8.2-1.5-11.4-4.7l-7.6-7.6-.3-.2c-.7-.4-1.1-.7-1.8-1.1l-.9-.5-1,.3c-.2,0-.3,0-.4,0h0s0,.2,0,.2v-.2s0,0,0,0v.2s0-.2,0-.2v.7s0-.7,0-.7h0s0,.7,0,.7v-.7,1.6l.8-1.4c-.4-.2-.7-.2-.8-.2v1.6l.8-1.4h0c-.5-.3-1.2-.5-1.8-.5-.9,0-1.7.3-2.2.7-.6.4-1,.9-1.3,1.4l2.1,1.3-1.8-1.8-7.4,7.4c-3.3,3.3-7.5,4.9-11.8,4.9-4.1,0-8.2-1.5-11.4-4.7-3.3-3.3-4.9-7.5-4.9-11.8,0-4.1,1.5-8.2,4.7-11.4h0s18.1-18.5,18.1-18.5l.2-.3c.4-.7.7-1.1,1.1-1.8l.4-.6v-8.1s0,0,0,0v-.2c0-4.4,1.8-8.5,4.8-11.5,3-3,7.1-4.9,11.6-4.9v-5c-5.9,0-11.2,2.5-15.1,6.4-3.9,3.9-6.3,9.2-6.3,15,0,.1,0,.2,0,.3h2.5s-2.5,0-2.5,0v7.4s2.5,0,2.5,0l-2.1-1.3c-.4.7-.7,1.1-1.1,1.8l2.1,1.3-1.8-1.7-17.9,18.3,1.8,1.7-1.8-1.8c-4.1,4.1-6.2,9.5-6.1,14.9,0,5.5,2.2,11.1,6.4,15.3,4.1,4.1,9.5,6.2,14.9,6.1,5.5,0,11.1-2.2,15.3-6.4l7.6-7.6.2-.3h0s-.3-.2-.3-.2l.2.3c0,0,.1,0,.1,0l-.3-.2.2.3-.6-1v1.2c.3,0,.5-.1.6-.2l-.6-1v1.2s0-1.4,0-1.4l-.7,1.2c.2.1.5.2.7.2v-1.4l-.7,1.2h0c.7.4,1.3.5,1.8.5.4,0,.7,0,1-.1.3,0,.5-.1.7-.2l-.6-2.4-1.3,2.1c.7.4,1.1.7,1.8,1.1l1.3-2.1-1.8,1.8,7.4,7.4c4.1,4.1,9.5,6.2,14.9,6.1,5.5,0,11.1-2.2,15.3-6.4,4.1-4.1,6.2-9.5,6.1-14.9,0-5.5-2.2-11.1-6.4-15.3h0s-16.9-16.6-16.9-16.6l-.3-.2-.4.6.7-.3s0-.1-.3-.3l-.4.6.7-.3h-.2c0,0,.2,0,.2,0h0s-.2,0-.2,0h.2s-.8.1-.8.1h.8c0-.1,0-.2,0-.2l-.8.2h.8-1.6l1.5.3c0-.2,0-.2,0-.3h-1.6l1.5.3-2-.4,1.7,1c.2-.3.2-.5.2-.6l-2-.4,1.7,1,.4-.6v-9.6c0,0,0,0,0,0,0-5.8-2.5-11.2-6.4-15-3.9-3.9-9.2-6.3-15-6.3-.1,0-.2,0-.3,0v5Z"/>
  <path class="st1" d="M512.1,642.9l.2,5-16.4,16.4h0c-5.3,5.2-7.9,12-7.9,18.8,0,6.9,2.7,13.8,7.9,19.1,5.2,5.3,12,7.9,18.9,7.9,6.9,0,13.8-2.7,19.1-7.9h0s4.6-4.8,4.6-4.8l4.7,4.6,1.7-1.8-1.8,1.7c2.6,2.7,5.7,4.5,9,5.8,3.3,1.2,6.8,1.8,10.1,2,.3,0,.7,0,1,0,3.3,0,6.6-.8,9.7-2.2,3.1-1.4,5.9-3.4,8.4-6h0c5.3-5.2,7.9-12,7.9-18.8,0-6.9-2.7-13.8-7.9-19.1h0s-14.9-15-14.9-15v-6.4s0,0,0,0c-.2-7.3-3.1-13.9-7.8-18.7-4.7-4.8-11.3-7.8-18.6-7.8-.2,0-.4,0-.6,0-7.3.2-13.9,3.1-18.7,7.8-4.8,4.7-7.8,11.3-7.8,18.6,0,.2,0,.4,0,.6h5c0-.3,0-.4,0-.6,0-5.9,2.4-11.2,6.3-15,3.9-3.9,9.3-6.3,15.3-6.4.2,0,.3,0,.5,0,5.9,0,11.2,2.4,15,6.3,3.9,3.9,6.3,9.3,6.4,15.3h2.5c0,0-2.5,0-2.5,0v8.4s16.4,16.5,16.4,16.5h0c4.3,4.4,6.5,10,6.5,15.6,0,5.6-2.1,11.1-6.4,15.3h0c-2.2,2.2-4.5,3.8-7,5-2.5,1.1-5,1.7-7.6,1.7-.3,0-.5,0-.8,0-2.9-.1-5.9-.7-8.6-1.7-2.7-1-5.2-2.5-7.2-4.6h0s-8.3-8.2-8.3-8.2l-8.1,8.3,1.8,1.7-1.8-1.8c-4.4,4.3-10,6.5-15.6,6.5-5.6,0-11.1-2.1-15.3-6.4-4.3-4.4-6.5-10-6.5-15.6,0-5.6,2.1-11.1,6.4-15.3l18-18-.3-7.2-5,.2Z"/>
  <path class="st0" d="M648.5,295.5c-3.7,3.7-5.6,8.5-5.6,13.4,0,4.9,2.1,9.6,5.8,13.3,3.7,3.7,8.7,5.2,13.4,5.6,0,4.9,1.9,10,5.6,13.7,3.7,3.7,8.5,5.6,13.4,5.6,4.9,0,9.6-2.1,13.3-5.8,6.6-6.9,7.4-17.2,1.5-24.7l22.8-23.2.2-7.7-28.5,28.7c-.7,1.1-1.2,2.8,0,4,5.3,5.1,5.4,14,.2,19.3-2.5,2.5-5.8,3.9-9.8,4s-7.1-1.3-9.6-3.8c-3-3.3-4.7-7.7-4-12.2.4-.7.1-1.9-.9-2.5-.7-.4-1.1-.7-1.8-1.1l-.4-.2c-4.4.8-9-.5-12.2-3.4-2.5-2.5-3.9-5.8-4-9.8,0-3.4,1.3-7.1,3.8-9.6,5.1-5.3,14-5.4,19.3-.2,1.1.7,2.8,1.2,4,0l43.7-44.2v-7.4s-45.9,46.3-45.9,46.3c-7.5-5.5-18.2-5-24.7,1.9"/>
</svg>