<?xml version="1.0" encoding="UTF-8"?>
<svg id="Layer_1" xmlns="http://www.w3.org/2000/svg" version="1.1" viewBox="0 0 595.3 356.5">
  <!-- Generator: Adobe Illustrator 29.7.0, SVG Export Plug-In . SVG Version: 2.1.1 Build 138)  -->
  <defs>
    <style>
      .st0 {
        fill: #fff;
      }
    </style>
  </defs>
  <path class="st0" d="M553.6,232.7c-4.2-9.1-11-17-19.6-22.4-1.9-1.2-3.5-3.1-4.1-5.5-1.5-5.2,1.5-10.6,6.7-12.1,9.8-2.8,18.5-8.4,25-16,6.4-7.4,10.8-16.6,12.3-27,2-14.3-1.9-28.2-10-38.9-8.1-10.7-20.2-18.4-34.6-20.5-12.8-1.8-23.3,1.9-32.2,9-9.7,7.7-17.8,19.3-24.8,32.2-5.5,10-12.8,14.5-21.5,16.2-7.1,1.4-14.3.7-22-.2h-1.1l-242.3-34.6h-.2c-7.9-1.3-15.4-2.7-22-6.1-7.8-4.1-13.6-10.5-16.1-21.6-3.1-14.3-7.6-27.7-14.8-37.9-6.5-9.2-15.6-15.8-28.4-17.6-14.3-2-28.2,1.9-38.9,10-10.7,8.1-18.4,20.2-20.5,34.6-1.5,10.4.2,20.5,4.2,29.3,4.2,9.1,11,17,19.6,22.4,1.9,1.2,3.5,3.1,4.1,5.5,1.5,5.2-1.5,10.6-6.7,12.1-9.8,2.8-18.5,8.4-25,16-6.4,7.4-10.8,16.6-12.3,27-2,14.3,1.9,28.2,10,38.9,8.1,10.7,20.2,18.4,34.6,20.5,12.8,1.8,23.3-1.9,32.2-9,9.7-7.7,17.8-19.3,24.8-32.2,5.5-10,12.8-14.5,21.5-16.2,7.1-1.4,14.3-.7,22,.2h1.1l242.3,34.6h.2c7.9,1.3,15.4,2.7,22,6.1,7.8,4.1,13.6,10.5,16.1,21.6,3.2,14.3,7.6,27.7,14.8,37.8,6.5,9.2,15.6,15.8,28.4,17.6,14.3,2,28.2-1.9,38.9-10s18.4-20.2,20.5-34.6c1.5-10.4-.2-20.5-4.2-29.3h0ZM557.8,204.7c5.6,5.8,10.2,12.5,13.6,19.9,5.6,12.2,7.9,26,5.9,40.2-2.8,19.7-13.3,36.4-28.1,47.4-14.7,11.1-33.7,16.5-53.4,13.7-18.8-2.7-32-12.2-41.5-25.6-8.9-12.6-14.3-28.4-18-45-1-4.4-3.2-6.9-6.1-8.5-4-2.1-9.8-3.1-16-4.2h0l-233.9-40.8c-.2,0-8.8,6.2-9,6.2-6-.7-11.6-1.3-16-.4-3.2.6-6,2.4-8.2,6.4-8.2,14.9-17.8,28.6-29.8,38.2-12.9,10.2-28.2,15.7-47,13-19.7-2.8-36.4-13.3-47.4-28.1-11.1-14.7-16.5-33.7-13.7-53.4,2-14.2,8.1-26.9,16.9-37,5.3-6.1,11.6-11.3,18.6-15.3-5.6-5.8-10.2-12.5-13.6-19.9-5.6-12.2-7.9-26-5.9-40.2,2.8-19.7,13.3-36.4,28.1-47.4,14.7-11.1,33.7-16.5,53.4-13.7,18.8,2.7,32,12.2,41.5,25.6,8.9,12.6,14.3,28.4,18,45,1,4.4,3.2,6.9,6.1,8.5,4,2.1,9.8,3.1,16,4.2h0l242.3,34.6h.6c6,.7,11.6,1.3,16,.4,3.2-.6,6-2.4,8.2-6.4,8.2-14.9,17.8-28.6,29.8-38.2,12.9-10.2,28.3-15.7,47-13,19.7,2.8,36.4,13.3,47.4,28.1,11.1,14.7,16.5,33.7,13.7,53.4-2,14.2-8.1,26.9-16.9,37-5.3,6.1-11.6,11.3-18.6,15.3"/>
</svg>