<?xml version="1.0" encoding="UTF-8"?>
<svg xmlns="http://www.w3.org/2000/svg" version="1.1" viewBox="0 0 595.3 356.5">
  <!-- Generator: Adobe Illustrator 29.7.0, SVG Export Plug-In . SVG Version: 2.1.1 Build 138)  -->
  <defs>
    <style>
      .st0 {
        fill: #009fe0;
      }

      .st1 {
        fill: #71d0f6;
      }

      .st2 {
        fill: #f9ed25;
      }

      .st3 {
        display: none;
      }
    </style>
  </defs>
  <g id="Layer_2" class="st3">
    <rect class="st1" x="-29" y="-82" width="707" height="513"/>
  </g>
  <g id="Layer_1">
    <g>
      <path class="st2" d="M181.9,212.1s.2,0,.4.1c.4.1.9.2,1.5.2h1c.6,0,1.3-.2,1.9-.4,1-.3,2-.6,3-1s2-.9,3-1.4,1.8-1.1,2.7-1.7l4.7-3.3-5.6-1.1c-.5-.1-1.1-.2-1.6-.2h-2.7c-1.5.1-2.9.4-4.1.9-1.2.4-2.1.9-2.9,1.6-.6.5-1,1.1-1.3,1.9-.2.4-.4,1.3-.3,2.7,0,1.1.3,1.6.3,1.6h0M179.6,258.9c-5.5,0-10.7-.9-15.5-2.7-5.7-2.2-10.8-5.3-15.2-9.5-4.2-4.1-7.7-8.9-10.2-14.5-2.5-5.5-4-11.5-4.5-17.8-.5-7.1,0-14,1.7-20.4,1.7-6.7,4.5-12.7,8.4-17.9,4-5.3,9.1-9.6,15.2-12.9,5.6-2.9,11.9-4.8,19-5.5h0c.6,0,1.3-.1,1.9-.2,1.3,0,2.7-.1,4-.1s3.6,0,5.4.2c3.3.3,6.5,1,9.6,2.1v-1.7c0-.5,0-.9.4-1.2.3-.3.7-.5,1.2-.5l35.4-.8v-.4c0-.5,0-.9.4-1.2.3-.3.7-.5,1.2-.6,0,0,42.3-1.8,42.4-1.8.9,0,1.6.7,1.7,1.5h7.4c4.5-.2,9.1-.3,13.6-.4,4.1-.1,8.3-.3,12.4-.7l-.3-1.7c0-.5,0-1,.4-1.4.3-.4.8-.6,1.3-.6l9.7-.4c2.4,0,4.7-.2,7-.3s4.7-.3,7-.4c1.8-.1,3.6-.3,5.5-.4.7,0,1.4-.1,2.1-.2,1,0,2-.2,3.1-.3l10.2-1.3h.2c.4,0,.8.2,1.2.5.3.3.5.6.5.9l28.7-3.2c.5-.3,1-.5,1.5-.8,2.2-1.1,4.6-1.7,7.1-2h3.4c1.4,0,2.8,0,4,.2,2.6.3,5,1,7.2,2.1.7.3,1.3.7,1.9,1.1.2-.2.4-.3.6-.5,2-1.4,4.2-2.5,6.6-3.4,2.1-.8,4.5-1.3,6.9-1.5h3.4c4.4,0,8.4.8,11.9,2.5,4,1.8,7.4,4.5,10.2,7.8,1.6,1.9,3,3.9,4.2,6.2,2.1-4.8,5-9,8.8-12.5,3.7-3.5,8-6.3,12.9-8.3,4.3-1.8,8.9-2.9,13.5-3.4.5,0,1,0,1.4-.1,2-.1,4.2-.2,6.3-.2s4.6.1,6.9.4c2.3.2,4.5.6,6.8,1.1,2.4.5,4.7,1.2,6.9,2.1l5.6,2.2c.7.3,1.1.9,1.1,1.6l-.8,32.4c2.4,2.4,4.3,5.3,5.7,8.6,1.5,3.5,2.4,7.3,2.7,11.4.4,6.6-.4,12.6-2.4,17.8-2.1,5.3-5.2,9.8-9.3,13.5-3.9,3.5-8.6,6.2-13.8,8.1-4.3,1.5-8.9,2.5-13.8,3-.7,0-1.3.1-2,.2h-2.2c-1.9,0-4-.2-6.1-.5-2.5-.4-5.1-.9-7.7-1.6-2.5-.6-4.9-1.3-7.3-2.1-1.7-.6-3.3-1.1-4.8-1.7v2.8c0,.9-.7,1.6-1.6,1.7l-46.1,5.3h-.7l-20.5,2.2v.2c0,.9-.7,1.7-1.6,1.8l-38.9,2.6c-.2.5-.7.9-1.3,1l-40.2,5.7h-.2c-.4,0-.8-.2-1.1-.4-.4-.3-.6-.8-.6-1.3v-2.6h-2.2c-3.3,0-6.5-.5-9.5-1.6-3.3-1.1-6.3-2.7-9.1-4.8-2.4-1.7-4.6-3.8-6.5-6.1l1.1,12.5c0,.9-.6,1.7-1.5,1.8l-40.7,4.7c-.3.4-.8.7-1.3.8,0,0-42,2.9-42.1,2.9-.4,0-.8-.2-1.1-.4-.3-.3-.5-.7-.6-1.2v-.7c-.7.3-1.3.6-1.9.9-1.9.8-3.9,1.5-6,2.2s-4.2,1.2-6.3,1.6c-1.7.3-3.3.6-4.9.7-.5,0-.9,0-1.4.1-1.1,0-2.3.1-3.4.1"/>
      <path class="st2" d="M183.2,210.6v-.4c0-1.3,0-1.8.2-1.9.2-.5.5-.9.9-1.2.6-.5,1.4-1,2.3-1.3,1.2-.4,2.4-.7,3.7-.8h2.6c.4,0,.8,0,1.3.2l1.7.4-1.5,1c-.8.5-1.6,1.1-2.5,1.6s-1.8.9-2.8,1.3c-.9.4-1.9.7-2.8.9-.6.2-1.2.3-1.7.3h-1.4M504.5,128.4h0c-2.2,0-4.4,0-6.5.2-.5,0-1,0-1.5.1-4.8.5-9.6,1.7-14,3.5-5.1,2.1-9.6,5-13.4,8.6-3.1,3-5.7,6.4-7.7,10.2-.8-1.3-1.8-2.5-2.7-3.7-3-3.5-6.6-6.3-10.8-8.2-3.8-1.8-8-2.6-12.6-2.6s-1.7,0-2.6,0h-1.1c-2.6.3-5.1.8-7.3,1.6-2.4.9-4.6,2-6.7,3.4-.4-.2-.7-.4-1.1-.6-2.4-1.2-5-1.9-7.8-2.3-1.3-.2-2.8-.2-4.3-.2s-1.9,0-2.9.1h-.7c-2.7.3-5.2,1-7.7,2.1-.4.2-.8.4-1.3.6l-4.5.5-22.6,2.5c-.1-.1-.2-.3-.3-.4-.6-.6-1.5-.9-2.3-.9s-.3,0-.4,0l-10.2,1.3c-1,.1-2,.2-3,.3-.7,0-1.3.1-2,.2-1.9.1-3.7.3-5.5.4-2.3.2-4.7.3-7,.4-2.3.1-4.7.2-7,.3l-9.7.4c-1,0-1.9.5-2.5,1.2s-.9,1.6-.7,2.5c-3.5.3-7,.4-10.5.5-4.6.1-9.2.2-13.6.3h-6.3c-.6-.8-1.6-1.3-2.8-1.3s0,0-.1,0l-8.1.3-25.4,1.1-8.7.4c-.9,0-1.8.4-2.4,1.1-.3.3-.5.7-.7,1.2l-25.2.5-8.7.2c-.9,0-1.8.4-2.4,1.1-.5.5-.8,1.1-.9,1.8-2.5-.7-5.1-1.2-7.8-1.4-1.8-.2-3.7-.2-5.5-.2s-2.8,0-4.1.1c-.7,0-1.3,0-2,.2-7.3.7-13.9,2.6-19.6,5.7-6.3,3.4-11.7,7.8-15.8,13.3-4,5.4-7,11.6-8.7,18.5-1.7,6.6-2.3,13.6-1.8,21,.4,6.5,2,12.7,4.6,18.4s6.2,10.8,10.6,15c4.5,4.3,9.8,7.6,15.7,9.8,5,1.9,10.4,2.8,16.1,2.8s2.4,0,3.5-.1c.5,0,.9,0,1.4-.1,1.6-.2,3.4-.4,5.1-.8,2.2-.4,4.4-1,6.5-1.7s4.1-1.4,6.1-2.2h0c.2.3.4.5.6.8.6.6,1.4.9,2.3.9s.2,0,.2,0l8.8-.6,25-1.7,8.3-.6c.8,0,1.5-.4,2-.9l4-.5,27.8-3.2,8.3-1c1.8-.2,3.2-1.8,3-3.7l-.7-7.6c1.1,1,2.2,1.9,3.4,2.8,2.9,2.2,6.2,3.9,9.6,5.1,3.2,1.1,6.6,1.7,10.1,1.7s.4,0,.5,0v.8c0,1,.3,2,1.1,2.7.6.6,1.4.9,2.3.9s.3,0,.5,0l10.2-1.4,22.7-3.2,7.2-1c.8-.1,1.4-.5,2-1h1.8c0-.1,28.1-2,28.1-2l8.3-.6c1.3,0,2.5-1,2.9-2.1l18.9-2h1l10.1-1.2,28.5-3.3,7.4-.9c1.7-.2,3-1.6,3-3.3v-.5c.8.3,1.7.6,2.6.9,2.4.8,4.9,1.5,7.4,2.1,2.6.7,5.3,1.2,7.8,1.6,2.2.3,4.3.5,6.3.5h2.3c.7,0,1.4-.1,2.1-.2,5-.5,9.8-1.5,14.2-3.1,5.5-1.9,10.4-4.8,14.4-8.4,4.3-3.8,7.6-8.6,9.7-14.1,2.2-5.5,3-11.7,2.6-18.6-.3-4.3-1.2-8.3-2.8-12-1.4-3.2-3.2-6.1-5.5-8.6v-2.9l.7-22.8.2-6c0-1.4-.8-2.7-2.1-3.2l-5.6-2.2c-2.3-.9-4.7-1.6-7.2-2.2-2.3-.5-4.6-.9-6.9-1.1-2.3-.2-4.7-.4-7-.4M183.8,214.1h1.2c.7,0,1.5-.2,2.2-.4,1.1-.3,2.1-.6,3.2-1.1,1.1-.4,2.2-1,3.1-1.5,1-.6,1.9-1.2,2.8-1.8l6.8-4.8v-.9l-8.4-1.7c-.6-.1-1.3-.2-1.8-.2h-3c-1.6.2-3.1.5-4.5,1s-2.5,1.1-3.4,1.9c-.8.7-1.4,1.5-1.8,2.5-.4.9-.5,2.1-.4,3.5,0,1.3.3,2,.5,2.3.2.4.4.6.5.6.2.2.6.3,1.1.5.6.1,1.2.2,1.9.2M504.5,131.8c2.2,0,4.4.1,6.7.3,2.2.2,4.4.6,6.6,1,2.3.5,4.5,1.2,6.7,2l5.5,2.2-.2,6-.6,22.8v4.4c2.3,2.4,4.3,5.3,5.7,8.6s2.3,7,2.5,10.9c.4,6.3-.4,12.1-2.3,17.1-2,5-5,9.4-8.9,12.8-3.7,3.3-8.2,5.9-13.3,7.7-4.2,1.5-8.7,2.4-13.4,2.9-.7,0-1.3.1-2,.2h-2.1c-1.8,0-3.8-.2-5.8-.5-2.5-.4-5-.9-7.5-1.5-2.4-.6-4.9-1.3-7.2-2.1-2.2-.7-4.3-1.5-6.1-2.1l-.9-.3v5.3l-7.5.9-28.5,3.3-10.1,1.2h0c0-.1-22.7,2.3-22.7,2.3v1.8l-8.2.6-28.1,1.9-4,.3v.9l-7.3,1-22.7,3.2-10.2,1.5.2-4.6c-.4,0-.7,0-1.1.1-.5,0-1.1,0-1.6.1h-1.5c-3.1,0-6.1-.5-8.9-1.5-3.1-1.1-6-2.6-8.7-4.6-2.5-1.9-4.9-4.1-6.9-6.6-1-1.3-2-2.6-2.9-3.9l.9,10.1.8,8.3-8.3,1-27.8,3.2-5.9.7v.6l-8.2.6-25,1.7-8.8.6v-3.4c-1.5.7-2.8,1.4-4.3,2-1.9.8-3.8,1.5-5.8,2.1s-4.1,1.2-6.1,1.6c-1.6.3-3.2.6-4.8.7-.4,0-.9,0-1.3.1-1.1,0-2.2.1-3.3.1-5.3,0-10.2-.9-14.9-2.6-5.5-2.1-10.4-5.1-14.6-9.1-4.1-3.9-7.4-8.6-9.9-13.9-2.4-5.3-3.9-11.1-4.3-17.2-.5-7,0-13.7,1.7-19.9,1.6-6.5,4.4-12.3,8.2-17.3,3.8-5.1,8.8-9.3,14.7-12.4,5.4-2.8,11.5-4.6,18.4-5.3h0c.6,0,1.2-.1,1.9-.2,1.3,0,2.6-.1,3.9-.1s3.5,0,5.2.2c3.4.3,6.8,1.1,10,2.3l1.5.6-.2-4.3,8.7-.2,26.6-.6h1.9v-2.3c-.1,0,8.6-.4,8.6-.4l25.4-1.1,8.1-.3.7,8.1v.8c.1-.2.1-.4.2-.5l1.3-6.9h7c4.5-.2,9.1-.3,13.6-.4,4.4-.1,8.8-.4,13.2-.7h1.2c0-.1-.6-3.6-.6-3.6l9.7-.4c2.4,0,4.7-.2,7.1-.3,2.3-.1,4.7-.3,7.1-.4,1.8-.1,3.7-.3,5.5-.4.7,0,1.4-.1,2.1-.2,1,0,2.1-.2,3.1-.4l10.2-1.3v1.6l25.7-2.8,5.2-.6c.5-.3,1.1-.6,1.7-.9,2.1-1,4.3-1.6,6.5-1.8h3.3c1.3,0,2.6,0,3.8.2,2.4.3,4.7.9,6.7,1.9s1.9,1,2.7,1.6c.5-.4,1-.8,1.6-1.2,1.9-1.3,4-2.4,6.2-3.2,2-.7,4.2-1.2,6.5-1.4h3.3c4.1,0,7.9.8,11.2,2.3,3.7,1.7,7,4.2,9.6,7.3,2.3,2.8,4.2,6,5.7,9.5.3-1.2.8-2.4,1.2-3.5,2-4.7,4.8-8.8,8.5-12.2,3.5-3.3,7.7-6,12.4-8,4.2-1.7,8.5-2.8,13-3.3.5,0,.9,0,1.4-.1,2-.1,4.1-.2,6.2-.2h0"/>
      <path class="st0" d="M196.9,169.7l-.4,23.6c-1.1-.2-2.2-.4-3.2-.4h-3.2c-2.6.2-5.1.7-7.5,1.5-2.3.8-4.4,2-6.1,3.5-1.7,1.5-3.1,3.3-4,5.5s-1.3,4.7-1.1,7.5c.1,2.1.6,3.9,1.3,5.4s1.7,2.7,2.9,3.7c1.2.9,2.6,1.6,4.3,2s3.5.5,5.4.4c1.4,0,2.8-.3,4.2-.7s2.8-.9,4.3-1.4c1.4-.6,2.8-1.2,4.1-2,1.3-.7,2.5-1.5,3.6-2.3l.9,26.2c-1.4.8-2.9,1.6-4.5,2.3s-3.3,1.3-5,1.9c-1.7.5-3.5,1-5.2,1.3s-3.4.6-5,.7c-5.3.4-10.1-.3-14.6-2s-8.4-4.1-11.7-7.3-6-7-8-11.3c-2-4.4-3.2-9.1-3.5-14.2-.4-6.1,0-11.8,1.4-17.2s3.6-10.1,6.7-14.2c3.1-4.1,7-7.4,11.9-10,4.8-2.5,10.4-4,16.8-4.5,2.6-.2,5.2-.1,7.8,0,2.7.2,5.2.8,7.7,1.8"/>
    </g>
    <polygon class="st0" points="279.9 238.1 252.1 241.3 250.3 217.8 237.5 218.7 238.4 243.1 213.4 244.8 210.2 166.4 236.8 165.8 237.9 205.9 250.2 205.1 247.5 163.2 272.9 162.1 279.9 238.1"/>
    <g>
      <path class="st0" d="M352.9,156.4c-.8,13.2-1.3,26.3-1.6,39.3-.3,13-.6,26.1-.7,39.3l-22.7,3.2.4-8.6c-.7.9-1.5,1.7-2.4,2.4s-2,1.3-3,1.7c-1.1.5-2.2.8-3.4,1.1-1.2.2-2.3.4-3.4.4-2.5.1-4.9-.2-7.2-1-2.3-.8-4.4-1.9-6.4-3.4s-3.8-3.2-5.4-5.2-3-4.1-4.2-6.4c-1.2-2.3-2.1-4.6-2.8-6.9-.7-2.4-1.1-4.7-1.3-7-.2-3.3-.4-6.8-.5-10.4-.1-3.6-.1-7.2,0-10.8,0-3.6.3-7.2.6-10.8.3-3.6.7-7,1.3-10.3,4.5,0,9.1-.2,13.7-.3s9.1-.4,13.7-.8c-.6,3.3-1.3,6.6-1.9,9.9-.6,3.3-1.1,6.6-1.6,10-.4,3.3-.8,6.7-.9,10-.2,3.3-.2,6.7,0,10.1,0,.8.2,1.9.3,3.3.2,1.4.5,2.9.9,4.2.4,1.4,1,2.6,1.7,3.6s1.7,1.5,2.9,1.4c1.4,0,2.6-.8,3.7-2.1,1-1.3,1.9-3,2.6-5.1s1.3-4.5,1.7-7.2c.4-2.7.8-5.5,1-8.5.2-2.9.4-5.9.4-8.9v-8.4c0-2.6-.1-5-.2-7.1,0-2.1-.2-3.7-.2-4.9s-.1-1.5-.2-2.2c0-.7-.2-1.4-.3-2.2,2.4,0,4.8-.2,7.2-.3,2.4-.1,4.8-.3,7.2-.4,1.9-.1,3.7-.3,5.6-.4,1.9-.1,3.8-.3,5.6-.6"/>
      <path class="st0" d="M459.1,189.9c.4,5.3.6,10.6.6,15.9v16l-28.5,3.3c.4-6.5.7-13,1-19.6s.1-13-.3-19.5c0-.4,0-1.1-.2-2.1-.1-1-.2-2.2-.4-3.5-.2-1.3-.4-2.6-.7-4-.3-1.4-.6-2.6-.9-3.8-.4-1.2-.8-2.1-1.2-2.8-.5-.7-1-1.1-1.5-1-1.3,0-2.3.6-3,1.7s-1.1,2.3-1.4,3.6c-.3,1.4-.4,2.8-.4,4.2s0,2.6.1,3.5c.1,1.6.2,3.1.4,4.7.2,1.6.3,3.1.4,4.8.4,5.8.6,11.5.8,17.2.1,5.7.2,11.5.1,17.3l-26.3,2.8c.4-6.5.7-13,.9-19.5.2-6.5,0-13-.3-19.5,0-.4,0-1.2-.2-2.2-.1-1.1-.3-2.3-.4-3.6-.2-1.3-.4-2.7-.7-4.1-.3-1.4-.6-2.7-1-3.9s-.8-2.2-1.2-2.9c-.5-.8-1-1.1-1.6-1.1-.9,0-1.7.5-2.3,1.2-.6.8-1,1.7-1.3,2.9s-.5,2.5-.6,3.9-.2,2.8-.2,4.1v6.2l1.5,40.7-28.1,1.9c.2-6.3.3-12.6.5-19s.3-12.7.3-19,0-12.7-.1-19-.4-12.7-.8-19l26.4-2.9.3,6.5c.7-1.1,1.6-2.2,2.6-3.3s2-2.2,3.1-3.1c1.1-.9,2.3-1.7,3.6-2.3,1.3-.6,2.6-1,4-1.1,1.8-.1,3.5,0,4.9,0,1.5.2,2.8.6,4,1.2,1.2.6,2.3,1.4,3.3,2.5s1.9,2.5,2.6,4.3c1.1-1.4,2.2-2.7,3.3-3.9,1.1-1.2,2.3-2.2,3.6-3.1,1.3-.9,2.7-1.6,4.2-2.2,1.5-.6,3.2-.9,5.1-1,3.6-.2,6.7.2,9.3,1.5,2.6,1.2,4.9,2.9,6.7,5.1,1.8,2.2,3.3,4.7,4.5,7.6,1.1,2.9,2.1,5.9,2.8,9.1.7,3.2,1.2,6.3,1.6,9.5.3,3.1.6,6,.8,8.7"/>
      <path class="st0" d="M528.9,190.5c.3,5.1-.2,9.5-1.8,13.4-1.5,3.8-3.7,7-6.6,9.6-2.9,2.6-6.4,4.6-10.4,6-4,1.4-8.4,2.3-13.1,2.6-1.8.1-3.8,0-6-.3s-4.4-.8-6.7-1.4c-2.3-.6-4.5-1.2-6.6-1.9s-4-1.4-5.6-2l1-22c3.3,1.7,6.9,2.9,10.8,3.6,3.9.7,7.7,1,11.4.7.7,0,1.6-.1,2.6-.3,1-.1,1.9-.4,2.8-.7s1.6-.8,2.2-1.4c.6-.6.9-1.4.8-2.5,0-.7-.3-1.3-.8-1.8s-1.1-.8-1.8-1.1c-.7-.3-1.5-.5-2.4-.6s-1.8-.2-2.6-.2h-2.4c-.7,0-1.3,0-1.8.1-3.2.2-6.1,0-8.8-.9-2.7-.8-5-2.1-7-3.8s-3.6-3.8-4.8-6.4c-1.2-2.5-1.9-5.4-2.2-8.6-.3-4.4.3-8.4,1.8-12s3.7-6.7,6.5-9.3,6-4.7,9.8-6.3c3.7-1.6,7.6-2.5,11.7-2.8,1.8-.1,3.7-.2,5.6-.2s3.9,0,5.8.3c1.9.2,3.8.5,5.7.9s3.6.9,5.3,1.6l-.6,22.8c-2.6-.7-5.3-1.2-8.1-1.6-2.8-.4-5.5-.5-8.2-.3-.5,0-1.1,0-1.9.2-.8,0-1.6.2-2.4.3s-1.7.3-2.5.6c-.8.2-1.6.5-2.2.9s-1.2.8-1.5,1.4c-.4.5-.5,1.2-.4,1.9,0,.8.4,1.4,1.1,1.8.6.4,1.4.7,2.3.8s1.9.2,3,0c1.1,0,2.2-.2,3.3-.3,1.1-.1,2.1-.3,3-.4.9-.1,1.7-.2,2.3-.2,3,0,5.7.4,8.1,1.3,2.4.9,4.6,2.2,6.3,3.9,1.8,1.7,3.2,3.7,4.2,6.1,1,2.4,1.7,5.1,1.9,8.1"/>
    </g>
  </g>
</svg>