<?xml version="1.0" encoding="UTF-8"?>
<svg id="Layer_1" xmlns="http://www.w3.org/2000/svg" xmlns:xlink="http://www.w3.org/1999/xlink" version="1.1" viewBox="0 0 595.3 356.5">
  <!-- Generator: Adobe Illustrator 29.7.0, SVG Export Plug-In . SVG Version: 2.1.1 Build 138)  -->
  <defs>
    <style>
      .st0 {
        fill: none;
      }

      .st1 {
        fill: #009fe0;
      }

      .st2 {
        clip-path: url(#clippath-11);
      }

      .st3 {
        clip-path: url(#clippath-10);
      }

      .st4 {
        clip-path: url(#clippath-12);
      }

      .st5 {
        clip-path: url(#clippath-1);
      }

      .st6 {
        clip-path: url(#clippath-3);
      }

      .st7 {
        clip-path: url(#clippath-4);
      }

      .st8 {
        clip-path: url(#clippath-2);
      }

      .st9 {
        clip-path: url(#clippath-7);
      }

      .st10 {
        clip-path: url(#clippath-6);
      }

      .st11 {
        clip-path: url(#clippath-9);
      }

      .st12 {
        clip-path: url(#clippath-8);
      }

      .st13 {
        clip-path: url(#clippath-5);
      }

      .st14 {
        fill: #fff;
      }

      .st15 {
        fill: #f9ed25;
      }

      .st16 {
        clip-path: url(#clippath);
      }

      .st17 {
        fill: #fff200;
      }
    </style>
    <clipPath id="clippath">
      <rect class="st0" x=".2" y="1.1" width="593.8" height="356"/>
    </clipPath>
    <clipPath id="clippath-1">
      <rect class="st0" x=".2" y="1.1" width="593.8" height="356"/>
    </clipPath>
    <clipPath id="clippath-2">
      <rect class="st0" x=".2" y="1.1" width="593.8" height="356"/>
    </clipPath>
    <clipPath id="clippath-3">
      <rect class="st0" x=".2" y="1.1" width="593.8" height="356"/>
    </clipPath>
    <clipPath id="clippath-4">
      <rect class="st0" x=".2" y="1.1" width="593.8" height="356"/>
    </clipPath>
    <clipPath id="clippath-5">
      <rect class="st0" x=".2" y="1.1" width="593.8" height="356"/>
    </clipPath>
    <clipPath id="clippath-6">
      <rect class="st0" x=".2" y="1.1" width="593.8" height="356"/>
    </clipPath>
    <clipPath id="clippath-7">
      <rect class="st0" x=".2" y="1.1" width="593.8" height="356"/>
    </clipPath>
    <clipPath id="clippath-8">
      <rect class="st0" x=".2" y="1.1" width="593.8" height="356"/>
    </clipPath>
    <clipPath id="clippath-9">
      <rect class="st0" x=".2" y="1.1" width="593.8" height="356"/>
    </clipPath>
    <clipPath id="clippath-10">
      <rect class="st0" x=".2" y="1.1" width="593.8" height="356"/>
    </clipPath>
    <clipPath id="clippath-11">
      <rect class="st0" x=".2" y="1.1" width="593.8" height="356"/>
    </clipPath>
    <clipPath id="clippath-12">
      <rect class="st0" x=".2" y="1.1" width="593.8" height="356"/>
    </clipPath>
  </defs>
  <g class="st16">
    <path class="st14" d="M553.6,232.7c-4.2-9.1-11-17-19.6-22.4-1.9-1.2-3.5-3.1-4.1-5.5-1.5-5.2,1.5-10.6,6.7-12.1,9.8-2.8,18.5-8.4,25-16,6.4-7.4,10.8-16.6,12.3-27,2-14.3-1.9-28.2-10-38.9-8.1-10.7-20.2-18.4-34.6-20.5-12.8-1.8-23.3,1.9-32.2,9-9.7,7.7-17.8,19.3-24.8,32.2-5.5,10-12.8,14.5-21.5,16.2-7.1,1.4-14.3.7-22-.2-.4,0-.7,0-1.1,0l-242.3-34.6h0s-.2,0-.2,0c-7.9-1.3-15.4-2.7-22-6.1-7.8-4.1-13.6-10.5-16.1-21.6-3.1-14.3-7.6-27.7-14.8-37.9-6.5-9.2-15.6-15.8-28.4-17.6-14.3-2-28.2,1.9-38.9,10-10.7,8.1-18.4,20.2-20.5,34.6-1.5,10.4.2,20.5,4.2,29.3,4.2,9.1,11,17,19.6,22.4,1.9,1.2,3.5,3.1,4.1,5.5,1.5,5.2-1.5,10.6-6.7,12.1-9.8,2.8-18.5,8.4-25,16-6.4,7.4-10.8,16.6-12.3,27-2,14.3,1.9,28.2,10,38.9s20.2,18.4,34.6,20.5c12.8,1.8,23.3-1.9,32.2-9,9.7-7.7,17.8-19.3,24.8-32.2,5.5-10,12.8-14.5,21.5-16.2,7.1-1.4,14.3-.7,22,.2.4,0,.7,0,1.1,0l242.3,34.6h0s.2,0,.2,0c7.9,1.3,15.4,2.7,22,6.1,7.8,4.1,13.6,10.5,16.1,21.6,3.2,14.3,7.6,27.7,14.8,37.8,6.5,9.2,15.6,15.8,28.4,17.6,14.3,2,28.2-1.9,38.9-10,10.7-8.1,18.4-20.2,20.5-34.6,1.5-10.4-.2-20.5-4.2-29.3ZM557.8,204.7c5.6,5.8,10.2,12.5,13.6,19.9,5.6,12.2,7.9,26,5.9,40.2-2.8,19.7-13.3,36.4-28.1,47.4-14.7,11.1-33.7,16.5-53.4,13.7-18.8-2.7-32-12.2-41.5-25.6-8.9-12.6-14.3-28.4-18-45-1-4.4-3.2-6.9-6.1-8.5-4-2.1-9.8-3.1-16-4.2h0s-233.9-40.8-233.9-40.8c-.2,0-8.8,6.2-9,6.2-6-.7-11.6-1.3-16-.4-3.2.6-6,2.4-8.2,6.4-8.2,14.9-17.8,28.6-29.8,38.2-12.9,10.2-28.2,15.7-47,13-19.7-2.8-36.4-13.3-47.4-28.1-11.1-14.7-16.5-33.7-13.7-53.4,2-14.2,8.1-26.9,16.9-37,5.3-6.1,11.6-11.3,18.6-15.3-5.6-5.8-10.2-12.5-13.6-19.9-5.6-12.2-7.9-26-5.9-40.2,2.8-19.7,13.3-36.4,28.1-47.4,14.7-11.1,33.7-16.5,53.4-13.7,18.8,2.7,32,12.2,41.5,25.6,8.9,12.6,14.3,28.4,18,45,1,4.4,3.2,6.9,6.1,8.5,4,2.1,9.8,3.1,16,4.2h0s242.3,34.6,242.3,34.6c.2,0,.4,0,.6,0,6,.7,11.6,1.3,16,.4,3.2-.6,6-2.4,8.2-6.4,8.2-14.9,17.8-28.6,29.8-38.2,12.9-10.2,28.3-15.7,47-13,19.7,2.8,36.4,13.3,47.4,28.1,11.1,14.7,16.5,33.7,13.7,53.4-2,14.2-8.1,26.9-16.9,37-5.3,6.1-11.6,11.3-18.6,15.3"/>
  </g>
  <polygon class="st15" points="207.6 266.8 216 266.2 216.1 267.5 212.6 267.7 213.3 276.6 211.8 276.7 211.1 267.8 207.7 268.1 207.6 266.8"/>
  <polygon class="st15" points="225.2 265.5 226.7 265.4 227.4 275.5 226 275.6 225.7 271.2 220 271.6 220.3 276 218.9 276.1 218.1 266 219.6 265.9 219.9 270.3 225.6 269.8 225.2 265.5"/>
  <polygon class="st15" points="229.6 265.1 235.4 264.7 235.5 266 231.2 266.3 231.4 269.4 235.6 269.1 235.7 270.4 231.5 270.7 231.8 273.8 236.2 273.5 236.3 274.8 230.4 275.2 229.6 265.1"/>
  <g class="st5">
    <path class="st15" d="M246,265.2h-1.8c0,.1.6,7.6.6,7.6h1.8c.7-.2,1.3-.3,1.7-.4.4-.1.7-.3,1-.5.3-.2.5-.4.7-.6.7-.8.9-1.7.9-2.8,0-1.1-.5-1.9-1.3-2.6-.3-.2-.6-.4-1-.6-.4-.1-.7-.2-1-.2-.3,0-.8,0-1.5,0M243.4,274.2l-.8-10.1,3.4-.3c1.4-.1,2.5,0,3.3.4.8.3,1.5.9,2,1.7.5.8.8,1.6.9,2.6,0,.7,0,1.3-.2,2-.2.6-.5,1.2-1,1.7-.5.5-1,.9-1.6,1.2-.4.2-.7.3-1,.4-.3,0-.9.1-1.8.2l-3.2.2Z"/>
    <path class="st15" d="M259.6,264.1c-1.2,0-2.1.5-2.8,1.3-.7.8-1,1.7-.9,2.9,0,1.1.5,2,1.3,2.6.8.7,1.8,1,2.9.9,1.1,0,2-.5,2.7-1.3.7-.8,1-1.7.9-2.8,0-1.1-.5-1.9-1.3-2.6-.8-.7-1.8-1-2.9-.9M259.4,262.7c1.6-.1,2.9.3,4,1.2,1.1.9,1.7,2.1,1.8,3.6.1,1.5-.3,2.8-1.3,3.8-1,1.1-2.3,1.6-3.8,1.8-1.5.1-2.8-.3-3.9-1.2-1.1-.9-1.7-2.1-1.8-3.6-.1-1.5.3-2.8,1.2-3.9.9-1.1,2.2-1.7,3.8-1.8"/>
    <path class="st15" d="M273.2,266.9l3.4-.3.3,4.3c-1.2.6-2.4,1-3.6,1.1-1.7.1-3-.3-4.1-1.2s-1.7-2.1-1.8-3.5c-.1-1.5.3-2.8,1.3-3.9,1-1.1,2.2-1.7,3.8-1.8.6,0,1.1,0,1.6,0s1.2.3,2,.5v1.5c-1.1-.6-2.4-.9-3.6-.8-1.1,0-2,.5-2.7,1.3-.7.8-1,1.8-.9,2.9,0,1.1.5,2.1,1.3,2.7.8.7,1.8,1,3,.9.6,0,1.3-.2,2-.6h.1c0,0-.2-2.2-.2-2.2h-1.9c0,.1,0-1.1,0-1.1Z"/>
    <path class="st15" d="M287.2,266.3h-1.3c0,.1.2,3.3.2,3.3h1.4c.8-.2,1.3-.3,1.6-.4.3-.1.5-.4.6-.6.2-.3.2-.6.2-.9,0-.3-.1-.6-.3-.8s-.5-.4-.8-.5c-.3,0-.9-.1-1.6,0M286.7,262h-1.2c0,0,.2,3.1.2,3.1h1c.8-.1,1.3-.3,1.6-.6.3-.3.4-.7.4-1.2,0-1-.7-1.4-2-1.3M288.1,270.8l-3.4.3-.8-10.1,2.6-.2c.8,0,1.5,0,2,.2.5.2.9.5,1.1.8.3.4.4.8.5,1.3,0,1-.4,1.7-1.4,2.3.7,0,1.4.3,1.8.8.5.4.7,1,.8,1.6,0,.5,0,1-.3,1.4-.2.4-.6.8-1.1,1.1-.5.3-1.1.5-1.9.5"/>
  </g>
  <rect class="st15" x="293.4" y="260.2" width="1.4" height="10.1" transform="translate(-19.5 23.4) rotate(-4.4)"/>
  <polygon class="st15" points="305.5 259.3 306.8 259.2 307.6 269.3 306.4 269.4 299 262.1 299.6 269.9 298.3 270 297.5 259.9 298.7 259.8 306.1 267.1 305.5 259.3"/>
  <g class="st8">
    <path class="st15" d="M315.6,263.7l3.4-.3.3,4.3c-1.2.6-2.4,1-3.6,1.1-1.7.1-3-.3-4.1-1.2-1.1-.9-1.7-2.1-1.8-3.5-.1-1.5.3-2.8,1.3-3.9,1-1.1,2.2-1.7,3.8-1.8.6,0,1.1,0,1.6,0,.5,0,1.2.3,2,.5v1.5c-1.1-.6-2.4-.9-3.6-.8-1.1,0-2,.5-2.7,1.3-.7.8-1,1.8-.9,2.9,0,1.1.5,2.1,1.4,2.7s1.8,1,3,.9c.6,0,1.3-.2,2-.6h.1c0,0-.2-2.2-.2-2.2h-1.9c0,.1,0-1.1,0-1.1Z"/>
    <path class="st15" d="M326.5,258.9c-1.2,0-2.1.5-2.8,1.3-.7.8-1,1.7-.9,2.9,0,1.1.5,2,1.3,2.6.8.7,1.8,1,2.9.9,1.1,0,2-.5,2.7-1.3.7-.8,1-1.7.9-2.8,0-1.1-.5-1.9-1.3-2.6-.8-.7-1.8-1-2.9-.9M326.4,257.5c1.6-.1,2.9.3,4,1.2,1.1.9,1.7,2.1,1.8,3.6.1,1.5-.3,2.8-1.3,3.8-1,1.1-2.3,1.6-3.8,1.8-1.5.1-2.8-.3-3.9-1.2-1.1-.9-1.7-2.1-1.8-3.6-.1-1.5.3-2.8,1.2-3.9.9-1.1,2.2-1.7,3.8-1.8"/>
    <path class="st15" d="M345.1,261.4l3.4-.3.3,4.3c-1.2.6-2.4,1-3.6,1.1-1.7.1-3-.3-4.1-1.2-1.1-.9-1.7-2.1-1.8-3.5-.1-1.5.3-2.8,1.3-3.9,1-1.1,2.2-1.7,3.8-1.8.6,0,1.1,0,1.6,0,.5,0,1.2.3,2,.5v1.5c-1.1-.6-2.4-.9-3.6-.8-1.1,0-2,.5-2.7,1.3-.7.8-1,1.8-.9,2.8,0,1.1.5,2,1.4,2.7.8.7,1.8,1,3,.9.6,0,1.3-.2,2-.6h.1c0,0-.2-2.2-.2-2.2h-1.9c0,.1,0-1.1,0-1.1Z"/>
  </g>
  <path class="st15" d="M356.7,261.2l-1.9-3.5-1.2,3.8,3.1-.2ZM354.1,255.5h1c0,0,5.3,9.7,5.3,9.7h-1.5c0,.1-1.6-2.8-1.6-2.8l-4.3.3-1,3.1h-1.5c0,.1,3.6-10.4,3.6-10.4Z"/>
  <polygon class="st15" points="369.6 254.4 370.9 254.3 371.7 264.4 370.2 264.5 369.6 256.6 366.8 260.7 366.6 260.8 363.1 257.1 363.7 265 362.3 265.1 361.5 255 362.9 254.9 366.5 258.8 369.6 254.4"/>
  <polygon class="st15" points="373.8 254 379.5 253.6 379.6 254.9 375.4 255.2 375.6 258.3 379.7 258 379.8 259.3 375.7 259.6 375.9 262.7 380.4 262.4 380.5 263.7 374.6 264.1 373.8 254"/>
  <g class="st6">
    <path class="st15" d="M38.5,199c-.8,0-1.5-.6-1.7-1.4l-1.2-6.4c-1-5.6-2-11-3-16.2-1-5.4-2-10.9-2.9-16.4-.5-2.8-1-5.7-1.5-8.5-.6-3-1.1-6.1-1.5-9.2l-.6-4.6c0-.7.3-1.4.9-1.7l4.1-2.1c3.2-1.6,6.5-3,9.8-4.2,3.3-1.1,6.8-2.1,10.4-2.7,1.6-.3,3.2-.5,4.8-.6.7,0,1.4,0,2.1,0,.3,0,.5,0,.8,0,2.2,0,4.3.2,6.4.6,2.4.4,4.7,1.1,6.8,2.1,2.4,1,4.5,2.4,6.4,4,1.2-2.2,2.6-4.3,4.2-6.2,2-2.3,4.4-4.2,7.1-5.8,2.8-1.6,5.9-2.7,9.3-3.3,1.1-.2,2.2-.3,3.3-.4.6,0,1.3,0,1.9,0,1.2,0,2.3,0,3.4.2,2.7.4,5.3,1.2,7.6,2.3.3.1.6.3.9.5,0-.5.4-1,.9-1.2l4.1-2.2c2.9-1.5,5.9-2.8,9.1-3.8,3-1,6.1-1.7,9.1-2.3,1.6-.3,3.2-.5,4.7-.6.9,0,1.8,0,2.7,0,1.6,0,3.3.1,4.9.3,2.9.4,5.5,1.2,8.1,2.3l-.6-2.7c-.2-.9.4-1.8,1.3-2l31.9-7.7c.1,0,.3,0,.4,0,.3,0,.7.1,1,.3.4.3.7.7.7,1.2l.6,4.5c1-1.2,2-2.3,3.2-3.4,2.3-2.2,5-4,8-5.5,3-1.5,6.2-2.6,9.6-3.2,1.2-.2,2.5-.4,3.9-.6.6,0,1.2-.1,1.8-.2.9,0,1.7,0,2.6-.1h.3c1.5,0,2.9,0,4.4.3,1.7.2,3.4.6,4.9,1.2h.1c0,0,3-1.7,3-1.7,1.8-1.1,3.6-2,5.4-2.9,1.8-.8,3.6-1.5,5.5-2.2,1.8-.6,3.7-1.1,5.5-1.6,1.8-.4,3.6-.8,5.5-1.2,1.4-.3,2.8-.4,4.1-.5.8,0,1.7,0,2.5,0,1.2,0,2.5,0,3.7.2,3.6.4,7.1,1.4,10.2,3,1.9,1,3.6,2.2,5.2,3.6,1.1-2,2.4-3.9,3.9-5.7,2-2.3,4.4-4.2,7.1-5.8,2.8-1.6,5.9-2.7,9.3-3.3,1.1-.2,2.2-.3,3.3-.4.6,0,1.3,0,1.9,0,1.2,0,2.3,0,3.4.2,2.7.4,5.3,1.2,7.6,2.3,2.3,1.2,4.4,2.7,6.3,4.5.3.3.7.7,1,1,1.2-2.3,2.6-4.5,4.3-6.4,2-2.3,4.4-4.2,7.1-5.8,2.8-1.6,5.9-2.7,9.3-3.3,1.1-.2,2.2-.3,3.3-.4.6,0,1.3,0,1.9,0,1.2,0,2.3,0,3.4.2,2.7.4,5.3,1.2,7.6,2.3,2.3,1.2,4.4,2.7,6.3,4.5,1.8,1.7,3.3,3.7,4.6,5.8,1.2,2,2.3,4.2,3.2,6.6.8,2.2,1.5,4.6,1.9,7,.4,2.4.7,4.9.8,7.4l.2,5.3c0,.8-.5,1.5-1.3,1.7l-2.3.6,1.2,15.5c0,.5-.1.9-.4,1.3l-1.9,2.1c-1.2,1.3-2.6,2.5-4,3.6-1.4,1-2.8,1.8-4.4,2.5-1.5.7-3,1.3-4.5,1.7-1.5.5-2.9.8-4.4,1.1-1.2.2-2.4.4-3.6.5-.7,0-1.4,0-2,0h0c-1.2,0-2.4,0-3.6-.2-2.9-.4-5.7-1.2-8.2-2.4-2.5-1.2-4.8-2.8-6.9-4.6-.2-.2-.5-.5-.7-.7l.2,3.1c0,.5-.1.9-.4,1.3l-1.9,2.1c-1.2,1.3-2.6,2.5-4,3.6-1.4,1-2.8,1.8-4.4,2.5-1.5.7-2.9,1.3-4.5,1.7-1.5.5-2.9.8-4.4,1.1-1.2.2-2.4.4-3.6.5-.7,0-1.4,0-2,0-1.2,0-2.4,0-3.6-.2-2.8-.4-5.5-1.2-7.9-2.3l-26.7,10.6c-.2,0-.4.1-.6.1-.6,0-1.2-.3-1.5-.8h0s-26.6,4.9-26.6,4.9c-.1,0-.2,0-.3,0-.3,0-.7-.1-1-.3-.4-.3-.6-.7-.7-1.1v-.6c-1.1.7-2.1,1.4-3.1,2-2.2,1.3-4.4,2.4-6.8,3.2-2.3.9-4.6,1.5-6.9,1.9-1.4.3-2.8.4-4.1.5-.8,0-1.6,0-2.4,0-2.2,0-4.3-.2-6.4-.6-3.6-.7-7-2-10-3.9l.6,4.3c.1.9-.4,1.7-1.3,1.9l-27,6.5c-.1,0-.3,0-.4,0-.3,0-.6,0-.9-.3-.4-.2-.7-.6-.8-1.1l-1.9-8.7c-.9,1.1-1.8,2.2-2.8,3.2-2.3,2.3-5,4.3-7.9,6-2.8,1.6-5.9,3-9.1,4.2-3.1,1.1-6.4,1.9-9.8,2.6-1.3.2-2.5.4-3.7.6-1.2.2-2.5.3-3.7.4l-6,.5s0,0-.1,0c-.3,0-.6,0-.9-.2-.8.7-1.7,1.4-2.6,2.1-1.4,1-2.8,1.8-4.4,2.5-1.4.7-2.9,1.3-4.5,1.7-1.5.5-2.9.8-4.4,1.1-1.2.2-2.4.4-3.6.5-.7,0-1.4,0-2,0-1.2,0-2.4,0-3.6-.2-2.9-.4-5.7-1.2-8.2-2.4-2.5-1.2-4.8-2.8-6.9-4.6-2-1.8-3.7-3.8-5.2-6.1-.7-1.1-1.4-2.2-2-3.4-.3.2-.5.5-.8.7-1.9,1.6-4,3-6.2,4.2-1.8.9-3.7,1.8-5.6,2.5l2.9,15.6c.2.9-.4,1.8-1.4,2l-29.3,5.4c-.1,0-.2,0-.3,0"/>
    <path class="st15" d="M354.4,64.9c-.7,0-1.3,0-2,0-1.1,0-2.3.2-3.5.4-3.6.7-6.9,1.9-9.9,3.5-2.9,1.7-5.4,3.7-7.6,6.2-1.3,1.5-2.4,3-3.5,4.7-1.9-1.7-3.9-3.1-6.1-4.2-2.5-1.3-5.3-2.1-8.2-2.5-1.2-.2-2.4-.2-3.6-.2s-1.3,0-2,0c-1.1,0-2.3.2-3.5.4-3.6.7-6.9,1.9-9.8,3.5-2.9,1.7-5.4,3.7-7.6,6.1-1.2,1.3-2.2,2.7-3.1,4.2-1.3-1-2.6-1.8-4-2.5-3.3-1.7-6.9-2.7-10.8-3.1-1.3-.1-2.6-.2-3.9-.2s-1.8,0-2.7,0c-1.4,0-2.9.3-4.3.6-1.9.3-3.8.7-5.6,1.2-1.9.5-3.9,1-5.7,1.6-1.9.6-3.8,1.4-5.7,2.2-1.9.8-3.7,1.8-5.6,2.9l-2.3,1.4c-1.5-.5-3-.8-4.6-1-1.5-.2-3-.3-4.6-.3h-.3c-.9,0-1.8,0-2.7.1-.6,0-1.2,0-1.8.2-1.4.2-2.7.3-4,.6-3.6.7-7,1.8-10.1,3.4-3.1,1.6-5.9,3.5-8.4,5.8-.3.3-.5.5-.8.8v-.9c-.2-1-.8-1.8-1.6-2.4-.6-.4-1.2-.6-1.9-.6s-.5,0-.8,0l-7,1.7-18.7,4.5-6.2,1.5c-1.7.4-2.8,2-2.6,3.7-1.8-.6-3.6-1-5.5-1.3-1.7-.2-3.4-.3-5.1-.3s-1.9,0-2.8,0c-1.6.1-3.2.3-4.9.6-3.1.6-6.2,1.4-9.3,2.3-3.3,1-6.4,2.4-9.4,4l-4.1,2.2c-.3.1-.5.3-.7.5-2.4-1.1-4.9-1.9-7.6-2.3-1.2-.2-2.4-.2-3.6-.2s-1.3,0-2,0c-1.1,0-2.3.2-3.5.4-3.6.7-6.9,1.9-9.9,3.5-2.9,1.7-5.4,3.7-7.6,6.2-1.3,1.5-2.5,3.1-3.5,4.8-1.6-1.2-3.4-2.2-5.2-3-2.3-1-4.7-1.7-7.2-2.2-2.2-.4-4.4-.6-6.7-.6s-.6,0-.8,0c-.7,0-1.5,0-2.2.1-1.7.1-3.3.3-5,.6-3.7.7-7.3,1.6-10.7,2.8-3.4,1.2-6.7,2.6-10,4.3l-4.1,2.1c-1.3.7-2,2.1-1.8,3.5l.6,4.6c.4,3.1.9,6.3,1.5,9.3.5,2.8,1.1,5.6,1.5,8.4,1,5.5,1.9,11,2.9,16.4.9,5.2,1.9,10.7,3,16.2l1.2,6.4c.2.9.7,1.7,1.4,2.2.6.4,1.2.6,1.9.6s.4,0,.6,0l6.4-1.2,16.5-3.1,6.4-1.2c1.8-.3,3.1-2.1,2.7-4l-1.2-6.4-1.4-7.8c1.5-.6,3-1.3,4.5-2.1,2-1.1,4-2.3,5.7-3.8.3.6.7,1.1,1,1.7,1.6,2.4,3.4,4.5,5.5,6.4,2.2,2,4.6,3.6,7.3,4.9,2.7,1.3,5.6,2.2,8.7,2.6,1.2.2,2.5.3,3.8.3s1.4,0,2.2,0c1.2,0,2.5-.2,3.8-.5,1.5-.3,3.1-.7,4.6-1.1,1.6-.5,3.2-1.1,4.7-1.8,1.6-.8,3.2-1.7,4.6-2.7.7-.5,1.4-1,2-1.6.1,0,.3,0,.4,0s.2,0,.3,0l6-.5c1.3,0,2.6-.2,3.8-.4,1.3-.2,2.5-.4,3.8-.6,3.4-.6,6.8-1.5,10-2.6,3.4-1.2,6.5-2.6,9.4-4.3,3-1.8,5.8-3.9,8.2-6.3.2-.2.5-.5.7-.7l1.2,5.4c.2.9.7,1.7,1.5,2.2.5.3,1.2.5,1.8.5s.5,0,.8,0l6.5-1.5,14.8-3.6,5.7-1.4c1.7-.4,2.8-2,2.6-3.8v-1c2.2,1.1,4.8,1.9,7.4,2.5,2.2.4,4.4.7,6.7.7s1.7,0,2.5,0c1.4,0,2.9-.3,4.3-.6,2.3-.4,4.7-1.1,7.2-2,2.4-.9,4.8-2,7.1-3.4.4-.3.9-.5,1.3-.8.2.2.4.4.6.5.6.4,1.3.6,2,.6s.4,0,.6,0l6.5-1.2,15.3-2.8,3.8-.7c.6.5,1.3.7,2.1.7s.8,0,1.2-.2l5.2-2,15.4-6.1,5.5-2.2c2.4,1.1,5,1.8,7.7,2.1,1.2.2,2.5.3,3.8.3s1.4,0,2.2,0c1.2,0,2.5-.3,3.8-.5,1.5-.3,3.1-.7,4.6-1.1,1.6-.5,3.2-1.1,4.7-1.8,1.6-.8,3.2-1.7,4.6-2.7,1.6-1.1,3-2.4,4.3-3.8l1.9-2.1c.4-.5.7-1,.8-1.7,1.6,1.2,3.2,2.2,5,3,2.7,1.3,5.6,2.2,8.7,2.6,1.2.2,2.5.3,3.8.3s1.4,0,2.2,0c1.2,0,2.5-.2,3.8-.5,1.5-.3,3.1-.7,4.6-1.1,1.6-.5,3.1-1.1,4.7-1.8,1.6-.8,3.2-1.7,4.6-2.7,1.6-1.1,3-2.4,4.3-3.8l1.9-2.1c.6-.7.9-1.6.9-2.5l-.2-2.8-.9-11.3.9-.2c1.6-.4,2.6-1.8,2.6-3.5l-.2-5.3c-.1-2.6-.4-5.1-.9-7.6-.5-2.5-1.1-4.9-2-7.3-.9-2.4-2-4.7-3.3-6.9-1.4-2.3-3-4.3-4.9-6.1-2-1.9-4.2-3.5-6.7-4.8-2.5-1.3-5.3-2.1-8.2-2.5-1.2-.2-2.4-.2-3.6-.2M354.4,68.3c1.1,0,2.1,0,3.2.2,2.5.4,4.9,1.1,7.1,2.2,2.1,1.1,4.1,2.5,5.9,4.2,1.6,1.6,3.1,3.4,4.4,5.5,1.2,1.9,2.2,4,3,6.3.8,2.2,1.4,4.4,1.8,6.7.4,2.3.7,4.7.8,7.1l.2,5.3-3.6.9,1.1,14.1.2,2.8-1.9,2.1c-1.1,1.2-2.4,2.4-3.8,3.3-1.3.9-2.7,1.7-4.1,2.4-1.4.7-2.8,1.2-4.2,1.7-1.4.4-2.8.8-4.2,1-1.1.2-2.3.4-3.4.4-.6,0-1.3,0-1.9,0-1.1,0-2.3,0-3.4-.2-2.7-.4-5.3-1.1-7.7-2.3-2.4-1.1-4.5-2.6-6.5-4.4-1.5-1.3-2.8-2.8-4-4.4l.4,5.4.2,2.8-1.9,2.1c-1.1,1.2-2.4,2.4-3.7,3.3-1.3.9-2.7,1.7-4.1,2.4-1.4.7-2.8,1.2-4.2,1.7-1.4.4-2.8.8-4.2,1-1.1.2-2.3.4-3.4.4-.6,0-1.3,0-1.9,0-1.1,0-2.3,0-3.4-.2-2.7-.4-5.3-1.1-7.7-2.3-.1,0-.3-.1-.4-.2l-6.9,2.7-15.4,6.1-5.2,2-.6-1.1-5.9,1.1-15.3,2.8-6.5,1.2-.6-3.5c-1.6,1.4-3.2,2.6-5.1,3.7-2.1,1.2-4.3,2.3-6.5,3.1-2.2.8-4.5,1.5-6.6,1.9-1.3.2-2.7.4-3.9.5-.8,0-1.5,0-2.3,0-2.1,0-4.1-.2-6-.6-3.9-.8-7.6-2.3-10.7-4.5-.6-.4-1.2-.9-1.8-1.4l.3,2.3.8,5.8-5.7,1.4-14.8,3.6-6.5,1.5-1.4-6.5-1.3-6.1c-1.3,2.3-2.9,4.4-4.8,6.2-2.2,2.2-4.8,4.1-7.5,5.7-2.7,1.6-5.7,2.9-8.8,4-3,1.1-6.3,1.9-9.5,2.5-1.2.2-2.4.4-3.6.6-1.2.1-2.4.3-3.6.4l-6,.5-.3-1.6-.4.4c-1.1,1.2-2.4,2.4-3.8,3.3-1.3.9-2.7,1.7-4.1,2.4-1.4.7-2.8,1.2-4.2,1.7-1.4.4-2.8.8-4.2,1-1.1.2-2.3.4-3.4.4-.6,0-1.3,0-1.9,0-1.1,0-2.3,0-3.4-.2-2.7-.4-5.3-1.1-7.7-2.3-2.3-1.1-4.5-2.6-6.5-4.4-1.9-1.7-3.5-3.6-4.9-5.8-1.1-1.7-2.1-3.5-2.9-5.4-.7.8-1.5,1.6-2.4,2.3-1.8,1.5-3.8,2.9-5.9,4-2,1.1-4.2,2-6.5,2.8h-.3c0,0,2,10.7,2,10.7l1.2,6.4-6.4,1.2-16.5,3.1-6.4,1.2-1.2-6.4c-1-5.6-2-11-3-16.2-1-5.4-2-10.9-2.9-16.4-.5-2.8-1-5.7-1.5-8.5-.6-3-1.1-6.1-1.5-9.1l-.6-4.6,4.1-2.1c3.1-1.6,6.3-3,9.6-4.1,3.2-1.1,6.7-2,10.2-2.7,1.5-.3,3-.5,4.6-.6.7,0,1.3,0,2,0,.3,0,.5,0,.8,0,2.1,0,4.1.2,6.1.5,2.3.4,4.4,1.1,6.5,2,2.2,1,4.3,2.2,6.1,3.8.5.5,1.1,1,1.6,1.5.2-.4.3-.7.5-1.1,1.2-2.5,2.7-4.8,4.5-6.9,1.9-2.1,4.1-4,6.7-5.4,2.6-1.5,5.5-2.5,8.8-3.1,1-.2,2.1-.3,3.1-.4.6,0,1.2,0,1.8,0,1.1,0,2.1,0,3.2.2,2.5.4,4.9,1.1,7.1,2.2,1.4.7,2.6,1.5,3.8,2.4l-.5-3.2,4.1-2.2c2.8-1.5,5.8-2.7,8.8-3.7,2.9-.9,5.9-1.7,8.9-2.2,1.5-.3,3-.5,4.5-.6.9,0,1.7,0,2.6,0,1.6,0,3.1.1,4.6.3,3.9.5,7.4,1.8,10.6,3.7,0,0,0,0,.1,0h0c0,0-1.3-6.3-1.3-6.3l6.2-1.5,18.7-4.5,7-1.7.9,7.1.2,1.6c1.5-2.4,3.3-4.7,5.4-6.6,2.2-2.1,4.8-3.8,7.6-5.2,2.8-1.4,5.9-2.4,9.2-3,1.2-.2,2.4-.4,3.7-.5.6,0,1.1-.1,1.7-.2.8,0,1.7,0,2.5-.1,0,0,.2,0,.3,0,1.4,0,2.8,0,4.1.3,1.6.2,3.1.6,4.5,1.1l.9.3,3.6-2.2c1.7-1,3.5-2,5.3-2.8,1.7-.8,3.5-1.5,5.3-2.1,1.7-.6,3.6-1.1,5.4-1.5,1.8-.4,3.6-.8,5.4-1.1,1.3-.2,2.6-.4,3.9-.5.8,0,1.6,0,2.4,0,1.2,0,2.4,0,3.5.2,3.4.4,6.7,1.3,9.6,2.8,2.5,1.3,4.6,2.9,6.5,4.9,0-.2.1-.3.2-.5,1.2-2.5,2.7-4.8,4.5-6.9,1.9-2.1,4.1-4,6.7-5.4,2.6-1.5,5.5-2.5,8.8-3.1,1-.2,2.1-.3,3.1-.4.6,0,1.2,0,1.8,0,1.1,0,2.1,0,3.2.2,2.5.4,4.9,1.1,7.1,2.2,2.1,1.1,4.1,2.5,5.9,4.2.9.9,1.8,1.9,2.6,3,.2-.5.4-1,.7-1.5,1.2-2.5,2.7-4.8,4.5-6.9,1.9-2.1,4.1-4,6.7-5.4,2.6-1.5,5.5-2.5,8.8-3.1,1-.2,2.1-.3,3.1-.4h0c.6,0,1.2,0,1.8,0"/>
    <path class="st1" d="M62.9,154.1c-.2.8-.6,1.5-1.1,2.2-.5.6-1.1,1.2-1.9,1.6-.7.4-1.5.7-2.4.9-.3,0-.7.1-1,.2-.3,0-.6,0-1,.1l-1.5-10.4c.5-.2.9-.4,1.5-.6.5-.2,1-.3,1.5-.4,1.5-.3,2.8,0,3.9.6,1.1.7,1.8,1.8,2.1,3.3.2.9.1,1.7,0,2.5M76.6,141.9c-.9-1.6-2-2.9-3.3-4.1-1.3-1.1-2.7-2-4.3-2.7-1.6-.7-3.3-1.2-5.1-1.5-1.8-.3-3.6-.5-5.5-.4-1.9,0-3.7.2-5.5.6-3.2.6-6.3,1.4-9.2,2.4-2.9,1-5.9,2.2-8.7,3.7.4,3,.9,5.9,1.4,8.8.6,2.9,1.1,5.8,1.6,8.7,1,5.5,1.9,10.9,2.9,16.3,1,5.4,2,10.8,3,16.2l16.5-3.1-3.1-16.5c1.9-.4,3.8-.9,5.7-1.5,1.9-.6,3.7-1.4,5.5-2.3,1.7-.9,3.3-2,4.7-3.2,1.4-1.2,2.6-2.6,3.6-4.2,1-1.5,1.6-3.3,2-5.2.4-1.9.3-4-.1-6.3-.4-2.1-1-4-2-5.5"/>
    <path class="st1" d="M98.7,148.1c0-.8.1-1.7.3-2.6.2-1,.4-1.9.8-2.7.4-.9.9-1.6,1.5-2.3.6-.6,1.4-1.1,2.4-1.2.8-.1,1.5,0,2.1.2.6.3,1.1.7,1.5,1.2.4.5.8,1.1,1,1.8.3.7.5,1.3.6,2v.8c.1,0-10.2,2.9-10.2,2.9ZM124.1,149.8c0-2.1-.3-4.2-.7-6.3-.4-1.9-.9-3.8-1.5-5.6-.7-1.8-1.5-3.5-2.4-5.1-1-1.6-2.1-3-3.4-4.2-1.3-1.2-2.7-2.2-4.2-3s-3.3-1.3-5.1-1.6c-1.8-.3-3.8-.2-5.9.2-2.5.5-4.8,1.3-6.7,2.4-2,1.1-3.6,2.5-5.1,4.1-1.4,1.6-2.6,3.4-3.5,5.4-.9,2-1.6,4-2,6.2-.4,2.2-.7,4.4-.6,6.7,0,2.3.2,4.5.6,6.7.4,2.1,1,4.2,1.8,6.1.8,2,1.7,3.8,2.9,5.5,1.1,1.7,2.4,3.2,3.9,4.6,1.5,1.3,3.1,2.4,4.9,3.3,1.8.9,3.7,1.4,5.8,1.7,2.1.3,4.3.2,6.6-.2,1.1-.2,2.3-.5,3.4-.9,1.2-.4,2.3-.8,3.4-1.3s2.1-1.1,3.1-1.8c1-.7,1.9-1.5,2.7-2.4l-1.3-16.4c-.6.6-1.4,1.3-2.3,2.2-.9.8-1.9,1.6-2.9,2.3-1,.7-2.1,1.4-3.1,2-1.1.6-2.1.9-3,1.1-1.8.3-3.5.1-5-.7s-2.7-2-3.7-3.5c3.9-1.3,7.8-2.6,11.7-3.9,3.9-1.3,7.8-2.5,11.8-3.5"/>
    <path class="st1" d="M154.3,144.1c-.2,1.3-.7,2.5-1.4,3.6-.7,1.1-1.5,2.1-2.6,3-1.1.9-2.3,1.5-3.6,2l-2.4-20.9c1.5-.2,2.9-.2,4,.1,1.1.3,2.1.8,2.9,1.6.8.7,1.4,1.7,2,2.8.5,1.1.9,2.4,1.1,3.7.3,1.4.3,2.7,0,4M164.8,125.7c-1.6-2.5-3.7-4.4-6.1-5.9-2.4-1.5-5.1-2.4-8.1-2.8-3-.4-6.2-.3-9.6.3-2.7.5-5.4,1.2-8.1,2s-5.3,1.9-7.7,3.2l7.6,46.4c1.1,0,2.2-.2,3.3-.3,1.1-.1,2.2-.3,3.3-.5,3-.6,5.8-1.3,8.6-2.3,2.7-1,5.3-2.1,7.6-3.5,2.3-1.4,4.4-3,6.3-4.8,1.8-1.8,3.3-3.9,4.5-6.2,1.2-2.3,1.9-4.9,2.3-7.6.4-2.8.2-5.8-.4-9.1-.6-3.5-1.8-6.5-3.4-9"/>
  </g>
  <polygon class="st1" points="168.6 112.8 178.9 160.7 193.8 157.2 187.3 108.3 168.6 112.8"/>
  <g class="st7">
    <path class="st1" d="M227.4,120.5c-3.5.7-7,1.5-10.5,2.3l1.5,10.7,8.5-1.4.4,2.8c-.6.7-1.3,1.3-2.2,1.7-.9.4-1.8.7-2.7.9-1.3.2-2.5.2-3.6-.2-1.1-.4-2.1-.9-2.9-1.7-.8-.8-1.5-1.7-2.1-2.8-.5-1.1-.9-2.2-1.2-3.5-.4-2-.3-3.8.1-5.4.4-1.6,1.2-3,2.2-4.3,1-1.2,2.3-2.2,3.9-3.1,1.5-.8,3.3-1.4,5.2-1.7,1.3-.2,2.7-.4,4.2-.5,1.4,0,2.9,0,4.3.3l-1.5-13.7c-1-.4-2.1-.6-3.2-.8-1.2-.2-2.3-.2-3.5-.2-1.2,0-2.4,0-3.5.2-1.2.1-2.3.3-3.3.5-2.7.5-5.2,1.3-7.5,2.5-2.3,1.1-4.3,2.5-6.1,4.2-1.8,1.7-3.3,3.5-4.5,5.6-1.3,2.1-2.2,4.3-2.9,6.6-.7,2.3-1.1,4.8-1.3,7.3-.1,2.5,0,5.1.5,7.7.6,3.4,1.8,6.4,3.5,9,1.7,2.6,3.8,4.8,6.3,6.5,2.5,1.7,5.3,2.8,8.4,3.5,3.1.6,6.4.6,9.8,0,1.8-.3,3.6-.8,5.5-1.6,1.9-.7,3.7-1.6,5.5-2.6,1.7-1,3.3-2.2,4.8-3.6s2.6-2.8,3.4-4.4l-4.7-23.1c-3.5.8-7.1,1.6-10.6,2.3"/>
    <path class="st1" d="M268.5,113c-.4,1-.9,1.8-1.7,2.5s-1.6,1.3-2.6,1.7c-1,.5-2,.8-3,1l-.9.2-1.9-13.3c.4-.2.8-.4,1.3-.5.4-.1.9-.3,1.4-.3,1.1-.2,2-.2,2.9,0,.9.2,1.6.5,2.3,1.1.6.5,1.2,1.1,1.6,1.9s.7,1.7.9,2.7c.2,1.2.1,2.3-.2,3.2M282.2,119.2c.9-1.3,1.6-2.6,2-4,.5-1.4.7-2.9.7-4.4,0-1.6-.1-3.3-.5-5.1-.5-3-1.6-5.4-3.2-7.4s-3.5-3.6-5.7-4.7c-2.2-1.1-4.7-1.8-7.3-2.1-2.7-.3-5.3-.2-8,.3-1.8.3-3.5.7-5.1,1.1-1.7.4-3.3.9-4.8,1.4-1.6.5-3.1,1.1-4.7,1.8-1.5.7-3.1,1.5-4.6,2.4.4,2.7.8,5.5,1.2,8.1.4,2.7.9,5.4,1.4,8.1.9,5.4,1.7,10.8,2.6,16.2.9,5.4,1.8,10.8,2.7,16.2l15.3-2.8-2.1-14.9,4.4-1,8.3,14.1,15.4-6.1-11.2-13.5c1.4-1.3,2.5-2.5,3.4-3.8"/>
    <path class="st1" d="M304.3,106.9c0-.8.1-1.7.3-2.6.2-1,.4-1.9.8-2.7.4-.9.9-1.6,1.5-2.3.6-.6,1.4-1.1,2.4-1.2.8-.1,1.5,0,2.1.2.6.3,1.1.7,1.5,1.2.4.5.8,1.1,1,1.8.3.7.5,1.3.6,2v.8c.1,0-10.2,2.9-10.2,2.9ZM329.8,108.7c0-2.1-.3-4.2-.7-6.3-.4-1.9-.9-3.8-1.5-5.6-.7-1.8-1.5-3.5-2.4-5.1-1-1.6-2.1-3-3.4-4.2-1.3-1.2-2.7-2.2-4.2-3s-3.3-1.3-5.1-1.6c-1.8-.3-3.8-.2-5.9.2-2.5.5-4.8,1.3-6.7,2.4-2,1.1-3.6,2.5-5.1,4.1-1.4,1.6-2.6,3.4-3.5,5.4-.9,2-1.6,4-2,6.2-.4,2.2-.7,4.4-.6,6.7,0,2.3.2,4.5.6,6.7.4,2.1,1,4.2,1.8,6.1.8,2,1.7,3.8,2.9,5.5,1.1,1.7,2.4,3.2,3.9,4.6,1.5,1.3,3.1,2.4,4.9,3.3,1.8.9,3.7,1.4,5.8,1.7,2.1.3,4.3.2,6.6-.2,1.1-.2,2.3-.5,3.4-.9,1.2-.4,2.3-.8,3.4-1.3s2.1-1.1,3.1-1.8c1-.7,1.9-1.5,2.7-2.4l-1.3-16.4c-.6.6-1.4,1.3-2.3,2.2-.9.8-1.9,1.6-2.9,2.3-1,.7-2.1,1.4-3.1,2-1.1.6-2.1.9-3,1.1-1.8.3-3.5.1-5-.7-1.5-.8-2.7-2-3.7-3.5,3.9-1.3,7.8-2.6,11.7-3.9,3.9-1.3,7.8-2.5,11.8-3.5"/>
    <path class="st1" d="M348.9,96.4c.2-1,.4-1.9.8-2.7.4-.9.9-1.6,1.5-2.3.6-.6,1.4-1.1,2.4-1.2.8-.1,1.5,0,2.1.2.6.3,1.1.7,1.5,1.2.4.5.8,1.1,1,1.8.3.7.5,1.3.6,2v.8c.1,0-10.2,2.9-10.2,2.9,0-.8.1-1.7.3-2.6M368.2,107c-.9.8-1.9,1.6-2.9,2.3-1,.7-2.1,1.4-3.1,2-1.1.6-2.1.9-3,1.1-1.8.3-3.5.1-5-.7-1.5-.8-2.7-2-3.7-3.5,3.9-1.3,7.8-2.6,11.7-3.9,3.9-1.3,7.8-2.5,11.8-3.5,0-2.1-.3-4.2-.7-6.3-.4-1.9-.9-3.8-1.5-5.6-.7-1.8-1.5-3.5-2.5-5.1-1-1.6-2.1-3-3.4-4.2-1.3-1.2-2.7-2.2-4.2-3s-3.3-1.3-5.1-1.6c-1.8-.3-3.8-.2-5.9.2-2.5.5-4.8,1.3-6.7,2.4-2,1.1-3.6,2.5-5.1,4.1-1.4,1.6-2.6,3.4-3.5,5.4-.9,2-1.6,4-2,6.2-.4,2.2-.7,4.4-.7,6.7,0,2.3.2,4.5.6,6.7.4,2.1,1,4.2,1.8,6.1.8,2,1.7,3.8,2.9,5.5,1.1,1.7,2.4,3.2,3.9,4.6s3.1,2.4,4.9,3.3c1.8.9,3.7,1.4,5.8,1.7,2.1.3,4.3.2,6.6-.2,1.1-.2,2.3-.5,3.4-.9s2.3-.8,3.4-1.3,2.1-1.1,3.1-1.8c1-.7,1.9-1.5,2.7-2.4l-1.3-16.4c-.6.6-1.4,1.4-2.3,2.2"/>
    <path class="st15" d="M181.9,212.1c0,0,.2,0,.4.1.4.1.9.2,1.5.2s.5,0,.7,0h.3c.6,0,1.3-.2,1.9-.4,1-.3,2-.6,3-1,1-.4,2-.9,3-1.4,1-.5,1.8-1.1,2.7-1.7l4.7-3.3-5.6-1.1c-.5-.1-1.1-.2-1.6-.2-.2,0-.5,0-.7,0-.5,0-.9,0-1.4,0-.2,0-.4,0-.6,0-1.5.1-2.9.4-4.1.9-1.2.4-2.1.9-2.9,1.6-.6.5-1,1.1-1.3,1.9-.2.4-.4,1.3-.3,2.7,0,1.1.3,1.6.3,1.6,0,0,0,0,0,0M179.6,258.9c-5.5,0-10.7-.9-15.5-2.7-5.7-2.2-10.8-5.3-15.2-9.5-4.2-4.1-7.7-8.9-10.2-14.5-2.5-5.5-4-11.5-4.5-17.8-.5-7.1,0-14,1.7-20.4,1.7-6.7,4.5-12.7,8.4-17.9,4-5.3,9.1-9.6,15.2-12.9,5.6-2.9,11.9-4.8,19-5.5,0,0,0,0,0,0,.6,0,1.3-.1,1.9-.2,1.3,0,2.7-.1,4-.1s3.6,0,5.4.2c3.3.3,6.5,1,9.6,2.1v-1.7c0-.5,0-.9.4-1.2.3-.3.7-.5,1.2-.5l35.4-.8v-.4c0-.5,0-.9.4-1.2.3-.3.7-.5,1.2-.6,0,0,42.3-1.8,42.4-1.8.9,0,1.6.7,1.7,1.5.1,0,.3,0,.4,0h7c4.5-.2,9.1-.3,13.6-.4,4.1-.1,8.3-.3,12.4-.7l-.3-1.7c0-.5,0-1,.4-1.4.3-.4.8-.6,1.3-.6l9.7-.4c2.4,0,4.7-.2,7-.3,2.3-.1,4.7-.3,7-.4,1.8-.1,3.6-.3,5.5-.4.7,0,1.4-.1,2.1-.2,1,0,2-.2,3.1-.3l10.2-1.3c0,0,.1,0,.2,0,.4,0,.8.2,1.2.5.3.3.5.6.5.9l28.7-3.2c.5-.3,1-.5,1.5-.8,2.2-1.1,4.6-1.7,7.1-2,.2,0,.4,0,.6,0,1,0,1.9,0,2.8,0,1.4,0,2.8,0,4,.2,2.6.3,5,1,7.2,2.1.7.3,1.3.7,1.9,1.1.2-.2.4-.3.6-.5,2-1.4,4.2-2.5,6.6-3.4,2.1-.8,4.5-1.3,6.9-1.5.3,0,.7,0,1,0,.8,0,1.6,0,2.4,0,4.4,0,8.4.8,11.9,2.5,4,1.8,7.4,4.5,10.2,7.8,1.6,1.9,3,3.9,4.2,6.2,2.1-4.8,5-9,8.8-12.5,3.7-3.5,8-6.3,12.9-8.3,4.3-1.8,8.9-2.9,13.5-3.4.5,0,1,0,1.4-.1,2-.1,4.2-.2,6.3-.2,2.3,0,4.6.1,6.9.4,2.3.2,4.5.6,6.8,1.1,2.4.5,4.7,1.2,6.9,2.1l5.6,2.2c.7.3,1.1.9,1.1,1.6l-.8,32.4c2.4,2.4,4.3,5.3,5.7,8.6,1.5,3.5,2.4,7.3,2.7,11.4.4,6.6-.4,12.6-2.4,17.8-2.1,5.3-5.2,9.8-9.3,13.5-3.9,3.5-8.6,6.2-13.8,8.1-4.3,1.5-8.9,2.5-13.8,3-.7,0-1.3.1-2,.2-.7,0-1.4,0-2.2,0-1.9,0-4-.2-6.1-.5-2.5-.4-5.1-.9-7.7-1.6-2.5-.6-4.9-1.3-7.3-2.1-1.7-.6-3.3-1.1-4.8-1.7v2.8c0,.9-.7,1.6-1.6,1.7l-46.1,5.3c0,0-.1,0-.2,0-.2,0-.3,0-.5,0l-20.5,2.2v.2c0,.9-.7,1.7-1.6,1.8l-38.9,2.6c-.2.5-.7.9-1.3,1l-40.2,5.7c0,0-.2,0-.2,0-.4,0-.8-.2-1.1-.4-.4-.3-.6-.8-.6-1.3v-2.6c-.1,0-.4,0-.7,0-.5,0-1,0-1.5,0-3.3,0-6.5-.5-9.5-1.6-3.3-1.1-6.3-2.7-9.1-4.8-2.4-1.7-4.6-3.8-6.5-6.1l1.1,12.5c0,.9-.6,1.7-1.5,1.8l-40.7,4.7c-.3.4-.8.7-1.3.8,0,0-42,2.9-42.1,2.9-.4,0-.8-.2-1.1-.4-.3-.3-.5-.7-.6-1.2v-.7c-.7.3-1.3.6-1.9.9-1.9.8-3.9,1.5-6,2.2-2.1.7-4.2,1.2-6.3,1.6-1.7.3-3.3.6-4.9.7-.5,0-.9,0-1.4.1-1.1,0-2.3.1-3.4.1"/>
    <path class="st15" d="M183.2,210.6c0-.1,0-.2,0-.4,0-1.3,0-1.8.2-1.9.2-.5.5-.9.9-1.2.6-.5,1.4-1,2.3-1.3,1.2-.4,2.4-.7,3.7-.8.2,0,.4,0,.6,0,.4,0,.8,0,1.3,0s.4,0,.7,0c.4,0,.8,0,1.3.2l1.7.4-1.5,1c-.8.5-1.6,1.1-2.5,1.6-.9.5-1.8.9-2.8,1.3-.9.4-1.9.7-2.8.9-.6.2-1.2.3-1.7.3h-.3c-.2,0-.4,0-.6,0s-.4,0-.5,0M504.5,128.4h0c-2.2,0-4.4,0-6.5.2-.5,0-1,0-1.5.1-4.8.5-9.6,1.7-14,3.5-5.1,2.1-9.6,5-13.4,8.6-3.1,3-5.7,6.4-7.7,10.2-.8-1.3-1.8-2.5-2.7-3.7-3-3.5-6.6-6.3-10.8-8.2-3.8-1.8-8-2.6-12.6-2.6s-1.7,0-2.6,0c-.4,0-.7,0-1.1,0-2.6.3-5.1.8-7.3,1.6-2.4.9-4.6,2-6.7,3.4-.4-.2-.7-.4-1.1-.6-2.4-1.2-5-1.9-7.8-2.3-1.3-.2-2.8-.2-4.3-.2s-1.9,0-2.9.1c-.2,0-.5,0-.7,0-2.7.3-5.2,1-7.7,2.1-.4.2-.8.4-1.3.6l-4.5.5-22.6,2.5c-.1-.1-.2-.3-.3-.4-.6-.6-1.5-.9-2.3-.9s-.3,0-.4,0l-10.2,1.3c-1,.1-2,.2-3,.3-.7,0-1.3.1-2,.2-1.9.1-3.7.3-5.5.4-2.3.2-4.7.3-7,.4-2.3.1-4.7.2-7,.3l-9.7.4c-1,0-1.9.5-2.5,1.2-.6.7-.9,1.6-.7,2.5-3.5.3-7,.4-10.5.5-4.6.1-9.2.2-13.6.3h-6.3c-.6-.8-1.6-1.3-2.8-1.3s0,0-.1,0l-8.1.3-25.4,1.1-8.7.4c-.9,0-1.8.4-2.4,1.1-.3.3-.5.7-.7,1.2l-25.2.5-8.7.2c-.9,0-1.8.4-2.4,1.1-.5.5-.8,1.1-.9,1.8-2.5-.7-5.1-1.2-7.8-1.4-1.8-.2-3.7-.2-5.5-.2s-2.8,0-4.1.1c-.7,0-1.3,0-2,.2-7.3.7-13.9,2.6-19.6,5.7-6.3,3.4-11.7,7.8-15.8,13.3-4,5.4-7,11.6-8.7,18.5-1.7,6.6-2.3,13.6-1.8,21,.4,6.5,2,12.7,4.6,18.4,2.6,5.7,6.2,10.8,10.6,15,4.5,4.3,9.8,7.6,15.7,9.8,5,1.9,10.4,2.8,16.1,2.8s2.4,0,3.5-.1c.5,0,.9,0,1.4-.1,1.6-.2,3.4-.4,5.1-.8,2.2-.4,4.4-1,6.5-1.7,2.1-.7,4.1-1.4,6.1-2.2,0,0,0,0,0,0,.2.3.4.5.6.8.6.6,1.4.9,2.3.9s.2,0,.2,0l8.8-.6,25-1.7,8.3-.6c.8,0,1.5-.4,2-.9l4-.5,27.8-3.2,8.3-1c1.8-.2,3.2-1.8,3-3.7l-.7-7.6c1.1,1,2.2,1.9,3.4,2.8,2.9,2.2,6.2,3.9,9.6,5.1,3.2,1.1,6.6,1.7,10.1,1.7s.4,0,.5,0v.8c0,1,.3,2,1.1,2.7.6.6,1.4.9,2.3.9s.3,0,.5,0l10.2-1.4,22.7-3.2,7.2-1c.8-.1,1.4-.5,2-1h1.8c0-.1,28.1-2,28.1-2l8.3-.6c1.3,0,2.5-1,2.9-2.1l18.9-2c.2,0,.4,0,.6,0s.3,0,.4,0l10.1-1.2,28.5-3.3,7.4-.9c1.7-.2,3-1.6,3-3.3v-.5c.8.3,1.7.6,2.6.9,2.4.8,4.9,1.5,7.4,2.1,2.6.7,5.3,1.2,7.8,1.6,2.2.3,4.3.5,6.3.5s1.6,0,2.3,0c.7,0,1.4-.1,2.1-.2,5-.5,9.8-1.5,14.2-3.1,5.5-1.9,10.4-4.8,14.4-8.4,4.3-3.8,7.6-8.6,9.7-14.1,2.2-5.5,3-11.7,2.6-18.6-.3-4.3-1.2-8.3-2.8-12-1.4-3.2-3.2-6.1-5.5-8.6v-2.9c0,0,.7-22.8.7-22.8l.2-6c0-1.4-.8-2.7-2.1-3.2l-5.6-2.2c-2.3-.9-4.7-1.6-7.2-2.2-2.3-.5-4.6-.9-6.9-1.1-2.3-.2-4.7-.4-7-.4M183.8,214.1c.3,0,.6,0,.8,0h.4c.7,0,1.5-.2,2.2-.4,1.1-.3,2.1-.6,3.2-1.1,1.1-.4,2.2-1,3.1-1.5,1-.6,1.9-1.2,2.8-1.8l6.8-4.8v-.9s-8.4-1.7-8.4-1.7c-.6-.1-1.3-.2-1.8-.2-.3,0-.5,0-.8,0-.5,0-1,0-1.5,0-.2,0-.4,0-.7,0-1.6.2-3.1.5-4.5,1-1.4.5-2.5,1.1-3.4,1.9-.8.7-1.4,1.5-1.8,2.5-.4.9-.5,2.1-.4,3.5,0,1.3.3,2,.5,2.3.2.4.4.6.5.6.2.2.6.3,1.1.5.6.1,1.2.2,1.9.2M504.5,131.8c2.2,0,4.4.1,6.7.3,2.2.2,4.4.6,6.6,1,2.3.5,4.5,1.2,6.7,2l5.5,2.2-.2,6-.6,22.8v4.4c2.3,2.4,4.3,5.3,5.7,8.6,1.4,3.3,2.3,7,2.5,10.9.4,6.3-.4,12.1-2.3,17.1-2,5-5,9.4-8.9,12.8-3.7,3.3-8.2,5.9-13.3,7.7-4.2,1.5-8.7,2.4-13.4,2.9-.7,0-1.3.1-2,.2-.7,0-1.4,0-2.1,0-1.8,0-3.8-.2-5.8-.5-2.5-.4-5-.9-7.5-1.5-2.4-.6-4.9-1.3-7.2-2.1-2.2-.7-4.3-1.5-6.1-2.1l-.9-.3v5.3c0,0-7.5.9-7.5.9l-28.5,3.3-10.1,1.2h0c0-.1-22.7,2.3-22.7,2.3v1.8c0,0-8.2.6-8.2.6l-28.1,1.9-4,.3v.9s-7.3,1-7.3,1l-22.7,3.2-10.2,1.5.2-4.6c-.4,0-.7,0-1.1.1-.5,0-1.1,0-1.6.1-.5,0-1,0-1.5,0-3.1,0-6.1-.5-8.9-1.5-3.1-1.1-6-2.6-8.7-4.6-2.5-1.9-4.9-4.1-6.9-6.6-1-1.3-2-2.6-2.9-3.9l.9,10.1.8,8.3-8.3,1-27.8,3.2-5.9.7v.6s-8.2.6-8.2.6l-25,1.7-8.8.6v-3.4c-1.5.7-2.8,1.4-4.3,2-1.9.8-3.8,1.5-5.8,2.1-2,.6-4.1,1.2-6.1,1.6-1.6.3-3.2.6-4.8.7-.4,0-.9,0-1.3.1-1.1,0-2.2.1-3.3.1-5.3,0-10.2-.9-14.9-2.6-5.5-2.1-10.4-5.1-14.6-9.1-4.1-3.9-7.4-8.6-9.9-13.9-2.4-5.3-3.9-11.1-4.3-17.2-.5-7,0-13.7,1.7-19.9,1.6-6.5,4.4-12.3,8.2-17.3,3.8-5.1,8.8-9.3,14.7-12.4,5.4-2.8,11.5-4.6,18.4-5.3h0c.6,0,1.2-.1,1.9-.2,1.3,0,2.6-.1,3.9-.1s3.5,0,5.2.2c3.4.3,6.8,1.1,10,2.3l1.5.6-.2-4.3,8.7-.2,26.6-.6h1.9s-.1-2.3-.1-2.3l8.7-.4,25.4-1.1,8.1-.3.7,8.1v.8c.1-.2.1-.4.2-.5l1.3-6.9h7c4.5-.2,9.1-.3,13.6-.4,4.4-.1,8.8-.4,13.2-.7h1.2c0-.1-.6-3.6-.6-3.6l9.7-.4c2.4,0,4.7-.2,7.1-.3,2.3-.1,4.7-.3,7.1-.4,1.8-.1,3.7-.3,5.5-.4.7,0,1.4-.1,2.1-.2,1,0,2.1-.2,3.1-.4l10.2-1.3v1.6c0,0,25.7-2.8,25.7-2.8l5.2-.6c.5-.3,1.1-.6,1.7-.9,2.1-1,4.3-1.6,6.5-1.8.2,0,.4,0,.6,0,.9,0,1.8,0,2.7,0,1.3,0,2.6,0,3.8.2,2.4.3,4.7.9,6.7,1.9,1,.5,1.9,1,2.7,1.6.5-.4,1-.8,1.6-1.2,1.9-1.3,4-2.4,6.2-3.2,2-.7,4.2-1.2,6.5-1.4.3,0,.6,0,1,0,.8,0,1.6,0,2.3,0,4.1,0,7.9.8,11.2,2.3,3.7,1.7,7,4.2,9.6,7.3,2.3,2.8,4.2,6,5.7,9.5.3-1.2.8-2.4,1.2-3.5,2-4.7,4.8-8.8,8.5-12.2,3.5-3.3,7.7-6,12.4-8,4.2-1.7,8.5-2.8,13-3.3.5,0,.9,0,1.4-.1,2-.1,4.1-.2,6.2-.2h0"/>
    <path class="st1" d="M196.9,169.7l-.4,23.6c-1.1-.2-2.2-.4-3.2-.4-1.1,0-2.1,0-3.2,0-2.6.2-5.1.7-7.5,1.5-2.3.8-4.4,2-6.1,3.5-1.7,1.5-3.1,3.3-4,5.5s-1.3,4.7-1.1,7.5c.1,2.1.6,3.9,1.3,5.4.7,1.5,1.7,2.7,2.9,3.7,1.2.9,2.6,1.6,4.3,2s3.5.5,5.4.4c1.4,0,2.8-.3,4.2-.7,1.4-.4,2.8-.9,4.3-1.4,1.4-.6,2.8-1.2,4.1-2,1.3-.7,2.5-1.5,3.6-2.3l.9,26.2c-1.4.8-2.9,1.6-4.5,2.3-1.6.7-3.3,1.3-5,1.9-1.7.5-3.5,1-5.2,1.3-1.7.3-3.4.6-5,.7-5.3.4-10.1-.3-14.6-2-4.5-1.7-8.4-4.1-11.7-7.3-3.3-3.2-6-7-8-11.3-2-4.4-3.2-9.1-3.5-14.2-.4-6.1,0-11.8,1.4-17.2,1.4-5.4,3.6-10.1,6.7-14.2,3.1-4.1,7-7.4,11.9-10,4.8-2.5,10.4-4,16.8-4.5,2.6-.2,5.2-.1,7.8,0,2.7.2,5.2.8,7.7,1.8"/>
  </g>
  <polygon class="st1" points="279.9 238.1 252.1 241.3 250.3 217.8 237.5 218.7 238.4 243.1 213.4 244.8 210.2 166.4 236.8 165.8 237.9 205.9 250.2 205.1 247.5 163.2 272.9 162.1 279.9 238.1"/>
  <g class="st13">
    <path class="st1" d="M352.9,156.4c-.8,13.2-1.3,26.3-1.6,39.3-.3,13-.6,26.1-.7,39.3l-22.7,3.2.4-8.6c-.7.9-1.5,1.7-2.4,2.4-.9.7-2,1.3-3,1.7-1.1.5-2.2.8-3.4,1.1-1.2.2-2.3.4-3.4.4-2.5.1-4.9-.2-7.2-1-2.3-.8-4.4-1.9-6.4-3.4-2-1.5-3.8-3.2-5.4-5.2-1.6-2-3-4.1-4.2-6.4-1.2-2.3-2.1-4.6-2.8-6.9-.7-2.4-1.1-4.7-1.3-7-.2-3.3-.4-6.8-.5-10.4-.1-3.6-.1-7.2,0-10.8,0-3.6.3-7.2.6-10.8.3-3.6.7-7,1.3-10.3,4.5,0,9.1-.2,13.7-.3,4.6-.1,9.1-.4,13.7-.8-.6,3.3-1.3,6.6-1.9,9.9-.6,3.3-1.1,6.6-1.6,10-.4,3.3-.8,6.7-.9,10-.2,3.3-.2,6.7,0,10.1,0,.8.2,1.9.3,3.3.2,1.4.5,2.9.9,4.2.4,1.4,1,2.6,1.7,3.6.7,1,1.7,1.5,2.9,1.4,1.4,0,2.6-.8,3.7-2.1,1-1.3,1.9-3,2.6-5.1.7-2.1,1.3-4.5,1.7-7.2.4-2.7.8-5.5,1-8.5.2-2.9.4-5.9.4-8.9,0-3,0-5.8,0-8.4,0-2.6-.1-5-.2-7.1,0-2.1-.2-3.7-.2-4.9,0-.7-.1-1.5-.2-2.2,0-.7-.2-1.4-.3-2.2,2.4,0,4.8-.2,7.2-.3,2.4-.1,4.8-.3,7.2-.4,1.9-.1,3.7-.3,5.6-.4,1.9-.1,3.8-.3,5.6-.6"/>
    <path class="st1" d="M459.1,189.9c.4,5.3.6,10.6.6,15.9,0,5.3,0,10.6,0,16l-28.5,3.3c.4-6.5.7-13,1-19.6s.1-13-.3-19.5c0-.4,0-1.1-.2-2.1-.1-1-.2-2.2-.4-3.5-.2-1.3-.4-2.6-.7-4-.3-1.4-.6-2.6-.9-3.8-.4-1.2-.8-2.1-1.2-2.8-.5-.7-1-1.1-1.5-1-1.3,0-2.3.6-3,1.7s-1.1,2.3-1.4,3.6c-.3,1.4-.4,2.8-.4,4.2,0,1.4,0,2.6.1,3.5.1,1.6.2,3.1.4,4.7.2,1.6.3,3.1.4,4.8.4,5.8.6,11.5.8,17.2.1,5.7.2,11.5.1,17.3l-26.3,2.8c.4-6.5.7-13,.9-19.5.2-6.5,0-13-.3-19.5,0-.4,0-1.2-.2-2.2-.1-1.1-.3-2.3-.4-3.6-.2-1.3-.4-2.7-.7-4.1-.3-1.4-.6-2.7-1-3.9-.4-1.2-.8-2.2-1.2-2.9-.5-.8-1-1.1-1.6-1.1-.9,0-1.7.5-2.3,1.2-.6.8-1,1.7-1.3,2.9s-.5,2.5-.6,3.9c-.1,1.4-.2,2.8-.2,4.1,0,1.3,0,2.6,0,3.7,0,1.1,0,2,0,2.5l1.5,40.7-28.1,1.9c.2-6.3.3-12.6.5-19,.2-6.4.3-12.7.3-19,0-6.3,0-12.7-.1-19-.1-6.3-.4-12.7-.8-19l26.4-2.9.3,6.5c.7-1.1,1.6-2.2,2.6-3.3,1-1.1,2-2.2,3.1-3.1,1.1-.9,2.3-1.7,3.6-2.3,1.3-.6,2.6-1,4-1.1,1.8-.1,3.5,0,4.9,0,1.5.2,2.8.6,4,1.2,1.2.6,2.3,1.4,3.3,2.5,1,1.1,1.9,2.5,2.6,4.3,1.1-1.4,2.2-2.7,3.3-3.9,1.1-1.2,2.3-2.2,3.6-3.1,1.3-.9,2.7-1.6,4.2-2.2,1.5-.6,3.2-.9,5.1-1,3.6-.2,6.7.2,9.3,1.5,2.6,1.2,4.9,2.9,6.7,5.1,1.8,2.2,3.3,4.7,4.5,7.6,1.1,2.9,2.1,5.9,2.8,9.1.7,3.2,1.2,6.3,1.6,9.5.3,3.1.6,6,.8,8.7"/>
    <path class="st1" d="M528.9,190.5c.3,5.1-.2,9.5-1.8,13.4-1.5,3.8-3.7,7-6.6,9.6-2.9,2.6-6.4,4.6-10.4,6-4,1.4-8.4,2.3-13.1,2.6-1.8.1-3.8,0-6-.3-2.2-.3-4.4-.8-6.7-1.4-2.3-.6-4.5-1.2-6.6-1.9-2.1-.7-4-1.4-5.6-2l1-22c3.3,1.7,6.9,2.9,10.8,3.6,3.9.7,7.7,1,11.4.7.7,0,1.6-.1,2.6-.3,1-.1,1.9-.4,2.8-.7.9-.3,1.6-.8,2.2-1.4.6-.6.9-1.4.8-2.5,0-.7-.3-1.3-.8-1.8-.5-.5-1.1-.8-1.8-1.1-.7-.3-1.5-.5-2.4-.6-.9-.1-1.8-.2-2.6-.2-.9,0-1.7,0-2.4,0-.7,0-1.3,0-1.8.1-3.2.2-6.1,0-8.8-.9-2.7-.8-5-2.1-7-3.8-2-1.7-3.6-3.8-4.8-6.4-1.2-2.5-1.9-5.4-2.2-8.6-.3-4.4.3-8.4,1.8-12,1.5-3.6,3.7-6.7,6.5-9.3,2.8-2.6,6-4.7,9.8-6.3,3.7-1.6,7.6-2.5,11.7-2.8,1.8-.1,3.7-.2,5.6-.2,1.9,0,3.9,0,5.8.3,1.9.2,3.8.5,5.7.9,1.9.4,3.6.9,5.3,1.6l-.6,22.8c-2.6-.7-5.3-1.2-8.1-1.6-2.8-.4-5.5-.5-8.2-.3-.5,0-1.1,0-1.9.2-.8,0-1.6.2-2.4.3-.8.1-1.7.3-2.5.6-.8.2-1.6.5-2.2.9-.6.4-1.2.8-1.5,1.4-.4.5-.5,1.2-.4,1.9,0,.8.4,1.4,1.1,1.8.6.4,1.4.7,2.3.8.9.1,1.9.2,3,0,1.1,0,2.2-.2,3.3-.3,1.1-.1,2.1-.3,3-.4.9-.1,1.7-.2,2.3-.2,3,0,5.7.4,8.1,1.3,2.4.9,4.6,2.2,6.3,3.9,1.8,1.7,3.2,3.7,4.2,6.1,1,2.4,1.7,5.1,1.9,8.1"/>
  </g>
  <polygon class="st17" points="393.3 103.4 459.6 82.6 450.4 64.9 393.3 103.4"/>
  <polygon class="st17" points="382.2 85 443.2 19.2 455.6 35.4 382.2 85"/>
  <polygon class="st17" points="147.7 107.3 107.1 50.8 93.2 65.2 147.7 107.3"/>
  <polygon class="st17" points="134.1 114.1 52.5 76.8 63.9 59.9 134.1 114.1"/>
  <g class="st10">
    <path class="st14" d="M10,55.5c5.4,0,9.8-4.4,9.8-9.8s-4.4-9.8-9.8-9.8S.2,40.3.2,45.7s4.4,9.8,9.8,9.8"/>
    <path class="st17" d="M549.3,179.4c5.4,0,9.8-4.4,9.8-9.8s-4.4-9.8-9.8-9.8-9.8,4.4-9.8,9.8,4.4,9.8,9.8,9.8"/>
    <path class="st14" d="M183.1,57.2c.3.7,31.5,33.1,31.5,33.1l-29.7-37.3-1.9,4.2Z"/>
    <path class="st14" d="M203.6,44.3c.6-.4,19.2,35.4,19.2,35.4l-15.5-37.4-3.7,2.1Z"/>
  </g>
  <polygon class="st14" points="193.9 50.5 222.7 92.8 199 48.8 193.9 50.5"/>
  <g class="st9">
    <path class="st14" d="M209.6,43.8c-3.1,3.2-8.3,3.2-11.5,0-3.2-3.1-3.2-8.3,0-11.5,3.1-3.2,8.3-3.2,11.5,0s3.2,8.3,0,11.5"/>
    <path class="st14" d="M173.1,51.3c.3-5.4,4.8-9.5,10.2-9.2,5.4.3,9.5,4.9,9.2,10.2-.3,5.4-4.9,9.4-10.2,9.2-5.4-.3-9.5-4.8-9.2-10.2"/>
    <path class="st14" d="M181.9,30.3c5.4-.1,9.8,4.1,10,9.5.2,5.3-4.1,9.8-9.5,10-5.4.1-9.8-4.1-10-9.5-.1-5.3,4.1-9.8,9.5-9.9"/>
    <path class="st14" d="M202.2,28.2c2.4,3.9,1.2,9-2.7,11.5-3.9,2.4-9.1,1.1-11.5-2.7-2.4-3.9-1.2-9.1,2.7-11.5,3.9-2.4,9-1.2,11.5,2.7"/>
    <path class="st14" d="M193.4,59.3c-5.9-.3-10.4-5.4-10.1-11.2.3-5.9,5.4-10.4,11.2-10.1,5.9.4,10.4,5.4,10.1,11.3-.4,5.9-5.4,10.4-11.3,10.1"/>
    <path class="st14" d="M375.7,26.6c-.5.5-15.6,36.1-15.6,36.1l19.5-36h-3.8Z"/>
    <path class="st14" d="M392,38.9c.5.4-21.3,26.9-21.3,26.9l24-24.6-2.7-2.3Z"/>
  </g>
  <polygon class="st14" points="384.3 33.1 360.6 70 387.1 36.6 384.3 33.1"/>
  <g class="st12">
    <path class="st14" d="M394.3,43.5c-3.5-1.5-5.1-5.6-3.7-9.2,1.4-3.6,5.4-5.3,8.8-3.8,3.5,1.5,5.1,5.7,3.7,9.3-1.4,3.6-5.4,5.3-8.8,3.8"/>
    <path class="st14" d="M377.1,16.6c4.2-1.5,8.9.8,10.3,5.2,1.5,4.4-.8,9.2-5,10.7-4.2,1.5-8.8-.8-10.3-5.2-1.4-4.4.8-9.2,5-10.7"/>
    <path class="st14" d="M396.1,16.9c1.8,4.3,0,9.2-4.2,11.1-4.1,1.8-8.9-.1-10.6-4.4-1.8-4.3,0-9.2,4.2-11.1,4.1-1.8,8.9.1,10.6,4.4"/>
    <path class="st14" d="M404.1,32.5c-2.3,3.2-6.6,3.9-9.7,1.5-3.1-2.4-3.7-6.9-1.5-10.1,2.3-3.2,6.6-3.9,9.7-1.5,3.1,2.4,3.7,6.9,1.5,10.1"/>
    <path class="st14" d="M377.3,35.6c-1.6-4.9.9-10.1,5.5-11.8,4.7-1.7,9.7.9,11.3,5.8,1.6,4.8-.9,10.1-5.5,11.8-4.6,1.7-9.7-.9-11.3-5.8"/>
    <path class="st14" d="M425,279.3c-.3-.7-31.2-30.1-31.2-30.1l29.6,34.2,1.6-4.1Z"/>
    <path class="st14" d="M406.1,292.3c-.6.4-19.6-32.8-19.6-32.8l16.3,34.9,3.4-2.1Z"/>
  </g>
  <polygon class="st14" points="415.1 286.1 386 247 410.3 287.8 415.1 286.1"/>
  <g class="st11">
    <path class="st14" d="M400.4,293c2.9-3.2,7.7-3.4,10.9-.5,3.2,2.9,3.4,7.7.5,10.9-2.9,3.2-7.7,3.4-10.9.5-3.2-2.9-3.4-7.7-.5-10.9"/>
    <path class="st14" d="M434.8,284.5c0,5.1-4.2,9.2-9.3,9.1-5.1,0-9.2-4.2-9.1-9.3,0-5.1,4.2-9.2,9.3-9.1,5.1,0,9.2,4.2,9.1,9.3"/>
    <path class="st14" d="M427.2,304.7c-5.1.3-9.4-3.5-9.8-8.6-.3-5.1,3.5-9.5,8.6-9.8,5.1-.3,9.4,3.5,9.8,8.6.3,5.1-3.5,9.5-8.6,9.8"/>
    <path class="st14" d="M408.1,307.5c-2.5-3.6-1.5-8.5,2.1-11,3.6-2.5,8.5-1.5,11,2.1,2.5,3.6,1.5,8.5-2.1,11-3.6,2.5-8.5,1.5-11-2.1"/>
    <path class="st14" d="M415.2,277.7c5.6,0,10.1,4.7,10,10.2,0,5.6-4.6,10.1-10.3,10-5.6,0-10.1-4.7-10-10.3,0-5.6,4.7-10.1,10.3-10"/>
    <path class="st14" d="M193.9,286.9c.4-.6,14.3-37.3,14.3-37.3l-18.4,37.4h4.1Z"/>
    <path class="st14" d="M176,275.6c-.6-.4,20.7-28.4,20.7-28.4l-23.7,26.3,3,2.1Z"/>
  </g>
  <polygon class="st14" points="184.5 280.9 207.2 242.3 181.3 277.5 184.5 280.9"/>
  <g class="st3">
    <path class="st14" d="M173.4,271c3.7,1.3,5.7,5.3,4.4,9.1-1.3,3.7-5.3,5.7-9.1,4.4-3.7-1.3-5.7-5.3-4.4-9.1,1.3-3.7,5.3-5.7,9.1-4.4"/>
    <path class="st14" d="M192.9,297c-4.3,1.8-9.3-.3-11.1-4.6-1.8-4.3.3-9.3,4.6-11.1,4.3-1.8,9.3.3,11.1,4.6,1.8,4.3-.3,9.3-4.6,11.1"/>
    <path class="st14" d="M173.1,297.9c-2.1-4.2-.4-9.3,3.8-11.4,4.2-2.1,9.3-.4,11.4,3.8,2.1,4.2.4,9.3-3.7,11.4-4.2,2.1-9.3.4-11.4-3.8"/>
    <path class="st14" d="M163.8,282.7c2.2-3.4,6.7-4.3,10.1-2.1,3.4,2.2,4.3,6.7,2.1,10.1-2.2,3.4-6.7,4.3-10.1,2.1-3.4-2.2-4.3-6.7-2.1-10.1"/>
    <path class="st14" d="M191.7,278c1.9,4.8-.3,10.2-5.1,12.2-4.8,1.9-10.2-.3-12.2-5.1-1.9-4.8.3-10.2,5.1-12.2,4.8-1.9,10.2.3,12.2,5.1"/>
  </g>
  <polygon class="st17" points="499 233 525.4 280.9 537.6 271 499 233"/>
  <polygon class="st17" points="150.8 252.4 86.6 279.1 97.4 295.8 150.8 252.4"/>
  <polygon class="st17" points="153.4 264.7 98.6 335.6 84.8 320.7 153.4 264.7"/>
  <g class="st2">
    <path class="st17" d="M76.4,230.9c5.4,0,9.8-4.4,9.8-9.8s-4.4-9.8-9.8-9.8-9.8,4.4-9.8,9.8,4.4,9.8,9.8,9.8"/>
    <path class="st14" d="M78,357c5.3-.6,9.2-5.5,8.6-10.9-.6-5.3-5.5-9.2-10.9-8.6-5.3.6-9.2,5.5-8.6,10.9.6,5.3,5.5,9.2,10.9,8.6"/>
    <path class="st14" d="M511.4,128.2c4.2,0,7.6-3.4,7.6-7.6s-3.4-7.6-7.6-7.6-7.6,3.4-7.6,7.6,3.4,7.6,7.6,7.6"/>
    <path class="st14" d="M82.6,121.3c4.2,0,7.6-3.4,7.6-7.6s-3.4-7.6-7.6-7.6-7.6,3.4-7.6,7.6,3.4,7.6,7.6,7.6"/>
    <path class="st14" d="M80.8,301.6c4.1-.5,7.1-4.3,6.6-8.4-.5-4.2-4.3-7.1-8.4-6.6-4.1.5-7.1,4.3-6.6,8.4.5,4.1,4.3,7.1,8.4,6.6"/>
    <path class="st14" d="M534.9,288.5c3.1,1.1,6.5-.5,7.7-3.5,1.1-3.1-.5-6.5-3.6-7.6-3.1-1.1-6.5.5-7.6,3.5-1.1,3.1.5,6.5,3.5,7.7"/>
    <path class="st14" d="M469.7,16.2c4.2,0,7.6-3.4,7.6-7.6s-3.4-7.6-7.6-7.6-7.6,3.4-7.6,7.6,3.4,7.6,7.6,7.6"/>
  </g>
  <polygon class="st17" points="492.8 236.4 512 304.2 496.1 305.9 492.8 236.4"/>
  <g class="st4">
    <path class="st17" d="M504.3,334.5c-1.7,2.8-.8,6.5,2,8.2,2.8,1.7,6.5.8,8.2-2,1.7-2.8.8-6.5-2-8.2-2.8-1.7-6.5-.8-8.2,2"/>
  </g>
</svg>