<?xml version="1.0" encoding="UTF-8"?>
<svg xmlns="http://www.w3.org/2000/svg" version="1.1" viewBox="0 0 595.3 356.5">
  <!-- Generator: Adobe Illustrator 29.7.0, SVG Export Plug-In . SVG Version: 2.1.1 Build 138)  -->
  <defs>
    <style>
      .st0 {
        fill: #009fe0;
      }

      .st1 {
        fill: #71d0f6;
      }

      .st2 {
        fill: #f9ed25;
      }

      .st3 {
        display: none;
      }
    </style>
  </defs>
  <g id="Layer_2" class="st3">
    <rect class="st1" x="-29" y="-82" width="707" height="513"/>
  </g>
  <g id="Layer_1">
    <g>
      <path class="st2" d="M38.5,199c-.8,0-1.5-.6-1.7-1.4l-1.2-6.4c-1-5.6-2-11-3-16.2-1-5.4-2-10.9-2.9-16.4-.5-2.8-1-5.7-1.5-8.5-.6-3-1.1-6.1-1.5-9.2l-.6-4.6c0-.7.3-1.4.9-1.7l4.1-2.1c3.2-1.6,6.5-3,9.8-4.2,3.3-1.1,6.8-2.1,10.4-2.7,1.6-.3,3.2-.5,4.8-.6h2.9c2.2,0,4.3.2,6.4.6,2.4.4,4.7,1.1,6.8,2.1,2.4,1,4.5,2.4,6.4,4,1.2-2.2,2.6-4.3,4.2-6.2,2-2.3,4.4-4.2,7.1-5.8,2.8-1.6,5.9-2.7,9.3-3.3,1.1-.2,2.2-.3,3.3-.4h1.9c1.2,0,2.3,0,3.4.2,2.7.4,5.3,1.2,7.6,2.3.3,0,.6.3.9.5,0-.5.4-1,.9-1.2l4.1-2.2c2.9-1.5,5.9-2.8,9.1-3.8,3-1,6.1-1.7,9.1-2.3,1.6-.3,3.2-.5,4.7-.6h2.7c1.6,0,3.3,0,4.9.3,2.9.4,5.5,1.2,8.1,2.3l-.6-2.7c-.2-.9.4-1.8,1.3-2l31.9-7.7h.4c.3,0,.7,0,1,.3.4.3.7.7.7,1.2l.6,4.5c1-1.2,2-2.3,3.2-3.4,2.3-2.2,5-4,8-5.5s6.2-2.6,9.6-3.2c1.2-.2,2.5-.4,3.9-.6.6,0,1.2,0,1.8-.2.9,0,1.7,0,2.6,0h.3c1.5,0,2.9,0,4.4.3,1.7.2,3.4.6,4.9,1.2h.1l3-1.7c1.8-1.1,3.6-2,5.4-2.9,1.8-.8,3.6-1.5,5.5-2.2,1.8-.6,3.7-1.1,5.5-1.6,1.8-.4,3.6-.8,5.5-1.2,1.4-.3,2.8-.4,4.1-.5h2.5c1.2,0,2.5,0,3.7.2,3.6.4,7.1,1.4,10.2,3,1.9,1,3.6,2.2,5.2,3.6,1.1-2,2.4-3.9,3.9-5.7,2-2.3,4.4-4.2,7.1-5.8,2.8-1.6,5.9-2.7,9.3-3.3,1.1-.2,2.2-.3,3.3-.4h1.9c1.2,0,2.3,0,3.4.2,2.7.4,5.3,1.2,7.6,2.3,2.3,1.2,4.4,2.7,6.3,4.5.3.3.7.7,1,1,1.2-2.3,2.6-4.5,4.3-6.4,2-2.3,4.4-4.2,7.1-5.8,2.8-1.6,5.9-2.7,9.3-3.3,1.1-.2,2.2-.3,3.3-.4h1.9c1.2,0,2.3,0,3.4.2,2.7.4,5.3,1.2,7.6,2.3,2.3,1.2,4.4,2.7,6.3,4.5,1.8,1.7,3.3,3.7,4.6,5.8,1.2,2,2.3,4.2,3.2,6.6.8,2.2,1.5,4.6,1.9,7s.7,4.9.8,7.4l.2,5.3c0,.8-.5,1.5-1.3,1.7l-2.3.6,1.2,15.5c0,.5-.1.9-.4,1.3l-1.9,2.1c-1.2,1.3-2.6,2.5-4,3.6-1.4,1-2.8,1.8-4.4,2.5-1.5.7-3,1.3-4.5,1.7-1.5.5-2.9.8-4.4,1.1-1.2.2-2.4.4-3.6.5h-2c-1.2,0-2.4,0-3.6-.2-2.9-.4-5.7-1.2-8.2-2.4s-4.8-2.8-6.9-4.6c-.2-.2-.5-.5-.7-.7l.2,3.1c0,.5-.1.9-.4,1.3l-1.9,2.1c-1.2,1.3-2.6,2.5-4,3.6-1.4,1-2.8,1.8-4.4,2.5-1.5.7-2.9,1.3-4.5,1.7-1.5.5-2.9.8-4.4,1.1-1.2.2-2.4.4-3.6.5h-2c-1.2,0-2.4,0-3.6-.2-2.8-.4-5.5-1.2-7.9-2.3l-26.7,10.6c-.2,0-.4.1-.6.1-.6,0-1.2-.3-1.5-.8h0l-26.6,4.9h-.3c-.3,0-.7-.1-1-.3-.4-.3-.6-.7-.7-1.1v-.6c-1.1.7-2.1,1.4-3.1,2-2.2,1.3-4.4,2.4-6.8,3.2-2.3.9-4.6,1.5-6.9,1.9-1.4.3-2.8.4-4.1.5h-2.4c-2.2,0-4.3-.2-6.4-.6-3.6-.7-7-2-10-3.9l.6,4.3c.1.9-.4,1.7-1.3,1.9l-27,6.5h-.4c-.3,0-.6,0-.9-.3-.4-.2-.7-.6-.8-1.1l-1.9-8.7c-.9,1.1-1.8,2.2-2.8,3.2-2.3,2.3-5,4.3-7.9,6-2.8,1.6-5.9,3-9.1,4.2-3.1,1.1-6.4,1.9-9.8,2.6-1.3.2-2.5.4-3.7.6-1.2.2-2.5.3-3.7.4l-6,.5h0c-.3,0-.6,0-.9-.2-.8.7-1.7,1.4-2.6,2.1-1.4,1-2.8,1.8-4.4,2.5-1.4.7-2.9,1.3-4.5,1.7-1.5.5-2.9.8-4.4,1.1-1.2.2-2.4.4-3.6.5h-2c-1.2,0-2.4,0-3.6-.2-2.9-.4-5.7-1.2-8.2-2.4s-4.8-2.8-6.9-4.6c-2-1.8-3.7-3.8-5.2-6.1-.7-1.1-1.4-2.2-2-3.4-.3.2-.5.5-.8.7-1.9,1.6-4,3-6.2,4.2-1.8.9-3.7,1.8-5.6,2.5l2.9,15.6c.2.9-.4,1.8-1.4,2l-29.3,5.4h-.3"/>
      <path class="st2" d="M354.4,64.9h-2c-1.1,0-2.3.2-3.5.4-3.6.7-6.9,1.9-9.9,3.5-2.9,1.7-5.4,3.7-7.6,6.2-1.3,1.5-2.4,3-3.5,4.7-1.9-1.7-3.9-3.1-6.1-4.2-2.5-1.3-5.3-2.1-8.2-2.5-1.2-.2-2.4-.2-3.6-.2h-2c-1.1,0-2.3.2-3.5.4-3.6.7-6.9,1.9-9.8,3.5-2.9,1.7-5.4,3.7-7.6,6.1-1.2,1.3-2.2,2.7-3.1,4.2-1.3-1-2.6-1.8-4-2.5-3.3-1.7-6.9-2.7-10.8-3.1-1.3,0-2.6-.2-3.9-.2h-2.7c-1.4,0-2.9.3-4.3.6-1.9.3-3.8.7-5.6,1.2-1.9.5-3.9,1-5.7,1.6-1.9.6-3.8,1.4-5.7,2.2-1.9.8-3.7,1.8-5.6,2.9l-2.3,1.4c-1.5-.5-3-.8-4.6-1-1.5-.2-3-.3-4.6-.3h-.3c-.9,0-1.8,0-2.7,0-.6,0-1.2,0-1.8.2-1.4.2-2.7.3-4,.6-3.6.7-7,1.8-10.1,3.4s-5.9,3.5-8.4,5.8l-.8.8v-.9c-.2-1-.8-1.8-1.6-2.4-.6-.4-1.2-.6-1.9-.6h-.8l-7,1.7-18.7,4.5-6.2,1.5c-1.7.4-2.8,2-2.6,3.7-1.8-.6-3.6-1-5.5-1.3-1.7-.2-3.4-.3-5.1-.3h-2.8c-1.6,0-3.2.3-4.9.6-3.1.6-6.2,1.4-9.3,2.3-3.3,1-6.4,2.4-9.4,4l-4.1,2.2c-.3,0-.5.3-.7.5-2.4-1.1-4.9-1.9-7.6-2.3-1.2-.2-2.4-.2-3.6-.2h-2c-1.1,0-2.3.2-3.5.4-3.6.7-6.9,1.9-9.9,3.5-2.9,1.7-5.4,3.7-7.6,6.2-1.3,1.5-2.5,3.1-3.5,4.8-1.6-1.2-3.4-2.2-5.2-3-2.3-1-4.7-1.7-7.2-2.2-2.2-.4-4.4-.6-6.7-.6s-.6,0-.8,0c-.7,0-1.5,0-2.2,0-1.7,0-3.3.3-5,.6-3.7.7-7.3,1.6-10.7,2.8-3.4,1.2-6.7,2.6-10,4.3l-4.1,2.1c-1.3.7-2,2.1-1.8,3.5l.6,4.6c.4,3.1.9,6.3,1.5,9.3.5,2.8,1.1,5.6,1.5,8.4,1,5.5,1.9,11,2.9,16.4.9,5.2,1.9,10.7,3,16.2l1.2,6.4c.2.9.7,1.7,1.4,2.2.6.4,1.2.6,1.9.6s.4,0,.6,0l6.4-1.2,16.5-3.1,6.4-1.2c1.8-.3,3.1-2.1,2.7-4l-1.2-6.4-1.4-7.8c1.5-.6,3-1.3,4.5-2.1,2-1.1,4-2.3,5.7-3.8.3.6.7,1.1,1,1.7,1.6,2.4,3.4,4.5,5.5,6.4,2.2,2,4.6,3.6,7.3,4.9,2.7,1.3,5.6,2.2,8.7,2.6,1.2.2,2.5.3,3.8.3h2.2c1.2,0,2.5-.2,3.8-.5,1.5-.3,3.1-.7,4.6-1.1,1.6-.5,3.2-1.1,4.7-1.8,1.6-.8,3.2-1.7,4.6-2.7.7-.5,1.4-1,2-1.6h.7l6-.5c1.3,0,2.6-.2,3.8-.4,1.3-.2,2.5-.4,3.8-.6,3.4-.6,6.8-1.5,10-2.6,3.4-1.2,6.5-2.6,9.4-4.3,3-1.8,5.8-3.9,8.2-6.3l.7-.7,1.2,5.4c.2.9.7,1.7,1.5,2.2.5.3,1.2.5,1.8.5h.8l6.5-1.5,14.8-3.6,5.7-1.4c1.7-.4,2.8-2,2.6-3.8v-1c2.2,1.1,4.8,1.9,7.4,2.5,2.2.4,4.4.7,6.7.7h2.5c1.4,0,2.9-.3,4.3-.6,2.3-.4,4.7-1.1,7.2-2,2.4-.9,4.8-2,7.1-3.4.4-.3.9-.5,1.3-.8.2.2.4.4.6.5.6.4,1.3.6,2,.6s.4,0,.6,0l6.5-1.2,15.3-2.8,3.8-.7c.6.5,1.3.7,2.1.7s.8,0,1.2-.2l5.2-2,15.4-6.1,5.5-2.2c2.4,1.1,5,1.8,7.7,2.1,1.2.2,2.5.3,3.8.3h2.2c1.2,0,2.5-.3,3.8-.5,1.5-.3,3.1-.7,4.6-1.1,1.6-.5,3.2-1.1,4.7-1.8,1.6-.8,3.2-1.7,4.6-2.7,1.6-1.1,3-2.4,4.3-3.8l1.9-2.1c.4-.5.7-1,.8-1.7,1.6,1.2,3.2,2.2,5,3,2.7,1.3,5.6,2.2,8.7,2.6,1.2.2,2.5.3,3.8.3h2.2c1.2,0,2.5-.2,3.8-.5,1.5-.3,3.1-.7,4.6-1.1,1.6-.5,3.1-1.1,4.7-1.8,1.6-.8,3.2-1.7,4.6-2.7,1.6-1.1,3-2.4,4.3-3.8l1.9-2.1c.6-.7.9-1.6.9-2.5l-.2-2.8-.9-11.3.9-.2c1.6-.4,2.6-1.8,2.6-3.5l-.2-5.3c-.1-2.6-.4-5.1-.9-7.6s-1.1-4.9-2-7.3-2-4.7-3.3-6.9c-1.4-2.3-3-4.3-4.9-6.1-2-1.9-4.2-3.5-6.7-4.8s-5.3-2.1-8.2-2.5c-1.2-.2-2.4-.2-3.6-.2M354.4,68.3c1.1,0,2.1,0,3.2.2,2.5.4,4.9,1.1,7.1,2.2,2.1,1.1,4.1,2.5,5.9,4.2,1.6,1.6,3.1,3.4,4.4,5.5,1.2,1.9,2.2,4,3,6.3.8,2.2,1.4,4.4,1.8,6.7.4,2.3.7,4.7.8,7.1l.2,5.3-3.6.9,1.1,14.1.2,2.8-1.9,2.1c-1.1,1.2-2.4,2.4-3.8,3.3-1.3.9-2.7,1.7-4.1,2.4s-2.8,1.2-4.2,1.7c-1.4.4-2.8.8-4.2,1-1.1.2-2.3.4-3.4.4h-1.9c-1.1,0-2.3,0-3.4-.2-2.7-.4-5.3-1.1-7.7-2.3-2.4-1.1-4.5-2.6-6.5-4.4-1.5-1.3-2.8-2.8-4-4.4l.4,5.4.2,2.8-1.9,2.1c-1.1,1.2-2.4,2.4-3.7,3.3-1.3.9-2.7,1.7-4.1,2.4s-2.8,1.2-4.2,1.7c-1.4.4-2.8.8-4.2,1-1.1.2-2.3.4-3.4.4h-1.9c-1.1,0-2.3,0-3.4-.2-2.7-.4-5.3-1.1-7.7-2.3-.1,0-.3-.1-.4-.2l-6.9,2.7-15.4,6.1-5.2,2-.6-1.1-5.9,1.1-15.3,2.8-6.5,1.2-.6-3.5c-1.6,1.4-3.2,2.6-5.1,3.7-2.1,1.2-4.3,2.3-6.5,3.1s-4.5,1.5-6.6,1.9c-1.3.2-2.7.4-3.9.5h-2.3c-2.1,0-4.1-.2-6-.6-3.9-.8-7.6-2.3-10.7-4.5-.6-.4-1.2-.9-1.8-1.4l.3,2.3.8,5.8-5.7,1.4-14.8,3.6-6.5,1.5-1.4-6.5-1.3-6.1c-1.3,2.3-2.9,4.4-4.8,6.2-2.2,2.2-4.8,4.1-7.5,5.7-2.7,1.6-5.7,2.9-8.8,4-3,1.1-6.3,1.9-9.5,2.5-1.2.2-2.4.4-3.6.6-1.2.1-2.4.3-3.6.4l-6,.5-.3-1.6-.4.4c-1.1,1.2-2.4,2.4-3.8,3.3-1.3.9-2.7,1.7-4.1,2.4s-2.8,1.2-4.2,1.7c-1.4.4-2.8.8-4.2,1-1.1.2-2.3.4-3.4.4h-1.9c-1.1,0-2.3,0-3.4-.2-2.7-.4-5.3-1.1-7.7-2.3-2.3-1.1-4.5-2.6-6.5-4.4-1.9-1.7-3.5-3.6-4.9-5.8-1.1-1.7-2.1-3.5-2.9-5.4-.7.8-1.5,1.6-2.4,2.3-1.8,1.5-3.8,2.9-5.9,4-2,1.1-4.2,2-6.5,2.8h-.3l2,10.7,1.2,6.4-6.4,1.2-16.5,3.1-6.4,1.2-1.2-6.4c-1-5.6-2-11-3-16.2-1-5.4-2-10.9-2.9-16.4-.5-2.8-1-5.7-1.5-8.5-.6-3-1.1-6.1-1.5-9.1l-.6-4.6,4.1-2.1c3.1-1.6,6.3-3,9.6-4.1,3.2-1.1,6.7-2,10.2-2.7,1.5-.3,3-.5,4.6-.6h2.8c2.1,0,4.1.2,6.1.5,2.3.4,4.4,1.1,6.5,2,2.2,1,4.3,2.2,6.1,3.8.5.5,1.1,1,1.6,1.5.2-.4.3-.7.5-1.1,1.2-2.5,2.7-4.8,4.5-6.9,1.9-2.1,4.1-4,6.7-5.4,2.6-1.5,5.5-2.5,8.8-3.1,1-.2,2.1-.3,3.1-.4h1.8c1.1,0,2.1,0,3.2.2,2.5.4,4.9,1.1,7.1,2.2,1.4.7,2.6,1.5,3.8,2.4l-.5-3.2,4.1-2.2c2.8-1.5,5.8-2.7,8.8-3.7,2.9-.9,5.9-1.7,8.9-2.2,1.5-.3,3-.5,4.5-.6h2.6c1.6,0,3.1,0,4.6.3,3.9.5,7.4,1.8,10.6,3.7h.1l-1.3-6.3,6.2-1.5,18.7-4.5,7-1.7.9,7.1.2,1.6c1.5-2.4,3.3-4.7,5.4-6.6,2.2-2.1,4.8-3.8,7.6-5.2,2.8-1.4,5.9-2.4,9.2-3,1.2-.2,2.4-.4,3.7-.5.6,0,1.1,0,1.7-.2.8,0,1.7,0,2.5,0h.3c1.4,0,2.8,0,4.1.3,1.6.2,3.1.6,4.5,1.1l.9.3,3.6-2.2c1.7-1,3.5-2,5.3-2.8,1.7-.8,3.5-1.5,5.3-2.1,1.7-.6,3.6-1.1,5.4-1.5,1.8-.4,3.6-.8,5.4-1.1,1.3-.2,2.6-.4,3.9-.5h2.4c1.2,0,2.4,0,3.5.2,3.4.4,6.7,1.3,9.6,2.8,2.5,1.3,4.6,2.9,6.5,4.9,0-.2.1-.3.2-.5,1.2-2.5,2.7-4.8,4.5-6.9,1.9-2.1,4.1-4,6.7-5.4,2.6-1.5,5.5-2.5,8.8-3.1,1-.2,2.1-.3,3.1-.4h1.8c1.1,0,2.1,0,3.2.2,2.5.4,4.9,1.1,7.1,2.2,2.1,1.1,4.1,2.5,5.9,4.2.9.9,1.8,1.9,2.6,3,.2-.5.4-1,.7-1.5,1.2-2.5,2.7-4.8,4.5-6.9,1.9-2.1,4.1-4,6.7-5.4,2.6-1.5,5.5-2.5,8.8-3.1,1-.2,2.1-.3,3.1-.4h1.8"/>
      <path class="st0" d="M62.9,154.1c-.2.8-.6,1.5-1.1,2.2-.5.6-1.1,1.2-1.9,1.6-.7.4-1.5.7-2.4.9-.3,0-.7.1-1,.2-.3,0-.6,0-1,.1l-1.5-10.4c.5-.2.9-.4,1.5-.6.5-.2,1-.3,1.5-.4,1.5-.3,2.8,0,3.9.6,1.1.7,1.8,1.8,2.1,3.3.2.9,0,1.7,0,2.5M76.6,141.9c-.9-1.6-2-2.9-3.3-4.1-1.3-1.1-2.7-2-4.3-2.7-1.6-.7-3.3-1.2-5.1-1.5-1.8-.3-3.6-.5-5.5-.4-1.9,0-3.7.2-5.5.6-3.2.6-6.3,1.4-9.2,2.4s-5.9,2.2-8.7,3.7c.4,3,.9,5.9,1.4,8.8.6,2.9,1.1,5.8,1.6,8.7,1,5.5,1.9,10.9,2.9,16.3,1,5.4,2,10.8,3,16.2l16.5-3.1-3.1-16.5c1.9-.4,3.8-.9,5.7-1.5,1.9-.6,3.7-1.4,5.5-2.3,1.7-.9,3.3-2,4.7-3.2,1.4-1.2,2.6-2.6,3.6-4.2,1-1.5,1.6-3.3,2-5.2s.3-4,0-6.3c-.4-2.1-1-4-2-5.5"/>
      <path class="st0" d="M98.7,148.1c0-.8,0-1.7.3-2.6.2-1,.4-1.9.8-2.7.4-.9.9-1.6,1.5-2.3.6-.6,1.4-1.1,2.4-1.2.8-.1,1.5,0,2.1.2.6.3,1.1.7,1.5,1.2s.8,1.1,1,1.8c.3.7.5,1.3.6,2v.8c0,0-10.2,2.9-10.2,2.9h0ZM124.1,149.8c0-2.1-.3-4.2-.7-6.3-.4-1.9-.9-3.8-1.5-5.6-.7-1.8-1.5-3.5-2.4-5.1-1-1.6-2.1-3-3.4-4.2s-2.7-2.2-4.2-3-3.3-1.3-5.1-1.6c-1.8-.3-3.8-.2-5.9.2-2.5.5-4.8,1.3-6.7,2.4-2,1.1-3.6,2.5-5.1,4.1-1.4,1.6-2.6,3.4-3.5,5.4s-1.6,4-2,6.2-.7,4.4-.6,6.7c0,2.3.2,4.5.6,6.7.4,2.1,1,4.2,1.8,6.1.8,2,1.7,3.8,2.9,5.5,1.1,1.7,2.4,3.2,3.9,4.6,1.5,1.3,3.1,2.4,4.9,3.3,1.8.9,3.7,1.4,5.8,1.7,2.1.3,4.3.2,6.6-.2,1.1-.2,2.3-.5,3.4-.9,1.2-.4,2.3-.8,3.4-1.3s2.1-1.1,3.1-1.8,1.9-1.5,2.7-2.4l-1.3-16.4c-.6.6-1.4,1.3-2.3,2.2-.9.8-1.9,1.6-2.9,2.3s-2.1,1.4-3.1,2c-1.1.6-2.1.9-3,1.1-1.8.3-3.5.1-5-.7s-2.7-2-3.7-3.5c3.9-1.3,7.8-2.6,11.7-3.9,3.9-1.3,7.8-2.5,11.8-3.5"/>
      <path class="st0" d="M154.3,144.1c-.2,1.3-.7,2.5-1.4,3.6s-1.5,2.1-2.6,3-2.3,1.5-3.6,2l-2.4-20.9c1.5-.2,2.9-.2,4,.1s2.1.8,2.9,1.6c.8.7,1.4,1.7,2,2.8.5,1.1.9,2.4,1.1,3.7.3,1.4.3,2.7,0,4M164.8,125.7c-1.6-2.5-3.7-4.4-6.1-5.9-2.4-1.5-5.1-2.4-8.1-2.8s-6.2-.3-9.6.3c-2.7.5-5.4,1.2-8.1,2s-5.3,1.9-7.7,3.2l7.6,46.4c1.1,0,2.2-.2,3.3-.3s2.2-.3,3.3-.5c3-.6,5.8-1.3,8.6-2.3,2.7-1,5.3-2.1,7.6-3.5s4.4-3,6.3-4.8c1.8-1.8,3.3-3.9,4.5-6.2s1.9-4.9,2.3-7.6c.4-2.8.2-5.8-.4-9.1-.6-3.5-1.8-6.5-3.4-9"/>
    </g>
    <polygon class="st0" points="168.6 112.8 178.9 160.7 193.8 157.2 187.3 108.3 168.6 112.8"/>
    <path class="st0" d="M227.4,120.5c-3.5.7-7,1.5-10.5,2.3l1.5,10.7,8.5-1.4.4,2.8c-.6.7-1.3,1.3-2.2,1.7s-1.8.7-2.7.9c-1.3.2-2.5.2-3.6-.2s-2.1-.9-2.9-1.7c-.8-.8-1.5-1.7-2.1-2.8-.5-1.1-.9-2.2-1.2-3.5-.4-2-.3-3.8.1-5.4.4-1.6,1.2-3,2.2-4.3,1-1.2,2.3-2.2,3.9-3.1,1.5-.8,3.3-1.4,5.2-1.7,1.3-.2,2.7-.4,4.2-.5,1.4,0,2.9,0,4.3.3l-1.5-13.7c-1-.4-2.1-.6-3.2-.8-1.2-.2-2.3-.2-3.5-.2s-2.4,0-3.5.2c-1.2,0-2.3.3-3.3.5-2.7.5-5.2,1.3-7.5,2.5-2.3,1.1-4.3,2.5-6.1,4.2s-3.3,3.5-4.5,5.6c-1.3,2.1-2.2,4.3-2.9,6.6-.7,2.3-1.1,4.8-1.3,7.3-.1,2.5,0,5.1.5,7.7.6,3.4,1.8,6.4,3.5,9s3.8,4.8,6.3,6.5,5.3,2.8,8.4,3.5c3.1.6,6.4.6,9.8,0,1.8-.3,3.6-.8,5.5-1.6,1.9-.7,3.7-1.6,5.5-2.6,1.7-1,3.3-2.2,4.8-3.6s2.6-2.8,3.4-4.4l-4.7-23.1c-3.5.8-7.1,1.6-10.6,2.3"/>
    <path class="st0" d="M268.5,113c-.4,1-.9,1.8-1.7,2.5s-1.6,1.3-2.6,1.7c-1,.5-2,.8-3,1l-.9.2-1.9-13.3c.4-.2.8-.4,1.3-.5.4,0,.9-.3,1.4-.3,1.1-.2,2-.2,2.9,0s1.6.5,2.3,1.1c.6.5,1.2,1.1,1.6,1.9s.7,1.7.9,2.7c.2,1.2.1,2.3-.2,3.2M282.2,119.2c.9-1.3,1.6-2.6,2-4,.5-1.4.7-2.9.7-4.4s-.1-3.3-.5-5.1c-.5-3-1.6-5.4-3.2-7.4s-3.5-3.6-5.7-4.7-4.7-1.8-7.3-2.1c-2.7-.3-5.3-.2-8,.3-1.8.3-3.5.7-5.1,1.1-1.7.4-3.3.9-4.8,1.4-1.6.5-3.1,1.1-4.7,1.8-1.5.7-3.1,1.5-4.6,2.4.4,2.7.8,5.5,1.2,8.1.4,2.7.9,5.4,1.4,8.1.9,5.4,1.7,10.8,2.6,16.2.9,5.4,1.8,10.8,2.7,16.2l15.3-2.8-2.1-14.9,4.4-1,8.3,14.1,15.4-6.1-11.2-13.5c1.4-1.3,2.5-2.5,3.4-3.8"/>
    <path class="st0" d="M304.3,106.9c0-.8.1-1.7.3-2.6.2-1,.4-1.9.8-2.7.4-.9.9-1.6,1.5-2.3.6-.6,1.4-1.1,2.4-1.2.8,0,1.5,0,2.1.2.6.3,1.1.7,1.5,1.2s.8,1.1,1,1.8c.3.7.5,1.3.6,2v.8c.1,0-10.2,2.9-10.2,2.9h0ZM329.8,108.7c0-2.1-.3-4.2-.7-6.3-.4-1.9-.9-3.8-1.5-5.6-.7-1.8-1.5-3.5-2.4-5.1-1-1.6-2.1-3-3.4-4.2s-2.7-2.2-4.2-3-3.3-1.3-5.1-1.6c-1.8-.3-3.8-.2-5.9.2-2.5.5-4.8,1.3-6.7,2.4-2,1.1-3.6,2.5-5.1,4.1-1.4,1.6-2.6,3.4-3.5,5.4s-1.6,4-2,6.2-.7,4.4-.6,6.7c0,2.3.2,4.5.6,6.7.4,2.1,1,4.2,1.8,6.1.8,2,1.7,3.8,2.9,5.5,1.1,1.7,2.4,3.2,3.9,4.6,1.5,1.3,3.1,2.4,4.9,3.3,1.8.9,3.7,1.4,5.8,1.7,2.1.3,4.3.2,6.6-.2,1.1-.2,2.3-.5,3.4-.9,1.2-.4,2.3-.8,3.4-1.3s2.1-1.1,3.1-1.8,1.9-1.5,2.7-2.4l-1.3-16.4c-.6.6-1.4,1.3-2.3,2.2-.9.8-1.9,1.6-2.9,2.3-1,.7-2.1,1.4-3.1,2-1.1.6-2.1.9-3,1.1-1.8.3-3.5,0-5-.7-1.5-.8-2.7-2-3.7-3.5,3.9-1.3,7.8-2.6,11.7-3.9,3.9-1.3,7.8-2.5,11.8-3.5"/>
    <path class="st0" d="M348.9,96.4c.2-1,.4-1.9.8-2.7.4-.9.9-1.6,1.5-2.3.6-.6,1.4-1.1,2.4-1.2.8,0,1.5,0,2.1.2.6.3,1.1.7,1.5,1.2s.8,1.1,1,1.8c.3.7.5,1.3.6,2v.8c.1,0-10.2,2.9-10.2,2.9,0-.8.1-1.7.3-2.6M368.2,107c-.9.8-1.9,1.6-2.9,2.3-1,.7-2.1,1.4-3.1,2-1.1.6-2.1.9-3,1.1-1.8.3-3.5,0-5-.7-1.5-.8-2.7-2-3.7-3.5,3.9-1.3,7.8-2.6,11.7-3.9,3.9-1.3,7.8-2.5,11.8-3.5,0-2.1-.3-4.2-.7-6.3-.4-1.9-.9-3.8-1.5-5.6-.7-1.8-1.5-3.5-2.5-5.1s-2.1-3-3.4-4.2-2.7-2.2-4.2-3-3.3-1.3-5.1-1.6c-1.8-.3-3.8-.2-5.9.2-2.5.5-4.8,1.3-6.7,2.4-2,1.1-3.6,2.5-5.1,4.1-1.4,1.6-2.6,3.4-3.5,5.4s-1.6,4-2,6.2-.7,4.4-.7,6.7.2,4.5.6,6.7c.4,2.1,1,4.2,1.8,6.1.8,2,1.7,3.8,2.9,5.5,1.1,1.7,2.4,3.2,3.9,4.6s3.1,2.4,4.9,3.3,3.7,1.4,5.8,1.7c2.1.3,4.3.2,6.6-.2,1.1-.2,2.3-.5,3.4-.9s2.3-.8,3.4-1.3,2.1-1.1,3.1-1.8c1-.7,1.9-1.5,2.7-2.4l-1.3-16.4c-.6.6-1.4,1.4-2.3,2.2"/>
  </g>
</svg>