<?xml version="1.0" encoding="UTF-8"?>
<svg xmlns="http://www.w3.org/2000/svg" version="1.1" viewBox="0 0 595.3 356.5">
  <!-- Generator: Adobe Illustrator 29.7.0, SVG Export Plug-In . SVG Version: 2.1.1 Build 138)  -->
  <defs>
    <style>
      .st0 {
        fill: #71d0f6;
      }

      .st1 {
        fill: #fff;
      }

      .st2 {
        display: none;
      }
    </style>
  </defs>
  <g id="Layer_2" class="st2">
    <rect class="st0" x="-29" y="-82" width="707" height="513"/>
  </g>
  <g id="Layer_1">
    <path class="st1" d="M183.1,57.2c.3.7,31.5,33.1,31.5,33.1l-29.7-37.3-1.9,4.2h0Z"/>
    <path class="st1" d="M203.6,44.3c.6-.4,19.2,35.4,19.2,35.4l-15.5-37.4-3.7,2.1h0Z"/>
    <polygon class="st1" points="193.9 50.5 222.7 92.8 199 48.8 193.9 50.5"/>
    <path class="st1" d="M209.6,43.8c-3.1,3.2-8.3,3.2-11.5,0-3.2-3.1-3.2-8.3,0-11.5,3.1-3.2,8.3-3.2,11.5,0s3.2,8.3,0,11.5"/>
    <path class="st1" d="M173.1,51.3c.3-5.4,4.8-9.5,10.2-9.2s9.5,4.9,9.2,10.2c-.3,5.4-4.9,9.4-10.2,9.2-5.4-.3-9.5-4.8-9.2-10.2"/>
    <path class="st1" d="M181.9,30.3c5.4-.1,9.8,4.1,10,9.5.2,5.3-4.1,9.8-9.5,10-5.4,0-9.8-4.1-10-9.5-.1-5.3,4.1-9.8,9.5-9.9"/>
    <path class="st1" d="M202.2,28.2c2.4,3.9,1.2,9-2.7,11.5-3.9,2.4-9.1,1.1-11.5-2.7-2.4-3.9-1.2-9.1,2.7-11.5s9-1.2,11.5,2.7"/>
    <path class="st1" d="M193.4,59.3c-5.9-.3-10.4-5.4-10.1-11.2.3-5.9,5.4-10.4,11.2-10.1,5.9.4,10.4,5.4,10.1,11.3-.4,5.9-5.4,10.4-11.3,10.1"/>
    <path class="st1" d="M375.7,26.6c-.5.5-15.6,36.1-15.6,36.1l19.5-36h-3.9Z"/>
    <path class="st1" d="M392,38.9c.5.4-21.3,26.9-21.3,26.9l24-24.6s-2.7-2.3-2.7-2.3Z"/>
    <polygon class="st1" points="384.3 33.1 360.6 70 387.1 36.6 384.3 33.1"/>
    <path class="st1" d="M394.3,43.5c-3.5-1.5-5.1-5.6-3.7-9.2,1.4-3.6,5.4-5.3,8.8-3.8,3.5,1.5,5.1,5.7,3.7,9.3s-5.4,5.3-8.8,3.8"/>
    <path class="st1" d="M377.1,16.6c4.2-1.5,8.9.8,10.3,5.2,1.5,4.4-.8,9.2-5,10.7s-8.8-.8-10.3-5.2c-1.4-4.4.8-9.2,5-10.7"/>
    <path class="st1" d="M396.1,16.9c1.8,4.3,0,9.2-4.2,11.1-4.1,1.8-8.9-.1-10.6-4.4-1.8-4.3,0-9.2,4.2-11.1,4.1-1.8,8.9.1,10.6,4.4"/>
    <path class="st1" d="M404.1,32.5c-2.3,3.2-6.6,3.9-9.7,1.5-3.1-2.4-3.7-6.9-1.5-10.1,2.3-3.2,6.6-3.9,9.7-1.5s3.7,6.9,1.5,10.1"/>
    <path class="st1" d="M377.3,35.6c-1.6-4.9.9-10.1,5.5-11.8,4.7-1.7,9.7.9,11.3,5.8,1.6,4.8-.9,10.1-5.5,11.8s-9.7-.9-11.3-5.8"/>
    <path class="st1" d="M425,279.3c-.3-.7-31.2-30.1-31.2-30.1l29.6,34.2,1.6-4.1Z"/>
    <path class="st1" d="M406.1,292.3c-.6.4-19.6-32.8-19.6-32.8l16.3,34.9,3.4-2.1h0Z"/>
    <polygon class="st1" points="415.1 286.1 386 247 410.3 287.8 415.1 286.1"/>
    <path class="st1" d="M400.4,293c2.9-3.2,7.7-3.4,10.9-.5,3.2,2.9,3.4,7.7.5,10.9-2.9,3.2-7.7,3.4-10.9.5-3.2-2.9-3.4-7.7-.5-10.9"/>
    <path class="st1" d="M434.8,284.5c0,5.1-4.2,9.2-9.3,9.1-5.1,0-9.2-4.2-9.1-9.3,0-5.1,4.2-9.2,9.3-9.1,5.1,0,9.2,4.2,9.1,9.3"/>
    <path class="st1" d="M427.2,304.7c-5.1.3-9.4-3.5-9.8-8.6-.3-5.1,3.5-9.5,8.6-9.8s9.4,3.5,9.8,8.6c.3,5.1-3.5,9.5-8.6,9.8"/>
    <path class="st1" d="M408.1,307.5c-2.5-3.6-1.5-8.5,2.1-11s8.5-1.5,11,2.1,1.5,8.5-2.1,11-8.5,1.5-11-2.1"/>
    <path class="st1" d="M415.2,277.7c5.6,0,10.1,4.7,10,10.2,0,5.6-4.6,10.1-10.3,10-5.6,0-10.1-4.7-10-10.3,0-5.6,4.7-10.1,10.3-10"/>
    <path class="st1" d="M193.9,286.9c.4-.6,14.3-37.3,14.3-37.3l-18.4,37.4h4.1,0Z"/>
    <path class="st1" d="M176,275.6c-.6-.4,20.7-28.4,20.7-28.4l-23.7,26.3,3,2.1Z"/>
    <polygon class="st1" points="184.5 280.9 207.2 242.3 181.3 277.5 184.5 280.9"/>
    <path class="st1" d="M173.4,271c3.7,1.3,5.7,5.3,4.4,9.1-1.3,3.7-5.3,5.7-9.1,4.4-3.7-1.3-5.7-5.3-4.4-9.1,1.3-3.7,5.3-5.7,9.1-4.4"/>
    <path class="st1" d="M192.9,297c-4.3,1.8-9.3-.3-11.1-4.6-1.8-4.3.3-9.3,4.6-11.1,4.3-1.8,9.3.3,11.1,4.6,1.8,4.3-.3,9.3-4.6,11.1"/>
    <path class="st1" d="M173.1,297.9c-2.1-4.2-.4-9.3,3.8-11.4s9.3-.4,11.4,3.8.4,9.3-3.7,11.4c-4.2,2.1-9.3.4-11.4-3.8"/>
    <path class="st1" d="M163.8,282.7c2.2-3.4,6.7-4.3,10.1-2.1,3.4,2.2,4.3,6.7,2.1,10.1s-6.7,4.3-10.1,2.1c-3.4-2.2-4.3-6.7-2.1-10.1"/>
    <path class="st1" d="M191.7,278c1.9,4.8-.3,10.2-5.1,12.2-4.8,1.9-10.2-.3-12.2-5.1-1.9-4.8.3-10.2,5.1-12.2,4.8-1.9,10.2.3,12.2,5.1"/>
  </g>
</svg>