<?xml version="1.0" encoding="UTF-8"?>
<svg id="Layer_1" xmlns="http://www.w3.org/2000/svg" version="1.1" viewBox="0 0 595.3 356.5">
  <!-- Generator: Adobe Illustrator 29.7.0, SVG Export Plug-In . SVG Version: 2.1.1 Build 138)  -->
  <defs>
    <style>
      .st0 {
        fill: #fff200;
      }
    </style>
  </defs>
  <polygon class="st0" points="393.3 103.4 459.6 82.6 450.4 64.9 393.3 103.4"/>
  <polygon class="st0" points="382.2 85 443.2 19.2 455.6 35.4 382.2 85"/>
  <polygon class="st0" points="147.7 107.3 107.1 50.8 93.2 65.2 147.7 107.3"/>
  <polygon class="st0" points="134.1 114.1 52.5 76.8 63.9 59.9 134.1 114.1"/>
  <polygon class="st0" points="499 233 525.4 280.9 537.6 271 499 233"/>
  <polygon class="st0" points="150.8 252.4 86.6 279.1 97.4 295.8 150.8 252.4"/>
  <polygon class="st0" points="153.4 264.7 98.6 335.6 84.8 320.7 153.4 264.7"/>
  <polygon class="st0" points="492.8 236.4 512 304.2 496.1 305.9 492.8 236.4"/>
</svg>