<?xml version="1.0" encoding="UTF-8"?>
<svg xmlns="http://www.w3.org/2000/svg" version="1.1" viewBox="0 0 595.3 356.5">
  <!-- Generator: Adobe Illustrator 29.7.0, SVG Export Plug-In . SVG Version: 2.1.1 Build 138)  -->
  <defs>
    <style>
      .st0 {
        fill: #71d0f6;
      }

      .st1 {
        fill: #f9ed25;
      }

      .st2 {
        display: none;
      }
    </style>
  </defs>
  <g id="Layer_2" class="st2">
    <rect class="st0" x="-29" y="-82" width="707" height="513"/>
  </g>
  <g id="Layer_1">
    <polygon class="st1" points="207.6 266.8 216 266.2 216.1 267.5 212.6 267.7 213.3 276.6 211.8 276.7 211.1 267.8 207.7 268.1 207.6 266.8"/>
    <polygon class="st1" points="225.2 265.5 226.7 265.4 227.4 275.5 226 275.6 225.7 271.2 220 271.6 220.3 276 218.9 276.1 218.1 266 219.6 265.9 219.9 270.3 225.6 269.8 225.2 265.5"/>
    <polygon class="st1" points="229.6 265.1 235.4 264.7 235.5 266 231.2 266.3 231.4 269.4 235.6 269.1 235.7 270.4 231.5 270.7 231.8 273.8 236.2 273.5 236.3 274.8 230.4 275.2 229.6 265.1"/>
    <g>
      <path class="st1" d="M246,265.2h-1.8c0,.1.6,7.6.6,7.6h1.8c.7-.2,1.3-.3,1.7-.4s.7-.3,1-.5.5-.4.7-.6c.7-.8.9-1.7.9-2.8s-.5-1.9-1.3-2.6c-.3-.2-.6-.4-1-.6-.4-.1-.7-.2-1-.2h-1.5M243.4,274.2l-.8-10.1,3.4-.3c1.4-.1,2.5,0,3.3.4.8.3,1.5.9,2,1.7.5.8.8,1.6.9,2.6,0,.7,0,1.3-.2,2-.2.6-.5,1.2-1,1.7s-1,.9-1.6,1.2c-.4.2-.7.3-1,.4-.3,0-.9.1-1.8.2l-3.2.2h0Z"/>
      <path class="st1" d="M259.6,264.1c-1.2,0-2.1.5-2.8,1.3-.7.8-1,1.7-.9,2.9,0,1.1.5,2,1.3,2.6.8.7,1.8,1,2.9.9,1.1,0,2-.5,2.7-1.3s1-1.7.9-2.8c0-1.1-.5-1.9-1.3-2.6s-1.8-1-2.9-.9M259.4,262.7c1.6-.1,2.9.3,4,1.2,1.1.9,1.7,2.1,1.8,3.6.1,1.5-.3,2.8-1.3,3.8-1,1.1-2.3,1.6-3.8,1.8-1.5.1-2.8-.3-3.9-1.2-1.1-.9-1.7-2.1-1.8-3.6s.3-2.8,1.2-3.9,2.2-1.7,3.8-1.8"/>
      <path class="st1" d="M273.2,266.9l3.4-.3.3,4.3c-1.2.6-2.4,1-3.6,1.1-1.7.1-3-.3-4.1-1.2s-1.7-2.1-1.8-3.5c-.1-1.5.3-2.8,1.3-3.9s2.2-1.7,3.8-1.8h1.6c.5,0,1.2.3,2,.5v1.5c-1.1-.6-2.4-.9-3.6-.8-1.1,0-2,.5-2.7,1.3s-1,1.8-.9,2.9c0,1.1.5,2.1,1.3,2.7.8.7,1.8,1,3,.9.6,0,1.3-.2,2-.6h.1l-.2-2.2h-1.9c0,.1,0-1.1,0-1.1v.2Z"/>
      <path class="st1" d="M287.2,266.3h-1.3c0,.1.2,3.3.2,3.3h1.4c.8-.2,1.3-.3,1.6-.4.3-.1.5-.4.6-.6.2-.3.2-.6.2-.9s-.1-.6-.3-.8-.5-.4-.8-.5c-.3,0-.9-.1-1.6,0M286.7,262h-1.2l.2,3.1h1c.8-.1,1.3-.3,1.6-.6s.4-.7.4-1.2c0-1-.7-1.4-2-1.3M288.1,270.8l-3.4.3-.8-10.1,2.6-.2c.8,0,1.5,0,2,.2s.9.5,1.1.8c.3.4.4.8.5,1.3,0,1-.4,1.7-1.4,2.3.7,0,1.4.3,1.8.8.5.4.7,1,.8,1.6,0,.5,0,1-.3,1.4-.2.4-.6.8-1.1,1.1-.5.3-1.1.5-1.9.5"/>
    </g>
    <rect class="st1" x="293.4" y="260.3" width="1.4" height="10.1" transform="translate(-19.5 23.3) rotate(-4.4)"/>
    <polygon class="st1" points="305.5 259.3 306.8 259.2 307.6 269.3 306.4 269.4 299 262.1 299.6 269.9 298.3 270 297.5 259.9 298.7 259.8 306.1 267.1 305.5 259.3"/>
    <g>
      <path class="st1" d="M315.6,263.7l3.4-.3.3,4.3c-1.2.6-2.4,1-3.6,1.1-1.7.1-3-.3-4.1-1.2-1.1-.9-1.7-2.1-1.8-3.5-.1-1.5.3-2.8,1.3-3.9s2.2-1.7,3.8-1.8h1.6c.5,0,1.2.3,2,.5v1.5c-1.1-.6-2.4-.9-3.6-.8-1.1,0-2,.5-2.7,1.3s-1,1.8-.9,2.9c0,1.1.5,2.1,1.4,2.7s1.8,1,3,.9c.6,0,1.3-.2,2-.6h.1l-.2-2.2h-1.9c0,.1,0-1.1,0-1.1v.2Z"/>
      <path class="st1" d="M326.5,258.9c-1.2,0-2.1.5-2.8,1.3-.7.8-1,1.7-.9,2.9,0,1.1.5,2,1.3,2.6.8.7,1.8,1,2.9.9,1.1,0,2-.5,2.7-1.3s1-1.7.9-2.8c0-1.1-.5-1.9-1.3-2.6s-1.8-1-2.9-.9M326.4,257.5c1.6-.1,2.9.3,4,1.2,1.1.9,1.7,2.1,1.8,3.6.1,1.5-.3,2.8-1.3,3.8-1,1.1-2.3,1.6-3.8,1.8-1.5.1-2.8-.3-3.9-1.2-1.1-.9-1.7-2.1-1.8-3.6-.1-1.5.3-2.8,1.2-3.9.9-1.1,2.2-1.7,3.8-1.8"/>
      <path class="st1" d="M345.1,261.4l3.4-.3.3,4.3c-1.2.6-2.4,1-3.6,1.1-1.7.1-3-.3-4.1-1.2-1.1-.9-1.7-2.1-1.8-3.5-.1-1.5.3-2.8,1.3-3.9s2.2-1.7,3.8-1.8h1.6c.5,0,1.2.3,2,.5v1.5c-1.1-.6-2.4-.9-3.6-.8-1.1,0-2,.5-2.7,1.3s-1,1.8-.9,2.8c0,1.1.5,2,1.4,2.7.8.7,1.8,1,3,.9.6,0,1.3-.2,2-.6h.1l-.2-2.2h-1.9c0,.1,0-1.1,0-1.1v.3Z"/>
    </g>
    <path class="st1" d="M356.7,261.2l-1.9-3.5-1.2,3.8,3.1-.2h0ZM354.1,255.5h1l5.3,9.7h-1.5c0,.1-1.6-2.8-1.6-2.8l-4.3.3-1,3.1h-1.5c0,.1,3.6-10.4,3.6-10.4h0Z"/>
    <polygon class="st1" points="369.6 254.4 370.9 254.3 371.7 264.4 370.2 264.5 369.6 256.6 366.8 260.7 366.6 260.8 363.1 257.1 363.7 265 362.3 265.1 361.5 255 362.9 254.9 366.5 258.8 369.6 254.4"/>
    <polygon class="st1" points="373.8 254 379.5 253.6 379.6 254.9 375.4 255.2 375.6 258.3 379.7 258 379.8 259.3 375.7 259.6 375.9 262.7 380.4 262.4 380.5 263.7 374.6 264.1 373.8 254"/>
  </g>
</svg>