<?xml version="1.0" encoding="UTF-8"?>
<svg id="Layer_2" xmlns="http://www.w3.org/2000/svg" version="1.1" viewBox="0 0 595.3 356.5">
  <!-- Generator: Adobe Illustrator 29.7.0, SVG Export Plug-In . SVG Version: 2.1.1 Build 138)  -->
  <defs>
    <style>
      .st0 {
        fill: #fff;
      }
    </style>
  </defs>
  <path class="st0" d="M10,55.5c5.4,0,9.8-4.4,9.8-9.8s-4.4-9.8-9.8-9.8S.2,40.3.2,45.7s4.4,9.8,9.8,9.8"/>
  <path class="st0" d="M78,357c5.3-.6,9.2-5.5,8.6-10.9-.6-5.3-5.5-9.2-10.9-8.6-5.3.6-9.2,5.5-8.6,10.9.6,5.3,5.5,9.2,10.9,8.6"/>
  <path class="st0" d="M511.4,128.2c4.2,0,7.6-3.4,7.6-7.6s-3.4-7.6-7.6-7.6-7.6,3.4-7.6,7.6,3.4,7.6,7.6,7.6"/>
  <path class="st0" d="M82.6,121.3c4.2,0,7.6-3.4,7.6-7.6s-3.4-7.6-7.6-7.6-7.6,3.4-7.6,7.6,3.4,7.6,7.6,7.6"/>
  <path class="st0" d="M80.8,301.6c4.1-.5,7.1-4.3,6.6-8.4-.5-4.2-4.3-7.1-8.4-6.6s-7.1,4.3-6.6,8.4,4.3,7.1,8.4,6.6"/>
  <path class="st0" d="M534.9,288.5c3.1,1.1,6.5-.5,7.7-3.5,1.1-3.1-.5-6.5-3.6-7.6s-6.5.5-7.6,3.5c-1.1,3.1.5,6.5,3.5,7.7"/>
  <path class="st0" d="M469.7,16.2c4.2,0,7.6-3.4,7.6-7.6s-3.4-7.6-7.6-7.6-7.6,3.4-7.6,7.6,3.4,7.6,7.6,7.6"/>
</svg>