<?xml version="1.0" encoding="UTF-8"?>
<svg id="Layer_1" xmlns="http://www.w3.org/2000/svg" version="1.1" viewBox="0 0 595.3 356.5">
  <!-- Generator: Adobe Illustrator 29.7.0, SVG Export Plug-In . SVG Version: 2.1.1 Build 138)  -->
  <defs>
    <style>
      .st0 {
        fill: #fff200;
      }
    </style>
  </defs>
  <path class="st0" d="M549.3,179.4c5.4,0,9.8-4.4,9.8-9.8s-4.4-9.8-9.8-9.8-9.8,4.4-9.8,9.8,4.4,9.8,9.8,9.8"/>
  <path class="st0" d="M76.4,230.9c5.4,0,9.8-4.4,9.8-9.8s-4.4-9.8-9.8-9.8-9.8,4.4-9.8,9.8,4.4,9.8,9.8,9.8"/>
  <path class="st0" d="M504.3,334.5c-1.7,2.8-.8,6.5,2,8.2s6.5.8,8.2-2,.8-6.5-2-8.2-6.5-.8-8.2,2"/>
</svg>