<?xml version="1.0" encoding="UTF-8"?>
<svg id="Layer_1" xmlns="http://www.w3.org/2000/svg" version="1.1" width="50.6" height="64.5" viewBox="0 0 50.6 64.5">
  <!-- Generator: Adobe Illustrator 29.7.0, SVG Export Plug-In . SVG Version: 2.1.1 Build 138)  -->
  <defs>
    <style>
      .st0 {
        fill: #fff;
      }
    </style>
  </defs>
  <path class="st0" d="M39.5,32.6c-.3-.7-31.2-30.1-31.2-30.1l29.6,34.2,1.6-4.1Z"/>
  <path class="st0" d="M20.6,45.6C20,46,1,12.8,1,12.8l16.3,34.9,3.4-2.1h0Z"/>
  <polygon class="st0" points="29.6 39.4 .5 .3 24.8 41.1 29.6 39.4"/>
  <path class="st0" d="M14.9,46.3c2.9-3.2,7.7-3.4,10.9-.5,3.2,2.9,3.4,7.7.5,10.9-2.9,3.2-7.7,3.4-10.9.5-3.2-2.9-3.4-7.7-.5-10.9"/>
  <path class="st0" d="M49.3,37.8c0,5.1-4.2,9.2-9.3,9.1-5.1,0-9.2-4.2-9.1-9.3,0-5.1,4.2-9.2,9.3-9.1,5.1,0,9.2,4.2,9.1,9.3"/>
  <path class="st0" d="M41.7,58c-5.1.3-9.4-3.5-9.8-8.6-.3-5.1,3.5-9.5,8.6-9.8s9.4,3.5,9.8,8.6c.3,5.1-3.5,9.5-8.6,9.8"/>
  <path class="st0" d="M22.6,60.8c-2.5-3.6-1.5-8.5,2.1-11s8.5-1.5,11,2.1,1.5,8.5-2.1,11-8.5,1.5-11-2.1"/>
  <path class="st0" d="M29.7,31c5.6,0,10.1,4.7,10,10.2,0,5.6-4.6,10.1-10.3,10-5.6,0-10.1-4.7-10-10.3,0-5.6,4.7-10.1,10.3-10"/>
</svg>