<?xml version="1.0" encoding="UTF-8"?>
<svg id="Layer_1" xmlns="http://www.w3.org/2000/svg" version="1.1" viewBox="0 0 720 340.8">
  <!-- Generator: Adobe Illustrator 29.7.0, SVG Export Plug-In . SVG Version: 2.1.1 Build 138)  -->
  <defs>
    <style>
      .st0 {
        fill: #fff;
      }
    </style>
  </defs>
  <path class="st0" d="M239.9,76.8c-21.8-14.3-35-38.6-35-64.8h-55.3v222.6c-1.1,25.7-22.7,45.8-48.3,44.8-25.6-1-45.7-22.7-44.6-48.4.9-25.1,21.5-44.9,46.4-44.9s9.3.8,13.7,2.2v-56.7c-4.6-.7-9.1-1-13.7-1C47,130.6,1.3,176.4,1.3,232.8c.1,56.4,45.6,102.2,101.8,102.2,56.1,0,101.8-45.8,101.8-102.2v-112.8c22.4,16.2,49.3,24.9,76.9,24.9v-55.5c-14.9,0-29.5-4.3-41.9-12.5"/>
  <path class="st0" d="M476.4,15.5v15.2h146.5c9.2,0,17.9,1.9,25.9,5.2,11.9,5,22.1,13.5,29.2,24.1,7.2,10.6,11.3,23.3,11.3,37.1v146.5c0,9.2-1.8,17.9-5.2,25.9-5,11.9-13.5,22.1-24.1,29.2-10.6,7.2-23.3,11.3-37.1,11.4h-146.5c-9.2,0-17.9-1.9-25.9-5.2-11.9-5-22.1-13.5-29.2-24.1-7.2-10.6-11.4-23.3-11.4-37.1V97.2c0-9.2,1.9-17.9,5.2-25.9,5-11.9,13.5-22.1,24.1-29.2,10.6-7.2,23.3-11.3,37.1-11.4V.4c-13.3,0-26.1,2.7-37.7,7.6-17.4,7.4-32.1,19.6-42.6,35.1-10.4,15.4-16.6,34.1-16.6,54.1v146.5c0,13.3,2.7,26.1,7.6,37.7,7.4,17.4,19.6,32.1,35.1,42.6,15.4,10.4,34.1,16.6,54.1,16.5h146.5c13.3,0,26.1-2.7,37.7-7.6,17.4-7.4,32.2-19.6,42.6-35,10.4-15.4,16.5-34.1,16.5-54.1V97.2c0-13.3-2.7-26.1-7.6-37.7-7.4-17.4-19.6-32.1-35-42.6-15.4-10.4-34.1-16.6-54.1-16.5h-146.5v15.2Z"/>
  <path class="st0" d="M549.6,98.2v15.2c7.9,0,15.4,1.6,22.2,4.5,10.2,4.3,18.9,11.6,25.1,20.7,3.1,4.5,5.5,9.6,7.2,14.9,1.7,5.3,2.6,11,2.6,17s-1.6,15.4-4.5,22.2c-4.3,10.2-11.6,18.9-20.7,25.1-4.5,3.1-9.6,5.5-14.9,7.2-5.3,1.7-11,2.6-17,2.6s-15.4-1.6-22.2-4.5c-10.2-4.3-18.9-11.6-25.1-20.7-3.1-4.5-5.5-9.6-7.2-14.9-1.7-5.3-2.6-11-2.6-17s1.6-15.4,4.5-22.2c4.3-10.2,11.6-18.9,20.7-25.1,4.5-3.1,9.6-5.5,14.9-7.2,5.3-1.7,11-2.6,17-2.6v-30.3c-12,0-23.6,2.4-34,6.9-15.7,6.6-29,17.7-38.4,31.7-9.4,13.9-15,30.8-14.9,48.9,0,12,2.4,23.6,6.9,34,6.6,15.7,17.7,29,31.7,38.4,13.9,9.4,30.8,15,48.9,15s23.6-2.5,34-6.9c15.7-6.6,29-17.7,38.4-31.6,9.4-13.9,15-30.8,14.9-48.9,0-12-2.4-23.6-6.9-34-6.6-15.7-17.7-29-31.7-38.4-13.9-9.4-30.8-15-48.9-14.9v15.2Z"/>
  <path class="st0" d="M640.7,59.5c11,0,19.9,8.9,19.9,19.9s-8.9,19.9-19.9,19.9-19.9-8.9-19.9-19.9,8.9-19.9,19.9-19.9"/>
</svg>