<?xml version="1.0" encoding="UTF-8"?>
<svg id="Layer_1" xmlns="http://www.w3.org/2000/svg" version="1.1" viewBox="0 0 720 720">
  <!-- Generator: Adobe Illustrator 29.7.0, SVG Export Plug-In . SVG Version: 2.1.1 Build 138)  -->
  <defs>
    <style>
      .st0 {
        letter-spacing: 0em;
      }

      .st1 {
        letter-spacing: 0em;
      }

      .st2 {
        letter-spacing: 0em;
      }

      .st3 {
        letter-spacing: 0em;
      }

      .st4 {
        fill: #fdec06;
      }

      .st5, .st6 {
        fill: #0093d8;
      }

      .st7 {
        letter-spacing: 0em;
      }

      .st8 {
        letter-spacing: 0em;
      }

      .st9 {
        letter-spacing: 0em;
      }

      .st6 {
        font-family: LuckiestGuy-Regular, 'Luckiest Guy';
        font-size: 65.9px;
      }
    </style>
  </defs>
  <circle class="st4" cx="360.5" cy="360" r="359.7"/>
  <g>
    <path class="st5" d="M68.9,254.2c.8,4.4,1.2,8.5,1.3,12.3,0,3.8-.1,7.3-.6,10.3-.5,3.1-1.2,5.8-2.2,8.2-1,2.4-2.1,4.4-3.4,6.1-1.3,1.7-2.6,3.2-4.1,4.4-1.5,1.2-2.9,2.2-4.4,3,.8,7.3,1.6,14.6,2.5,21.9-5,0-10,0-15,.1,0-4.9,0-9.8,0-14.7,0-4.9,0-9.8,0-14.9,0-2.7,0-5.3,0-7.9,0-2.6,0-5.3,0-8.2,1.3-4.7,2.5-9.4,3.8-13.9,1.3-4.5,2.7-8.9,4.2-13,.9-2.4,1.8-4.5,2.8-6.3,1-1.8,2-3.3,3-4.2,1-1,2.1-1.4,3.2-1.4,1.1,0,2.2.8,3.2,2.1,1,1.3,2,3.4,3,6,.9,2.6,1.8,6,2.5,10ZM58.7,268.9c-.3-2.4-.9-3.8-1.7-4.3-.8-.5-1.6,0-2.5,1.4-.3.5-.6,1-.9,1.6-.3.6-.6,1.2-.8,1.8.5,4.8.9,9.5,1.3,14.2l.7-.6.7-.6c.6-.6,1.1-1.3,1.6-2.3.5-1,.9-2,1.2-3.3.3-1.2.5-2.5.6-3.9,0-1.4,0-2.8-.2-4.2Z"/>
    <path class="st5" d="M100.8,221.8c1,5.2,1.8,10.1,2.4,14.5.6,4.4.9,8.6,1,12.4.1,3.9,0,7.5-.3,10.9-.3,3.4-.9,6.7-1.7,9.9,4.9,12.2,10,25.3,15.3,39.3-4.2,3.4-8.4,6.5-12.7,9.2-4.1-12.6-8-24.6-11.8-36-1.2.6-2.4,1.2-3.6,1.9,2,11.4,3.9,22.7,5.8,33.9-4.6.2-9.1.3-13.7.5-1.7-10.5-3.5-21-5.2-31.5-1.8-10.5-3.5-21.1-5.3-31.7-.9-5.4-1.8-10.7-2.7-16-.9-5.3-1.8-10.7-2.6-16.2.8-3.1,1.6-6,2.4-8.6.8-2.7,1.7-5.2,2.6-7.5.9-2.3,1.9-4.6,2.9-6.6,1-2.1,2.1-4.1,3.2-6.1,1.8-3,3.7-5,5.7-5.7,2.1-.8,4.2-.1,6.4,2,2.2,2.1,4.3,5.9,6.4,11.1,2.1,5.2,4,12.1,5.6,20.5ZM89.2,235.9c-.5-2.5-1-4.7-1.6-6.5-.6-1.9-1.2-3.3-1.9-4.4-.7-1.1-1.4-1.7-2.1-1.8-.7-.2-1.5.2-2.2,1.1-.3.4-.6.9-.9,1.4-.3.5-.6,1.1-.8,1.8,1.8,10.4,3.6,20.7,5.4,30.9l.7-.5c.8-.6,1.5-1.5,2.2-2.7.7-1.2,1.2-2.8,1.6-4.6.4-1.8.6-4,.6-6.4,0-2.5-.3-5.2-.9-8.2Z"/>
    <path class="st5" d="M138.9,215.3c1.3,7.4,2.5,14.8,3.6,22.3-3.4,2.5-6.6,5.5-9.8,9-3.1,3.5-6.2,6.9-9.3,10.2,1.5,5.1,3.2,9.1,5,12,1.8,2.9,3.4,4.1,5,3.7.8-.2,1.6-1.1,2.4-2.6.8-1.5,1.5-3.3,2.1-5.4.6-2.1,1.2-4.4,1.7-6.9.5-2.4.9-4.7,1.3-6.7,2.9,19,5.8,37.8,8.7,56.5-.4,2.5-.9,4.7-1.6,6.4-.7,1.7-1.4,3.1-2.3,4.2-.9,1-1.8,1.8-2.8,2.3-1,.5-2,.7-3,.7-2.1,0-4.3-1-6.4-3-2.1-2-4.2-4.6-6.3-8-2.1-3.4-4.1-7.3-6-11.7-1.9-4.4-3.7-9.2-5.5-14.3-1.7-5.1-3.3-10.6-4.8-16.3-1.5-5.7-2.8-11.6-3.9-17.5-1.2-6.3-2.3-12.6-3.1-19.1-.9-6.5-1.6-13-2.1-19.5-.5-6.5-.8-12.8-.8-18.9,0-6.2.2-12,.7-17.4.5-5.4,1.4-10.3,2.6-14.6,1.2-4.3,2.8-7.6,4.8-10,1.7-2,3.4-2.8,5.2-2.4,1.8.4,3.6,1.8,5.3,4.2,1.8,2.4,3.6,5.7,5.3,9.9,1.8,4.2,3.5,9.1,5.1,14.7,1.6,5.6,3.2,11.6,4.7,18.1,1.5,6.5,2.8,13.3,4.1,20.2ZM125.5,216.3c-.4-2.2-.9-4.4-1.4-6.7-.6-2.2-1.1-4.2-1.8-5.9-.6-1.7-1.3-3-1.9-3.8-.7-.9-1.3-1-2-.5-.8.6-1.3,2-1.6,4.1-.3,2.1-.4,4.6-.4,7.3,0,2.8.2,5.7.4,8.7.3,3,.6,5.8.9,8.3,2.7-2.9,5.5-5.9,8.2-8.9-.2-.9-.3-1.7-.5-2.6Z"/>
    <path class="st5" d="M147.3,246.8c-2.3-12.9-4.7-25.7-7-38.5,6.5-5.2,13.1-10.2,19.8-15.2,2.7,16.1,5.4,32.1,8,48.2-7.1,1.7-14,3.5-20.9,5.5Z"/>
    <path class="st5" d="M208.3,192.1c1.3,9.9,2.3,19.5,3,28.8.7,9.3,1.2,18,1.3,26.2.2,8.2,0,15.6-.3,22.4-.4,6.8-1,12.5-1.9,17.3-.9,4.8-2.1,8.5-3.5,11.2-1.4,2.7-3.2,4-5.2,4.2-1.9.1-4-.9-6.1-3.1-2.1-2.2-4.2-5.3-6.4-9.2-2.2-3.9-4.3-8.6-6.5-14.1-2.1-5.5-4.2-11.6-6.2-18.2-2-6.7-3.8-13.8-5.6-21.5-1.8-7.7-3.3-15.7-4.7-24.2-1.3-8.3-2.4-16.5-3.3-24.7-.8-8.2-1.4-16.1-1.7-23.7-.3-7.6-.3-14.8,0-21.7.3-6.8.9-13,1.7-18.5.9-5.5,2-10.1,3.5-13.9,1.5-3.8,3.2-6.4,5.3-7.8,3.3-2.2,6.8-1.9,10.2,1.2,3.5,3,6.8,8.5,10,16.4,3.2,7.9,6.2,18.1,8.9,30.5,2.8,12.4,5.1,26.6,7.2,42.4ZM193.7,201.3c-.6-4.5-1.4-8.8-2.3-12.9-.9-4.1-1.8-7.7-2.8-10.7-1-3-2.1-5.4-3.2-7-1.1-1.7-2.2-2.2-3.2-1.7-1.1.5-1.9,1.8-2.5,3.9-.6,2.1-.9,4.8-1.1,8-.1,3.2,0,6.9.2,11,.3,4.1.8,8.3,1.4,12.8.6,4.2,1.4,8.4,2.3,12.5.9,4.1,1.9,7.8,2.9,11.1,1,3.3,2.1,5.9,3.2,7.8,1.1,1.9,2.2,2.8,3.2,2.5,1-.3,1.8-1.5,2.4-3.6.6-2.1.9-4.9,1-8.3.1-3.4,0-7.3-.3-11.7-.3-4.4-.8-8.9-1.4-13.5Z"/>
    <path class="st5" d="M248.5,145.3c.9,9.2,1.5,17.7,1.9,25.3.4,7.6.5,14.6.4,21,0,6.4-.4,12.4-1,17.9-.6,5.5-1.3,10.8-2.4,15.8,5.2,24.3,10.3,49,15.2,74-4.4,5.4-8.8,10.7-13.1,15.8-4.3-24.5-8.6-48.9-13.1-72.9-1.4.5-2.7.9-4.1,1.4,2.5,23.6,5,47.1,7.5,70.6-4.6,0-9.3.1-13.9.2-3.1-24.9-6.1-49.8-9.2-74.5-3-24.7-6.1-49.6-9.1-74.6-1.6-12.6-3.1-25.1-4.6-37.5-1.5-12.4-3-24.9-4.5-37.6,1.3-3.7,2.7-7,4.1-9.7,1.4-2.7,2.9-5.1,4.5-7,1.6-1.9,3.2-3.5,4.9-4.8,1.7-1.2,3.5-2.3,5.4-3.2,2.9-1.3,5.9-.8,8.9,1.7,3.1,2.5,6,7.1,8.8,13.7,2.8,6.6,5.3,15.3,7.6,26,2.3,10.7,4.1,23.5,5.5,38.4ZM232.9,155.5c-.5-4.8-1.1-9.2-1.8-13.2-.7-4-1.5-7.3-2.4-10.1-.9-2.7-1.8-4.8-2.8-6.2-1-1.4-2-1.8-3.1-1.4-.5.2-.9.5-1.4,1-.4.5-.8,1.1-1.2,1.8,2.2,21.2,4.4,42.3,6.6,63.4.3,0,.6-.1.8-.2,1-.3,1.9-1.2,2.8-2.7.9-1.5,1.6-3.7,2.2-6.6.5-2.9.9-6.4,1-10.7,0-4.3-.2-9.3-.8-15.1Z"/>
    <path class="st5" d="M295,167.8c1,17.5,1.4,33.2,1.4,47.1,0,13.9-.5,26.3-1.3,37-.8,10.7-2,19.8-3.5,27.4-1.5,7.5-3.2,13.6-5.2,18.4-2,4.8-4.2,8.3-6.6,10.5-2.4,2.2-5,3.4-7.7,3.4-1,0-2-.1-3-.4-1-.3-2-.7-3.1-1.3-6.8-77.4-13.5-155-20.1-232.7,2.4-5.1,5.1-9.1,8-11.8,2.9-2.7,5.8-4.5,8.8-5.4,3.7-1.1,7.4.4,10.9,4.5,3.5,4.1,6.7,10.8,9.5,19.9,2.9,9.1,5.3,20.7,7.4,34.6,2,13.9,3.6,30.2,4.6,48.7ZM275.6,241.8c1.3-1.2,2.4-3.6,3.3-7.1.9-3.5,1.6-7.8,2.1-12.8.5-5.1.7-10.8.8-17.2,0-6.4-.2-13.2-.7-20.3-.5-7-1.1-13.5-1.8-19.6-.7-6-1.6-11.2-2.5-15.6-1-4.4-2.1-7.7-3.4-10.2-1.3-2.4-2.7-3.6-4.3-3.5,2.2,35.5,4.4,70.8,6.7,106.2Z"/>
    <path class="st5" d="M338.4,161.3c.2,11.1.3,22.3.2,33.4-4.1,1.6-8.1,4-12.1,7.4-3.9,3.3-7.9,6.7-11.7,10,1,9.1,2.2,16.3,3.7,21.7,1.5,5.4,3.1,8,4.9,8,.9,0,1.9-1,2.9-3,1-1.9,2.1-4.4,3.1-7.3,1-2.9,2-6.1,2.9-9.4.9-3.4,1.7-6.4,2.4-9.1.1,29,.3,58,.5,87-.8,3.8-1.6,7.1-2.5,9.8-.9,2.7-1.9,4.9-2.9,6.5-1,1.7-2,2.9-3.1,3.6-1,.8-2.1,1.1-3.1,1.1-2.1,0-4.1-1.7-6-5.1-1.9-3.4-3.7-8.1-5.5-14.2-1.7-6.1-3.4-13.2-4.9-21.5-1.5-8.2-2.9-17.2-4.2-26.9-1.3-9.7-2.4-20-3.4-30.8-1-10.8-1.8-21.8-2.4-32.9-.6-11.6-1.1-23.3-1.3-34.9-.2-11.7-.2-23,.1-33.9.3-10.9.9-21.1,1.8-30.5.9-9.5,2.1-17.8,3.7-25,1.5-7.2,3.4-13,5.7-17.3,2.2-4.3,4.8-6.7,7.7-7,2.4-.3,4.7,1,6.8,3.9,2.1,2.9,4,7.1,5.7,12.5,1.7,5.4,3.2,11.9,4.5,19.5,1.3,7.6,2.4,15.9,3.3,25,.9,9.1,1.6,18.7,2.2,28.9.5,10.2.9,20.5,1.1,31ZM323.3,152.3c-.1-3.6-.3-7.2-.6-11-.3-3.7-.6-7.1-1.1-10.1-.4-3-1-5.5-1.6-7.4-.6-1.9-1.4-2.8-2.2-2.8-1,.1-1.9,1.6-2.6,4.4-.7,2.8-1.2,6.3-1.6,10.5-.4,4.2-.7,8.7-.8,13.5-.2,4.8-.2,9.3-.2,13.4,3.6-2.1,7.2-4.2,10.8-6.3,0-1.4,0-2.8-.1-4.2Z"/>
    <path class="st5" d="M385.1,131.4c-.2,10-.6,19-1,27.1-.5,8.1-1.2,15.5-2,22.3-.8,6.8-1.8,13-3,18.7-1.2,5.7-2.6,11.2-4.2,16.4,2.5,27.2,4.8,54.4,6.8,81.6-5.1,5.6-10,11.2-14.9,16.9-1.5-27.3-3.2-54.7-4.9-82-1.4.3-2.9.5-4.3.8-.1,26.7-.2,53.4-.3,80.1-4.6,0-9.3,0-13.9,0-.4-29.2-.8-58.2-1.2-87.2-.4-28.9-.8-58-1.1-87.2-.2-14.7-.4-29.3-.6-43.8-.2-14.5-.3-29.1-.4-43.8,1.8-3.4,3.7-6.3,5.5-8.6,1.8-2.3,3.7-4,5.6-5.3,1.9-1.3,3.8-2.1,5.7-2.6,1.9-.5,3.9-.7,6-.7,3.1,0,6.2,2.1,9.1,6.2,2.9,4.1,5.4,10.3,7.5,18.5,2.1,8.2,3.7,18.3,4.8,30.4,1.1,12.1,1.4,26.1,1.1,42.1ZM368,137c0-5.4,0-10.3-.4-14.8-.3-4.5-.7-8.4-1.3-11.7-.6-3.3-1.3-5.9-2.2-7.7-.9-1.9-1.9-2.8-3.1-2.8-.5,0-1,.2-1.5.5-.5.3-1,.8-1.4,1.5-.2,23.9-.3,47.7-.4,71.6.3,0,.6,0,.9,0,1.1,0,2.1-.7,3.2-2.1,1.1-1.4,2.1-3.6,3-6.5.9-2.9,1.6-6.7,2.2-11.3.6-4.6.9-10.1.9-16.5Z"/>
    <path class="st5" d="M438.5,300.8c-5.7,3.8-11.4,7.6-17,11.6.2-14.1.3-28.2.5-42.3-2.6-.1-5.1-.2-7.7-.3-1.3,14.2-2.5,28.4-3.7,42.6-5.4-3.2-10.8-6.4-16.3-9.6,7.1-84.7,15.2-168.8,24.3-251.9,7.6-.5,15.1-.8,22.6-.8,0,84.7-.9,168.5-2.7,250.8ZM424,212.7c.3-21.8.6-43.7.8-65.6-2.1,21.7-4.1,43.4-6.1,65.1,1.8.2,3.5.3,5.3.5Z"/>
    <path class="st5" d="M487.8,230.4c-1.4,12.9-2.9,25.6-4.3,38.2-1.5,12.6-3,25.3-4.5,38-6.2-.8-12.4-1.5-18.6-2.3,2.6-20.9,5.2-41.7,7.7-62.5,2.5-20.7,4.8-41.7,6.8-62.9.1-1.5.4-4,.7-7.4.3-3.4.6-7.3,1-11.6.3-4.3.7-8.8,1-13.3.3-4.6.5-8.8.6-12.6.1-3.8.1-7,0-9.6-.1-2.5-.4-3.9-.9-4-.8-.3-1.7.7-2.5,2.9-.8,2.2-1.6,5.1-2.3,8.8-.7,3.6-1.4,7.8-2,12.3-.6,4.6-1.2,9.2-1.8,13.8-.5,4.6-1,9-1.4,13.1-.4,4.1-.7,7.5-1,10.1-2,21.1-4,42-5.9,62.8-1.9,20.8-3.9,41.8-5.9,63.1-5.6,1.2-11.3,2.4-16.9,3.7,3.6-43.2,7.2-86,10.9-128.5,3.6-42.5,7.2-85.2,10.8-128.2,6.3.4,12.6.9,18.9,1.7-.9,9.5-1.8,19-2.7,28.5,1.1-3.8,2.2-7.4,3.4-10.6,1.2-3.3,2.3-6,3.5-8.2,1.2-2.2,2.4-3.8,3.6-4.9,1.2-1.1,2.4-1.3,3.6-.9,2.2.9,3.9,3.3,5.2,7.2,1.3,3.9,2.2,8.9,2.8,14.9.6,6,.8,12.9.8,20.8,0,7.8-.3,16-.8,24.7-.5,8.6-1.1,17.6-1.9,26.8-.8,9.3-1.6,18.3-2.5,27.3-.9,8.9-1.8,17.5-2.8,25.8-.9,8.3-1.8,15.9-2.5,22.7Z"/>
    <path class="st5" d="M535.5,195.1c-2.1,14.4-4.4,27.1-6.8,38.3-2.5,11.2-5,21.1-7.7,29.8-2.7,8.6-5.4,16-8.2,22.2-2.8,6.1-5.6,11.2-8.5,15.2-2.8,4-5.7,7-8.5,8.9-2.8,1.9-5.6,2.8-8.3,2.8-1,0-2-.2-2.9-.5-.9-.3-1.9-.7-2.8-1.3,8.7-73.7,17.5-147.3,26.3-220.8,3.2-2.7,6.3-4.2,9.3-4.4,3-.2,6,.5,8.7,2,3.5,1.9,6.3,5.8,8.6,11.7,2.3,5.9,3.8,13.5,4.7,22.7.9,9.2,1,20,.4,32.2-.6,12.3-2,25.9-4.2,41.1ZM504.4,249.8c1.5-.7,2.9-2.5,4.4-5.3,1.5-2.8,2.9-6.2,4.3-10.4,1.4-4.2,2.7-8.9,3.8-14.3,1.2-5.4,2.2-11.2,3-17.4.8-6.1,1.5-11.8,1.9-17.2.4-5.4.6-10.2.5-14.3-.1-4.2-.5-7.6-1.2-10.3-.7-2.7-1.8-4.5-3.3-5.3-4.5,31.4-9,62.9-13.5,94.6Z"/>
    <path class="st5" d="M577.2,253.1c-2.1,11.6-4.4,21.4-6.9,29.6-2.5,8.3-5.2,15.1-7.9,20.6-2.7,5.5-5.5,9.6-8.4,12.2-2.8,2.7-5.6,4.1-8.4,4-1.1,0-2.1-.6-3.2-1.9-1.1-1.2-2.1-2.8-3.1-4.7-1-1.9-1.9-4-2.8-6.2-.8-2.2-1.6-4.4-2.2-6.4,3.5-19.1,7-38.1,10.4-57.1,1.1,5.5,2.5,9.7,4.3,12.8,1.8,3.1,3.8,4.8,6,5.4.4.1.9.2,1.5.2.6,0,1.2-.3,1.9-.8.6-.6,1.3-1.5,1.9-2.7.6-1.3,1.1-3.2,1.5-5.7.3-1.7.4-3.2.4-4.5,0-1.3-.2-2.4-.5-3.3-.3-.9-.6-1.7-1.1-2.2-.4-.6-.9-1-1.4-1.4-.5-.4-.9-.6-1.3-.7-.4-.1-.8-.3-1-.3-1.8-.6-3.3-2.4-4.4-5.5-1.1-3.1-1.8-7.2-2.2-12.4-.3-5.2-.3-11.3.2-18.5.5-7.1,1.4-14.9,2.7-23.3,1.8-11.5,4-21.6,6.4-30,2.5-8.4,5.1-15.2,7.9-20.2,2.8-5,5.5-8.2,8.3-9.7,2.8-1.4,5.3-1.1,7.6,1,1,.9,2.1,2,3.1,3.3,1,1.3,2,2.9,2.9,4.6.9,1.8,1.8,3.8,2.6,5.9.8,2.2,1.5,4.6,2,7.2-3.5,17-7,34.1-10.4,51.3-1.1-2.9-2.2-5.5-3.6-7.9-1.3-2.4-2.7-4.1-4.2-5-.3-.2-.6-.4-1.1-.6-.4-.2-.9-.4-1.4-.4-.5,0-1.1,0-1.6.1-.6.1-1.1.5-1.6,1.1-.5.6-1,1.4-1.5,2.6-.5,1.1-.8,2.6-1.1,4.4-.3,2-.4,3.7-.3,5,.1,1.3.4,2.3.9,3.1.4.8,1,1.3,1.6,1.7.6.3,1.3.6,1.9.8.6.2,1.2.4,1.8.5.6.2,1,.4,1.3.7,1.6,1.4,2.9,3.8,3.8,7,.9,3.3,1.4,7.2,1.6,11.8.2,4.6,0,9.8-.5,15.7-.5,5.9-1.4,12.1-2.6,18.9Z"/>
    <path class="st5" d="M609.4,310.4c-5.6,1.6-11.3,3.5-17.1,5.6.9-8.2,1.9-16.5,2.8-24.9-2.4-.5-4.8-1-7.2-1.4-2.2,8.6-4.3,17.2-6.5,26-5.1-2.1-10.2-4.4-15.2-6.9,14.4-56.2,28.5-108.8,42.1-157.4,5.6,4.7,10.9,9.8,16.1,15.2-5.7,52.1-10.8,100.1-15,143.8ZM600.4,256.9c1.7-13.2,3.4-26.6,5.1-40.2-3.2,12.5-6.4,25.3-9.7,38.2,1.5.7,3.1,1.3,4.6,2Z"/>
    <path class="st5" d="M659.9,227.2c-7.5,24.6-16.5,54.1-26.7,88.2-5.4.4-10.8.9-16.2,1.5,2.7-39.1,6.5-83.3,11.1-132.2,4.4,3.8,8.7,7.9,12.8,12.3-2.8,24.8-5.3,48.4-7.5,70.7,6.1-21.8,11.9-42.3,17.3-61.3,3.3,6.9,6.4,13.8,9.4,20.8Z"/>
    <path class="st5" d="M679.2,294.2c0,1.9,0,3.6-.3,5.3-2.8-2.2-5.6-4.1-8.5-5.6-2.9-1.5-6-2.8-9.1-3.9,0,2.9.6,5.3,1.4,7.3.8,2,2,3.2,3.4,3.9.7.3,1.6.5,2.5.5.9,0,1.8-.1,2.7-.3.9-.2,1.7-.3,2.5-.5.8-.2,1.5-.4,2-.5-.6,5.2-1.4,10.7-2.2,16.4-.8.7-1.8,1.3-2.8,1.8-1,.5-2,1-3.1,1.3-1.1.4-2.2.6-3.3.8-1.1.2-2.2.3-3.2.3-2.1,0-4-.4-5.6-1.5-1.6-1-3-2.6-4-4.6-1.1-2.1-1.9-4.6-2.5-7.6-.6-3-.9-6.3-.9-9.9,0-3.6,0-7.5.4-11.6.4-4,.9-8.1,1.6-12.1.7-4.2,1.6-8.2,2.6-12.1,1-3.9,2.1-7.3,3.3-10.4,1.2-3,2.4-5.5,3.7-7.3,1.3-1.8,2.5-2.9,3.8-3.2,1.3-.3,2.5.3,3.8,1.7,1.2,1.4,2.5,3.8,3.7,7.1,1,2.7,1.9,5.6,2.6,8.5.7,2.9,1.4,5.8,1.9,8.7.6,2.8,1,5.5,1.5,8.1.4,2.6.8,5,1.1,7.3.3,2.3.6,4.4.7,6.4.2,2,.3,3.9.3,5.6ZM670.4,281.3c0-.8.1-1.8.1-2.8,0-1,0-2-.2-3-.1-1-.3-2-.6-2.9-.3-1-.6-1.8-1.1-2.5-.6-.9-1.1-1.3-1.7-1.2-.5,0-1,.5-1.5,1.2-.5.7-.9,1.6-1.3,2.7-.4,1.1-.7,2.2-1,3.2,2.4,2,4.8,4.1,7.1,6.3,0-.3,0-.7.1-1Z"/>
    <text class="st6" transform="translate(99.2 465.8)"><tspan x="0" y="0">Sign up he</tspan><tspan class="st7" x="323.5" y="0">r</tspan><tspan x="363.2" y="0">e </tspan><tspan class="st8" x="414.1" y="0">f</tspan><tspan x="445.7" y="0">or </tspan></text>
    <text class="st6" transform="translate(162.9 534.4)"><tspan x="0" y="0">p</tspan><tspan class="st7" x="39.3" y="0">r</tspan><tspan x="79" y="0">e-</tspan><tspan class="st7" x="142.3" y="0">r</tspan><tspan class="st0" x="182" y="0">el</tspan><tspan class="st3" x="249.8" y="0">e</tspan><tspan class="st1" x="286.1" y="0">ase </tspan></text>
    <text class="st6" transform="translate(225.7 603)"><tspan x="0" y="0">dis</tspan><tspan class="st9" x="93" y="0">c</tspan><tspan class="st2" x="126.2" y="0">ount</tspan></text>
    <path class="st5" d="M69.3,368.9c112.8-3,253.4-4.6,366.8-7,48.1-1.1,98.6.1,146.7,2.3,24.5,1.1,48.9,2.5,73.4,4.8.4,0,.8.4.7.9,0,.4-.3.7-.7.7-36.7,3.4-73.3,4.9-110,6.2-56.7,2.3-126.3.7-183.4-.7-86.2-1.4-208.4-3.3-293.4-5.5-.4,0-.8-.4-.8-.8,0-.4.4-.8.8-.8Z"/>
  </g>
</svg>