<?xml version="1.0" encoding="UTF-8"?>
<svg id="Layer_1" xmlns="http://www.w3.org/2000/svg" version="1.1" viewBox="0 0 720 720">
  <!-- Generator: Adobe Illustrator 29.7.0, SVG Export Plug-In . SVG Version: 2.1.1 Build 138)  -->
  <defs>
    <style>
      .st0 {
        stroke: #ffed00;
        stroke-miterlimit: 10;
      }

      .st0, .st1 {
        fill: #0093d8;
      }

      .st2 {
        fill: #fdec06;
      }
    </style>
  </defs>
  <circle class="st2" cx="360.5" cy="360" r="359.7"/>
  <g>
    <path class="st1" d="M152.8,186l-4.4,33.2c-1.5-.4-3-.7-4.6-.9-1.5-.2-3-.2-4.6-.2-3.9,0-7.6.5-11.1,1.5-3.5,1-6.6,2.6-9.3,4.7-2.7,2.1-4.9,4.7-6.5,7.9-1.6,3.1-2.4,6.8-2.4,11.1s.4,5.1,1.3,7.1c.9,2,2.1,3.6,3.7,5,1.6,1.3,3.4,2.3,5.6,2.9,2.2.6,4.5.9,7.1.9s4-.2,6.1-.6c2.1-.4,4.2-1,6.2-1.7,2-.7,4-1.5,6-2.4,1.9-.9,3.7-1.8,5.4-2.8l-3.1,37c-2,1-4.3,2-6.7,2.8-2.4.8-4.8,1.5-7.4,2.1-2.5.6-5,1.1-7.6,1.4-2.5.3-4.9.5-7.2.5-6.7,0-12.9-1.2-18.7-3.7-5.8-2.5-10.8-5.8-15-10.2-4.2-4.3-7.6-9.4-10-15.2-2.4-5.8-3.7-12.2-3.7-18.9s1.3-17.4,3.9-25.4c2.6-7.9,6.3-14.9,11.3-20.9,5-6,11.2-10.7,18.5-14.2,7.4-3.5,15.9-5.2,25.5-5.2s7.3.3,11.1.9c3.8.6,7.3,1.7,10.6,3.2Z"/>
    <path class="st1" d="M253.8,236.3c0,4.8-.6,9.4-1.7,13.8-1.1,4.4-2.7,8.6-4.8,12.5-2.1,3.9-4.6,7.4-7.6,10.7-3,3.2-6.3,6-10,8.3-3.7,2.3-7.7,4.1-12.1,5.4-4.4,1.3-9,1.9-13.9,1.9s-9.2-.6-13.5-1.8c-4.3-1.2-8.3-2.9-12-5.1-3.7-2.2-7.1-4.8-10.1-7.9-3-3.1-5.6-6.5-7.7-10.2-2.1-3.8-3.8-7.8-5-12.1-1.2-4.3-1.8-8.8-1.8-13.5s.6-9,1.7-13.4,2.7-8.5,4.8-12.4c2.1-3.9,4.6-7.4,7.5-10.7,2.9-3.3,6.2-6.1,9.9-8.4,3.6-2.4,7.6-4.2,11.8-5.5,4.2-1.3,8.7-2,13.5-2,7.6,0,14.5,1.2,20.8,3.5,6.3,2.4,11.6,5.7,16.1,10.1,4.4,4.4,7.9,9.7,10.3,15.9,2.4,6.2,3.7,13.2,3.7,20.8ZM218.8,238.4c0-2.3-.3-4.4-1-6.6-.7-2.1-1.6-4-2.9-5.7-1.3-1.7-2.8-3-4.7-4-1.9-1-4-1.5-6.4-1.5s-4.7.4-6.6,1.3c-1.9.9-3.6,2.1-5,3.7-1.4,1.5-2.5,3.4-3.2,5.4-.7,2.1-1.1,4.3-1.1,6.6s.3,4.4.9,6.6c.6,2.2,1.6,4.2,2.8,6,1.3,1.8,2.8,3.2,4.7,4.3,1.9,1.1,4,1.7,6.5,1.7s4.7-.5,6.7-1.5c2-1,3.6-2.3,5-3.9,1.4-1.7,2.4-3.6,3.1-5.7.7-2.2,1.1-4.4,1.1-6.7Z"/>
    <path class="st1" d="M395.4,243.3c0,7.5-.2,15-.7,22.4-.5,7.5-1,14.9-1.7,22.4l-40.5,1.9c1.2-9.1,2.3-18.3,3.3-27.4,1-9.2,1.5-18.3,1.5-27.5s0-1.6,0-3c0-1.4-.1-3.1-.3-4.9-.1-1.8-.3-3.7-.6-5.7-.2-2-.6-3.8-.9-5.4s-.9-3-1.5-4.1c-.6-1-1.3-1.6-2-1.6-1.8,0-3.3.7-4.3,2.1-1.1,1.4-1.8,3.1-2.3,5-.5,1.9-.8,3.9-.9,5.9-.1,2-.2,3.7-.2,4.9,0,2.2,0,4.4.2,6.6.1,2.2.2,4.5.2,6.8,0,8.1-.2,16.2-.6,24.3s-.9,16.2-1.5,24.3l-37.3,1.4c1.2-9.1,2.3-18.2,3.2-27.3.9-9.1,1.4-18.2,1.4-27.4s0-1.6,0-3.1c0-1.5-.1-3.2-.3-5.1-.1-1.9-.3-3.9-.6-5.9-.3-2-.6-3.9-1-5.6-.4-1.7-.9-3.1-1.5-4.2-.6-1.1-1.3-1.7-2.1-1.7-1.3,0-2.4.5-3.3,1.5-.9,1-1.6,2.3-2.2,4-.6,1.6-1,3.4-1.3,5.4-.3,2-.5,3.9-.6,5.8-.1,1.9-.2,3.6-.2,5.2,0,1.6,0,2.8-.1,3.6l-1.7,57.5h-39.7c.8-8.9,1.7-17.8,2.6-26.7.9-8.9,1.6-17.8,2.3-26.7.7-8.9,1.2-17.8,1.6-26.7.4-8.9.6-17.8.6-26.8l37.5-1.6-.2,9.1c1.2-1.5,2.5-3,3.9-4.4,1.5-1.5,3-2.8,4.7-4s3.4-2.1,5.3-2.9c1.9-.7,3.8-1.1,5.8-1.1s4.9.2,6.9.6c2,.4,3.9,1.1,5.5,2,1.7.9,3.1,2.2,4.4,3.9s2.4,3.7,3.3,6.3c1.7-1.8,3.4-3.5,5.1-5.1,1.7-1.6,3.5-2.9,5.4-4.1,1.9-1.1,3.9-2,6.1-2.6,2.2-.6,4.6-.9,7.3-.9,5.1,0,9.4,1,13,3,3.6,2,6.5,4.6,8.9,7.8,2.4,3.3,4.2,7,5.6,11.2,1.3,4.2,2.3,8.6,3,13.1.7,4.5,1.1,9,1.3,13.5.2,4.5.3,8.6.3,12.3Z"/>
    <path class="st1" d="M443.7,185.8l-5.5,107.2-33.2,1.7-3.1-106.7,41.9-2.2Z"/>
    <path class="st1" d="M547.7,256.8c0,5.9,0,11.8-.2,17.6-.1,5.8-.3,11.6-.6,17.5l-45.3-.8c1.6-9.3,2.9-18.6,4.1-27.8,1.2-9.3,1.7-18.6,1.7-28.1s0-1.8,0-3.3c0-1.5-.2-3.2-.3-5.2-.2-1.9-.4-3.9-.7-5.9-.3-2-.7-3.9-1.2-5.5-.5-1.7-1.1-3.1-1.8-4.1-.7-1.1-1.6-1.6-2.6-1.6-1.8,0-3.3.5-4.5,1.6-1.2,1.1-2.3,2.4-3.1,4.1-.8,1.7-1.5,3.5-1.9,5.5-.5,2-.8,4.1-1.1,6.1-.2,2-.4,4-.5,5.8,0,1.8-.1,3.3-.1,4.4-.3,9.3-.5,18.5-.6,27.7-.2,9.2-.4,18.4-.6,27.7l-40.1,1.7c1-18.5,2.1-36.9,3-55.2,1-18.3,1.7-36.7,2.3-55.2l37.1-1.9-.3,12.6c1.5-1.8,3.1-3.5,4.8-5,1.7-1.6,3.5-2.9,5.5-4.1,1.9-1.1,4-2,6.2-2.7,2.2-.7,4.5-1,6.9-1,4.5,0,8.4.7,11.7,2.2,3.4,1.5,6.2,3.5,8.7,6,2.4,2.5,4.4,5.5,6.1,8.9,1.6,3.4,2.9,7.1,3.9,11,1,3.9,1.8,7.9,2.3,12.2.5,4.2.9,8.4,1.1,12.5.2,4.1.3,8.1.3,11.9v10.5Z"/>
    <path class="st1" d="M650.3,279c-2.5,3.1-5.5,5.8-9.1,8.1-3.6,2.3-7.5,4.2-11.6,5.7-4.1,1.5-8.4,2.7-12.8,3.4-4.4.8-8.5,1.1-12.4,1.1-7.6,0-14.6-1.3-21-3.9-6.4-2.6-11.9-6.2-16.6-10.7-4.6-4.6-8.3-10.1-10.9-16.4-2.6-6.3-3.9-13.3-3.9-20.8s.7-11.3,2-16.7c1.3-5.4,3.2-10.5,5.6-15.2s5.4-9.1,8.9-13c3.5-3.9,7.5-7.3,12-10.2,4.5-2.8,9.4-5,14.7-6.6,5.3-1.5,11-2.3,17-2.3s4.7,0,7.2.3c2.6.2,5.1.5,7.7.9,2.5.4,5,1.1,7.4,1.8,2.4.8,4.6,1.8,6.6,2.9l-2.2,30.1c-2.9-1.1-6-1.8-9.1-2.2-3.1-.4-6.2-.6-9.2-.6s-8.1.6-11.8,1.7c-3.6,1.1-6.8,2.8-9.5,5-2.7,2.2-4.8,5-6.4,8.3s-2.4,7.1-2.4,11.5.4,5.4,1.1,7.9c.7,2.5,1.8,4.8,3.3,6.8,1.5,2,3.4,3.6,5.6,4.8,2.2,1.2,4.8,1.8,7.8,1.8s4.1-.3,6.2-.8c2.1-.5,3.9-1.4,5.5-2.7l.3-6.1-18.9-.3.9-23.6c7.8-.3,15.6-.5,23.5-.7,7.8-.2,15.7-.4,23.6-.7l.9,51.3Z"/>
  </g>
  <g>
    <path class="st0" d="M244.8,350.6c.2,7.2-.9,13.4-3.3,18.7-2.4,5.3-5.7,9.7-9.9,13.1s-9.3,6.1-15,7.8c-5.8,1.7-12,2.7-18.6,2.8s-5.4-.2-8.5-.8-6.2-1.4-9.4-2.3c-3.2-.9-6.2-2-9.2-3.1-2.9-1.1-5.5-2.2-7.8-3.2l2.7-30.9c4.5,2.6,9.5,4.5,15,5.8,5.5,1.3,10.8,1.8,16.1,1.7s2.2,0,3.6-.2,2.8-.4,4-.8c1.3-.4,2.3-1,3.2-1.8.9-.8,1.3-1.9,1.3-3.4s-.4-1.8-1-2.5c-.6-.7-1.5-1.3-2.5-1.7-1-.4-2.1-.7-3.4-.9s-2.5-.3-3.7-.4c-1.2,0-2.3-.1-3.4,0h-2.5c-4.5.2-8.6-.5-12.4-1.8-3.7-1.3-7-3.3-9.7-5.8-2.7-2.5-4.8-5.6-6.4-9.3-1.6-3.7-2.4-7.8-2.5-12.3s1-11.8,3.4-16.7c2.4-5,5.6-9.2,9.7-12.7,4.1-3.5,8.8-6.3,14.2-8.2,5.4-2,10.9-3,16.7-3.1s5.2,0,8,0c2.7.1,5.5.4,8.2.8,2.7.4,5.4,1,7.9,1.6,2.6.7,5,1.5,7.4,2.6l-2.3,32c-3.6-1.1-7.4-2-11.3-2.8-3.9-.7-7.8-1-11.5-1s-1.6,0-2.6.1c-1.1,0-2.2.2-3.4.3-1.2.2-2.4.4-3.6.7-1.2.3-2.3.7-3.2,1.1s-1.7,1.1-2.2,1.8c-.6.7-.8,1.6-.7,2.6,0,1.2.5,2,1.4,2.6.8.6,1.9,1,3.2,1.3,1.3.3,2.7.4,4.3.3s3.1-.1,4.6-.2c1.5-.1,2.9-.2,4.2-.3,1.3-.1,2.4-.1,3.2-.1,4.2.2,8,1,11.4,2.4,3.4,1.4,6.3,3.4,8.7,5.9,2.4,2.5,4.2,5.4,5.6,8.9,1.3,3.5,2,7.3,2.1,11.5Z"/>
    <path class="st0" d="M346.6,328.3c.1,4.8-.3,9.4-1.3,13.8s-2.5,8.7-4.5,12.6c-2,3.9-4.4,7.5-7.3,10.8-2.9,3.3-6.2,6.1-9.8,8.5-3.6,2.4-7.6,4.3-12,5.7-4.3,1.4-8.9,2.1-13.8,2.2s-9.2-.4-13.5-1.5c-4.3-1.1-8.3-2.7-12.1-4.8-3.8-2.1-7.2-4.6-10.3-7.6-3.1-3-5.7-6.3-7.9-10.1-2.2-3.7-4-7.7-5.2-12-1.3-4.3-2-8.7-2.1-13.4s.3-9,1.3-13.5c1-4.4,2.5-8.6,4.5-12.5,2-3.9,4.4-7.6,7.3-10.9,2.9-3.3,6.1-6.2,9.7-8.6,3.6-2.4,7.5-4.4,11.7-5.8,4.2-1.4,8.7-2.2,13.4-2.3,7.6-.2,14.6.8,20.9,3.1,6.3,2.2,11.8,5.5,16.3,9.7,4.5,4.3,8.1,9.5,10.7,15.7,2.6,6.2,4,13.1,4.1,20.7ZM311.8,331.1c0-2.3-.4-4.4-1.1-6.5-.7-2.1-1.7-4-3-5.6s-2.9-2.9-4.8-3.9c-1.9-1-4-1.4-6.4-1.4s-4.7.6-6.6,1.5c-1.9.9-3.6,2.2-4.9,3.8-1.4,1.6-2.4,3.4-3.1,5.5-.7,2.1-1,4.3-.9,6.6s.4,4.4,1.1,6.6c.7,2.2,1.7,4.2,3,5.9,1.3,1.8,2.9,3.2,4.8,4.2,1.9,1.1,4.1,1.6,6.5,1.5s4.7-.6,6.6-1.6c1.9-1,3.6-2.4,4.9-4,1.3-1.7,2.3-3.6,3-5.8.7-2.2,1-4.4.9-6.7Z"/>
    <path class="st0" d="M449.4,325.9c.1,4.8-.3,9.4-1.3,13.8s-2.5,8.7-4.5,12.6c-2,3.9-4.4,7.5-7.3,10.8-2.9,3.3-6.2,6.1-9.8,8.5s-7.6,4.3-12,5.7c-4.3,1.4-8.9,2.1-13.8,2.2s-9.2-.4-13.5-1.5c-4.3-1.1-8.3-2.7-12.1-4.8-3.8-2.1-7.2-4.6-10.3-7.6-3.1-3-5.7-6.3-7.9-10.1-2.2-3.7-4-7.7-5.2-12-1.3-4.3-2-8.7-2.1-13.4s.3-9,1.3-13.5c1-4.4,2.5-8.6,4.5-12.5,2-3.9,4.4-7.6,7.3-10.9,2.9-3.3,6.1-6.2,9.7-8.6,3.6-2.4,7.5-4.4,11.7-5.8,4.2-1.4,8.7-2.2,13.4-2.3,7.6-.2,14.6.8,20.9,3.1,6.3,2.2,11.8,5.5,16.3,9.7,4.5,4.3,8.1,9.5,10.7,15.7,2.6,6.2,4,13.1,4.1,20.7ZM414.5,328.7c0-2.3-.4-4.4-1.1-6.5-.7-2.1-1.7-4-3-5.6s-2.9-2.9-4.8-3.9c-1.9-1-4-1.4-6.4-1.4s-4.7.6-6.6,1.5c-1.9.9-3.6,2.2-4.9,3.8-1.4,1.6-2.4,3.4-3.1,5.5-.7,2.1-1,4.3-.9,6.6s.4,4.4,1.1,6.6,1.7,4.2,3,5.9c1.3,1.8,2.9,3.2,4.8,4.2,1.9,1.1,4.1,1.6,6.5,1.5s4.7-.6,6.6-1.6c1.9-1,3.6-2.4,4.9-4,1.3-1.7,2.3-3.6,3-5.8.7-2.2,1-4.4.9-6.7Z"/>
    <path class="st0" d="M552.2,344c.1,5.9.2,11.8.2,17.6,0,5.8,0,11.6-.2,17.5l-45.3.3c1.4-9.3,2.5-18.6,3.4-27.9.9-9.3,1.3-18.6,1.1-28.1,0-.7,0-1.8-.2-3.3,0-1.5-.2-3.2-.4-5.1-.2-1.9-.5-3.9-.8-5.9-.3-2-.8-3.9-1.3-5.5-.5-1.7-1.2-3-1.9-4.1-.7-1.1-1.6-1.6-2.6-1.6-1.8,0-3.3.6-4.5,1.7-1.2,1.1-2.2,2.5-3,4.1s-1.4,3.5-1.8,5.6c-.4,2.1-.7,4.1-.9,6.2-.2,2.1-.3,4-.3,5.8,0,1.8,0,3.3,0,4.4,0,9.3,0,18.5,0,27.7,0,9.2,0,18.4,0,27.8l-40.1,2.7c.6-18.5,1.2-37,1.8-55.3.5-18.3.9-36.8,1-55.3l37.1-2.7v12.6c1.4-1.8,3-3.5,4.6-5.1,1.7-1.6,3.5-3,5.4-4.2,1.9-1.2,4-2.1,6.1-2.8,2.2-.7,4.4-1.1,6.9-1.1,4.5-.1,8.4.5,11.8,1.9,3.4,1.4,6.3,3.3,8.8,5.8,2.5,2.5,4.6,5.4,6.3,8.8,1.7,3.4,3.1,7,4.2,10.9,1.1,3.9,1.9,7.9,2.6,12.1s1.1,8.4,1.4,12.4.5,8,.6,11.9l.2,10.5Z"/>
  </g>
  <polygon class="st1" points="139 354 119 354 126 335 139 354"/>
  <polygon class="st1" points="589.1 319.6 578 325.7 579.5 312.5 589.1 319.6"/>
  <g>
    <path d="M164.7,409c3.8,0,6.2,1.8,7.6,4l-3.2,1.8c-.9-1.3-2.4-2.3-4.3-2.3-3.3,0-5.7,2.6-5.7,6s2.4,6,5.7,6,3.2-.7,4-1.4v-2.2h-4.9v-3.3h8.7v7c-1.9,2.1-4.5,3.5-7.8,3.5-5.4,0-9.7-3.7-9.7-9.5s4.4-9.5,9.7-9.5Z"/>
    <path d="M175.6,427.6v-18.3h12.9v3.3h-9.1v4h8.9v3.3h-8.9v4.3h9.1v3.4h-12.9Z"/>
    <path d="M195.8,427.6v-14.9h-5.3v-3.4h14.6v3.4h-5.3v14.9h-3.9Z"/>
    <path d="M218.8,427.6v-14.9h-5.3v-3.4h14.6v3.4h-5.3v14.9h-3.9Z"/>
    <path d="M243.1,427.6v-7.7h-8.6v7.7h-3.9v-18.3h3.9v7.2h8.6v-7.2h3.9v18.3h-3.9Z"/>
    <path d="M250.6,427.6v-18.3h12.9v3.3h-9.1v4h8.9v3.3h-8.9v4.3h9.1v3.4h-12.9Z"/>
    <path d="M273.6,427.6v-18.3h8.6c4,0,6.1,2.7,6.1,5.9s-2.2,5.8-6.1,5.8h-4.7v6.6h-3.9ZM281.6,412.7h-4.1v5h4.1c1.5,0,2.7-1,2.7-2.5s-1.2-2.5-2.7-2.5Z"/>
    <path d="M301,427.6l-3.6-6.6h-2.9v6.6h-3.9v-18.3h8.6c3.8,0,6.1,2.5,6.1,5.9s-2,5-4,5.4l4.1,7h-4.5ZM298.7,412.7h-4.1v5h4.1c1.6,0,2.7-1,2.7-2.5s-1.2-2.5-2.7-2.5Z"/>
    <path d="M308.3,427.6v-18.3h12.9v3.3h-9.1v4h8.9v3.3h-8.9v4.3h9.1v3.4h-12.9Z"/>
    <path d="M323.3,419.7v-3h6.6v3h-6.6Z"/>
    <path d="M342.9,427.6l-3.6-6.6h-2.9v6.6h-3.9v-18.3h8.6c3.8,0,6.1,2.5,6.1,5.9s-2,5-4,5.4l4.1,7h-4.5ZM340.5,412.7h-4.1v5h4.1c1.6,0,2.7-1,2.7-2.5s-1.2-2.5-2.7-2.5Z"/>
    <path d="M350.2,427.6v-18.3h12.9v3.3h-9.1v4h8.9v3.3h-8.9v4.3h9.1v3.4h-12.9Z"/>
    <path d="M366.2,427.6v-18.3h3.9v14.9h7.7v3.4h-11.6Z"/>
    <path d="M380.5,427.6v-18.3h12.9v3.3h-9.1v4h8.9v3.3h-8.9v4.3h9.1v3.4h-12.9Z"/>
    <path d="M409.3,427.6l-1.2-3.2h-8.2l-1.2,3.2h-4.3l7.1-18.3h4.9l7.1,18.3h-4.3ZM404.1,412.7l-3,8.4h6.1l-3-8.4Z"/>
    <path d="M416,422.1c1.3,1.3,3.3,2.5,5.8,2.5s3.2-1,3.2-2.1-1.6-1.8-3.7-2.3c-3-.7-6.8-1.5-6.8-5.6s2.6-5.5,6.9-5.5,5.3.9,7.1,2.6l-2.2,2.9c-1.5-1.4-3.5-2-5.2-2s-2.7.8-2.7,1.9,1.5,1.6,3.6,2.1c3,.7,6.9,1.6,6.9,5.7s-2.4,5.9-7.3,5.9-6-1.2-7.8-2.9l2.1-3Z"/>
    <path d="M431.5,427.6v-18.3h12.9v3.3h-9.1v4h8.9v3.3h-8.9v4.3h9.1v3.4h-12.9Z"/>
    <path d="M463.2,409c5.5,0,9.6,4,9.6,9.5s-4,9.5-9.6,9.5-9.5-4-9.5-9.5,4-9.5,9.5-9.5ZM463.2,412.5c-3.4,0-5.5,2.6-5.5,6s2.2,6,5.5,6,5.6-2.6,5.6-6-2.2-6-5.6-6Z"/>
    <path d="M475.5,427.6v-18.3h12.9v3.3h-9.1v4h8.9v3.3h-8.9v7.6h-3.9Z"/>
    <path d="M491.2,427.6v-18.3h12.9v3.3h-9.1v4h8.9v3.3h-8.9v7.6h-3.9Z"/>
    <path d="M506.9,427.6v-18.3h12.9v3.3h-9.1v4h8.9v3.3h-8.9v4.3h9.1v3.4h-12.9Z"/>
    <path d="M533.2,427.6l-3.6-6.6h-2.9v6.6h-3.9v-18.3h8.6c3.8,0,6.1,2.5,6.1,5.9s-2,5-4,5.4l4.1,7h-4.5ZM530.8,412.7h-4.1v5h4.1c1.6,0,2.7-1,2.7-2.5s-1.2-2.5-2.7-2.5Z"/>
  </g>
  <polygon class="st1" points="278.1 130.8 260.6 140.3 263 119.7 278.1 130.8"/>
</svg>