<?xml version="1.0" encoding="UTF-8"?>
<svg id="Layer_1" xmlns="http://www.w3.org/2000/svg" version="1.1" viewBox="0 0 720 720">
  <!-- Generator: Adobe Illustrator 29.7.0, SVG Export Plug-In . SVG Version: 2.1.1 Build 138)  -->
  <defs>
    <style>
      .st0 {
        fill: #fdec06;
      }

      .st1 {
        fill: #0093d8;
      }
    </style>
  </defs>
  <circle class="st0" cx="360.7" cy="359.3" r="359.7"/>
  <polygon class="st1" points="71 285.9 46 285.9 54.8 262.2 71 285.9"/>
  <polygon class="st1" points="627.4 315.1 613.5 322.8 615.4 306.3 627.4 315.1"/>
  <g>
    <path d="M128.9,182.8c4.8,0,7.8,2.3,9.5,5l-4,2.3c-1.1-1.6-3-2.9-5.4-2.9-4.1,0-7.2,3.3-7.2,7.5s3,7.5,7.2,7.5,4-.9,5-1.8v-2.8h-6.2v-4.1h10.9v8.8c-2.4,2.6-5.7,4.4-9.8,4.4-6.8,0-12.2-4.6-12.2-11.9s5.5-11.9,12.2-11.9h-.1Z"/>
    <path d="M142.6,206.1v-23h16.2v4.1h-11.4v5h11.2v4.1h-11.2v5.4h11.4v4.3h-16.2Z"/>
    <path d="M168,206.1v-18.7h-6.7v-4.3h18.3v4.3h-6.7v18.7h-5Z"/>
    <path d="M196.8,206.1v-18.7h-6.7v-4.3h18.3v4.3h-6.7v18.7h-5Z"/>
    <path d="M227.4,206.1v-9.7h-10.8v9.7h-4.9v-23h4.9v9h10.8v-9h4.9v23h-4.9Z"/>
    <path d="M236.8,206.1v-23h16.2v4.1h-11.4v5h11.2v4.1h-11.2v5.4h11.4v4.3h-16.2Z"/>
    <path d="M265.7,206.1v-23h10.8c5,0,7.7,3.4,7.7,7.4s-2.8,7.3-7.7,7.3h-5.9v8.3h-4.9ZM275.7,187.4h-5.1v6.3h5.1c1.9,0,3.4-1.3,3.4-3.1s-1.5-3.1-3.4-3.1Z"/>
    <path d="M300.1,206.1l-4.5-8.3h-3.6v8.3h-4.9v-23h10.8c4.8,0,7.7,3.1,7.7,7.4s-2.5,6.3-5,6.8l5.1,8.8h-5.7.1ZM297.2,187.4h-5.1v6.3h5.1c2,0,3.4-1.3,3.4-3.1s-1.5-3.1-3.4-3.1Z"/>
    <path d="M309.2,206.1v-23h16.2v4.1h-11.4v5h11.2v4.1h-11.2v5.4h11.4v4.3h-16.2Z"/>
    <path d="M328.1,196.2v-3.8h8.3v3.8h-8.3Z"/>
    <path d="M352.7,206.1l-4.5-8.3h-3.6v8.3h-4.9v-23h10.8c4.8,0,7.7,3.1,7.7,7.4s-2.5,6.3-5,6.8l5.1,8.8h-5.7.1ZM349.7,187.4h-5.1v6.3h5.1c2,0,3.4-1.3,3.4-3.1s-1.5-3.1-3.4-3.1Z"/>
    <path d="M361.9,206.1v-23h16.2v4.1h-11.4v5h11.2v4.1h-11.2v5.4h11.4v4.3h-16.2Z"/>
    <path d="M381.9,206.1v-23h4.9v18.7h9.7v4.3h-14.6Z"/>
    <path d="M399.9,206.1v-23h16.2v4.1h-11.4v5h11.2v4.1h-11.2v5.4h11.4v4.3h-16.2Z"/>
    <path d="M436.1,206.1l-1.5-4h-10.3l-1.5,4h-5.4l8.9-23h6.2l8.9,23h-5.4.1ZM429.5,187.4l-3.8,10.5h7.7l-3.8-10.5h-.1Z"/>
    <path d="M444.5,199.2c1.6,1.6,4.1,3.1,7.3,3.1s4-1.3,4-2.6-2-2.3-4.6-2.9c-3.8-.9-8.5-1.9-8.5-7s3.3-6.9,8.7-6.9,6.7,1.1,8.9,3.3l-2.8,3.6c-1.9-1.8-4.4-2.5-6.5-2.5s-3.4,1-3.4,2.4,1.9,2,4.5,2.6c3.8.9,8.7,2,8.7,7.2s-3,7.4-9.2,7.4-7.5-1.5-9.8-3.6l2.6-3.8v-.3Z"/>
    <path d="M464,206.1v-23h16.2v4.1h-11.4v5h11.2v4.1h-11.2v5.4h11.4v4.3h-16.2Z"/>
    <path d="M503.8,182.8c6.9,0,12.1,5,12.1,11.9s-5,11.9-12.1,11.9-11.9-5-11.9-11.9,5-11.9,11.9-11.9ZM503.8,187.2c-4.3,0-6.9,3.3-6.9,7.5s2.8,7.5,6.9,7.5,7-3.3,7-7.5-2.8-7.5-7-7.5Z"/>
    <path d="M519.2,206.1v-23h16.2v4.1h-11.4v5h11.2v4.1h-11.2v9.5h-4.9.1Z"/>
    <path d="M538.9,206.1v-23h16.2v4.1h-11.4v5h11.2v4.1h-11.2v9.5h-4.9.1Z"/>
    <path d="M558.6,206.1v-23h16.2v4.1h-11.4v5h11.2v4.1h-11.2v5.4h11.4v4.3h-16.2Z"/>
    <path d="M591.7,206.1l-4.5-8.3h-3.6v8.3h-4.9v-23h10.8c4.8,0,7.7,3.1,7.7,7.4s-2.5,6.3-5,6.8l5.1,8.8h-5.7.1ZM588.7,187.4h-5.1v6.3h5.1c2,0,3.4-1.3,3.4-3.1s-1.5-3.1-3.4-3.1Z"/>
  </g>
  <polygon class="st1" points="469.4 62.6 447.5 74.5 450.5 48.8 469.4 62.6"/>
  <g>
    <path class="st1" d="M315.9,338.1c0,5.1-.2,10.2-1,15.4-.7,5.2-1.9,10.2-3.5,15.1-1.6,4.9-3.7,9.5-6.3,13.8-2.6,4.3-5.6,8-9.2,11.3-3.6,3.2-7.7,5.8-12.5,7.8-4.7,2-10,3-15.9,3.3-2.6,0-5.3,0-8.1,0-2.8-.1-5.6-.4-8.4-.9-2.8-.4-5.5-1.1-8.2-2-2.7-.9-5.1-2-7.4-3.5.9-10.2,1.9-20.4,2.8-30.6,1.7.9,3.7,1.7,5.8,2.4,2.2.7,4.4,1.4,6.6,1.9,2.3.6,4.5,1,6.8,1.2,2.2.3,4.4.4,6.4.3,3.2-.1,5.9-.6,8.2-1.6,2.3-1,4.2-2.3,5.8-4,1.6-1.7,2.8-3.7,3.7-6.1.9-2.4,1.5-5,1.9-7.9-3.2,1.8-6.6,3.2-10.2,4.3-3.6,1-7.2,1.6-10.9,1.7-4.6.2-9-.4-13.2-1.6-4.2-1.2-7.9-3.1-11.2-5.5-3.2-2.5-5.9-5.5-7.9-9.2-2-3.7-3.2-7.9-3.4-12.6-.3-6.1.6-11.8,2.6-17,2.1-5.2,5-9.7,8.9-13.5,3.9-3.8,8.5-6.9,13.9-9.1,5.4-2.3,11.4-3.5,17.8-3.7,7.8-.3,14.6.9,20.3,3.5,5.8,2.6,10.5,6.2,14.3,10.8,3.8,4.6,6.7,10,8.6,16.2,1.9,6.2,2.9,12.8,3,19.7ZM281.4,327.1c0-1.6-.5-3-1.2-4.3-.8-1.3-1.8-2.3-3-3.2-1.2-.9-2.5-1.5-4.1-2-1.5-.4-3-.6-4.5-.6-1.5,0-3,.3-4.4.8-1.4.5-2.7,1.2-3.8,2.1-1.1.9-2,2-2.7,3.3-.6,1.3-.9,2.7-.9,4.3,0,1.6.5,3,1.3,4.2.8,1.3,1.8,2.3,3,3.2,1.2.9,2.5,1.5,4,2,1.5.5,3,.7,4.5.6,1.5,0,2.9-.3,4.4-.9,1.4-.5,2.7-1.3,3.8-2.2,1.1-.9,2-2,2.7-3.3.7-1.3,1-2.7.9-4.2Z"/>
    <path class="st1" d="M352.3,386.9c0,2.4-.4,4.6-1.3,6.6-.9,2-2.1,3.8-3.7,5.4-1.5,1.5-3.3,2.8-5.3,3.7-2,.9-4.2,1.4-6.5,1.4-2.4,0-4.6-.4-6.6-1.3-2.1-.9-3.9-2-5.4-3.5-1.6-1.5-2.8-3.3-3.7-5.3-.9-2-1.4-4.2-1.4-6.6,0-2.3.4-4.5,1.2-6.6.9-2.1,2.1-3.9,3.6-5.5,1.5-1.6,3.3-2.8,5.4-3.7,2.1-.9,4.3-1.4,6.7-1.4,2.3,0,4.5.4,6.6,1.3,2.1.9,3.9,2.1,5.4,3.6,1.6,1.5,2.8,3.3,3.7,5.4.9,2.1,1.4,4.3,1.4,6.6Z"/>
    <path class="st1" d="M444.7,338.9c-.2,5.1-.7,10.2-1.7,15.4-1,5.1-2.4,10.1-4.2,14.9-1.9,4.8-4.2,9.3-6.9,13.5-2.8,4.2-6,7.8-9.8,10.8-3.7,3.1-8,5.5-12.8,7.2-4.8,1.7-10.1,2.6-16.1,2.5-2.6,0-5.3-.2-8.1-.4-2.8-.3-5.6-.7-8.4-1.3-2.8-.6-5.5-1.4-8.1-2.4-2.6-1-5-2.3-7.2-3.8,1.4-10.1,2.8-20.3,4.2-30.4,1.7,1,3.6,1.9,5.7,2.7,2.1.8,4.3,1.6,6.5,2.2,2.2.7,4.5,1.2,6.7,1.5,2.2.4,4.3.6,6.4.6,3.2,0,5.9-.4,8.2-1.2,2.3-.9,4.3-2.1,5.9-3.7,1.6-1.6,3-3.6,4-5.9,1-2.3,1.8-4.9,2.3-7.8-3.3,1.7-6.8,2.9-10.4,3.8-3.6.9-7.3,1.3-11,1.2-4.6,0-9-.8-13.1-2.2-4.2-1.4-7.8-3.4-10.9-6-3.1-2.6-5.6-5.8-7.5-9.5-1.9-3.7-2.8-8-2.8-12.8,0-6.1,1.1-11.7,3.4-16.8,2.3-5.1,5.5-9.5,9.5-13.1,4-3.6,8.8-6.5,14.3-8.5,5.5-2,11.5-3,17.9-2.9,7.8.1,14.5,1.6,20.2,4.5,5.6,2.9,10.2,6.7,13.8,11.5,3.6,4.8,6.2,10.3,7.8,16.6,1.6,6.3,2.3,12.9,2.1,19.9ZM410.7,326.4c0-1.6-.3-3.1-1-4.4-.7-1.3-1.7-2.4-2.8-3.3-1.2-.9-2.5-1.6-4-2.2-1.5-.5-3-.8-4.5-.8-1.5,0-3,.2-4.4.6-1.4.4-2.8,1.1-3.9,2-1.2.9-2.1,1.9-2.8,3.2-.7,1.3-1.1,2.7-1.1,4.2,0,1.6.3,3,1.1,4.3.7,1.3,1.7,2.4,2.8,3.3,1.1.9,2.5,1.6,3.9,2.2,1.5.5,3,.8,4.5.8,1.5,0,3-.2,4.4-.7,1.4-.5,2.7-1.1,3.9-2,1.2-.9,2.1-1.9,2.8-3.1.7-1.2,1.1-2.6,1.1-4.2Z"/>
    <path class="st1" d="M538.5,343.3c-.3,5.1-1.1,10.2-2.2,15.3-1.1,5.1-2.7,10-4.7,14.8-2,4.7-4.5,9.1-7.4,13.2-2.9,4.1-6.3,7.6-10.1,10.5-3.8,2.9-8.2,5.2-13,6.8-4.9,1.6-10.2,2.2-16.1,2-2.6-.1-5.3-.4-8.1-.7-2.8-.4-5.6-.9-8.3-1.5-2.7-.7-5.4-1.5-8-2.6-2.6-1.1-5-2.4-7.1-4.1,1.7-10.1,3.5-20.2,5.3-30.2,1.7,1,3.5,2,5.6,2.9,2.1.9,4.2,1.7,6.4,2.5,2.2.7,4.4,1.3,6.6,1.8,2.2.4,4.3.7,6.3.8,3.2.1,5.9-.2,8.3-1,2.4-.8,4.4-2,6.1-3.5,1.7-1.6,3.1-3.5,4.2-5.8,1.1-2.3,1.9-4.9,2.5-7.7-3.4,1.5-6.9,2.7-10.5,3.4-3.7.7-7.3,1-11,.9-4.6-.2-8.9-1.1-13-2.6-4.1-1.6-7.7-3.7-10.7-6.4-3-2.7-5.4-6-7.2-9.8-1.7-3.8-2.6-8.1-2.4-12.9.2-6.1,1.5-11.7,4-16.7,2.5-5,5.8-9.3,9.9-12.8,4.2-3.5,9-6.2,14.6-8,5.6-1.8,11.6-2.6,18-2.3,7.8.4,14.5,2.1,20,5.2,5.5,3.1,10,7.1,13.4,12,3.4,4.9,5.8,10.5,7.3,16.8,1.4,6.3,1.9,13,1.4,19.9ZM505,329.6c0-1.6-.2-3.1-.9-4.4-.7-1.3-1.6-2.5-2.7-3.4-1.1-1-2.4-1.7-3.9-2.3-1.5-.6-3-.9-4.5-.9-1.5,0-3,0-4.4.5-1.5.4-2.8,1-4,1.8-1.2.8-2.2,1.9-2.9,3.1-.7,1.2-1.2,2.6-1.2,4.2,0,1.6.2,3,.9,4.3.7,1.3,1.6,2.5,2.7,3.4,1.1,1,2.4,1.7,3.9,2.3,1.5.6,2.9.9,4.4,1,1.5,0,3-.1,4.4-.5,1.5-.4,2.8-1,4-1.9,1.2-.8,2.2-1.8,2.9-3,.8-1.2,1.2-2.6,1.2-4.1Z"/>
    <path class="st1" d="M565.1,390.1c0,1.1-.3,2.1-.5,3-.3.9-.6,1.7-1.1,2.5-.5.7-1.1,1.4-1.8,2-.7.6-1.6,1.2-2.6,1.7,1.5,3.2,3,6.4,4.5,9.6-3.3.4-6.6.8-9.9,1.2-.9-3.2-1.8-6.3-2.7-9.5-.9,0-1.8,0-2.7,0-.3,3-.7,6-1,9-3.1-.2-6.2-.4-9.3-.6.3-3.3.6-6.6.8-9.8.3-3.3.6-6.5.9-9.8.1-1.7.3-3.3.4-4.9.1-1.6.3-3.3.5-4.9,1-.3,2.1-.6,3.1-.7,1-.2,2-.3,3-.4,1,0,2,0,3.1,0,1,0,2.1,0,3.2.1,1.7.1,3.3.5,4.8,1,1.5.6,2.9,1.3,4,2.3,1.1,1,2,2.2,2.6,3.6.6,1.4.9,3,.7,4.8ZM555.3,390.1c0-.6,0-1.2-.1-1.7-.1-.5-.4-1-.7-1.4-.3-.4-.7-.7-1.2-1-.5-.2-1-.4-1.7-.4-.3,0-.6,0-.9,0-.3,0-.6,0-.8.1-.3,2.7-.6,5.4-.9,8,.2,0,.3,0,.5,0,.6,0,1.3,0,1.9-.1.7-.1,1.3-.3,1.8-.6.5-.3,1-.7,1.4-1.2.4-.5.6-1.1.6-1.8Z"/>
    <path class="st1" d="M592.3,392.2c0,1.1-.3,2.1-.6,3-.3.9-.7,1.7-1.1,2.4-.5.7-1.1,1.4-1.8,2-.7.6-1.6,1.1-2.6,1.7,1.5,3.2,3,6.4,4.4,9.6-3.3.4-6.6.7-9.9,1.1-.9-3.2-1.7-6.3-2.6-9.5-.9,0-1.8,0-2.7-.1-.4,3-.7,6-1.1,9-3.1-.2-6.2-.5-9.3-.7.3-3.3.6-6.6.9-9.8.3-3.3.6-6.5,1-9.8.2-1.7.3-3.3.5-4.9.2-1.6.3-3.3.5-4.9,1.1-.3,2.1-.5,3.1-.7,1-.2,2-.3,3-.3,1,0,2,0,3.1,0,1,0,2.1,0,3.2.2,1.7.1,3.3.5,4.8,1.1,1.5.6,2.8,1.4,4,2.4,1.1,1,2,2.2,2.6,3.6.6,1.4.8,3,.7,4.8ZM582.4,392.1c0-.6,0-1.2-.1-1.7-.1-.5-.3-1-.6-1.4-.3-.4-.7-.7-1.2-1-.5-.2-1-.4-1.7-.5-.3,0-.6,0-.9,0-.3,0-.6,0-.8,0-.3,2.7-.7,5.3-1,8,.2,0,.3,0,.5,0,.6,0,1.3,0,1.9,0,.7-.1,1.3-.3,1.8-.6.5-.3,1-.7,1.4-1.2.4-.5.6-1.1.6-1.8Z"/>
    <path class="st1" d="M619.3,394.7c-.1,1.4-.5,2.6-1,3.7-.5,1-1.2,1.9-2,2.7-.8.7-1.7,1.3-2.8,1.8-1,.5-2.1.8-3.3,1.1-1.2.3-2.3.4-3.6.5-1.2,0-2.4,0-3.6,0-.3,3.4-.6,6.7-.9,10.1-3.4-.3-6.7-.6-10.1-.9.3-3.3.6-6.6.9-9.9.3-3.3.6-6.6.9-9.9.2-1.8.3-3.5.5-5.3.1-1.8.3-3.5.6-5.3,1.9-.4,3.8-.6,5.7-.7,1.9-.1,3.8,0,5.8.1,1.1.1,2.2.3,3.4.6,1.1.3,2.2.7,3.2,1.1,1,.5,1.9,1.1,2.7,1.7.8.7,1.5,1.4,2.1,2.3.6.9,1,1.8,1.3,2.9.3,1.1.4,2.2.2,3.5ZM609.5,394.5c0-.9-.1-1.7-.7-2.3-.5-.6-1.3-.9-2.2-1-.3,0-.6,0-1,0-.3,0-.6,0-.9.1-.3,2.1-.5,4.2-.8,6.3.2,0,.4,0,.6,0,.2,0,.4,0,.6,0,.5,0,1,0,1.5-.1.5-.1,1-.3,1.4-.6.4-.3.7-.6,1-1.1.3-.4.4-.9.5-1.4Z"/>
    <path class="st1" d="M172.8,296.6c5-.3,10.2-.4,15.4-.2,4.3.2,8.6.9,12.7,2-.6,11-1.1,22-1.7,33-1.1-.1-2.1-.2-3.2-.3-1.3,0-2.6,0-3.9,0-1.1,0-2.1.2-3.1.3-2.3.3-4.6.9-7,1.8-2.4,1-4.6,2.3-6.7,3.9-2.1,1.6-3.9,3.5-5.4,5.6-1.6,2.3-2.5,4.8-2.8,7.4-.1,1.2-.3,2.4-.4,3.6,1.2-.1,2.5-.2,3.7-.3,7.1-.6,14.1-1.1,21.2-1.7.2,2.2.5,4.4.7,6.6-7.5.4-14.9.8-22.4,1.2-.9,0-1.8.1-2.7.2,0,.9,0,1.8-.1,2.7-.2,4-.4,7.9-.6,11.9,0,1.1-.1,2.2-.2,3.4,1.1,0,2.3-.2,3.4-.2,13.2-.9,26.4-1.8,39.6-2.5-.5,10.9-1.1,21.8-1.6,32.7-27.4,3.4-54.8,7.2-82.1,11.4-1-17.9-2.1-35.9-3.1-53.8,0-1-.1-2-.2-3-1,0-2.1.1-3.1.2-5.3.4-10.5.8-15.8,1.2-.1-1.9-.3-3.7-.4-5.6,5.3-.4,10.6-.8,15.9-1.2.9,0,1.9-.1,2.8-.2,0-.9,0-1.8,0-2.7.1-6.5,1-13.2,2.6-19.7,1.6-6.4,4.4-12.4,8.3-17.8,3.9-5.3,9.1-9.9,15.5-13.5,6.4-3.6,14.7-5.8,24.5-6.5"/>
  </g>
  <g>
    <path d="M249.7,141.1c0,3-.5,5.7-1.5,7.9-1,2.2-2.3,4.1-4,5.5-1.7,1.5-3.8,2.6-6.2,3.3-2.4.7-5,1.1-7.9,1.1s-2.6-.1-4-.4-2.7-.6-4.1-1c-1.3-.4-2.6-.9-3.9-1.5-1.3-.6-2.4-1.2-3.5-1.9l1.3-13.7c.9.6,1.8,1.2,2.9,1.7,1.1.5,2.2,1,3.3,1.4,1.1.4,2.3.8,3.5,1,1.2.3,2.3.4,3.4.4s1.3,0,2-.2c.7-.1,1.3-.3,1.8-.6s1-.7,1.4-1.2c.4-.5.5-1.2.5-1.9s-.2-1-.7-1.4c-.5-.4-1-.8-1.6-1.1-.6-.3-1.3-.5-2-.7-.7-.2-1.3-.3-1.7-.3s-.7,0-1.1,0c-.4,0-.9,0-1.4.2-.5,0-.9.2-1.3.3-.4.1-.7.3-1,.5l.2-9.8c.4,0,.8,0,1.1.1.3,0,.7,0,1.1,0,.8,0,1.7,0,2.6-.2.9-.1,1.8-.4,2.6-.8.8-.4,1.5-.9,2-1.6.5-.7.8-1.5.8-2.6s-.2-1.4-.6-1.8-.9-.8-1.5-1.1c-.6-.2-1.3-.4-2-.5-.7,0-1.3-.1-1.9-.1-1.8,0-3.7.3-5.5,1-1.8.6-3.4,1.6-4.7,2.8l-2.9-12.4c2.1-1.7,4.5-3,7.2-3.9,2.7-.9,5.4-1.4,8.1-1.4s4.9.4,7.1,1.1c2.3.7,4.3,1.8,6,3.2,1.7,1.4,3.1,3.1,4.1,5.2s1.5,4.4,1.5,7.1-.1,1.6-.3,2.4c-.2.8-.5,1.6-.9,2.3-.4.8-.8,1.5-1.4,2.1-.5.6-1.1,1.2-1.7,1.7,1,.4,1.7,1,2.4,1.7.6.7,1.1,1.5,1.5,2.4.4.9.6,1.8.8,2.8.1,1,.2,2,.2,2.9Z"/>
    <path d="M294.2,133.9c0,2-.2,4-.7,6-.4,2-1.1,3.9-1.9,5.7-.8,1.8-1.9,3.5-3.1,5.1-1.2,1.6-2.6,2.9-4.2,4.1s-3.3,2.1-5.2,2.7c-1.9.7-3.9,1-6.1,1s-4.2-.3-6.1-1c-1.9-.7-3.6-1.6-5.2-2.7-1.6-1.2-3-2.5-4.2-4.1s-2.3-3.3-3.1-5.1c-.8-1.8-1.5-3.7-1.9-5.7-.4-2-.7-4-.7-6s.2-4,.7-6c.4-2,1.1-3.9,1.9-5.7.8-1.8,1.9-3.5,3.1-5.1,1.2-1.6,2.6-3,4.2-4.1,1.6-1.2,3.3-2.1,5.2-2.7,1.9-.7,3.9-1,6.1-1s4.2.3,6.1,1c1.9.7,3.6,1.6,5.2,2.7s3,2.5,4.2,4.1c1.2,1.6,2.2,3.3,3.1,5.1.8,1.8,1.5,3.7,1.9,5.7.4,2,.7,4,.7,6ZM279.7,134.9c0-1-.1-2.1-.4-3.3s-.7-2.4-1.3-3.5c-.6-1.1-1.3-2-2.2-2.7-.9-.7-1.9-1.1-3.2-1.1s-2.3.4-3.2,1.1c-.9.7-1.6,1.6-2.2,2.7-.6,1.1-1,2.2-1.3,3.5s-.4,2.3-.4,3.3.1,2.1.4,3.3.7,2.4,1.3,3.5c.6,1.1,1.3,2,2.2,2.7.9.7,2,1.1,3.2,1.1s2.3-.4,3.2-1.1c.9-.7,1.6-1.6,2.2-2.7.6-1.1,1-2.2,1.3-3.5s.4-2.3.4-3.3Z"/>
    <path d="M318.5,126.8c0,1.2-.3,2.4-.8,3.6-.5,1.2-1.2,2.2-2.2,3.1-1,.9-2.1,1.7-3.5,2.3-1.4.6-2.9.9-4.6.9s-3.2-.3-4.6-.9c-1.4-.6-2.5-1.3-3.5-2.3-.9-.9-1.7-2-2.2-3.1-.5-1.2-.8-2.4-.8-3.6s.2-2.4.8-3.6c.5-1.2,1.2-2.2,2.2-3.2.9-.9,2.1-1.7,3.5-2.3,1.4-.6,2.9-.9,4.6-.9s3.2.3,4.6.9c1.4.6,2.5,1.3,3.5,2.3,1,.9,1.7,2,2.2,3.2.5,1.2.8,2.4.8,3.6ZM310.8,126.8c0-.4,0-.8-.2-1.2-.1-.4-.3-.8-.6-1.2-.3-.4-.6-.7-1-.9-.4-.2-.9-.4-1.5-.4s-1.1.1-1.5.4c-.4.3-.8.6-1.1.9-.3.4-.5.8-.6,1.2-.1.4-.2.8-.2,1.2s0,.8.2,1.2.3.8.6,1.2c.3.4.6.7,1.1.9.4.3.9.4,1.5.4s1.1-.1,1.5-.4c.4-.2.8-.6,1-.9.3-.4.5-.8.6-1.2s.2-.8.2-1.2ZM332.2,115.8c-2.9,6.4-5.6,12.8-8.1,19.4-2.5,6.6-4.8,13.2-7,19.9l-7.1-2.6c1.3-3.3,2.7-6.6,4-9.9,1.3-3.3,2.7-6.6,4.1-9.8,1.4-3.3,2.9-6.5,4.4-9.7,1.5-3.2,3.1-6.4,4.8-9.5l4.9,2.2ZM344.5,143.8c0,1.2-.3,2.4-.8,3.6-.5,1.2-1.2,2.2-2.2,3.1-1,.9-2.1,1.7-3.5,2.3-1.4.6-2.9.9-4.6.9s-3.2-.3-4.6-.9c-1.4-.6-2.5-1.3-3.5-2.3-.9-.9-1.7-2-2.2-3.1-.5-1.2-.8-2.4-.8-3.6s.2-2.4.8-3.6c.5-1.2,1.2-2.2,2.2-3.2.9-.9,2.1-1.7,3.5-2.3,1.4-.6,2.9-.9,4.6-.9s3.2.3,4.6.9c1.4.6,2.5,1.3,3.5,2.3,1,.9,1.7,2,2.2,3.2.5,1.2.8,2.4.8,3.6ZM336.7,143.7c0-.4,0-.8-.2-1.2-.1-.4-.3-.8-.6-1.2-.3-.4-.6-.7-1-.9-.4-.2-.9-.4-1.5-.4s-1.1.1-1.5.4c-.4.3-.8.6-1.1.9-.3.4-.5.8-.6,1.2-.1.4-.2.8-.2,1.2s0,.8.2,1.2.3.8.6,1.2c.3.4.6.7,1.1.9.4.3.9.4,1.5.4s1.1-.1,1.5-.4c.4-.2.8-.6,1-.9.3-.4.5-.8.6-1.2s.2-.8.2-1.2Z"/>
    <path d="M403.5,132.2c0,2.1-.2,4.1-.7,6-.5,1.9-1.2,3.7-2.1,5.4-.9,1.7-2,3.2-3.3,4.6-1.3,1.4-2.7,2.6-4.3,3.6-1.6,1-3.4,1.8-5.2,2.3-1.9.6-3.9.8-6,.8s-4-.3-5.9-.8c-1.9-.5-3.6-1.3-5.2-2.2-1.6-.9-3.1-2.1-4.4-3.4-1.3-1.3-2.4-2.8-3.3-4.4-.9-1.6-1.6-3.4-2.2-5.2-.5-1.9-.8-3.8-.8-5.8s.2-3.9.7-5.8c.5-1.9,1.2-3.7,2.1-5.4.9-1.7,2-3.2,3.3-4.6,1.3-1.4,2.7-2.6,4.3-3.7s3.3-1.8,5.1-2.4c1.8-.6,3.8-.9,5.8-.9,3.3,0,6.3.5,9,1.5s5,2.5,7,4.4c1.9,1.9,3.4,4.2,4.5,6.9,1.1,2.7,1.6,5.7,1.6,9ZM388.4,133.1c0-1-.1-1.9-.4-2.9-.3-.9-.7-1.7-1.2-2.5-.5-.7-1.2-1.3-2-1.7-.8-.4-1.7-.7-2.8-.7s-2,.2-2.9.6c-.8.4-1.6.9-2.2,1.6-.6.7-1.1,1.5-1.4,2.4-.3.9-.5,1.9-.5,2.9s.1,1.9.4,2.9.7,1.8,1.2,2.6c.5.8,1.2,1.4,2,1.9.8.5,1.7.7,2.8.7s2-.2,2.9-.6c.9-.4,1.6-1,2.2-1.7.6-.7,1-1.5,1.4-2.5.3-.9.5-1.9.5-2.9Z"/>
    <path d="M437.9,109.8c-.1,2.1-.3,4.3-.4,6.4-.1,2.1-.3,4.2-.4,6.4l-14.5.8v4.3h12.6l-.7,10.6-12,.3v18.9c0,0-17.2.3-17.2.3l1.1-47.9h31.5Z"/>
    <path d="M472.1,109.8c-.1,2.1-.3,4.3-.4,6.4-.1,2.1-.3,4.2-.4,6.4l-14.5.8v4.3h12.6l-.7,10.6-12,.3v18.9c0,0-17.2.3-17.2.3l1.1-47.9h31.5Z"/>
  </g>
  <g>
    <path class="st1" d="M191.5,239.6c0,1,0,2,0,3,0,1,0,2-.1,3h-7.7c.3-1.7.5-3.3.7-4.9.2-1.6.3-3.2.3-4.8s0-.3,0-.6,0-.6,0-.9c0-.3,0-.7-.1-1,0-.3-.1-.7-.2-.9s-.2-.5-.3-.7c-.1-.2-.3-.3-.4-.3-.3,0-.6,0-.8.3-.2.2-.4.4-.5.7-.1.3-.2.6-.3.9,0,.3-.1.7-.2,1,0,.3,0,.7,0,1,0,.3,0,.6,0,.8,0,1.6,0,3.1-.1,4.7,0,1.6,0,3.1-.1,4.7l-6.8.3c.2-3.2.4-6.3.5-9.4.2-3.1.3-6.2.4-9.4l6.3-.3v2.1c.2-.3.5-.6.8-.9.3-.3.6-.5.9-.7s.7-.3,1.1-.5c.4-.1.8-.2,1.2-.2.8,0,1.4.1,2,.4s1.1.6,1.5,1c.4.4.8.9,1,1.5.3.6.5,1.2.7,1.9.2.7.3,1.3.4,2.1,0,.7.1,1.4.2,2.1,0,.7,0,1.4,0,2v1.8Z"/>
    <path class="st1" d="M209.3,236.2c0,.8,0,1.6-.3,2.3-.2.8-.5,1.5-.8,2.1-.4.7-.8,1.3-1.3,1.8-.5.5-1.1,1-1.7,1.4-.6.4-1.3.7-2.1.9s-1.5.3-2.4.3-1.6-.1-2.3-.3c-.7-.2-1.4-.5-2-.9-.6-.4-1.2-.8-1.7-1.3-.5-.5-1-1.1-1.3-1.7s-.6-1.3-.8-2.1c-.2-.7-.3-1.5-.3-2.3s0-1.5.3-2.3.5-1.4.8-2.1c.4-.7.8-1.3,1.3-1.8.5-.6,1.1-1,1.7-1.4.6-.4,1.3-.7,2-.9.7-.2,1.5-.3,2.3-.3,1.3,0,2.5.2,3.5.6,1.1.4,2,1,2.7,1.7s1.3,1.6,1.8,2.7c.4,1.1.6,2.2.6,3.5ZM203.4,236.5c0-.4,0-.8-.2-1.1-.1-.4-.3-.7-.5-1-.2-.3-.5-.5-.8-.7s-.7-.3-1.1-.3-.8,0-1.1.2-.6.4-.8.6c-.2.3-.4.6-.5.9s-.2.7-.2,1.1,0,.7.2,1.1c.1.4.3.7.5,1,.2.3.5.5.8.7.3.2.7.3,1.1.3s.8,0,1.1-.2c.3-.2.6-.4.8-.7.2-.3.4-.6.5-1,.1-.4.2-.7.2-1.1Z"/>
    <path class="st1" d="M224.4,227.5v5.7c-.1,0-4.1.2-4.1.2l-.5,12.4-5.6.3-.5-12.4-4,.2.2-6.3h14.6Z"/>
    <path class="st1" d="M246.2,233.5c0,.7,0,1.3-.2,1.9-.1.6-.3,1.1-.6,1.6-.3.5-.6.9-1,1.3-.4.4-.9.8-1.5,1.2l3.2,5.7-6,1.2-2.1-5.7h-1.7c0,0-.2,5.6-.2,5.6h-5.8c0-2,0-4.1.1-6.1s0-4,.1-6.1c0-1,0-2,0-3.1,0-1,0-2,.1-3.1.6-.2,1.2-.4,1.8-.6s1.2-.3,1.8-.4c.6,0,1.2-.1,1.9-.2.6,0,1.3,0,1.9,0,1,0,2,.1,3,.4,1,.3,1.8.7,2.5,1.3.7.6,1.3,1.3,1.8,2.1.4.8.7,1.8.7,2.9ZM240.2,233.9c0-.4,0-.7-.2-1s-.3-.6-.5-.8-.5-.4-.7-.5c-.3-.1-.6-.2-1.1-.2s-.4,0-.5,0-.3,0-.5.1l-.2,5h.3c.4,0,.8,0,1.2-.1.4,0,.8-.2,1.1-.5.3-.2.6-.5.8-.8.2-.3.3-.7.3-1.2Z"/>
    <path class="st1" d="M262,235.6c0,.8,0,1.6-.2,2.3-1.5,0-3,.3-4.6.5-1.5.2-3,.4-4.5.6.2.6.6,1.2,1.1,1.5.5.4,1.1.6,1.8.6s.7,0,1.2-.2.8-.3,1.3-.5c.4-.2.8-.4,1.2-.6.4-.2.7-.4,1-.6l-.6,6.1c-.3.3-.7.5-1.1.7-.4.2-.8.3-1.3.5-.4.1-.9.2-1.3.3-.4,0-.9,0-1.3,0-.9,0-1.7-.1-2.4-.4-.7-.2-1.4-.6-2-1-.6-.4-1.1-.9-1.6-1.5s-.8-1.2-1.1-1.9c-.3-.7-.5-1.4-.7-2.2s-.2-1.6-.2-2.4,0-1.7.2-2.5c.2-.8.4-1.6.7-2.4.3-.8.7-1.5,1.2-2.1.5-.7,1-1.2,1.6-1.7s1.3-.9,2.1-1.2c.8-.3,1.7-.4,2.6-.4s1.5.1,2.2.3,1.2.5,1.8.9,1,.9,1.3,1.4c.4.5.7,1.1.9,1.8.2.6.4,1.3.5,2,.1.7.2,1.4.2,2.2ZM256.6,234.9c0-.2,0-.5,0-.8,0-.3-.1-.5-.3-.7-.1-.2-.3-.4-.5-.5-.2-.1-.4-.2-.7-.2s-.7,0-.9.3c-.3.2-.5.4-.7.7-.2.3-.4.6-.5.9-.1.3-.2.7-.3.9l4-.4v-.3Z"/>
    <path class="st1" d="M274.6,239.3l-.6,5.9-11.3.9.4-19.1h7l-1,12.3h5.4Z"/>
    <path class="st1" d="M290.1,235.6c0,.8,0,1.6-.2,2.3-1.5,0-3,.3-4.6.5-1.5.2-3,.4-4.5.6.2.6.6,1.2,1.1,1.5.5.4,1.1.6,1.8.6s.7,0,1.2-.2.8-.3,1.3-.5c.4-.2.8-.4,1.2-.6.4-.2.7-.4,1-.6l-.6,6.1c-.3.3-.7.5-1.1.7-.4.2-.8.3-1.3.5-.4.1-.9.2-1.3.3-.4,0-.9,0-1.3,0-.9,0-1.7-.1-2.4-.4-.7-.2-1.4-.6-2-1-.6-.4-1.1-.9-1.6-1.5s-.8-1.2-1.1-1.9c-.3-.7-.5-1.4-.7-2.2s-.2-1.6-.2-2.4,0-1.7.2-2.5c.2-.8.4-1.6.7-2.4.3-.8.7-1.5,1.2-2.1.5-.7,1-1.2,1.6-1.7s1.3-.9,2.1-1.2c.8-.3,1.7-.4,2.6-.4s1.5.1,2.2.3,1.2.5,1.8.9,1,.9,1.3,1.4c.4.5.7,1.1.9,1.8.2.6.4,1.3.5,2,.1.7.2,1.4.2,2.2ZM284.8,234.9c0-.2,0-.5,0-.8,0-.3-.1-.5-.3-.7-.1-.2-.3-.4-.5-.5-.2-.1-.4-.2-.7-.2s-.7,0-.9.3c-.3.2-.5.4-.7.7-.2.3-.4.6-.5.9-.1.3-.2.7-.3.9l4-.4v-.3Z"/>
    <path class="st1" d="M307.1,245.3l-6.6.9-.8-3h-3.1l-.7,3-6.8-.7,5.3-17.8,7.4-.4,5.2,18ZM299.2,239l-1-4.7-1,4.7h2Z"/>
    <path class="st1" d="M321.1,239.6c0,1.2-.2,2.3-.6,3.2-.4.9-1,1.6-1.7,2.2-.7.6-1.6,1-2.6,1.3-1,.3-2,.4-3.2.4s-.9,0-1.4-.2c-.5-.1-1.1-.3-1.6-.4-.5-.2-1.1-.4-1.5-.6s-.9-.4-1.3-.6l.6-5.2c.8.5,1.6.8,2.5,1,.9.2,1.8.4,2.7.4s.4,0,.6,0c.2,0,.5,0,.7-.1.2,0,.4-.2.6-.3s.2-.3.2-.6,0-.3-.2-.4c-.1-.1-.2-.2-.4-.3-.2,0-.4-.1-.6-.2-.2,0-.4,0-.6,0-.2,0-.4,0-.6,0h-.4c-.8,0-1.5-.1-2.1-.4-.6-.2-1.2-.6-1.6-1-.5-.4-.8-1-1.1-1.6-.2-.6-.4-1.3-.4-2.1s.2-2,.6-2.8c.4-.8,1-1.5,1.7-2.1s1.5-1,2.4-1.3c.9-.3,1.9-.5,2.9-.5s.9,0,1.4,0,.9,0,1.4.2c.5,0,.9.2,1.3.3.4.1.9.3,1.2.5l-.5,5.4c-.6-.2-1.2-.4-1.9-.5-.7-.1-1.3-.2-1.9-.2s-.3,0-.4,0c-.2,0-.4,0-.6,0s-.4,0-.6.1c-.2,0-.4.1-.5.2-.2,0-.3.2-.4.3,0,.1-.1.3-.1.4,0,.2,0,.3.2.5.1.1.3.2.5.2.2,0,.5,0,.7,0s.5,0,.8,0c.3,0,.5,0,.7,0,.2,0,.4,0,.5,0,.7,0,1.4.2,1.9.5.6.3,1.1.6,1.5,1,.4.4.7.9.9,1.5.2.6.3,1.2.3,2Z"/>
    <path class="st1" d="M336.9,235.6c0,.8,0,1.6-.2,2.3-1.5,0-3,.3-4.6.5-1.5.2-3,.4-4.5.6.2.6.6,1.2,1.1,1.5.5.4,1.1.6,1.8.6s.7,0,1.2-.2.8-.3,1.3-.5c.4-.2.8-.4,1.2-.6.4-.2.7-.4,1-.6l-.6,6.1c-.3.3-.7.5-1.1.7-.4.2-.8.3-1.3.5-.4.1-.9.2-1.3.3-.4,0-.9,0-1.3,0-.9,0-1.7-.1-2.4-.4-.7-.2-1.4-.6-2-1-.6-.4-1.1-.9-1.6-1.5s-.8-1.2-1.1-1.9c-.3-.7-.5-1.4-.7-2.2s-.2-1.6-.2-2.4,0-1.7.2-2.5c.2-.8.4-1.6.7-2.4.3-.8.7-1.5,1.2-2.1.5-.7,1-1.2,1.6-1.7s1.3-.9,2.1-1.2c.8-.3,1.7-.4,2.6-.4s1.5.1,2.2.3,1.2.5,1.8.9,1,.9,1.3,1.4c.4.5.7,1.1.9,1.8.2.6.4,1.3.5,2,.1.7.2,1.4.2,2.2ZM331.6,234.9c0-.2,0-.5,0-.8,0-.3-.1-.5-.3-.7-.1-.2-.3-.4-.5-.5-.2-.1-.4-.2-.7-.2s-.7,0-.9.3c-.3.2-.5.4-.7.7-.2.3-.4.6-.5.9-.1.3-.2.7-.3.9l4-.4v-.3Z"/>
    <path class="st1" d="M353,235.8c0,1.2-.2,2.4-.5,3.4-.3,1-.8,1.9-1.3,2.6-.6.8-1.3,1.4-2.1,1.9-.8.5-1.7,1-2.6,1.3-.9.3-2,.6-3,.8s-2.2.2-3.3.2-.8,0-1.2,0c-.4,0-.8,0-1.2-.1l.4-17.4c1-.3,2-.5,3-.7s2.1-.2,3.1-.2,2.4.2,3.5.5,2,.9,2.8,1.6c.8.7,1.4,1.5,1.8,2.6.4,1,.6,2.2.6,3.5ZM343.9,240.9c.5,0,1-.2,1.5-.5.4-.2.8-.5,1.1-.9s.6-.8.7-1.2c.2-.5.3-.9.3-1.5s0-1-.2-1.4c-.1-.4-.3-.8-.5-1.2s-.6-.6-1-.8c-.4-.2-.9-.3-1.4-.3l-.5,7.8Z"/>
    <path class="st1" d="M366.1,227.6l-.9,18.2-5.6.3-.5-18.2,7.1-.4Z"/>
    <path class="st1" d="M383.8,239.6c0,1,0,2,0,3,0,1,0,2-.1,3h-7.7c.3-1.7.5-3.3.7-4.9.2-1.6.3-3.2.3-4.8s0-.3,0-.6c0-.3,0-.6,0-.9,0-.3,0-.7-.1-1,0-.3-.1-.7-.2-.9,0-.3-.2-.5-.3-.7-.1-.2-.3-.3-.4-.3-.3,0-.6,0-.8.3-.2.2-.4.4-.5.7-.1.3-.2.6-.3.9,0,.3-.1.7-.2,1,0,.3,0,.7,0,1,0,.3,0,.6,0,.8,0,1.6,0,3.1-.1,4.7,0,1.6,0,3.1-.1,4.7l-6.8.3c.2-3.2.3-6.3.5-9.4.2-3.1.3-6.2.4-9.4l6.3-.3v2.1c.2-.3.5-.6.8-.9.3-.3.6-.5.9-.7s.7-.3,1.1-.5c.4-.1.8-.2,1.2-.2.8,0,1.4.1,2,.4s1.1.6,1.5,1c.4.4.8.9,1,1.5s.5,1.2.7,1.9c.2.7.3,1.3.4,2.1,0,.7.1,1.4.2,2.1,0,.7,0,1.4,0,2v1.8Z"/>
    <path class="st1" d="M404.2,239.6c0,1.2-.2,2.3-.6,3.2-.4.9-1,1.6-1.7,2.2-.7.6-1.6,1-2.6,1.3-1,.3-2,.4-3.2.4s-.9,0-1.4-.2c-.5-.1-1.1-.3-1.6-.4-.5-.2-1.1-.4-1.5-.6s-.9-.4-1.3-.6l.6-5.2c.8.5,1.6.8,2.5,1,.9.2,1.8.4,2.7.4s.4,0,.6,0c.2,0,.5,0,.7-.1s.4-.2.6-.3.2-.3.2-.6,0-.3-.2-.4c-.1-.1-.2-.2-.4-.3-.2,0-.4-.1-.6-.2-.2,0-.4,0-.6,0s-.4,0-.6,0h-.4c-.8,0-1.5-.1-2.1-.4-.6-.2-1.2-.6-1.6-1-.5-.4-.8-1-1.1-1.6-.2-.6-.4-1.3-.4-2.1s.2-2,.6-2.8,1-1.5,1.7-2.1c.7-.6,1.5-1,2.4-1.3.9-.3,1.9-.5,2.9-.5s.9,0,1.4,0,.9,0,1.4.2c.5,0,.9.2,1.3.3s.9.3,1.2.5l-.5,5.4c-.6-.2-1.2-.4-1.9-.5-.7-.1-1.3-.2-1.9-.2s-.3,0-.4,0c-.2,0-.4,0-.6,0s-.4,0-.6.1c-.2,0-.4.1-.5.2-.2,0-.3.2-.4.3,0,.1-.1.3-.1.4,0,.2,0,.3.2.5.1.1.3.2.5.2.2,0,.5,0,.7,0s.5,0,.8,0c.3,0,.5,0,.7,0,.2,0,.4,0,.5,0,.7,0,1.4.2,1.9.5.6.3,1.1.6,1.5,1,.4.4.7.9.9,1.5.2.6.3,1.2.3,2Z"/>
    <path class="st1" d="M420.9,245.9l-6.7.3v-5.6h-3.1l-.2,5.9h-6l.5-18.8,6.4.3-.4,9.6h3v-10.1s6.1.2,6.1.2l.4,18.3Z"/>
    <path class="st1" d="M438.7,236.2c0,.8,0,1.6-.3,2.3-.2.8-.5,1.5-.8,2.1-.4.7-.8,1.3-1.3,1.8-.5.5-1.1,1-1.7,1.4s-1.3.7-2.1.9c-.7.2-1.5.3-2.4.3s-1.6-.1-2.3-.3c-.7-.2-1.4-.5-2-.9-.6-.4-1.2-.8-1.7-1.3-.5-.5-1-1.1-1.3-1.7s-.6-1.3-.8-2.1c-.2-.7-.3-1.5-.3-2.3s0-1.5.3-2.3.5-1.4.8-2.1c.4-.7.8-1.3,1.3-1.8s1.1-1,1.7-1.4c.6-.4,1.3-.7,2-.9s1.5-.3,2.3-.3c1.3,0,2.5.2,3.5.6,1.1.4,2,1,2.7,1.7.8.7,1.3,1.6,1.8,2.7.4,1.1.6,2.2.6,3.5ZM432.8,236.5c0-.4,0-.8-.2-1.1-.1-.4-.3-.7-.5-1s-.5-.5-.8-.7c-.3-.2-.7-.3-1.1-.3s-.8,0-1.1.2-.6.4-.8.6c-.2.3-.4.6-.5.9s-.2.7-.2,1.1,0,.7.2,1.1c.1.4.3.7.5,1,.2.3.5.5.8.7s.7.3,1.1.3.8,0,1.1-.2c.3-.2.6-.4.9-.7.2-.3.4-.6.5-1,.1-.4.2-.7.2-1.1Z"/>
    <path class="st1" d="M455.3,234.1c0,.9-.1,1.6-.4,2.3s-.6,1.3-1.1,1.8c-.5.5-1,.9-1.6,1.3-.6.3-1.3.6-1.9.8-.7.2-1.4.4-2.1.5-.7.1-1.5.2-2.2.2v5.7h-6.2c0-1,0-2,0-3s0-1.9,0-2.9c0-1,0-1.9,0-2.9,0-1,0-2,0-3,0-1.1,0-2.2,0-3.3,0-1.1,0-2.2,0-3.3,1.1-.3,2.3-.6,3.4-.8,1.1-.2,2.3-.3,3.5-.3s1.4,0,2.1.2c.7.1,1.3.3,2,.5.6.2,1.2.5,1.8.9s1,.8,1.4,1.3c.4.5.7,1.1.9,1.7.2.6.3,1.4.3,2.1ZM449.3,234.5c0-.6-.2-1-.5-1.4-.4-.3-.8-.5-1.4-.5s-.4,0-.6,0-.4,0-.6.1l-.2,3.9c.1,0,.2,0,.4,0h.4c.3,0,.6,0,.9-.2.3-.1.6-.3.8-.5.2-.2.4-.4.6-.7.1-.3.2-.6.2-.9Z"/>
    <path class="st1" d="M469.8,239.6c0,1.2-.2,2.3-.6,3.2-.4.9-1,1.6-1.7,2.2-.7.6-1.6,1-2.6,1.3-1,.3-2,.4-3.2.4s-.9,0-1.4-.2c-.5-.1-1.1-.3-1.6-.4-.5-.2-1.1-.4-1.5-.6s-.9-.4-1.3-.6l.6-5.2c.8.5,1.6.8,2.5,1,.9.2,1.8.4,2.7.4s.4,0,.6,0c.2,0,.5,0,.7-.1s.4-.2.6-.3.2-.3.2-.6,0-.3-.2-.4c-.1-.1-.2-.2-.4-.3-.2,0-.4-.1-.6-.2-.2,0-.4,0-.6,0s-.4,0-.6,0h-.4c-.8,0-1.5-.1-2.1-.4-.6-.2-1.2-.6-1.6-1-.5-.4-.8-1-1.1-1.6-.2-.6-.4-1.3-.4-2.1s.2-2,.6-2.8,1-1.5,1.7-2.1c.7-.6,1.5-1,2.4-1.3.9-.3,1.9-.5,2.9-.5s.9,0,1.4,0,.9,0,1.4.2c.5,0,.9.2,1.3.3s.9.3,1.2.5l-.5,5.4c-.6-.2-1.2-.4-1.9-.5-.7-.1-1.3-.2-1.9-.2s-.3,0-.4,0c-.2,0-.4,0-.6,0s-.4,0-.6.1c-.2,0-.4.1-.5.2-.2,0-.3.2-.4.3,0,.1-.1.3-.1.4,0,.2,0,.3.2.5.1.1.3.2.5.2.2,0,.5,0,.7,0s.5,0,.8,0c.3,0,.5,0,.7,0,.2,0,.4,0,.5,0,.7,0,1.4.2,1.9.5.6.3,1.1.6,1.5,1,.4.4.7.9.9,1.5.2.6.3,1.2.3,2Z"/>
    <path class="st1" d="M492.5,228.3l-6.3,10.3.2,7.6h-6.9l.2-7.5-4.9-9.9,6.8-.9,2.1,5.8,2.3-5.8,6.4.5Z"/>
    <path class="st1" d="M506.2,235.6c0,.8,0,1.6-.2,2.3-1.5,0-3,.3-4.6.5s-3,.4-4.5.6c.2.6.6,1.2,1.1,1.5.5.4,1.1.6,1.8.6s.7,0,1.2-.2.8-.3,1.3-.5c.4-.2.8-.4,1.2-.6.4-.2.7-.4,1-.6l-.6,6.1c-.3.3-.7.5-1.1.7-.4.2-.8.3-1.3.5-.4.1-.9.2-1.3.3-.4,0-.9,0-1.3,0-.9,0-1.7-.1-2.4-.4-.7-.2-1.4-.6-2-1-.6-.4-1.1-.9-1.6-1.5s-.8-1.2-1.1-1.9c-.3-.7-.5-1.4-.7-2.2s-.2-1.6-.2-2.4,0-1.7.2-2.5c.2-.8.4-1.6.7-2.4s.7-1.5,1.2-2.1c.5-.7,1-1.2,1.6-1.7.6-.5,1.3-.9,2.1-1.2.8-.3,1.7-.4,2.6-.4s1.5.1,2.2.3,1.2.5,1.8.9c.5.4,1,.9,1.3,1.4.4.5.7,1.1.9,1.8.2.6.4,1.3.5,2,.1.7.2,1.4.2,2.2ZM500.8,234.9c0-.2,0-.5,0-.8s-.1-.5-.3-.7c-.1-.2-.3-.4-.5-.5-.2-.1-.4-.2-.7-.2s-.7,0-.9.3c-.3.2-.5.4-.7.7-.2.3-.4.6-.5.9-.1.3-.2.7-.3.9l4-.4v-.3Z"/>
    <path class="st1" d="M521.2,227.5v5.7c-.1,0-4.1.2-4.1.2l-.5,12.4-5.6.3-.5-12.4-4,.2.2-6.3h14.6Z"/>
  </g>
</svg>