<?xml version="1.0" encoding="UTF-8"?>
<svg id="Layer_1" xmlns="http://www.w3.org/2000/svg" version="1.1" viewBox="0 0 720 720">
  <!-- Generator: Adobe Illustrator 29.7.0, SVG Export Plug-In . SVG Version: 2.1.1 Build 138)  -->
  <path d="M259.7,714.3c-.3,0-2.2-1.9-4.6-2-58.6-1.3-86.4,12.7-129.8-34.2-4.3-4.6-11.5-17.9-16.2-20s-22.6-1.6-30.9-3.4c-32.2-7.2-63.1-41.2-72.9-72-8.7-27.2-10.6-108.1,34.1-100.8,25.9,4.2,12.7,42.2,14.3,60,1.5,16.8,16.9,43.6,36.9,36.8,6.1-2.1,6.2-26.4,7.9-34,16.9-79.5,76.9-145.6,144.1-187.5,28.1-17.5,56.8-22.1,59-62.1,31.3,15,56,50.9,94.3,47.6,21.3-1.8,45.4-21,48.5-43,5.7-41.5-7.8-87.2-24.8-124.4l-5.5-.2c-14.8,36.9,11.2,85.5,3.4,120.6-4.1,18.4-26.8,22.9-42.5,16.6-15.9-6.3-95.1-67.9-108.6-82-34.8-36.2-16.8-61.7,12.4-90.5,19.2-19.1,30.1-33.9,47.6-53.4C386.4,19.8,478.8-12.4,566.2,16.3c75.4,24.8,147.1,76.6,149.2,163.4.3,14.5-6.5,33.8-21,17.1-14.2-16.3-11.5-37.4-15.8-56.6-5-22.4-19-40.2-37.6-52.9,1.7,13.5,6.8,26.2,9,39.6,4.1,26.3,0,51.1,15,74.6,18.1,28.3,47.4,41.7,50.3,81.2,4.9,65.3-54.5,86.2-107.9,92.2-16.9,1.9-39.5-.1-54.6,2.6-12.7,2.3-11.8,11.5-.6,13,24.5,3.3,52.7-3.2,77.1-3.7,13.1,52.1-7.6,103.7-12.9,155.3-2.2,21.7-7.1,78.2,8.3,94.2,9.5,9.9,28.1,7.5,38.9,25.9,7.7,13,7,39.2-8.6,46.1-13.7,6-65.2,5.7-81.8,4.2-20.3-1.8-15-19.2-18.9-34.5-2.6-9.9-6.9-18.7-13.4-26.6-8-9.9-24.3-16.9-25.8-29.5-3.4-28.5-.7-54.3,23.1-72.3,13.3-10.1,47.2-17.2,43.6-36.3-3.8-20.1-40.8.3-50.8,6.3-26.5,15.7-42.3,40.7-44.5,71.7-.6,8-1.3,50.1.4,55s14.4,6.6,19.4,9.2c19.8,10.4,38.3,47,10.8,58.7h-95.3c-16.9-6.4-13.6-24.7-18.5-39.6-6.8-20.4-20.2-29.2-34.4-43.7-.9-3.6-.6-7.3-.4-11,1.8-27.2,7.7-40.7,1.3-70-12.2-55.5-74.5-107.1-132.8-88.2-6.6,2.1-24,10.1-22.9,18.1h44.8c3.6,0,18.9,5.5,23.2,7.3,65.5,27.1,79.3,103,46.5,161.4.3,3.7,19,6.8,23.4,8.8,15.7,6.8,29.9,24.8,29.1,42.4-1.1,22.5-25.3,7.5-39.3,14.6-27.3-.4-54.7.5-82,0ZM497.3,158.6c-21.3.6-54.1,30.5-38.4,48.8,15.5,18,21.8-16.9,32.2-21,24.7-9.8,24.8,18.1,33.6,22.1,10,4.5,18-4.6,17-15.1-2-20.3-25-35.3-44.4-34.8ZM613.7,158.3c-9.9,2.9-9.8,21.1,0,24,26.8,7.8,23.7-31,0-24ZM604.7,342.7c19.3,0,43.2-6.8,50.5-26.7,3.7-10.1,2.8-21,6.6-31.5,2.3-6.2,8-11.9,9.2-17.5,5.8-27.8-16.9-43.8-42.5-42.5s-40.5,4.5-35.9,20.6c5.4,18.8,36.4-2.6,49.3,8,13.5,11-5,15.6-7.7,24.7-4.1,13.5,1.8,34.2-12.3,46.7l-17.1,18.1Z"/>
</svg>