<?xml version="1.0" encoding="UTF-8"?>
<svg id="Layer_1" xmlns="http://www.w3.org/2000/svg" version="1.1" viewBox="0 0 720 720">
  <!-- Generator: Adobe Illustrator 29.7.0, SVG Export Plug-In . SVG Version: 2.1.1 Build 138)  -->
  <path d="M1.2,250.5c6.1-45.5,63.4-65.9,96.8-34.4,28.4,26.7,21.9,70.7-9.7,91.4,19.9,56.7,81.9,143.6,152.1,118.4,59.4-21.4,90.2-114.8,101.6-171.1-48.8-11.6-69.6-71.2-39.2-111.6,33.4-44.4,102.4-35.7,123.7,15.2,16.7,39.9-5.9,86.6-47.9,96.4,13.1,75.6,71.6,221.5,172.4,161.9,25.4-15,50.4-47.1,64.9-72.6,3.2-5.6,15.9-29.7,16.4-34.3.1-1.3.4-1.9-.4-3.1-1.4-2.1-12.3-10-15.5-14-29-36.9-1-91.6,45.2-92.1,59.3-.6,80.6,80.8,26.9,108-5.6,2.8-18.9,5-20.5,8.9l-55,284.5H107.8l-55-284.5c-1.6-4-14.9-6.1-20.5-8.9-15.5-7.8-28.7-25.2-31-42.6-.5-3.5-.5-12,0-15.4Z"/>
  <path d="M121.5,632.5l475.2-.3c49.9,9.4,47.4,79.2-2.8,85.6H126.8c-48.9-6.2-53.1-73.2-5.3-85.2Z"/>
</svg>