<?xml version="1.0" encoding="UTF-8"?>
<svg id="Layer_1" xmlns="http://www.w3.org/2000/svg" xmlns:xlink="http://www.w3.org/1999/xlink" version="1.1" viewBox="0 0 1511.9 75.5">
  <!-- Generator: Adobe Illustrator 29.7.0, SVG Export Plug-In . SVG Version: 2.1.1 Build 138)  -->
  <defs>
    <style>
      .st0 {
        mask: url(#mask);
      }

      .st1 {
        filter: url(#luminosity-noclip);
      }

      .st2 {
        mask: url(#mask-1);
      }

      .st3 {
        fill: url(#linear-gradient1);
        mix-blend-mode: multiply;
      }

      .st3, .st4, .st5 {
        fill-rule: evenodd;
      }

      .st4 {
        fill: url(#linear-gradient);
      }

      .st5 {
        fill: url(#linear-gradient2);
      }
    </style>
    <linearGradient id="linear-gradient" x1="759.5" y1="20.8" x2="759.5" y2="75.4" gradientUnits="userSpaceOnUse">
      <stop offset="0" stop-color="#fff"/>
      <stop offset="1" stop-color="#999"/>
    </linearGradient>
    <filter id="luminosity-noclip" x="11.7" y="22.9" width="1496.1" height="50.5" color-interpolation-filters="sRGB" filterUnits="userSpaceOnUse">
      <feFlood flood-color="#fff" result="bg"/>
      <feBlend in="SourceGraphic" in2="bg"/>
    </filter>
    <filter id="luminosity-noclip1" x="11.7" y="-8693.9" width="1496.1" height="32766" color-interpolation-filters="sRGB" filterUnits="userSpaceOnUse">
      <feFlood flood-color="#fff" result="bg"/>
      <feBlend in="SourceGraphic" in2="bg"/>
    </filter>
    <mask id="mask-1" x="11.7" y="-8693.9" width="1496.1" height="32766" maskUnits="userSpaceOnUse"/>
    <linearGradient id="linear-gradient1" x1="759.7" y1="73.4" x2="759.7" y2="22.9" gradientUnits="userSpaceOnUse">
      <stop offset="0" stop-color="#999"/>
      <stop offset=".3" stop-color="#000"/>
    </linearGradient>
    <mask id="mask" x="11.7" y="22.9" width="1496.1" height="50.5" maskUnits="userSpaceOnUse">
      <g class="st1">
        <g class="st2">
          <path class="st3" d="M1480.5,22.9H38.9c-15,0-27.2,11.4-27.2,25.2h0c0,13.9,12.2,25.3,27.2,25.3h1441.6c15,0,27.2-11.4,27.2-25.2h0c0-13.9-12.3-25.3-27.2-25.3Z"/>
        </g>
      </g>
    </mask>
    <linearGradient id="linear-gradient2" x1="759.7" y1="73.4" x2="759.7" y2="22.9" gradientUnits="userSpaceOnUse">
      <stop offset="0" stop-color="#fff"/>
      <stop offset=".3" stop-color="#fff"/>
    </linearGradient>
  </defs>
  <path class="st4" d="M35.8,20.8h1447.3c15,0,27.3,12.3,27.3,27.3h0c0,15-12.3,27.3-27.3,27.3H35.8c-15,0-27.3-12.3-27.3-27.3h0c0-15,12.3-27.3,27.3-27.3h0Z"/>
  <g class="st0">
    <path class="st5" d="M1480.5,22.9H38.9c-15,0-27.2,11.4-27.2,25.2h0c0,13.9,12.2,25.3,27.2,25.3h1441.6c15,0,27.2-11.4,27.2-25.2h0c0-13.9-12.3-25.3-27.2-25.3Z"/>
  </g>
</svg>