<svg xmlns="http://www.w3.org/2000/svg" xmlns:xlink="http://www.w3.org/1999/xlink" width="243.854" height="134.068" viewBox="0 0 243.854 134.068">
  <defs>
    <clipPath id="clip-path">
      <rect id="Rectangle_843" data-name="Rectangle 843" width="243.854" height="134.068" fill="#fff"/>
    </clipPath>
  </defs>
  <g id="Group_1634" data-name="Group 1634" transform="translate(0 0)">
    <g id="Group_1633" data-name="Group 1633" transform="translate(0 0)" clip-path="url(#clip-path)">
      <path id="Path_77702" data-name="Path 77702" d="M243.107,26.225c0-3.376.07-5.977.228-7.285l.033-.263-.087-.251a2.691,2.691,0,0,0-1.165-1.348,12.283,12.283,0,0,0-3.134-1.269c-3.681-1.052-8.906-1.743-10.628-2.058C198.37,8.307,168.015,5.126,138.078.042L137.824,0l-.249.066C103.333,9.287,68.852,18.686,34.8,29.009c-2.135.646-9.7,2.951-16.924,5.246-3.608,1.149-7.13,2.3-9.848,3.237-1.36.47-2.518.888-3.4,1.236-.442.174-.813.329-1.116.472a3.447,3.447,0,0,0-.815.486A4.77,4.77,0,0,0,.846,43.292,5.9,5.9,0,0,0,1.839,46.3c.223.371.432.688.557.912l.047.1c-.226.338-.764.944-1.266,1.684A5.664,5.664,0,0,0,.089,51.853l0,.211a5.25,5.25,0,0,0,1.074,3A3.9,3.9,0,0,1,1.952,56.5l.007.164a2.8,2.8,0,0,1-.674,1.551,5.5,5.5,0,0,0-1.2,2.511l-.021.388a5.807,5.807,0,0,0,1.149,3.056,3.856,3.856,0,0,1,.8,1.973v.014A3.386,3.386,0,0,1,1.283,68c-.218.331-.465.681-.688,1.092a3.374,3.374,0,0,0-.451,1.5l0,.108a5.654,5.654,0,0,0,1.022,2.791,4.528,4.528,0,0,1,.773,1.776l0,.092a4.853,4.853,0,0,1-.829,2.084A7.652,7.652,0,0,0,0,81.2l.007.27A2.7,2.7,0,0,0,.5,82.983a2.454,2.454,0,0,0,1.388.9,3.02,3.02,0,0,1,.15.848A5.556,5.556,0,0,1,1.229,87.2,7.052,7.052,0,0,0,.162,90.336v.033h0a5.731,5.731,0,0,0,1.013,2.821,3.737,3.737,0,0,1,.686,1.64,3.738,3.738,0,0,1-.688,1.642A5.74,5.74,0,0,0,.162,99.306l.587,0-.587,0v.016A6.641,6.641,0,0,0,1.2,102.313a5.188,5.188,0,0,1,.771,2.373,5.108,5.108,0,0,1-.686,2.523,6.351,6.351,0,0,0-.935,3.007c0,1.348.569,2.821,1.917,4.828A10.241,10.241,0,0,0,7,118.605a36.5,36.5,0,0,0,9.752,2.091c3.357.359,6.606.545,8.866.935,23.267,4.008,51.44,10.548,74.695,12.331.949.073,1.87.106,2.765.106a39.284,39.284,0,0,0,12.867-2.328c3.947-1.32,7.767-2.937,12.193-4.231,16.821-4.924,33.315-10.29,50.007-15.414,18.841-5.789,41.356-10.245,59.6-17.577.564-.226,1.435-.573,2.281-.984a6.954,6.954,0,0,0,2.269-1.553,3.342,3.342,0,0,0,.554-1.128,31.905,31.905,0,0,0,.8-6.679c.15-3.019.209-6.768.209-10.95,0-15-.749-35.563-.749-47M136.272,6.888l94.52,14.972-.061.031c-3.571,1.962-9.559,3.749-15.733,5.345s-12.576,3.042-17.159,4.447c-30.254,9.294-60.63,19.2-91.389,26.591L12.315,44.091V43.3Zm96.322,81.949c-39.949,10.4-78.646,25.165-118.326,35.714a43.676,43.676,0,0,1-11.171,1.278c-13.8.009-30.2-4.492-43.1-6.477C47.14,117.381,34.424,115.1,21.564,113a27.138,27.138,0,0,0-3.928-.186,24.631,24.631,0,0,1-6.04-.472,3.747,3.747,0,0,1-1.727-.9,2.078,2.078,0,0,1-.554-1.56,6,6,0,0,1,.294-1.706l.019-.063c.752.24,1.506.486,2.218.724a28.541,28.541,0,0,0,3.07.914c11.5,2.121,23.291,2.906,34.654,4.79,7.179,1.189,16.034,3.324,24.848,5.208s17.594,3.522,24.733,3.7l.183,0a27.974,27.974,0,0,0,7.983-1.574,14.932,14.932,0,0,0,3.989-2,5.988,5.988,0,0,0,1.414-1.468,3.612,3.612,0,0,0,.608-1.973,3.354,3.354,0,0,0-.888-2.49,3.031,3.031,0,0,0-2.175-.789,11.345,11.345,0,0,0-3.533.811c-.547.193-1.06.383-1.489.526a5,5,0,0,1-.923.244c-1.111.108-2.283.157-3.463.157-1.417,0-2.845-.07-4.2-.195-28.393-2.568-58.96-11.34-88.025-14.316,0-.028,0-.056,0-.082a7.605,7.605,0,0,1,.1-1.245l.014-.08V98.9s.045-1.71.11-4.2c1.008.249,2.19.613,3.327.989,1.706.559,3.237,1.109,4.233,1.3,11.5,2.121,23.291,2.908,34.654,4.793,7.179,1.189,16.036,3.324,24.851,5.208s17.591,3.522,24.731,3.7l.183,0a27.957,27.957,0,0,0,7.983-1.572,14.931,14.931,0,0,0,3.989-2,5.989,5.989,0,0,0,1.414-1.468,3.613,3.613,0,0,0,.608-1.973,3.363,3.363,0,0,0-.888-2.493,3.039,3.039,0,0,0-2.175-.787,11.409,11.409,0,0,0-3.533.808c-.547.195-1.06.385-1.489.529a4.874,4.874,0,0,1-.921.242c-1.111.108-2.283.157-3.463.157-1.417,0-2.845-.07-4.2-.193C69.4,99.332,38.427,90.362,9.035,87.5c.056-2.133.113-4.276.164-6.219.768.244,1.539.5,2.262.738a27.119,27.119,0,0,0,2.955.874c11.5,2.121,23.291,2.908,34.654,4.793,7.179,1.189,16.036,3.324,24.851,5.208s17.591,3.522,24.731,3.7l.183,0a27.958,27.958,0,0,0,7.983-1.572,14.931,14.931,0,0,0,3.989-2,5.989,5.989,0,0,0,1.414-1.468,3.613,3.613,0,0,0,.608-1.973,3.363,3.363,0,0,0-.888-2.493,3.039,3.039,0,0,0-2.175-.787,11.409,11.409,0,0,0-3.533.808c-.547.195-1.06.385-1.489.529a4.874,4.874,0,0,1-.921.242c-1.111.108-2.283.157-3.463.157-1.417,0-2.845-.07-4.2-.193C68.1,85.3,37.924,76.713,9.169,73.635a38.572,38.572,0,0,1-.512-6.86c0-.331.007-.655.009-.984.284.052.58.11.912.195,1.252.315,2.756.813,4.114,1.266A32.4,32.4,0,0,0,17.07,68.27c11.5,2.121,23.293,2.906,34.654,4.793,7.179,1.189,16.036,3.324,24.851,5.208s17.591,3.519,24.731,3.7l.186,0a28.07,28.07,0,0,0,7.983-1.572,15.025,15.025,0,0,0,3.987-2,5.947,5.947,0,0,0,1.414-1.468,3.614,3.614,0,0,0,.611-1.973,3.354,3.354,0,0,0-.888-2.49,3.024,3.024,0,0,0-2.178-.787,11.263,11.263,0,0,0-3.531.808c-.547.193-1.062.385-1.492.529a5.073,5.073,0,0,1-.921.242c-1.111.108-2.281.157-3.46.157-1.417,0-2.847-.073-4.2-.195C70,70.61,38.958,61.6,9.51,58.758c-.291-.094-.564-.186-.808-.275-.012-1.675-.026-3.315-.026-4.71,0-.742,0-1.41.016-1.99,21.273,1.976,42.479,6.282,63.733,9.623,10.656,1.675,21.451,3.164,32.023,5.375l.289.061,130.2-38.032.808.43V86.462a3.555,3.555,0,0,1-.383.416,13.04,13.04,0,0,1-1.543,1.25,6.241,6.241,0,0,1-1.222.709" transform="translate(0 -0.001)" fill="#fff"/>
    </g>
  </g>
</svg>
