<?xml version="1.0" encoding="UTF-8"?>
<svg id="Layer_1" xmlns="http://www.w3.org/2000/svg" version="1.1" viewBox="0 0 243.9 222.1">
  <!-- Generator: Adobe Illustrator 29.7.0, SVG Export Plug-In . SVG Version: 2.1.1 Build 138)  -->
  <defs>
    <style>
      .st0 {
        fill: #fff;
      }
    </style>
  </defs>
  <g id="Group_1632">
    <g id="Group_1631">
      <path id="Path_77692" class="st0" d="M136.6,45.3c2.6-.6,6.7-.3,9.4,0,24.2,2.2,51.1,12,75.7,14.8,6.9,1.3,9.9,7.7,6.8,14-1.7,3.4-9.2,8.4-9.7,11.6-.3,2,3.4,5,1,10.8l-24,26.5c-1.4,6.2,1,12.9-3,18.4-22.7,23.3-43.2,51.2-66.1,74-6.1,6.1-7.9,7.6-17.1,6.4-27.4-3.8-57.8-16.9-85.6-21.4-5.1-1.3-8.9-5.6-9.6-10.8-.8-5.4-.7-30.5,1.5-34.4,1.3-2.3,7.7-6.8,8-8.5.4-1.9-3.9-5.4-.9-10.6L99.5,61.6c10.3-7.8,16.8-.9,20.9-2.5,3.3-1.3,9.8-9.8,13.1-12.1.9-.8,2-1.4,3.1-1.7M223.2,65.7l-81-15.8c-5.7,0-11.1,6.6-15,10.2,7.2,5.3,8.7-6.4,15.9-5.3l70.6,14.1,1.9,2.1-.4,2.2c-4,5.9-17.6,16.2-20.1,21.9-1.1,2.5.3,3.9.1,6.4l28.7-30.2c.9-1.2.3-4.9-.7-5.6M198.2,83l8.7-9.2-61.9-13-5.2,1.4c-.5,2.4,1.7,1.3,3.3,1.6,16.5,3.3,33,6.6,49.5,9.9,3.5,1.8,5.7,5.5,5.6,9.5M192.2,79.3l-84.5-16.2-4.9,3c-23.5,23.8-48.6,46.1-72.5,69.5-1.4,1.3-4,3.2-3.4,5.3l2.4,1.5c26.7,4.2,56.6,16.9,82.9,20.2,2.4.3,4.7.7,7.1-.2l72-76.8.8-6.3h.1ZM195.3,114.1c2,.3,3.1-1.7,4.4-2.9,2.2-2.2,15.6-16.8,15.9-18.2.3-1.7.1-2.1-1.3-3.2-2.4,3.7-22,20.8-19,24.3M125.9,164.4c-3.4,2.4-7.3,4.6-11.7,4.2l-83.6-20.2c-3.6,3.8-10.1,6.8-11.2,12.2-.9,4.5-.8,23.1,0,27.8s2.8,5.3,6.8,6.8c20.7,7.7,55.9,14.8,78.4,19.9,3.6.8,9.5,2.8,12.6,1.5,1.9-.8,5.8-5.3,7.6-7,22.1-22.8,41.9-48.3,63.7-71.5,1.1-1.8,1.8-3.8,1.9-5.9.7-6.2.9-24.1,0-30.2-.3-2.1-.9-4-3.3-4.2l-61.3,66.7h.1Z"/>
      <path id="Path_77693" class="st0" d="M42.6,91.8l11.7-1.9c3.3,6.2-17.1,9.2-18.5,8.3-1.4-.9-7.4-15.7-6.4-17.1l4.3-.8,3.5,8.6C60,47.3,95.5,14.6,146.1,17.9c15.6,1,34.6,6.4,46.7,16.6,2.5,2.1,10.1,8.4,7.8,11.7-3.7,3.1-5.1-2.5-7.3-4.5-20.6-18.4-53.6-22.2-79.6-15.3-24.9,6.6-45.5,25.4-59.9,46.1-1.4,2-12.1,18.6-11.3,19.3"/>
      <path id="Path_77694" class="st0" d="M45.5,41.2c2.7,2.7-9.6,12.6-11.6,15.1-9.7,12.1-14.6,28.2-17,43.3l-4.4.9c0-17.2,8-37.1,19.4-50.1,1.7-2,11-11.9,13.6-9.2"/>
      <path id="Path_77695" class="st0" d="M170.8,6.3v4.7c-8-1-15.4-4.3-23.7-4.9-5.2-.3-10.3-.3-15.5.2-4.6.4-21.3,5.9-22.4,5.7-1.8-.4-2.3-3.9-.6-5.3.8-.7,7.1-2.5,8.8-2.9,17.7-4.7,36.3-3.8,53.4,2.5"/>
      <path id="Path_77696" class="st0" d="M26.2,160.9l91.6,20.2,61.3-65.7c2.3-1.9,4.1-1.1,5.5,1.3.1.6-5.3,7-6.3,8.2-15.3,17.6-33.3,36.7-49.6,53.5-2.2,2.3-7.3,8-10,8.6l-93.2-22.2.7-3.8h0Z"/>
      <path id="Path_77697" class="st0" d="M30.6,174.6l73.6,16.6c2.8,1.7,3.2,4.1,0,5.5l-71.3-16.8c-3.3-.4-5.9-2.9-2.3-5.2"/>
      <path id="Path_77698" class="st0" d="M128.2,190c-.7-1,.9-4.4,1.9-5.3l48.3-51.9c2.4-.7,4.8.3,4.1,3.1-14.2,15.2-27.8,31.3-42.2,46.4-2,2.1-9.5,11.3-12.2,7.7"/>
      <path id="Path_77699" class="st0" d="M94,203.5c-.4.5-2.9.7-3.8.6-5-.5-28-6.1-32.9-8-5.6-2.1-3.7-5.6,2.1-5.1,10.1.9,22.5,7.1,33,7.9,1.7.2,2.2,3.6,1.6,4.6"/>
      <path id="Path_77700" class="st0" d="M119.3,194c-.3,2.9,1.9,14.5-2.3,14.5-5.3-.4-4-13.7-1.5-15.2l3.8.7Z"/>
      <path id="Path_77701" class="st0" d="M37.8,139.3l1.3-4.8,69.3-66.9,70.5,13.8c5.5,1,5.8,2.7,2.7,7l-64.9,69.4-79-18.4h.1ZM175.8,85.9l-65.4-12.5c-22.2,19.8-42.7,41.9-64.9,61.6l69.3,16.8,61-65.9Z"/>
    </g>
  </g>
</svg>