<?xml version="1.0" encoding="UTF-8"?>
<svg id="Layer_1" xmlns="http://www.w3.org/2000/svg" version="1.1" viewBox="0 0 1108.5 407.4">
  <!-- Generator: Adobe Illustrator 29.7.0, SVG Export Plug-In . SVG Version: 2.1.1 Build 138)  -->
  <defs>
    <style>
      .st0 {
        fill: #fff;
      }

      .st1 {
        fill: #989765;
      }

      .st2 {
        fill: none;
        stroke: #000;
        stroke-miterlimit: 10;
        stroke-width: 11px;
      }

      .st3 {
        fill: #316d74;
      }
    </style>
  </defs>
  <path class="st1" d="M589.6,10.5c16.6,12.5,28.1,30.8,39.6,49.2.5.7.9,1.4,1.3,2.2,12.4,20.4,22.8,41.7,33.2,63,1.4,2.9,2.8,5.8,4.1,8.7,7.7,16.2,14.1,32.4,20.6,49.6.9,2.3,1.9,4.7,2.8,7,6.5,16.2,12,33.4,17.6,49.5.5,1.4,1,2.8,1.5,4.2,1.3,3.5,1.9,6.1,1.8,10,1,0,2-.1,3-.3,18.1-1.5,35.1-1.7,53.1-2.1,3.4-.1,6.9-.2,10-.2,9.9-.2,20-.4,30-.5,2,0,4,0,5.9-.1,22-.4,44,.3,66,.9s8.4.2,13,.4c33,.9,66,2.1,99.8,6.9.8,0,1.5.2,2.3.3,44.5,6.3,72.2,16.8,83.1,31.4,1.4,2.2,2.5,4.4,3.3,6.9,1.3,3,2.5,3.8,5.3,5.5,6.6,4.4,9.3,10,11.5,17.3.3,4.7,0,9.3-.4,14v2.7c-1,14-2.2,25.9-12.1,36.7-20.5,16.4-52.6,18.5-77.7,21.8-1,0-1.9.2-2.9.3-47.2,5.6-95.2,5.5-142.2,5.9-2.2,0-4.3,0-6.4.1-81.1,1.7-162.1,1.1-280.1.4h-2.2c-17-.2-33-.3-50-.5-7.1-.1-14-.1-21-.2-37-.3-74-1.1-111-2.2l-7-.2c-46-1.3-93-3-138.9-7-3.3-.3-6.7-.6-10-.9-13-1.1-25.9-2.4-38.9-3.7-1.1,0-2.1-.3-3.2-.4-32.9-3.6-64.8-7.8-97.6-13.8-1.2-.2-2.4-.5-3.7-.6-48.4-8.7-78.4-20.9-90-36.6-3.1-5.7-3-12.1-3-18.1v-2.1c0-13,1-23,9.6-32.7,2.1-1.9,3.9-2.8,6.6-3.3v-1.8c2.3-23.9,20.4-45.4,36.8-61,.1-.1.7-.6,1.5-1.5,15.5-15.6,33.8-28,54.1-38.5.2-.1.8-.4,1.7-1,4.8-2.6,9.7-5.1,14.2-7.6.3-.1,1.1-.6,2.5-1.3,24.4-12.3,50.7-22.5,76-31.8,1.1-.4,2.2-.7,3.3-1.1,30.3-10.1,60.6-20.3,90.9-29.4,5-1.5,10-3,15.1-4.5,18.2-5.6,37.3-10.9,55.5-16.4,1.9-.5,3.8-1.2,5.8-1.7,16.1-4.7,27.9-8.4,35.3-11,30.3-8.8,61.6-18.2,90.9-28.4,1-.4,2-.6,3-1,1.8-.6,3.7-1.3,5.6-1.9,2-.7,4-1.4,6.1-2,1.1-.4,2.2-.7,3.3-1.1,1-.4,2-.6,3-1,1.6-1,2.9-2.3,3.7-3.9.5-1.8.9-3.7,1.3-5.5,1.8-6.8,6.6-11.8,12.5-15.6,16.3-9.1,36.3-8.5,51,2.1v-2.5c0,0,0,.2,0,.2Z"/>
  <path d="M716.4,255c4.5.1,9,.5,13.5.4,83.2-.7,165.8-5.8,248.8,3.2,25.7,2.7,87.9,10.4,102.8,33.2,1.8,2.9,2.8,6.9,4,8.7,3.2,4.4,9.9,5.1,13.5,13.5,5.7,13.1,1,48.8-10.3,59.1-16.9,15.4-68.2,20.7-91.2,22.8-75,6.8-153.7,5.1-229.1,5.5-151.6.8-305.1,2.2-456.6-6.2-77.7-4.2-167.5-9.9-242.9-29.2-17.7-4.5-59.9-15.5-62.7-37-1.8-14.2-2.2-34.6,8.7-45.2,1.5-1.5,6.2-3.6,6.4-4,.4-.7,2.7-12.5,4-15.9,25.9-69.5,133.5-110.7,198.3-132.7,101.2-34.4,205.9-58.5,306.3-95.2,2.6-23.7,24.3-32.6,46-29.8,25.8,3.3,48.3,41.6,60.7,62.2,29.2,48.6,52.6,104.7,71.2,158.2,3.2,9.2,6.7,18.9,8.5,28.5h0ZM689.9,334.8c8.8,1.4,37.8-1.8,38.8-1.4-.7-3-10.7-37.5-10.6-39.7s-4.2-16.3-5-19.5c-11.2-40.4-28-84.4-44.9-122.8-13.7-31.3-55-117.4-84.1-132.4-18.3-9.4-45.5-1.7-45.6,22.1,7.6-3.7,16.5-2.1,23.2,2.9,17.7,13.2,40.1,53.3,50.7,73.6,33.8,64.5,57.4,136.4,75.1,207,1.6,4.2,2.3,10.4,2.3,10.4h.1ZM557.7,52.7c-4.4-3.8-12.8-11.3-18.4-10.3-35.1,14.2-64.7,23.9-101,34.8-2.6,2.7,3.9,2.5,2.8,5.6-2.9.5-5.7-3.6-8-4.1s-41.4,11.2-41.4,11.2c-3.2,1.5-18,5.5-20.7,6.4l-6.6,1.8-68.1,20s-45.8,14.5-60.1,19.3c-42.7,14.3-130.9,49.4-163.1,79.8-32.2,30.4-17,16.8-19.7,19.9s-18.2,24-17.2,28.6,9.3,10.4,13.5,13.2c13,8.7,33.1,13,48.2,17,2.1.6,13.9,3.6,14.7,3.4,1.1-.2,1.3-2.5,2-2.7,3.9-.9,1.5,2.1,3,3.2s4.8,1.5,6.2,1.8c41.1,9.3,155.4,18.5,155.4,18.5l72.5,4.4,69.5,2c.9-.9-4.8-8.6.8-9l3.3,8.6c5.3,2,11.3,0,16.5-.1,9.7,0,26.4,2.5,35,1,8.5-1.5,9.8-9.3,8,.2h100.4c0,0-1.7-5.9-1.7-5.9-.3-1.9,3.1-3.3,3.8-1.6l.9,6.2,83.9-3.5c.9-.9-3.9-21.2-4.6-24.3-15-66.5-40.3-134.5-73.1-193.8.7,2.6-19.4-36.6-37-52l.3.3ZM809.1,365.8c52.9-1.3,105.9-2.2,158.7-6.4,27.7-2.2,57.8-5,84.9-11.1,17.7-3.9,55.2-12.1,33.4-36.5-4,2.1-6.1,5.2-10.3,7.3-17.4,8.5-51.5,11.9-71.2,14-66,7.2-132.9,7.3-199.1,8.4-24.7.4-50.6-.8-74.4,3.5-18.3,3.2-44.2.7-63.5.7-166.5-.9-333.6,3.4-499.4-17.4-165.8-20.8-84.5-10.7-119.8-23-8.6-3-20.2-7.2-25.1-15.2-9.9,5.3-10.3,30.8-6.8,39.5s29.9,19.7,41.2,23.2c30.1,9.5,63.8,14.7,95.2,19.1,119,16.2,238.4,18,358.3,19.4,115,1.2,230.1,1.8,344.9,0,61.3-1,144.8,1.7,203.1-14.3,19.6-5.4,31.5-12.2,31.8-34.8-5.9,2.6-11.6,5.5-17.7,7.5-61.3,19.8-171.5,18.5-237.4,18.2-7.4,0-15.6-.2-23-.7-7.4-.5-3.7.7-3.5-1.1h0Z"/>
  <path class="st0" d="M809.1,365.8c-.2,1.7,2.3,1,3.5,1.1,7.4.5,15.6.7,23,.7,65.9.3,176.1,1.7,237.4-18.2,6.2-2,11.8-4.9,17.7-7.5-.3,22.6-12.2,29.4-31.8,34.8-58.3,16-141.8,13.4-203.1,14.3-114.8,1.9-229.9,1.3-344.9,0-119.9-1.3-239.3-3-358.3-19.4-31.4-4.3-65-9.5-95.2-19.1-11.4-3.6-36.7-11.7-41.2-23.2-4.6-11.5-3-34.1,6.8-39.5,4.9,8,16.4,12.3,25.1,15.2,35.3,12.2,82.5,18.3,119.8,23,165.8,20.8,332.9,16.6,499.4,17.4,19.3,0,45.1,2.6,63.5-.7,23.8-4.2,49.8-3.1,74.4-3.5,66.3-1.1,133.1-1.2,199.1-8.4,19.8-2.1,53.9-5.5,71.2-14,4.3-2.1,6.4-5.2,10.3-7.3,21.8,24.3-15.6,32.6-33.4,36.5-27.1,6-57.2,8.8-84.9,11.1-52.7,4.3-105.8,5.1-158.7,6.4h0Z"/>
  <path d="M387.5,218.6c-1.8,3.6-2.9,5.9-1.2,10.2s8.4,8.8,3.1,9.9-4.8-11.2-8.1-12.8-4.4,3.2-5-.1,5.2-1.6,2.4-5.9l.8-1,8-.3h0Z"/>
  <path d="M574.2,260c-1.7,4.2-5.4,3.9-6.3,9.3,3.6-.6,6.4,8.3,3.2,9.6s-2.8-3.6-3.3-4.7-1.2-6.1-2.4-6.5c-7.7,2.1-12.2,9-19.8,11.4-.2-1.9.2-2.8,1.6-4s6.5-4.5,7.8-5.2,3.1-.1,3.7-.6.4-2.3,1.3-3.3c1.5-1.6,4.7-.3,4.2-4.2l10-1.8v-.2Z"/>
  <path d="M510.7,141.2c.6,4.3-4,5.4-7.2,5.8,5.4,6.6,0,8.8-3.6,1.9-2.5,2-5.1,4.4-8.6,3.8,0-3.4,4.2-4.9,7.1-4.8l-1.9-5.1,5.4,2.2,8.6-3.8Z"/>
  <path d="M313.3,122.5c2,2.3-3.2,4.1-3.1,4.4,1.5,2.3,7.2,5,3.3,7.6-1.1.2-6.5-4.4-6.3-6.1,0,0-4.6,2.4-6.1.6s4.7-4.1,4.7-4.1l7.6-2.5h0Z"/>
  <path d="M269.6,146.3c-.6-6.6,9.4-5.5,11.5-6.6s4.8-9.2,8.8-4.3c0,2.1-19.5,11.7-20.3,10.9Z"/>
  <path d="M194.2,196l-2.8,8.9c-3.5-2.9-3.7-.4-7.5-.2l1.2-8,9-.7Z"/>
  <path d="M544.5,217.2c1.6,1.3,6.2.6,4.8,7.1-5.1.4-5.4-5.2-6.9-8.5s-2.2-2.1-2.6-3.4c-1.5-5.8,3.4-4.5,5.1,1.1.5,2-.5,3.5-.4,3.6Z"/>
  <path d="M535.9,196.1c.6,3.1,2.9,5.6,4,8.4s1.5,3.1-.6,3.5-8.1-11.3-7.2-12.2l3.8.3Z"/>
  <path d="M225.6,247.4c2.5-2.1,11.8,10.6,6.9,10.2s-8.3-9-6.9-10.2Z"/>
  <path d="M533.9,129.9c.8,3.1-2.8,4.2-5.2,5.4s-5.3,3.6-7,.8c1.3-1.8,10.8-7.6,12.2-6.2Z"/>
  <path d="M606.8,239c1.8,2-5.9,6.4-7.3,7.2s-3.1,2.4-3.9-.1,0-2,1.4-2.7,8.7-5.8,9.8-4.5h0Z"/>
  <path d="M559.4,251.6l2.5-.8c7.9,10.5-1.3,14.9-2.5.8Z"/>
  <path d="M364.3,190.9c-3.2,2.7-9.1-7.3-5.3-8.2,3.3-1.3,6.1,7.4,5.3,8.2Z"/>
  <path d="M518.4,169.5c1.5.9,8,8.1,3.7,9.1s-6.7-9.3-3.7-9.1Z"/>
  <path d="M338.2,158.3c3.2,1.3,6.2.2,7.5,5.7l-2.3,2.4c-2.9-3.1-4.8-3.7-5.3-8.2-2.4-1-10.1-7.3-5.3-8.2s5.5,4.3,5.8,5.2-.7,2.4-.6,3h0Z"/>
  <path d="M396.4,257.8c-5.4-11.1.3-12.2,3.9-1.4l-3.9,1.4Z"/>
  <path d="M370.9,208c-4.5-10.1,1.2-9.9,4.9-1.3-1.2,1.7-3.1,1.8-4.9,1.3Z"/>
  <path d="M354.6,182.6c-5.8-8.9-.2-10.8,4-2.3l-1.7,2.5h-2.4c0,0,.1-.2.1-.2Z"/>
  <path d="M584.4,253.3c1.5,1.3-7.9,8.2-9.2,6.7-1.4-3.6,7.5-8.2,9.2-6.7Z"/>
  <path d="M323.7,141.8c1.5-1.5,8.2,5,7.8,6.7-1.1,4.7-9.7-5-7.8-6.7Z"/>
  <path d="M229.9,170.1c-1.7-1.9,7.1-9.7,9.2-5.2-2.6,2.5-5.1,5.8-9.2,5.2Z"/>
  <path d="M327.1,267.9c1.5,1.3-9.4,11.2-9.2,6.2s6.4-8.3,9.2-6.2Z"/>
  <path d="M408.7,279.3c-4.2,1.9-6.5-8.5-5.7-9.2,3.8-2,6.4,8.6,5.7,9.2Z"/>
  <path d="M520.8,136.5c2.4,2.7-8,6.9-9.2,5.7-1.4-3.6,8.1-6.9,9.2-5.7Z"/>
  <path d="M410.6,281.3l2.7,10.1-3.1-.7c-.7-3.3-5.7-8.9.3-9.4h0Z"/>
  <path d="M403.5,205.2l2.2,2.5c-2,1.1-5.2,4.9-7.6,4.3-3.9-.9,4-6.7,5.3-6.7h0Z"/>
  <path d="M404,268.1l-3.1-.7c-.2-2.9-4.6-6.1-1.2-8.4,2.5-.4,4.9,7,4.2,9.1Z"/>
  <path d="M247.6,279.7l2.8,9c-2,2-10.4-11-2.8-9Z"/>
  <path d="M415.1,294.5l1.8,9-3.1-.7c-.7-3.4-4.3-9.8,1.2-8.3Z"/>
  <path d="M375.3,209.3c4.6-1.1,5.5,8.2,2.8,8.1s-6.7-7.2-2.8-8.1Z"/>
  <path d="M451.7,175.6c-.6,4-5.5,6.3-9.2,5.7-1.7-1.5,6.9-7.3,9.2-5.7Z"/>
  <path d="M364.8,192c3.1-.7,7.1,6.3,3.8,7.1s-7.1-6.3-3.8-7.1Z"/>
  <path d="M414,199.4c2.1,2.3-7.4,9.4-8.2,5.3s7.1-6.3,8.2-5.3Z"/>
  <path d="M556.2,121.6c-1.8-4.4,9.2-7.1,9.1-4.2s-8.1,5.4-9.1,4.2Z"/>
  <path d="M576.4,289c-2.9,2.7-5.8-6.9-4.7-9.1,3.2-.7,5.7,8.3,4.7,9.1Z"/>
  <path d="M480.2,123.4c-2,1.8-6.1-4.4-6.8-5.7s-1.2-2.1.6-2.5,7.8,6.6,6.3,8.2Z"/>
  <path d="M482.2,124.4c1-1.2,10,7.3,5.3,8.2-2,.3-6.6-5.8-5.3-8.2Z"/>
  <path d="M535.5,284.9c1.9,2.1-7.4,9.4-8.2,5.3s7.1-6.3,8.2-5.3Z"/>
  <path d="M391.4,239.7c2.2-.4,6,7.5,2.8,8.1-3,0-6.1-7.5-2.8-8.1Z"/>
  <path d="M346.5,166.5c2.1-.4,2.3.7,3.3,1.7s4.3,4.9,1.4,5.4-8-6.5-4.8-7.1h0Z"/>
  <path d="M257.1,300.8c-2.7,2.4-7-7.2-5.7-9.2,1.9-1.9,6.8,8.2,5.7,9.2Z"/>
  <path d="M528.4,186.7c-2.3,2.1-8.5-7.3-4.3-8.1,2.3-.4,5,7.3,4.3,8.1Z"/>
  <path d="M538,281.2c6.5-7.1,9.9.5.9,3.6l-2.3-1.5c.6-.6.7-1.6,1.4-2.2Z"/>
  <path d="M578.1,299.2c3.2-.6,6.2,8.6,3.2,9.1s-3.6-7.4-3.2-9.1Z"/>
  <path d="M544.1,125.2c2.6,2.9-8.4,6.5-9.2,5.7-.8-3.1,8.2-6.8,9.2-5.7Z"/>
  <path d="M218.3,175.8c4.2.2-2.2,7.5-5.2,6.9-4.9-1.1,4.1-6.9,5.2-6.9Z"/>
  <path d="M175.7,212.5c-1.5-2.8,3.8-7.2,5.7-6.8,3.6.7-2.8,8.5-5.7,6.8Z"/>
  <path d="M471.1,163.1c2.3,2.6-7.7,7.3-8.2,6.8-1.5-3.2,7-8,8.2-6.8Z"/>
  <path d="M388.5,218.7c-2.2-3.9,6.6-8.5,7.2-5.3,0,2-5.8,6.7-7.2,5.3Z"/>
  <path d="M516.9,169.4c-2.4,2.2-8-7.4-4.3-8.1s5.4,7,4.3,8.1Z"/>
  <path d="M517.7,296.4c4.2.2-2.2,7.5-5.2,6.9-4.9-1.1,4.1-6.9,5.2-6.9Z"/>
  <path d="M316.1,137s-.9-.8-.5-2.2,1.8-1,1.8-1c2.1,1.5,6,3.6,5.3,6.7-.8,3.4-4.4-2-6.3-2.8-.2,0-.4-.3-.3-.5h0Z"/>
  <path d="M593.6,247.6c1.5,1.4-6.1,6.8-8.2,5.8-.4-4.5,4.6-6.3,8.2-5.8Z"/>
  <path d="M561.5,249.7l-3,.5c-7.2-9.8,1.3-10.8,3-.5Z"/>
  <path d="M579.1,298.1l-3.1-.7-1.7-7.5c4.7-.6,5.1,4.6,4.8,8.1Z"/>
  <path d="M359.9,239.8c-1.7-1.9,5.9-9.5,8.2-5.3-2.6,1.9-4.4,5.9-8.2,5.3Z"/>
  <path d="M556.7,241.5c-3.2.7-6-7-4.8-8.1,4.7-.6,5.1,4.6,4.8,8.1Z"/>
  <path d="M424.1,193.7c-2-2.2,5.9-8.7,8.1-4.3-.9,1.3-6.9,5.5-8.1,4.3Z"/>
  <path d="M608.8,239c-2.2-2.4,7.4-8,8.1-4.3.2,2.5-7.3,5-8.1,4.3Z"/>
  <path d="M267.6,146.2c1.5,1.4-6.1,6.8-8.2,5.8-1.5-3.4,6.7-7.1,8.2-5.8Z"/>
  <path d="M524.9,290.6l2.4,1.6c-1.4,2.6-3.7,4.5-6.6,5.3-4-3.2,2.5-4.4,4.2-6.9Z"/>
  <path d="M248.3,157.7c1.7,1.5-7.5,8.6-8.1,4.3s6.1-5.1,8.1-4.3Z"/>
  <path d="M464.7,106.9c2.3-.9,7.2,4.1,6.8,5.7-1,4.6-8.7-3.9-6.8-5.7Z"/>
  <path d="M489.9,134.6c2.3-.9,7.2,4.1,6.8,5.7-1,4.6-8.7-3.9-6.8-5.7Z"/>
  <path d="M554.2,120.5c2.6,2.9-9.3,7.5-9.1,4.2.9-1.7,8.1-5.4,9.1-4.2Z"/>
  <path d="M460.9,169.8c1.5,1.4-6.1,6.8-8.2,5.8-1.5-3.4,6.7-7.1,8.2-5.8Z"/>
  <path d="M316.8,276.6c.9,2.3-4.1,7.2-5.7,6.8-4.6-1,3.9-8.7,5.7-6.8Z"/>
  <path d="M243.9,276.5c-2.4,2.2-8-7.4-4.3-8.1,2.5-.2,5,7.3,4.3,8.1Z"/>
  <path d="M423.1,193.6c.6,2.9-6.9,7.1-8.2,5.8-2.3-2.5,6.2-6.7,8.2-5.8Z"/>
  <path d="M374.8,226.3c4,2.3-3.3,7.1-5.2,6.9-4-.7,4-6.6,5.2-6.9Z"/>
  <path d="M486.5,322.4c-1.6-1.8,3.5-5.2,4.7-5.9s2.1-1.2,2.5.6c.6,3.4-6.3,6.1-7.2,5.3Z"/>
  <path d="M165,220.2l2.4,2.6-5.6,4.3c-3.6-2.7,1.5-4.9,3.2-6.9Z"/>
  <path d="M511.1,160.3c-3.6,1.4-8.3-6.4-4.3-7.1s5.2,6.3,4.3,7.1Z"/>
  <path d="M351.7,245.6c-1.1-.9,5.8-9,8.1-4.3-2.5,2.3-4.1,5.1-8.1,4.3Z"/>
  <path d="M353.8,104.7c1,4.1-4.9,4.8-8.1,4.8.3-3.8,5-5.2,8.1-4.8Z"/>
  <path d="M152,237.8c1,1-3.1,5.7-4.2,6.4-7.5.6,2.2-8.3,4.2-6.4Z"/>
  <path d="M236.8,259c.6,1.4,3,5.9,1.9,7-2.2,2-10-8.4-1.9-7Z"/>
  <path d="M440.5,182.2c2.4,2.7-8.4,8.4-8.1,4.3s6.2-5.3,8.1-4.3Z"/>
  <path d="M202.4,189.3c2,2.2-6,7-7.2,5.8-1.2-3.3,5.5-7.5,7.2-5.8Z"/>
  <path d="M323.4,117.8c2.4,2.7-6.7,5.7-8.2,5.8-1.7-3.7,7.3-6.7,8.2-5.8Z"/>
  <path d="M333.9,263.8c-.7.8-6.6,5-6.7,1.6,1.5-5.3,11.4-6.7,6.7-1.6Z"/>
  <path d="M333.5,113.1c2.4,2.7-6.7,5.7-8.2,5.8-1.7-3.7,7.3-6.7,8.2-5.8Z"/>
  <path d="M533.1,194.8c-2.2,2-8.2-6.4-4.3-7.1s5.7,5.7,4.3,7.1Z"/>
  <path d="M129.8,270.9c-1.1.7-3.2.8-2.7-1.3s2.9-7.1,4.6-6.5c3,1.3-1.2,7.3-1.9,7.7h0Z"/>
  <path d="M350.7,246.6c.3,2.1-.3,2.6-1.6,4-7.3,7.6-6.5-4.3,1.6-4Z"/>
  <path d="M126.9,274.1c1.1,1.1-2.2,8.5-5.2,7.9-.7-2,2.6-10.5,5.2-7.9Z"/>
  <path d="M159.2,228c.5,3.7-2.2,7.2-6.2,6.8-1.2-2.3,5.2-8,6.2-6.8Z"/>
  <path d="M548.2,225.3c3.9-1.5,6.5,6.5,3.3,7.1l-3.3-7.1Z"/>
  <path d="M335.5,114.2c-2.6-3,9.3-7.5,9.1-4.2-.7,1.6-8.6,4.8-9.1,4.2Z"/>
  <path d="M510,303.1c1.8,2.1-7.6,11.2-6.6,3.8l6.6-3.8Z"/>
  <path d="M420.6,315.5c-3.5.8-4.5-8.3-3.7-9.1,3.5-.8,4.5,8.3,3.7,9.1Z"/>
  <path d="M499.4,310c1.8-.4,2.3,0,3.3,1.4-1.8,1.4-3.8,5-6.6,4.3s2.1-5.4,3.4-5.7Z"/>
  <path d="M487.1,152.7c7.1-.9-1.1,5.9-3.4,5.7s-.2-5.2,3.4-5.7Z"/>
  <path d="M336.3,259.2c-1.6-1.6,4.6-9,7.1-4.3-2.2,1.8-3.7,4.9-7.1,4.3Z"/>
  <path d="M626.1,228.5c1.7,1.6-7.6,7.8-8.1,4.3s7.2-5,8.1-4.3Z"/>
  <path d="M211.6,182.5c1.1,1-4.8,7.2-7.2,5.8-.5-3.9,3.8-6,7.2-5.8Z"/>
  <path d="M228.9,170.1c1,3-8.4,8-8.1,4.3s6.2-5.3,8.1-4.3Z"/>
  <path d="M584.7,310.3c.3.3,1.7,8.2-.7,8l-3.3-6.6c.6-1.3,3.3-2,4-1.4Z"/>
  <path d="M281.5,316l-2.4-1.7c1-1.4,3.8-5.7,5.8-5.1,3.4.9-2.1,6.1-3.4,6.8Z"/>
  <path d="M299,130.1c.7,2.9-7.5,5.6-8.1,4.8-2.5-2.8,6.2-5.6,8.1-4.8Z"/>
  <path d="M193.9,206c1.6-1.6,9,4.6,4.3,7.1-1.8-2.2-4.9-3.7-4.3-7.1Z"/>
  <path d="M742.5,366.3c-2.9,3.5-10,1.4-14.6,1.6-106.3,3.8-212.7,3.3-319,1.7-71.8-1-144-5.9-215.5-14.2-43.2-5-96-11.8-136.7-26.5-9.7-3.5-20.7-7.9-28.6-14.3,49.1,19.4,104,28.1,156.5,34.5,158.2,19.3,324.1,16.8,483.3,17,24.8,0,49.7,1.2,74.5.3Z"/>
  <path class="st2" d="M716.4,255c-1.8-9.5-5.2-19.3-8.5-28.5-18.6-53.6-42-109.7-71.2-158.2-12.4-20.7-34.9-58.8-60.7-62.2-21.6-2.8-43.4,5.9-46,29.8-100.4,36.7-205,60.8-306.3,95.2-64.8,22-172.3,63.2-198.3,132.7-1.3,3.5-3.5,15.2-4,15.9s-5,2.6-6.4,4c-10.9,10.6-10.5,31-8.7,45.2,2.8,21.6,45,32.5,62.7,37,75.3,19.3,165.1,25,242.9,29.2,151.5,8.4,305,7,456.6,6.2,75.3-.4,153.9,1.3,229.1-5.5,23-2,74.3-7.4,91.2-22.8,16.9-15.4,16-46,10.3-59.1-3.7-8.4-10.4-9-13.5-13.5s-2.2-6-4-8.7c-14.7-22.7-77-30.4-102.8-33.2-83-9-165.7-3.8-248.8-3.2-4.5,0-9-.5-13.5-.4Z"/>
  <path class="st3" d="M886,258.3l12,.3c22,.6,44,1.3,64.9,3,.8,0,1.7,0,2.6.2,12,.9,22.9,2.3,34.9,4,1,.1,2.1.3,3.1.5,13.9,2.1,26.9,5.2,40.8,8.8.7.2,1.4.3,2.2.6,11.9,3.1,24.8,8.8,31.5,18.9,0,1.5,0,3.1,0,4.7v2.4c0,.2,0,.8-.1,1.9-12.2,7.4-26.3,9.1-40.3,10.8-.8.2-1.6.3-2.4.4-25.1,4-51.2,6.5-76.2,7.5-4.6.2-9.1.5-14,1.1-7.1.8-14,.9-21,.9-5,0-9.7.3-15,1-12,1.4-24,1.2-37.1,1.3-5.9,0-12,.2-18,.3-1.5,0-3,0-4.5,0-11,.2-21,.4-32,.7-26,.6-52.1,1.2-78-.2-3.6-12.8-6.1-22.2-7.4-28.2-2.5-11.1-5.5-23.2-9-33.3-.8-2.4-1.2-4.6-1.1-6.6,16-1,33.1-1.6,49.1-2,3.6,0,7.3-.2,11-.3,35-.8,70-.2,104,.8l.5.5h0Z"/>
  <path d="M461,104c-2.4-1-10.1-7.3-5.3-8.2s5.5,4.3,5.8,5.2-.7,2.4-.6,3"/>
  <path d="M445.1,86.5c1.5-1.5,8.2,5,7.8,6.7-1.1,4.7-9.7-5-7.8-6.7Z"/>
  <path d="M436.4,80.8l1.1-3.7c2.1,1.5,6,3.6,5.3,6.7s-4.9-1.5-6.4-2.9h0Z"/>
  <path d="M480.5,157.3c2.3,2.6-7.7,7.3-8.2,6.8-1.5-3.2,7-8,8.2-6.8Z"/>
  <path d="M575.5,110.9c2,2.8-8.5,6.4-8.9,5.8-1.2-3.4,7.9-7.2,8.9-5.8Z"/>
  <path d="M586.2,105.4c2,2.8-8.5,6.4-8.9,5.8-1.2-3.4,7.9-7.2,8.9-5.8Z"/>
  <path d="M596.8,100.1c2,2.8-8.5,6.4-8.9,5.8-1.2-3.4,7.9-7.2,8.9-5.8Z"/>
  <path d="M262.9,312.4c-2.7,2.4-7-7.2-5.7-9.2,1.9-1.9,6.8,8.2,5.7,9.2Z"/>
  <path d="M206.5,221.5c3.2,1.3,6.2.2,7.5,5.7l-2.3,2.4c-2.9-3.1-4.8-3.7-5.3-8.2-2.4-1-10.1-7.3-5.3-8.2s5.5,4.3,5.8,5.2-.7,2.4-.6,3h0Z"/>
  <path d="M222.9,245.8c-5.8-8.9-1.3-11.5,2.9-3v2.4c0,0-2.9.5-2.9.5h0Z"/>
  <path d="M214.8,229.7c2.1-.4,2.3.7,3.3,1.7s4.3,4.9,1.4,5.4-8-6.5-4.8-7.1h0Z"/>
  <path d="M167,220.1c-1.5-2.8,3.8-7.2,5.7-6.8,3.6.7-2.8,8.5-5.7,6.8Z"/>
  <path d="M122.3,285.2c1.1,1.1-2.2,8.5-5.2,7.9-.7-2,2.6-10.5,5.2-7.9Z"/>
  <path d="M135.7,261.3c-1.1.7-3.2.8-2.7-1.3s2.9-7.1,4.6-6.5c3,1.3-1.2,7.3-1.9,7.7h0Z"/>
  <path d="M144.9,246.2c1,1-3.1,5.7-4.2,6.4-7.5.6,2.2-8.3,4.2-6.4Z"/>
  <path d="M302.5,291.5c1.6,1.1-8.4,12-8.6,7s5.7-8.8,8.6-7Z"/>
  <path d="M293,301c1.1,2.2-3.4,7.5-5.1,7.3-4.6-.6,3.2-9,5.1-7.3Z"/>
  <path d="M308.9,286.9c-.6.8-6.3,5.5-6.6,2.1,1.1-5.4,10.7-7.6,6.6-2.1Z"/>
  <path d="M268.3,323.6c-2.7,2.4-7-7.2-5.7-9.2,1.9-1.9,6.8,8.2,5.7,9.2Z"/>
  <path d="M275.7,323l-2.4-1.7c1-1.4,3.8-5.7,5.8-5.1,3.4.9-2.1,6.1-3.4,6.8Z"/>
  <path d="M628.3,228.4c-2.2-2.4,7.4-8,8.1-4.3.2,2.5-7.3,5-8.1,4.3Z"/>
  <path d="M645.6,217.9c1.7,1.6-7.6,7.8-8.1,4.3s7.2-5,8.1-4.3Z"/>
  <path d="M176.9,189.5c3.3,1,6.2-.2,8,5.2l-2.2,2.5c-3.1-2.9-5-3.4-5.8-7.8-2.5-.8-10.6-6.6-5.8-7.8s5.7,3.9,6.2,4.7-.5,2.4-.3,3h-.1Z"/>
  <path d="M161.3,174.2c1.4-1.6,8.5,4.4,8.2,6.1-.7,4.8-10-4.3-8.2-6.1Z"/>
  <path d="M152.3,165.9c1.4-1.6,8.5,4.4,8.2,6.1-.7,4.8-10-4.3-8.2-6.1Z"/>
  <path d="M258.3,151.8c1.5,1.4-6.1,6.8-8.2,5.8-1.5-3.4,6.7-7.1,8.2-5.8Z"/>
  <path d="M297.9,116.1c1.5-1.5,8.2,5,7.8,6.7-1.1,4.7-9.7-5-7.8-6.7Z"/>
  <path d="M363.6,100.2c1,4.1-4.9,4.8-8.1,4.8.3-3.8,5-5.2,8.1-4.8Z"/>
  <path d="M423.4,62.4"/>
</svg>