<?xml version="1.0" encoding="UTF-8"?>
<svg id="Layer_1" xmlns="http://www.w3.org/2000/svg" version="1.1" viewBox="0 0 1110.4 411.3">
  <!-- Generator: Adobe Illustrator 29.7.0, SVG Export Plug-In . SVG Version: 2.1.1 Build 138)  -->
  <defs>
    <style>
      .st0 {
        fill: #fff;
      }

      .st1 {
        fill: #989765;
      }

      .st2 {
        fill: none;
        stroke: #000;
        stroke-miterlimit: 10;
        stroke-width: 11px;
      }

      .st3 {
        fill: #316d74;
      }
    </style>
  </defs>
  <path class="st1" d="M582.7,10c17,12,29,30,41,48,.5.7.9,1.4,1.4,2.2,13,20,24,41,35,62,1.5,2.9,3,5.7,4.4,8.6,8.2,16,15,32,22,49,1,2.3,2,4.6,3,6.9,7,16,13,33,19,49,.5,1.4,1.1,2.8,1.6,4.2,1.4,3.5,2.1,6,2.1,9.9,1-.1,2-.2,3-.4,18-2,35-2.7,53-3.6,3.4-.2,6.9-.4,10-.5,9.9-.5,20-1,30-1.4,2,0,4-.2,5.9-.3,22-1,44-1,66-1s8.4,0,13,0c33-.1,66,.2,100,4,.8,0,1.5.2,2.3.2q67,7.5,84,29c1.5,2.2,2.6,4.3,3.5,6.8,1.4,3,2.6,3.7,5.5,5.3,6.7,4.2,9.6,9.7,12,17,.4,4.7.2,9.3,0,14,0,.9,0,1.8,0,2.7-.5,14-1.4,26-11,37-20,17-52,20-77,24-1,.1-1.9.3-2.9.4-47,7-95,8.2-142,10-2.2.1-4.3.2-6.4.3-81,4-162,5.8-280,8.5-.7,0-1.4,0-2.2,0-17,.4-33,.7-50,1-7.1.1-14,.3-21,.4-37,.8-74,1-111,1-2.3,0-4.7,0-7,0-46,0-93-.3-139-3-3.3-.2-6.7-.4-10-.6-13-.7-26-1.6-39-2.6-1.1,0-2.1-.2-3.2-.3-33-2.6-65-5.9-98-11-1.2-.2-2.4-.4-3.7-.5q-73-11-91-34c-3.3-5.6-3.3-12-3.5-18q0-.4,0-2.1c-.5-13,.3-23,8.6-33,2-2,3.8-2.9,6.5-3.5,0-.6,0-1.2,0-1.8,1.6-24,19-46,35-62q.2-.2,1.5-1.5c15-16,33-29,53-40q.3-.2,1.7-1c4.7-2.7,9.5-5.4,14-8q.4-.2,2.5-1.4c24-13,50-24,75-34,1.1-.4,2.2-.8,3.3-1.2,30-11,60-22,90-32,5-1.6,9.9-3.3,15-4.9,18-6.1,37-12,55-18,1.9-.6,3.8-1.3,5.7-1.9q24-7.8,35-12c30-9.7,61-20,90-31,1-.4,2-.7,3-1.1,1.8-.7,3.7-1.4,5.5-2.1,2-.8,4-1.5,6-2.2,1.1-.4,2.2-.8,3.3-1.2,1-.4,2-.7,3-1.1q2.4-1.5,3.6-4c.4-1.8.8-3.7,1.1-5.5,1.6-6.8,6.3-12,12-16,16-9.6,36-9.5,51,.6v-2.5Z"/>
  <path d="M716.5,250.8c4.5,0,9,.2,13.5,0,83.1-3.1,165.6-10.6,248.8-4,25.8,2,88.2,7.9,103.7,30.2,1.9,2.8,3,6.8,4.3,8.6,3.3,4.3,10,4.8,13.9,13.1,6.1,12.9,2.4,48.8-8.6,59.4-16.4,15.9-67.6,22.7-90.5,25.4-74.8,9-153.5,9.5-228.8,12.1-151.5,5.2-304.9,11-456.6,7-77.8-2-167.7-5.1-243.6-22.2-17.8-4-60.3-13.8-63.7-35.2-2.2-14.1-3.2-34.5,7.4-45.4,1.5-1.5,6.1-3.8,6.3-4.2.4-.7,2.3-12.6,3.5-16,23.9-70.2,130.2-114.5,194.4-138.4,100.2-37.3,204.1-64.4,303.4-104,1.9-23.8,23.3-33.3,45.1-31.1,25.9,2.6,49.5,40.2,62.5,60.4,30.6,47.7,55.6,103.1,75.7,156.1,3.5,9.1,7.2,18.7,9.3,28.2ZM692.3,331.3c8.8,1.1,37.7-2.9,38.7-2.5-.8-3-11.8-37.2-11.7-39.4s-4.7-16.2-5.6-19.3c-12.4-40.1-30.4-83.6-48.4-121.5-14.6-30.9-58.4-115.8-87.9-129.9-18.6-8.9-45.5-.4-44.9,23.4,7.5-3.9,16.4-2.6,23.3,2.2,18.1,12.7,41.6,52.1,52.8,72.1,35.6,63.5,61.3,134.7,81,204.7,1.7,4.2,2.6,10.3,2.6,10.3ZM552,53.1c-4.5-3.7-13.1-10.9-18.7-9.8-34.7,15.2-64,25.8-100,37.7-2.5,2.8,4,2.4,3,5.5-2.9.6-5.8-3.4-8.1-3.9s-41.1,12.4-41.1,12.4c-3.2,1.6-17.8,6-20.5,7l-6.5,2-67.5,22s-45.4,15.8-59.5,21c-42.3,15.5-129.4,53.2-160.7,84.5s-16.5,17.3-19.1,20.5-17.5,24.5-16.4,29.1,9.6,10.1,13.9,12.8c13.2,8.3,33.5,12,48.7,15.6,2.1.5,14,3.2,14.8,3,1.1-.2,1.2-2.5,1.9-2.8,3.9-1,1.6,2.1,3.1,3.1s4.8,1.4,6.2,1.6c41.4,8.1,155.9,14,155.9,14l72.6,2.3h69.5c.9-.9-5-8.5.5-9l3.5,8.5c5.4,1.8,11.3-.4,16.5-.6,9.7-.3,26.5,1.7,35,0s9.5-9.6,8,0l100.4-3-1.9-5.7c-.4-1.9,3-3.4,3.8-1.7l1.1,6.2,83.8-5.9c.9-.9-4.5-21.1-5.3-24.2-16.9-66-44.2-133.3-78.7-191.6.8,2.6-20.4-36-38.5-50.9ZM812.4,358.8c52.8-2.8,105.8-5.3,158.4-11,27.6-3,57.6-6.7,84.5-13.5,17.6-4.4,54.8-13.7,32.3-37.4-3.9,2.2-5.9,5.4-10.1,7.6-17.1,9-51.1,13.4-70.8,16.1-65.8,9.1-132.6,11.1-198.8,14.1-24.7,1.1-50.6.7-74.3,5.6-18.2,3.7-44.2,2-63.5,2.5-166.5,3.9-333.4,13-499.7-3s-84.8-8.3-120.4-19.5c-8.7-2.7-20.4-6.6-25.5-14.5-9.7,5.6-9.4,31.1-5.7,39.7s30.5,18.8,41.9,22c30.4,8.6,64.2,12.9,95.7,16.3,119.4,12.8,238.8,11.1,358.7,9,115-2.1,230.1-4.8,344.8-10,61.2-2.8,144.8-2.5,202.6-20.2,19.4-6,31.1-13.1,30.8-35.7-5.8,2.8-11.4,5.8-17.5,8-60.7,21.6-170.9,23.4-236.8,25-7.4.2-15.6.3-23,0s-3.7.8-3.5-1Z"/>
  <path class="st0" d="M812.4,358.8c-.2,1.7,2.3.9,3.5,1,7.4.3,15.6.2,23,0,65.9-1.6,176.1-3.4,236.8-25,6.1-2.2,11.7-5.2,17.5-8,.4,22.6-11.3,29.7-30.8,35.7-57.8,17.7-141.4,17.5-202.6,20.2-114.7,5.2-229.8,7.9-344.8,10-119.9,2.2-239.3,3.9-358.7-9-31.5-3.4-65.2-7.6-95.7-16.3-11.5-3.3-37-10.6-41.9-22s-4-34,5.7-39.7c5.1,7.9,16.7,11.8,25.5,14.5,35.6,11.2,83,15.9,120.4,19.5,166.3,16,333.2,7,499.7,3,19.3-.5,45.2,1.3,63.5-2.5,23.7-4.9,49.7-4.5,74.3-5.6,66.2-3,133-5,198.8-14.1,19.7-2.7,53.7-7.1,70.8-16.1,4.2-2.2,6.2-5.4,10.1-7.6,22.5,23.7-14.7,33-32.3,37.4-26.9,6.8-56.9,10.4-84.5,13.5-52.6,5.8-105.6,8.2-158.4,11Z"/>
  <path d="M386.7,223.9c-1.7,3.7-2.7,6-.9,10.2s8.7,8.6,3.4,9.8-5.1-11.1-8.5-12.6-4.3,3.3-5,0,5.2-1.8,2.2-6l.8-1,8-.5Z"/>
  <path d="M574.5,259.9c-1.6,4.2-5.3,4.1-6,9.5,3.6-.7,6.6,8.1,3.5,9.5s-2.9-3.5-3.4-4.6-1.4-6.1-2.6-6.4c-7.6,2.3-11.9,9.3-19.5,12-.3-1.9.1-2.8,1.5-4s6.4-4.7,7.6-5.4,3.1-.2,3.7-.7.3-2.3,1.2-3.3c1.5-1.6,4.7-.4,4.1-4.3l9.9-2.1Z"/>
  <path d="M507.6,143c.7,4.3-3.8,5.5-7,6,5.6,6.4.2,8.8-3.5,2-2.4,2.1-5,4.5-8.5,4,0-3.4,4.1-5,7-5l-2-5,5.5,2,8.5-4Z"/>
  <path d="M309.7,130c2.1,2.2-3.1,4.2-3,4.5,1.6,2.3,7.3,4.8,3.5,7.5-1.1.2-6.6-4.2-6.5-5.9,0,0-4.5,2.5-6.1.8s4.6-4.2,4.6-4.2l7.5-2.7Z"/>
  <path d="M266.7,155c-.8-6.6,9.2-5.8,11.3-6.9s4.5-9.3,8.7-4.6c0,2.1-19.2,12.3-20,11.5Z"/>
  <path d="M192.8,206.9l-2.5,9c-3.6-2.8-3.7-.3-7.5,0l1-8,9-1Z"/>
  <path d="M543.6,217.9c1.6,1.3,6.2.4,5,7-5.1.5-5.5-5-7.1-8.3s-2.3-2-2.7-3.3c-1.7-5.8,3.3-4.6,5.1,1,.6,2-.4,3.5-.3,3.6Z"/>
  <path d="M534.4,197.1c.7,3.1,3.1,5.5,4.2,8.3s1.6,3.1-.5,3.5-8.4-11.1-7.5-12l3.8.2Z"/>
  <path d="M225.7,257.3c2.4-2.2,12.1,10.3,7.2,10s-8.6-8.8-7.2-10Z"/>
  <path d="M530.5,131c.9,3.1-2.7,4.3-5,5.5s-5.2,3.8-7,1c1.2-1.8,10.6-7.9,12-6.5Z"/>
  <path d="M606.5,237.9c1.9,1.9-5.7,6.6-7.1,7.4s-3,2.5-3.9,0,0-2,1.3-2.7,8.5-6,9.7-4.8Z"/>
  <path d="M559.5,251.9l2.5-.9c8.2,10.3-.9,14.9-2.5.9Z"/>
  <path d="M362.7,196.9c-3.1,2.8-9.3-7-5.5-8,3.3-1.4,6.3,7.2,5.5,8Z"/>
  <path d="M516.1,171c1.5.9,8.2,7.9,4,9-4.2,1.1-7-9.1-4-9Z"/>
  <path d="M335.7,165c3.2,1.2,6.2,0,7.7,5.5l-2.2,2.5c-3-3-4.9-3.6-5.5-8-2.4-.9-10.3-7-5.5-8s5.6,4.1,5.9,5-.6,2.4-.5,3Z"/>
  <path d="M396.7,262.8c-5.7-10.9-.1-12.2,3.9-1.5l-3.9,1.5Z"/>
  <path d="M369.8,213.8c-4.8-10,.9-9.9,4.9-1.4-1.2,1.7-3,1.9-4.9,1.4Z"/>
  <path d="M352.8,188.8c-6.1-8.7-.5-10.8,3.9-2.4l-1.6,2.5h-2.4Z"/>
  <path d="M584.5,252.9c1.5,1.3-7.7,8.4-9,7-1.5-3.6,7.3-8.4,9-7Z"/>
  <path d="M320.7,149c1.5-1.5,8.3,4.8,8,6.5-1,4.7-9.8-4.7-8-6.5Z"/>
  <path d="M227.8,179.9c-1.8-1.8,6.8-9.9,9-5.5-2.5,2.6-4.9,5.9-9,5.5Z"/>
  <path d="M327.7,274.9c1.5,1.3-9.1,11.5-9,6.5s6.2-8.5,9-6.5Z"/>
  <path d="M409.6,283.9c-4.1,2-6.7-8.3-6-9,3.7-2.1,6.6,8.4,6,9Z"/>
  <path d="M517.6,138c2.5,2.6-7.8,7.1-9,6-1.5-3.6,7.9-7.1,9-6Z"/>
  <path d="M411.6,285.9l3,10-3.1-.6c-.8-3.3-6-8.7,0-9.4Z"/>
  <path d="M402.3,210l2.3,2.4c-2,1.2-5.1,5-7.5,4.5-3.9-.8,3.8-6.8,5.1-6.9Z"/>
  <path d="M404.6,272.9l-3.1-.6c-.3-2.9-4.8-6-1.4-8.4,2.5-.5,5.1,6.9,4.5,9Z"/>
  <path d="M248.6,289l3.1,8.9c-1.9,2.1-10.7-10.7-3.1-8.9Z"/>
  <path d="M416.5,298.9l2.1,8.9-3.1-.6c-.8-3.4-4.6-9.7,1-8.3Z"/>
  <path d="M374.2,214.9c4.6-1.2,5.7,8,3,8s-6.9-7-3-8Z"/>
  <path d="M449.6,179c-.5,4-5.3,6.5-9,6-1.7-1.5,6.7-7.5,9-6Z"/>
  <path d="M363.2,197.9c3.1-.8,7.3,6.1,4,7s-7.3-6.1-4-7Z"/>
  <path d="M412.6,203.9c2.2,2.2-7.1,9.6-8,5.5s6.9-6.5,8-5.5Z"/>
  <path d="M552.5,122c-1.9-4.3,9-7.4,9-4.5s-7.9,5.6-9,4.5Z"/>
  <path d="M577.5,288.8c-2.8,2.8-6-6.7-5-9,3.2-.8,5.9,8.1,5,9Z"/>
  <path d="M476.6,126c-1.9,1.9-6.2-4.2-7-5.5s-1.3-2.1.5-2.5,8,6.4,6.5,8Z"/>
  <path d="M478.6,127c1-1.2,10.2,7,5.5,8-2,.4-6.8-5.6-5.5-8Z"/>
  <path d="M536.5,285.9c2,2-7.1,9.6-8,5.5s6.9-6.5,8-5.5Z"/>
  <path d="M391.2,244.9c2.2-.5,6.2,7.3,3,8-3,.1-6.3-7.3-3-8Z"/>
  <path d="M344.2,173c2.1-.5,2.3.6,3.3,1.6s4.4,4.8,1.6,5.4-8.2-6.3-5-7Z"/>
  <path d="M258.7,309.8c-2.6,2.5-7.2-7-6-9,1.8-2,7,8,6,9Z"/>
  <path d="M526.6,187.9c-2.2,2.2-8.7-7.1-4.5-8,2.3-.5,5.2,7.2,4.5,8Z"/>
  <path d="M538.9,282.1c6.3-7.3,9.9.2,1,3.6l-2.3-1.4c.6-.6.7-1.6,1.3-2.2Z"/>
  <path d="M579.5,298.9c3.2-.7,6.4,8.4,3.5,9s-3.8-7.3-3.5-9Z"/>
  <path d="M540.5,126c2.7,2.8-8.2,6.7-9,6-.9-3.1,8-7,9-6Z"/>
  <path d="M216.3,186c4.2.1-2,7.6-5,7-4.9-1,3.9-7,5-7Z"/>
  <path d="M174.8,223.9c-1.6-2.8,3.6-7.3,5.5-7,3.6.6-2.6,8.6-5.5,7Z"/>
  <path d="M468.6,166c2.4,2.5-7.5,7.5-8,7-1.6-3.2,6.8-8.2,8-7Z"/>
  <path d="M387.7,223.9c-2.3-3.8,6.4-8.7,7-5.5,0,2-5.6,6.9-7,5.5Z"/>
  <path d="M514.6,171c-2.3,2.3-8.2-7.2-4.5-8s5.6,6.8,4.5,8Z"/>
  <path d="M519.1,297.9c4.2.1-2,7.6-5,7-4.9-1,3.9-7,5-7Z"/>
  <path d="M313,144.4s-.9-.8-.6-2.2,1.8-1.1,1.8-1.1c2.1,1.4,6.1,3.4,5.5,6.5-.7,3.4-4.5-1.9-6.4-2.6-.2,0-.4-.3-.3-.5Z"/>
  <path d="M593.5,246.9c1.5,1.4-5.9,7-8,6-.5-4.5,4.4-6.4,8-6Z"/>
  <path d="M561.5,249.9l-3,.6c-7.5-9.6,1-10.8,3-.6Z"/>
  <path d="M580.5,297.8l-3.1-.6-1.9-7.4c4.7-.7,5.2,4.5,5,8Z"/>
  <path d="M359.7,245.9c-1.8-1.8,5.6-9.7,8-5.5-2.5,2-4.2,6-8,5.5Z"/>
  <path d="M556.5,241.9c-3.2.8-6.2-6.8-5-8,4.7-.7,5.2,4.5,5,8Z"/>
  <path d="M422.6,197.9c-2.1-2.1,5.6-8.9,8-4.5-.9,1.3-6.7,5.7-8,4.5Z"/>
  <path d="M608.5,237.9c-2.3-2.3,7.2-8.2,8-4.5.3,2.5-7.2,5.2-8,4.5Z"/>
  <path d="M264.7,155c1.5,1.4-5.9,7-8,6-1.6-3.4,6.5-7.3,8-6Z"/>
  <path d="M526.1,291.9l2.4,1.5c-1.3,2.6-3.6,4.6-6.4,5.5-4.1-3.1,2.4-4.5,4-7Z"/>
  <path d="M245.8,167c1.7,1.5-7.2,8.8-8,4.5s5.9-5.3,8-4.5Z"/>
  <path d="M460.6,110c2.3-1,7.3,3.9,7,5.5-.9,4.6-8.8-3.6-7-5.5Z"/>
  <path d="M486.6,137c2.3-1,7.3,3.9,7,5.5-.9,4.6-8.8-3.6-7-5.5Z"/>
  <path d="M550.5,121c2.7,2.8-9.1,7.8-9,4.5.9-1.7,7.9-5.6,9-4.5Z"/>
  <path d="M458.6,173c1.5,1.4-5.9,7-8,6-1.6-3.4,6.5-7.3,8-6Z"/>
  <path d="M317.7,283.9c1,2.3-3.9,7.3-5.5,7-4.6-.9,3.6-8.8,5.5-7Z"/>
  <path d="M244.8,285.9c-2.3,2.3-8.2-7.2-4.5-8,2.5-.3,5.2,7.2,4.5,8Z"/>
  <path d="M421.6,197.9c.7,2.9-6.7,7.3-8,6-2.4-2.4,6-6.9,8-6Z"/>
  <path d="M374.2,231.9c4.1,2.2-3.1,7.2-5,7-4-.6,3.8-6.7,5-7Z"/>
  <path d="M488.6,324.8c-1.7-1.8,3.3-5.3,4.5-6s2.1-1.3,2.5.5c.7,3.4-6.1,6.3-7,5.5Z"/>
  <path d="M164.3,231.9l2.5,2.5-5.5,4.5c-3.7-2.6,1.4-4.9,3-7Z"/>
  <path d="M508.6,162c-3.6,1.5-8.5-6.2-4.5-7s5.4,6.1,4.5,7Z"/>
  <path d="M351.7,251.9c-1.1-.9,5.5-9.2,8-4.5-2.4,2.4-4,5.2-8,4.5Z"/>
  <path d="M349.7,111c1.1,4.1-4.8,4.9-8,5,.2-3.8,4.8-5.3,8-5Z"/>
  <path d="M151.8,249.9c1,1-2.9,5.8-4,6.5-7.5.8,2-8.4,4-6.5Z"/>
  <path d="M237.2,268.6c.6,1.4,3.2,5.8,2.1,6.9-2.1,2.1-10.2-8.1-2.1-6.9Z"/>
  <path d="M438.6,186c2.5,2.6-8.2,8.6-8,4.5s6-5.5,8-4.5Z"/>
  <path d="M200.8,199.9c2.1,2.1-5.8,7.2-7,6-1.3-3.3,5.3-7.7,7-6Z"/>
  <path d="M319.7,125c2.5,2.6-6.5,5.9-8,6-1.8-3.6,7.1-6.9,8-6Z"/>
  <path d="M334.4,270.6c-.7.8-6.5,5.2-6.7,1.8,1.3-5.3,11.2-7,6.7-1.8Z"/>
  <path d="M329.7,120c2.5,2.6-6.5,5.9-8,6-1.8-3.6,7.1-6.9,8-6Z"/>
  <path d="M531.5,195.9c-2.1,2.1-8.4-6.2-4.5-7s5.9,5.5,4.5,7Z"/>
  <path d="M130.6,283.6c-1.1.7-3.2.9-2.7-1.2s2.7-7.2,4.4-6.6c3,1.2-1,7.3-1.7,7.8Z"/>
  <path d="M350.7,252.9c.4,2.1-.2,2.6-1.5,4-7.1,7.8-6.6-4.1,1.5-4Z"/>
  <path d="M127.8,286.9c1.1,1.1-2,8.6-5,8-.8-2,2.3-10.6,5-8Z"/>
  <path d="M158.8,239.9c.6,3.7-2,7.3-6,7-1.3-2.3,5-8.1,6-7Z"/>
  <path d="M547.5,225.9c3.9-1.6,6.7,6.3,3.5,7l-3.5-7Z"/>
  <path d="M331.7,121c-2.7-2.9,9.1-7.8,9-4.5-.7,1.6-8.5,5-9,4.5Z"/>
  <path d="M511.6,304.8c1.9,2-7.3,11.4-6.5,4l6.5-4Z"/>
  <path d="M422.6,319.8c-3.5.9-4.7-8.2-4-9,3.5-.9,4.7,8.2,4,9Z"/>
  <path d="M501.2,312c1.8-.5,2.3,0,3.3,1.3-1.8,1.5-3.7,5.1-6.5,4.5s1.9-5.5,3.2-5.8Z"/>
  <path d="M484.3,155.1c7.1-1.1-.9,5.9-3.2,5.8s-.4-5.2,3.2-5.8Z"/>
  <path d="M336.7,265.9c-1.6-1.6,4.3-9.1,7-4.5-2.1,1.9-3.6,5-7,4.5Z"/>
  <path d="M625.5,226.9c1.7,1.6-7.4,8-8,4.5s7.1-5.2,8-4.5Z"/>
  <path d="M209.8,192.9c1.1,1-4.6,7.3-7,6-.6-3.9,3.6-6.1,7-6Z"/>
  <path d="M226.8,180c1.1,3-8.2,8.2-8,4.5s6-5.5,8-4.5Z"/>
  <path d="M586.5,309.8c.3.3,1.9,8.1-.5,8l-3.5-6.5c.6-1.3,3.2-2.1,4-1.5Z"/>
  <path d="M283.5,324.3l-2.4-1.6c1-1.4,3.6-5.8,5.6-5.3,3.4.8-1.9,6.2-3.2,6.9Z"/>
  <path d="M295.7,138c.8,2.9-7.3,5.8-8,5-2.6-2.7,6-5.8,8-5Z"/>
  <path d="M192.8,216.9c1.6-1.6,9.1,4.3,4.5,7-1.9-2.1-5-3.6-4.5-7Z"/>
  <path d="M745.8,361.3c-2.8,3.6-10,1.7-14.5,2-106.1,6.9-212.5,9.4-318.8,10.9-71.8,1.1-144.1-1.7-215.8-8-43.3-3.8-96.3-9-137.4-22.5-9.8-3.2-20.9-7.3-29-13.5,49.6,18,104.8,25.1,157.4,30,158.7,14.7,324.4,7.4,483.6,3,24.8-.7,49.7-.2,74.5-1.9Z"/>
  <path class="st2" d="M716.5,250.8c-2.1-9.4-5.8-19.1-9.3-28.2-20.1-53-45.1-108.4-75.7-156.1-13-20.3-36.6-57.8-62.5-60.4-21.7-2.2-43.2,7.2-45.1,31.1-99.3,39.6-203.2,66.7-303.4,104-64.1,23.9-170.4,68.1-194.4,138.4-1.2,3.5-3.1,15.3-3.5,16s-4.9,2.7-6.3,4.2c-10.6,10.9-9.6,31.3-7.4,45.4,3.4,21.5,45.9,31.2,63.7,35.2,75.8,17.1,165.8,20.2,243.6,22.2,151.7,4,305.1-1.8,456.6-7,75.3-2.6,153.9-3.1,228.8-12.1,22.9-2.7,74.1-9.5,90.5-25.4s14.7-46.4,8.6-59.4c-3.9-8.3-10.7-8.7-13.9-13.1s-2.4-5.9-4.3-8.6c-15.4-22.3-77.8-28.2-103.7-30.2-83.2-6.6-165.7,1-248.8,4-4.5.2-9-.2-13.5,0Z"/>
  <path class="st3" d="M886.1,249.2c4.2,0,8.3,0,12,0,22,0,44,0,65,1.1.8,0,1.7,0,2.6.1,12,.6,23,1.6,35,3,1,.1,2.1.2,3.1.4,14,1.7,27,4.4,41,7.6.7.2,1.4.3,2.2.5,12,2.8,25,8.1,32,18q.2,2.3.1,4.7c0,.8,0,1.6,0,2.4q0,.3,0,1.9c-12,7.7-26,9.9-40,12-.8.2-1.6.3-2.4.5-25,4.7-51,8-76,9.7-4.6.3-9.1.8-14,1.5-7.1,1-14,1.3-21,1.5-5,.2-9.7.6-15,1.4-12,1.7-24,1.9-37,2.4-5.9.2-12,.5-18,.8-1.5,0-3,.1-4.5.2-11,.5-21,1-32,1.6-26,1.4-52,2.7-78,2.1q-6-19-8.2-28c-2.8-11-6.2-23-10-33q-1.3-3.6-1.3-6.6c16-1.5,33-2.6,49-3.4,3.6-.2,7.3-.4,11-.6,35-1.8,70-2.2,104-2.2l.5.5Z"/>
  <path d="M456.8,107.2c-2.4-.9-10.3-7-5.5-8s5.6,4.1,5.9,5-.6,2.4-.5,3"/>
  <path d="M440.4,90.2c1.5-1.5,8.3,4.8,8,6.5-1,4.7-9.8-4.7-8-6.5Z"/>
  <path d="M431.6,84.7l1-3.7c2.1,1.4,6.1,3.4,5.5,6.5s-4.9-1.4-6.5-2.7Z"/>
  <path d="M477.9,159.9c2.4,2.5-7.5,7.5-8,7-1.6-3.2,6.8-8.2,8-7Z"/>
  <path d="M571.5,110.8c2.1,2.7-8.3,6.6-8.7,6.1-1.3-3.4,7.7-7.4,8.7-6.1Z"/>
  <path d="M582,105c2.1,2.7-8.3,6.6-8.7,6.1-1.3-3.4,7.7-7.4,8.7-6.1Z"/>
  <path d="M592.5,99.4c2.1,2.7-8.3,6.6-8.7,6.1-1.3-3.4,7.7-7.4,8.7-6.1Z"/>
  <path d="M264.8,321.2c-2.6,2.5-7.2-7-6-9,1.8-2,7,8,6,9Z"/>
  <path d="M205.8,232c3.2,1.2,6.2,0,7.7,5.5l-2.2,2.5c-3-3-4.9-3.6-5.5-8-2.4-.9-10.3-7-5.5-8s5.6,4.1,5.9,5-.6,2.4-.5,3Z"/>
  <path d="M222.9,255.8c-6.1-8.7-1.6-11.5,2.8-3.1v2.4c0,0-2.8.6-2.8.6Z"/>
  <path d="M214.4,240c2.1-.5,2.3.6,3.3,1.6s4.4,4.8,1.6,5.4-8.2-6.3-5-7Z"/>
  <path d="M166.3,231.7c-1.6-2.8,3.6-7.3,5.5-7,3.6.6-2.6,8.6-5.5,7Z"/>
  <path d="M123.5,298.1c1.1,1.1-2,8.6-5,8-.8-2,2.3-10.6,5-8Z"/>
  <path d="M136.2,273.8c-1.1.7-3.2.9-2.7-1.2s2.7-7.2,4.4-6.6c3,1.2-1,7.3-1.7,7.8Z"/>
  <path d="M145,258.5c1,1-2.9,5.8-4,6.5-7.5.8,2-8.4,4-6.5Z"/>
  <path d="M303.8,299.2c1.6,1.1-8.1,12.2-8.4,7.2s5.4-9,8.4-7.2Z"/>
  <path d="M294.6,309c1.2,2.2-3.2,7.6-4.9,7.4-4.6-.5,2.9-9.1,4.9-7.4Z"/>
  <path d="M310.1,294.4c-.6.8-6.1,5.7-6.5,2.3.9-5.4,10.5-7.9,6.5-2.3Z"/>
  <path d="M270.6,332.3c-2.6,2.5-7.2-7-6-9,1.8-2,7,8,6,9Z"/>
  <path d="M277.9,331.5l-2.4-1.6c1-1.4,3.6-5.8,5.6-5.3,3.4.8-1.9,6.2-3.2,6.9Z"/>
  <path d="M627.7,226.7c-2.3-2.3,7.2-8.2,8-4.5.3,2.5-7.2,5.2-8,4.5Z"/>
  <path d="M644.7,215.7c1.7,1.6-7.4,8-8,4.5s7.1-5.2,8-4.5Z"/>
  <path d="M175.3,200.9c3.3.9,6.2-.4,8.1,5l-2.1,2.6c-3.2-2.8-5.1-3.3-6-7.6-2.5-.7-10.8-6.3-6-7.6s5.8,3.7,6.3,4.5-.4,2.4-.2,3Z"/>
  <path d="M159.3,186c1.4-1.6,8.6,4.2,8.4,5.9-.6,4.8-10.1-4-8.4-5.9Z"/>
  <path d="M150.1,178c1.4-1.6,8.6,4.2,8.4,5.9-.6,4.8-10.1-4-8.4-5.9Z"/>
  <path d="M255.6,160.8c1.5,1.4-5.9,7-8,6-1.6-3.4,6.5-7.3,8-6Z"/>
  <path d="M294.2,124c1.5-1.5,8.3,4.8,8,6.5-1,4.7-9.8-4.7-8-6.5Z"/>
  <path d="M359.4,106.2c1.1,4.1-4.8,4.9-8,5,.2-3.8,4.8-5.3,8-5Z"/>
  <path d="M418.1,66.7"/>
</svg>