<?xml version="1.0" encoding="UTF-8"?>
<svg id="Layer_1" xmlns="http://www.w3.org/2000/svg" version="1.1" viewBox="0 0 720 366.7">
  <!-- Generator: Adobe Illustrator 29.7.0, SVG Export Plug-In . SVG Version: 2.1.1 Build 138)  -->
  <defs>
    <style>
      .st0 {
        fill: #fff;
      }
    </style>
  </defs>
  <path class="st0" d="M223.3,360.4l.8-5.1-190.6-30.2c-7-1.1-12.9-5-16.8-10.3-3.9-5.3-5.7-12.1-4.6-19.2L53.8,32.1c1.1-7,5-12.9,10.3-16.8,5.3-3.9,12.1-5.7,19.2-4.6l190.6,30.2c7,1.1,12.9,5,16.8,10.3,3.9,5.4,5.7,12.2,4.6,19.2l-41.7,263.5c-1.1,7-5,12.9-10.3,16.8-5.3,3.9-12.1,5.7-19.2,4.6l-.8,5.1-.8,5.1c19.7,3.1,38.3-10.3,41.4-30.1l41.7-263.5c3.1-19.7-10.3-38.2-30.1-41.4L84.9.4c-19.7-3.1-38.3,10.3-41.4,30.1L1.8,293.9c-3.1,19.7,10.3,38.2,30.1,41.4l190.6,30.2.8-5.1Z"/>
  <rect class="st0" x="162.1" y="-7.2" width="16.6" height="157.7" transform="translate(72.9 228.7) rotate(-81)"/>
  <g>
    <path class="st0" d="M198.2,202.8c4.2.7,9.7,0,12-4.1,1.2-2.1,1.4-4.5,2.6-6.7.7-1.3,2.2-2.3,2.6-3.5,2.3-5.9-2.2-10.2-7.8-10.8-5.7-.6-9-.4-8.6,3.3.5,4.3,8.1.7,10.5,3.5,2.6,2.9-1.6,3.3-2.6,5.2-1.4,2.8-.8,7.6-4.3,9.8l-4.4,3.4h0ZM206.6,162.6c-2.3.3-2.9,4.3-.8,5.3,5.6,2.6,6.3-6,.8-5.3M181,158.7c-4.7-.6-12.9,4.8-10.1,9.4,2.8,4.5,5.4-3,7.8-3.5,5.7-1.3,4.8,4.9,6.6,6,2,1.3,4.1-.4,4.3-2.7.3-4.5-4.3-8.6-8.5-9.2ZM109.5,272.4c0,0-.4-.5-.9-.6-12.8-2.3-19.4-.2-27.3-12-.8-1.2-1.9-4.3-2.9-5-1-.6-4.9-1.1-6.7-1.8-6.8-2.7-12.4-11.2-13.5-18.3-1-6.3,1.4-24.1,11-20.9,5.5,1.8,1.3,9.7,1.1,13.7-.3,3.7,2.2,10.1,6.8,9.3,1.4-.2,2.3-5.6,2.9-7.2,6.5-16.8,21.9-29.3,38.1-36.1,6.8-2.9,13.2-2.9,15.1-11.6,6.3,4.4,10.5,13.1,19,13.7,4.7.4,10.7-3,12.1-7.7,2.7-8.9,1.3-19.4-1.1-28.2l-1.2-.2c-4.5,7.6-.5,19.2-3.5,26.6-1.5,3.9-6.7,4.1-9.9,2.2-3.3-1.9-18.5-18.2-21-21.8-6.4-9.2-1.6-14.1,5.9-19.4,4.9-3.5,7.8-6.4,12.3-10.1,15.5-12.5,36.9-16.4,55.1-7,15.7,8.1,29.6,21.9,27.1,41-.4,3.2-2.6,7.2-5.2,3-2.6-4.1-1.2-8.6-1.5-13-.3-5.1-2.8-9.5-6.4-12.9,0,3,.6,6,.6,9,0,5.9-1.8,11.2.7,16.9,3,6.8,8.9,10.8,8.2,19.6-1.2,14.5-15,17-26.9,16.5-3.8-.2-8.7-1.4-12.1-1.3-2.9,0-3,2.1-.6,2.8,5.3,1.6,11.7,1.1,17,1.9,1.1,11.9-5.3,22.5-8.2,33.6-1.2,4.7-4.3,16.9-1.5,21,1.7,2.5,5.9,2.6,7.6,7,1.2,3.1.2,8.8-3.5,9.8-3.2.9-14.5-1-18.1-1.9-4.4-1.1-2.6-4.7-2.9-8.2-.2-2.3-.9-4.4-2-6.3-1.4-2.5-4.8-4.6-4.7-7.4.2-6.4,1.7-11.9,7.6-15.1,3.3-1.8,11-2.1,10.8-6.4-.1-4.6-9-1.4-11.4-.4-6.4,2.5-10.7,7.4-12.3,14.2-.4,1.7-2,10.9-1.8,12.1.2,1.1,2.9,2,3.9,2.7,4,3,6.8,11.6.3,13.3l-20.9-3.3c-3.5-2-2.1-5.9-2.7-9.3-.8-4.7-3.4-7.1-6-10.8,0-.8.1-1.6.3-2.4,1.3-5.9,3.1-8.7,2.7-15.3-.8-12.6-12.6-26.1-26.1-24-1.5.2-5.6,1.4-5.6,3.2l9.8,1.6c.8.1,4,1.9,4.8,2.4,13.4,8.2,13.8,25.3,4.6,37,0,.8,3.9,2.2,4.8,2.8,3.2,2,5.7,6.5,4.9,10.3-1,4.9-5.8.8-9.1,1.8-6-1-12-1.8-18-2.9h0Z"/>
    <path class="st0" d="M195.8,204.5c4.2.7,9.7,0,12-4.1,1.2-2.1,1.4-4.5,2.6-6.7.7-1.3,2.2-2.3,2.6-3.5,2.2-5.9-2.2-10.2-7.9-10.8-5.7-.6-9-.4-8.6,3.3.5,4.3,8.1.7,10.5,3.5,2.6,2.9-1.6,3.3-2.6,5.2-1.4,2.8-.8,7.6-4.3,9.8l-4.4,3.4h0ZM204.2,164.4c-2.3.3-2.9,4.3-.8,5.3,5.6,2.6,6.3-6,.8-5.3M178.6,160.4c-4.7-.6-12.9,4.8-10.1,9.4,2.8,4.5,5.4-3,7.8-3.5,5.7-1.3,4.8,4.9,6.6,6,2,1.3,4.1-.4,4.3-2.7.3-4.5-4.3-8.6-8.5-9.2ZM107.2,274.1c0,0-.4-.5-.9-.6-12.8-2.3-19.4-.2-27.3-12-.8-1.2-1.9-4.3-2.9-5-1-.6-4.9-1.1-6.7-1.8-6.8-2.7-12.4-11.2-13.5-18.3-1-6.3,1.4-24.1,11-20.9,5.5,1.8,1.3,9.7,1.1,13.7-.3,3.7,2.2,10.1,6.8,9.3,1.4-.2,2.3-5.6,2.9-7.2,6.5-16.8,21.9-29.3,38.1-36.1,6.8-2.9,13.2-2.9,15.1-11.6,6.3,4.4,10.5,13.1,19,13.7,4.7.4,10.7-3,12.1-7.7,2.7-8.9,1.3-19.4-1.1-28.2l-1.2-.2c-4.5,7.6-.5,19.2-3.5,26.6-1.5,3.9-6.7,4.1-9.9,2.2-3.3-1.9-18.5-18.2-21-21.8-6.4-9.2-1.6-14.1,5.9-19.4,4.9-3.5,7.8-6.4,12.3-10.1,15.5-12.5,36.9-16.4,55.1-7,15.7,8.1,29.6,21.9,27.1,41-.4,3.2-2.6,7.2-5.2,3-2.6-4.1-1.2-8.6-1.5-13-.3-5.1-2.8-9.5-6.4-12.9,0,3,.6,6,.6,9,0,5.9-1.8,11.2.7,16.9,3,6.8,8.9,10.8,8.2,19.6-1.2,14.5-15,17-26.9,16.5-3.8-.2-8.7-1.4-12.1-1.3-2.9,0-3,2.1-.6,2.8,5.3,1.6,11.7,1.1,17,1.9,1.1,11.9-5.3,22.5-8.2,33.6-1.2,4.7-4.3,16.9-1.5,21,1.7,2.5,5.9,2.6,7.6,7,1.2,3.1.2,8.8-3.5,9.8-3.2.9-14.5-1-18.1-1.9-4.4-1.1-2.6-4.7-2.9-8.2-.2-2.3-.9-4.4-2-6.3-1.4-2.5-4.8-4.6-4.7-7.4.2-6.4,1.7-11.9,7.6-15.1,3.3-1.8,11-2.1,10.8-6.4-.1-4.6-9-1.4-11.4-.4-6.4,2.5-10.7,7.4-12.3,14.2-.4,1.7-2,10.9-1.8,12.1.2,1.1,2.9,2,3.9,2.7,4,3,6.8,11.6.3,13.3l-20.9-3.3c-3.5-2-2.1-5.9-2.7-9.3-.8-4.7-3.4-7.1-6-10.8,0-.8.1-1.6.3-2.4,1.3-5.9,3.1-8.7,2.7-15.3-.8-12.6-12.6-26.1-26.1-24-1.5.2-5.6,1.4-5.6,3.2l9.8,1.6c.8.1,4,1.9,4.8,2.4,13.4,8.2,13.8,25.3,4.6,37,0,.8,3.9,2.2,4.8,2.8,3.2,2,5.7,6.5,4.9,10.3-1,4.9-5.8.8-9.1,1.8-6-1-12-1.8-18-2.9h0Z"/>
    <path class="st0" d="M517.1,339c-9.5,1.6-41.1,1.1-51.2,0-24.3-2.8-45.5-24.6-47.7-49.3-1-11.7-1.3-37.7,0-49.1,1.8-16,25.6-15.8,26.9,0,2.4,27.5-10.9,68.9,29.5,71.5,13.4.9,28.9-1.5,41.9,0,14.3,1.5,14.8,24.6.6,27"/>
    <path class="st0" d="M435.6,145.6c-9,1.9-16.6-2.7-17.4-12.3-1.3-14.6-1.4-49.9,3.6-62.9,7-18.2,25.3-32.9,44.7-34.9,11.4-1.2,38-1.4,49.3,0,15.9,1.8,15.1,25.7.7,27.2-15.6,1.7-42.4-3.5-55.9,3.2-24.6,12.1-12.1,48.9-15.6,70.3-.7,4.4-5.1,8.6-9.3,9.5"/>
    <path class="st0" d="M671.1,339c-9.3,1.1-43.4,1.6-51.8-.1-13.4-2.8-12.6-24.6-.2-26.7,21.5-3.7,57.4,9.1,69.6-15.8,6.4-13,1.8-40.5,3.1-55.8,1.4-15.7,25.2-16,26.9,0,1.3,11.6,1,36.5,0,48.4-1.9,25-23.1,47.2-47.7,50"/>
    <path class="st0" d="M708.5,145.5c-8.4,1.5-15.9-2.5-16.7-11.5-2.4-27.5,10.9-68.8-29.5-71.5-13.4-.9-28.9,1.4-41.9,0-14.4-1.6-15.2-25.4.7-27.2,11.3-1.3,37.8-1.1,49.3,0,24.9,2.5,46.4,25,48.3,50.1.9,11.4,1.4,38.3,0,49.1-.7,5.6-4.7,9.9-10.2,10.8"/>
    <path class="st0" d="M381.1,144.9c0-.2,1.1-2,1.3-2.3,3.1-4.3,9.4-4.3,12.4,0,.2.3,1.3,2.1,1.3,2.3v31.6l.5.5h32c.1,0,2,1,2.3,1.3,4.3,3,4.3,9.2,0,12.2-.3.2-2.2,1.3-2.3,1.3h-32l-.5.5v31.6c0,.1-1.1,2-1.3,2.3-3.1,4.3-9.3,4.3-12.4,0-.2-.3-1.3-2.1-1.3-2.3v-31.6l-.5-.5h-32c-.1,0-2-1.1-2.3-1.3-4.4-3-4.4-9.2,0-12.2.3-.2,2.2-1.3,2.3-1.3h32l.5-.5v-31.6Z"/>
    <path class="st0" d="M533.6,211.1c-.3-1.5-3.8-7.3-4.7-9.5-3.8-9.4-5.8-19.9-5.6-30.1l30.8-20.1,15.5,10.5c12.5.6,25.6-.8,38,0,12,.8,20.7,8.9,21.5,21.1.5,7.3-.4,15.1,0,22.5l11.3,9.4v33.4h-20v-17.2c-9.5-5.8-16-16.2-15.8-27.5h-50.9v44.8h-20v-37.2h0Z"/>
    <path class="st0" d="M494.3,145.6l14.3-7.7.4-.6c0-8.2,6.2-13.6,13.8-15.2l11.6-10,13.3,31.7-28.4,18.5c-3.4,0-6.5.2-9.9-.5-7.8-1.6-14.1-8.3-15.1-16.2h0Z"/>
  </g>
</svg>