<?xml version="1.0" encoding="UTF-8"?>
<svg id="Layer_1" xmlns="http://www.w3.org/2000/svg" version="1.1" viewBox="0 0 720 320.8">
  <!-- Generator: Adobe Illustrator 29.7.0, SVG Export Plug-In . SVG Version: 2.1.1 Build 138)  -->
  <defs>
    <style>
      .st0 {
        fill: #fff;
      }
    </style>
  </defs>
  <path class="st0" d="M47,245.9c.8.8,3,2.6,5.2,4.4,7.7,6.3,10.3,8.7,10.8,10.2.9,2.6-.7,6.8-3.5,14-2.3,5.8-4.9,12.4-4.5,16.1.7,7.5,7,11.4,12.8,11.4s7.6-1.8,10.2-5.1c3.5-4.4,11.1-28.4,11.1-34.7-.1-13.4-5.4-18.1-13.5-25.2-1.9-1.7-3.9-3.4-6-5.4-21.9-21.2-36.4-41.1-41-75-3.6-26.3-1.9-43,5-50.9,1.9-2.2,4.1-3.4,6.2-4.6,2.6-1.5,4.8-2.7,6.2-5.5,1.4-2.7,2.1-6.5,2.8-10.5.6-3.5,1.2-7.1,2.4-10.2,8.5-22.9,29.7-34.5,63-34.5s22.4,1.2,35.7,3.6c17.2,3.1,35.2,7.2,49.9,15.8l2.3,1.4-1.9,1.8c-3.5,3.4-4.6,8.4-2.7,13.5,1.4,3.8,4.3,5.7,7.7,7.8,2.4,1.6,5.2,3.4,7.5,6.1,13.1,15.4,12.2,28.9,11.1,43.2-.6,8.5-1.2,17.2,1.3,26.7,2.9,10.9,9.4,18,16.9,26.3l1.5,1.7,1.1,1.3-1,1.3c-1.3,1.7-3,3.2-4.7,4.9-3.1,2.9-6.3,6-7,9.2-.9,4.6-.6,10.9-.2,17.5.9,15.9,2.1,35.7-17.6,37.6-2.4.2-5,.3-8.1.3s-8.3-.2-12.5-.4c-4.1-.2-8.3-.4-12.3-.4s-6.8.2-9.5.5c-3.1.4-6.7,3-8.4,6.1-1.7,3-10.2,35.7-10.4,40.2-.3,4.6,1.7,7.8,3.4,9.6,2.5,2.7,6.2,4.3,9.8,4.3s6.1-.7,9.2-4.2c3.2-3.5,4.9-12.5,6.3-19.6.7-3.6,1.4-7.1,2.2-9.7l.4-1.4h1.5c1.4,0,2.9,0,4.6,0,2.7,0,5.5,0,8.1,0,2.6,0,5.3,0,7.9,0,6.2,0,13.5-.3,20.4-2.1,7-1.9,12.8-5.2,17.9-10.2,13.1-13,12.9-28.9,12.7-45.8,0-4.2-.1-8.5,0-12.9v-.7s.5-.5.5-.5c5.9-6.4,14.8-16,16.1-26.3,1.2-9-3.9-12.5-10.3-16.9-4.5-3.1-9.1-6.3-11.8-11.7-3.4-6.7-2.7-18-2.1-28.9.4-6.5.8-12.7.3-17.3-1.6-14.2-11.6-30.1-15.8-36.2-.3-.4-.9-1-1.5-1.6-1.1-1.1-2.1-2.1-2.4-3.2-.3-1.2.1-2.6,1-5.2.6-1.8,1.4-4.1,1.4-5.5.3-16.2-29-29.8-54.3-36.5-22.4-6-44.2-9.1-63.3-9.1-44.9,0-74.2,16.6-87.2,49.2-.7,1.7-1.4,4.6-2.2,7.5-1.3,5.1-2.2,8.4-3.3,10-.7,1-2.2,2.3-4.5,4.3-1.7,1.4-3.6,3-4.5,4.1C-3.5,110.3,1,149.7,5.1,171.4c5.1,26.7,20,53.2,41.9,74.6"/>
  <path class="st0" d="M276.7,156.3c2.2.3,6,.4,10.2.4s8.1-.1,10.3-.4c7.9-.9,11.4-7,12.1-12,.6-4.7-1.1-11.1-7.8-13.7-2.7-1.1-8.1-1.7-14.7-1.7s-6.8.2-9.1.5c-9.8,1.2-13.3,8-13.3,13.4,0,5.8,3.9,12.4,12.3,13.4"/>
  <path class="st0" d="M332.3,156.3c2.2.3,6,.4,10.2.4s8.1-.1,10.3-.4c7.9-.9,11.4-7,12.1-12,.6-4.7-1.1-11.1-7.8-13.7-2.7-1.1-8.1-1.7-14.7-1.7s-6.8.2-9.1.5c-9.8,1.2-13.3,8-13.3,13.4,0,5.8,3.9,12.4,12.3,13.4"/>
  <path class="st0" d="M187.2,156.8c1.5.7,2.9,1,4.3,1,5.5,0,8.2-5.4,9.1-7.7,2.3-6,2.1-14.8-3-19.5-1.9-1.8-4-2.7-6.2-2.7-5.1,0-10.2,5.5-11,12-.7,5.5,1.2,14.4,6.7,16.9"/>
  <path class="st0" d="M369.6-54.6h0Z"/>
  <path class="st0" d="M389,88.3c4.1-10.6,9.5-13.7,18.4-19.4,31.8-20.4,71.2-41,104.8-58.8,6.5-3.5,13.8-8.4,20.8-9v102.1l2.8,2.9h151.7c5.4,0,26.9-20.4,31.3-15.8,0,11.6-1.6,30.1-9.4,38.7-4.1,4.6-12.2,4.6-13.2,11.9l-.8,159.7c-7.3,18.9-28.2,26.4-43.7,11.8-2.1-2-8.5-11.1-8.5-12.9v-57.5c0-.4-3.1-3.5-3.7-2.9-4.2,12.3-10.6,23.8-16.7,35.1-5.7,10.2-21.8,41.4-31.9,43.9-14.8,3.6-29.8-6.3-30.2-22.6-.5-19.4,36.2-60.8,41-81.9h-81.5c-.9,3.6-1.7,7-2,10.8-1.6,20.6,4.1,63.9-.8,80.5-6.2,21-37.4,21.1-44.8-1-3.7-11.3-2.1-40.1-1.9-53.7,0-4.8,2-9.1,2-13.7.4-38.9-.3-77.9-.4-116.8-1.2-3.9-6.6-4.9-10-5.3-24.6-2.9-62.7,11.3-73-19.9v-6h-.3Z"/>
</svg>