<?xml version="1.0" encoding="UTF-8"?>
<svg id="Layer_1" xmlns="http://www.w3.org/2000/svg" version="1.1" viewBox="0 0 146.9 145.4">
  <!-- Generator: Adobe Illustrator 29.7.0, SVG Export Plug-In . SVG Version: 2.1.1 Build 138)  -->
  <defs>
    <style>
      .st0 {
        fill: #00003e;
      }
    </style>
  </defs>
  <path class="st0" d="M118.4,51.3c2.2-6.4,5.7-12.7,9.9-17.9,4.2-5.2,4.3-4.3,4.6-4.9.5-1-.2-2-1.2-1.8-1.5.2-7,7.5-8.1,9.1-3.3,4.8-5.8,10.1-8,15.5h2.8,0ZM146.1,31.7c-.3-.4-1-.4-1.5-.3-.8.2-3.7,1.8-4.7,2.4-7.9,4.5-14.2,11.9-18.9,19.6-14.1.2-22.9,15.8-28,27.1,1.8,5.3,3.8,9.3,1.3,15-3.1,6.9-18.4,12.8-25.4,15.4s-8.2,2.2-9.8,3.2-2.5,3.5-3.4,4.6c-2.6,3-5,4.4-8.2,6.5s-.6,0-.4.7c13.5-1.1,27.5-2,40.8-5.2,10-2.5,19.3-8.2,21.9-18.9,1.7-7.2,3.9-26.7,10.2-30.9,3.2-2.2,8.2-1.6,9.8-6.1,1.8-5.1-1.7-8.3-5.9-10.3l-.2-.5c4.3-7.1,10.2-13.7,17.4-17.9s6.6-2.4,5-4.2v-.2ZM60.5,111.2c8-2.8,16.2-5.5,23.6-9.7s11.2-9.6,6.6-19.7c-13.7-30.8-57.3-43.6-80.8-16-15.5,18.2-12.7,47.9,10.6,57.8,23.3,9.9,41-3.8,39.7-25.4-.9-14.5-18.1-25.1-30.6-16.5-9.5,6.5-9.6,23.1,2.5,26.2,1.9.5,5.8-.2,4.4,2.6-1.2,1.1-6.5-.6-7.9-1.3-9.6-4.8-10.7-17.8-4.3-25.6s25.5-8.5,33.5,2.1c5.8,7.6,5.8,16.9,2.6,25.6h.1Z"/>
  <path class="st0" d="M60.5,111.2c3.2-8.7,3.2-18-2.6-25.6-8-10.6-24.6-13.1-33.5-2.1s-5.3,20.9,4.3,25.6,6.7,2.5,7.9,1.3c1.3-2.8-2.5-2.1-4.4-2.6-12.1-3.1-11.9-19.6-2.5-26.2,12.5-8.6,29.7,2,30.6,16.5,1.3,21.6-20.6,33.5-39.7,25.4s-26.1-39.6-10.6-57.8c23.5-27.6,67.1-14.8,80.8,16,4.5,10.1,2.6,14.5-6.6,19.7s-15.6,6.9-23.6,9.7h-.1Z"/>
  <path class="st0" d="M146.1,31.7c1.6,1.8-3.7,3.5-5,4.2-7.2,4.3-13.1,10.8-17.4,17.9l.2.5c4.2,2,7.7,5.3,5.9,10.3-1.6,4.5-6.6,3.9-9.8,6.1-6.3,4.2-8.4,23.7-10.2,30.9-2.6,10.6-11.9,16.4-21.9,18.9-13.2,3.3-27.2,4.1-40.8,5.2-.2-.7,0-.5.4-.7,3.2-2,5.6-3.5,8.2-6.5s2.6-4,3.4-4.6c1.6-1,7.5-2.4,9.8-3.2,7-2.6,22.3-8.5,25.4-15.4,2.5-5.6.5-9.6-1.3-15,5-11.3,13.9-27,28-27.1,4.7-7.7,11-15.1,18.9-19.6s3.8-2.1,4.7-2.4,1.2-.1,1.5.3v.2Z"/>
  <path class="st0" d="M118.4,51.3h-2.8c2.2-5.5,4.7-10.8,8-15.7,1.1-1.6,6.6-8.8,8.1-9.1s1.7.9,1.2,1.8-3.8,3.9-4.6,4.9c-4.2,5.3-7.7,11.6-9.9,17.9v.2Z"/>
</svg>