<?xml version="1.0" encoding="UTF-8"?>
<svg id="Layer_1" xmlns="http://www.w3.org/2000/svg" version="1.1" viewBox="0 0 146.9 145.4">
  <!-- Generator: Adobe Illustrator 29.7.0, SVG Export Plug-In . SVG Version: 2.1.1 Build 138)  -->
  <defs>
    <style>
      .st0 {
        fill: #0a3a57;
      }
    </style>
  </defs>
  <path class="st0" d="M146.2,16.4c1.9,2.3-3.5,6.8-5,7.7-8.7,5.4-10.9,12.7-16.1,21.7l.2.6c5.1,2.5,9.3,6.7,7.1,12.9-1.9,5.7-8,4.9-11.8,7.7-7.6,5.3-7.7,29.8-9.9,38.8-3.1,13.3-9.5,20.6-21.6,23.8-15.9,4.1-20.2,5.2-36.6,6.6-.2-.9.2-.3.2-.5,3.9-2.5,5.6-4.2,8.7-7.9s3.6-7.6,4.6-8.3c1.9-.8,2-1.1,4.7-2.1,8.4-3.3,22.3-10.7,26.1-19.4,3-7,.6-12.1-1.6-18.9,6-14.2,9.5-33.9,26.5-34.1,5.7-9.7,8.4-18.2,17.9-23.8s3.5-4.8,4.6-5.2,1.4-.1,1.8.4h0Z"/>
  <path class="st0" d="M117.5,47.8l-3.3.9c.9-7.4,2.3-14.6,4.7-21.6.8-2.3,5.1-12.8,6.8-13.6s2.3.6,1.9,1.8-3.3,5.9-3.9,7.4c-3.3,7.8-5.6,16.5-6.3,24.9v.2Z"/>
  <path class="st0" d="M93.1,81.1c-10.2-23.9-27.9-38.8-46.3-38.8s-23.7,6.5-33.7,18.7C2.5,74-2.1,92,1.4,107c1.9,8.1,7,19.1,20.5,25.1,6,2.9,11.8,4.4,17.3,4.4s14-2.7,18.8-7.9c5.5-6,8.2-14.9,7.6-25.2-.8-13.5-12-25.8-23.5-25.8-3.5,0-6.9,1.1-10,3.3-6,4.2-9.3,12.8-8,20.4.6,3.4,2.6,9.3,9.8,11.2.5.1.9.2,1.4.3,1.4.3,2.7.6,3.4,1.6.3.5.4,1.2.2,1.9h0s0,0,0,0c-.2.5-.6,1.1-2,1.1s-4.8-.9-6.2-1.6c-5.2-2.7-8.8-7.6-10.1-13.8-1.5-7,.2-14.5,4.6-20,3.8-4.8,10-7.6,16.7-7.6s15.2,3.8,20.1,10.5c6.8,9.2,8.9,20.9,5.9,31.7h0c9.3-4.1,11.1-5.2,19.3-11.3,7.7-5.7,11.3-11.8,5.9-24.3Z"/>
</svg>