<?xml version="1.0" encoding="UTF-8"?>
<svg id="Layer_1" xmlns="http://www.w3.org/2000/svg" version="1.1" viewBox="0 0 146.9 145.4">
  <!-- Generator: Adobe Illustrator 29.7.0, SVG Export Plug-In . SVG Version: 2.1.1 Build 138)  -->
  <defs>
    <style>
      .st0 {
        fill: #0a3a57;
      }
    </style>
  </defs>
  <path class="st0" d="M68.9,115c9.2-4,11.1-5.1,19.3-11,8.3-6,11.7-12.4,6.2-24.6C78,42,41.5,26.2,13.5,59.8c-18.5,22.1-18.7,58.2,9.1,70.2,25.5,12.1,46.2-2.5,44.7-28.7-1.1-17.6-19.8-32.9-34.7-22.4-11.3,7.9-12.3,28.5,2.1,32.3,2.3.6,4.7.6,4.3,2.5-.3,1-5-.3-6.7-1.1-11.5-5.8-12.8-21.6-5.1-31.1,7.6-9.5,25.3-10.1,34.8,2.8,6.9,9.2,8.8,21.3,5,31.8l2.1-.9Z"/>
  <path class="st0" d="M146,17.3c1.9,2.2-3.4,6.5-5,7.4-8.6,5.2-10.8,12.3-16,20.9l.2.6c5,2.4,9.2,6.4,7,12.5-1.9,5.5-7.9,4.7-11.7,7.4-7.5,5.1-7.6,28.8-9.8,37.5-3.1,12.9-9.4,19.9-21.4,22.9-15.7,4-20,5-36.2,6.3-.2-.8.2-.3.2-.5,3.8-2.4,5.6-4,8.7-7.7s3.6-7.3,4.6-8c1.9-.8,1.9-1,4.7-2,8.4-3.2,22.1-10.3,25.8-18.7,3-6.8.6-11.7-1.6-18.2,6-13.7,9.4-32.8,26.2-32.9,5.6-9.3,8.3-17.6,17.7-23,4.7-2.7,3.5-4.7,4.6-5s1.4-.1,1.8.4h0Z"/>
  <path class="st0" d="M117.6,47.7l-3.2.8c.9-7.1,2.3-14.1,4.6-20.9.8-2.2,5-12.3,6.7-13.1s2.2.6,1.9,1.8-3.2,5.7-3.9,7.1c-3.3,7.5-5.5,16-6.2,24v.2Z"/>
</svg>