<?xml version="1.0" encoding="UTF-8"?>
<svg id="Layer_1" xmlns="http://www.w3.org/2000/svg" version="1.1" width="174.1" height="23.9" viewBox="0 0 174.1 23.9">
  <!-- Generator: Adobe Illustrator 29.7.0, SVG Export Plug-In . SVG Version: 2.1.1 Build 138)  -->
  <defs>
    <style>
      .st0 {
        fill: #f9ed25;
      }
    </style>
  </defs>
  <polygon class="st0" points=".7 13.6 9.1 13 9.2 14.3 5.7 14.5 6.4 23.4 4.9 23.5 4.2 14.6 .8 14.9 .7 13.6"/>
  <polygon class="st0" points="18.3 12.3 19.8 12.2 20.5 22.3 19.1 22.4 18.8 18 13.1 18.4 13.4 22.8 12 22.9 11.2 12.8 12.7 12.7 13 17.1 18.7 16.6 18.3 12.3"/>
  <polygon class="st0" points="22.7 11.9 28.5 11.5 28.6 12.8 24.3 13.1 24.5 16.2 28.7 15.9 28.8 17.2 24.6 17.5 24.9 20.6 29.3 20.3 29.4 21.6 23.5 22 22.7 11.9"/>
  <g>
    <path class="st0" d="M39.1,12h-1.8c0,.1.6,7.6.6,7.6h1.8c.7-.2,1.3-.3,1.7-.4s.7-.3,1-.5.5-.4.7-.6c.7-.8.9-1.7.9-2.8s-.5-1.9-1.3-2.6c-.3-.2-.6-.4-1-.6-.4-.1-.7-.2-1-.2h-1.5M36.5,21l-.8-10.1,3.4-.3c1.4-.1,2.5,0,3.3.4.8.3,1.5.9,2,1.7.5.8.8,1.6.9,2.6,0,.7,0,1.3-.2,2-.2.6-.5,1.2-1,1.7s-1,.9-1.6,1.2c-.4.2-.7.3-1,.4-.3,0-.9.1-1.8.2l-3.2.2h0Z"/>
    <path class="st0" d="M52.7,10.9c-1.2,0-2.1.5-2.8,1.3-.7.8-1,1.7-.9,2.9,0,1.1.5,2,1.3,2.6.8.7,1.8,1,2.9.9,1.1,0,2-.5,2.7-1.3s1-1.7.9-2.8c0-1.1-.5-1.9-1.3-2.6s-1.8-1-2.9-.9M52.5,9.5c1.6-.1,2.9.3,4,1.2,1.1.9,1.7,2.1,1.8,3.6.1,1.5-.3,2.8-1.3,3.8-1,1.1-2.3,1.6-3.8,1.8-1.5.1-2.8-.3-3.9-1.2-1.1-.9-1.7-2.1-1.8-3.6s.3-2.8,1.2-3.9,2.2-1.7,3.8-1.8"/>
    <path class="st0" d="M66.3,13.7l3.4-.3.3,4.3c-1.2.6-2.4,1-3.6,1.1-1.7.1-3-.3-4.1-1.2s-1.7-2.1-1.8-3.5c-.1-1.5.3-2.8,1.3-3.9s2.2-1.7,3.8-1.8h1.6c.5,0,1.2.3,2,.5v1.5c-1.1-.6-2.4-.9-3.6-.8-1.1,0-2,.5-2.7,1.3s-1,1.8-.9,2.9c0,1.1.5,2.1,1.3,2.7.8.7,1.8,1,3,.9.6,0,1.3-.2,2-.6h.1l-.2-2.2h-1.9c0,.1,0-1.1,0-1.1v.2Z"/>
    <path class="st0" d="M80.3,13.1h-1.3c0,.1.2,3.3.2,3.3h1.4c.8-.2,1.3-.3,1.6-.4.3-.1.5-.4.6-.6.2-.3.2-.6.2-.9s-.1-.6-.3-.8-.5-.4-.8-.5c-.3,0-.9-.1-1.6,0M79.8,8.8h-1.2l.2,3.1h1c.8-.1,1.3-.3,1.6-.6s.4-.7.4-1.2c0-1-.7-1.4-2-1.3M81.2,17.6l-3.4.3-.8-10.1,2.6-.2c.8,0,1.5,0,2,.2s.9.5,1.1.8c.3.4.4.8.5,1.3,0,1-.4,1.7-1.4,2.3.7,0,1.4.3,1.8.8.5.4.7,1,.8,1.6,0,.5,0,1-.3,1.4-.2.4-.6.8-1.1,1.1-.5.3-1.1.5-1.9.5"/>
  </g>
  <rect class="st0" x="86.5" y="7" width="1.4" height="10.1" transform="translate(-.7 6.7) rotate(-4.4)"/>
  <polygon class="st0" points="98.6 6.1 99.9 6 100.7 16.1 99.5 16.2 92.1 8.9 92.7 16.7 91.4 16.8 90.6 6.7 91.8 6.6 99.2 13.9 98.6 6.1"/>
  <g>
    <path class="st0" d="M108.7,10.5l3.4-.3.3,4.3c-1.2.6-2.4,1-3.6,1.1-1.7.1-3-.3-4.1-1.2-1.1-.9-1.7-2.1-1.8-3.5-.1-1.5.3-2.8,1.3-3.9s2.2-1.7,3.8-1.8h1.6c.5,0,1.2.3,2,.5v1.5c-1.1-.6-2.4-.9-3.6-.8-1.1,0-2,.5-2.7,1.3s-1,1.8-.9,2.9c0,1.1.5,2.1,1.4,2.7s1.8,1,3,.9c.6,0,1.3-.2,2-.6h.1l-.2-2.2h-1.9c0,.1,0-1.1,0-1.1v.2Z"/>
    <path class="st0" d="M119.6,5.7c-1.2,0-2.1.5-2.8,1.3-.7.8-1,1.7-.9,2.9,0,1.1.5,2,1.3,2.6.8.7,1.8,1,2.9.9,1.1,0,2-.5,2.7-1.3s1-1.7.9-2.8c0-1.1-.5-1.9-1.3-2.6s-1.8-1-2.9-.9M119.5,4.3c1.6-.1,2.9.3,4,1.2,1.1.9,1.7,2.1,1.8,3.6.1,1.5-.3,2.8-1.3,3.8-1,1.1-2.3,1.6-3.8,1.8-1.5.1-2.8-.3-3.9-1.2-1.1-.9-1.7-2.1-1.8-3.6-.1-1.5.3-2.8,1.2-3.9.9-1.1,2.2-1.7,3.8-1.8"/>
    <path class="st0" d="M138.2,8.2l3.4-.3.3,4.3c-1.2.6-2.4,1-3.6,1.1-1.7.1-3-.3-4.1-1.2-1.1-.9-1.7-2.1-1.8-3.5-.1-1.5.3-2.8,1.3-3.9s2.2-1.7,3.8-1.8h1.6c.5,0,1.2.3,2,.5v1.5c-1.1-.6-2.4-.9-3.6-.8-1.1,0-2,.5-2.7,1.3s-1,1.8-.9,2.8c0,1.1.5,2,1.4,2.7.8.7,1.8,1,3,.9.6,0,1.3-.2,2-.6h.1l-.2-2.2h-1.9c0,.1,0-1.1,0-1.1v.3Z"/>
  </g>
  <path class="st0" d="M149.8,8l-1.9-3.5-1.2,3.8,3.1-.2h0ZM147.2,2.3h1l5.3,9.7h-1.5c0,.1-1.6-2.8-1.6-2.8l-4.3.3-1,3.1h-1.5c0,.1,3.6-10.4,3.6-10.4h0Z"/>
  <polygon class="st0" points="162.7 1.2 164 1.1 164.8 11.2 163.3 11.3 162.7 3.4 159.9 7.5 159.7 7.6 156.2 3.9 156.8 11.8 155.4 11.9 154.6 1.8 156 1.7 159.6 5.6 162.7 1.2"/>
  <polygon class="st0" points="166.9 .8 172.6 .4 172.7 1.7 168.5 2 168.7 5.1 172.8 4.8 172.9 6.1 168.8 6.4 169 9.5 173.5 9.2 173.6 10.5 167.7 10.9 166.9 .8"/>
</svg>