<?xml version="1.0" encoding="UTF-8"?>
<svg id="Layer_1" xmlns="http://www.w3.org/2000/svg" version="1.1" viewBox="0 0 217.1 215.6">
  <!-- Generator: Adobe Illustrator 29.7.0, SVG Export Plug-In . SVG Version: 2.1.1 Build 138)  -->
  <defs>
    <style>
      .st0 {
        fill: #141544;
      }
    </style>
  </defs>
  <path class="st0" d="M93.5,1.4l13.7,6,14.7-6s4.3-1.1,6.5-1,6.6,1,6.6,1c10.6,3.6,18.2,8.3,24.2,17.9s2.5,7.3,3.3,8,10.6,2.6,14,4.4c15.8,8.1,22.6,28.7,16.5,45,21.9,12.8,23.1,48.2,1.3,61.4,6.7,15.5,1.5,34.1-12.7,43.6-3.9,2.6-13.8,4.7-15.2,6.1s-3.9,9.5-6.2,12.7c-11.7,16.7-35.8,18.9-52.1,7.6-18.8,11.3-42.8,9.4-54.7-10.5-1.5-2.6-3.2-8.7-4.3-9.9-1.7-1.7-4.6-.9-6.6-1.7-19.9-8.4-29.7-27.2-21.4-48C3.4,127.8.8,100.8,12.9,85.1c1.8-2.3,8.8-7.9,9.2-9.7s-2.3-9.6-2.1-14c.5-11,7.9-23.5,17.4-28.9,4-2.3,14.5-4.4,15.5-5.2s3.4-8.2,5.2-10.8c5.7-8,13.4-11.7,22.3-15,0,0,3.4-.9,6.2-1s6.9,1,6.9,1ZM77.8,45.6c1,1,1.5,3.8,3.2,5.7,4.7,5.1,21,10.1,22.1.6s.4-29-.7-31.5-6.9-5.2-9.8-5.7c-17.6-3-29.2,8.6-28.8,25.8-20.7-3.3-35.9,11-29.5,31.9,11.4-.6,22.4.5,31.3,8.4,2.3,2.1,4.9,7.5,7.4,8.1s15.1-3.2,15.8,4.4-12.6,5-18.7,7.4c-7.1,2.8-11.6,12.4-17.3,10.7l-3-3c-2-7.4,12.2-13.8,11.6-16.3-11.4-16-37.4-10-42.6,8.3-4.4,15.6,4.9,28.7,20.1,32.6-14.6,15.1-8.7,39.5,13,41.5-.4-5.7,3.1-10.3,6.1-14.7s3.9-2.5,4.9-4.6c3.6-7.6-4.2-22.9,1.2-25.1,9.6-3.9,11.1,13.3,10.4,19.4,4.5.2,14.9-1.9,14.3,5.3s-11.3,5-15.8,6.9c-18.5,7.8-13.3,36.1,4.7,39.8,5.9,1.2,23.7.2,25.2-7.5v-127.5c-11.2,3.4-26.2-2.1-32.5-11.9-5.2-8.2,3-13.5,7.4-9.1ZM112.5,121.2v74.1c15.2,13.8,42.6,6.2,41.6-16.6-.2-3.8-4.2-16.3-8.8-15.8s-16.9,13.5-19.7.4c3.9-6.9,11.5-5.4,17.2-12.4,4.5-5.6,3.6-16.4,11.6-14,8.8,2.6-1.7,16.6-1.4,18s13.6,13.1,10.6,19.7c21.8-2.1,27.6-26.4,13-41.5,34.6-8.8,23.5-57.6-11.3-48.7-1.8,2.4,8,16.1-.2,18.8-8.4,2.5-7.6-10.9-12.4-16.8-3.9-4.8-15.6-8-13.9-14.2,2.7-9.7,16.4,3.3,18.2,3.5s6.8-2.7,9.6-3.1c4.8-.6,9.8.4,14.6-.2,7.3-23.3-14.4-40.6-35.4-27.7s-5.6,8.2-11.2,4.2c-7.9-5.8,10.9-15.7,14.3-17.6s2,.5,1.3-1.8c-4-15.2-29.4-21.9-37.8-7.3v85.4s1.9,2.8,1.9,2.8h9.8c1.5-6.1.7-15.6,9.6-12.3,4.6,3.1,1.1,7.7,1.1,11.9,0,7.3,7.7,17.1,1.9,20.9-6.1,3.9-9.1-5-10.3-9.4l-14.1-.2Z"/>
</svg>