<?xml version="1.0" encoding="UTF-8"?>
<svg id="Layer_1" xmlns="http://www.w3.org/2000/svg" version="1.1" viewBox="0 0 153.1 152.9">
  <!-- Generator: Adobe Illustrator 29.7.0, SVG Export Plug-In . SVG Version: 2.1.1 Build 138)  -->
  <defs>
    <style>
      .st0 {
        fill: #bcd631;
      }
    </style>
  </defs>
  <path d="M152.9,77c0-.2,0-.4,0-.6C153,34.2,118.7,0,76.5,0c-.2,0-.4,0-.6,0,0,0,0,0-.1,0h0c0,0-.1,0-.2,0C34,.5.4,34,0,75.6c0,0,0,.1,0,.2,0,0,0,0,0,.1,0,.2,0,.4,0,.6,0,42.2,34.2,76.5,76.5,76.5.2,0,.4,0,.6,0,0,0,0,0,.1,0h0c0,0,.1,0,.2,0,41.5-.5,75.1-34,75.5-75.6,0,0,0-.1,0-.2,0,0,0,0,0-.1ZM29.6,29.6c10.9-11,25.3-17.7,40.7-19.1-1.4,15.4-8.1,29.8-19.1,40.8-10.9,11-25.4,17.7-40.8,19.1,1.4-15.4,8.2-29.8,19.1-40.7ZM10.4,80.5c18.2-1.4,35.2-9.2,48.1-22.1,12.9-12.9,20.7-29.9,22.1-48.1,33.4,2,60.1,28.6,62,62-37.5,2.9-67.3,32.7-70.2,70.2-33.4-2-60.1-28.6-62-62ZM123.4,123.3c-10.9,11-25.3,17.7-40.7,19.1,2.9-31.8,28.1-57,59.9-59.9-1.4,15.4-8.2,29.8-19.1,40.7Z"/>
  <path class="st0" d="M29.6,29.6c10.9-11,25.3-17.7,40.7-19.1-1.4,15.4-8.1,29.8-19.1,40.8-10.9,11-25.4,17.7-40.8,19.1,1.4-15.4,8.2-29.8,19.1-40.7Z"/>
  <path class="st0" d="M10.4,80.5c18.2-1.4,35.2-9.2,48.1-22.1,12.9-12.9,20.7-29.9,22.1-48.1,33.4,2,60.1,28.6,62,62-37.5,2.9-67.3,32.7-70.2,70.2-33.4-2-60.1-28.6-62-62Z"/>
  <path class="st0" d="M123.4,123.3c-10.9,11-25.3,17.7-40.7,19.1,2.9-31.8,28.1-57,59.9-59.9-1.4,15.4-8.2,29.8-19.1,40.7Z"/>
</svg>