<?xml version="1.0" encoding="UTF-8"?>
<svg id="Layer_1" xmlns="http://www.w3.org/2000/svg" version="1.1" viewBox="0 0 720 720">
  <!-- Generator: Adobe Illustrator 29.7.0, SVG Export Plug-In . SVG Version: 2.1.1 Build 138)  -->
  <path d="M32.8,687.1c-16.6-16.6-29.4-42.3-31-66V94.5C7.4,44.8,48.8,3.7,98.8-.8h526.5c49.7,5.7,90.8,47,95.3,97v528.2c-7,48.8-46.3,88-95.3,93.7H98.8c-23.7-1.6-49.3-14.4-66-31ZM455.7,282.8l-93.9,96c-29-18.6-51.9-74.7-93.3-49.5l-115.5,115.6c-23.9,33.2,12.9,71.1,47.4,52.5l89.1-88.1c27.2,20.9,55.8,79.2,95.3,48.1l122.3-122.3c16.4,36,66.4,29.3,70.1-10.9,1.7-18.3,1.9-59.5-.3-77.5-2.7-22.2-20.7-31.6-41.1-33.2-17.2-1.3-67.7-2-82,4.2-27.9,12.1-27,54.8,1.8,65.1Z"/>
</svg>