<?xml version="1.0" encoding="UTF-8"?>
<svg id="Layer_1" xmlns="http://www.w3.org/2000/svg" version="1.1" viewBox="0 0 217.1 211.5">
  <!-- Generator: Adobe Illustrator 29.7.0, SVG Export Plug-In . SVG Version: 2.1.1 Build 138)  -->
  <defs>
    <style>
      .st0 {
        fill: #fff;
      }
    </style>
  </defs>
  <path class="st0" d="M161.3,208l.4-2.9-108.9-17.3c-4-.6-7.4-2.8-9.6-5.9-2.2-3.1-3.3-6.9-2.6-11L64.6,20.4c.6-4,2.8-7.4,5.9-9.6s6.9-3.3,11-2.6l108.9,17.3c4,.6,7.4,2.8,9.6,5.9,2.2,3.1,3.3,6.9,2.6,11l-23.8,150.5c-.6,4-2.8,7.4-5.9,9.6-3.1,2.2-6.9,3.3-11,2.6l-.4,2.9-.4,2.9c11.3,1.8,21.9-5.9,23.6-17.2l23.8-150.5c1.8-11.3-5.9-21.8-17.2-23.6L82.4,2.3c-11.3-1.8-21.9,5.9-23.6,17.2l-23.8,150.5c-1.8,11.3,5.9,21.8,17.2,23.6l108.9,17.3.4-2.9h-.1Z"/>
  <path class="st0" d="M79.9,161.3c5.3,1.5,11.2-1.9,16.3-3.8,13.6-4.9,26.6-11.4,40.4-15.8l2.4-3.1-38.4-45-2.3-1.2-3,1-4.3,17.8c-13.7-3.2-27.6-6.9-40.7-12-28.1-11.1-31.6-20.1-5.4-27l2.8-11.5c-25.4,4.3-62.8,17.4-34.5,45.5,18.7,18.6,46.8,28.8,70.3,39.9l-3.7,15.3Z"/>
</svg>