<?xml version="1.0" encoding="UTF-8"?>
<svg id="Layer_1" xmlns="http://www.w3.org/2000/svg" version="1.1" viewBox="0 0 720 720">
  <!-- Generator: Adobe Illustrator 29.7.0, SVG Export Plug-In . SVG Version: 2.1.1 Build 138)  -->
  <path d="M615,587.9c-4.4,0-10.2,1.1-17.5,2.6-8,1.6-17.9,3.5-24.9,3.5h-.2c1.6-3.2,5-8.6,12-16.9,4.2-5.1,9-9.8,14.1-14.7,11-10.8,22.4-21.9,29.6-38.4,6.1-14.1,5.1-28.5-2.7-40.5-10.1-15.3-31.3-25.6-52.9-25.6s-1.2,0-1.8,0c-7.1.2-14.1,2.3-20.8,4.3-3.3,1-6.7,2-9.6,2.6.3-2.1.8-4.2,1.1-5.6.7-3.2,1.3-6,1.4-8.6.5-7.6,1.2-14.2,1.9-20,2.2-20.2,3.8-34.9-7.4-58-2-4.1-3.7-8.7-5.5-13.7-2.3-6.4-4.8-13.1-8.1-19.3-8.3-15.3-24.6-19.9-37.7-23.6-14-3.9-20.8-6.5-23-13.1-8.1-24.4-23.7-50.5-42.9-71.7-9.7-10.7-22.1-13.8-32.9-16.6-1.6-.4-3.2-.8-4.7-1.2,0-10.6,6.7-22.8,12.7-33.7.8-1.4,1.5-2.8,2.3-4.2,1.4-2.6,3.7-6.3,6.2-10.5,13.1-21.3,31.1-50.4,20.9-71.2-3.3-6.7-10.9-15.2-28.3-17.2-8.3-.9-17.6-1.4-26.2-1.4-13.7,0-24.8,1.2-32.9,3.7-2,.6-4.7,1.8-10.3,4.5,2-4.3,5.6-7.8,9.2-10.5,1.5-1.1,3.8-2.3,6.2-3.6,4-2.1,8.5-4.5,12.4-7.9,9.6-8.7,13.3-21.6,16.5-33,1.1-3.9,2.2-7.6,3.3-10.5,1.7-4.3.9-9.1-2.1-12.7-2.4-2.9-6-4.6-9.8-4.6s-1.6,0-2.3.2c-10.4,1.9-19.9,2.9-28.8,2.9s-4.2,0-6.2-.2c-3.3-.2-7.1-.8-11-1.4-5.6-.9-11.4-1.8-17.4-1.8-11.1,0-19.9,3.3-27,10.1-14.4,13.7-31.8,50.6-37,69-1,3.7-1.6,7.7-2,11.8-6.9-8.5-14.8-15.3-24.4-15.3s-4.9.5-7.2,1.4c-8.1,3.3-25.3,18.7-22.1,33.8,1.3,6.2,6.2,11.4,18.8,23.6,2.9,2.8,6.2,6,7.2,7.2l.8,1c5.5,6.6,7.7,9.7,8.5,11.1.2,3.2-2.2,9.4-4.1,14.4-3.5,8.9-7.4,18.9-5.8,29.6,1.9,12.7,13,18.8,20.3,22.8.6.3,1.3.7,2,1.1-.2,3.9-.7,8.4-1.2,13.1-1.9,17.7-4.1,37.8,3.6,51.7,4.3,7.7,10.9,11.7,19.1,11.7s5-.4,6.8-.7c.8-.1,1.8-.3,2.4-.4.5.2,1.4.6,2.7,1.5v33c0,5.4,3.4,10.2,8.5,12,2,.7,4.3,1.1,6.9,1.1,7.1,0,16.9-2.5,31-6.3,2.9-.8,6.4-1.7,9.7-2.5,1.9,12.2,5.1,24.4,13.9,35.8,4.8,6.2,9.9,10.1,14,13.3,6.9,5.3,8.3,6.3,7.6,15-.3,3-1.7,7.6-3,12-1.8,5.9-3.7,12-3.9,17.7,0,1.2,0,2.4.2,3.5-4.9-1-10.4-3-15.8-4.9-9.1-3.2-18.4-6.5-27.3-6.5s-6.1.4-8.8,1.2c-10,3-15.7,14.2-17.2,17.6-2.5,5.6-4.6,13.8-1,21.3,2.9,6,8.4,8.3,12.8,10.2,5.4,2.3,6.3,3.2,6.6,4.8,2.4,12.9-7.8,41.9-17.6,50-2.8,2.3-5.9,4.7-9.3,7.1-13.5,9.9-30.3,22.3-33,44.7-.4,3.4.6,6.9,2.8,9.6,3.1,3.8,8.7,8.3,17.8,8.3s5.8-.5,8-.9c1.2-.2,2.6-.5,3.3-.5h.8c12.3,0,15.7,2.1,22.6,6.1,3.6,2.1,8,4.8,14.1,7.4-9.4,3.6-17.8,8.3-23,14.8-3.7,4.6-6.2,9.4-8.6,14.1-2.9,5.5-5.3,10.2-9.3,13.7-4.3,3.8-9.7,6.3-15.9,9.3-9.9,4.6-21.1,9.9-30.7,21.6-2.7,3.3-11.3,14.8-9.8,25.9.7,4.9,3.2,9.2,7.2,12,3.5,2.4,7.1,2.7,9.6,2.7,6.1,0,16.2-2.1,30.8-5.3,6.2-1.3,13.8-3,16-3.2,1.8-.1,3.6-.2,5.5-.2,7.3,0,14.2,1.1,21.5,2.2,5.9.9,11.9,1.9,18.6,2.3h.6c1.9.2,5.5.4,9.3.4,7.2,0,15.3-.7,20.4-6.3,2.8-3.1,4.2-7.1,3.8-11.2,0-.9-.3-1.9-.6-2.8-1.4-4.2-3.8-7.9-6.2-11.5-.7-1-1.5-2.3-2.3-3.6,6.8-1.7,20.4-2.5,27.5-2.9,5.6-.3,10.4-.6,14.3-1.1,5.2-.6,10.7-1.4,16.3-2.1,24.9-3.2,53.1-6.8,75.8-7.8,2.7-.1,5.6-.2,8.6-.2,9.9,0,20.3.6,30.3,1.2,10.3.6,21,1.2,31.5,1.2s12.2-.2,17.7-.7c25-2.1,43.8-25.8,53.9-38.5.6-.7,1.2-1.5,1.9-2.3,5.8-7.2,13.9-17.1,13.8-29.2,0-3.4-1.3-6.6-3.7-9-2.9-2.9-6.8-4.3-11.6-4.3Z"/>
  <path d="M212.9,406.8c2.6-2.2,5.9-5.1,9-8,1.6-1.5,3.1-2.9,4.4-4.2,1.3-1.3,2.4-2.4,3.5-3.6h0c2.2-2.5,4.4-5.1,6.1-8.8.9-1.8,1.6-3.8,2-5.9.4-2,.6-4,.6-5.8,0-2.7-.3-5-.7-7.4-.2-1.2-.4-2-.6-2.9-.4-1.6-1-3.4-1.6-5.5-2.3-7.1-6-17.5-9.5-26.8-1.8-4.7-3.5-9-5.1-12.7-.8-1.8-1.5-3.4-2.2-4.9-.3-.7-.7-1.4-1.1-2.1-.4-.7-.8-1.4-1.5-2.4-4.2-6-9.5-10.5-15.4-14.2-8.8-5.6-18.9-9.4-29.3-12.1-10.4-2.7-21-4.1-30.9-4.1-6.5,0-12.6.6-18.5,2.1-3.6,1-6.9,2.6-9.6,4.5-4.9,3.4-8.3,7.5-11,11.6-4.1,6.2-6.8,12.5-9.3,18.2-2.4,5.6-4.6,10.5-6.3,13.1-2.2,3.3-4.6,6-7.5,8.8-2.2,2.1-4.6,4.1-7.2,6.5-3.8,3.5-8.3,7.7-11.9,13.8-1.8,3-3.3,6.5-4.3,10.3-1,3.8-1.5,7.8-1.5,12,0,3.5.3,7.2,1,11,1,6.4,4.1,12.3,8.1,16.5,3,3.2,6.4,5.7,9.9,7.7,5.3,2.9,10.9,4.7,16.5,5.8,5.6,1.1,11.2,1.6,16.6,1.6,4.7,0,9.2-.4,13.5-1,4.3-.7,8.3-1.7,12.2-3.1h0c1.8-.7,3.3-1.5,4.6-2.3,2.3-1.4,4.4-2.8,6.3-4.2,2.7-2,5.2-3.9,7.1-5.2.3.2.6.3,1,.5,2.7,1.5,6.4,3.8,10.3,6.1,2,1.1,4,2.2,6.2,3.3,2.2,1,4.6,2,7.7,2.6h0c3.7.8,7.4,1.2,11.3,1.2,4.2,0,8.6-.6,12.9-2.1,4.2-1.4,8.2-3.5,11.8-6.2.9-.6,1.6-1.2,2.3-1.8Z"/>
</svg>