<?xml version="1.0" encoding="UTF-8"?>
<svg id="Layer_1" xmlns="http://www.w3.org/2000/svg" version="1.1" viewBox="0 0 217.1 211.5">
  <!-- Generator: Adobe Illustrator 29.7.0, SVG Export Plug-In . SVG Version: 2.1.1 Build 138)  -->
  <defs>
    <style>
      .st0 {
        fill: #fff;
      }
    </style>
  </defs>
  <path class="st0" d="M214.4,141.7v-10.3c-1-2.5-3.6-4.9-6.4-4.9h-63.8v-20.9c3.8.7,8.2-1.1,8.9-5.2.3-2,.3-7.9-.2-9.9-.5-2-2.6-4-4.6-4.4l-76.1-.2c-2.4-.1-4.9,1.3-6,3.4-1.2,2.3-1.2,10.9.1,13.1,1.7,3,5,3.5,8.1,3.1v7.4H9.9c-1,0-3.9,1.9-4.5,2.9-1.4,2.1-1.5,10.2-.8,12.6.9,3.1,3.6,4.1,6.5,4.6.5,1.4,0,16.4.2,27.1v30.2c0,0-.5.8-.5.8-2.9.2-6.1,2.3-6.6,5.3-.3,1.9-.2,8.1.3,9.9.6,2.3,2.6,3.6,4.6,4.6h200.2c2.4-1,3.9-2.5,4.9-4.9v-9.8c-1.2-3.1-3.2-4.8-6.6-5.1l-.4-.8v-43.4c3.4-.8,5.6-1.8,7-5.2ZM71.6,99.5v-7.4h75.5v7.4h-75.5ZM144.2,146.7h57v44.7h-57v-44.7ZM138.1,105.6v85.7h-57.4v-85.7h57.4ZM10.5,126.6v-7.4h64v7.4H10.5ZM17.2,151.6c.4-8.7.3-17.4.2-18.9h57v58.7H17.5v-39.2s-.1-.3-.2-.6ZM208.2,197.5v7.4H10.5v-7.4h197.7ZM208.2,140.5h-64v-7.8h63.4l.6.6v7.2Z"/>
  <path class="st0" d="M84.9,56c-1.9,2.6-4.8,4.5-5.4,8.1-1.8,10.3,8.1,16,17.2,13.9,6.2-1.4,8-6.2,15.5-4.6,2.3.5,4.6,2.8,7,3.7,9.7,3.9,22.3-1.5,19.9-13.3-.7-3.5-7-9.8-9.2-13.8-1-1.9-1.7-4-2.7-6-4.2-8-11.7-12.5-20.9-11.3-13.2,1.7-15.1,14.2-21.5,23.2ZM128.9,59.7c2,2.8,4.9,3.9,4.2,8-.7,4.5-7.4,5.2-10.9,4-6.2-2.2-6.9-5.6-15.5-4.6-6.8.8-10.1,7.5-17.6,4.4-1.7-.7-3.2-1.9-3.5-3.8-.6-4.1,2.2-5.2,4.2-8,5-6.9,7.8-19.4,17-20.8,13.9-2.2,15.8,12.1,22.1,20.8Z"/>
  <path class="st0" d="M120.8,30c9.6,1.7,14.3-6.3,15.4-14.6,1.1-8-4.6-15.5-13-14.3-12.3,1.8-17.2,26.2-2.4,28.8ZM124,7.3c3.6-.6,6.5,2.8,6.3,6.3-.1,1.8-1.6,7-2.7,8.4-3.1,4-9.2,1.9-9.9-2.7-.6-3.4,2.5-11.3,6.4-11.9Z"/>
  <path class="st0" d="M101.7,28.5c7.2-4.7,6.4-12.5,3.1-19.4-2.6-5.3-6.5-8.8-12.8-7.9-18.7,2.7-7.1,38.3,9.7,27.3ZM92.8,7.3c1.9-.3,3.5.2,4.8,1.6.9,1,3.2,6.3,3.4,7.6,1.2,7.5-8.1,10.6-11,3.6-1.6-4-3.1-11.8,2.8-12.8Z"/>
  <path class="st0" d="M84.5,50.3c12-9-.8-27.1-13.4-24.9-8.9,1.5-11.4,13-6,19.8,4.9,6.2,12.1,10.7,19.5,5.1ZM71.9,31.5c1.1-.3,3-.2,4.1.2,1,.4,5.6,4.3,6.2,5.3,2.7,4.6-1.2,11.1-6.8,9.3-1.4-.5-5.5-4.6-6.3-6-1.5-2.9-.8-7.9,2.8-8.7Z"/>
  <path class="st0" d="M132.1,32.6c-7.4,9.7,1.9,23.7,13.6,19.3,3.1-1.2,9-7.3,10.1-10.4,3.3-9-3.7-17.8-13.3-16.2-2.8.5-8.6,5-10.4,7.3ZM137,36.3c.7-.9,5.2-4.6,6.2-4.8,6.2-1.4,9.1,4.9,5.6,9.7-.6.8-3.2,3.6-4.1,4.1-6.1,4.2-12-3.6-7.8-9Z"/>
  <path class="st0" d="M38.7,162.5c3,.2,2.6-2.9,3.8-4.2,1.3-1.4,3.8-1.7,5.3-.4,2.4,2,.3,5.2-.9,7.3-2.2,3.7-8.6,10.3-9.9,13.5-.5,1.4-.6,3.8,1,4.5,2.2,1,9.4.9,12,.7,1.7-.1,5.4-.2,5.9-1.9,1.9-6.3-6.8-4-10.2-4.2l7.6-11.5c6.3-9.6-5.5-20.4-14.4-13.1-2.7,2.2-5.7,9-.4,9.3Z"/>
  <path class="st0" d="M109,157.3v23.2c.6,3.8,4.7,4.2,6.1.8v-27.9c-.6-3.3-10.5-3.1-11.4-.3-1,3.5,2.3,4.8,5.2,4.2Z"/>
  <path class="st0" d="M170,151.3c-3.2,1-8.1,5.6-6.6,9.2.8,1.8,3.4,2.4,4.9,1.2.7-.6,1-2.5,1.7-3.4,3-3.7,8.1.7,5.7,4.5-1.3,2.1-6.1.7-6.1,4.6s5.9,2,6.6,5.8c.8,4.8-5.1,6.1-6.6,2.5-.7-1.6-.7-5-3.7-4.7-4.1.4-3,6-1.3,8.5,6.1,8.9,19.7,3.7,17.7-7.9-.3-1.5-2.2-4-2.2-4.2s1.3-1.8,1.6-2.4c3.5-7.7-3.4-16.2-11.6-13.7Z"/>
</svg>